<svg viewBox="0 0 24 24" xmlns="http://www.w3.org/2000/svg" fill-rule="evenodd" clip-rule="evenodd" stroke-linejoin="round" stroke-miterlimit="1.414"><path fill="none" d="M0 0h24v24H0z"/><path d="M4.018 17.048A9.453 9.453 0 0 1 2.5 11.897c0-5.243 4.257-9.5 9.5-9.5s9.5 4.257 9.5 9.5-4.257 9.5-9.5 9.5a9.452 9.452 0 0 1-4.863-1.339L2.5 21.603l1.518-4.555z" fill="#f3f3f3"/><path d="M5.795 16.304a7.57 7.57 0 0 1-1.407-4.407A7.616 7.616 0 0 1 12 4.285a7.616 7.616 0 0 1 7.612 7.612 7.615 7.615 0 0 1-11.9 6.288l-2.862.954.945-2.835z" fill="#00a82d"/><path d="M9.714 13.873a9.658 9.658 0 0 1-2.109-4.88 1.7 1.7 0 0 1 1.829-1.902l.049.005.868.233a.38.38 0 0 1 .26.243l.618 1.826c.05.147.004.31-.114.41l-.858.723a.376.376 0 0 0-.1.443 7.774 7.774 0 0 0 1.057 1.69 7.76 7.76 0 0 0 1.485 1.327c.14.095.325.085.454-.024l.858-.722a.379.379 0 0 1 .424-.043l1.694.918c.111.06.185.172.196.297l.083.895-.004.049a1.699 1.699 0 0 1-2.184 1.481 9.652 9.652 0 0 1-4.479-2.937l-.027-.032z" fill="#f3f3f3"/></svg>