<svg xmlns="http://www.w3.org/2000/svg" width="244.5" height="77.5" viewBox="0 0 244.5 77.5"><path d="M67.568 32.748c7.15 0 13.287 5.121 13.287 12.477 0 7.125-6.76 11.207-13.287 11.207-6.852 0-13.398-4.43-13.398-11.785 0-7.241 6.613-11.899 13.398-11.899zm0 2.428c3.465 0 6.586 4.389 6.586 9.471 0 5.201-3.121 9.594-6.586 9.594-3.584 0-6.582-4.393-6.582-9.594 0-5.083 2.998-9.471 6.582-9.471zm74.174 19.41h-9.818V32.287h9.818v5.547c3.135-3.617 21.373-6.471 21.373 1.154v15.598h-10.398V43.148c0-1.934-.082-3.463-1.75-4.539-3.334-2.148-9.625-1.41-9.225 3.498v12.479zm79.256 0h-9.82V32.287h9.82v5.547c3.768-3.768 21.721-6.721 21.721 1.963v14.789h-10.977V43.148c0-1.615-.242-3.584-1.652-4.596-2.889-2.078-9.484-1.311-9.092 3.555v12.479zm-48.406-30.617c3.004-.926 5.891-.463 6.234 1.154.463 1.619-1.617 3.697-4.621 4.736-3 .811-5.891.463-6.35-1.27-.462-1.614 1.729-3.581 4.737-4.62zm6.008 30.617h-10.053V32.287H178.6v22.299zm-56.614-30.617c3.119-.926 5.891-.463 6.354 1.154.576 1.619-1.615 3.697-4.619 4.736-3.123.811-5.895.463-6.242-1.27-.577-1.614 1.501-3.581 4.507-4.62zm6.119 30.617h-9.932V32.287h9.932v22.299zM93.91 38.988v13.055c1.18 1.1 2.773 2.422 4.623 2.422 4.041 0 7.16-4.502 7.16-9.24 0-3.98-1.828-7.08-4.498-8.313-2.787-1.287-5.422-.293-7.285 2.076zM83.627 75.15V32.287H93.91v3.814c3.117-2.896 10.371-3.516 14.328-2.197 5.313 1.5 8.201 7.625 7.623 11.9-.756 11.365-14.395 13.262-21.951 7.742V75.15H83.627zM22.164 36.102c1.988 1.703.564 5.773-2.193 5.773-1.965 0-3.584-1.268-3.584-3 0-7.857 11.438-7.283 16.291-5.895 4.619 1.617 5.664 4.043 5.664 8.434v13.865h-8.898v-1.732c-4.391 3.002-14.557 2.309-14.557-4.504 0-7.289 9.619-7.67 14.557-5.666 0-2.541-.463-9.127-3.695-9.127-2.198 0-4.276 0-3.585 1.852zm.807 9.009c3.119 0 5.086 1.734 5.086 4.16 0 2.313-1.967 4.391-5.086 4.391-3 0-4.965-2.078-4.965-4.391 0-2.425 1.965-4.16 4.965-4.16zm-9.703 10.168H3.563V23.043h9.705v32.236zm186.058-27.701l-8.711 2.979-.467-.58 6.324-6.322c1.02-1.02 3.068-.762 3.799.475.659 1.114.405 2.985-.945 3.448zm-5.013 5.17c7.307 0 13.516 5.297 13.516 12.826 0 7.443-6.76 11.324-13.516 11.324-6.955 0-13.172-4.605-13.172-11.9 0-7.098 6.351-12.25 13.172-12.25zm0 2.543c4.043 0 6.93 4.506 6.93 9.707 0 5.197-2.887 9.703-6.93 9.703-3.584 0-6.818-4.506-6.818-9.703-.001-5.201 3.234-9.707 6.818-9.707z" fill-rule="evenodd" clip-rule="evenodd" fill="#FFF"/><g fill="#FFF"><path d="M22.859 12.764h-4.982c-.631 0-1.146.485-1.146 1.035 0 .551-.511 1.02-1.144 1.025l-4.508.048c-.633.005-1.146-.483-1.146-1.048 0-.568-.512-1.061-1.145-1.061H3.757c-.633 0-1.318.588-1.318 1.223v5.166c0 .594.66 1.061 1.254 1.061h19.226c.596 0 1.294-.467 1.294-1.061v-5.169c.001-.631-.721-1.219-1.354-1.219zm.06-6.875h-5.292V4.59a2.263 2.263 0 0 0-2.26-2.259h-4.112A2.26 2.26 0 0 0 8.999 4.59v1.299H3.694c-.594 0-1.254.725-1.254 1.32v3.144c0 .698.566 1.267 1.266 1.267h4.917c.699 0 1.266-.568 1.266-1.267v-.175c0-.471.381-.852.85-.852h5.175c.47 0 .85.381.85.852v.175c0 .698.566 1.267 1.266 1.267h4.919c.7 0 1.266-.568 1.266-1.267V7.209c-.001-.596-.699-1.32-1.296-1.32zM10.833 4.59c0-.234.191-.426.422-.426h4.112c.236 0 .426.191.426.426v1.207h-4.96V4.59z"/><path d="M15.142 13.784a.572.572 0 0 0 .572-.571v-2.284a.572.572 0 0 0-.572-.571h-3.559a.674.674 0 0 0-.672.674v2.182c0 .314.256.571.569.571h3.662v-.001z"/></g><path d="M36.136 17.886c-.354.272-.804.461-1.347.567a9.073 9.073 0 0 1-1.737.16 5.687 5.687 0 0 1-2.091-.382 4.571 4.571 0 0 1-1.701-1.161c-.485-.52-.869-1.184-1.152-1.993-.284-.81-.425-1.769-.425-2.88 0-1.158.156-2.142.469-2.951.313-.809.727-1.471 1.241-1.984a4.77 4.77 0 0 1 1.728-1.125 5.58 5.58 0 0 1 1.949-.355c.709 0 1.288.039 1.737.115.449.078.833.181 1.152.311l-.354 1.312c-.567-.284-1.376-.425-2.428-.425-.485 0-.963.088-1.436.266-.473.177-.895.467-1.267.868s-.671.928-.895 1.577c-.225.65-.337 1.447-.337 2.393 0 .851.106 1.595.319 2.232.212.639.505 1.17.877 1.596.373.426.809.744 1.312.957a4.15 4.15 0 0 0 1.639.318c.532 0 .996-.053 1.392-.159a3.843 3.843 0 0 0 1.001-.407l.354 1.15zm3.615-1.665c0 .413.071.709.212.885.142.178.343.267.603.267.154 0 .319-.012.497-.036.177-.023.378-.076.603-.158l.159 1.115c-.189.096-.452.172-.789.23-.336.06-.629.09-.877.09-.532 0-.969-.151-1.312-.453-.343-.301-.514-.812-.514-1.532V5.994h1.418v10.227zm3.456-6.026a5.13 5.13 0 0 1 1.568-.604 8.83 8.83 0 0 1 1.87-.195c.614 0 1.108.084 1.48.248.372.166.656.382.851.647.195.267.325.558.39.878.064.318.097.637.097.957 0 .708-.018 1.399-.053 2.072a37.046 37.046 0 0 0-.053 1.914c0 .438.018.852.053 1.241.036.39.101.75.195 1.081h-1.046l-.372-1.24h-.088a2.899 2.899 0 0 1-.399.486c-.16.16-.352.302-.576.426a3.634 3.634 0 0 1-.78.311 3.78 3.78 0 0 1-1.01.123 3.07 3.07 0 0 1-1.055-.177 2.35 2.35 0 0 1-1.4-1.294 2.554 2.554 0 0 1-.204-1.045c0-.52.106-.954.319-1.303.212-.349.511-.626.895-.833.384-.206.844-.354 1.382-.442.537-.09 1.131-.134 1.781-.134h.487c.16 0 .322.013.487.036.036-.355.053-.674.053-.957 0-.65-.13-1.105-.39-1.365s-.733-.39-1.418-.39c-.201 0-.417.015-.646.046a7.69 7.69 0 0 0-.709.127 5.807 5.807 0 0 0-.691.201 3.29 3.29 0 0 0-.576.264l-.442-1.079zm2.517 7.106c.331 0 .626-.044.886-.133.26-.088.484-.201.673-.336.189-.137.346-.287.47-.453.124-.164.215-.324.274-.479v-1.47c-.166-.012-.333-.02-.505-.025s-.34-.01-.505-.01c-.367 0-.724.021-1.072.063a3.374 3.374 0 0 0-.921.23 1.612 1.612 0 0 0-.638.461c-.16.194-.239.439-.239.734 0 .414.147.754.443 1.02s.673.398 1.134.398zm10.314-1.311c0-.355-.106-.633-.319-.834a2.693 2.693 0 0 0-.789-.504c-.313-.137-.656-.267-1.028-.391s-.715-.283-1.028-.479-.576-.445-.789-.753c-.213-.308-.319-.721-.319-1.241 0-.85.242-1.473.727-1.869.484-.396 1.158-.594 2.02-.594.638 0 1.172.057 1.604.168.431.113.806.246 1.125.399l-.337 1.169a5.793 5.793 0 0 0-.983-.346c-.384-.1-.795-.15-1.232-.15-.52 0-.901.089-1.143.266-.242.178-.363.485-.363.922 0 .308.106.547.319.718.213.171.476.325.789.461s.656.269 1.028.399c.372.129.714.301 1.028.514.313.213.576.48.789.807.212.324.319.752.319 1.284 0 .378-.062.733-.186 1.063s-.316.614-.576.851-.582.423-.966.558c-.384.137-.836.205-1.355.205-.673 0-1.247-.066-1.719-.195a5.447 5.447 0 0 1-1.188-.461l.426-1.205c.271.153.626.295 1.063.426.437.129.88.194 1.329.194.508 0 .928-.101 1.258-.302.33-.2.496-.56.496-1.08zM59.6 6.846a.99.99 0 0 1 .274-.701c.183-.194.417-.292.7-.292s.526.097.727.292c.201.195.301.43.301.701s-.101.496-.301.673c-.201.177-.443.267-.727.267s-.517-.09-.7-.267-.274-.402-.274-.673zm.301 2.693h1.417V18.4h-1.417V9.539zm11.271 0V18.4h-1.417v-7.621h-3.58V18.4h-1.418v-7.621h-1.382v-1.24h1.382v-.496c0-1.111.275-1.917.824-2.42.549-.502 1.356-.752 2.419-.752.697 0 1.317.067 1.861.203.543.137.969.299 1.276.487l-.479 1.134a3.507 3.507 0 0 0-1.134-.442 6.59 6.59 0 0 0-1.4-.142c-.437 0-.783.051-1.037.15-.254.101-.449.254-.585.461s-.224.463-.266.771-.062.655-.062 1.046h4.998zm8.79 8.275a3.835 3.835 0 0 1-1.258.594 5.57 5.57 0 0 1-1.524.205c-.686 0-1.264-.109-1.737-.328s-.859-.532-1.161-.939a4.003 4.003 0 0 1-.656-1.471 8.265 8.265 0 0 1-.204-1.906c0-1.5.331-2.648.993-3.446s1.613-1.196 2.853-1.196c.567 0 1.048.045 1.444.133.396.089.753.216 1.072.381l-.408 1.223a3.927 3.927 0 0 0-.904-.363 4.122 4.122 0 0 0-1.063-.133c-1.678 0-2.517 1.135-2.517 3.402 0 .449.044.878.133 1.285.089.408.236.769.443 1.082.207.313.479.563.815.752.337.189.753.284 1.25.284.425 0 .806-.065 1.143-.194.336-.131.611-.278.824-.443l.462 1.078zm1.807-7.619a5.13 5.13 0 0 1 1.568-.604 8.83 8.83 0 0 1 1.87-.195c.614 0 1.108.084 1.48.248.372.166.656.382.851.647.195.267.325.558.39.878.064.318.097.637.097.957 0 .708-.018 1.399-.053 2.072a37.046 37.046 0 0 0-.053 1.914c0 .438.018.852.053 1.241.036.39.101.75.195 1.081h-1.046l-.372-1.24h-.088a2.899 2.899 0 0 1-.399.486c-.16.16-.352.302-.576.426a3.634 3.634 0 0 1-.78.311 3.78 3.78 0 0 1-1.01.123 3.07 3.07 0 0 1-1.055-.177 2.35 2.35 0 0 1-1.4-1.294 2.554 2.554 0 0 1-.204-1.045c0-.52.106-.954.319-1.303.212-.349.511-.626.895-.833.384-.206.844-.354 1.382-.442.537-.09 1.131-.134 1.781-.134h.487c.16 0 .322.013.487.036.036-.355.053-.674.053-.957 0-.65-.13-1.105-.39-1.365s-.733-.39-1.418-.39c-.201 0-.417.015-.646.046a7.69 7.69 0 0 0-.709.127 5.807 5.807 0 0 0-.691.201 3.29 3.29 0 0 0-.576.264l-.442-1.079zm2.517 7.106c.331 0 .626-.044.886-.133.26-.088.484-.201.673-.336.189-.137.346-.287.47-.453.124-.164.215-.324.274-.479v-1.47c-.166-.012-.333-.02-.505-.025s-.34-.01-.505-.01c-.367 0-.724.021-1.072.063a3.374 3.374 0 0 0-.921.23 1.612 1.612 0 0 0-.638.461c-.16.194-.239.439-.239.734 0 .414.147.754.443 1.02s.673.398 1.134.398zm13.22-1.949c0 .603.006 1.149.018 1.64s.065.972.16 1.444h-.957l-.354-1.258h-.071a2.857 2.857 0 0 1-1.028 1.027c-.449.271-.975.408-1.578.408-1.181 0-2.059-.373-2.631-1.117-.573-.744-.86-1.908-.86-3.491 0-1.513.357-2.661 1.072-3.446.715-.786 1.698-1.18 2.951-1.18.437 0 .783.024 1.037.071.254.048.528.124.824.23V5.994h1.418v9.358zm-3.58 2.02c.603 0 1.081-.157 1.436-.47s.597-.789.727-1.427V11.08a2.004 2.004 0 0 0-.727-.354c-.272-.071-.632-.106-1.081-.106-.815 0-1.453.269-1.914.806-.46.538-.691 1.398-.691 2.579 0 .484.038.934.115 1.347.077.414.204.768.381 1.063s.411.528.7.7c.289.172.641.257 1.054.257zm5.813-3.403c0-1.5.334-2.648 1.001-3.446s1.627-1.196 2.88-1.196c.662 0 1.237.109 1.728.328.49.219.895.531 1.214.939.319.407.555.897.709 1.471.153.573.23 1.208.23 1.904 0 1.501-.333 2.65-1.001 3.447-.667.798-1.628 1.197-2.88 1.197-.662 0-1.238-.109-1.728-.328s-.895-.532-1.214-.939a4.055 4.055 0 0 1-.709-1.471 7.387 7.387 0 0 1-.23-1.906zm1.471 0c0 .449.044.881.133 1.295.089.413.228.773.417 1.08.189.308.437.556.744.744.307.189.68.284 1.117.284 1.606.012 2.41-1.122 2.41-3.403 0-.46-.044-.896-.133-1.311-.089-.414-.228-.773-.417-1.081s-.438-.552-.744-.735c-.308-.184-.68-.275-1.117-.275-1.607-.012-2.41 1.122-2.41 3.402zm12.423 2.021c0-.355-.106-.633-.319-.834a2.693 2.693 0 0 0-.789-.504c-.313-.137-.656-.267-1.028-.391s-.715-.283-1.028-.479-.576-.445-.789-.753c-.213-.308-.319-.721-.319-1.241 0-.85.242-1.473.727-1.869.484-.396 1.158-.594 2.02-.594.638 0 1.172.057 1.604.168.431.113.806.246 1.125.399l-.337 1.169a5.793 5.793 0 0 0-.983-.346c-.384-.1-.795-.15-1.232-.15-.52 0-.901.089-1.143.266-.242.178-.363.485-.363.922 0 .308.106.547.319.718.213.171.476.325.789.461s.656.269 1.028.399c.372.129.714.301 1.028.514.313.213.576.48.789.807.212.324.319.752.319 1.284 0 .378-.062.733-.186 1.063s-.316.614-.576.851-.582.423-.966.558c-.384.137-.836.205-1.355.205-.673 0-1.247-.066-1.719-.195a5.447 5.447 0 0 1-1.188-.461l.426-1.205c.271.153.626.295 1.063.426.437.129.88.194 1.329.194.508 0 .928-.101 1.258-.302.33-.2.496-.56.496-1.08z" fill="#FFF"/></svg>