<svg xmlns="http://www.w3.org/2000/svg" width="800" height="232.836" viewBox="0 0 800 232.836"><path fill="none" d="M406.529 125.347v9.831c0 4.275.447 7.337 1.341 9.186.897 1.854 2.354 2.782 4.369 2.782 2.008 0 3.656-.686 4.946-2.047 1.276-1.362 2.074-2.9 2.409-4.609v-31.072c-5.133 2.278-8.591 4.436-10.377 6.467-1.788 2.037-2.688 5.187-2.688 9.462zm127.404-45.844c-2.531 0-4.252 1.111-5.19 3.326-.938 2.221-1.411 5.587-1.411 10.105v40.962c0 6.71 1.104 10.823 3.302 12.329.897.613 2.019.919 3.362.919 2.521 0 4.235-1.109 5.15-3.328.924-2.218 1.379-5.528 1.379-9.92V92.934c0-4.476-.473-7.837-1.411-10.074-.928-2.236-2.66-3.357-5.181-3.357zm-401.867 45.844v9.831c0 4.275.447 7.337 1.344 9.186.893 1.854 2.35 2.782 4.365 2.782 2.016 0 3.662-.686 4.947-2.047 1.281-1.362 2.08-2.9 2.408-4.609v-31.072c-5.127 2.278-8.586 4.436-10.376 6.467-1.791 2.037-2.688 5.187-2.688 9.462zm344.662-44.806c-.979-.652-2.16-.978-3.535-.978-2.733 0-4.546 1.243-5.435 3.725-.893 2.48-1.344 6.187-1.344 11.108v37.669c0 5.045.473 8.82 1.434 11.323.962 2.502 2.756 3.756 5.375 3.756 2.621 0 4.432-1.254 5.435-3.756.997-2.503 1.493-6.688 1.493-12.545V94.214c-.001-7.528-1.146-12.087-3.423-13.673zm221.29 8.646c-10.164 0-13.248 12.93-13.248 27.729 0 14.779 3.084 27.712 13.248 27.712 11.494 0 14.254-12.933 14.254-27.712-.001-14.799-2.76-27.729-14.254-27.729z"/><path fill="#FFF" d="M533.933 66.437c-15.27 0-22.894 9.79-22.894 29.365v34.248c0 9.763 1.668 17.235 5.005 22.407 3.332 5.167 9.311 7.747 17.951 7.747 4.347 0 8.032-.667 11.04-2.011 7.858-3.5 11.783-12.883 11.783-28.143V95.802c0-19.575-7.626-29.365-22.885-29.365zm6.591 67.459c0 4.393-.455 7.702-1.379 9.92-.915 2.219-2.63 3.328-5.15 3.328-1.344 0-2.465-.307-3.362-.919-2.197-1.506-3.302-5.619-3.302-12.329V92.934c0-4.519.473-7.885 1.411-10.105.938-2.214 2.659-3.326 5.19-3.326 2.521 0 4.253 1.121 5.181 3.357.938 2.237 1.411 5.598 1.411 10.074v40.962zm-238.871-66.36h16.175v91.572h-16.175zm111.683-1.099c-8.239 0-13.98 2.282-17.218 6.841-3.233 4.557-4.852 11.172-4.852 19.839v2.749h15.995v-4.092c0-4.435.429-7.589 1.28-9.462.856-1.872 2.552-2.808 5.101-2.808 2.542 0 4.166.886 4.879 2.654.711 1.775 1.073 5.141 1.073 10.105v7.997c-.858.327-2.337.875-4.424 1.648a443.149 443.149 0 0 0-4.915 1.83c-6.518 2.483-11.134 5.046-13.862 7.695-4.23 4.028-6.35 9.946-6.35 17.761v5.862c.087 8.058 1.403 14.236 3.969 18.529 2.562 4.292 6.84 6.438 12.819 6.438 3.256 0 6.034-.964 8.339-2.899 2.295-1.934 3.85-4.306 4.662-7.111v9.095h16.305V93.786c0-9.114-1.741-15.951-5.22-20.508-3.478-4.559-9.343-6.841-17.581-6.841zm6.259 74.052c-.335 1.709-1.133 3.247-2.409 4.609-1.29 1.361-2.938 2.047-4.946 2.047-2.015 0-3.472-.929-4.369-2.782-.894-1.849-1.341-4.911-1.341-9.186v-9.831c0-4.274.899-7.424 2.688-9.462 1.786-2.031 5.244-4.189 10.377-6.467v31.072zm262.793 19.075h-2.296l-1.333 1.875-10.614 14.913-10.626-14.913-1.328-1.875h-10.35a5.94 5.94 0 0 1-5.943-5.934V50.242a5.945 5.945 0 0 1 5.943-5.937h108.323a5.944 5.944 0 0 1 5.938 5.937v96.164l4.451 2.715V50.242c0-5.738-4.648-10.388-10.389-10.388H645.841c-5.74 0-10.398 4.65-10.398 10.388V153.63c0 5.736 4.658 10.385 10.398 10.385h8.055l14.249 20.017 14.243-20.017h46.677l-.704-4.451h-45.973zM356.41 66.437c-7.49 0-13.086 1.856-16.788 5.558-4.641 4.638-6.963 13.613-6.963 26.92v29.67c0 10.254 1.625 18.091 4.856 23.502 3.238 5.416 9.434 8.116 18.588 8.116 7.693 0 13.208-2.407 16.541-7.232 3.337-4.821 5.01-11.706 5.01-20.662v-9.28h-15.625v12.148c0 1.587-.063 2.972-.185 4.148-.487 5.051-2.543 7.594-6.168 7.634-2.647 0-4.424-1.06-5.339-3.174-.916-2.115-1.371-5.434-1.371-9.952V92.567c0-4.352.496-7.589 1.493-9.707.996-2.115 2.673-3.172 5.036-3.172 2.359 0 4.041.71 5.037 2.136.997 1.424 1.497 4.925 1.497 10.501v10.618h15.625v-10.07c0-8.548-1.673-15.088-5.01-19.627-3.333-4.537-8.745-6.809-16.234-6.809zm123.676 6.778c-1.181-2.074-2.817-3.723-4.914-4.945-2.093-1.218-4.405-1.833-6.927-1.833-6.471 0-11.11 2.444-13.917 7.328-2.804 4.883-4.206 11.149-4.206 18.802v37.298c0 6.07.348 11.224 1.06 15.476.708 4.252 2.296 7.766 4.73 10.534 2.439 2.764 6.119 4.148 11.053 4.148 6.299 0 10.687-3.128 13.121-9.401v8.486h16.18V50.751h-16.18v22.464zm.064 57.629c0 5.858-.496 10.042-1.493 12.545-1.003 2.502-2.813 3.756-5.435 3.756-2.619 0-4.413-1.254-5.375-3.756-.961-2.503-1.434-6.278-1.434-11.323V94.397c0-4.922.451-8.628 1.344-11.108.889-2.482 2.701-3.725 5.435-3.725 1.375 0 2.557.325 3.535.978 2.277 1.586 3.423 6.145 3.423 13.673v36.629z"/><path fill="#FFF" d="M736.379 118.554c0-21.426-17.623-36.508-38.361-36.508-19.335 0-37.355 14.665-37.355 34.871 0 20.759 17.642 33.858 37.355 33.858 10.102 0 20.207-3.07 27.508-9.068l-2.883-18.127 11.378 6.936c1.505-3.541 2.358-7.528 2.358-11.962zm-38.361 26.075c-10.164 0-13.248-12.933-13.248-27.712 0-14.799 3.084-27.729 13.248-27.729 11.494 0 14.254 12.93 14.254 27.729-.001 14.779-2.76 27.712-14.254 27.712z"/><path fill="#FFF" d="M776.877 159.636l-50.747-30.934 9.309 58.702 14.635-17.775 14.739 21.654 4.909-3.338-14.697-21.581zm-57.404-97.86c.876-2.421.637-5.366-.622-7.492-1.132-1.917-3.341-3.253-5.883-3.589-2.586-.327-5.043.431-6.617 2.015l-19.999 20.001 1.876 2.322 27.444-9.379c1.746-.598 3.094-1.969 3.801-3.878zm-450.391-7.332c-2.661 2.83-3.995 6.807-3.995 11.934v4.762h-7.143v11.661h7.08v76.306h16.179V82.802h9.275V71.141h-9.275v-4.273c0-3.499 1.668-5.251 5.005-5.251 1.625 0 3.054.079 4.271.244V51.73c-2.724-1.02-6.303-1.532-10.741-1.532s-7.991 1.42-10.656 4.246zm-73.286 47.098c-4.311-4.152-6.471-8.647-6.471-13.491 0-3.053.519-5.208 1.56-6.472 1.038-1.259 2.643-1.891 4.821-1.891s3.733 1.007 4.672 3.021c.937 2.017 1.402 5.096 1.402 9.249V98h14.471v-5.005c0-9.523-1.655-16.328-4.979-20.42-3.314-4.09-8.555-6.137-15.715-6.137-14.412 0-21.614 7.492-21.614 22.468 0 9.28 3.766 17.358 11.296 24.233.406.408 1.84 1.711 4.302 3.909 2.462 2.196 3.774 3.375 3.937 3.538 5.619 5.213 8.423 10.867 8.423 16.973 0 3.458-.486 5.916-1.465 7.359-.974 1.443-2.561 2.165-4.757 2.165-4.153 0-6.231-4.067-6.231-12.207v-7.39h-15.196v5.92c0 9.402 1.767 16.229 5.307 20.481 3.544 4.252 9.037 6.381 16.486 6.381 7.445 0 12.938-1.953 16.482-5.862 3.544-3.906 5.308-9.767 5.308-17.578 0-9.975-4.456-19.108-13.366-27.41l-8.673-7.876zm-56.921-35.105c-8.243 0-13.983 2.282-17.221 6.841-3.233 4.557-4.848 11.172-4.848 19.839v2.749h15.99v-4.092c0-4.435.428-7.589 1.285-9.462.853-1.872 2.553-2.808 5.096-2.808s4.171.886 4.883 2.654c.713 1.775 1.069 5.141 1.069 10.105v7.997c-.852.327-2.332.875-4.423 1.648a614.793 614.793 0 0 0-4.916 1.83c-6.512 2.483-11.129 5.046-13.858 7.695-4.233 4.028-6.348 9.946-6.348 17.761v5.862c.081 8.058 1.407 14.236 3.968 18.529 2.561 4.292 6.836 6.438 12.82 6.438 3.256 0 6.033-.964 8.333-2.899 2.295-1.934 3.855-4.306 4.667-7.111v9.095h16.301V93.786c0-9.114-1.741-15.951-5.221-20.508-3.476-4.559-9.339-6.841-17.577-6.841zm6.254 74.052c-.329 1.709-1.127 3.247-2.408 4.609-1.285 1.361-2.931 2.047-4.947 2.047-2.015 0-3.472-.929-4.365-2.782-.897-1.849-1.344-4.911-1.344-9.186v-9.831c0-4.274.897-7.424 2.688-9.462 1.79-2.031 5.249-4.189 10.376-6.467v31.072zm84.857-95.416h16.296v14.042h-16.296zm71.486 0h16.296v14.042h-16.296zM84.695 50.751h16.118v108.356H84.695zm145.472 16.785h16.175v91.572h-16.175zM55.146 129.992c0 5.817-.505 9.988-1.524 12.509-1.019 2.525-2.868 3.788-5.556 3.788-2.683 0-4.536-1.245-5.55-3.725-1.02-2.48-1.533-6.615-1.533-12.391v-50.18c0-5.211.532-9.075 1.592-11.6 1.055-2.521 2.949-3.784 5.677-3.784 2.728 0 4.559 1.191 5.493 3.572.938 2.378 1.402 6.338 1.402 11.873v13.733H70.96v-14.77c0-19.047-7.554-28.571-22.646-28.571-4.397 0-8.145.732-11.233 2.199-8.387 3.988-12.577 13.976-12.577 29.974v46.824c0 9.965 1.962 17.609 5.889 22.921 3.927 5.308 9.858 7.968 17.794 7.968s13.758-2.499 17.459-7.481c3.703-4.983 5.555-12.667 5.555-23.042v-15.203H55.146v15.386zm535.217-28.45c-4.316-4.152-6.471-8.646-6.471-13.489 0-3.055.509-5.21 1.551-6.47 1.036-1.261 2.647-1.894 4.829-1.894 2.168 0 3.724 1.007 4.663 3.021.938 2.017 1.4 5.098 1.4 9.251V98h14.472v-5.005c0-9.523-1.652-16.328-4.975-20.418-3.317-4.093-8.553-6.135-15.714-6.135-14.413 0-21.617 7.487-21.617 22.465 0 9.278 3.769 17.356 11.294 24.233.407.409 1.847 1.709 4.308 3.91 2.463 2.193 3.769 3.373 3.932 3.539 5.618 5.209 8.425 10.863 8.425 16.969 0 3.458-.483 5.916-1.467 7.359-.974 1.443-2.562 2.165-4.753 2.165-4.153 0-6.228-4.067-6.228-12.207v-7.39h-15.205v5.92c0 9.402 1.768 16.229 5.313 20.481 3.545 4.257 9.04 6.381 16.486 6.381 7.444 0 12.94-1.953 16.485-5.857 3.535-3.91 5.303-9.771 5.303-17.582 0-9.97-4.459-19.108-13.366-27.41l-8.665-7.876z"/></svg>