<?xml version="1.0" encoding="utf-8"?>
<!-- Generator: Adobe Illustrator 16.0.0, SVG Export Plug-In . SVG Version: 6.00 Build 0)  -->
<!DOCTYPE svg PUBLIC "-//W3C//DTD SVG 1.1//EN" "http://www.w3.org/Graphics/SVG/1.1/DTD/svg11.dtd">
<svg version="1.1" xmlns="http://www.w3.org/2000/svg" xmlns:xlink="http://www.w3.org/1999/xlink" x="0px" y="0px"
	 width="144.794px" height="63.334px" viewBox="0 0 144.794 63.334" enable-background="new 0 0 144.794 63.334"
	 xml:space="preserve">
<g id="Soporte">
</g>
<g id="Publicidad">
</g>
<g id="Imagenes">
</g>
<g id="Cintillos">
</g>
<g id="Botones">
</g>
<g id="Iconos">
	<g>
		<path fill="#FFFFFF" d="M20.861,39.958c-6.105,0-11.055,4.949-11.055,11.055s4.949,11.055,11.055,11.055
			s11.055-4.949,11.055-11.055S26.967,39.958,20.861,39.958z M20.861,60.147c-5.045,0-9.135-4.09-9.135-9.135
			s4.09-9.135,9.135-9.135s9.135,4.09,9.135,9.135S25.906,60.147,20.861,60.147z"/>
		<circle fill="#FFFFFF" cx="20.861" cy="51.013" r="1.979"/>
		<circle fill="#FFFFFF" cx="23.887" cy="46.358" r="3.084"/>
		<circle fill="#FFFFFF" cx="26.214" cy="52.409" r="3.083"/>
		<circle fill="#FFFFFF" cx="21.094" cy="56.365" r="3.084"/>
		<circle fill="#FFFFFF" cx="15.741" cy="52.874" r="3.083"/>
		<circle fill="#FFFFFF" cx="17.603" cy="46.823" r="3.083"/>
		<path fill="#FFFFFF" d="M121.867,39.958c-6.105,0-11.056,4.949-11.056,11.055s4.95,11.055,11.056,11.055
			c6.104,0,11.055-4.949,11.055-11.055S127.972,39.958,121.867,39.958z M121.867,60.147c-5.045,0-9.135-4.09-9.135-9.135
			s4.09-9.135,9.135-9.135s9.134,4.09,9.134,9.135S126.912,60.147,121.867,60.147z"/>
		<circle fill="#FFFFFF" cx="121.867" cy="51.013" r="1.978"/>
		<circle fill="#FFFFFF" cx="124.892" cy="46.358" r="3.083"/>
		<circle fill="#FFFFFF" cx="127.219" cy="52.409" r="3.083"/>
		<circle fill="#FFFFFF" cx="122.1" cy="56.365" r="3.084"/>
		<circle fill="#FFFFFF" cx="116.747" cy="52.874" r="3.083"/>
		<circle fill="#FFFFFF" cx="118.608" cy="46.823" r="3.083"/>
		<path fill="none" d="M72.76,28.903c0,0,5.004-0.408,7.099,0.989l0.116-1.454l-6.865-0.524L72.76,28.903z"/>
		<path fill="none" d="M105.343,21.34v4.888h3.724c0,0,0.641-0.263,0.641-0.902C109.707,24.685,105.343,21.34,105.343,21.34z"/>
		<path fill="none" d="M70.2,9.47v12.801c0.233,1.861,1.745,2.095,1.745,2.095l28.277,1.396v-3.413c0-1.823,0.931-1.706,0.931-1.706
			h2.948C90.99,9.005,75.805,8.112,73.168,7.958C70.529,7.802,70.2,9.47,70.2,9.47z"/>
		<ellipse fill="#FFFFFF" cx="36.435" cy="21.905" rx="4.024" ry="6.09"/>
		<path fill="none" d="M72.76,28.903c0,0,5.004-0.408,7.099,0.989l0.116-1.454l-6.865-0.524L72.76,28.903z"/>
		<path fill="none" d="M33.965,13.104c0,0,4.594-1.507,6.055-2.083c0.109-0.043,1.105-0.798,0-2.336
			c-0.914-1.267-1.845-0.707-2.121-0.432c-1.096,1.096-3.839,3.855-4.238,4.238c-0.264,0.254-0.402,0.514-0.309,0.631
			C33.477,13.276,33.965,13.104,33.965,13.104z"/>
		<path fill="none" d="M70.2,9.47v12.801c0.233,1.861,1.745,2.095,1.745,2.095l28.277,1.396v-3.413c0-1.823,0.931-1.706,0.931-1.706
			h2.948C90.99,9.005,75.805,8.112,73.168,7.958C70.529,7.802,70.2,9.47,70.2,9.47z"/>
		<ellipse fill="none" cx="36.435" cy="21.905" rx="8.843" ry="7.783"/>
		<path fill="none" d="M105.343,21.34v4.888h3.724c0,0,0.641-0.263,0.641-0.902C109.707,24.685,105.343,21.34,105.343,21.34z"/>
		<path fill="#FFFFFF" d="M143.045,45.078c0-0.815-0.697-0.815-0.697-0.815c0-4.77-2.678-12.684-2.678-12.684l-1.047,0.117
			c-4.306-5.936-27.347-8.844-27.347-8.844C94.52,10.517,86.141,6.91,86.141,6.91C64.613-1.003,14.807,3.419,12.014,3.651
			s-3.96,1.396-3.96,1.396s-2.103,4.306-4.08,18.619C1.995,37.979,3.727,49.15,3.959,50.082c0.232,0.931,4.51,0.813,4.51,0.813
			S8.139,38.62,20.744,38.62c14.779,0,12.219,14.371,12.219,14.371h76.336c0,0-2.25-14.217,11.986-14.371
			c15.482-0.169,12.451,14.371,12.451,14.371C144.674,52.759,143.045,45.893,143.045,45.078z M6.471,36.312l-2.6,0.117
			c-0.115-3.22,0.272-5.16,0.272-5.16c1.59-0.349,2.715,0.156,2.715,0.156C6.897,32.394,6.471,36.312,6.471,36.312z M33.66,12.491
			c0.399-0.383,3.143-3.143,4.238-4.238c0.276-0.275,1.207-0.835,2.121,0.432c1.105,1.538,0.109,2.293,0,2.336
			c-1.461,0.576-6.055,2.083-6.055,2.083s-0.488,0.173-0.613,0.019C33.258,13.005,33.396,12.745,33.66,12.491z M36.435,29.688
			c-4.883,0-8.843-3.484-8.843-7.783s3.96-7.783,8.843-7.783c4.882,0,8.841,3.484,8.841,7.783S41.316,29.688,36.435,29.688z
			 M79.858,29.893c-2.095-1.397-7.099-0.989-7.099-0.989l0.35-0.989l6.865,0.524L79.858,29.893z M101.153,20.642
			c0,0-0.931-0.117-0.931,1.706v3.413l-28.277-1.396c0,0-1.512-0.233-1.745-2.095V9.47c0,0,0.329-1.668,2.968-1.512
			c2.637,0.154,17.822,1.047,30.934,12.684H101.153z M109.066,26.228h-3.724V21.34c0,0,4.364,3.345,4.364,3.985
			C109.707,25.965,109.066,26.228,109.066,26.228z M135.498,38.218c0,0-1.133-2.01-0.329-3.289c0,0,0.512-1.205,3.325-1.681
			c0,0,0.768,1.974,1.133,4.13C139.627,37.378,138.312,38.328,135.498,38.218z"/>
	</g>
</g>
<g id="TXT">
</g>
<g id="Guias" display="none">
</g>
</svg>
