<?xml version="1.0" encoding="utf-8"?>
<!-- Generator: Adobe Illustrator 16.0.0, SVG Export Plug-In . SVG Version: 6.00 Build 0)  -->
<!DOCTYPE svg PUBLIC "-//W3C//DTD SVG 1.1//EN" "http://www.w3.org/Graphics/SVG/1.1/DTD/svg11.dtd">
<svg version="1.1" id="Capa_1" xmlns="http://www.w3.org/2000/svg" xmlns:xlink="http://www.w3.org/1999/xlink" x="0px" y="0px"
	 width="800px" height="232.836px" viewBox="0 0 800 232.836" enable-background="new 0 0 800 232.836" xml:space="preserve">
<g>
	<path fill="none" d="M406.529,125.347v9.831c0,4.275,0.447,7.337,1.341,9.186c0.897,1.854,2.354,2.782,4.369,2.782
		c2.008,0,3.656-0.686,4.946-2.047c1.276-1.362,2.074-2.9,2.409-4.609v-31.072c-5.133,2.278-8.591,4.436-10.377,6.467
		C407.429,117.922,406.529,121.072,406.529,125.347z"/>
	<path fill="none" d="M533.933,79.503c-2.531,0-4.252,1.111-5.19,3.326c-0.938,2.221-1.411,5.587-1.411,10.105v40.962
		c0,6.71,1.104,10.823,3.302,12.329c0.897,0.613,2.019,0.919,3.362,0.919c2.521,0,4.235-1.109,5.15-3.328
		c0.924-2.218,1.379-5.528,1.379-9.92V92.934c0-4.476-0.473-7.837-1.411-10.074C538.186,80.624,536.454,79.503,533.933,79.503z"/>
	<path fill="none" d="M132.066,125.347v9.831c0,4.275,0.447,7.337,1.344,9.186c0.893,1.854,2.35,2.782,4.365,2.782
		c2.016,0,3.662-0.686,4.947-2.047c1.281-1.362,2.08-2.9,2.408-4.609v-31.072c-5.127,2.278-8.586,4.436-10.376,6.467
		C132.963,117.922,132.066,121.072,132.066,125.347z"/>
	<path fill="none" d="M476.728,80.541c-0.979-0.652-2.16-0.978-3.535-0.978c-2.733,0-4.546,1.243-5.435,3.725
		c-0.893,2.48-1.344,6.187-1.344,11.108v37.669c0,5.045,0.473,8.82,1.434,11.323c0.962,2.502,2.756,3.756,5.375,3.756
		c2.621,0,4.432-1.254,5.435-3.756c0.997-2.503,1.493-6.688,1.493-12.545V94.214C480.15,86.686,479.005,82.127,476.728,80.541z"/>
	<path fill="none" d="M698.018,89.187c-10.164,0-13.248,12.93-13.248,27.729c0,14.779,3.084,27.712,13.248,27.712
		c11.494,0,14.254-12.933,14.254-27.712C712.271,102.117,709.512,89.187,698.018,89.187z"/>
	<path fill="#FFFFFF" d="M533.933,66.437c-15.27,0-22.894,9.79-22.894,29.365v34.248c0,9.763,1.668,17.235,5.005,22.407
		c3.332,5.167,9.311,7.747,17.951,7.747c4.347,0,8.032-0.667,11.04-2.011c7.858-3.5,11.783-12.883,11.783-28.143V95.802
		C556.818,76.227,549.192,66.437,533.933,66.437z M540.524,133.896c0,4.393-0.455,7.702-1.379,9.92
		c-0.915,2.219-2.63,3.328-5.15,3.328c-1.344,0-2.465-0.307-3.362-0.919c-2.197-1.506-3.302-5.619-3.302-12.329V92.934
		c0-4.519,0.473-7.885,1.411-10.105c0.938-2.214,2.659-3.326,5.19-3.326c2.521,0,4.253,1.121,5.181,3.357
		c0.938,2.237,1.411,5.598,1.411,10.074V133.896z"/>
	<rect x="301.653" y="67.536" fill="#FFFFFF" width="16.175" height="91.572"/>
	<path fill="#FFFFFF" d="M413.336,66.437c-8.239,0-13.98,2.282-17.218,6.841c-3.233,4.557-4.852,11.172-4.852,19.839v2.749h15.995
		v-4.092c0-4.435,0.429-7.589,1.28-9.462c0.856-1.872,2.552-2.808,5.101-2.808c2.542,0,4.166,0.886,4.879,2.654
		c0.711,1.775,1.073,5.141,1.073,10.105v7.997c-0.858,0.327-2.337,0.875-4.424,1.648c-2.103,0.773-3.743,1.382-4.915,1.83
		c-6.518,2.483-11.134,5.046-13.862,7.695c-4.23,4.028-6.35,9.946-6.35,17.761v5.862c0.087,8.058,1.403,14.236,3.969,18.529
		c2.562,4.292,6.84,6.438,12.819,6.438c3.256,0,6.034-0.964,8.339-2.899c2.295-1.934,3.85-4.306,4.662-7.111v9.095h16.305V93.786
		c0-9.114-1.741-15.951-5.22-20.508C427.439,68.719,421.574,66.437,413.336,66.437z M419.595,140.489
		c-0.335,1.709-1.133,3.247-2.409,4.609c-1.29,1.361-2.938,2.047-4.946,2.047c-2.015,0-3.472-0.929-4.369-2.782
		c-0.894-1.849-1.341-4.911-1.341-9.186v-9.831c0-4.274,0.899-7.424,2.688-9.462c1.786-2.031,5.244-4.189,10.377-6.467V140.489z"/>
	<path fill="#FFFFFF" d="M682.388,159.564h-2.296l-1.333,1.875l-10.614,14.913l-10.626-14.913l-1.328-1.875h-2.295h-8.055
		c-3.283,0-5.943-2.661-5.943-5.934V50.242c0-3.271,2.66-5.937,5.943-5.937h108.323c3.277,0,5.938,2.666,5.938,5.937v96.164
		l4.451,2.715V50.242c0-5.738-4.648-10.388-10.389-10.388H645.841c-5.74,0-10.398,4.65-10.398,10.388V153.63
		c0,5.736,4.658,10.385,10.398,10.385h8.055l14.249,20.017l14.243-20.017h46.677l-0.704-4.451H682.388z"/>
	<path fill="#FFFFFF" d="M356.41,66.437c-7.49,0-13.086,1.856-16.788,5.558c-4.641,4.638-6.963,13.613-6.963,26.92v29.67
		c0,10.254,1.625,18.091,4.856,23.502c3.238,5.416,9.434,8.116,18.588,8.116c7.693,0,13.208-2.407,16.541-7.232
		c3.337-4.821,5.01-11.706,5.01-20.662v-9.28h-15.625v10.867c0,0.446,0,0.875,0,1.281c0,1.587-0.063,2.972-0.185,4.148
		c-0.487,5.051-2.543,7.594-6.168,7.634c-2.647,0-4.424-1.06-5.339-3.174c-0.916-2.115-1.371-5.434-1.371-9.952V92.567
		c0-4.352,0.496-7.589,1.493-9.707c0.996-2.115,2.673-3.172,5.036-3.172c2.359,0,4.041,0.71,5.037,2.136
		c0.997,1.424,1.497,4.925,1.497,10.501v10.618h15.625v-10.07c0-8.548-1.673-15.088-5.01-19.627
		C369.311,68.709,363.899,66.437,356.41,66.437z"/>
	<path fill="#FFFFFF" d="M480.086,73.215c-1.181-2.074-2.817-3.723-4.914-4.945c-2.093-1.218-4.405-1.833-6.927-1.833
		c-6.471,0-11.11,2.444-13.917,7.328c-2.804,4.883-4.206,11.149-4.206,18.802v37.298c0,6.07,0.348,11.224,1.06,15.476
		c0.708,4.252,2.296,7.766,4.73,10.534c2.439,2.764,6.119,4.148,11.053,4.148c6.299,0,10.687-3.128,13.121-9.401v8.486h16.18V50.751
		h-16.18V73.215z M480.15,130.844c0,5.858-0.496,10.042-1.493,12.545c-1.003,2.502-2.813,3.756-5.435,3.756
		c-2.619,0-4.413-1.254-5.375-3.756c-0.961-2.503-1.434-6.278-1.434-11.323V94.397c0-4.922,0.451-8.628,1.344-11.108
		c0.889-2.482,2.701-3.725,5.435-3.725c1.375,0,2.557,0.325,3.535,0.978c2.277,1.586,3.423,6.145,3.423,13.673V130.844z"/>
	<path fill="#FFFFFF" d="M736.379,118.554c0-21.426-17.623-36.508-38.361-36.508c-19.335,0-37.355,14.665-37.355,34.871
		c0,20.759,17.642,33.858,37.355,33.858c10.102,0,20.207-3.07,27.508-9.068l-2.883-18.127l11.378,6.936
		C735.526,126.975,736.379,122.988,736.379,118.554z M698.018,144.629c-10.164,0-13.248-12.933-13.248-27.712
		c0-14.799,3.084-27.729,13.248-27.729c11.494,0,14.254,12.93,14.254,27.729C712.271,131.696,709.512,144.629,698.018,144.629z"/>
	<polygon fill="#FFFFFF" points="776.877,159.636 726.13,128.702 735.439,187.404 750.074,169.629 764.813,191.283 769.722,187.945 
		755.025,166.364 	"/>
	<path fill="#FFFFFF" d="M719.473,61.776c0.876-2.421,0.637-5.366-0.622-7.492c-1.132-1.917-3.341-3.253-5.883-3.589
		c-2.586-0.327-5.043,0.431-6.617,2.015l-19.999,20.001l1.876,2.322l27.444-9.379C717.418,65.056,718.766,63.685,719.473,61.776z"/>
	<path fill="#FFFFFF" d="M269.082,54.444c-2.661,2.83-3.995,6.807-3.995,11.934v4.762h-7.143v11.661h7.08v76.306h16.179V82.802
		h9.275V71.141h-9.275v-4.273c0-3.499,1.668-5.251,5.005-5.251c1.625,0,3.054,0.079,4.271,0.244V51.73
		c-2.724-1.02-6.303-1.532-10.741-1.532S271.747,51.618,269.082,54.444z"/>
	<path fill="#FFFFFF" d="M195.796,101.542c-4.311-4.152-6.471-8.647-6.471-13.491c0-3.053,0.519-5.208,1.56-6.472
		c1.038-1.259,2.643-1.891,4.821-1.891c2.178,0,3.733,1.007,4.672,3.021c0.937,2.017,1.402,5.096,1.402,9.249V98h14.471v-5.005
		c0-9.523-1.655-16.328-4.979-20.42c-3.314-4.09-8.555-6.137-15.715-6.137c-14.412,0-21.614,7.492-21.614,22.468
		c0,9.28,3.766,17.358,11.296,24.233c0.406,0.408,1.84,1.711,4.302,3.909c2.462,2.196,3.774,3.375,3.937,3.538
		c5.619,5.213,8.423,10.867,8.423,16.973c0,3.458-0.486,5.916-1.465,7.359c-0.974,1.443-2.561,2.165-4.757,2.165
		c-4.153,0-6.231-4.067-6.231-12.207v-7.39h-15.196v5.92c0,9.402,1.767,16.229,5.307,20.481c3.544,4.252,9.037,6.381,16.486,6.381
		c7.445,0,12.938-1.953,16.482-5.862c3.544-3.906,5.308-9.767,5.308-17.578c0-9.975-4.456-19.108-13.366-27.41L195.796,101.542z"/>
	<path fill="#FFFFFF" d="M138.875,66.437c-8.243,0-13.983,2.282-17.221,6.841c-3.233,4.557-4.848,11.172-4.848,19.839v2.749h15.99
		v-4.092c0-4.435,0.428-7.589,1.285-9.462c0.853-1.872,2.553-2.808,5.096-2.808c2.543,0,4.171,0.886,4.883,2.654
		c0.713,1.775,1.069,5.141,1.069,10.105v7.997c-0.852,0.327-2.332,0.875-4.423,1.648c-2.097,0.773-3.734,1.382-4.916,1.83
		c-6.512,2.483-11.129,5.046-13.858,7.695c-4.233,4.028-6.348,9.946-6.348,17.761v5.862c0.081,8.058,1.407,14.236,3.968,18.529
		c2.561,4.292,6.836,6.438,12.82,6.438c3.256,0,6.033-0.964,8.333-2.899c2.295-1.934,3.855-4.306,4.667-7.111v9.095h16.301V93.786
		c0-9.114-1.741-15.951-5.221-20.508C152.976,68.719,147.113,66.437,138.875,66.437z M145.129,140.489
		c-0.329,1.709-1.127,3.247-2.408,4.609c-1.285,1.361-2.931,2.047-4.947,2.047c-2.015,0-3.472-0.929-4.365-2.782
		c-0.897-1.849-1.344-4.911-1.344-9.186v-9.831c0-4.274,0.897-7.424,2.688-9.462c1.79-2.031,5.249-4.189,10.376-6.467V140.489z"/>
	<rect x="229.986" y="45.073" fill="#FFFFFF" width="16.296" height="14.042"/>
	<rect x="301.472" y="45.073" fill="#FFFFFF" width="16.296" height="14.042"/>
	<rect x="84.695" y="50.751" fill="#FFFFFF" width="16.118" height="108.356"/>
	<rect x="230.167" y="67.536" fill="#FFFFFF" width="16.175" height="91.572"/>
	<path fill="#FFFFFF" d="M55.146,129.992c0,5.817-0.505,9.988-1.524,12.509c-1.019,2.525-2.868,3.788-5.556,3.788
		c-2.683,0-4.536-1.245-5.55-3.725c-1.02-2.48-1.533-6.615-1.533-12.391v-50.18c0-5.211,0.532-9.075,1.592-11.6
		c1.055-2.521,2.949-3.784,5.677-3.784c2.728,0,4.559,1.191,5.493,3.572c0.938,2.378,1.402,6.338,1.402,11.873v13.733H70.96v-14.77
		c0-19.047-7.554-28.571-22.646-28.571c-4.397,0-8.145,0.732-11.233,2.199c-8.387,3.988-12.577,13.976-12.577,29.974v46.824
		c0,9.965,1.962,17.609,5.889,22.921c3.927,5.308,9.858,7.968,17.794,7.968c7.936,0,13.758-2.499,17.459-7.481
		c3.703-4.983,5.555-12.667,5.555-23.042v-15.203H55.146V129.992z"/>
	<path fill="#FFFFFF" d="M590.363,101.542c-4.316-4.152-6.471-8.646-6.471-13.489c0-3.055,0.509-5.21,1.551-6.47
		c1.036-1.261,2.647-1.894,4.829-1.894c2.168,0,3.724,1.007,4.663,3.021c0.938,2.017,1.4,5.098,1.4,9.251V98h14.472v-5.005
		c0-9.523-1.652-16.328-4.975-20.418c-3.317-4.093-8.553-6.135-15.714-6.135c-14.413,0-21.617,7.487-21.617,22.465
		c0,9.278,3.769,17.356,11.294,24.233c0.407,0.409,1.847,1.709,4.308,3.91c2.463,2.193,3.769,3.373,3.932,3.539
		c5.618,5.209,8.425,10.863,8.425,16.969c0,3.458-0.483,5.916-1.467,7.359c-0.974,1.443-2.562,2.165-4.753,2.165
		c-4.153,0-6.228-4.067-6.228-12.207v-7.39h-15.205v5.92c0,9.402,1.768,16.229,5.313,20.481c3.545,4.257,9.04,6.381,16.486,6.381
		c7.444,0,12.94-1.953,16.485-5.857c3.535-3.91,5.303-9.771,5.303-17.582c0-9.97-4.459-19.108-13.366-27.41L590.363,101.542z"/>
</g>
</svg>
