<?xml version="1.0" encoding="utf-8"?>
<!-- Generator: Adobe Illustrator 16.0.0, SVG Export Plug-In . SVG Version: 6.00 Build 0)  -->
<!DOCTYPE svg PUBLIC "-//W3C//DTD SVG 1.1//EN" "http://www.w3.org/Graphics/SVG/1.1/DTD/svg11.dtd">
<svg version="1.1" xmlns="http://www.w3.org/2000/svg" xmlns:xlink="http://www.w3.org/1999/xlink" x="0px" y="0px" width="244.5px"
	 height="77.5px" viewBox="0 0 244.5 77.5" enable-background="new 0 0 244.5 77.5" xml:space="preserve">
<g id="Soporte">
</g>
<g id="Publicidad">
</g>
<g id="Imagenes">
</g>
<g id="Cintillos">
</g>
<g id="Botones">
</g>
<g id="Iconos">
	<g>
		<g>
			<g>
				<path fill-rule="evenodd" clip-rule="evenodd" fill="#FFFFFF" d="M67.568,32.748c7.15,0,13.287,5.121,13.287,12.477
					c0,7.125-6.76,11.207-13.287,11.207c-6.852,0-13.398-4.43-13.398-11.785C54.17,37.406,60.783,32.748,67.568,32.748
					L67.568,32.748L67.568,32.748z M67.568,35.176c3.465,0,6.586,4.389,6.586,9.471c0,5.201-3.121,9.594-6.586,9.594
					c-3.584,0-6.582-4.393-6.582-9.594C60.986,39.564,63.984,35.176,67.568,35.176L67.568,35.176L67.568,35.176z"/>
				<path fill-rule="evenodd" clip-rule="evenodd" fill="#FFFFFF" d="M141.742,54.586c-9.818,0-9.818,0-9.818,0
					c0-22.299,0-22.299,0-22.299c9.818,0,9.818,0,9.818,0c0,5.547,0,5.547,0,5.547c3.135-3.617,21.373-6.471,21.373,1.154
					c0,0.232,0,0.576,0,0.809c0,14.789,0,14.789,0,14.789c-10.398,0-10.398,0-10.398,0c0-11.438,0-11.438,0-11.438
					c0-1.934-0.082-3.463-1.75-4.539c-3.334-2.148-9.625-1.41-9.225,3.498V54.586L141.742,54.586z"/>
				<path fill-rule="evenodd" clip-rule="evenodd" fill="#FFFFFF" d="M220.998,54.586c-9.82,0-9.82,0-9.82,0
					c0-22.299,0-22.299,0-22.299c9.82,0,9.82,0,9.82,0c0,5.547,0,5.547,0,5.547c3.768-3.768,21.721-6.721,21.721,1.963
					c0,14.789,0,14.789,0,14.789c-10.977,0-10.977,0-10.977,0c0-11.438,0-11.438,0-11.438c0-1.615-0.242-3.584-1.652-4.596
					c-2.889-2.078-9.484-1.311-9.092,3.555V54.586L220.998,54.586z"/>
				<path fill-rule="evenodd" clip-rule="evenodd" fill="#FFFFFF" d="M172.592,23.969c3.004-0.926,5.891-0.463,6.234,1.154
					c0.463,1.619-1.617,3.697-4.621,4.736c-3,0.811-5.891,0.463-6.35-1.27C167.393,26.975,169.584,25.008,172.592,23.969
					L172.592,23.969z M178.6,54.586c-10.053,0-10.053,0-10.053,0c0-22.299,0-22.299,0-22.299c10.053,0,10.053,0,10.053,0V54.586
					L178.6,54.586z"/>
				<path fill-rule="evenodd" clip-rule="evenodd" fill="#FFFFFF" d="M121.986,23.969c3.119-0.926,5.891-0.463,6.354,1.154
					c0.576,1.619-1.615,3.697-4.619,4.736c-3.123,0.811-5.895,0.463-6.242-1.27C116.902,26.975,118.98,25.008,121.986,23.969
					L121.986,23.969z M128.105,54.586c-9.932,0-9.932,0-9.932,0c0-22.299,0-22.299,0-22.299c9.932,0,9.932,0,9.932,0V54.586
					L128.105,54.586z"/>
				<path fill-rule="evenodd" clip-rule="evenodd" fill="#FFFFFF" d="M93.91,38.988c0,13.055,0,13.055,0,13.055
					c1.18,1.1,2.773,2.422,4.623,2.422c4.041,0,7.16-4.502,7.16-9.24c0-3.98-1.828-7.08-4.498-8.313
					C98.408,35.625,95.773,36.619,93.91,38.988L93.91,38.988z M83.627,75.15c0-42.863,0-42.863,0-42.863c10.283,0,10.283,0,10.283,0
					c0,3.814,0,3.814,0,3.814c3.117-2.896,10.371-3.516,14.328-2.197c5.313,1.5,8.201,7.625,7.623,11.9
					c-0.756,11.365-14.395,13.262-21.951,7.742c0,21.604,0,21.604,0,21.604H83.627L83.627,75.15z"/>
				<path fill-rule="evenodd" clip-rule="evenodd" fill="#FFFFFF" d="M22.164,36.102c1.988,1.703,0.564,5.773-2.193,5.773
					c-1.965,0-3.584-1.268-3.584-3c0-7.857,11.438-7.283,16.291-5.895c4.619,1.617,5.664,4.043,5.664,8.434
					c0,13.865,0,13.865,0,13.865c-8.898,0-8.898,0-8.898,0c0-1.732,0-1.732,0-1.732c-4.391,3.002-14.557,2.309-14.557-4.504
					c0-7.289,9.619-7.67,14.557-5.666c0-2.541-0.463-9.127-3.695-9.127C23.551,34.25,21.473,34.25,22.164,36.102L22.164,36.102z
					 M22.971,45.111c3.119,0,5.086,1.734,5.086,4.16c0,2.313-1.967,4.391-5.086,4.391c-3,0-4.965-2.078-4.965-4.391
					C18.006,46.846,19.971,45.111,22.971,45.111L22.971,45.111L22.971,45.111z"/>
				<polygon fill-rule="evenodd" clip-rule="evenodd" fill="#FFFFFF" points="13.268,55.279 3.563,55.279 3.563,23.043 
					13.268,23.043 13.268,55.279 				"/>
				<path fill-rule="evenodd" clip-rule="evenodd" fill="#FFFFFF" d="M199.326,27.578l-8.711,2.979c0,0,0,0-0.467-0.58
					c0,0,0,0,6.324-6.322c1.02-1.02,3.068-0.762,3.799,0.475C200.93,25.244,200.676,27.115,199.326,27.578L199.326,27.578z"/>
				<path fill-rule="evenodd" clip-rule="evenodd" fill="#FFFFFF" d="M194.313,32.748c7.307,0,13.516,5.297,13.516,12.826
					c0,7.443-6.76,11.324-13.516,11.324c-6.955,0-13.172-4.605-13.172-11.9C181.141,37.9,187.492,32.748,194.313,32.748
					L194.313,32.748L194.313,32.748z M194.313,35.291c4.043,0,6.93,4.506,6.93,9.707c0,5.197-2.887,9.703-6.93,9.703
					c-3.584,0-6.818-4.506-6.818-9.703C187.494,39.797,190.729,35.291,194.313,35.291L194.313,35.291L194.313,35.291z"/>
			</g>
		</g>
		<g>
			<g>
				<g>
					<path fill="#FFFFFF" d="M22.859,12.764h-4.982c-0.631,0-1.146,0.485-1.146,1.035c0,0.551-0.511,1.02-1.144,1.025l-4.508,0.048
						c-0.633,0.005-1.146-0.483-1.146-1.048c0-0.568-0.512-1.061-1.145-1.061H3.757c-0.633,0-1.318,0.588-1.318,1.223v5.166
						c0,0.594,0.66,1.061,1.254,1.061h19.226c0.596,0,1.294-0.467,1.294-1.061v-5.169C24.214,13.352,23.492,12.764,22.859,12.764z"
						/>
					<path fill="#FFFFFF" d="M22.919,5.889h-5.292V4.59c0-1.245-1.014-2.259-2.26-2.259h-4.112c-1.245,0-2.256,1.014-2.256,2.259
						v1.299H3.694c-0.594,0-1.254,0.725-1.254,1.32v3.144c0,0.698,0.566,1.267,1.266,1.267h4.917c0.699,0,1.266-0.568,1.266-1.267
						v-0.175c0-0.471,0.381-0.852,0.85-0.852h5.175c0.47,0,0.85,0.381,0.85,0.852v0.175c0,0.698,0.566,1.267,1.266,1.267h4.919
						c0.7,0,1.266-0.568,1.266-1.267V7.209C24.214,6.613,23.516,5.889,22.919,5.889z M10.833,4.59c0-0.234,0.191-0.426,0.422-0.426
						h4.112c0.236,0,0.426,0.191,0.426,0.426v1.207h-4.96V4.59z"/>
					<path fill="#FFFFFF" d="M15.142,13.784c0.317,0,0.572-0.257,0.572-0.571v-2.284c0-0.315-0.257-0.571-0.572-0.571h-3.559
						c-0.37,0-0.672,0.302-0.672,0.674v2.182c0,0.314,0.256,0.571,0.569,0.571H15.142L15.142,13.784z"/>
				</g>
			</g>
		</g>
		<g>
			<path fill="#FFFFFF" d="M36.136,17.886c-0.354,0.272-0.804,0.461-1.347,0.567c-0.544,0.106-1.123,0.16-1.737,0.16
				c-0.745,0-1.442-0.128-2.091-0.382c-0.65-0.254-1.217-0.641-1.701-1.161c-0.485-0.52-0.869-1.184-1.152-1.993
				c-0.284-0.81-0.425-1.769-0.425-2.88c0-1.158,0.156-2.142,0.469-2.951c0.313-0.809,0.727-1.471,1.241-1.984
				c0.514-0.514,1.09-0.889,1.728-1.125c0.638-0.236,1.288-0.355,1.949-0.355c0.709,0,1.288,0.039,1.737,0.115
				c0.449,0.078,0.833,0.181,1.152,0.311l-0.354,1.312c-0.567-0.284-1.376-0.425-2.428-0.425c-0.485,0-0.963,0.088-1.436,0.266
				c-0.473,0.177-0.895,0.467-1.267,0.868s-0.671,0.928-0.895,1.577c-0.225,0.65-0.337,1.447-0.337,2.393
				c0,0.851,0.106,1.595,0.319,2.232c0.212,0.639,0.505,1.17,0.877,1.596c0.373,0.426,0.809,0.744,1.312,0.957
				c0.502,0.213,1.048,0.318,1.639,0.318c0.532,0,0.996-0.053,1.392-0.159c0.396-0.106,0.729-0.242,1.001-0.407L36.136,17.886z"/>
			<path fill="#FFFFFF" d="M39.751,16.221c0,0.413,0.071,0.709,0.212,0.885c0.142,0.178,0.343,0.267,0.603,0.267
				c0.154,0,0.319-0.012,0.497-0.036c0.177-0.023,0.378-0.076,0.603-0.158l0.159,1.115c-0.189,0.096-0.452,0.172-0.789,0.23
				c-0.336,0.06-0.629,0.09-0.877,0.09c-0.532,0-0.969-0.151-1.312-0.453c-0.343-0.301-0.514-0.812-0.514-1.532V5.994h1.418V16.221z
				"/>
			<path fill="#FFFFFF" d="M43.207,10.195c0.449-0.272,0.972-0.473,1.568-0.604c0.597-0.129,1.22-0.195,1.87-0.195
				c0.614,0,1.108,0.084,1.48,0.248c0.372,0.166,0.656,0.382,0.851,0.647c0.195,0.267,0.325,0.558,0.39,0.878
				c0.064,0.318,0.097,0.637,0.097,0.957c0,0.708-0.018,1.399-0.053,2.072c-0.035,0.674-0.053,1.313-0.053,1.914
				c0,0.438,0.018,0.852,0.053,1.241c0.036,0.39,0.101,0.75,0.195,1.081h-1.046l-0.372-1.24h-0.088
				c-0.106,0.165-0.239,0.327-0.399,0.486c-0.16,0.16-0.352,0.302-0.576,0.426c-0.224,0.124-0.484,0.228-0.78,0.311
				c-0.295,0.082-0.632,0.123-1.01,0.123c-0.378,0-0.73-0.059-1.055-0.177c-0.325-0.118-0.605-0.286-0.842-0.505
				s-0.422-0.481-0.558-0.789c-0.136-0.307-0.204-0.655-0.204-1.045c0-0.52,0.106-0.954,0.319-1.303
				c0.212-0.349,0.511-0.626,0.895-0.833c0.384-0.206,0.844-0.354,1.382-0.442c0.537-0.09,1.131-0.134,1.781-0.134
				c0.166,0,0.328,0,0.487,0c0.16,0,0.322,0.013,0.487,0.036c0.036-0.355,0.053-0.674,0.053-0.957c0-0.65-0.13-1.105-0.39-1.365
				c-0.26-0.26-0.733-0.39-1.418-0.39c-0.201,0-0.417,0.015-0.646,0.046c-0.23,0.03-0.467,0.072-0.709,0.127
				c-0.242,0.055-0.473,0.122-0.691,0.201c-0.219,0.078-0.411,0.166-0.576,0.264L43.207,10.195z M45.724,17.301
				c0.331,0,0.626-0.044,0.886-0.133c0.26-0.088,0.484-0.201,0.673-0.336c0.189-0.137,0.346-0.287,0.47-0.453
				c0.124-0.164,0.215-0.324,0.274-0.479V14.43c-0.166-0.012-0.333-0.02-0.505-0.025s-0.34-0.01-0.505-0.01
				c-0.367,0-0.724,0.021-1.072,0.063c-0.349,0.041-0.656,0.118-0.921,0.23c-0.266,0.112-0.479,0.266-0.638,0.461
				c-0.16,0.194-0.239,0.439-0.239,0.734c0,0.414,0.147,0.754,0.443,1.02S45.263,17.301,45.724,17.301z"/>
			<path fill="#FFFFFF" d="M56.038,15.99c0-0.355-0.106-0.633-0.319-0.834c-0.212-0.2-0.476-0.369-0.789-0.504
				c-0.313-0.137-0.656-0.267-1.028-0.391s-0.715-0.283-1.028-0.479s-0.576-0.445-0.789-0.753c-0.213-0.308-0.319-0.721-0.319-1.241
				c0-0.85,0.242-1.473,0.727-1.869c0.484-0.396,1.158-0.594,2.02-0.594c0.638,0,1.172,0.057,1.604,0.168
				c0.431,0.113,0.806,0.246,1.125,0.399l-0.337,1.169c-0.272-0.129-0.6-0.244-0.983-0.346c-0.384-0.1-0.795-0.15-1.232-0.15
				c-0.52,0-0.901,0.089-1.143,0.266c-0.242,0.178-0.363,0.485-0.363,0.922c0,0.308,0.106,0.547,0.319,0.718
				c0.213,0.171,0.476,0.325,0.789,0.461s0.656,0.269,1.028,0.399c0.372,0.129,0.714,0.301,1.028,0.514
				c0.313,0.213,0.576,0.48,0.789,0.807c0.212,0.324,0.319,0.752,0.319,1.284c0,0.378-0.062,0.733-0.186,1.063
				s-0.316,0.614-0.576,0.851s-0.582,0.423-0.966,0.558c-0.384,0.137-0.836,0.205-1.355,0.205c-0.673,0-1.247-0.066-1.719-0.195
				c-0.473-0.131-0.868-0.283-1.188-0.461l0.426-1.205c0.271,0.153,0.626,0.295,1.063,0.426c0.437,0.129,0.88,0.194,1.329,0.194
				c0.508,0,0.928-0.101,1.258-0.302C55.872,16.87,56.038,16.51,56.038,15.99z"/>
			<path fill="#FFFFFF" d="M59.6,6.846c0-0.271,0.091-0.506,0.274-0.701c0.183-0.194,0.417-0.292,0.7-0.292S61.1,5.95,61.301,6.145
				c0.201,0.195,0.301,0.43,0.301,0.701s-0.101,0.496-0.301,0.673c-0.201,0.177-0.443,0.267-0.727,0.267s-0.517-0.09-0.7-0.267
				S59.6,7.117,59.6,6.846z M59.901,9.539h1.417V18.4h-1.417V9.539z"/>
			<path fill="#FFFFFF" d="M71.172,9.539V18.4h-1.417v-7.621h-3.58V18.4h-1.418v-7.621h-1.382v-1.24h1.382V9.043
				c0-1.111,0.275-1.917,0.824-2.42C66.13,6.121,66.937,5.871,68,5.871c0.697,0,1.317,0.067,1.861,0.203
				c0.543,0.137,0.969,0.299,1.276,0.487l-0.479,1.134c-0.319-0.2-0.697-0.348-1.134-0.442c-0.438-0.095-0.904-0.142-1.4-0.142
				c-0.437,0-0.783,0.051-1.037,0.15c-0.254,0.101-0.449,0.254-0.585,0.461s-0.224,0.463-0.266,0.771s-0.062,0.655-0.062,1.046
				H71.172z"/>
			<path fill="#FFFFFF" d="M79.962,17.814c-0.354,0.261-0.774,0.459-1.258,0.594c-0.484,0.137-0.992,0.205-1.524,0.205
				c-0.686,0-1.264-0.109-1.737-0.328s-0.859-0.532-1.161-0.939c-0.301-0.408-0.52-0.898-0.656-1.471
				c-0.136-0.573-0.204-1.209-0.204-1.906c0-1.5,0.331-2.648,0.993-3.446s1.613-1.196,2.853-1.196c0.567,0,1.048,0.045,1.444,0.133
				c0.396,0.089,0.753,0.216,1.072,0.381l-0.408,1.223c-0.271-0.152-0.573-0.274-0.904-0.363c-0.331-0.088-0.685-0.133-1.063-0.133
				c-1.678,0-2.517,1.135-2.517,3.402c0,0.449,0.044,0.878,0.133,1.285c0.089,0.408,0.236,0.769,0.443,1.082
				c0.207,0.313,0.479,0.563,0.815,0.752c0.337,0.189,0.753,0.284,1.25,0.284c0.425,0,0.806-0.065,1.143-0.194
				c0.336-0.131,0.611-0.278,0.824-0.443L79.962,17.814z"/>
			<path fill="#FFFFFF" d="M81.769,10.195c0.449-0.272,0.972-0.473,1.568-0.604c0.597-0.129,1.22-0.195,1.87-0.195
				c0.614,0,1.108,0.084,1.48,0.248c0.372,0.166,0.656,0.382,0.851,0.647c0.195,0.267,0.325,0.558,0.39,0.878
				c0.064,0.318,0.097,0.637,0.097,0.957c0,0.708-0.018,1.399-0.053,2.072c-0.035,0.674-0.053,1.313-0.053,1.914
				c0,0.438,0.018,0.852,0.053,1.241c0.036,0.39,0.101,0.75,0.195,1.081h-1.046l-0.372-1.24h-0.088
				c-0.106,0.165-0.239,0.327-0.399,0.486c-0.16,0.16-0.352,0.302-0.576,0.426c-0.224,0.124-0.484,0.228-0.78,0.311
				c-0.295,0.082-0.632,0.123-1.01,0.123c-0.378,0-0.73-0.059-1.055-0.177c-0.325-0.118-0.605-0.286-0.842-0.505
				s-0.422-0.481-0.558-0.789c-0.136-0.307-0.204-0.655-0.204-1.045c0-0.52,0.106-0.954,0.319-1.303
				c0.212-0.349,0.511-0.626,0.895-0.833c0.384-0.206,0.844-0.354,1.382-0.442c0.537-0.09,1.131-0.134,1.781-0.134
				c0.166,0,0.328,0,0.487,0c0.16,0,0.322,0.013,0.487,0.036c0.036-0.355,0.053-0.674,0.053-0.957c0-0.65-0.13-1.105-0.39-1.365
				c-0.26-0.26-0.733-0.39-1.418-0.39c-0.201,0-0.417,0.015-0.646,0.046c-0.23,0.03-0.467,0.072-0.709,0.127
				c-0.242,0.055-0.473,0.122-0.691,0.201c-0.219,0.078-0.411,0.166-0.576,0.264L81.769,10.195z M84.286,17.301
				c0.331,0,0.626-0.044,0.886-0.133c0.26-0.088,0.484-0.201,0.673-0.336c0.189-0.137,0.346-0.287,0.47-0.453
				c0.124-0.164,0.215-0.324,0.274-0.479V14.43c-0.166-0.012-0.333-0.02-0.505-0.025s-0.34-0.01-0.505-0.01
				c-0.367,0-0.724,0.021-1.072,0.063c-0.349,0.041-0.656,0.118-0.921,0.23c-0.266,0.112-0.479,0.266-0.638,0.461
				c-0.16,0.194-0.239,0.439-0.239,0.734c0,0.414,0.147,0.754,0.443,1.02S83.825,17.301,84.286,17.301z"/>
			<path fill="#FFFFFF" d="M97.506,15.352c0,0.603,0.006,1.149,0.018,1.64s0.065,0.972,0.16,1.444h-0.957l-0.354-1.258h-0.071
				c-0.237,0.413-0.579,0.756-1.028,1.027c-0.449,0.271-0.975,0.408-1.578,0.408c-1.181,0-2.059-0.373-2.631-1.117
				c-0.573-0.744-0.86-1.908-0.86-3.491c0-1.513,0.357-2.661,1.072-3.446c0.715-0.786,1.698-1.18,2.951-1.18
				c0.437,0,0.783,0.024,1.037,0.071c0.254,0.048,0.528,0.124,0.824,0.23V5.994h1.418V15.352z M93.926,17.372
				c0.603,0,1.081-0.157,1.436-0.47s0.597-0.789,0.727-1.427V11.08c-0.212-0.164-0.455-0.283-0.727-0.354
				c-0.272-0.071-0.632-0.106-1.081-0.106c-0.815,0-1.453,0.269-1.914,0.806c-0.46,0.538-0.691,1.398-0.691,2.579
				c0,0.484,0.038,0.934,0.115,1.347c0.077,0.414,0.204,0.768,0.381,1.063s0.411,0.528,0.7,0.7
				C93.161,17.287,93.513,17.372,93.926,17.372z"/>
			<path fill="#FFFFFF" d="M99.739,13.969c0-1.5,0.334-2.648,1.001-3.446s1.627-1.196,2.88-1.196c0.662,0,1.237,0.109,1.728,0.328
				c0.49,0.219,0.895,0.531,1.214,0.939c0.319,0.407,0.555,0.897,0.709,1.471c0.153,0.573,0.23,1.208,0.23,1.904
				c0,1.501-0.333,2.65-1.001,3.447c-0.667,0.798-1.628,1.197-2.88,1.197c-0.662,0-1.238-0.109-1.728-0.328
				s-0.895-0.532-1.214-0.939c-0.319-0.408-0.556-0.898-0.709-1.471C99.816,15.302,99.739,14.666,99.739,13.969z M101.21,13.969
				c0,0.449,0.044,0.881,0.133,1.295c0.089,0.413,0.228,0.773,0.417,1.08c0.189,0.308,0.437,0.556,0.744,0.744
				c0.307,0.189,0.68,0.284,1.117,0.284c1.606,0.012,2.41-1.122,2.41-3.403c0-0.46-0.044-0.896-0.133-1.311
				c-0.089-0.414-0.228-0.773-0.417-1.081s-0.438-0.552-0.744-0.735c-0.308-0.184-0.68-0.275-1.117-0.275
				C102.013,10.555,101.21,11.689,101.21,13.969z"/>
			<path fill="#FFFFFF" d="M113.633,15.99c0-0.355-0.106-0.633-0.319-0.834c-0.212-0.2-0.476-0.369-0.789-0.504
				c-0.313-0.137-0.656-0.267-1.028-0.391s-0.715-0.283-1.028-0.479s-0.576-0.445-0.789-0.753c-0.213-0.308-0.319-0.721-0.319-1.241
				c0-0.85,0.242-1.473,0.727-1.869c0.484-0.396,1.158-0.594,2.02-0.594c0.638,0,1.172,0.057,1.604,0.168
				c0.431,0.113,0.806,0.246,1.125,0.399l-0.337,1.169c-0.272-0.129-0.6-0.244-0.983-0.346c-0.384-0.1-0.795-0.15-1.232-0.15
				c-0.52,0-0.901,0.089-1.143,0.266c-0.242,0.178-0.363,0.485-0.363,0.922c0,0.308,0.106,0.547,0.319,0.718
				c0.213,0.171,0.476,0.325,0.789,0.461s0.656,0.269,1.028,0.399c0.372,0.129,0.714,0.301,1.028,0.514
				c0.313,0.213,0.576,0.48,0.789,0.807c0.212,0.324,0.319,0.752,0.319,1.284c0,0.378-0.062,0.733-0.186,1.063
				s-0.316,0.614-0.576,0.851s-0.582,0.423-0.966,0.558c-0.384,0.137-0.836,0.205-1.355,0.205c-0.673,0-1.247-0.066-1.719-0.195
				c-0.473-0.131-0.868-0.283-1.188-0.461l0.426-1.205c0.271,0.153,0.626,0.295,1.063,0.426c0.437,0.129,0.88,0.194,1.329,0.194
				c0.508,0,0.928-0.101,1.258-0.302C113.467,16.87,113.633,16.51,113.633,15.99z"/>
		</g>
	</g>
</g>
<g id="TXT">
</g>
<g id="Guias" display="none">
</g>
</svg>
