<svg xmlns="http://www.w3.org/2000/svg" width="34.57" height="33.692" viewBox="0 0 34.57 33.692"><circle fill="#232323" cx="17.761" cy="17.659" r="16.033"/><path fill="#FFF" d="M20.097 21.967a3.43 3.43 0 0 0-1.935.598l-4.589-3.446c.234-.462.375-.977.375-1.528 0-.496-.109-.969-.3-1.396l4.516-3.397a3.43 3.43 0 0 0 5.363-2.834 3.43 3.43 0 0 0-6.86 0c0 .373.074.727.186 1.063l-4.723 3.554a3.389 3.389 0 0 0-1.612-.419 3.429 3.429 0 0 0-3.428 3.43 3.428 3.428 0 0 0 3.428 3.431c.528 0 1.021-.129 1.468-.339l4.867 3.655a3.352 3.352 0 0 0-.186 1.06 3.43 3.43 0 1 0 6.86 0 3.43 3.43 0 0 0-3.43-3.432z"/></svg>