<svg xmlns="http://www.w3.org/2000/svg" width="144.794" height="63.334" viewBox="0 0 144.794 63.334"><path fill="#FFF" d="M20.861 39.958c-6.105 0-11.055 4.949-11.055 11.055s4.949 11.055 11.055 11.055 11.055-4.949 11.055-11.055-4.949-11.055-11.055-11.055zm0 20.189a9.135 9.135 0 1 1 0-18.27 9.135 9.135 0 0 1 0 18.27z"/><circle fill="#FFF" cx="20.861" cy="51.013" r="1.979"/><circle fill="#FFF" cx="23.887" cy="46.358" r="3.084"/><circle fill="#FFF" cx="26.214" cy="52.409" r="3.083"/><circle fill="#FFF" cx="21.094" cy="56.365" r="3.084"/><circle fill="#FFF" cx="15.741" cy="52.874" r="3.083"/><circle fill="#FFF" cx="17.603" cy="46.823" r="3.083"/><path fill="#FFF" d="M121.867 39.958c-6.105 0-11.056 4.949-11.056 11.055s4.95 11.055 11.056 11.055c6.104 0 11.055-4.949 11.055-11.055s-4.95-11.055-11.055-11.055zm0 20.189a9.135 9.135 0 1 1 0-18.27 9.135 9.135 0 0 1 0 18.27z"/><circle fill="#FFF" cx="121.867" cy="51.013" r="1.978"/><circle fill="#FFF" cx="124.892" cy="46.358" r="3.083"/><circle fill="#FFF" cx="127.219" cy="52.409" r="3.083"/><circle fill="#FFF" cx="122.1" cy="56.365" r="3.084"/><circle fill="#FFF" cx="116.747" cy="52.874" r="3.083"/><circle fill="#FFF" cx="118.608" cy="46.823" r="3.083"/><path fill="none" d="M72.76 28.903s5.004-.408 7.099.989l.116-1.454-6.865-.524-.35.989zm32.583-7.563v4.888h3.724s.641-.263.641-.902c-.001-.641-4.365-3.986-4.365-3.986zM70.2 9.47v12.801c.233 1.861 1.745 2.095 1.745 2.095l28.277 1.396v-3.413c0-1.823.931-1.706.931-1.706h2.948C90.99 9.005 75.805 8.112 73.168 7.958 70.529 7.802 70.2 9.47 70.2 9.47z"/><ellipse fill="#FFF" cx="36.435" cy="21.905" rx="4.024" ry="6.09"/><path fill="none" d="M72.76 28.903s5.004-.408 7.099.989l.116-1.454-6.865-.524-.35.989zM33.965 13.104s4.594-1.507 6.055-2.083c.109-.043 1.105-.798 0-2.336-.914-1.267-1.845-.707-2.121-.432-1.096 1.096-3.839 3.855-4.238 4.238-.264.254-.402.514-.309.631.125.154.613-.018.613-.018zM70.2 9.47v12.801c.233 1.861 1.745 2.095 1.745 2.095l28.277 1.396v-3.413c0-1.823.931-1.706.931-1.706h2.948C90.99 9.005 75.805 8.112 73.168 7.958 70.529 7.802 70.2 9.47 70.2 9.47z"/><ellipse fill="none" cx="36.435" cy="21.905" rx="8.843" ry="7.783"/><path fill="none" d="M105.343 21.34v4.888h3.724s.641-.263.641-.902c-.001-.641-4.365-3.986-4.365-3.986z"/><path fill="#FFF" d="M143.045 45.078c0-.815-.697-.815-.697-.815 0-4.77-2.678-12.684-2.678-12.684l-1.047.117c-4.306-5.936-27.347-8.844-27.347-8.844C94.52 10.517 86.141 6.91 86.141 6.91 64.613-1.003 14.807 3.419 12.014 3.651s-3.96 1.396-3.96 1.396-2.103 4.306-4.08 18.619c-1.979 14.313-.247 25.484-.015 26.416.232.931 4.51.813 4.51.813S8.139 38.62 20.744 38.62c14.779 0 12.219 14.371 12.219 14.371h76.336s-2.25-14.217 11.986-14.371c15.482-.169 12.451 14.371 12.451 14.371 10.938-.232 9.309-7.098 9.309-7.913zM6.471 36.312l-2.6.117c-.115-3.22.272-5.16.272-5.16 1.59-.349 2.715.156 2.715.156.039.969-.387 4.887-.387 4.887zM33.66 12.491c.399-.383 3.143-3.143 4.238-4.238.276-.275 1.207-.835 2.121.432 1.105 1.538.109 2.293 0 2.336-1.461.576-6.055 2.083-6.055 2.083s-.488.173-.613.019c-.093-.118.045-.378.309-.632zm2.775 17.197c-4.883 0-8.843-3.484-8.843-7.783s3.96-7.783 8.843-7.783c4.882 0 8.841 3.484 8.841 7.783s-3.96 7.783-8.841 7.783zm43.423.205c-2.095-1.397-7.099-.989-7.099-.989l.35-.989 6.865.524-.116 1.454zm21.295-9.251s-.931-.117-.931 1.706v3.413l-28.277-1.396s-1.512-.233-1.745-2.095V9.47s.329-1.668 2.968-1.512c2.637.154 17.822 1.047 30.934 12.684h-2.949zm7.913 5.586h-3.724V21.34s4.364 3.345 4.364 3.985c.001.64-.64.903-.64.903zm26.432 11.99s-1.133-2.01-.329-3.289c0 0 .512-1.205 3.325-1.681 0 0 .768 1.974 1.133 4.13 0 0-1.315.95-4.129.84z"/></svg>