<svg xmlns="http://www.w3.org/2000/svg" width="88.378" height="73.797" viewBox="0 0 88.378 73.797"><linearGradient id="a" gradientUnits="userSpaceOnUse" x1="29.657" y1="27.898" x2="67.126" y2="58.917"><stop offset="0" stop-color="#99111c"/><stop offset="1" stop-color="#99111c" stop-opacity="0"/></linearGradient><path fill="url(#a)" d="M1 47.162V8.535h17.582V1h23.741l8.875 7.535h8.4l30.146 27.901V73H30.808z"/><path fill="#FFF" d="M42.023 8.535V1H18.582v7.535H1v38.512h58.604V8.535H42.023zM20.418 2.837h19.93v5.698h-19.93V2.837zm37.512 7.372v10.884H37v-2.414c0-.326-.938-1.098-1.299-1.098H24.575c-.361 0-.971.771-.971 1.098v2.414H2.674V10.209H57.93zm-22.604 9.358v4.719c0 .237-.021.155-.284.155h-8.809c-.263 0-.954.082-.954-.155v-4.719c0-.237.691-.148.954-.148h8.809c.263 0 .284-.089.284.148zM2.674 45.372V22.768h20.93v2.407c0 .327.609.941.971.941H36.7c.361 0 .299-.614.299-.941v-2.407h20.93v22.604H2.674z"/></svg>