<svg xmlns="http://www.w3.org/2000/svg" width="87.292" height="80.083" viewBox="0 0 87.292 80.083"><linearGradient id="a" gradientUnits="userSpaceOnUse" x1="-505.868" y1="284.864" x2="-470.603" y2="255.669" gradientTransform="matrix(1 0 0 -1 539.1 323.483)"><stop offset="0" stop-color="#99111c"/><stop offset="1" stop-color="#99111c" stop-opacity="0"/></linearGradient><path fill="url(#a)" d="M23.222 68.643l-3.383-5.279L5.558 49.958l.272-22.812-.803.542-2.25-3.084 30-22.791 30.806 22.603 27.899 25.98v28.625H34.527z"/><path fill="#B92025" d="M5.146 48.792l.083-22.25-1.833.583-1-3 29.833-21.5 29.833 21.417-3.5 3.583-4.583-2 .083 23.167-17.167-.417s6.917 3.918 7.083 10.334-4.167 11.999-11.333 12.416-12.25-6.333-12.833-10.583 3.083-10.75 5.333-11.5l-19.999-.25z"/><g fill="#FFF"><path d="M32.582 1.028L1.18 24.145l2.229 4.626.757-.631v21.942h18.672c-2.426 2-3.828 5.613-3.828 9.006 0 7.168 5.815 12.982 12.963 12.982 7.147 0 12.961-5.834 12.961-12.994 0-3.615-2.276-7.023-5.008-9.515l15.239-.169V27.24l3.633 1.878 4.844-4.85-31.06-23.24zm10.353 58.04c0 6.06-4.917 10.987-10.961 10.987-6.045 0-10.963-4.934-10.963-10.998 0-4.145 2.508-7.975 6.545-9.999l.66-.33-.217-1.284-2.186-3.361h2.354v-5.864l-1.092-1.836 2.826-3.407-3.733-3.694v-.997l3.335-3.512-2.335-3.015v-1.854l3.536-3.672 2.464 2.598v25.738l4.226.012-1.947 2.896.045 1.26.733.311.605.319.473.229c3.481 2.124 5.632 5.669 5.632 9.473zm15.533-32.532l-5.301-2.938v23.816l-15.427.167 1.908-1.886c.653-.802 1.007-1.272.716-1.913-.398-.873-1.241-.699-1.473-.699h-3.725V18.006l-4.462-4.619-5.538 5.693v3.296l1.734 2.138-2.734 2.926v2.653l3.434 2.958-3.566 3.462 2.132 2.563v3.008h-1.222c-.881 0-1.263.442-1.413.715-.311.565-.132 1.217.144 1.649l2.134 3.317c-.161.095-.32-.684-.476.316H6.167V23.896l-2.149 2.182L3.5 24.67 32.409 3.515l28.162 21.031-2.103 1.99z"/><path d="M32.198 61.766a3.975 3.975 0 0 0-3.969 3.971 3.975 3.975 0 0 0 3.969 3.971c2.189 0 3.969-1.781 3.969-3.971s-1.78-3.971-3.969-3.971zm0 6.44c-1.361 0-2.469-1.107-2.469-2.47s1.107-2.471 2.469-2.471a2.471 2.471 0 0 1 0 4.941z"/></g></svg>