<svg xmlns="http://www.w3.org/2000/svg" width="87.292" height="80.083" viewBox="0 0 87.292 80.083"><linearGradient id="a" gradientUnits="userSpaceOnUse" x1="33.233" y1="38.619" x2="68.497" y2="67.814"><stop offset="0" stop-color="#99111c"/><stop offset="1" stop-color="#99111c" stop-opacity="0"/></linearGradient><path fill="url(#a)" d="M23.222 68.643l-3.383-5.279L5.558 49.958l.272-22.812-.803.542-2.25-3.084 30-22.791 30.806 22.603 27.899 25.98v28.625H34.527z"/><g fill="#FFF"><path d="M32.582 1.028L1.18 24.145l2.229 4.626.757-.631v21.943h18.672c-2.426 2-3.828 5.613-3.828 9.006 0 7.168 5.815 12.982 12.963 12.982 7.147 0 12.961-5.834 12.961-12.995 0-3.614-2.276-7.023-5.008-9.514l15.24-.169V27.24l3.633 1.878 4.843-4.85-31.06-23.24zm10.353 58.04c0 6.059-4.917 10.987-10.961 10.987-6.045 0-10.963-4.934-10.963-10.998 0-4.144 2.508-7.975 6.545-9.999l.66-.33-.217-1.284-2.186-3.361h2.354v-5.865l-1.092-1.836 2.826-3.407-3.733-3.694v-.997l3.335-3.512-2.335-3.015v-1.854l3.536-3.672 2.464 2.598v25.738l4.226.011-1.947 2.897.045 1.26.733.311.605.319.473.229c3.481 2.125 5.632 5.67 5.632 9.474zm15.533-32.532l-5.301-2.938v23.817l-15.427.166 1.908-1.886c.653-.802 1.007-1.272.716-1.913-.398-.873-1.241-.699-1.473-.699h-3.725V18.006l-4.462-4.619-5.538 5.693v3.296l1.734 2.138-2.734 2.926v2.653l3.434 2.958-3.566 3.462 2.132 2.563v3.008h-1.222c-.881 0-1.263.443-1.413.715-.311.566-.132 1.217.144 1.65l2.134 3.317c-.161.095-.32-.683-.476.317H6.167V23.896l-2.149 2.182L3.5 24.67 32.409 3.515l28.162 21.031-2.103 1.99z"/><path d="M32.198 61.766a3.975 3.975 0 0 0-3.969 3.971c0 2.188 1.78 3.97 3.969 3.97s3.969-1.781 3.969-3.97c0-2.19-1.78-3.971-3.969-3.971zm0 6.44a2.473 2.473 0 0 1-2.469-2.47c0-1.362 1.107-2.471 2.469-2.471s2.469 1.108 2.469 2.471a2.472 2.472 0 0 1-2.469 2.47z"/></g></svg>