<svg xmlns="http://www.w3.org/2000/svg" width="300" height="64.971" viewBox="0 0 300 64.971"><path d="M224.24 37.8c0-1.99.42-3.518 1.263-4.582.842-1.063 2.042-1.594 3.601-1.594.842 0 1.57.146 2.186.441a4.093 4.093 0 0 1 1.525 1.254c.404.541.703 1.189.896 1.945.193.758.29 1.604.29 2.535 0 1.99-.425 3.518-1.271 4.58-.848 1.063-2.057 1.596-3.627 1.596-.83 0-1.55-.146-2.158-.443a4.123 4.123 0 0 1-1.519-1.254c-.403-.541-.703-1.188-.896-1.945-.193-.754-.29-1.6-.29-2.533zm1.502 0c0 .66.064 1.285.195 1.877s.334 1.111.605 1.561c.273.451.623.811 1.05 1.076.427.268.931.4 1.511.4 1.057 0 1.889-.4 2.49-1.203.602-.801.904-2.039.904-3.711 0-.648-.064-1.271-.196-1.869a4.991 4.991 0 0 0-.614-1.568 3.254 3.254 0 0 0-1.058-1.074c-.427-.268-.937-.4-1.526-.4-1.047 0-1.869.4-2.467 1.201-.595.801-.894 2.038-.894 3.71zm17.097-2.559v8.531h-1.364v-7.338h-3.447v7.338h-1.364v-7.338h-1.331v-1.193h1.331v-.479c0-1.068.265-1.846.794-2.328.527-.482 1.305-.727 2.328-.727.672 0 1.269.064 1.791.195.523.133.934.287 1.229.471l-.46 1.092a3.368 3.368 0 0 0-1.093-.426 6.304 6.304 0 0 0-1.349-.139c-.42 0-.754.051-.998.146a1.173 1.173 0 0 0-.563.443 1.77 1.77 0 0 0-.256.742c-.04.295-.061.631-.061 1.006h4.812v.004zm8.463 7.969c-.341.25-.745.439-1.211.57a5.332 5.332 0 0 1-1.468.197c-.659 0-1.217-.105-1.672-.316-.455-.209-.827-.512-1.117-.904s-.501-.863-.633-1.416a7.938 7.938 0 0 1-.195-1.834c0-1.443.318-2.551.956-3.318s1.553-1.15 2.747-1.15a6.57 6.57 0 0 1 1.391.127 4.33 4.33 0 0 1 1.032.367l-.394 1.178a3.746 3.746 0 0 0-1.893-.479c-1.614 0-2.423 1.092-2.423 3.275 0 .434.043.846.128 1.238.086.393.228.738.427 1.039.199.303.461.545.785.727s.727.273 1.203.273c.409 0 .775-.064 1.102-.189a3.1 3.1 0 0 0 .793-.426l.442 1.041zm1.877-10.563c0-.262.089-.486.265-.674a.885.885 0 0 1 .674-.281c.273 0 .508.094.701.281.192.188.289.412.289.674s-.097.479-.289.648c-.193.17-.428.256-.701.256a.938.938 0 0 1-.674-.256.865.865 0 0 1-.265-.648zm.29 2.594h1.365v8.531h-1.365v-8.531zm9.76 8.531v-4.863c0-.887-.127-1.555-.384-2.006-.256-.447-.726-.674-1.407-.674-.604 0-1.102.162-1.492.486-.394.324-.67.73-.828 1.221v5.836h-1.365v-8.531h.956l.256 1.041h.067a3.103 3.103 0 0 1 1.102-.896c.461-.232 1.01-.35 1.646-.35.466 0 .875.055 1.229.162s.646.299.879.57c.232.273.409.643.528 1.102.12.461.18 1.045.18 1.75v5.152h-1.367zm3.72-7.9a4.955 4.955 0 0 1 1.51-.58 8.445 8.445 0 0 1 1.8-.188c.593 0 1.065.08 1.425.238.359.16.633.367.819.623s.313.537.375.844c.063.309.094.615.094.922 0 .684-.017 1.35-.051 1.996a35.35 35.35 0 0 0-.052 1.844c0 .422.018.818.052 1.193.034.377.097.723.188 1.041h-1.008l-.357-1.193h-.086c-.103.158-.229.314-.383.469s-.34.291-.556.41-.467.219-.751.299c-.283.08-.607.119-.973.119s-.702-.059-1.016-.172a2.253 2.253 0 0 1-1.349-1.244 2.473 2.473 0 0 1-.196-1.008c0-.5.104-.918.309-1.254s.492-.604.861-.803c.369-.197.813-.34 1.33-.426s1.09-.129 1.715-.129h.471c.152 0 .31.012.469.035.034-.342.053-.648.053-.922 0-.627-.127-1.063-.377-1.314-.25-.25-.705-.375-1.365-.375-.192 0-.399.016-.621.045-.224.029-.451.07-.684.123s-.455.117-.666.193c-.21.074-.396.158-.555.254l-.425-1.04zm2.423 6.842c.317 0 .603-.043.853-.127a2.47 2.47 0 0 0 .648-.324 2.062 2.062 0 0 0 .717-.899V39.95a9.397 9.397 0 0 0-.486-.025c-.164-.006-.326-.01-.486-.01-.352 0-.695.021-1.031.061s-.631.113-.887.223c-.258.107-.461.256-.614.443s-.229.424-.229.707c0 .398.142.727.426.982.281.256.645.383 1.089.383zm9.93-1.262c0-.342-.103-.607-.308-.803a2.601 2.601 0 0 0-.76-.484 11.949 11.949 0 0 0-.988-.377 4.533 4.533 0 0 1-.99-.461 2.57 2.57 0 0 1-.759-.725c-.205-.297-.308-.693-.308-1.193 0-.82.232-1.42.699-1.803.467-.381 1.114-.57 1.945-.57.613 0 1.129.055 1.544.162s.776.236 1.083.385l-.324 1.125a5.473 5.473 0 0 0-.945-.332 4.637 4.637 0 0 0-1.188-.146c-.5 0-.867.086-1.102.256-.231.172-.35.469-.35.889 0 .297.104.525.309.689.203.166.457.314.758.445.303.131.633.258.99.383.358.125.688.291.989.496.302.203.556.463.761.775.203.313.307.725.307 1.236 0 .363-.061.705-.18 1.023s-.305.592-.555.818a2.695 2.695 0 0 1-.93.537c-.37.133-.807.197-1.307.197-.647 0-1.199-.063-1.654-.188s-.836-.273-1.145-.443l.41-1.16c.262.148.604.283 1.023.408.421.127.848.188 1.279.188.488 0 .894-.096 1.211-.289.322-.192.485-.538.485-1.038zm-49.88 11.264l-3.156.912-63.588-.045-2.256-.867v-1.61h69z" fill="#FFF"/><path fill="#FFF" d="M220.361 11.106h-52.664c-.604 0-1.275-.973-1.275-.527v38.725c0 .445.672 1.803 1.275 1.803h52.664c.604 0-.939-1.355-.939-1.803V10.578c0-.445 1.545.528.939.528zm-1.939 39h-52v-38h52v38zM165.38 19.951h-2.105v.983l-.576.533-.008 6.509.288.259-.03-6.499.326-.324v21.065l1.141 1.825 1.046-1.883z"/><path fill="#FFF" d="M189.701 21.165c-.135-.165.063-.533.435-.892.565-.546 4.451-4.451 6.002-6.002.392-.391 1.708-1.184 3.003.609 1.566 2.178.154 3.247 0 3.308-2.07.815-8.572 2.95-8.572 2.95s-.694.246-.868.027zm4.363 1.415c-6.914 0-12.519 4.935-12.519 11.02 0 6.086 5.604 11.021 12.519 11.021 6.916 0 12.519-4.936 12.519-11.021 0-6.085-5.604-11.02-12.519-11.02zm0 19.641c-3.146 0-5.697-3.861-5.697-8.621 0-4.762 2.551-8.623 5.697-8.623s5.696 3.861 5.696 8.623c.001 4.76-2.551 8.621-5.696 8.621z"/><g fill="#FFF"><path d="M29.783 22.598c-6.549.313-11.719 5.768-11.698 12.325a12.237 12.237 0 0 0 1.339 5.549l-1.307 6.338a.48.48 0 0 0 .58.564l6.211-1.475a12.213 12.213 0 0 0 5.285 1.283c6.695.104 12.277-5.213 12.486-11.904.223-7.174-5.696-13.021-12.896-12.68zm7.411 19.096a9.56 9.56 0 0 1-6.81 2.82 9.54 9.54 0 0 1-4.287-1.002l-.863-.432-3.81.902.802-3.893-.426-.83a9.54 9.54 0 0 1-1.047-4.377 9.562 9.562 0 0 1 2.82-6.807 9.653 9.653 0 0 1 6.811-2.824 9.56 9.56 0 0 1 6.81 2.824 9.555 9.555 0 0 1 2.821 6.807 9.64 9.64 0 0 1-2.821 6.812z"/><path d="M36.355 37.552l-2.382-.684a.895.895 0 0 0-.88.23l-.583.596a.87.87 0 0 1-.943.197c-1.127-.457-3.498-2.564-4.104-3.619a.868.868 0 0 1 .07-.963l.508-.656a.888.888 0 0 0 .109-.902l-1.002-2.268a.89.89 0 0 0-1.388-.316c-.665.561-1.454 1.416-1.55 2.361-.169 1.67.547 3.775 3.254 6.303 3.127 2.92 5.633 3.305 7.264 2.908.924-.223 1.663-1.119 2.129-1.855a.89.89 0 0 0-.502-1.332z"/></g><path d="M48.548 39.516c.426.221 1.405.631 2.385.631 1.248 0 1.879-.6 1.879-1.373 0-1.012-1.011-1.469-2.069-1.469h-.979v-1.723h.932c.806-.016 1.832-.315 1.832-1.184 0-.616-.505-1.074-1.516-1.074-.837 0-1.721.363-2.147.615l-.49-1.736c.616-.395 1.848-.773 3.174-.773 2.195 0 3.411 1.152 3.411 2.558 0 1.09-.616 1.942-1.879 2.385v.032c1.232.221 2.227 1.152 2.227 2.494 0 1.816-1.595 3.144-4.201 3.144-1.326 0-2.448-.348-3.048-.727l.489-1.8zm11.404-5.781h-.032l-1.958.932-.395-1.8 2.716-1.263h1.99v10.265h-2.322v-8.134zm12.558-.157h-3.98l-.221 1.579c.221-.031.411-.031.664-.031.979 0 1.974.221 2.7.742.774.521 1.248 1.373 1.248 2.574 0 1.91-1.643 3.601-4.406 3.601-1.248 0-2.29-.284-2.859-.585l.427-1.8c.458.222 1.39.505 2.321.505.995 0 2.053-.473 2.053-1.563 0-1.059-.837-1.706-2.89-1.706-.568 0-.963.031-1.39.095l.679-5.385h5.654v1.974zm5.861 3.348v1.595h-4.138v-1.595h4.138zm1.565 2.59c.426.221 1.405.631 2.385.631 1.248 0 1.879-.6 1.879-1.373 0-1.012-1.011-1.469-2.069-1.469h-.979v-1.723h.932c.806-.016 1.832-.315 1.832-1.184 0-.616-.505-1.074-1.516-1.074-.837 0-1.721.363-2.147.615l-.49-1.736c.616-.395 1.848-.773 3.174-.773 2.195 0 3.411 1.152 3.411 2.558 0 1.09-.616 1.942-1.879 2.385v.032c1.232.221 2.227 1.152 2.227 2.494 0 1.816-1.595 3.144-4.201 3.144-1.326 0-2.448-.348-3.048-.727l.489-1.8zm9.098.616c.3.031.568.031 1.042 0 .726-.047 1.469-.252 2.021-.632a3.193 3.193 0 0 0 1.295-1.896l-.047-.016c-.458.475-1.122.742-2.053.742-1.737 0-3.206-1.215-3.206-3.205 0-2.006 1.611-3.695 3.87-3.695 2.637 0 3.885 2.021 3.885 4.422 0 2.131-.679 3.695-1.8 4.722-.979.884-2.322 1.374-3.917 1.437a8.181 8.181 0 0 1-1.09 0v-1.879zm1.453-5.149c0 .885.474 1.643 1.453 1.643.647 0 1.105-.316 1.327-.68.079-.142.126-.299.126-.6 0-1.09-.411-2.164-1.5-2.164-.822 0-1.422.727-1.406 1.801zm6.982 4.533c.426.221 1.405.631 2.385.631 1.248 0 1.879-.6 1.879-1.373 0-1.012-1.011-1.469-2.069-1.469h-.979v-1.723h.932c.806-.016 1.832-.315 1.832-1.184 0-.616-.505-1.074-1.516-1.074-.837 0-1.721.363-2.147.615l-.49-1.736c.616-.395 1.848-.773 3.174-.773 2.195 0 3.411 1.152 3.411 2.558 0 1.09-.616 1.942-1.879 2.385v.032c1.232.221 2.227 1.152 2.227 2.494 0 1.816-1.595 3.144-4.201 3.144-1.326 0-2.448-.348-3.048-.727l.489-1.8zm12.589 2.353v-2.448h-4.548v-1.563l3.885-6.254h2.938v6.017h1.232v1.8h-1.232v2.448h-2.275zm0-4.248v-2.274c0-.615.032-1.248.079-1.911h-.063c-.332.663-.6 1.264-.947 1.911l-1.374 2.242v.032h2.305zm12.099-.933c0 3.175-1.279 5.354-3.9 5.354-2.653 0-3.822-2.385-3.838-5.29 0-2.97 1.264-5.322 3.917-5.322 2.747 0 3.821 2.448 3.821 5.258zm-5.322.065c-.016 2.353.553 3.474 1.484 3.474s1.437-1.169 1.437-3.506c0-2.274-.489-3.475-1.453-3.475-.884 0-1.484 1.122-1.468 3.507zm14.089-.065c0 3.175-1.279 5.354-3.9 5.354-2.653 0-3.822-2.385-3.838-5.29 0-2.97 1.263-5.322 3.917-5.322 2.748 0 3.821 2.448 3.821 5.258zm-5.321.065c-.016 2.353.553 3.474 1.484 3.474s1.437-1.169 1.437-3.506c0-2.274-.489-3.475-1.453-3.475-.884 0-1.485 1.122-1.468 3.507zm14.088-.065c0 3.175-1.279 5.354-3.9 5.354-2.653 0-3.822-2.385-3.838-5.29 0-2.97 1.264-5.322 3.917-5.322 2.748 0 3.821 2.448 3.821 5.258zm-5.321.065c-.016 2.353.553 3.474 1.484 3.474s1.437-1.169 1.437-3.506c0-2.274-.489-3.475-1.453-3.475-.884 0-1.484 1.122-1.468 3.507z" fill="#FFF"/></svg>