<svg xmlns="http://www.w3.org/2000/svg" width="300" height="64.97" viewBox="0 0 300 64.97"><path d="M52.604 37.26c.651 0 1.147-.174 1.488-.52.341-.347.512-.767.512-1.261 0-.598-.179-1.039-.536-1.322-.357-.284-.919-.426-1.685-.426H51.25v-1.087l1.906-2.598.898-.709-1.244.142h-2.646v-1.732h6.016v1.118l-2.221 2.977-.693.425v.079l.662-.095a3.55 3.55 0 0 1 1.047.252c.331.137.619.334.866.591.247.258.443.575.59.953s.221.813.221 1.307c0 .62-.103 1.155-.307 1.606-.205.452-.488.83-.851 1.135-.362.304-.785.53-1.268.677a5.366 5.366 0 0 1-1.56.221c-.462 0-.939-.042-1.433-.126s-.893-.205-1.197-.362l.551-1.701c.273.137.575.247.905.331.333.083.703.125 1.112.125zm6.726-.221h2.189v-6.221l.236-1.071-.756.93-1.402.96-.866-1.181 3.591-2.898h1.15v9.481h2.142v1.732H59.33v-1.732zm15.528-1.685c0 .515-.086.992-.26 1.434s-.417.824-.732 1.149a3.396 3.396 0 0 1-1.142.771 3.738 3.738 0 0 1-1.473.284 4.215 4.215 0 0 1-1.504-.26 3.238 3.238 0 0 1-1.189-.78c-.336-.346-.599-.781-.788-1.307s-.284-1.134-.284-1.827c0-1.039.15-1.979.449-2.819a7.327 7.327 0 0 1 1.213-2.196 6.275 6.275 0 0 1 1.78-1.513 6.51 6.51 0 0 1 2.15-.764l.457 1.622a4.47 4.47 0 0 0-1.449.488 5.167 5.167 0 0 0-2.039 1.992 4.479 4.479 0 0 0-.496 1.284c.209-.263.482-.486.819-.67.336-.184.756-.275 1.26-.275.473 0 .908.073 1.307.221.399.146.74.365 1.024.653.283.289.504.644.662 1.063.156.421.235.904.235 1.45zm-1.984.11c0-1.176-.578-1.764-1.732-1.764-.42 0-.774.095-1.063.283-.289.189-.491.41-.606.662a1.694 1.694 0 0 0-.031.299v.252c0 .252.037.502.11.748.073.247.181.468.323.662s.323.352.543.472c.22.121.482.182.787.182.494 0 .895-.168 1.205-.504.309-.336.464-.767.464-1.292zm3.575-2.126h3.953v1.812h-3.953v-1.812zm13.008 2.016c0 .515-.086.992-.26 1.434s-.417.824-.732 1.149a3.396 3.396 0 0 1-1.142.771 3.738 3.738 0 0 1-1.473.284 4.215 4.215 0 0 1-1.504-.26 3.238 3.238 0 0 1-1.189-.78c-.336-.346-.599-.781-.788-1.307s-.284-1.134-.284-1.827c0-1.039.15-1.979.449-2.819a7.327 7.327 0 0 1 1.213-2.196 6.275 6.275 0 0 1 1.78-1.513 6.51 6.51 0 0 1 2.15-.764l.457 1.622a4.47 4.47 0 0 0-1.449.488 5.167 5.167 0 0 0-2.039 1.992 4.479 4.479 0 0 0-.496 1.284c.209-.263.482-.486.819-.67.336-.184.756-.275 1.26-.275.473 0 .908.073 1.307.221.399.146.74.365 1.024.653.283.289.504.644.662 1.063.156.421.235.904.235 1.45zm-1.984.11c0-1.176-.578-1.764-1.732-1.764-.42 0-.774.095-1.063.283-.289.189-.491.41-.606.662a1.694 1.694 0 0 0-.031.299v.252c0 .252.037.502.11.748.073.247.181.468.323.662s.323.352.543.472c.22.121.482.182.787.182.494 0 .895-.168 1.205-.504.309-.336.464-.767.464-1.292zm3.433-4.268c0-.536.082-1.029.244-1.48.163-.451.399-.837.709-1.158.31-.319.688-.571 1.134-.756.446-.184.958-.275 1.536-.275 1.187 0 2.118.354 2.795 1.063.677.708 1.016 1.74 1.016 3.095 0 1.218-.155 2.271-.465 3.157-.31.888-.725 1.628-1.244 2.221a5.36 5.36 0 0 1-1.803 1.362 6.376 6.376 0 0 1-2.158.567l-.441-1.606a5.151 5.151 0 0 0 1.543-.426c.451-.21.84-.47 1.166-.779.325-.31.59-.661.795-1.055.205-.395.349-.816.433-1.269-.252.273-.522.463-.811.567-.289.104-.675.157-1.157.157-.399 0-.795-.068-1.189-.205a3.052 3.052 0 0 1-1.055-.622c-.31-.277-.562-.63-.756-1.055s-.292-.926-.292-1.503zm1.985-.11c0 .599.167 1.05.504 1.354.336.305.756.457 1.26.457.43 0 .782-.068 1.055-.205s.483-.305.63-.504c.032-.221.047-.431.047-.63 0-.294-.037-.583-.11-.866a2.366 2.366 0 0 0-.338-.756 1.708 1.708 0 0 0-.583-.528 1.71 1.71 0 0 0-.842-.196c-.515 0-.914.165-1.197.496-.285.33-.426.79-.426 1.378zm14.945 4.614h-1.732v3.071h-1.906V35.7h-4.772v-1.165l4.993-6.867h1.685v6.395h1.732V35.7zm-3.638-4.048l.142-1.322h-.063l-.535 1.134-1.638 2.126-.788.599 1.008-.126h1.874v-2.411zm5.449 5.387h2.189v-6.221l.236-1.071-.756.93-1.402.96-.866-1.181 3.591-2.898h1.15v9.481h2.142v1.732h-6.284v-1.732zm8.047-5.843c0-.536.082-1.029.244-1.48.163-.451.399-.837.709-1.158.31-.319.688-.571 1.134-.756.446-.184.958-.275 1.536-.275 1.187 0 2.118.354 2.795 1.063.677.708 1.016 1.74 1.016 3.095 0 1.218-.155 2.271-.465 3.157-.31.888-.725 1.628-1.244 2.221a5.36 5.36 0 0 1-1.803 1.362 6.376 6.376 0 0 1-2.158.567l-.441-1.606a5.151 5.151 0 0 0 1.543-.426c.451-.21.84-.47 1.166-.779.325-.31.59-.661.795-1.055.205-.395.349-.816.433-1.269-.252.273-.522.463-.811.567-.289.104-.675.157-1.157.157-.399 0-.795-.068-1.189-.205a3.052 3.052 0 0 1-1.055-.622c-.31-.277-.562-.63-.756-1.055s-.292-.926-.292-1.503zm1.985-.11c0 .599.167 1.05.504 1.354.336.305.756.457 1.26.457.43 0 .782-.068 1.055-.205s.483-.305.63-.504c.032-.221.047-.431.047-.63 0-.294-.037-.583-.11-.866a2.366 2.366 0 0 0-.338-.756 1.708 1.708 0 0 0-.583-.528 1.71 1.71 0 0 0-.842-.196c-.515 0-.914.165-1.197.496-.284.33-.426.79-.426 1.378zm10.032 6.174c.651 0 1.147-.174 1.488-.52.341-.347.512-.767.512-1.261 0-.598-.179-1.039-.536-1.322-.357-.284-.919-.426-1.685-.426h-1.134v-1.087l1.906-2.598.898-.709-1.244.142h-2.646v-1.732h6.016v1.118l-2.221 2.977-.693.425v.079l.662-.095a3.55 3.55 0 0 1 1.047.252c.331.137.619.334.866.591.247.258.443.575.59.953s.221.813.221 1.307c0 .62-.103 1.155-.307 1.606-.205.452-.488.83-.851 1.135-.362.304-.785.53-1.268.677a5.366 5.366 0 0 1-1.56.221c-.462 0-.939-.042-1.433-.126s-.893-.205-1.197-.362l.551-1.701c.273.137.575.247.905.331a4.61 4.61 0 0 0 1.113.125zm6.095-1.182c0-.367.047-.695.142-.984a2.81 2.81 0 0 1 .401-.787c.173-.236.378-.449.614-.638s.491-.362.764-.52c-.515-.326-.919-.701-1.213-1.127-.294-.425-.441-.952-.441-1.582 0-.41.076-.793.229-1.15.152-.356.373-.666.661-.929s.638-.467 1.047-.614c.41-.147.872-.221 1.386-.221.472 0 .903.063 1.291.189a3 3 0 0 1 1 .535c.278.231.493.512.646.843.152.33.229.695.229 1.095 0 .619-.14 1.145-.417 1.574-.278.431-.685.825-1.221 1.182.63.367 1.105.771 1.425 1.213.32.44.48 1.008.48 1.7 0 .473-.086.9-.26 1.284a2.825 2.825 0 0 1-.732.984c-.315.272-.693.485-1.134.638s-.924.229-1.449.229-1-.071-1.425-.213-.787-.339-1.086-.591-.53-.556-.693-.913a2.843 2.843 0 0 1-.244-1.197zm5.071-.204c0-.242-.058-.462-.173-.662-.116-.199-.266-.38-.449-.543s-.388-.313-.614-.449a18.652 18.652 0 0 0-.685-.394c-.494.283-.832.591-1.016.921a2.011 2.011 0 0 0-.275.984c0 .421.144.78.433 1.079.289.3.69.449 1.205.449.473 0 .853-.115 1.142-.347.288-.229.432-.576.432-1.038zm-2.851-5.402c0 .252.047.473.142.661.094.189.223.354.386.496.163.142.347.273.551.394.205.121.417.234.638.339.63-.535.945-1.123.945-1.764 0-.441-.128-.774-.386-1s-.57-.339-.937-.339c-.462 0-.801.121-1.016.362a1.24 1.24 0 0 0-.323.851zm88.792 5.222c0-1.991.421-3.518 1.263-4.582.842-1.063 2.042-1.595 3.601-1.595.842 0 1.57.147 2.185.443s1.123.714 1.526 1.254c.404.541.702 1.188.896 1.945.193.757.29 1.602.29 2.534 0 1.99-.424 3.518-1.271 4.581s-2.056 1.596-3.626 1.596c-.83 0-1.55-.148-2.158-.444a4.107 4.107 0 0 1-1.519-1.254c-.404-.54-.703-1.188-.896-1.945-.194-.755-.291-1.6-.291-2.533zm1.502 0c0 .659.065 1.285.196 1.877.131.591.333 1.111.605 1.561.273.45.623.809 1.05 1.075.427.268.93.401 1.51.401 1.058 0 1.889-.401 2.491-1.203s.904-2.039.904-3.711c0-.648-.065-1.271-.196-1.869-.131-.597-.336-1.12-.614-1.569s-.631-.808-1.058-1.075c-.427-.267-.936-.4-1.527-.4-1.047 0-1.868.4-2.466 1.202-.596.802-.895 2.038-.895 3.711zm17.097-2.559v8.531h-1.365v-7.337h-3.446v7.337h-1.365v-7.337h-1.331v-1.194h1.331v-.478c0-1.069.265-1.846.794-2.329.528-.483 1.305-.726 2.329-.726.671 0 1.268.065 1.791.196s.933.287 1.229.469l-.46 1.093c-.308-.193-.672-.336-1.093-.427s-.87-.137-1.348-.137c-.421 0-.754.049-.998.146-.245.097-.433.244-.563.443s-.216.446-.256.742-.06.631-.06 1.007h4.811zm8.463 7.968a3.72 3.72 0 0 1-1.211.572 5.408 5.408 0 0 1-1.468.196c-.659 0-1.217-.105-1.672-.316a2.852 2.852 0 0 1-1.117-.904c-.29-.392-.501-.864-.632-1.416s-.196-1.163-.196-1.834c0-1.444.318-2.551.956-3.318.637-.769 1.553-1.152 2.747-1.152a6.5 6.5 0 0 1 1.391.128c.381.086.725.208 1.032.367l-.393 1.177a3.795 3.795 0 0 0-1.894-.478c-1.615 0-2.423 1.092-2.423 3.276 0 .433.043.845.128 1.237.086.393.228.739.427 1.04.199.302.461.544.785.726.324.183.726.273 1.203.273.409 0 .776-.063 1.101-.188.324-.125.589-.267.793-.426l.443 1.04zm1.877-10.562c0-.262.088-.486.265-.674s.401-.281.674-.281.507.094.7.281.29.412.29.674-.097.478-.29.648-.427.256-.7.256c-.272 0-.497-.085-.674-.256s-.265-.386-.265-.648zm.29 2.594h1.365v8.531h-1.365v-8.531zm9.76 8.531v-4.863c0-.887-.128-1.555-.384-2.005-.256-.449-.726-.674-1.408-.674-.603 0-1.101.162-1.492.486a2.585 2.585 0 0 0-.828 1.22v5.836h-1.365v-8.531h.956l.256 1.041h.068c.272-.364.64-.663 1.101-.896.461-.232 1.009-.35 1.646-.35.466 0 .876.055 1.229.162.353.108.646.299.879.571.232.273.409.641.528 1.101.12.461.18 1.044.18 1.749v5.153h-1.366zm3.72-7.9a4.93 4.93 0 0 1 1.51-.58 8.445 8.445 0 0 1 1.8-.188c.592 0 1.066.08 1.425.239s.632.366.819.622.313.538.375.845c.063.308.094.614.094.922 0 .683-.017 1.348-.051 1.996s-.051 1.263-.051 1.843c0 .421.017.819.051 1.194.034.376.097.723.188 1.041h-1.007l-.358-1.194h-.085c-.103.159-.23.315-.384.469a2.46 2.46 0 0 1-.555.41 3.5 3.5 0 0 1-1.724.418c-.365 0-.702-.058-1.015-.171a2.356 2.356 0 0 1-.811-.486c-.228-.21-.407-.463-.538-.759s-.196-.632-.196-1.007c0-.501.103-.919.308-1.255.205-.335.492-.603.861-.802.37-.198.813-.341 1.331-.427a10.62 10.62 0 0 1 1.715-.128h.47c.153 0 .31.012.469.034.034-.341.052-.648.052-.921 0-.626-.126-1.063-.376-1.314-.25-.25-.705-.375-1.365-.375-.193 0-.4.015-.622.044a7.35 7.35 0 0 0-.683.123 5.684 5.684 0 0 0-.666.193c-.21.075-.396.16-.555.254l-.426-1.04zm2.423 6.842c.318 0 .603-.043.853-.128a2.47 2.47 0 0 0 .648-.324 2.067 2.067 0 0 0 .717-.897v-1.416a16.112 16.112 0 0 0-.972-.034 8.93 8.93 0 0 0-1.032.06c-.336.04-.631.114-.887.223a1.541 1.541 0 0 0-.614.443c-.154.188-.23.424-.23.708 0 .398.142.725.426.981.283.256.647.384 1.091.384zm9.93-1.262c0-.342-.103-.608-.307-.802a2.612 2.612 0 0 0-.76-.486c-.301-.131-.631-.257-.989-.376s-.688-.272-.99-.461c-.301-.188-.554-.429-.759-.725s-.308-.694-.308-1.194c0-.819.233-1.419.7-1.801.466-.381 1.114-.571 1.945-.571.614 0 1.129.055 1.544.162.415.108.776.236 1.083.384l-.324 1.126a5.403 5.403 0 0 0-.946-.332 4.668 4.668 0 0 0-1.187-.146c-.5 0-.867.086-1.101.256-.232.171-.35.467-.35.888 0 .296.103.526.308.69.204.165.458.313.759.444.302.131.632.259.99.384s.688.29.989.495c.302.204.555.463.76.776.204.313.307.725.307 1.236a2.9 2.9 0 0 1-.179 1.024c-.12.318-.305.591-.555.818a2.697 2.697 0 0 1-.93.538c-.37.131-.806.196-1.306.196-.648 0-1.2-.063-1.655-.188a5.217 5.217 0 0 1-1.144-.443l.41-1.16c.262.148.603.284 1.023.409.421.126.848.188 1.28.188.488 0 .893-.097 1.211-.29s.481-.539.481-1.039zM232 50.609l-3.156.912-63.588-.044-2.256-.868V49h69z" fill="#FFF"/><path fill="#FFF" d="M222.939 9h-52.663c-.604 0-1.276-.973-1.276-.528v38.725c0 .446.672 1.804 1.276 1.804h52.663c.605 0-.939-1.357-.939-1.804V8.472c0-.445 1.545.528.939.528zM221 48h-52V10h52v38zm-53.042-30.155h-2.104v.983l-.576.533-.008 6.509.287.26-.029-6.5.326-.324v21.065l1.14 1.824 1.046-1.882z"/><path fill="#FFF" d="M192.279 19.059c-.134-.165.063-.533.435-.891.565-.546 4.451-4.451 6.002-6.002.391-.391 1.708-1.184 3.002.609 1.567 2.178.155 3.247 0 3.308-2.069.815-8.571 2.95-8.571 2.95s-.694.245-.868.026zm4.364 1.415c-6.914 0-12.519 4.935-12.519 11.021s5.604 11.021 12.519 11.021 12.518-4.935 12.518-11.021-5.604-11.021-12.518-11.021zm0 19.641c-3.147 0-5.698-3.861-5.698-8.621 0-4.761 2.551-8.622 5.698-8.622 3.145 0 5.696 3.861 5.696 8.622 0 4.76-2.552 8.621-5.696 8.621z"/><g fill="#FFF"><path d="M32.361 20.492c-6.549.312-11.719 5.768-11.698 12.324a12.24 12.24 0 0 0 1.339 5.55l-1.307 6.337a.48.48 0 0 0 .58.565l6.211-1.475a12.199 12.199 0 0 0 5.285 1.283c6.695.104 12.277-5.213 12.486-11.903.223-7.175-5.696-13.022-12.896-12.681zm7.411 19.097a9.564 9.564 0 0 1-6.81 2.82 9.54 9.54 0 0 1-4.287-1.003l-.863-.431-3.81.902.802-3.893-.426-.832a9.533 9.533 0 0 1-1.047-4.376 9.562 9.562 0 0 1 2.82-6.807 9.653 9.653 0 0 1 6.811-2.824 9.56 9.56 0 0 1 6.81 2.824 9.555 9.555 0 0 1 2.821 6.807 9.642 9.642 0 0 1-2.821 6.813z"/><path d="M38.933 35.445l-2.382-.684a.894.894 0 0 0-.88.232l-.583.595a.87.87 0 0 1-.943.198c-1.127-.457-3.498-2.565-4.104-3.619a.868.868 0 0 1 .07-.963l.508-.657a.888.888 0 0 0 .109-.902l-1.002-2.267a.89.89 0 0 0-1.388-.317c-.665.561-1.454 1.416-1.55 2.361-.169 1.67.547 3.775 3.254 6.302 3.127 2.92 5.633 3.305 7.264 2.909.924-.222 1.663-1.12 2.129-1.855a.89.89 0 0 0-.502-1.333z"/></g></svg>