<svg xmlns="http://www.w3.org/2000/svg" width="34.57" height="33.692" viewBox="0 0 34.57 33.692"><circle fill="#232323" cx="17.718" cy="17.342" r="16.033"/><path d="M17.197 15.562h3.604c.135 0 .256-.02.275.187.252 2.868-.274 5.495-2.431 7.58-1.136 1.099-2.56 1.613-4.105 1.799-2.174.261-4.178-.188-5.964-1.487a8.036 8.036 0 0 1-3.078-8.326c.753-3.167 3.309-5.578 6.486-6.092 2.438-.395 4.611.219 6.527 1.771.191.154.205.244.016.417a21.99 21.99 0 0 0-1.86 1.916c-.146.166-.248.21-.444.047-1.588-1.306-3.809-1.241-5.299-.346-1.676 1.009-2.546 2.934-2.229 4.957a4.675 4.675 0 0 0 3.579 3.819 5.38 5.38 0 0 0 3-.175c1.1-.382 1.734-1.226 2.166-2.257.265-.634.264-.635-.408-.635-1.139.001-2.278-.004-3.417.01-.236.002-.296-.067-.292-.297a71.47 71.47 0 0 0-.002-2.578c-.006-.272.09-.318.336-.315 1.179.011 2.36.005 3.54.005zm8.64 3.564c0-.373-.014-.746.004-1.117.012-.236-.049-.322-.303-.316-.755.017-1.51-.005-2.266.012-.254.006-.313-.078-.303-.315.018-.454.02-.911-.001-1.365-.013-.267.082-.325.333-.319.754.016 1.51-.002 2.266.01.22.005.277-.064.273-.279-.012-.755.002-1.51-.008-2.266-.003-.188.049-.253.242-.248.485.012.973.014 1.458-.001.222-.007.304.046.298.289-.018.724.01 1.448-.014 2.172-.01.288.088.341.348.335.725-.018 1.448 0 2.172-.011.21-.003.293.048.285.273-.016.486-.014.974-.002 1.459.007.201-.053.268-.259.265-.755-.011-1.511.004-2.267-.009-.219-.004-.277.066-.275.28.013.766-.002 1.531.01 2.297.004.22-.037.313-.283.303-.485-.02-.973-.015-1.458-.001-.209.006-.263-.069-.255-.268.015-.394.005-.787.005-1.18z" fill-rule="evenodd" clip-rule="evenodd" fill="#FFF"/></svg>