<svg xmlns="http://www.w3.org/2000/svg" width="303.5" height="131" viewBox="0 0 303.5 131"><path fill="#B92025" d="M43.632 15.712v16.251H18.9V15.712h7.42v-3.18h9.894v3.18zm38.556-3.118l-2.983 3.97s-.1-.23-.809-.168l-1.292.021-.762.525s-.516.71.623 1.009h1.137S76.208 19 75.729 20.083c0 0-1.458 1.458-1.417 5.354 0 0 .063 2.497.614 4.499 0 0-.447 1.001-.259 1.23 0 0 .313.438 1.167.708 0 0 .479 1.021 2.521.833 0 0 1.167.063 1.604-.188l1.272.119 2.02-.562 11.438-.054 1.586.495 1.309-.103s3.438 1.021 4.146-.563c0 0 1.255-.338 1.114-.932l-.109-.912s.703-6.338-.25-8.307c0 0-.722-1.717-3.048-3.21l.783-.056s1.094-.328.875-.969c0 0-.078-.563-1.047-.75s-.063-.016-.063-.016l-1.813.047-.146.104-3.418-4.198-.469-.047-11.951-.011zm74.459 6.51l.167 8.667-6.084.021s2.98 2.396 1.646 5.667c0 0-2.416 4.375-6.375 1.75 0 0-3.479-2.146-1.292-6.021l.771-1.208-6.291.042.125-8.75-1.042.958-.729-1.354 10.938-7.917 10.875 8.021-1.25 1.333-1.459-1.209zm51.791-9.354s-2.188.156-2.188 1.188l-.063 1.25-1.219.688s-1.5-1.156-3.531-.188c0 0-.563.313-.438 1.656l-.031.313-3.625 1.594V28.97l10.813 5.594 10.281-5.719-.313-11.875-.124-.032-2.703-1.303-.047-1.541.125-.531s-.438-1.125-2.474-.969l-1.401.469-1.125-.75-.063-1.656c.001-.001-.062-.657-1.874-.907z"/><path fill="#FFF" d="M36.214 15.712v-3.18H26.32v3.18H18.9v16.251h24.731V15.712h-7.417zm-9.118-2.405h8.41v2.405h-8.41v-2.405zm15.831 3.111v4.593h-8.834V19.99c0-.138-.396-.463-.547-.463H28.85c-.152 0-.409.325-.409.463v1.021h-8.833v-4.593h23.319zm-9.541 3.949v1.991c0 .1-.008.066-.12.066H29.55c-.111 0-.403.034-.403-.066v-1.991c0-.1.292-.063.403-.063h3.716c.113.001.12-.037.12.063zM19.608 31.256v-9.539h8.833v1.016c0 .139.257.397.409.397h5.116c.151 0 .126-.258.126-.397v-1.016h8.834v9.539H19.608zm59.614 1.465H77.18a1.428 1.428 0 0 1-1.358-.983.367.367 0 0 1 .068-.342.357.357 0 0 1 .329-.118c1.242.213 3.314.55 3.592.55h.001c.272 0 .408.188.408.363 0 .49-.988.53-.998.53zm21.22 0h-2.041c-.01 0-.985-.121-.985-.602 0-.195.19-.368.395-.368.298 0 2.369-.315 3.605-.515a.342.342 0 0 1 .322.12.352.352 0 0 1 .066.341c-.198.602-.758 1.024-1.362 1.024z"/><path fill="#FFF" d="M81.236 32.64l-.021-.001c-2.326-.136-6.281-.518-6.628-1.558a.354.354 0 0 1 .003-.234l.336-.911c-.188-.663-1.022-3.921-.378-7.413.013-.099.403-2.877 3.502-4.547l.052-.025h-1.137c-.248-.019-.688-.181-.765-.668a.343.343 0 0 1 .142-.341l.645-.475a.379.379 0 0 1 .211-.069h1.701a.37.37 0 0 1 .306.166l2.854-3.821a.354.354 0 0 1 .284-.142H94.48c.108 0 .21.049.277.133l3.271 4.12a.361.361 0 0 1 .294-.157h1.854c.047 0 .094.01.137.028.332.14.879.442.836.895-.038.413-.563.718-.787.83a.366.366 0 0 1-.151.038l-.771.005.133.085c.759.472 3.229 2.207 3.363 4.695.013.137.328 3.676-.197 6.737l.153 1.017a.356.356 0 0 1-.08.282c-.142.168-1.121 1.016-6.407 1.226a.301.301 0 0 1-.121-.016l-1.586-.495-11.438.054-1.914.55a.705.705 0 0 1-.11.012zm-5.917-1.718c.473.387 3.054.836 5.877 1.005l1.904-.547a.338.338 0 0 1 .096-.014l11.558-.054a.36.36 0 0 1 .104.016l1.579.493c3.981-.164 5.339-.702 5.721-.909l-.128-.855a.335.335 0 0 1 .001-.114c.522-2.979.2-6.583.197-6.62-.122-2.215-2.546-3.842-3.032-4.146-.866-.545-1.087-.743-1.133-.791a.35.35 0 0 1 .03-.516.317.317 0 0 1-.188-.101l-.2-.206-3.386-4.255h-11.79l-2.965 3.962a.341.341 0 0 1-.182.128l-.153.045c.03.063.04.134.03.205-.091.599-.813.929-.896.965-2.753 1.486-3.104 3.995-3.104 4.021-.684 3.672.379 7.176.391 7.211a.374.374 0 0 1-.006.229l-.325.848zm23.066-13.136l.344.001 1.382-.01c.107-.061.22-.136.28-.196a1.936 1.936 0 0 0-.293-.176h-1.529l-.09.242a.35.35 0 0 1-.094.139zm-21.07-.679l-.184.135 1.478-.001a.566.566 0 0 1-.008-.04l-.013-.094h-1.273z"/><path fill="#FFF" d="M97.052 18.636h-.004l-17.08-.202a.354.354 0 0 1-.282-.564l2.984-4.083a.35.35 0 0 1 .287-.146h10.885c.109 0 .217.053.283.142l3.17 4.232a.36.36 0 0 1 .12.267.353.353 0 0 1-.363.354zm-16.387-.904l15.672.186-2.672-3.568H83.138l-2.473 3.382zm.15 7.789a.405.405 0 0 1-.045-.003l-4.432-.583-.545.129a.373.373 0 0 1-.311-.068l-.532-.431a.356.356 0 0 1-.12-.361l.565-2.345a.353.353 0 0 1 .167-.223.35.35 0 0 1 .276-.034l4.764 1.379a.357.357 0 0 1 .252.283l.31 1.844a.35.35 0 0 1-.101.305.327.327 0 0 1-.248.108zm-4.495-1.3c.021 0 .031.001.051.003l4.021.529-.188-1.152-4.19-1.214-.435 1.766.229.181.438-.104a.278.278 0 0 1 .074-.009zm20.56 1.3a.348.348 0 0 1-.256-.108.385.385 0 0 1-.102-.305l.311-1.844a.351.351 0 0 1 .25-.283l4.648-1.378a.349.349 0 0 1 .278.033.351.351 0 0 1 .168.223l.572 2.345a.37.37 0 0 1-.121.361l-.539.431c-.085.068-.197.093-.303.068l-.545-.129-4.322.583c-.009.003-.024.003-.039.003zm.618-1.922l-.19 1.152 3.912-.526a.34.34 0 0 1 .127.006l.44.104.228-.181-.432-1.764-4.085 1.209zm-16.431 8.19c-.014 0-.021 0-.039-.002-5.289-.576-5.545-1.05-5.629-1.206-.015-.027-.021-.056-.028-.085-.013-.035-.203-.868-.438-2.89a.353.353 0 0 1 .461-.378l5.122 1.648a.328.328 0 0 1 .154.1l1.521 1.684a.355.355 0 0 1-.076.539l-.854.537a.4.4 0 0 1-.194.053zm-5.036-1.57c.483.241 2.86.617 4.95.849l.396-.248-1.176-1.298-4.511-1.449c.162 1.217.291 1.896.341 2.146zm20.526 1.57a.353.353 0 0 1-.188-.054l-.856-.538a.354.354 0 0 1-.075-.538l1.521-1.684a.382.382 0 0 1 .147-.1l5.123-1.648a.353.353 0 0 1 .333.063.332.332 0 0 1 .127.315c-.229 2.021-.43 2.855-.437 2.89a.653.653 0 0 1-.033.085c-.084.155-.34.63-5.628 1.206-.009.003-.022.003-.034.003zm-.314-.968l.396.248c2.089-.232 4.467-.608 4.949-.849.052-.25.181-.93.333-2.146l-4.504 1.449-1.174 1.298z"/><path fill="#FFF" d="M94.175 31.646l-10.71-.036a.35.35 0 0 1-.216-.075l-.88-.681a.41.41 0 0 1-.137-.221l-1.196-7.056a.368.368 0 0 1 .157-.361l1.009-.626a.286.286 0 0 1 .188-.054l13.196.036a.36.36 0 0 1 .228.082l.858.717a.354.354 0 0 1 .122.338l-1.36 7.27a.354.354 0 0 1-.214.263l-.914.376a.302.302 0 0 1-.131.028zm-10.586-.745l10.517.035.67-.276 1.286-6.876-.601-.501-12.97-.035-.72.446 1.144 6.685.674.522z"/><g fill="#FFF"><path d="M208.008 35.172l-11.168-5.899V16.029l4.041-1.855.391.857-3.432 1.6v12.075L208 34.095l9.84-5.385V17.061l-2.543-1.427.504-.823 3.039 1.697v12.761zm3.431-21.807l-1.234-.711.356-.616 1.233.712zm-6.323-.208l-.316-.636 1.304-.648.316.636z"/><path d="M208.17 22.86l-10.726-6.223.357-.614 10.373 6.019 9.738-5.545.354.616z"/><path d="M207.84 22h1v13h-1zm-4.711-7.567c-1.313 0-2.293-.498-2.293-1.159s.979-1.159 2.293-1.159c1.307 0 2.295.498 2.295 1.159s-.988 1.159-2.295 1.159zm0-1.896c-1.063 0-1.853.39-1.853.737s.789.737 1.853.737c1.057 0 1.846-.389 1.846-.737s-.789-.737-1.846-.737zm2.276 3.758c0 .66-.989 1.158-2.284 1.158-1.302 0-2.271-.499-2.271-1.159h.441c0 .348.778.736 1.83.736 1.047 0 1.823-.389 1.823-.736l.461.001z"/><path d="M204.944 13.387h.474v2.914h-.474zm-4.102-.046h.436v2.96h-.436zm12.52 1.374c-1.307 0-2.295-.499-2.295-1.159s.988-1.159 2.295-1.159c1.313 0 2.298.499 2.298 1.159-.004.66-.99 1.159-2.298 1.159zm0-1.897c-1.057 0-1.846.39-1.846.737 0 .348.789.737 1.846.737 1.062 0 1.853-.389 1.853-.737-.008-.347-.797-.737-1.853-.737zm2.275 3.758c0 .661-.992 1.158-2.289 1.158-1.295 0-2.271-.498-2.271-1.159h.438c0 .348.783.737 1.828.737 1.047 0 1.83-.389 1.83-.737l.464.001z"/><path d="M215.176 13.669h.469v2.914h-.469zm-4.102-.046h.438v2.96h-.438zm-2.757 4.064c-1.309 0-2.295-.499-2.295-1.159s.986-1.159 2.295-1.159c1.313 0 2.293.499 2.293 1.159s-.987 1.159-2.293 1.159zm0-1.896c-1.057 0-1.848.389-1.848.737s.791.737 1.848.737c1.062 0 1.851-.389 1.851-.737-.006-.348-.797-.737-1.851-.737zm2.273 3.757c0 .66-.992 1.158-2.287 1.158-1.297 0-2.273-.499-2.273-1.159h.443c0 .348.783.737 1.83.737s1.828-.389 1.828-.737l.459.001z"/><path d="M210.129 16.641h.469v2.914h-.469zm-4.099-.047h.438v2.96h-.438zm2.287-4.639c-1.309 0-2.295-.498-2.295-1.159s.986-1.159 2.295-1.159c1.313 0 2.293.498 2.293 1.159s-.987 1.159-2.293 1.159zm0-1.896c-1.057 0-1.848.39-1.848.737 0 .348.791.737 1.848.737 1.062 0 1.851-.389 1.851-.737-.008-.348-.797-.737-1.851-.737zm2.273 3.757c0 .661-.992 1.158-2.287 1.158-1.297 0-2.273-.498-2.273-1.159h.443c0 .348.783.737 1.83.737s1.828-.389 1.828-.737l.459.001z"/><path d="M210.129 10.909h.469v2.914h-.469zm-4.099-.047h.438v2.96h-.438z"/></g><path d="M18.16 37.405h3.141v.609h-2.455v1.887h2.249v.609h-2.249v2.051h2.495v.609H18.16v-5.765zm6.764 5.766V40.84c0-.22-.012-.411-.029-.573a1.347 1.347 0 0 0-.105-.408.633.633 0 0 0-.233-.247.84.84 0 0 0-.398-.083.894.894 0 0 0-.631.231 1.252 1.252 0 0 0-.351.577v2.833h-.66v-4.119h.462l.123.502h.033c.146-.176.313-.32.515-.433.195-.112.449-.168.768-.168.265 0 .479.051.646.152.167.102.298.279.394.531.128-.214.303-.382.521-.502a1.56 1.56 0 0 1 .754-.181c.229 0 .425.026.585.078a.823.823 0 0 1 .396.276c.104.132.183.31.229.536.047.225.07.51.07.854v2.471h-.67V40.69c0-.198-.012-.369-.028-.515a.952.952 0 0 0-.115-.363.56.56 0 0 0-.232-.214.964.964 0 0 0-.399-.07c-.271 0-.486.077-.643.231a1.273 1.273 0 0 0-.329.659v2.751h-.667v.002h-.006zm4.273-4.118h.453l.124.494h.033a1.25 1.25 0 0 1 .49-.44c.2-.102.429-.152.688-.152.554 0 .958.162 1.229.486.269.324.396.854.396 1.59 0 .346-.045.658-.136.938a2.06 2.06 0 0 1-.383.704 1.69 1.69 0 0 1-.598.445 1.877 1.877 0 0 1-.778.156c-.203 0-.364-.012-.481-.037a2.263 2.263 0 0 1-.384-.128v1.713h-.659l.006-5.769zm1.664.477c-.272 0-.501.073-.663.219-.157.146-.271.366-.342.663v2.042c.104.077.212.136.338.177s.294.062.503.062c.384 0 .687-.142.901-.424.223-.283.334-.699.334-1.248 0-.225-.021-.43-.058-.614-.039-.184-.104-.34-.188-.469s-.19-.229-.329-.301a1.035 1.035 0 0 0-.496-.107zm3.526 2.628c0 .192.033.33.099.412a.336.336 0 0 0 .28.124c.071 0 .148-.006.229-.017.083-.011.178-.036.275-.074l.074.519c-.088.044-.21.08-.366.107a2.407 2.407 0 0 1-.403.041c-.247 0-.448-.07-.607-.21s-.239-.377-.239-.712v-4.942h.659l-.001 4.752zm4.679.684a1.852 1.852 0 0 1-.622.313c-.25.077-.515.115-.795.115-.313 0-.584-.051-.813-.152a1.452 1.452 0 0 1-.568-.437 1.915 1.915 0 0 1-.329-.68 3.655 3.655 0 0 1-.104-.89c0-.703.151-1.238.471-1.606.313-.368.761-.552 1.343-.552.188 0 .373.021.563.062.188.041.354.12.503.235.146.115.27.279.358.49.097.211.145.49.145.836 0 .181-.021.382-.052.601H36.52c0 .242.025.456.074.643.05.187.127.345.229.474a.997.997 0 0 0 .407.297c.167.068.372.103.613.103.188 0 .374-.033.561-.099.188-.066.327-.143.423-.23l.239.477zm-1.417-3.312c-.318 0-.583.085-.773.255-.192.17-.313.461-.354.874h2.043c0-.417-.08-.71-.234-.877-.163-.167-.391-.252-.682-.252zm2.275 1.582c0-.697.153-1.231.466-1.602.313-.371.756-.556 1.339-.556.312 0 .575.051.808.152.229.101.414.247.563.437.146.19.258.417.329.684.069.267.104.562.104.885 0 .698-.149 1.232-.467 1.603-.311.371-.756.556-1.338.556-.308 0-.576-.051-.804-.152a1.437 1.437 0 0 1-.564-.437 1.91 1.91 0 0 1-.329-.684 3.442 3.442 0 0 1-.107-.886zm.683 0c0 .209.021.409.063.602.041.192.104.36.188.502.093.143.203.258.353.346a.966.966 0 0 0 .52.132c.746.005 1.12-.522 1.12-1.582 0-.214-.021-.417-.063-.609-.041-.192-.104-.359-.191-.502s-.203-.257-.346-.342a1.006 1.006 0 0 0-.521-.128c-.749-.006-1.123.521-1.123 1.581zm160.051.255l.194.874h.008l.218-.89 1.395-3.946h.688l-2.187 5.857h-.305l-2.229-5.857h.75l1.468 3.962zm2.637-2.01c.209-.126.449-.22.729-.28.277-.061.566-.091.869-.091.285 0 .521.039.688.115a.955.955 0 0 1 .396.301c.09.124.15.259.183.408.029.149.049.296.049.445 0 .33-.015.651-.023.964-.018.313-.021.609-.021.89 0 .203.009.396.021.577.014.181.047.349.09.502h-.481l-.174-.577h-.041a1.314 1.314 0 0 1-.458.425 1.8 1.8 0 0 1-.361.144 1.77 1.77 0 0 1-.471.058c-.181 0-.345-.027-.488-.083a1.224 1.224 0 0 1-.396-.235 1.33 1.33 0 0 1-.26-.366 1.194 1.194 0 0 1-.096-.486c0-.241.051-.443.146-.605.104-.162.238-.291.416-.387.185-.096.396-.165.646-.206.25-.042.521-.062.828-.062h.227c.081 0 .148.006.229.017.018-.165.021-.313.021-.445 0-.302-.061-.513-.182-.634s-.344-.181-.66-.181a2.36 2.36 0 0 0-.301.021 3.345 3.345 0 0 0-.65.153c-.1.036-.188.078-.268.123l-.207-.505zm1.17 3.304a1.222 1.222 0 0 0 .725-.219c.088-.063.162-.133.224-.21a.764.764 0 0 0 .127-.223v-.686a7.794 7.794 0 0 0-.464-.016c-.172 0-.338.01-.497.029-.16.02-.308.055-.431.107a.747.747 0 0 0-.297.214.523.523 0 0 0-.109.342c0 .192.066.35.203.474.128.126.304.188.519.188zm4.926-2.974a1.475 1.475 0 0 0-.469-.083c-.236 0-.424.065-.563.194a.844.844 0 0 0-.256.49v2.883h-.658v-4.119h.461l.123.502h.033c.105-.188.23-.331.375-.433.146-.102.332-.152.562-.152.153 0 .34.028.53.083l-.138.635zm.857-1.886c0-.126.043-.235.127-.326a.421.421 0 0 1 .324-.136c.133 0 .239.045.338.136.096.091.143.199.143.326s-.047.229-.143.313a.499.499 0 0 1-.338.124.435.435 0 0 1-.324-.124.422.422 0 0 1-.127-.313zm.141 1.252h.658v4.119h-.658v-4.119zm1.836 2.059c0-.697.154-1.231.465-1.602.313-.371.756-.556 1.34-.556.313 0 .574.051.81.152.227.101.416.247.563.437.148.19.261.417.328.684.072.267.107.562.107.885 0 .698-.154 1.232-.467 1.603-.313.371-.761.556-1.343.556-.309 0-.571-.051-.805-.152a1.427 1.427 0 0 1-.563-.437 1.782 1.782 0 0 1-.326-.684 3.313 3.313 0 0 1-.109-.886zm.681 0c0 .209.021.409.064.602.041.192.104.36.191.502a.966.966 0 0 0 .868.478c.746.005 1.119-.522 1.119-1.582 0-.214-.02-.417-.063-.609-.041-.192-.105-.359-.193-.502s-.203-.257-.346-.342a1.003 1.003 0 0 0-.521-.128c-.744-.006-1.119.521-1.119 1.581zm5.776.939a.511.511 0 0 0-.146-.387 1.435 1.435 0 0 0-.363-.235c-.146-.063-.312-.124-.48-.181s-.332-.132-.477-.223a1.19 1.19 0 0 1-.367-.35c-.102-.145-.146-.334-.146-.577 0-.395.108-.685.338-.869.227-.184.537-.276.938-.276.295 0 .545.026.744.078.201.052.375.114.521.185l-.154.544a2.438 2.438 0 0 0-1.029-.231c-.242 0-.42.042-.531.124-.108.083-.17.226-.17.429 0 .143.055.254.148.333s.221.151.365.214c.146.063.307.125.479.185.174.061.332.14.479.239.146.099.27.224.36.375.104.151.148.35.148.597 0 .176-.029.341-.086.494a1.024 1.024 0 0 1-.271.396 1.33 1.33 0 0 1-.444.259 1.948 1.948 0 0 1-.636.095c-.313 0-.573-.03-.799-.09a2.698 2.698 0 0 1-.551-.214l.197-.56c.127.071.291.137.492.198.198.061.403.091.612.091.236 0 .438-.047.586-.14.165-.093.243-.261.243-.503z" fill="#FFF"/><g fill="#FFF"><path d="M148.334 36.391a4.78 4.78 0 0 1-4.769-4.773c0-1.178.459-2.293 1.269-3.168h-6.063v-8.022l-.438.445-1.285-1.96 11.479-8.462 11.479 8.511-1.748 1.812-1.131-.674v8.047l-5.521.088c.938.904 1.479 2.112 1.479 3.39a4.756 4.756 0 0 1-4.751 4.766zm-2.287-7.942c-1.039.775-1.658 1.933-1.658 3.168 0 2.182 1.771 3.958 3.945 3.958s3.938-1.771 3.938-3.954c0-1.345-.731-2.599-1.953-3.369l-.428.007-.004-.25-.246-.123.074-.503.828-.993-1.154-.002v-9.391l-.889-.901-1.279 1.292v.643l.764 1.117-1.317 1.291v.326l1.317 1.361-1.069 1.238.684.652v2.186h-1.428l.758 1.168.084.514-.27.135a4.743 4.743 0 0 0-.638.382v.049l-.059-.001zm-6.461-.816h6.201c.073-.053.153-.104.235-.153l-.752-1.158c-.104-.168-.176-.425-.053-.648.059-.107.209-.288.553-.288h1.013v-1.021l-.996-.949 1.098-1.26-1.033-1.063v-1.002l1.08-1.052-.521-.757v-1.23l2.1-2.116 1.703 1.726v8.909h.639c.236.008.521.11.644.375.108.249.045.53-.205.836l-.535.646 5.563-.089v-8.68l1.813 1.079.651-.678-10.243-7.598-10.375 7.646.307.466 1.127-1.15-.014 9.209z"/><path d="M148.416 35.524a1.48 1.48 0 0 1-1.479-1.477 1.48 1.48 0 0 1 2.956 0c0 .815-.662 1.477-1.477 1.477zm0-2.342a.865.865 0 1 0 0 1.732.86.86 0 0 0 .858-.866.855.855 0 0 0-.858-.866z"/></g><path d="M133.494 37.739h3.141v.609h-2.455v1.969h2.289v.61h-2.289v2.578h-.686v-5.766zm4.194.395c0-.126.043-.235.127-.326a.43.43 0 0 1 .326-.136c.131 0 .244.045.338.136.094.091.146.199.146.326s-.049.229-.146.313a.493.493 0 0 1-.338.124.447.447 0 0 1-.326-.124.42.42 0 0 1-.127-.313zm.138 1.252h.655v4.119h-.655v-4.119zm4.711 4.119v-2.348c0-.428-.063-.751-.188-.968-.123-.217-.35-.326-.68-.326-.291 0-.531.079-.728.235a1.289 1.289 0 0 0-.396.589v2.817h-.66v-4.119h.463l.123.502h.033a1.49 1.49 0 0 1 .531-.433c.223-.112.479-.168.795-.168.225 0 .422.026.592.078a.899.899 0 0 1 .426.276c.111.131.197.309.254.531.063.223.088.504.088.844v2.488h-.653v.002zm4.672-.272a1.784 1.784 0 0 1-.584.276 2.648 2.648 0 0 1-.709.095c-.318 0-.59-.051-.813-.152a1.4 1.4 0 0 1-.541-.437 1.987 1.987 0 0 1-.305-.684 3.854 3.854 0 0 1-.094-.886c0-.697.147-1.231.461-1.602.309-.371.75-.556 1.326-.556.264 0 .481.021.672.062.184.041.35.1.498.177l-.189.568c-.127-.071-.266-.128-.42-.169s-.318-.063-.494-.063c-.774 0-1.17.527-1.17 1.582 0 .209.021.408.063.598.041.189.104.357.205.502.098.146.223.262.381.35.149.088.35.132.58.132.19 0 .375-.03.524-.091.156-.061.283-.129.387-.206l.222.504zm.84-3.542c.209-.126.451-.22.729-.28.277-.061.566-.091.869-.091.285 0 .521.039.688.115a.955.955 0 0 1 .396.301c.09.124.15.259.185.408.027.149.049.296.049.445 0 .33-.017.651-.025.964-.016.313-.021.609-.021.89 0 .203.01.396.021.577.018.181.047.349.09.502h-.479l-.174-.577h-.041c-.056.077-.109.152-.188.227-.076.075-.164.14-.27.198a1.8 1.8 0 0 1-.361.144 1.77 1.77 0 0 1-.471.058 1.35 1.35 0 0 1-.488-.083 1.204 1.204 0 0 1-.394-.235 1.262 1.262 0 0 1-.264-.366 1.194 1.194 0 0 1-.096-.486c0-.241.051-.443.146-.605.104-.162.236-.291.414-.387.185-.096.396-.165.646-.206.25-.042.521-.062.828-.062h.227c.081 0 .148.006.229.017.016-.165.021-.313.021-.445 0-.302-.061-.513-.182-.634s-.342-.181-.66-.181a2.36 2.36 0 0 0-.301.021 3.457 3.457 0 0 0-.65.153c-.1.036-.188.078-.268.123l-.205-.505zm1.17 3.303a1.222 1.222 0 0 0 .725-.219 1.05 1.05 0 0 0 .224-.21.824.824 0 0 0 .129-.223v-.682a8.309 8.309 0 0 0-.463-.016c-.173 0-.338.01-.498.029-.162.02-.31.055-.433.107a.747.747 0 0 0-.297.214.522.522 0 0 0-.106.342c0 .192.063.35.201.474.127.123.303.184.518.184zm5.248-5.198c.209-.038.449-.068.721-.091.271-.021.521-.033.744-.033a3 3 0 0 1 .721.083c.23.055.437.146.604.271.174.126.313.292.416.495.103.203.154.45.154.741 0 .45-.123.815-.367 1.096-.248.28-.563.467-.939.56l.396.305 1.434 2.282h-.799l-1.59-2.488-.813-.124v2.611h-.684l.002-5.708zm1.481.47h-.221c-.078 0-.147.002-.223.008l-.203.016a.886.886 0 0 0-.152.025v2.125h.646c.379 0 .688-.093.938-.28s.371-.478.371-.873a.965.965 0 0 0-.305-.733c-.205-.192-.488-.288-.851-.288zm3.205 1.425c.209-.126.451-.22.73-.28.271-.061.563-.091.867-.091.285 0 .516.039.688.115.174.077.31.177.396.301s.146.259.182.408c.031.149.045.296.045.445 0 .33-.008.651-.021.964-.021.313-.021.609-.021.89 0 .203.008.396.021.577.018.181.049.349.094.502h-.488l-.174-.577h-.041a1.27 1.27 0 0 1-.188.227.995.995 0 0 1-.271.198 1.849 1.849 0 0 1-.361.144c-.139.038-.295.058-.471.058s-.338-.027-.49-.083c-.146-.055-.276-.133-.391-.235s-.195-.224-.26-.366a1.195 1.195 0 0 1-.101-.486c0-.241.054-.443.148-.605.098-.162.233-.291.416-.387.178-.096.393-.165.643-.206.248-.042.525-.062.826-.062h.229c.069 0 .146.006.227.017.021-.165.025-.313.025-.445 0-.302-.063-.513-.188-.634s-.34-.181-.654-.181c-.098 0-.19.007-.305.021a2.86 2.86 0 0 0-.643.153 1.63 1.63 0 0 0-.271.123l-.198-.505zm1.17 3.303c.152 0 .291-.021.412-.062a1.19 1.19 0 0 0 .313-.157.977.977 0 0 0 .219-.21.683.683 0 0 0 .127-.223v-.682a9.013 9.013 0 0 0-.461-.016c-.17 0-.336.01-.498.029-.162.02-.305.055-.428.107a.727.727 0 0 0-.299.214.535.535 0 0 0-.109.342c0 .192.066.35.205.474.128.123.304.184.519.184zm3.121-3.608h.66v4.119h-.66v-4.119zm1.779 3.542l1.904-2.62.346-.346h-2.25v-.577h2.938v.577l-1.912 2.644-.338.321h2.25v.577h-2.938v-.576zm-90.23-.894l.193.874h.013l.214-.89 1.395-3.946h.688l-2.188 5.857h-.305l-2.229-5.857h.75l1.469 3.962zm5.643 1.475a1.852 1.852 0 0 1-.622.313c-.25.077-.515.115-.795.115a2.02 2.02 0 0 1-.815-.152 1.408 1.408 0 0 1-.563-.437 1.866 1.866 0 0 1-.329-.68 3.42 3.42 0 0 1-.107-.89c0-.703.157-1.238.475-1.606.313-.368.763-.552 1.345-.552.188 0 .373.021.563.062.188.041.354.12.502.235.146.115.271.279.359.49.096.211.146.49.146.836 0 .181-.021.382-.055.601h-2.645c0 .242.021.456.072.643s.127.345.229.474a.997.997 0 0 0 .407.297c.167.068.372.103.611.103.188 0 .374-.033.563-.099a1.19 1.19 0 0 0 .42-.23l.239.477zm-1.417-3.312c-.323 0-.583.085-.778.255-.188.17-.312.461-.35.874h2.043c0-.417-.08-.71-.239-.877s-.385-.252-.676-.252zm5.24 3.641V41.49c0-.214-.02-.402-.037-.563a1.024 1.024 0 0 0-.138-.403.605.605 0 0 0-.271-.243 1.003 1.003 0 0 0-.438-.083c-.264 0-.49.084-.698.251a1.09 1.09 0 0 0-.404.646v2.743h-.659v-5.766h.659v2.109h.033c.143-.17.313-.306.515-.408s.449-.152.746-.152c.23 0 .436.026.604.078a.902.902 0 0 1 .427.276c.105.132.188.309.247.531.052.223.076.504.076.844v2.488h-.662zm2.002-4.118h.657v4.119h-.657V39.72zm4.876 3.846a1.8 1.8 0 0 1-.585.276 2.635 2.635 0 0 1-.708.095 1.97 1.97 0 0 1-.813-.152 1.397 1.397 0 0 1-.54-.437 1.95 1.95 0 0 1-.305-.684 3.852 3.852 0 0 1-.095-.886c0-.697.147-1.231.462-1.602.308-.371.749-.556 1.326-.556.264 0 .48.021.671.062.184.041.351.1.498.177l-.189.568a1.904 1.904 0 0 0-.914-.232c-.774 0-1.17.527-1.17 1.582 0 .209.021.408.063.598.041.189.104.357.206.502.096.146.222.262.379.35.149.088.35.132.58.132.191 0 .375-.03.524-.091.157-.061.284-.129.386-.206l.224.504zm1.499-3.846v2.348c0 .214.012.402.037.564.021.162.063.296.128.403.06.107.143.188.247.243a.822.822 0 0 0 .395.083c.148 0 .28-.023.396-.07.11-.046.221-.111.312-.193.09-.083.17-.177.238-.284.063-.107.125-.221.169-.342V39.72h.659v2.949c0 .198.007.402.021.614.019.212.037.397.07.556h-.453l-.165-.651h-.041a1.643 1.643 0 0 1-.511.536c-.215.143-.486.214-.815.214-.22 0-.413-.026-.581-.078a.886.886 0 0 1-.42-.276 1.477 1.477 0 0 1-.255-.531 3.424 3.424 0 0 1-.087-.844V39.72h.656zm4.579 3.105c0 .192.026.33.099.412.064.083.159.124.28.124.064 0 .146-.006.229-.017.083-.011.179-.036.28-.074l.074.519c-.088.044-.21.08-.366.107a2.46 2.46 0 0 1-.408.041c-.247 0-.45-.07-.604-.21-.157-.14-.237-.377-.237-.712v-4.942h.659l-.006 4.752zm1.441-1.046c0-.697.155-1.231.466-1.602.313-.371.761-.556 1.344-.556.309 0 .57.051.805.152.228.101.416.247.563.437.146.19.261.417.327.684.071.267.107.562.107.885 0 .698-.155 1.232-.466 1.603-.313.371-.758.556-1.34.556-.313 0-.574-.051-.809-.152a1.434 1.434 0 0 1-.563-.437 1.787 1.787 0 0 1-.329-.684 3.535 3.535 0 0 1-.105-.886zm.684 0c0 .209.021.409.063.602.041.192.105.36.193.502.088.142.203.258.346.346a.979.979 0 0 0 .521.132c.746.005 1.115-.522 1.115-1.582 0-.214-.021-.417-.063-.609-.041-.192-.105-.359-.193-.502s-.203-.257-.346-.342a1.006 1.006 0 0 0-.521-.128c-.742-.006-1.115.521-1.115 1.581zm5.774.939a.511.511 0 0 0-.146-.387 1.453 1.453 0 0 0-.366-.235 5.9 5.9 0 0 0-.479-.181 2.272 2.272 0 0 1-.478-.223 1.19 1.19 0 0 1-.367-.35c-.099-.145-.146-.334-.146-.577 0-.395.108-.685.34-.869.226-.184.538-.276.938-.276.296 0 .545.026.745.078.2.052.375.114.523.188l-.157.544a2.388 2.388 0 0 0-.457-.161 2.236 2.236 0 0 0-.572-.07c-.237 0-.419.042-.526.124-.11.083-.171.226-.171.429 0 .143.052.254.146.333s.221.151.366.214.305.125.479.185c.176.061.332.14.479.239.146.099.268.224.364.375.1.151.146.35.146.597 0 .176-.029.341-.087.494a.993.993 0 0 1-.271.396c-.117.11-.271.196-.443.259a1.963 1.963 0 0 1-.633.095 3.15 3.15 0 0 1-.804-.09 2.731 2.731 0 0 1-.552-.214l.197-.562c.127.071.291.137.494.198s.407.091.616.091c.231 0 .434-.047.587-.14.156-.094.235-.262.235-.504zm-18.133-4.825h.694v.164l-.787.998h-.367l.46-1.162zm76.98-.125h.688v.164l-.787.998h-.362l.461-1.162z" fill="#FFF"/><g fill="#FFF"><path d="M36.277 92.273v-3.18h-9.895v3.18h-7.42v16.252h24.73V92.273h-7.415zm-9.119-2.404h8.409v2.404h-8.409v-2.404zM42.99 92.98v4.593h-8.835v-1.021c0-.139-.396-.463-.547-.463h-4.695c-.152 0-.409.324-.409.463v1.021H19.67V92.98h23.32zm-9.542 3.95v1.99c0 .102-.008.066-.119.066h-3.717c-.11 0-.402.033-.402-.066v-1.99c0-.1.292-.063.402-.063h3.717c.113 0 .119-.037.119.063zM19.67 107.818v-9.539h8.833v1.016c0 .141.257.396.409.396h5.115c.151 0 .126-.258.126-.396v-1.016h8.834v9.539H19.67zm59.614 1.465h-2.042a1.428 1.428 0 0 1-1.358-.982.365.365 0 0 1 .068-.342.352.352 0 0 1 .328-.119c1.242.214 3.314.551 3.593.551h.001c.271 0 .408.188.408.363 0 .49-.988.529-.998.529zm21.22 0h-2.041c-.01 0-.986-.121-.986-.602 0-.195.191-.369.396-.369.298 0 2.369-.314 3.604-.515a.34.34 0 0 1 .323.119.357.357 0 0 1 .066.342c-.198.603-.757 1.025-1.362 1.025z"/><path d="M81.298 109.203c-.008 0-.015 0-.021-.002-2.325-.137-6.28-.518-6.628-1.559a.361.361 0 0 1 .003-.232l.336-.912c-.188-.662-1.021-3.92-.378-7.412.014-.1.403-2.877 3.502-4.547.018-.009.034-.018.053-.025h-1.138c-.248-.02-.688-.182-.765-.668a.348.348 0 0 1 .142-.342l.646-.475a.375.375 0 0 1 .211-.068h1.701c.125 0 .238.064.305.166l2.854-3.82a.348.348 0 0 1 .283-.143h12.138c.107 0 .21.049.276.133l3.271 4.119a.355.355 0 0 1 .294-.156h1.854c.048 0 .095.01.138.027.332.141.879.441.836.896-.038.412-.563.717-.787.83a.403.403 0 0 1-.152.037l-.772.007c.042.025.087.055.133.084.758.473 3.229 2.207 3.363 4.695.013.137.328 3.676-.197 6.736l.153 1.018a.356.356 0 0 1-.08.281c-.143.168-1.121 1.018-6.407 1.227a.27.27 0 0 1-.121-.016l-1.586-.496-11.439.055-1.914.551c-.04.005-.074.011-.107.011zm-5.917-1.719c.472.387 3.053.836 5.877 1.005l1.904-.548a.37.37 0 0 1 .096-.014l11.557-.054c.035 0 .066.004.104.017l1.579.491c3.98-.163 5.339-.7 5.721-.907l-.128-.855a.33.33 0 0 1 .001-.113c.521-2.979.2-6.584.197-6.62-.122-2.216-2.546-3.843-3.032-4.146-.867-.545-1.087-.743-1.133-.791a.352.352 0 0 1 .029-.516.33.33 0 0 1-.188-.102l-.201-.207-3.385-4.254h-11.79l-2.965 3.961a.345.345 0 0 1-.183.129l-.152.045c.029.063.04.135.029.205-.091.6-.813.93-.896.965-2.753 1.486-3.104 3.994-3.105 4.021-.683 3.673.379 7.177.392 7.211a.374.374 0 0 1-.006.229l-.322.848zM98.448 94.35h.345l1.382-.01c.106-.063.219-.137.28-.195a1.785 1.785 0 0 0-.293-.177h-1.529l-.09.241a.37.37 0 0 1-.095.141zm-21.071-.68l-.185.135h1.479l-.008-.041-.013-.094h-1.273z"/><path d="M97.115 95.198h-.005l-17.08-.202a.355.355 0 0 1-.282-.562l2.983-4.084a.347.347 0 0 1 .287-.146h10.885c.109 0 .218.053.283.144l3.17 4.231a.355.355 0 0 1-.234.621l-.007-.002zm-16.387-.903l15.672.185-2.672-3.568H83.2l-2.472 3.383zm.149 7.789c-.015 0-.027-.002-.045-.004l-4.433-.582-.545.129a.379.379 0 0 1-.31-.068l-.533-.432a.354.354 0 0 1-.12-.359l.566-2.346a.352.352 0 0 1 .167-.224.348.348 0 0 1 .275-.034l4.765 1.379a.358.358 0 0 1 .252.283l.309 1.844a.353.353 0 0 1-.1.307.33.33 0 0 1-.248.107zm-4.495-1.301c.021 0 .031.002.05.004l4.021.527-.188-1.15-4.189-1.215-.436 1.766.229.182.438-.104a.296.296 0 0 1 .075-.01zm20.561 1.301a.352.352 0 0 1-.256-.107.387.387 0 0 1-.101-.307l.31-1.844a.35.35 0 0 1 .25-.283l4.649-1.377a.354.354 0 0 1 .446.256l.571 2.346a.368.368 0 0 1-.121.359l-.539.432a.351.351 0 0 1-.303.068l-.545-.129-4.322.582c-.009.004-.025.004-.039.004zm.618-1.922l-.189 1.15 3.912-.525a.34.34 0 0 1 .127.006l.439.104.229-.181-.433-1.764-4.085 1.21zm-16.432 8.19c-.014 0-.021 0-.039-.002-5.289-.576-5.545-1.051-5.629-1.205-.016-.026-.021-.057-.029-.086-.012-.035-.203-.867-.438-2.891a.355.355 0 0 1 .461-.377l5.122 1.646c.061.02.112.055.153.102l1.521 1.684a.36.36 0 0 1 .088.287.348.348 0 0 1-.164.252l-.854.537a.384.384 0 0 1-.192.053zm-5.036-1.571c.483.24 2.86.617 4.95.85l.396-.248-1.176-1.299-4.51-1.448c.161 1.218.29 1.895.34 2.145zm20.526 1.571a.343.343 0 0 1-.188-.055l-.855-.537a.353.353 0 0 1-.075-.537l1.521-1.686a.409.409 0 0 1 .148-.1l5.123-1.648a.354.354 0 0 1 .333.063.334.334 0 0 1 .127.315c-.229 2.021-.431 2.854-.438 2.89a.616.616 0 0 1-.033.086c-.084.153-.34.629-5.628 1.205a.096.096 0 0 1-.035.004zm-.313-.969l.396.248c2.089-.23 4.467-.607 4.948-.849.053-.25.182-.931.333-2.146l-4.504 1.449-1.173 1.298z"/><path d="M94.238 108.209l-10.71-.037a.347.347 0 0 1-.216-.074l-.88-.682a.402.402 0 0 1-.136-.221l-1.197-7.057a.367.367 0 0 1 .158-.361l1.008-.625c.06-.035.113-.062.188-.055l13.195.036c.083 0 .163.029.229.082l.857.718c.1.082.146.211.122.338l-1.359 7.27a.358.358 0 0 1-.214.264l-.914.377a.341.341 0 0 1-.131.027zm-10.586-.746l10.518.035.67-.275 1.286-6.875-.602-.502-12.97-.035-.719.445 1.143 6.686.674.521zm124.419 4.271l-11.168-5.898V92.592l4.041-1.856.39.858-3.431 1.599v12.077l10.16 5.387 9.84-5.386V93.623l-2.543-1.428.504-.822 3.039 1.697v12.762zm3.414-21.806l-1.233-.711.355-.616 1.233.711zm-6.307-.209l-.316-.637 1.305-.648.316.636z"/><path d="M208.233 99.422l-10.727-6.223.358-.613 10.373 6.018 9.738-5.543.353.615z"/><path d="M207.903 98.563h1v13h-1zm-4.711-7.567c-1.313 0-2.293-.498-2.293-1.16 0-.66.98-1.158 2.293-1.158 1.308 0 2.295.498 2.295 1.158 0 .662-.989 1.16-2.295 1.16zm0-1.896c-1.063 0-1.852.391-1.852.736 0 .348.789.737 1.852.737 1.058 0 1.847-.39 1.847-.737-.002-.348-.791-.736-1.847-.736zm2.275 3.757c0 .66-.99 1.158-2.285 1.158-1.301 0-2.271-.5-2.271-1.16h.44c0 .35.779.736 1.83.736 1.047 0 1.824-.39 1.824-.736l.462.002z"/><path d="M205.006 89.949h.473v2.914h-.473zm-4.101-.047h.437v2.961h-.437zm12.519 1.375c-1.307 0-2.295-.5-2.295-1.158 0-.66.988-1.16 2.295-1.16 1.313 0 2.297.5 2.297 1.16-.003.658-.988 1.158-2.297 1.158zm0-1.896c-1.057 0-1.846.391-1.846.736 0 .348.789.736 1.846.736 1.061 0 1.852-.39 1.852-.736-.006-.346-.795-.736-1.852-.736zm2.275 3.758c0 .66-.992 1.158-2.289 1.158-1.295 0-2.271-.498-2.271-1.158h.439c0 .348.782.736 1.827.736 1.048 0 1.83-.391 1.83-.736h.464z"/><path d="M215.239 90.23h.47v2.914h-.47zm-4.102-.044h.438v2.961h-.438zm-2.758 4.064c-1.31 0-2.295-.5-2.295-1.16 0-.658.985-1.158 2.295-1.158 1.313 0 2.293.5 2.293 1.158 0 .66-.986 1.16-2.293 1.16zm0-1.896c-1.058 0-1.849.39-1.849.736 0 .35.791.738 1.849.738 1.061 0 1.85-.391 1.85-.738-.004-.348-.795-.736-1.85-.736zm2.274 3.755c0 .66-.991 1.158-2.286 1.158-1.298 0-2.273-.498-2.273-1.158h.443c0 .348.782.736 1.83.736 1.047 0 1.827-.39 1.827-.736h.459z"/><path d="M210.192 93.203h.47v2.914h-.47zm-4.1-.047h.438v2.961h-.438zm2.287-4.638c-1.31 0-2.295-.498-2.295-1.158 0-.661.985-1.159 2.295-1.159 1.313 0 2.293.498 2.293 1.159 0 .66-.986 1.158-2.293 1.158zm0-1.897c-1.058 0-1.849.391-1.849.736 0 .35.791.737 1.849.737 1.061 0 1.85-.389 1.85-.737-.006-.346-.795-.736-1.85-.736zm2.274 3.758c0 .66-.991 1.158-2.286 1.158-1.298 0-2.273-.498-2.273-1.16h.443c0 .35.782.737 1.83.737 1.047 0 1.827-.39 1.827-.737l.459.002z"/><path d="M210.192 87.473h.47v2.913h-.47zm-4.1-.049h.438v2.961h-.438zM18.223 113.968h3.141v.608H18.91v1.887h2.249v.609H18.91v2.051h2.494v.609h-3.181v-5.764zm6.764 5.764v-2.33c0-.221-.012-.41-.028-.572a1.367 1.367 0 0 0-.106-.408.648.648 0 0 0-.232-.248.842.842 0 0 0-.399-.082.893.893 0 0 0-.63.23 1.255 1.255 0 0 0-.352.576v2.834h-.659v-4.119h.462l.123.502h.032a1.83 1.83 0 0 1 .516-.434c.195-.111.449-.168.767-.168.266 0 .479.051.646.151.167.103.298.278.393.53a1.38 1.38 0 0 1 .521-.502c.223-.12.474-.18.754-.18.229 0 .425.025.585.076a.832.832 0 0 1 .396.277c.104.131.184.31.229.535.047.225.069.51.069.854v2.473h-.668v-2.479c0-.197-.012-.369-.027-.516a.965.965 0 0 0-.115-.361.547.547 0 0 0-.233-.215.96.96 0 0 0-.398-.07c-.271 0-.487.078-.644.23-.153.154-.27.375-.328.66v2.75h-.662v.002h-.01v.004zm4.272-4.117h.453l.124.494h.033c.126-.191.289-.34.489-.439.2-.104.43-.152.688-.152.553 0 .958.162 1.229.486.27.324.397.854.397 1.59 0 .346-.045.658-.136.938a2.09 2.09 0 0 1-.384.704 1.68 1.68 0 0 1-.598.445 1.893 1.893 0 0 1-.778.154c-.202 0-.363-.012-.48-.037a2.039 2.039 0 0 1-.384-.127v1.713h-.659l.006-5.769zm1.664.478c-.273 0-.501.073-.663.22-.158.146-.271.365-.342.662v2.043c.104.076.212.135.338.176s.294.063.503.063c.383 0 .686-.143.901-.424.223-.283.334-.699.334-1.248 0-.226-.021-.431-.059-.614-.039-.185-.104-.341-.188-.47s-.191-.229-.329-.301a1.028 1.028 0 0 0-.495-.107zm3.526 2.628c0 .191.032.33.099.412a.337.337 0 0 0 .28.123c.07 0 .147-.006.229-.017.083-.011.178-.036.276-.073l.073.52a1.33 1.33 0 0 1-.365.105 2.418 2.418 0 0 1-.404.041c-.247 0-.448-.068-.607-.209-.158-.141-.238-.377-.238-.713v-4.941h.659l-.002 4.752zm4.679.683a1.834 1.834 0 0 1-.622.313c-.25.077-.515.114-.795.114a2.02 2.02 0 0 1-.813-.151 1.449 1.449 0 0 1-.567-.437 1.887 1.887 0 0 1-.329-.681 3.62 3.62 0 0 1-.104-.891c0-.703.152-1.238.472-1.605.313-.368.761-.553 1.343-.553.188 0 .373.021.563.063.188.041.354.118.503.233.146.115.271.279.358.49.097.211.145.49.145.836 0 .182-.021.383-.052.602h-2.646c0 .242.024.455.073.644.051.187.128.345.229.474a.988.988 0 0 0 .407.297c.167.068.372.104.612.104.188 0 .374-.031.562-.098s.327-.145.422-.23l.239.476zm-1.417-3.311c-.319 0-.583.085-.774.255s-.313.461-.354.875h2.043c0-.418-.08-.711-.235-.878-.16-.167-.389-.252-.68-.252zm2.276 1.581c0-.695.153-1.23.467-1.602.313-.371.756-.557 1.339-.557.311 0 .575.051.807.151.229.103.414.248.563.438.146.188.258.416.329.684.068.268.104.563.104.885 0 .699-.149 1.232-.466 1.604-.312.371-.756.558-1.338.558a2.01 2.01 0 0 1-.805-.151 1.447 1.447 0 0 1-.563-.438 1.891 1.891 0 0 1-.329-.685 3.411 3.411 0 0 1-.108-.887zm.682 0c0 .209.021.41.063.604.041.191.104.359.188.502.092.144.203.259.352.347a.969.969 0 0 0 .521.131c.746.007 1.12-.521 1.12-1.582 0-.213-.021-.416-.063-.608a1.654 1.654 0 0 0-.19-.502.997.997 0 0 0-.347-.342 1.013 1.013 0 0 0-.521-.128c-.749-.008-1.123.518-1.123 1.578zm160.052.256l.195.875h.008l.217-.891 1.396-3.946h.688l-2.186 5.856h-.306l-2.229-5.856h.75l1.467 3.962zm2.637-2.01c.209-.127.449-.221.729-.279.276-.063.565-.092.869-.092.285 0 .52.039.688.115a.932.932 0 0 1 .396.301c.09.123.149.26.182.408.03.148.049.295.049.443 0 .33-.014.651-.022.965-.019.313-.022.609-.022.891 0 .203.009.396.022.576.014.182.047.35.09.502h-.482l-.174-.576h-.041a1.262 1.262 0 0 1-.459.426 1.861 1.861 0 0 1-.361.144 1.768 1.768 0 0 1-.471.059 1.322 1.322 0 0 1-.884-.317 1.342 1.342 0 0 1-.26-.365 1.208 1.208 0 0 1-.097-.486c0-.24.052-.443.146-.605.104-.161.238-.291.416-.387.184-.096.396-.164.646-.205.25-.043.521-.063.828-.063h.228c.082 0 .147.006.229.018.019-.166.021-.313.021-.445 0-.303-.062-.514-.183-.635s-.344-.182-.659-.182a2.889 2.889 0 0 0-.63.082 2.576 2.576 0 0 0-.321.093c-.1.036-.188.077-.269.122l-.204-.508zm1.17 3.305c.152 0 .291-.021.412-.063.121-.043.226-.096.313-.158s.162-.133.223-.209a.697.697 0 0 0 .127-.225v-.686a13.356 13.356 0 0 0-.231-.013c-.08-.002-.158-.004-.233-.004-.171 0-.337.01-.497.028a1.68 1.68 0 0 0-.43.107.74.74 0 0 0-.297.214.523.523 0 0 0-.11.343.61.61 0 0 0 .204.474c.128.129.304.192.519.192zm4.925-2.975a1.424 1.424 0 0 0-.47-.084c-.235 0-.424.064-.563.193a.844.844 0 0 0-.256.49v2.883h-.658v-4.118h.461l.123.503h.033a1.26 1.26 0 0 1 .375-.434c.146-.103.332-.152.561-.152.154 0 .34.027.531.083l-.137.636zm.858-1.887c0-.127.043-.234.127-.326a.422.422 0 0 1 .324-.137c.133 0 .24.045.338.137.096.092.144.199.144.326s-.048.229-.144.313a.497.497 0 0 1-.338.124.436.436 0 0 1-.324-.124.42.42 0 0 1-.127-.313zm.14 1.252h.657v4.119h-.657v-4.119zm1.836 2.059c0-.695.153-1.23.465-1.602.313-.371.756-.557 1.34-.557.313 0 .574.051.809.151.228.103.416.248.563.438.147.188.26.416.328.684.071.268.106.563.106.885 0 .699-.153 1.232-.467 1.604-.313.371-.76.558-1.342.558-.31 0-.572-.052-.805-.151a1.447 1.447 0 0 1-.563-.438 1.78 1.78 0 0 1-.326-.685 3.411 3.411 0 0 1-.108-.887zm.681 0c0 .209.021.41.064.604.04.191.104.359.19.502a.969.969 0 0 0 .869.478c.746.007 1.119-.521 1.119-1.582 0-.213-.021-.416-.063-.608a1.605 1.605 0 0 0-.192-.502.997.997 0 0 0-.347-.342 1.01 1.01 0 0 0-.521-.128c-.744-.008-1.119.518-1.119 1.578zm5.776.939a.513.513 0 0 0-.146-.387 1.324 1.324 0 0 0-.363-.234 6.518 6.518 0 0 0-.479-.182 2.35 2.35 0 0 1-.478-.224 1.168 1.168 0 0 1-.366-.351c-.103-.146-.146-.334-.146-.577 0-.396.109-.685.338-.869.228-.185.537-.274.938-.274.295 0 .545.024.744.077.2.052.375.113.521.185l-.154.545a2.416 2.416 0 0 0-.457-.16 2.195 2.195 0 0 0-.571-.07c-.242 0-.42.041-.531.123-.109.084-.17.227-.17.43a.42.42 0 0 0 .147.334c.095.078.222.15.365.213.146.063.308.125.479.187.174.062.332.14.479.238.146.1.271.225.361.375.104.151.147.35.147.598 0 .177-.028.341-.086.494a1.039 1.039 0 0 1-.271.396c-.121.11-.271.196-.445.26a1.936 1.936 0 0 1-.635.096c-.313 0-.574-.029-.799-.09a2.802 2.802 0 0 1-.552-.215l.197-.561c.127.071.291.137.492.198.199.062.404.09.613.09.235 0 .438-.047.586-.139.164-.096.242-.264.242-.506zm-70.347-5.66a4.778 4.778 0 0 1-4.768-4.771c0-1.18.459-2.293 1.268-3.168h-6.063V96.99l-.438.445-1.285-1.961 11.479-8.461 11.479 8.51-1.748 1.813-1.131-.674v8.047l-5.52.088c.938.904 1.479 2.113 1.479 3.391a4.758 4.758 0 0 1-4.752 4.765zm-2.287-7.941c-1.039.775-1.657 1.934-1.657 3.168 0 2.182 1.771 3.959 3.944 3.959s3.939-1.771 3.939-3.955c0-1.346-.732-2.6-1.953-3.369l-.428.008-.004-.25-.246-.123.073-.504.828-.991-1.153-.002v-9.392l-.89-.901-1.278 1.293v.643l.764 1.117-1.318 1.291v.326l1.318 1.36-1.07 1.237.685.651v2.188h-1.429l.759 1.168.084.514-.271.136c-.229.112-.438.24-.637.381v.05l-.06-.003zm-6.461-.817h6.201c.074-.053.154-.104.236-.152l-.752-1.158c-.104-.168-.176-.426-.054-.648.06-.106.21-.287.554-.287h1.012v-1.021l-.996-.949 1.098-1.26-1.032-1.063v-1.002l1.08-1.053-.521-.757v-1.229l2.101-2.115 1.702 1.727v8.908h.64c.235.008.521.109.643.375.109.248.045.529-.205.836l-.535.646 5.563-.09v-8.68l1.813 1.078.651-.679-10.243-7.599-10.375 7.646.308.466 1.127-1.149-.016 9.209z"/><path d="M148.479 112.086a1.48 1.48 0 0 1-1.479-1.477 1.48 1.48 0 0 1 1.479-1.479c.813 0 1.478.664 1.478 1.479a1.48 1.48 0 0 1-1.478 1.477zm0-2.342a.865.865 0 0 0 0 1.732c.479 0 .859-.39.859-.867a.858.858 0 0 0-.859-.865zm-14.922 4.558h3.142v.608h-2.455v1.969h2.289v.61h-2.289v2.577h-.687v-5.764zm4.193.393a.46.46 0 0 1 .127-.324.426.426 0 0 1 .326-.137c.131 0 .243.045.338.137.094.09.145.197.145.324a.395.395 0 0 1-.145.313.494.494 0 0 1-.338.123.445.445 0 0 1-.326-.123.416.416 0 0 1-.127-.313zm.139 1.253h.656v4.118h-.656v-4.118zm4.711 4.118v-2.348c0-.429-.063-.751-.188-.968-.123-.217-.351-.326-.681-.326-.291 0-.53.078-.727.234a1.284 1.284 0 0 0-.396.59v2.815h-.659v-4.119h.463l.123.503h.032c.132-.177.31-.32.531-.433.222-.113.48-.168.795-.168.226 0 .422.025.592.077a.902.902 0 0 1 .427.276c.11.131.196.309.254.529.063.225.088.504.088.846v2.486h-.654v.006zm4.672-.271a1.753 1.753 0 0 1-.584.275 2.649 2.649 0 0 1-.709.096c-.317 0-.59-.051-.813-.15a1.404 1.404 0 0 1-.541-.438 1.971 1.971 0 0 1-.306-.686 3.86 3.86 0 0 1-.094-.886c0-.696.148-1.231.461-1.603.31-.37.75-.557 1.326-.557.264 0 .482.021.672.063.185.041.351.1.498.176l-.188.568a1.872 1.872 0 0 0-.914-.232c-.775 0-1.17.527-1.17 1.582 0 .209.021.408.063.599.041.188.104.356.205.502.098.146.223.264.381.352.15.088.351.131.58.131.191 0 .375-.029.525-.09.155-.063.282-.129.387-.207l.221.505zm.84-3.541c.209-.127.451-.221.729-.279.277-.063.566-.092.869-.092.285 0 .52.039.688.115a.932.932 0 0 1 .396.301c.09.123.149.26.184.408.028.148.049.295.049.443 0 .33-.016.651-.024.965a16.27 16.27 0 0 0-.021.891c0 .203.011.396.021.576.017.182.047.35.09.502h-.48l-.174-.576h-.041c-.055.076-.108.152-.188.227a1.125 1.125 0 0 1-.271.199 1.877 1.877 0 0 1-.36.144c-.14.038-.293.059-.472.059a1.32 1.32 0 0 1-.882-.317 1.316 1.316 0 0 1-.263-.365 1.208 1.208 0 0 1-.096-.486c0-.24.051-.443.146-.605.104-.161.237-.291.415-.387.184-.096.396-.164.646-.205.25-.043.521-.063.827-.063h.228c.082 0 .147.006.229.018a4.29 4.29 0 0 0 .021-.445c0-.303-.062-.514-.183-.635-.12-.121-.342-.182-.659-.182a2.914 2.914 0 0 0-.629.082 2.476 2.476 0 0 0-.322.094 1.675 1.675 0 0 0-.269.121l-.204-.508zm1.169 3.303a1.251 1.251 0 0 0 .725-.219c.09-.063.162-.133.223-.211a.749.749 0 0 0 .129-.223v-.682a4.249 4.249 0 0 0-.233-.013c-.08-.004-.158-.004-.23-.004-.173 0-.338.01-.498.028a1.81 1.81 0 0 0-.432.105.758.758 0 0 0-.297.215.524.524 0 0 0-.107.342c0 .191.064.351.201.476.129.125.305.186.519.186zm5.249-5.2c.209-.037.449-.066.722-.09.271-.021.521-.033.744-.033.254 0 .493.026.721.082.229.057.436.146.604.271.175.127.313.293.416.496.104.203.154.449.154.74 0 .449-.123.814-.367 1.096a1.794 1.794 0 0 1-.938.561l.396.306 1.435 2.282h-.799l-1.591-2.487-.813-.125v2.61h-.685l.001-5.709zm1.48.471h-.221c-.078 0-.148.002-.224.008l-.203.018a1.374 1.374 0 0 0-.151.023v2.125h.646c.379 0 .688-.092.938-.279.25-.187.371-.479.371-.873a.958.958 0 0 0-.306-.731c-.204-.195-.487-.291-.85-.291zm3.205 1.426c.209-.127.451-.221.729-.279.271-.063.563-.092.867-.092.285 0 .517.039.688.115a.914.914 0 0 1 .396.301c.088.123.146.26.183.408.03.148.045.295.045.443 0 .33-.008.651-.021.965-.02.313-.021.609-.021.891 0 .203.008.396.021.576a2.8 2.8 0 0 0 .094.502h-.487l-.174-.576h-.041c-.05.076-.111.152-.188.227a.966.966 0 0 1-.27.199 1.94 1.94 0 0 1-.361.144 1.779 1.779 0 0 1-.471.059c-.177 0-.338-.026-.49-.083a1.304 1.304 0 0 1-.392-.234 1.12 1.12 0 0 1-.26-.365 1.209 1.209 0 0 1-.1-.486c0-.24.053-.443.147-.605.099-.161.234-.291.416-.387.179-.096.394-.164.644-.205.248-.043.524-.063.826-.063h.229c.07 0 .146.006.228.018a3.45 3.45 0 0 0 .024-.445c0-.303-.063-.514-.188-.635s-.341-.182-.654-.182c-.098 0-.191.008-.305.021a3.05 3.05 0 0 0-.644.155c-.104.035-.19.076-.271.121l-.199-.508zm1.17 3.303a1.26 1.26 0 0 0 .725-.219.986.986 0 0 0 .22-.211.663.663 0 0 0 .127-.223v-.682a4.43 4.43 0 0 0-.23-.013c-.08-.004-.156-.004-.231-.004-.17 0-.336.01-.498.028a1.785 1.785 0 0 0-.429.105.738.738 0 0 0-.299.215.536.536 0 0 0-.108.342c0 .191.065.351.205.476.127.125.303.186.518.186zm3.121-3.609h.66v4.118h-.66v-4.118zm1.779 3.542l1.903-2.619.347-.348h-2.25v-.576h2.938v.576l-1.912 2.645-.338.321h2.25v.577h-2.938v-.576zm-90.229-.892l.194.873h.012l.214-.891 1.396-3.945h.688l-2.187 5.857h-.306l-2.229-5.857h.75l1.468 3.963zm5.642 1.472a1.819 1.819 0 0 1-.621.313c-.25.076-.516.115-.796.115-.313 0-.584-.052-.814-.151a1.419 1.419 0 0 1-.563-.438 1.854 1.854 0 0 1-.328-.681 3.427 3.427 0 0 1-.107-.891c0-.702.157-1.236.474-1.605.313-.366.764-.551 1.346-.551.188 0 .373.021.563.062.188.041.354.12.502.235.146.114.271.277.36.489.095.211.145.489.145.836 0 .181-.021.382-.054.601H78.16c0 .242.021.457.071.644.051.188.127.347.229.476a.985.985 0 0 0 .406.297c.167.068.372.104.611.104.188 0 .374-.033.563-.1.188-.067.327-.143.42-.229l.238.474zm-1.417-3.31c-.322 0-.583.085-.777.256-.188.17-.313.461-.351.873h2.043c0-.416-.079-.709-.238-.877-.16-.167-.385-.252-.677-.252zm5.241 3.64v-2.349a4.93 4.93 0 0 0-.037-.563.999.999 0 0 0-.138-.403.603.603 0 0 0-.271-.242 1.006 1.006 0 0 0-.438-.083c-.263 0-.49.084-.698.251-.209.168-.35.383-.403.646v2.742h-.659v-5.766h.659v2.109h.032c.144-.171.313-.307.516-.408.202-.104.449-.152.746-.152.229 0 .435.025.604.078a.915.915 0 0 1 .427.275c.106.133.188.311.247.531.053.223.076.504.076.844v2.488h-.663v.002zm2.002-4.118h.657v4.118h-.657v-4.118zm4.876 3.847a1.768 1.768 0 0 1-.585.275 2.636 2.636 0 0 1-.708.096 1.99 1.99 0 0 1-.813-.152 1.39 1.39 0 0 1-.54-.438 1.899 1.899 0 0 1-.305-.684 3.867 3.867 0 0 1-.096-.888c0-.696.148-1.229.462-1.603.309-.37.749-.555 1.326-.555.264 0 .481.021.671.062.185.041.352.101.498.178l-.188.567c-.126-.071-.267-.129-.42-.17s-.318-.063-.494-.063c-.775 0-1.17.527-1.17 1.582 0 .209.021.408.063.598.041.189.104.357.206.502.096.146.222.263.379.351.15.088.351.133.58.133.192 0 .375-.03.525-.092.156-.062.284-.129.386-.205l.223.506zm1.499-3.847v2.349c0 .214.013.401.037.563.021.162.063.297.128.404a.603.603 0 0 0 .247.241.811.811 0 0 0 .396.084c.147 0 .279-.022.396-.069.111-.047.222-.111.313-.193.09-.082.17-.178.237-.283.063-.107.125-.222.169-.342v-2.753h.659v2.948c0 .199.007.401.021.614.018.212.037.396.069.556h-.452l-.165-.65h-.041c-.126.215-.297.395-.512.537s-.485.213-.814.213c-.22 0-.413-.025-.581-.078a.886.886 0 0 1-.42-.275 1.44 1.44 0 0 1-.255-.53 3.39 3.39 0 0 1-.087-.845v-2.488l.655-.003zm4.579 3.107c0 .191.027.329.1.41.063.084.158.125.279.125.065 0 .146-.006.229-.018s.178-.035.28-.074l.073.52c-.088.045-.21.08-.365.107a2.71 2.71 0 0 1-.408.041c-.247 0-.45-.07-.605-.211-.157-.141-.236-.377-.236-.711v-4.942h.658l-.005 4.753zm1.44-1.047c0-.697.154-1.23.466-1.603.313-.37.76-.556 1.343-.556.31 0 .571.051.806.151.228.101.415.246.563.437.147.191.261.418.328.686.071.268.106.563.106.885 0 .697-.154 1.231-.466 1.604-.313.371-.758.556-1.34.556-.312 0-.574-.051-.808-.151a1.418 1.418 0 0 1-.563-.437 1.813 1.813 0 0 1-.329-.685 3.502 3.502 0 0 1-.106-.887zm.685 0c0 .209.021.408.063.602.041.192.104.361.192.502a.977.977 0 0 0 .868.48c.746.005 1.116-.522 1.116-1.582 0-.215-.021-.418-.063-.608a1.586 1.586 0 0 0-.192-.502.98.98 0 0 0-.347-.342.992.992 0 0 0-.521-.129c-.743-.009-1.116.518-1.116 1.579zm5.773.938a.515.515 0 0 0-.146-.388 1.407 1.407 0 0 0-.366-.234 6.74 6.74 0 0 0-.479-.182 2.251 2.251 0 0 1-.478-.224 1.182 1.182 0 0 1-.367-.351c-.1-.145-.146-.334-.146-.575 0-.396.109-.687.34-.869.227-.185.538-.276.938-.276.296 0 .545.026.745.078.2.053.375.114.522.188l-.156.544c-.126-.063-.278-.113-.457-.16s-.369-.07-.572-.07c-.238 0-.419.043-.527.124-.109.083-.171.226-.171.429 0 .144.052.254.146.334.094.078.221.15.365.213.146.063.306.125.479.187.175.062.332.14.479.238.146.1.269.225.364.375.101.151.146.351.146.598 0 .177-.029.341-.087.494a1.017 1.017 0 0 1-.271.396c-.117.11-.271.196-.443.26a1.954 1.954 0 0 1-.633.096c-.313 0-.577-.029-.803-.09a2.827 2.827 0 0 1-.552-.215l.196-.563c.127.071.291.137.494.198s.407.09.616.09c.232 0 .434-.047.587-.139.158-.097.237-.265.237-.506zm-18.133-4.825h.693v.164l-.787.998h-.366l.46-1.162zm76.981-.125h.688v.164l-.787.998h-.362l.461-1.162z"/></g><text transform="translate(247.348 44.164)" fill="#FFF" font-family="'PTSans-Regular'" font-size="7.619">Edictos</text><path fill="#B92025" d="M248.917 10.965l.13 25.027 20.321.396.05-18.54-5.576.26-.484-6.964z"/><g fill="none" stroke="#FFF" stroke-width=".992" stroke-miterlimit="10"><path d="M249.199 10.681a.286.286 0 0 0-.282.285l.13 25.027c0 .156.128.285.283.289l19.75.385a.285.285 0 0 0 .288-.277l.384-18.958a.738.738 0 0 0-.197-.479l-6.452-6.204a.8.8 0 0 0-.485-.193l-13.419.125z"/><path fill-rule="evenodd" clip-rule="evenodd" d="M263.559 11.909l.283 6.199 5.125-.829zm-11.477 9.724h13.983m-13.687 5.738h13.986m-13.885-2.573H262.9m-10.325 5.541h7.586"/></g><text transform="translate(247.347 119.58)" fill="#FFF" font-family="'PTSans-Regular'" font-size="7.619">Edictos</text><g fill="none" stroke="#FFF" stroke-width=".992" stroke-miterlimit="10"><path d="M249.198 86.097a.286.286 0 0 0-.282.285l.13 25.027c0 .155.128.285.283.288l19.75.385a.285.285 0 0 0 .288-.277l.384-18.958a.74.74 0 0 0-.197-.479l-6.452-6.204a.798.798 0 0 0-.485-.192l-13.419.125z"/><path fill-rule="evenodd" clip-rule="evenodd" d="M263.558 87.325l.283 6.199 5.125-.828zm-11.477 9.725h13.983m-13.687 5.737h13.986m-13.885-2.572h10.421m-10.325 5.54h7.586"/></g></svg>