<svg xmlns="http://www.w3.org/2000/svg" width="303.5" height="131" viewBox="0 0 303.5 131"><path fill="#B92025" d="M76.632 15.712v16.251H51.9V15.712h7.42v-3.18h9.894v3.18zm38.556-3.118l-2.984 3.97s-.099-.23-.808-.168l-1.292.021-.762.525s-.516.71.623 1.009h1.137s-1.894 1.049-2.373 2.132c0 0-1.458 1.458-1.417 5.354 0 0 .063 2.497.614 4.499 0 0-.447 1.001-.259 1.23 0 0 .313.438 1.167.708 0 0 .479 1.021 2.521.833 0 0 1.167.063 1.604-.188l1.273.119 2.019-.562 11.439-.054 1.586.495 1.308-.103s3.438 1.021 4.146-.563c0 0 1.255-.338 1.114-.932l-.109-.912s.703-6.338-.25-8.307c0 0-.722-1.717-3.048-3.21l.783-.056s1.094-.328.875-.969c0 0-.078-.563-1.047-.75s-.063-.016-.063-.016l-1.813.047-.146.104-3.418-4.198-.469-.047-11.951-.011zm74.459 6.51l.167 8.667-6.084.021s2.98 2.396 1.646 5.667c0 0-2.416 4.375-6.375 1.75 0 0-3.479-2.146-1.292-6.021l.771-1.208-6.291.042.125-8.75-1.042.958-.729-1.354 10.938-7.917 10.875 8.021-1.25 1.333-1.459-1.209zm51.791-9.354s-2.188.156-2.188 1.188l-.063 1.25-1.219.688s-1.5-1.156-3.531-.188c0 0-.563.313-.438 1.656l-.031.313-3.625 1.594V28.97l10.813 5.594 10.281-5.719-.313-11.875-.124-.032-2.703-1.303-.047-1.541.125-.531s-.438-1.125-2.473-.969l-1.402.469-1.125-.75-.063-1.656c.001-.001-.062-.657-1.874-.907z"/><path fill="#FFF" d="M69.214 15.712v-3.18H59.32v3.18H51.9v16.251h24.731V15.712h-7.417zm-9.118-2.405h8.41v2.405h-8.41v-2.405zm15.831 3.111v4.593h-8.834V19.99c0-.138-.396-.463-.547-.463H61.85c-.152 0-.409.325-.409.463v1.021h-8.833v-4.593h23.319zm-9.541 3.949v1.991c0 .1-.008.066-.12.066H62.55c-.111 0-.403.034-.403-.066v-1.991c0-.1.292-.063.403-.063h3.716c.113.001.12-.037.12.063zM52.608 31.256v-9.539h8.833v1.016c0 .139.257.397.409.397h5.116c.151 0 .126-.258.126-.397v-1.016h8.834v9.539H52.608zm59.614 1.465h-2.042a1.428 1.428 0 0 1-1.358-.983.364.364 0 0 1 .068-.342.357.357 0 0 1 .329-.118c1.242.213 3.314.55 3.592.55h.001c.272 0 .408.188.408.363 0 .49-.988.53-.998.53zm21.22 0h-2.041c-.01 0-.986-.121-.986-.602 0-.195.191-.368.395-.368.298 0 2.369-.315 3.605-.515a.352.352 0 0 1 .389.461c-.198.602-.758 1.024-1.362 1.024z"/><path fill="#FFF" d="M114.236 32.64l-.021-.001c-2.326-.136-6.281-.518-6.628-1.558a.354.354 0 0 1 .003-.234l.336-.911c-.188-.663-1.022-3.921-.378-7.413.013-.099.403-2.877 3.502-4.547l.052-.025h-1.137c-.248-.019-.688-.181-.765-.668a.345.345 0 0 1 .142-.341l.645-.475a.376.376 0 0 1 .211-.069h1.701c.125 0 .238.065.305.166l2.854-3.821a.354.354 0 0 1 .284-.142h12.137c.108 0 .21.049.277.133l3.271 4.12a.36.36 0 0 1 .294-.157h1.854c.047 0 .094.01.137.028.332.14.879.442.836.895-.038.413-.563.718-.787.83a.367.367 0 0 1-.152.038l-.771.005.133.085c.758.472 3.229 2.207 3.363 4.695.013.137.328 3.676-.197 6.737l.153 1.017a.356.356 0 0 1-.08.282c-.142.168-1.121 1.016-6.407 1.226a.301.301 0 0 1-.121-.016l-1.586-.495-11.439.054-1.914.55a.636.636 0 0 1-.107.012zm-5.917-1.718c.472.387 3.053.836 5.877 1.005l1.904-.547a.338.338 0 0 1 .096-.014l11.557-.054c.035 0 .066.005.104.016l1.579.493c3.981-.164 5.339-.702 5.721-.909l-.128-.855a.335.335 0 0 1 .001-.114c.522-2.979.2-6.583.197-6.62-.122-2.215-2.546-3.842-3.032-4.146-.867-.545-1.087-.743-1.133-.791a.352.352 0 0 1 .029-.516.32.32 0 0 1-.188-.101l-.201-.206-3.385-4.255h-11.79l-2.965 3.962a.345.345 0 0 1-.182.128l-.153.045c.03.063.04.134.03.205-.091.599-.813.929-.896.965-2.753 1.486-3.104 3.995-3.105 4.021-.683 3.672.379 7.176.391 7.211a.374.374 0 0 1-.006.229l-.322.848zm23.066-13.136l.344.001 1.382-.01c.107-.061.219-.136.28-.196a1.936 1.936 0 0 0-.293-.176h-1.529l-.09.242a.35.35 0 0 1-.094.139zm-21.07-.679l-.184.135 1.478-.001a.566.566 0 0 1-.008-.04l-.013-.094h-1.273z"/><path fill="#FFF" d="M130.052 18.636h-.004l-17.08-.202a.354.354 0 0 1-.282-.564l2.984-4.083a.35.35 0 0 1 .287-.146h10.885c.109 0 .217.053.283.142l3.17 4.232a.36.36 0 0 1 .12.267.353.353 0 0 1-.363.354zm-16.387-.904l15.672.186-2.672-3.568h-10.527l-2.473 3.382zm.15 7.789a.39.39 0 0 1-.045-.003l-4.432-.583-.545.129a.37.37 0 0 1-.31-.068l-.533-.431a.356.356 0 0 1-.12-.361l.566-2.345a.353.353 0 0 1 .167-.223.35.35 0 0 1 .276-.034l4.764 1.379a.357.357 0 0 1 .252.283l.309 1.844a.351.351 0 0 1-.1.305.33.33 0 0 1-.249.108zm-4.495-1.3c.021 0 .031.001.05.003l4.021.529-.188-1.152-4.19-1.214-.435 1.766.229.181.438-.104a.291.291 0 0 1 .075-.009zm20.56 1.3a.35.35 0 0 1-.256-.108.38.38 0 0 1-.101-.305l.31-1.844a.351.351 0 0 1 .25-.283l4.649-1.378a.349.349 0 0 1 .278.033.351.351 0 0 1 .168.223l.572 2.345a.37.37 0 0 1-.121.361l-.539.431c-.085.068-.197.093-.303.068l-.545-.129-4.322.583c-.01.003-.025.003-.04.003zm.618-1.922l-.19 1.152 3.912-.526a.34.34 0 0 1 .127.006l.44.104.228-.181-.432-1.764-4.085 1.209zm-16.431 8.19c-.014 0-.021 0-.039-.002-5.289-.576-5.545-1.05-5.629-1.206-.015-.027-.021-.056-.029-.085-.012-.035-.203-.868-.438-2.89a.353.353 0 0 1 .461-.378l5.122 1.648a.333.333 0 0 1 .154.1l1.521 1.684a.355.355 0 0 1-.076.539l-.854.537a.393.393 0 0 1-.193.053zm-5.036-1.57c.483.241 2.86.617 4.95.849l.396-.248-1.176-1.298-4.51-1.449c.161 1.217.29 1.896.34 2.146zm20.526 1.57a.353.353 0 0 1-.188-.054l-.856-.538a.354.354 0 0 1-.075-.538l1.521-1.684a.378.378 0 0 1 .148-.1l5.123-1.648a.353.353 0 0 1 .333.063.334.334 0 0 1 .127.315c-.229 2.021-.43 2.855-.437 2.89a.653.653 0 0 1-.033.085c-.084.155-.34.63-5.628 1.206-.01.003-.023.003-.035.003zm-.314-.968l.396.248c2.089-.232 4.467-.608 4.949-.849.052-.25.181-.93.333-2.146l-4.504 1.449-1.174 1.298z"/><path fill="#FFF" d="M127.175 31.646l-10.71-.036a.35.35 0 0 1-.216-.075l-.88-.681a.402.402 0 0 1-.136-.221l-1.197-7.056a.367.367 0 0 1 .158-.361l1.008-.626a.287.287 0 0 1 .188-.054l13.196.036a.36.36 0 0 1 .228.082l.858.717a.354.354 0 0 1 .122.338l-1.36 7.27a.354.354 0 0 1-.214.263l-.914.376a.302.302 0 0 1-.131.028zm-10.586-.745l10.517.035.67-.276 1.286-6.876-.601-.501-12.97-.035-.719.446 1.143 6.685.674.522z"/><g fill="#FFF"><path d="M241.008 35.172l-11.168-5.899V16.029l4.041-1.855.391.857-3.432 1.6v12.075L241 34.095l9.84-5.385V17.061l-2.543-1.427.504-.823 3.039 1.697v12.761zm2.547-23.143l1.233.71-.356.617-1.232-.712zm-4.455-.161l.317.637-1.304.648-.316-.637z"/><path d="M241.17 22.86l-10.726-6.223.357-.614 10.373 6.019 9.738-5.545.354.616z"/><path d="M240.84 22h1v13h-1zm-4.711-7.567c-1.313 0-2.293-.498-2.293-1.159s.98-1.159 2.293-1.159c1.307 0 2.295.498 2.295 1.159s-.988 1.159-2.295 1.159zm0-1.896c-1.063 0-1.852.39-1.852.737s.789.737 1.852.737c1.057 0 1.846-.389 1.846-.737s-.789-.737-1.846-.737zm2.276 3.758c0 .66-.99 1.158-2.285 1.158-1.301 0-2.271-.499-2.271-1.159h.441c0 .348.779.736 1.83.736 1.047 0 1.824-.389 1.824-.736l.461.001z"/><path d="M237.944 13.387h.473v2.914h-.473zm-4.102-.046h.436v2.96h-.436zm12.52 1.374c-1.307 0-2.295-.499-2.295-1.159s.988-1.159 2.295-1.159c1.313 0 2.297.499 2.297 1.159-.003.66-.989 1.159-2.297 1.159zm0-1.897c-1.057 0-1.846.39-1.846.737 0 .348.789.737 1.846.737 1.061 0 1.852-.389 1.852-.737-.007-.347-.796-.737-1.852-.737zm2.275 3.758c0 .661-.992 1.158-2.289 1.158-1.295 0-2.271-.498-2.271-1.159h.439c0 .348.783.737 1.828.737 1.047 0 1.83-.389 1.83-.737l.463.001z"/><path d="M248.176 13.669h.469v2.914h-.469zm-4.102-.046h.438v2.96h-.438zm-2.757 4.064c-1.309 0-2.295-.499-2.295-1.159s.986-1.159 2.295-1.159c1.313 0 2.293.499 2.293 1.159s-.987 1.159-2.293 1.159zm0-1.896c-1.057 0-1.848.389-1.848.737s.791.737 1.848.737c1.061 0 1.85-.389 1.85-.737-.005-.348-.796-.737-1.85-.737zm2.273 3.757c0 .66-.992 1.158-2.287 1.158-1.297 0-2.273-.499-2.273-1.159h.443c0 .348.783.737 1.83.737s1.828-.389 1.828-.737l.459.001z"/><path d="M243.129 16.641h.469v2.914h-.469zm-4.099-.047h.438v2.96h-.438zm2.287-4.639c-1.309 0-2.295-.498-2.295-1.159s.986-1.159 2.295-1.159c1.313 0 2.293.498 2.293 1.159s-.987 1.159-2.293 1.159zm0-1.896c-1.057 0-1.848.39-1.848.737 0 .348.791.737 1.848.737 1.061 0 1.85-.389 1.85-.737-.007-.348-.796-.737-1.85-.737zm2.273 3.757c0 .661-.992 1.158-2.287 1.158-1.297 0-2.273-.498-2.273-1.159h.443c0 .348.783.737 1.83.737s1.828-.389 1.828-.737l.459.001z"/><path d="M243.129 10.909h.469v2.914h-.469zm-4.099-.047h.438v2.96h-.438z"/></g><path d="M51.16 37.405h3.141v.609h-2.455v1.887h2.249v.609h-2.249v2.051h2.495v.609H51.16v-5.765zm6.764 5.766V40.84c0-.22-.012-.411-.029-.573a1.317 1.317 0 0 0-.106-.408.62.62 0 0 0-.233-.247.841.841 0 0 0-.399-.083.894.894 0 0 0-.63.231 1.243 1.243 0 0 0-.351.577v2.833h-.66v-4.119h.462l.123.502h.033a1.82 1.82 0 0 1 .515-.433c.195-.112.449-.168.767-.168.265 0 .479.051.646.152.167.102.298.279.393.531.128-.214.303-.382.521-.502.223-.121.474-.181.754-.181.229 0 .425.026.585.078a.823.823 0 0 1 .396.276c.104.132.183.31.229.536.047.225.07.51.07.854v2.471h-.67V40.69c0-.198-.012-.369-.028-.515a.952.952 0 0 0-.115-.363.557.557 0 0 0-.233-.214.964.964 0 0 0-.399-.07c-.271 0-.487.077-.643.231a1.28 1.28 0 0 0-.329.659v2.751h-.663v.002h-.006zm4.273-4.118h.453l.124.494h.033a1.25 1.25 0 0 1 .49-.44c.2-.102.429-.152.688-.152.553 0 .958.162 1.229.486.269.324.397.854.397 1.59 0 .346-.045.658-.136.938a2.06 2.06 0 0 1-.383.704 1.69 1.69 0 0 1-.598.445 1.877 1.877 0 0 1-.778.156c-.203 0-.364-.012-.481-.037a2.207 2.207 0 0 1-.384-.128v1.713h-.659l.005-5.769zm1.664.477c-.273 0-.501.073-.663.219-.158.146-.271.366-.342.663v2.042c.104.077.212.136.338.177s.294.062.503.062c.383 0 .686-.142.901-.424.223-.283.334-.699.334-1.248 0-.225-.021-.43-.058-.614-.039-.184-.104-.34-.188-.469s-.191-.229-.329-.301a1.035 1.035 0 0 0-.496-.107zm3.526 2.628c0 .192.033.33.099.412a.336.336 0 0 0 .28.124c.071 0 .148-.006.229-.017.083-.011.178-.036.276-.074l.074.519c-.088.044-.21.08-.366.107a2.418 2.418 0 0 1-.404.041c-.247 0-.448-.07-.607-.21s-.239-.377-.239-.712v-4.942h.659l-.001 4.752zm4.679.684a1.852 1.852 0 0 1-.622.313c-.25.077-.515.115-.795.115-.313 0-.584-.051-.813-.152a1.452 1.452 0 0 1-.568-.437 1.915 1.915 0 0 1-.329-.68 3.606 3.606 0 0 1-.104-.89c0-.703.152-1.238.471-1.606.313-.368.761-.552 1.343-.552.188 0 .373.021.563.062.188.041.354.12.503.235.146.115.27.279.358.49.097.211.145.49.145.836 0 .181-.021.382-.052.601H69.52c0 .242.025.456.074.643.05.187.127.345.229.474a.997.997 0 0 0 .407.297c.167.068.372.103.613.103.188 0 .374-.033.561-.099a1.22 1.22 0 0 0 .422-.23l.24.477zm-1.417-3.312c-.319 0-.583.085-.774.255-.192.17-.313.461-.354.874h2.043c0-.417-.08-.71-.235-.877-.161-.167-.389-.252-.68-.252zm2.275 1.582c0-.697.153-1.231.466-1.602.313-.371.756-.556 1.339-.556.311 0 .575.051.807.152.229.101.414.247.563.437.146.19.258.417.329.684.069.267.104.562.104.885 0 .698-.149 1.232-.466 1.603-.311.371-.756.556-1.338.556-.308 0-.576-.051-.804-.152a1.437 1.437 0 0 1-.564-.437 1.91 1.91 0 0 1-.329-.684 3.442 3.442 0 0 1-.107-.886zm.683 0c0 .209.021.409.063.602.041.192.104.36.188.502.092.143.203.258.352.346a.966.966 0 0 0 .52.132c.746.005 1.12-.522 1.12-1.582 0-.214-.021-.417-.063-.609-.041-.192-.104-.359-.191-.502s-.203-.257-.346-.342a1.006 1.006 0 0 0-.521-.128c-.748-.006-1.122.521-1.122 1.581zm160.051.255l.195.874h.008l.217-.89 1.395-3.946h.688l-2.186 5.857h-.305l-2.229-5.857h.75l1.467 3.962zm2.637-2.01c.209-.126.449-.22.729-.28.277-.061.566-.091.869-.091.285 0 .52.039.688.115a.955.955 0 0 1 .396.301c.09.124.15.259.182.408.03.149.049.296.049.445 0 .33-.014.651-.023.964-.018.313-.022.609-.022.89 0 .203.009.396.022.577s.047.349.09.502h-.482l-.174-.577h-.041a1.27 1.27 0 0 1-.458.425 1.8 1.8 0 0 1-.361.144 1.77 1.77 0 0 1-.471.058c-.18 0-.344-.027-.488-.083a1.224 1.224 0 0 1-.396-.235 1.289 1.289 0 0 1-.26-.366 1.194 1.194 0 0 1-.096-.486c0-.241.051-.443.146-.605.104-.162.238-.291.416-.387.184-.096.396-.165.646-.206.25-.042.521-.062.828-.062h.227c.081 0 .148.006.229.017.018-.165.021-.313.021-.445 0-.302-.061-.513-.182-.634s-.344-.181-.66-.181a2.36 2.36 0 0 0-.301.021 3.345 3.345 0 0 0-.65.153c-.1.036-.188.078-.268.123l-.205-.505zm1.17 3.304a1.222 1.222 0 0 0 .725-.219c.088-.063.162-.133.223-.21a.764.764 0 0 0 .127-.223v-.686a7.794 7.794 0 0 0-.465-.016c-.171 0-.337.01-.497.029a1.64 1.64 0 0 0-.43.107.747.747 0 0 0-.297.214.524.524 0 0 0-.11.342c0 .192.067.35.204.474.129.126.305.188.52.188zm4.926-2.974a1.475 1.475 0 0 0-.469-.083c-.236 0-.424.065-.563.194a.844.844 0 0 0-.256.49v2.883h-.658v-4.119h.461l.123.502h.033c.105-.188.23-.331.375-.433.146-.102.332-.152.561-.152.154 0 .34.028.531.083l-.138.635zm.857-1.886c0-.126.043-.235.127-.326a.421.421 0 0 1 .324-.136c.133 0 .24.045.338.136.096.091.143.199.143.326s-.047.229-.143.313a.497.497 0 0 1-.338.124.436.436 0 0 1-.324-.124.422.422 0 0 1-.127-.313zm.141 1.252h.658v4.119h-.658v-4.119zm1.836 2.059c0-.697.154-1.231.465-1.602.313-.371.756-.556 1.34-.556.313 0 .574.051.809.152.227.101.416.247.563.437.148.19.26.417.328.684.072.267.107.562.107.885 0 .698-.154 1.232-.467 1.603-.313.371-.76.556-1.342.556a1.99 1.99 0 0 1-.805-.152 1.427 1.427 0 0 1-.563-.437 1.797 1.797 0 0 1-.326-.684 3.313 3.313 0 0 1-.109-.886zm.681 0c0 .209.021.409.064.602.041.192.104.36.191.502a.966.966 0 0 0 .868.478c.746.005 1.119-.522 1.119-1.582 0-.214-.02-.417-.063-.609-.041-.192-.105-.359-.193-.502s-.203-.257-.346-.342a1.003 1.003 0 0 0-.521-.128c-.744-.006-1.119.521-1.119 1.581zm5.776.939a.511.511 0 0 0-.146-.387 1.4 1.4 0 0 0-.363-.235c-.146-.063-.311-.124-.48-.181s-.332-.132-.477-.223a1.19 1.19 0 0 1-.367-.35c-.102-.145-.146-.334-.146-.577 0-.395.109-.685.338-.869.227-.184.537-.276.938-.276.295 0 .545.026.744.078.201.052.375.114.521.185l-.154.544a2.438 2.438 0 0 0-1.029-.231c-.242 0-.42.042-.531.124-.109.083-.17.226-.17.429 0 .143.054.254.148.333s.221.151.365.214c.146.063.307.125.479.185.174.061.332.14.479.239.146.099.27.224.361.375.104.151.148.35.148.597 0 .176-.029.341-.086.494a1.024 1.024 0 0 1-.271.396c-.121.11-.271.196-.445.259a1.937 1.937 0 0 1-.635.095c-.313 0-.574-.03-.799-.09a2.675 2.675 0 0 1-.551-.214l.197-.56c.127.071.291.137.492.198.199.061.404.091.613.091.236 0 .438-.047.586-.14.163-.093.241-.261.241-.503z" fill="#FFF"/><g fill="#FFF"><path d="M181.334 36.391a4.778 4.778 0 0 1-4.768-4.773c0-1.178.459-2.293 1.268-3.168h-6.063v-8.022l-.438.445-1.285-1.96 11.479-8.462 11.479 8.511-1.748 1.812-1.131-.674v8.047l-5.52.088c.938.904 1.479 2.112 1.479 3.39a4.757 4.757 0 0 1-4.752 4.766zm-2.287-7.942c-1.039.775-1.658 1.933-1.658 3.168 0 2.182 1.771 3.958 3.945 3.958s3.939-1.771 3.939-3.954c0-1.345-.732-2.599-1.953-3.369l-.428.007-.004-.25-.246-.123.074-.503.828-.993-1.154-.002v-9.391l-.889-.901-1.279 1.292v.643l.764 1.117-1.318 1.291v.326l1.318 1.361-1.07 1.238.684.652v2.186h-1.428l.758 1.168.084.514-.27.135a4.67 4.67 0 0 0-.637.382v.049l-.06-.001zm-6.461-.816h6.201c.074-.053.154-.104.236-.153l-.752-1.158c-.104-.168-.176-.425-.053-.648.059-.107.209-.288.553-.288h1.012v-1.021l-.996-.949 1.098-1.26-1.033-1.063v-1.002l1.08-1.052-.521-.757v-1.23l2.1-2.116 1.703 1.726v8.909h.639c.236.008.521.11.643.375.109.249.045.53-.205.836l-.535.646 5.563-.089v-8.68l1.813 1.079.651-.678-10.243-7.598-10.375 7.646.307.466 1.127-1.15-.013 9.209z"/><path d="M181.416 35.524a1.48 1.48 0 0 1-1.479-1.477 1.48 1.48 0 0 1 2.956 0c0 .815-.662 1.477-1.477 1.477zm0-2.342a.865.865 0 1 0 0 1.732.86.86 0 0 0 .859-.866.857.857 0 0 0-.859-.866z"/></g><path d="M166.494 37.739h3.141v.609h-2.455v1.969h2.289v.61h-2.289v2.578h-.686v-5.766zm4.194.395c0-.126.043-.235.127-.326a.43.43 0 0 1 .326-.136c.131 0 .244.045.338.136.094.091.145.199.145.326s-.049.229-.145.313a.493.493 0 0 1-.338.124.447.447 0 0 1-.326-.124.42.42 0 0 1-.127-.313zm.138 1.252h.656v4.119h-.656v-4.119zm4.711 4.119v-2.348c0-.428-.063-.751-.188-.968-.123-.217-.35-.326-.68-.326-.291 0-.531.079-.727.235a1.28 1.28 0 0 0-.396.589v2.817h-.66v-4.119h.463l.123.502h.033a1.49 1.49 0 0 1 .531-.433 1.73 1.73 0 0 1 .795-.168c.225 0 .422.026.592.078a.899.899 0 0 1 .426.276c.111.131.197.309.254.531.063.223.088.504.088.844v2.488h-.654v.002zm4.672-.272a1.784 1.784 0 0 1-.584.276 2.648 2.648 0 0 1-.709.095c-.318 0-.59-.051-.813-.152a1.4 1.4 0 0 1-.541-.437 1.968 1.968 0 0 1-.305-.684 3.854 3.854 0 0 1-.094-.886c0-.697.148-1.231.461-1.602.309-.371.75-.556 1.326-.556.264 0 .482.021.672.062.184.041.35.1.498.177l-.189.568c-.127-.071-.266-.128-.42-.169s-.318-.063-.494-.063c-.775 0-1.17.527-1.17 1.582 0 .209.021.408.063.598.041.189.104.357.205.502.098.146.223.262.381.35.15.088.35.132.58.132.191 0 .375-.03.525-.091.156-.061.283-.129.387-.206l.221.504zm.84-3.542c.209-.126.451-.22.729-.28.277-.061.566-.091.869-.091.285 0 .52.039.688.115a.955.955 0 0 1 .396.301c.09.124.15.259.184.408.028.149.049.296.049.445 0 .33-.016.651-.025.964-.016.313-.021.609-.021.89 0 .203.01.396.021.577.017.181.047.349.09.502h-.48l-.174-.577h-.041a1.467 1.467 0 0 1-.188.227c-.076.075-.164.14-.27.198a1.8 1.8 0 0 1-.361.144 1.77 1.77 0 0 1-.471.058 1.35 1.35 0 0 1-.488-.083 1.194 1.194 0 0 1-.394-.235 1.24 1.24 0 0 1-.263-.366 1.194 1.194 0 0 1-.096-.486c0-.241.051-.443.146-.605.104-.162.237-.291.415-.387.184-.096.396-.165.646-.206.25-.042.521-.062.828-.062h.227c.081 0 .148.006.229.017.016-.165.021-.313.021-.445 0-.302-.061-.513-.182-.634s-.342-.181-.66-.181a2.36 2.36 0 0 0-.301.021 3.457 3.457 0 0 0-.65.153c-.1.036-.188.078-.268.123l-.205-.505zm1.17 3.303a1.222 1.222 0 0 0 .725-.219c.09-.063.162-.133.223-.21s.102-.151.129-.223v-.682a8.309 8.309 0 0 0-.464-.016c-.173 0-.338.01-.498.029-.162.02-.309.055-.432.107a.747.747 0 0 0-.297.214.522.522 0 0 0-.107.342c0 .192.064.35.201.474.129.123.305.184.52.184zm5.248-5.198c.209-.038.449-.068.721-.091.271-.021.521-.033.744-.033a3 3 0 0 1 .721.083c.23.055.436.146.604.271.174.126.313.292.416.495.103.203.154.45.154.741 0 .45-.123.815-.367 1.096-.248.28-.563.467-.939.56l.396.305 1.434 2.282h-.799l-1.59-2.488-.813-.124v2.611h-.684l.002-5.708zm1.481.47h-.221a2.72 2.72 0 0 0-.223.008l-.203.016a.886.886 0 0 0-.152.025v2.125h.646c.379 0 .688-.093.938-.28s.371-.478.371-.873a.965.965 0 0 0-.305-.733c-.205-.192-.488-.288-.851-.288zm3.205 1.425c.209-.126.451-.22.73-.28.271-.061.563-.091.867-.091.285 0 .516.039.688.115.174.077.309.177.396.301s.146.259.182.408c.031.149.045.296.045.445 0 .33-.008.651-.021.964-.02.313-.021.609-.021.89 0 .203.008.396.021.577.018.181.049.349.094.502h-.488l-.174-.577h-.041a1.27 1.27 0 0 1-.188.227c-.07.075-.16.14-.27.198a1.849 1.849 0 0 1-.361.144c-.139.038-.295.058-.471.058s-.338-.027-.49-.083c-.146-.055-.277-.133-.391-.235s-.195-.224-.26-.366a1.194 1.194 0 0 1-.1-.486c0-.241.053-.443.148-.605.098-.162.234-.291.416-.387.178-.096.393-.165.643-.206.248-.042.525-.062.826-.062h.229c.07 0 .146.006.227.017.021-.165.025-.313.025-.445 0-.302-.063-.513-.188-.634s-.34-.181-.654-.181a2.42 2.42 0 0 0-.305.021 2.878 2.878 0 0 0-.644.153 1.63 1.63 0 0 0-.271.123l-.199-.505zm1.17 3.303c.152 0 .291-.021.412-.062a1.19 1.19 0 0 0 .313-.157.977.977 0 0 0 .219-.21.683.683 0 0 0 .127-.223v-.682a8.853 8.853 0 0 0-.462-.016c-.17 0-.336.01-.498.029-.162.02-.305.055-.428.107a.727.727 0 0 0-.299.214.535.535 0 0 0-.109.342c0 .192.066.35.205.474.129.123.305.184.52.184zm3.121-3.608h.66v4.119h-.66v-4.119zm1.779 3.542l1.904-2.62.346-.346h-2.25v-.577h2.938v.577l-1.912 2.644-.338.321h2.25v.577h-2.938v-.576zm-90.23-.894l.194.874h.012l.214-.89 1.395-3.946h.688l-2.187 5.857h-.305l-2.229-5.857h.75l1.468 3.962zm5.643 1.475a1.852 1.852 0 0 1-.622.313c-.25.077-.515.115-.795.115a2.02 2.02 0 0 1-.815-.152 1.408 1.408 0 0 1-.563-.437 1.866 1.866 0 0 1-.329-.68 3.42 3.42 0 0 1-.107-.89c0-.703.157-1.238.474-1.606.313-.368.763-.552 1.345-.552.188 0 .373.021.563.062.188.041.354.12.502.235.146.115.271.279.36.49.095.211.145.49.145.836 0 .181-.021.382-.054.601h-2.645c0 .242.021.456.072.643.051.187.127.345.229.474a.997.997 0 0 0 .407.297c.167.068.372.103.611.103.188 0 .374-.033.563-.099a1.19 1.19 0 0 0 .42-.23l.239.477zm-1.417-3.312c-.323 0-.583.085-.778.255-.188.17-.312.461-.35.874h2.043c0-.417-.08-.71-.239-.877s-.385-.252-.676-.252zm5.24 3.641V41.49a4.93 4.93 0 0 0-.037-.563 1.024 1.024 0 0 0-.138-.403.605.605 0 0 0-.271-.243 1.003 1.003 0 0 0-.438-.083c-.263 0-.49.084-.698.251-.209.167-.35.383-.404.646v2.743h-.659v-5.766h.659v2.109h.033c.143-.17.313-.306.515-.408s.449-.152.746-.152c.23 0 .435.026.604.078a.902.902 0 0 1 .427.276c.106.132.188.309.247.531.052.223.076.504.076.844v2.488h-.662zm2.002-4.118h.657v4.119h-.657V39.72zm4.876 3.846a1.8 1.8 0 0 1-.585.276 2.635 2.635 0 0 1-.708.095 1.97 1.97 0 0 1-.813-.152 1.397 1.397 0 0 1-.54-.437 1.932 1.932 0 0 1-.305-.684 3.852 3.852 0 0 1-.095-.886c0-.697.148-1.231.462-1.602.308-.371.749-.556 1.326-.556.264 0 .481.021.671.062.184.041.351.1.498.177l-.189.568a1.904 1.904 0 0 0-.914-.232c-.775 0-1.17.527-1.17 1.582 0 .209.021.408.063.598.041.189.104.357.206.502.096.146.222.262.379.35.15.088.35.132.58.132.192 0 .375-.03.525-.091.157-.061.284-.129.386-.206l.223.504zm1.499-3.846v2.348c0 .214.012.402.037.564.021.162.063.296.128.403.06.107.143.188.247.243a.822.822 0 0 0 .395.083c.148 0 .28-.023.396-.07.111-.046.221-.111.312-.193.09-.083.17-.177.238-.284.063-.107.125-.221.169-.342V39.72h.659v2.949c0 .198.007.402.021.614.018.212.037.397.07.556h-.453l-.165-.651h-.041a1.643 1.643 0 0 1-.511.536c-.215.143-.486.214-.815.214-.22 0-.413-.026-.581-.078a.886.886 0 0 1-.42-.276 1.445 1.445 0 0 1-.255-.531 3.424 3.424 0 0 1-.087-.844V39.72h.656zm4.579 3.105c0 .192.027.33.099.412.064.083.159.124.28.124.065 0 .146-.006.229-.017.083-.011.178-.036.28-.074l.074.519c-.088.044-.21.08-.366.107a2.46 2.46 0 0 1-.408.041c-.247 0-.45-.07-.605-.21-.157-.14-.237-.377-.237-.712v-4.942h.659l-.005 4.752zm1.441-1.046c0-.697.155-1.231.466-1.602.313-.371.76-.556 1.343-.556.309 0 .571.051.805.152.228.101.416.247.563.437s.261.417.328.684c.071.267.107.562.107.885 0 .698-.155 1.232-.466 1.603-.313.371-.758.556-1.34.556-.312 0-.574-.051-.808-.152a1.434 1.434 0 0 1-.563-.437 1.801 1.801 0 0 1-.329-.684 3.488 3.488 0 0 1-.106-.886zm.684 0c0 .209.021.409.063.602.041.192.105.36.193.502.088.142.203.258.346.346a.979.979 0 0 0 .521.132c.746.005 1.116-.522 1.116-1.582 0-.214-.021-.417-.063-.609-.041-.192-.105-.359-.193-.502s-.203-.257-.346-.342a1.003 1.003 0 0 0-.521-.128c-.743-.006-1.116.521-1.116 1.581zm5.774.939a.511.511 0 0 0-.146-.387 1.436 1.436 0 0 0-.366-.235 5.9 5.9 0 0 0-.479-.181 2.248 2.248 0 0 1-.478-.223 1.19 1.19 0 0 1-.367-.35c-.099-.145-.146-.334-.146-.577 0-.395.109-.685.34-.869.226-.184.538-.276.938-.276.296 0 .545.026.745.078.2.052.375.114.523.188l-.157.544a2.388 2.388 0 0 0-.457-.161 2.236 2.236 0 0 0-.572-.07c-.238 0-.419.042-.527.124-.11.083-.171.226-.171.429 0 .143.052.254.146.333s.221.151.366.214.305.125.479.185c.175.061.332.14.479.239.146.099.268.224.364.375.1.151.146.35.146.597 0 .176-.029.341-.087.494a.993.993 0 0 1-.271.396c-.117.11-.271.196-.443.259a1.955 1.955 0 0 1-.633.095c-.313 0-.577-.03-.803-.09a2.708 2.708 0 0 1-.552-.214l.197-.562c.127.071.291.137.494.198s.407.091.616.091c.232 0 .434-.047.587-.14.156-.094.235-.262.235-.504zm-18.133-4.825h.694v.164l-.787.998h-.367l.46-1.162zm76.98-.125h.688v.164l-.787.998h-.362l.461-1.162z" fill="#FFF"/><g fill="#FFF"><path d="M69.277 92.274v-3.18h-9.895v3.18h-7.42v16.251h24.731V92.274h-7.416zm-9.119-2.405h8.41v2.405h-8.41v-2.405zM75.99 92.98v4.593h-8.834v-1.021c0-.139-.396-.463-.547-.463h-4.696c-.152 0-.409.324-.409.463v1.021H52.67V92.98h23.32zm-9.542 3.95v1.99c0 .101-.008.066-.12.066h-3.716c-.111 0-.403.034-.403-.066v-1.99c0-.1.292-.063.403-.063h3.716c.114 0 .12-.037.12.063zM52.67 107.818v-9.539h8.833v1.016c0 .14.257.397.409.397h5.116c.151 0 .126-.258.126-.397v-1.016h8.834v9.539H52.67zm59.614 1.465h-2.042a1.428 1.428 0 0 1-1.358-.982.356.356 0 0 1 .397-.461c1.242.214 3.314.551 3.592.551h.001c.272 0 .408.188.408.363 0 .49-.988.529-.998.529zm21.22 0h-2.041c-.01 0-.986-.121-.986-.602 0-.195.191-.368.395-.368.298 0 2.369-.315 3.605-.515a.342.342 0 0 1 .323.119.354.354 0 0 1 .066.342c-.198.602-.757 1.024-1.362 1.024z"/><path d="M114.298 109.203c-.008 0-.015 0-.021-.002-2.326-.136-6.281-.518-6.628-1.558a.351.351 0 0 1 .003-.233l.336-.912c-.188-.662-1.022-3.92-.378-7.412.013-.1.403-2.877 3.502-4.547a.832.832 0 0 1 .052-.025h-1.137c-.248-.02-.688-.182-.765-.668a.348.348 0 0 1 .142-.342l.645-.475a.375.375 0 0 1 .211-.068h1.701c.125 0 .238.064.305.166l2.854-3.821a.351.351 0 0 1 .284-.142h12.137c.108 0 .21.049.277.133l3.271 4.119a.359.359 0 0 1 .294-.156h1.854c.047 0 .094.01.137.027.332.141.879.442.836.896-.038.413-.563.718-.787.83a.383.383 0 0 1-.152.038l-.771.005.133.085c.758.472 3.229 2.207 3.363 4.695.013.137.328 3.676-.197 6.736l.153 1.018a.354.354 0 0 1-.08.281c-.142.168-1.121 1.017-6.407 1.227a.301.301 0 0 1-.121-.016l-1.586-.496-11.439.055-1.914.55c-.04.006-.074.012-.107.012zm-5.917-1.719c.472.387 3.053.836 5.877 1.005l1.904-.547a.338.338 0 0 1 .096-.014l11.557-.054c.035 0 .066.004.104.016l1.579.492c3.981-.163 5.339-.701 5.721-.908l-.128-.855a.33.33 0 0 1 .001-.113c.522-2.979.2-6.584.197-6.62-.122-2.216-2.546-3.843-3.032-4.146-.867-.545-1.087-.743-1.133-.791a.352.352 0 0 1 .029-.516.32.32 0 0 1-.188-.101l-.201-.207-3.385-4.254h-11.79l-2.965 3.961a.347.347 0 0 1-.182.129l-.153.045c.03.063.04.134.03.205-.091.599-.813.929-.896.965-2.753 1.486-3.104 3.994-3.105 4.021-.683 3.673.379 7.177.391 7.211a.374.374 0 0 1-.006.229l-.322.847zm23.067-13.135l.344.001 1.382-.01a1.62 1.62 0 0 0 .28-.196 1.857 1.857 0 0 0-.293-.176h-1.529l-.09.241a.347.347 0 0 1-.094.14zm-21.071-.679l-.184.135 1.478-.001a.566.566 0 0 1-.008-.04l-.013-.094h-1.273z"/><path d="M130.115 95.198h-.004l-17.08-.202a.35.35 0 0 1-.313-.195.356.356 0 0 1 .031-.368l2.984-4.083a.347.347 0 0 1 .287-.146h10.885c.109 0 .217.053.283.143l3.17 4.232c.072.064.12.159.12.267a.353.353 0 0 1-.354.354l-.009-.002zm-16.387-.903l15.672.185-2.672-3.568H116.2l-2.472 3.383zm.149 7.789c-.014 0-.027-.002-.045-.004l-4.432-.582-.545.129a.374.374 0 0 1-.31-.068l-.533-.432a.355.355 0 0 1-.12-.36l.566-2.345a.355.355 0 0 1 .443-.258l4.764 1.379a.358.358 0 0 1 .252.283l.309 1.844a.353.353 0 0 1-.1.306.33.33 0 0 1-.249.108zm-4.495-1.301c.021 0 .031.002.05.004l4.021.528-.188-1.151-4.19-1.215-.435 1.766.229.182.438-.104a.296.296 0 0 1 .075-.01zm20.561 1.301a.35.35 0 0 1-.256-.108.381.381 0 0 1-.101-.306l.31-1.844a.351.351 0 0 1 .25-.283l4.649-1.377a.353.353 0 0 1 .446.256l.572 2.345a.369.369 0 0 1-.121.36l-.539.432c-.085.068-.197.093-.303.068l-.545-.129-4.322.582c-.01.004-.026.004-.04.004zm.618-1.922l-.19 1.151 3.912-.526a.34.34 0 0 1 .127.006l.44.104.228-.181-.432-1.764-4.085 1.21zm-16.432 8.19c-.014 0-.021 0-.039-.002-5.289-.576-5.545-1.051-5.629-1.206-.015-.026-.021-.056-.029-.085-.012-.035-.203-.868-.438-2.891a.355.355 0 0 1 .461-.377l5.122 1.647a.335.335 0 0 1 .154.101l1.521 1.684a.355.355 0 0 1-.076.539l-.854.537a.39.39 0 0 1-.193.053zm-5.036-1.571c.483.241 2.86.617 4.95.85l.396-.248-1.176-1.299-4.51-1.448c.161 1.217.29 1.895.34 2.145zm20.526 1.571a.346.346 0 0 1-.188-.055l-.856-.537a.356.356 0 0 1-.075-.538l1.521-1.685a.4.4 0 0 1 .148-.1l5.123-1.648a.356.356 0 0 1 .333.063.333.333 0 0 1 .127.315c-.229 2.021-.43 2.854-.437 2.89a.602.602 0 0 1-.033.085c-.084.154-.34.63-5.628 1.206-.009.004-.023.004-.035.004zm-.313-.969l.396.248c2.089-.231 4.467-.607 4.949-.849.052-.25.181-.93.333-2.146l-4.504 1.449-1.174 1.298z"/><path d="M127.238 108.209l-10.71-.037a.349.349 0 0 1-.216-.074l-.88-.682a.402.402 0 0 1-.136-.221l-1.197-7.056a.367.367 0 0 1 .158-.361l1.008-.626a.293.293 0 0 1 .188-.054l13.196.036a.36.36 0 0 1 .228.082l.858.717a.354.354 0 0 1 .122.338l-1.36 7.27a.356.356 0 0 1-.214.264l-.914.376a.324.324 0 0 1-.131.028zm-10.586-.746l10.517.035.67-.275 1.286-6.876-.601-.501-12.97-.035-.719.445 1.143 6.686.674.521zm124.419 4.271l-11.168-5.898V92.592l4.041-1.856.39.858-3.431 1.599v12.076l10.16 5.388 9.84-5.385V93.623l-2.543-1.427.504-.823 3.039 1.697v12.762zm2.534-23.13l1.232.71-.355.617-1.233-.711zm-4.44-.175l.316.637-1.304.647-.316-.636z"/><path d="M241.233 99.422l-10.727-6.223.358-.613 10.373 6.018 9.738-5.544.353.616z"/><path d="M240.903 98.563h1v13h-1zm-4.711-7.567c-1.313 0-2.293-.498-2.293-1.16 0-.66.98-1.158 2.293-1.158 1.307 0 2.295.498 2.295 1.158 0 .662-.989 1.16-2.295 1.16zm0-1.896c-1.063 0-1.852.39-1.852.736 0 .348.789.737 1.852.737 1.057 0 1.846-.389 1.846-.737-.001-.348-.79-.736-1.846-.736zm2.275 3.757c0 .66-.99 1.158-2.285 1.158-1.301 0-2.271-.499-2.271-1.159h.441c0 .349.779.736 1.83.736 1.047 0 1.824-.39 1.824-.736l.461.001z"/><path d="M238.006 89.949h.473v2.914h-.473zm-4.101-.046h.436v2.96h-.436zm12.519 1.374c-1.307 0-2.295-.499-2.295-1.158 0-.66.988-1.16 2.295-1.16 1.313 0 2.297.5 2.297 1.16-.003.659-.988 1.158-2.297 1.158zm0-1.896c-1.057 0-1.846.39-1.846.736 0 .348.789.737 1.846.737 1.061 0 1.852-.39 1.852-.737-.006-.346-.795-.736-1.852-.736zm2.275 3.758c0 .66-.992 1.158-2.289 1.158-1.295 0-2.271-.498-2.271-1.159h.439c0 .348.783.737 1.828.737 1.047 0 1.83-.39 1.83-.737l.463.001z"/><path d="M248.239 90.231h.469v2.914h-.469zm-4.102-.045h.438v2.96h-.438zm-2.758 4.064c-1.309 0-2.295-.5-2.295-1.16 0-.659.986-1.158 2.295-1.158 1.313 0 2.293.499 2.293 1.158 0 .66-.986 1.16-2.293 1.16zm0-1.896c-1.057 0-1.848.389-1.848.736 0 .349.791.738 1.848.738 1.061 0 1.85-.39 1.85-.738-.004-.348-.795-.736-1.85-.736zm2.274 3.756c0 .66-.992 1.158-2.287 1.158-1.297 0-2.273-.499-2.273-1.159h.443c0 .348.783.737 1.83.737s1.828-.39 1.828-.737l.459.001z"/><path d="M243.192 93.203h.469v2.914h-.469zm-4.1-.047h.438v2.961h-.438zm2.287-4.638c-1.309 0-2.295-.498-2.295-1.159s.986-1.159 2.295-1.159c1.313 0 2.293.498 2.293 1.159s-.986 1.159-2.293 1.159zm0-1.897c-1.057 0-1.848.391-1.848.737 0 .349.791.737 1.848.737 1.061 0 1.85-.389 1.85-.737-.006-.347-.795-.737-1.85-.737zm2.274 3.758c0 .66-.992 1.158-2.287 1.158-1.297 0-2.273-.498-2.273-1.16h.443c0 .349.783.737 1.83.737s1.828-.389 1.828-.737l.459.002z"/><path d="M243.192 87.472h.469v2.914h-.469zm-4.1-.048h.438v2.961h-.438zM51.223 113.968h3.141v.608h-2.455v1.887h2.249v.609h-2.249v2.051h2.495v.609h-3.181v-5.764zm6.764 5.765v-2.331c0-.22-.012-.41-.029-.572a1.31 1.31 0 0 0-.106-.408.629.629 0 0 0-.233-.248.842.842 0 0 0-.399-.082.893.893 0 0 0-.63.23 1.243 1.243 0 0 0-.351.577v2.833h-.66v-4.119h.462l.123.502h.033a1.82 1.82 0 0 1 .515-.433c.195-.112.449-.168.767-.168.265 0 .479.051.646.151.167.103.298.279.393.531.128-.214.303-.382.521-.502.223-.121.474-.181.754-.181.229 0 .425.026.585.077a.832.832 0 0 1 .396.277c.104.131.183.31.229.535.047.225.07.51.07.854v2.472h-.668v-2.478c0-.197-.012-.369-.028-.515a.941.941 0 0 0-.115-.362.553.553 0 0 0-.233-.215.964.964 0 0 0-.399-.07c-.271 0-.487.078-.643.231a1.28 1.28 0 0 0-.329.659v2.751h-.662v.002h-.009zm4.272-4.118h.453l.124.494h.033c.126-.191.289-.339.49-.439.2-.103.429-.152.688-.152.553 0 .958.162 1.229.486.269.324.397.854.397 1.59 0 .346-.045.658-.136.938a2.06 2.06 0 0 1-.383.704 1.678 1.678 0 0 1-.598.445 1.893 1.893 0 0 1-.778.155c-.203 0-.364-.012-.481-.037a2.114 2.114 0 0 1-.384-.127v1.713h-.659l.005-5.77zm1.664.478c-.273 0-.501.073-.663.219-.158.146-.271.366-.342.663v2.042c.104.077.212.136.338.177s.294.063.503.063c.383 0 .686-.143.901-.424.223-.283.334-.699.334-1.248 0-.226-.021-.431-.058-.614-.039-.185-.104-.341-.188-.47s-.191-.229-.329-.301a1.035 1.035 0 0 0-.496-.107zm3.526 2.628c0 .191.033.33.099.412a.338.338 0 0 0 .28.123c.071 0 .148-.006.229-.017.083-.011.178-.036.276-.073l.074.519c-.088.044-.21.08-.366.106a2.418 2.418 0 0 1-.404.041.882.882 0 0 1-.607-.209c-.159-.141-.239-.377-.239-.713v-4.941h.659l-.001 4.752zm4.679.683c-.164.133-.372.236-.622.313s-.515.114-.795.114a2.02 2.02 0 0 1-.813-.151 1.461 1.461 0 0 1-.568-.437 1.912 1.912 0 0 1-.329-.681 3.606 3.606 0 0 1-.104-.89c0-.703.152-1.238.471-1.606.313-.368.761-.552 1.343-.552.188 0 .373.021.563.063.188.041.354.119.503.234.146.115.27.279.358.49.097.211.145.49.145.836 0 .181-.021.382-.052.601h-2.646c0 .242.025.456.074.644.05.187.127.345.229.474a.997.997 0 0 0 .407.297c.167.068.372.103.613.103.188 0 .374-.032.561-.098.188-.066.327-.144.422-.23l.24.476zm-1.417-3.311c-.319 0-.583.085-.774.255-.192.17-.313.461-.354.874h2.043c0-.417-.08-.71-.235-.877-.16-.167-.389-.252-.68-.252zm2.276 1.581c0-.696.153-1.23.466-1.602.313-.371.756-.556 1.339-.556.311 0 .575.051.807.151.229.102.414.248.563.438.146.189.258.417.329.684.069.268.104.563.104.885 0 .699-.149 1.232-.466 1.604-.311.371-.756.557-1.338.557-.308 0-.576-.052-.804-.152a1.44 1.44 0 0 1-.564-.438 1.894 1.894 0 0 1-.329-.684 3.456 3.456 0 0 1-.107-.887zm.682 0c0 .209.021.41.063.603.041.192.104.36.188.502.092.144.203.259.352.347a.965.965 0 0 0 .52.131c.746.006 1.12-.521 1.12-1.582 0-.213-.021-.416-.063-.608-.041-.192-.104-.358-.191-.502s-.203-.257-.346-.342a1.006 1.006 0 0 0-.521-.128c-.748-.007-1.122.519-1.122 1.579zm160.052.256l.195.874h.008l.217-.89 1.395-3.946h.688l-2.186 5.856h-.305l-2.229-5.856h.75l1.467 3.962zm2.637-2.01c.209-.127.449-.221.729-.28.277-.062.566-.091.869-.091.285 0 .52.039.688.115a.938.938 0 0 1 .396.301c.09.123.15.259.182.408.03.148.049.295.049.444 0 .33-.014.651-.023.964-.018.313-.022.609-.022.891 0 .203.009.396.022.576.014.182.047.35.09.502h-.482l-.174-.576h-.041a1.306 1.306 0 0 1-.458.425 1.861 1.861 0 0 1-.361.144 1.768 1.768 0 0 1-.471.059c-.18 0-.344-.027-.488-.083a1.26 1.26 0 0 1-.396-.235 1.312 1.312 0 0 1-.26-.365 1.2 1.2 0 0 1-.096-.486c0-.241.051-.443.146-.605.104-.162.238-.291.416-.387.184-.096.396-.165.646-.206.25-.042.521-.062.828-.062h.227c.081 0 .148.006.229.017.018-.165.021-.313.021-.445 0-.302-.061-.513-.182-.634s-.344-.182-.66-.182c-.092 0-.193.008-.301.021a3.08 3.08 0 0 0-.328.061c-.113.025-.223.057-.322.093s-.188.077-.268.122l-.205-.506zm1.17 3.304c.152 0 .291-.021.412-.062.121-.043.225-.095.313-.158s.162-.133.223-.209a.756.756 0 0 0 .127-.224v-.686a13.486 13.486 0 0 0-.232-.013c-.08-.002-.158-.004-.233-.004-.171 0-.337.01-.497.029s-.307.055-.43.107c-.125.052-.223.123-.297.214s-.11.204-.11.342c0 .192.067.351.204.474.129.128.305.19.52.19zm4.925-2.974a1.45 1.45 0 0 0-.469-.084c-.236 0-.424.065-.563.194a.844.844 0 0 0-.256.49v2.883h-.658v-4.119h.461l.123.503h.033a1.28 1.28 0 0 1 .375-.434c.146-.102.332-.152.561-.152.154 0 .34.028.531.083l-.138.636zm.858-1.887c0-.126.043-.234.127-.326a.421.421 0 0 1 .324-.136c.133 0 .24.045.338.136.096.092.143.199.143.326s-.047.229-.143.313a.497.497 0 0 1-.338.124.436.436 0 0 1-.324-.124.42.42 0 0 1-.127-.313zm.14 1.252h.658v4.119h-.658v-4.119zm1.836 2.059c0-.696.154-1.23.465-1.602.313-.371.756-.556 1.34-.556.313 0 .574.051.809.151.227.102.416.248.563.438.148.189.26.417.328.684.072.268.107.563.107.885 0 .699-.154 1.232-.467 1.604-.313.371-.76.557-1.342.557-.309 0-.572-.052-.805-.152a1.429 1.429 0 0 1-.563-.438 1.783 1.783 0 0 1-.326-.684 3.367 3.367 0 0 1-.109-.887zm.681 0c0 .209.021.41.064.603.041.192.104.36.191.502a.965.965 0 0 0 .868.478c.746.006 1.119-.521 1.119-1.582 0-.213-.02-.416-.063-.608-.041-.192-.105-.358-.193-.502s-.203-.257-.346-.342a1.003 1.003 0 0 0-.521-.128c-.744-.007-1.119.519-1.119 1.579zm5.776.939a.511.511 0 0 0-.146-.387 1.348 1.348 0 0 0-.363-.234c-.146-.063-.311-.125-.48-.182s-.332-.132-.477-.223a1.182 1.182 0 0 1-.367-.351c-.102-.145-.146-.334-.146-.577 0-.395.109-.685.338-.869.227-.184.537-.275.938-.275a2.732 2.732 0 0 1 1.265.263l-.154.544a2.441 2.441 0 0 0-.457-.16 2.203 2.203 0 0 0-.572-.07c-.242 0-.42.041-.531.123-.109.084-.17.227-.17.43 0 .143.054.254.148.333s.221.151.365.214c.146.063.307.125.479.186.174.061.332.14.479.238.146.1.27.225.361.375.104.151.148.35.148.598 0 .176-.029.341-.086.494a1.039 1.039 0 0 1-.271.396c-.121.11-.271.196-.445.259a1.936 1.936 0 0 1-.635.096c-.313 0-.574-.03-.799-.09a2.73 2.73 0 0 1-.551-.215l.197-.56c.127.071.291.137.492.198.199.061.404.09.613.09.236 0 .438-.047.586-.139.163-.095.241-.263.241-.505zm-70.347-5.66a4.778 4.778 0 0 1-4.768-4.772c0-1.179.459-2.293 1.268-3.168h-6.063V96.99l-.438.445-1.285-1.96 11.479-8.462 11.479 8.511-1.748 1.812-1.131-.674v8.047l-5.52.088c.938.904 1.479 2.113 1.479 3.391a4.758 4.758 0 0 1-4.752 4.765zm-2.287-7.941c-1.039.775-1.658 1.933-1.658 3.168 0 2.182 1.771 3.958 3.945 3.958s3.939-1.771 3.939-3.954c0-1.346-.732-2.6-1.953-3.369l-.428.007-.004-.25-.246-.123.074-.503.828-.992-1.154-.002V93.56l-.889-.901-1.279 1.293v.643l.764 1.117-1.318 1.291v.326l1.318 1.36-1.07 1.238.684.651v2.187h-1.428l.758 1.168.084.514-.27.136c-.229.112-.438.24-.637.381v.05l-.06-.002zm-6.461-.817h6.201c.074-.053.154-.104.236-.152l-.752-1.158c-.104-.168-.176-.426-.053-.648.059-.107.209-.288.553-.288h1.012v-1.021l-.996-.949 1.098-1.26-1.033-1.063v-1.002l1.08-1.052-.521-.757v-1.23l2.1-2.115 1.703 1.726v8.909h.639c.236.008.521.109.643.375.109.248.045.529-.205.836l-.535.646 5.563-.09v-8.68l1.813 1.079.651-.679-10.243-7.598-10.375 7.646.307.466 1.127-1.15-.013 9.209z"/><path d="M181.479 112.086c-.814 0-1.479-.662-1.479-1.477s.662-1.479 1.479-1.479a1.479 1.479 0 0 1 0 2.956zm0-2.342a.866.866 0 0 0 0 1.732.86.86 0 0 0 .859-.866.858.858 0 0 0-.859-.866zm-14.922 4.558h3.141v.608h-2.455v1.969h2.289v.61h-2.289v2.578h-.686v-5.765zm4.193.394c0-.126.043-.235.127-.325a.427.427 0 0 1 .326-.137c.131 0 .244.045.338.137.094.09.145.198.145.325s-.049.229-.145.313a.493.493 0 0 1-.338.123.447.447 0 0 1-.326-.123.419.419 0 0 1-.127-.313zm.139 1.252h.656v4.119h-.656v-4.119zm4.711 4.119v-2.348c0-.429-.063-.751-.188-.968-.123-.217-.35-.326-.68-.326-.291 0-.531.078-.727.234a1.284 1.284 0 0 0-.396.59v2.816h-.66v-4.119h.463l.123.502h.033c.131-.176.309-.32.531-.433s.48-.168.795-.168c.225 0 .422.026.592.078a.899.899 0 0 1 .426.276c.111.131.197.309.254.53.063.224.088.504.088.845v2.487h-.654v.004zm4.672-.272a1.784 1.784 0 0 1-.584.276 2.648 2.648 0 0 1-.709.095c-.318 0-.59-.051-.813-.151a1.4 1.4 0 0 1-.541-.437 1.973 1.973 0 0 1-.305-.685 3.86 3.86 0 0 1-.094-.886c0-.697.148-1.231.461-1.603.309-.37.75-.556 1.326-.556.264 0 .482.021.672.063.184.041.35.1.498.176l-.189.568a1.853 1.853 0 0 0-.914-.232c-.775 0-1.17.527-1.17 1.582 0 .209.021.408.063.599.041.188.104.356.205.502.098.146.223.263.381.351.15.088.35.131.58.131.191 0 .375-.029.525-.09.156-.062.283-.129.387-.207l.221.504zm.84-3.541c.209-.127.451-.221.729-.28.277-.062.566-.091.869-.091.285 0 .52.039.688.115a.938.938 0 0 1 .396.301c.09.123.15.259.184.408.028.148.049.295.049.444 0 .33-.016.651-.025.964-.016.313-.021.609-.021.891 0 .203.01.396.021.576.017.182.047.35.09.502h-.48l-.174-.576h-.041c-.055.076-.109.152-.188.227a1.163 1.163 0 0 1-.27.198 1.861 1.861 0 0 1-.361.144 1.768 1.768 0 0 1-.471.059 1.35 1.35 0 0 1-.488-.083 1.228 1.228 0 0 1-.394-.235 1.25 1.25 0 0 1-.263-.365 1.2 1.2 0 0 1-.096-.486c0-.241.051-.443.146-.605.104-.162.237-.291.415-.387.184-.096.396-.165.646-.206.25-.042.521-.062.828-.062h.227c.081 0 .148.006.229.017.016-.165.021-.313.021-.445 0-.302-.061-.513-.182-.634s-.342-.182-.66-.182c-.092 0-.193.008-.301.021a3.177 3.177 0 0 0-.328.061 2.696 2.696 0 0 0-.322.093c-.1.036-.188.077-.268.122l-.205-.506zm1.169 3.303a1.251 1.251 0 0 0 .725-.219c.09-.063.162-.133.223-.211a.795.795 0 0 0 .129-.223v-.682a5.717 5.717 0 0 0-.234-.012c-.08-.004-.158-.004-.23-.004-.173 0-.338.01-.498.028a1.763 1.763 0 0 0-.432.106.758.758 0 0 0-.297.215.522.522 0 0 0-.107.342c0 .191.064.35.201.475.13.124.306.185.52.185zm5.249-5.199c.209-.038.449-.067.721-.091.271-.021.521-.033.744-.033a3 3 0 0 1 .721.083c.23.056.436.146.604.271.174.127.313.293.416.496.103.203.154.449.154.74 0 .45-.123.815-.367 1.096a1.799 1.799 0 0 1-.939.561l.396.305 1.434 2.282h-.799l-1.59-2.487-.813-.125v2.611h-.684l.002-5.709zm1.48.47h-.221a2.72 2.72 0 0 0-.223.008l-.203.017a1.163 1.163 0 0 0-.152.024v2.125h.646c.379 0 .688-.092.938-.279s.371-.479.371-.873a.961.961 0 0 0-.305-.732c-.205-.194-.488-.29-.851-.29zm3.205 1.426c.209-.127.451-.221.73-.28.271-.062.563-.091.867-.091.285 0 .516.039.688.115a.914.914 0 0 1 .396.301c.088.123.146.259.182.408.031.148.045.295.045.444 0 .33-.008.651-.021.964-.02.313-.021.609-.021.891 0 .203.008.396.021.576.018.182.049.35.094.502h-.488l-.174-.576h-.041a1.306 1.306 0 0 1-.188.227.984.984 0 0 1-.27.198 1.914 1.914 0 0 1-.361.144c-.139.038-.295.059-.471.059s-.338-.027-.49-.083c-.146-.056-.277-.134-.391-.235s-.195-.224-.26-.365a1.202 1.202 0 0 1-.1-.486c0-.241.053-.443.148-.605.098-.162.234-.291.416-.387.178-.096.393-.165.643-.206.248-.042.525-.062.826-.062h.229c.07 0 .146.006.227.017.021-.165.025-.313.025-.445 0-.302-.063-.513-.188-.634s-.34-.182-.654-.182c-.098 0-.191.008-.305.021a3.368 3.368 0 0 0-.644.154 1.63 1.63 0 0 0-.271.122l-.199-.506zm1.17 3.303a1.26 1.26 0 0 0 .725-.219.96.96 0 0 0 .219-.211.663.663 0 0 0 .127-.223v-.682a5.902 5.902 0 0 0-.23-.012c-.08-.004-.156-.004-.232-.004-.17 0-.336.01-.498.028a1.73 1.73 0 0 0-.428.106.738.738 0 0 0-.299.215.535.535 0 0 0-.109.342c0 .191.066.35.205.475.129.124.305.185.52.185zm3.121-3.609h.66v4.119h-.66v-4.119zm1.779 3.542l1.904-2.619.346-.347h-2.25v-.577h2.938v.577l-1.912 2.644-.338.321h2.25v.577h-2.938v-.576zm-90.229-.893l.194.874h.012l.214-.891 1.395-3.945h.688l-2.187 5.857h-.305l-2.229-5.857h.75l1.468 3.962zm5.642 1.474a1.852 1.852 0 0 1-.622.313 2.72 2.72 0 0 1-.795.115c-.313 0-.584-.052-.815-.152a1.401 1.401 0 0 1-.563-.438 1.858 1.858 0 0 1-.329-.68 3.427 3.427 0 0 1-.107-.891c0-.702.157-1.237.474-1.605.313-.367.763-.552 1.345-.552.188 0 .373.021.563.062.188.041.354.12.502.235.146.115.271.278.36.49.095.211.145.489.145.836 0 .181-.021.382-.054.601h-2.645c0 .242.021.456.072.643.051.188.127.346.229.475a.988.988 0 0 0 .407.297c.167.068.372.104.611.104.188 0 .374-.033.563-.1s.327-.143.42-.229l.239.476zm-1.417-3.311c-.323 0-.583.085-.778.255-.188.17-.312.461-.35.874h2.043c0-.417-.08-.71-.239-.877s-.384-.252-.676-.252zm5.241 3.64v-2.348c0-.215-.019-.402-.037-.563a1.03 1.03 0 0 0-.138-.403.603.603 0 0 0-.271-.242 1.003 1.003 0 0 0-.438-.083c-.263 0-.49.084-.698.251-.209.167-.35.383-.404.646v2.743h-.659v-5.766h.659v2.109h.033a1.59 1.59 0 0 1 .515-.408c.202-.103.449-.152.746-.152.23 0 .435.025.604.078a.907.907 0 0 1 .427.275c.106.133.188.31.247.531.052.223.076.504.076.844v2.488h-.662zm2.002-4.118h.657v4.119h-.657v-4.119zm4.876 3.847c-.165.121-.36.213-.585.275a2.636 2.636 0 0 1-.708.096c-.319 0-.588-.052-.813-.152a1.4 1.4 0 0 1-.54-.438 1.916 1.916 0 0 1-.305-.684 3.86 3.86 0 0 1-.095-.887c0-.696.148-1.23.462-1.602.308-.371.749-.556 1.326-.556.264 0 .481.021.671.062.184.041.351.101.498.178l-.189.567a1.904 1.904 0 0 0-.914-.232c-.775 0-1.17.527-1.17 1.582 0 .209.021.408.063.598.041.189.104.357.206.502.096.146.222.262.379.35.15.088.35.133.58.133.192 0 .375-.03.525-.092a1.63 1.63 0 0 0 .386-.205l.223.505zm1.499-3.847v2.349c0 .214.012.401.037.563.021.162.063.296.128.403.06.107.143.188.247.242a.81.81 0 0 0 .395.084c.148 0 .28-.023.396-.07.111-.046.221-.111.312-.193.09-.082.17-.177.238-.283.063-.107.125-.222.169-.342v-2.753h.659v2.949c0 .198.007.401.021.614.018.212.037.396.07.556h-.453l-.165-.651h-.041a1.637 1.637 0 0 1-.511.537c-.215.143-.486.213-.815.213-.22 0-.413-.025-.581-.078a.884.884 0 0 1-.42-.275 1.445 1.445 0 0 1-.255-.531 3.424 3.424 0 0 1-.087-.844v-2.489h.656zm4.579 3.106c0 .192.027.33.099.411.064.084.159.125.28.125.065 0 .146-.006.229-.018.083-.011.178-.035.28-.074l.074.52c-.088.044-.21.08-.366.107a2.573 2.573 0 0 1-.408.041c-.247 0-.45-.07-.605-.211-.157-.14-.237-.377-.237-.711v-4.942h.659l-.005 4.752zm1.44-1.046c0-.697.155-1.231.466-1.603.313-.37.76-.556 1.343-.556.309 0 .571.051.805.152.228.101.416.246.563.437s.261.417.328.685c.071.267.107.562.107.885 0 .697-.155 1.231-.466 1.603-.313.371-.758.556-1.34.556-.312 0-.574-.051-.808-.151a1.434 1.434 0 0 1-.563-.437 1.806 1.806 0 0 1-.329-.685 3.488 3.488 0 0 1-.106-.886zm.685 0c0 .209.021.408.063.602.041.192.105.36.193.502.088.143.203.258.346.346a.98.98 0 0 0 .521.133c.746.005 1.116-.522 1.116-1.582a2.83 2.83 0 0 0-.063-.609c-.041-.191-.105-.359-.193-.502s-.203-.257-.346-.342a1.003 1.003 0 0 0-.521-.128c-.743-.008-1.116.519-1.116 1.58zm5.773.938a.511.511 0 0 0-.146-.387 1.436 1.436 0 0 0-.366-.235 6.298 6.298 0 0 0-.479-.181 2.251 2.251 0 0 1-.478-.224 1.19 1.19 0 0 1-.367-.35c-.099-.145-.146-.334-.146-.576 0-.396.109-.686.34-.869.226-.185.538-.276.938-.276.296 0 .545.026.745.078s.375.114.523.188l-.157.544a2.39 2.39 0 0 0-.457-.16 2.236 2.236 0 0 0-.572-.07c-.238 0-.419.042-.527.124-.11.083-.171.226-.171.429 0 .143.052.254.146.333s.221.151.366.214.305.125.479.186a2.1 2.1 0 0 1 .479.238c.146.1.268.225.364.375.1.151.146.351.146.598 0 .176-.029.341-.087.494-.06.153-.146.285-.271.396-.117.11-.271.196-.443.259a1.954 1.954 0 0 1-.633.096c-.313 0-.577-.03-.803-.09a2.766 2.766 0 0 1-.552-.215l.197-.562c.127.071.291.137.494.198s.407.09.616.09c.232 0 .434-.047.587-.139.156-.096.235-.264.235-.506zm-18.133-4.825h.694v.164l-.787.998h-.367l.46-1.162zm76.981-.125h.688v.164l-.787.998h-.362l.461-1.162z"/></g></svg>