<svg xmlns="http://www.w3.org/2000/svg" width="303.5" height="131" viewBox="0 0 303.5 131"><path fill="#B92025" d="M76.632 15.712v16.251H51.9V15.712h7.42v-3.18h9.894v3.18zm38.556-3.118l-2.988 3.97s-.095-.23-.804-.168l-1.292.021-.762.525s-.516.71.623 1.009h1.137s-1.894 1.049-2.373 2.132c0 0-1.458 1.458-1.417 5.354 0 0 .061 2.497.614 4.499 0 0-.447 1.001-.259 1.23 0 0 .313.438 1.167.708 0 0 .479 1.021 2.521.833 0 0 1.167.063 1.604-.188l1.277.119 2.015-.562 11.443-.054 1.586.495 1.304-.103s3.438 1.021 4.146-.563c0 0 1.255-.338 1.114-.932l-.109-.912s.703-6.338-.25-8.307c0 0-.722-1.717-3.048-3.21l.783-.056s1.094-.328.875-.969c0 0-.078-.563-1.047-.75s-.063-.016-.063-.016l-1.813.047-.144.104-3.418-4.198-.469-.047-11.953-.011zm74.459 6.51l.167 8.667-6.084.021s2.98 2.396 1.646 5.667c0 0-2.416 4.375-6.375 1.75 0 0-3.479-2.146-1.292-6.021l.771-1.208-6.291.042.125-8.75-1.042.958-.729-1.354 10.938-7.917 10.875 8.021-1.25 1.333-1.459-1.209zm51.791-9.354s-2.188.156-2.188 1.188l-.063 1.25-1.219.688s-1.5-1.156-3.531-.188c0 0-.563.313-.438 1.656l-.031.313-3.625 1.594V28.97l10.813 5.594 10.281-5.719-.313-11.875-.124-.032-2.703-1.303-.047-1.541.125-.531s-.438-1.125-2.469-.969l-1.406.469-1.125-.75-.063-1.656c.001-.001-.062-.657-1.874-.907z"/><path fill="#FFF" d="M69.214 15.712v-3.18H59.32v3.18H51.9v16.251h24.731V15.712h-7.417zm-9.118-2.405h8.41v2.405h-8.41v-2.405zm15.831 3.111v4.593h-8.834V19.99c0-.138-.396-.463-.547-.463H61.85c-.152 0-.409.325-.409.463v1.021h-8.833v-4.593h23.319zm-9.541 3.949v1.991c0 .1-.008.066-.12.066H62.55c-.111 0-.403.034-.403-.066v-1.991c0-.1.292-.063.403-.063h3.716c.113.001.12-.037.12.063zM52.608 31.256v-9.539h8.833v1.016c0 .139.257.397.409.397h5.116c.151 0 .126-.258.126-.397v-1.016h8.834v9.539H52.608zm59.614 1.465h-2.042a1.428 1.428 0 0 1-1.358-.983.354.354 0 0 1 .397-.46c1.242.213 3.314.55 3.592.55h.001c.272 0 .408.188.408.363 0 .49-.988.53-.998.53zm21.22 0h-2.041c-.01 0-.99-.121-.99-.602 0-.195.195-.368.395-.368.298 0 2.369-.315 3.605-.515a.355.355 0 0 1 .393.461c-.198.602-.758 1.024-1.362 1.024z"/><path fill="#FFF" d="M114.236 32.64l-.021-.001c-2.326-.136-6.281-.518-6.628-1.558a.354.354 0 0 1 .003-.234l.336-.911c-.188-.663-1.022-3.921-.378-7.413.013-.099.403-2.877 3.502-4.547l.052-.025h-1.137c-.248-.019-.688-.181-.765-.668a.353.353 0 0 1 .142-.341l.645-.475a.367.367 0 0 1 .211-.069h1.701c.125 0 .238.065.301.166l2.858-3.821a.354.354 0 0 1 .284-.142h12.137c.108 0 .21.049.277.133l3.271 4.12a.354.354 0 0 1 .294-.157h1.853c.047 0 .094.01.137.028.332.14.879.442.836.895-.038.413-.563.718-.787.83a.37.37 0 0 1-.156.038l-.768.005.133.085c.755.472 3.229 2.207 3.363 4.695.013.137.328 3.676-.197 6.737l.153 1.017a.356.356 0 0 1-.08.282c-.142.168-1.121 1.016-6.407 1.226a.301.301 0 0 1-.121-.016l-1.586-.495-11.443.054-1.914.55a.515.515 0 0 1-.101.012zm-5.917-1.718c.468.387 3.049.836 5.877 1.005l1.904-.547a.338.338 0 0 1 .096-.014l11.553-.054c.035 0 .07.005.105.016l1.579.493c3.981-.164 5.339-.702 5.721-.909l-.128-.855a.335.335 0 0 1 .001-.114c.522-2.979.2-6.583.197-6.62-.122-2.215-2.546-3.842-3.032-4.146-.869-.545-1.087-.743-1.133-.791a.354.354 0 0 1 .025-.516.332.332 0 0 1-.188-.101l-.202-.206-3.384-4.255h-11.79l-2.965 3.962a.353.353 0 0 1-.182.128l-.153.045c.03.063.04.134.03.205-.091.599-.811.929-.893.965-2.753 1.486-3.105 3.995-3.109 4.021-.679 3.672.379 7.176.391 7.211a.367.367 0 0 1-.006.227l-.314.85zm23.066-13.136l.344.001 1.382-.01c.107-.061.215-.136.28-.196a1.936 1.936 0 0 0-.293-.176h-1.529l-.09.242a.35.35 0 0 1-.094.139zm-21.07-.679l-.184.135 1.478-.001a.566.566 0 0 1-.008-.04l-.013-.094h-1.273z"/><path fill="#FFF" d="M130.052 18.636h-.004l-17.08-.202a.354.354 0 0 1-.282-.564l2.984-4.083a.351.351 0 0 1 .287-.146h10.885c.109 0 .217.053.283.142l3.17 4.232a.36.36 0 0 1 .12.267.353.353 0 0 1-.363.354zm-16.387-.904l15.672.186-2.672-3.568h-10.527l-2.473 3.382zm.15 7.789a.34.34 0 0 1-.045-.003l-4.432-.583-.545.129a.362.362 0 0 1-.306-.068l-.537-.431a.356.356 0 0 1-.12-.361l.57-2.345a.353.353 0 0 1 .167-.223.348.348 0 0 1 .276-.034l4.764 1.379a.357.357 0 0 1 .252.283l.305 1.844a.352.352 0 0 1-.096.305.345.345 0 0 1-.253.108zm-4.495-1.3c.018 0 .031.001.046.003l4.021.529-.189-1.152-4.191-1.214-.434 1.766.228.181.438-.104a.38.38 0 0 1 .081-.009zm20.56 1.3a.356.356 0 0 1-.353-.413l.306-1.844a.351.351 0 0 1 .25-.283l4.653-1.378a.354.354 0 0 1 .446.256l.572 2.345a.364.364 0 0 1-.121.361l-.539.431c-.085.068-.197.093-.303.068l-.545-.129-4.322.583c-.014.003-.029.003-.044.003zm.618-1.922l-.19 1.152 3.912-.526a.34.34 0 0 1 .127.006l.44.104.228-.181-.432-1.764-4.085 1.209zm-16.431 8.19c-.014 0-.023 0-.039-.002-5.289-.576-5.545-1.05-5.629-1.206-.015-.027-.023-.056-.033-.085-.008-.035-.203-.868-.437-2.89a.353.353 0 0 1 .461-.378l5.122 1.648c.06.019.113.053.154.1l1.521 1.684a.355.355 0 0 1-.076.539l-.857.537a.355.355 0 0 1-.187.053zm-5.035-1.57c.483.241 2.86.617 4.95.849l.396-.248-1.176-1.298-4.506-1.449c.156 1.217.285 1.896.336 2.146zm20.525 1.57a.352.352 0 0 1-.189-.054l-.856-.538a.354.354 0 0 1-.075-.538l1.521-1.684a.364.364 0 0 1 .152-.1l5.123-1.648a.353.353 0 0 1 .46.378c-.23 2.021-.43 2.855-.437 2.89a.653.653 0 0 1-.033.085c-.084.155-.34.63-5.628 1.206-.013.003-.026.003-.038.003zm-.314-.968l.396.248c2.089-.232 4.467-.608 4.949-.849.052-.25.181-.93.333-2.146l-4.504 1.449-1.174 1.298z"/><path fill="#FFF" d="M127.175 31.646l-10.71-.036a.35.35 0 0 1-.216-.075l-.88-.681a.375.375 0 0 1-.132-.221l-1.201-7.056a.363.363 0 0 1 .162-.361l1.004-.626a.295.295 0 0 1 .189-.054l13.196.036a.36.36 0 0 1 .228.082l.858.717a.354.354 0 0 1 .122.338l-1.36 7.27a.354.354 0 0 1-.214.263l-.914.376a.31.31 0 0 1-.132.028zm-10.586-.745l10.517.035.67-.276 1.286-6.876-.601-.501-12.97-.035-.715.446 1.139 6.685.674.522z"/><g fill="#FFF"><path d="M241.008 35.172l-11.168-5.899V16.029l4.041-1.855.391.857-3.432 1.6v12.075L241 34.095l9.84-5.385V17.061l-2.543-1.427.504-.823 3.039 1.697v12.761zm2.549-23.144l1.232.712-.355.615-1.232-.712zm-4.451-.152l.316.637-1.305.65-.317-.637z"/><path d="M241.17 22.86l-10.726-6.223.357-.614 10.373 6.019 9.738-5.545.354.616z"/><path d="M240.84 22h1v13h-1zm-4.711-7.567c-1.309 0-2.293-.498-2.293-1.159s.984-1.159 2.293-1.159c1.307 0 2.295.498 2.295 1.159s-.988 1.159-2.295 1.159zm0-1.896c-1.059 0-1.848.39-1.848.737s.789.737 1.848.737c1.057 0 1.846-.389 1.846-.737s-.789-.737-1.846-.737zm2.276 3.758c0 .66-.994 1.158-2.289 1.158-1.297 0-2.271-.499-2.271-1.159h.441c0 .348.783.736 1.83.736s1.828-.389 1.828-.736l.461.001z"/><path d="M237.944 13.387h.469v2.914h-.469zm-4.102-.046h.436v2.96h-.436zm12.52 1.374c-1.307 0-2.295-.499-2.295-1.159s.988-1.159 2.295-1.159c1.309 0 2.295.499 2.295 1.159-.001.66-.987 1.159-2.295 1.159zm0-1.897c-1.057 0-1.846.39-1.846.737 0 .348.789.737 1.846.737s1.848-.389 1.848-.737c-.003-.347-.792-.737-1.848-.737zm2.275 3.758c0 .661-.992 1.158-2.289 1.158-1.295 0-2.271-.498-2.271-1.159h.443c0 .348.783.737 1.828.737 1.047 0 1.83-.389 1.83-.737l.459.001z"/><path d="M248.176 13.669h.469v2.914h-.469zm-4.102-.046h.438v2.96h-.438zm-2.757 4.064c-1.309 0-2.295-.499-2.295-1.159s.986-1.159 2.295-1.159 2.293.499 2.293 1.159-.987 1.159-2.293 1.159zm0-1.896c-1.057 0-1.848.389-1.848.737s.791.737 1.848.737 1.846-.389 1.846-.737c-.001-.348-.792-.737-1.846-.737zm2.273 3.757c0 .66-.992 1.158-2.287 1.158-1.297 0-2.273-.499-2.273-1.159h.443c0 .348.783.737 1.83.737s1.828-.389 1.828-.737l.459.001z"/><path d="M243.129 16.641h.469v2.914h-.469zm-4.099-.047h.436v2.96h-.436zm2.287-4.639c-1.309 0-2.295-.498-2.295-1.159s.986-1.159 2.295-1.159 2.293.498 2.293 1.159-.987 1.159-2.293 1.159zm0-1.896c-1.057 0-1.848.39-1.848.737 0 .348.791.737 1.848.737s1.846-.389 1.846-.737c-.003-.348-.792-.737-1.846-.737zm2.273 3.757c0 .661-.992 1.158-2.287 1.158-1.297 0-2.273-.498-2.273-1.159h.443c0 .348.783.737 1.83.737s1.828-.389 1.828-.737l.459.001z"/><path d="M243.129 10.909h.469v2.914h-.469zm-4.099-.047h.436v2.96h-.436z"/></g><path d="M51.16 37.405h3.141v.609h-2.455v1.887h2.249v.609h-2.249v2.051h2.495v.609H51.16v-5.765zm6.764 5.766V40.84c0-.22-.012-.411-.029-.573s-.056-.298-.11-.408a.57.57 0 0 0-.233-.247.841.841 0 0 0-.399-.083.894.894 0 0 0-.63.231 1.227 1.227 0 0 0-.351.577v2.833h-.66v-4.119h.462l.123.502h.033c.146-.176.318-.32.515-.433.195-.112.449-.168.763-.168.265 0 .479.051.646.152.167.102.298.279.391.531.127-.214.301-.382.523-.502.223-.121.474-.181.754-.181.229 0 .425.026.585.078a.815.815 0 0 1 .395.276c.104.132.183.31.229.536.047.225.07.51.07.854v2.471h-.661V40.69c0-.198-.012-.369-.028-.515a.952.952 0 0 0-.115-.363.544.544 0 0 0-.237-.214.961.961 0 0 0-.399-.07c-.274 0-.489.077-.643.231-.154.154-.266.374-.329.659v2.751h-.662v.002h-.003zm4.273-4.118h.453l.124.494h.033a1.25 1.25 0 0 1 .49-.44c.2-.102.429-.152.688-.152.549 0 .958.162 1.229.486.269.324.401.854.401 1.59 0 .346-.045.658-.136.937a2.06 2.06 0 0 1-.383.704 1.69 1.69 0 0 1-.598.445 1.877 1.877 0 0 1-.778.156c-.203 0-.364-.012-.481-.037a2.006 2.006 0 0 1-.384-.128v1.713h-.659v-5.768zm1.664.477c-.277 0-.501.073-.663.219s-.273.366-.342.663v2.042c.102.077.212.136.338.177s.294.062.503.062c.379 0 .682-.142.901-.424.223-.283.334-.699.334-1.248 0-.225-.021-.43-.058-.614-.039-.184-.103-.34-.188-.469s-.195-.229-.329-.301a1.035 1.035 0 0 0-.496-.107zm3.526 2.628c0 .192.033.33.099.412a.336.336 0 0 0 .28.124c.071 0 .148-.006.229-.017.083-.011.178-.036.28-.074l.074.519c-.088.044-.21.08-.366.107a2.46 2.46 0 0 1-.408.041.882.882 0 0 1-.607-.21c-.159-.14-.239-.377-.239-.712v-4.942h.659v4.752zm4.679.684a1.852 1.852 0 0 1-.622.313c-.25.077-.515.115-.795.115-.313 0-.584-.051-.813-.152a1.452 1.452 0 0 1-.568-.437 1.899 1.899 0 0 1-.329-.68 3.421 3.421 0 0 1-.106-.89c0-.703.156-1.238.471-1.606.313-.368.761-.552 1.343-.552.188 0 .373.021.562.062.188.041.354.12.503.235.146.115.27.279.36.49.095.211.143.49.143.836 0 .181-.019.382-.052.601h-2.645c0 .242.025.456.074.643.05.187.127.345.229.474a.997.997 0 0 0 .407.297c.167.068.372.103.613.103.188 0 .374-.033.561-.099a1.19 1.19 0 0 0 .42-.23l.244.477zm-1.417-3.312c-.323 0-.583.085-.778.255-.192.17-.312.461-.35.874h2.043c0-.417-.08-.71-.239-.877-.158-.167-.385-.252-.676-.252zm2.275 1.582c0-.697.153-1.231.466-1.602.311-.371.756-.556 1.339-.556.307 0 .575.051.803.152.229.101.416.247.564.437.146.19.258.417.329.684.069.267.105.562.105.885 0 .698-.153 1.232-.466 1.603-.311.371-.756.556-1.338.556-.308 0-.576-.051-.804-.152a1.437 1.437 0 0 1-.564-.437 1.91 1.91 0 0 1-.329-.684 3.535 3.535 0 0 1-.105-.886zm.683 0c0 .209.021.409.063.602.041.192.104.36.191.502a.966.966 0 0 0 .868.478c.746.005 1.12-.522 1.12-1.582 0-.214-.021-.417-.063-.609-.041-.192-.104-.359-.191-.502s-.203-.257-.346-.342a1.003 1.003 0 0 0-.521-.128c-.747-.006-1.121.521-1.121 1.581zm160.051.255l.199.874h.008l.213-.89 1.395-3.946h.684l-2.182 5.857h-.305l-2.227-5.857h.75l1.465 3.962zm2.637-2.01c.209-.126.449-.22.729-.28.277-.061.566-.091.869-.091.285 0 .516.039.688.115a.955.955 0 0 1 .396.301c.09.124.15.259.18.408.031.149.047.296.047.445 0 .33-.01.651-.023.964a15.45 15.45 0 0 0-.025.89c0 .203.008.396.025.577.016.181.047.349.09.502h-.486l-.172-.577h-.041a1.345 1.345 0 0 1-.186.227c-.076.075-.164.14-.27.198a1.753 1.753 0 0 1-.361.144 1.77 1.77 0 0 1-.471.058c-.176 0-.34-.027-.488-.083a1.179 1.179 0 0 1-.393-.235 1.149 1.149 0 0 1-.26-.366 1.194 1.194 0 0 1-.096-.486c0-.241.051-.443.146-.605.102-.162.238-.291.416-.387.18-.096.395-.165.645-.206.25-.042.523-.062.828-.062h.227c.077 0 .148.006.227.017.018-.165.025-.313.025-.445 0-.302-.061-.513-.182-.634s-.344-.181-.66-.181a2.36 2.36 0 0 0-.301.021 3.345 3.345 0 0 0-.65.153c-.1.036-.189.078-.268.123l-.205-.505zm1.17 3.304a1.222 1.222 0 0 0 .725-.219.977.977 0 0 0 .346-.433v-.686a7.794 7.794 0 0 0-.466-.016c-.17 0-.336.01-.498.029-.162.02-.305.055-.428.107a.747.747 0 0 0-.297.214.524.524 0 0 0-.111.342c0 .192.068.35.205.474a.732.732 0 0 0 .524.188zm4.926-2.974a1.475 1.475 0 0 0-.469-.083c-.236 0-.424.065-.563.194a.844.844 0 0 0-.256.49v2.883h-.658v-4.119h.461l.123.502h.033c.105-.188.23-.331.375-.433a.95.95 0 0 1 .557-.152c.158 0 .34.028.535.083l-.138.635zm.857-1.886c0-.126.043-.235.127-.326.086-.09.191-.136.324-.136s.244.045.338.136a.432.432 0 0 1 .143.326.395.395 0 0 1-.143.313c-.094.083-.205.124-.338.124s-.238-.041-.324-.124a.422.422 0 0 1-.127-.313zm.141 1.252h.658v4.119h-.658v-4.119zm1.836 2.059c0-.697.154-1.231.465-1.602.313-.371.756-.556 1.34-.556.309 0 .574.051.805.152.227.101.416.247.563.437.148.19.258.417.328.684.072.267.107.562.107.885 0 .698-.154 1.232-.467 1.603-.311.371-.756.556-1.338.556-.309 0-.576-.051-.805-.152s-.416-.247-.564-.437a1.874 1.874 0 0 1-.326-.684 3.356 3.356 0 0 1-.108-.886zm.681 0c0 .209.021.409.064.602.041.192.104.36.191.502a.966.966 0 0 0 .868.478c.746.005 1.119-.522 1.119-1.582 0-.214-.02-.417-.063-.609-.041-.192-.105-.359-.193-.502s-.203-.257-.346-.342a1 1 0 0 0-.52-.128c-.745-.006-1.12.521-1.12 1.581zm5.776.939a.505.505 0 0 0-.148-.387 1.277 1.277 0 0 0-.363-.235 5.79 5.79 0 0 0-.48-.181 2.196 2.196 0 0 1-.477-.223 1.19 1.19 0 0 1-.367-.35c-.102-.145-.148-.334-.148-.577 0-.395.113-.685.338-.869.227-.184.537-.276.939-.276.295 0 .545.026.744.078.201.052.375.114.521.185l-.154.544a2.438 2.438 0 0 0-1.029-.231c-.242 0-.42.042-.531.124-.113.083-.17.226-.17.429 0 .143.051.254.148.333s.221.151.365.214c.146.063.307.125.479.185.174.061.332.14.479.239.146.099.27.224.365.375.1.151.148.35.148.597 0 .176-.029.341-.086.494a1.01 1.01 0 0 1-.27.396c-.121.11-.271.196-.449.259s-.389.095-.631.095c-.313 0-.578-.03-.799-.09a2.587 2.587 0 0 1-.551-.214l.197-.56c.127.071.291.137.492.198.203.061.408.091.617.091.236 0 .434-.047.586-.14.157-.093.235-.261.235-.503z" fill="#FFF"/><g fill="#FFF"><path d="M181.334 36.391a4.775 4.775 0 0 1-4.764-4.773c0-1.178.459-2.293 1.264-3.168h-6.063v-8.022l-.438.445-1.285-1.96 11.482-8.462 11.477 8.511-1.748 1.812-1.131-.674v8.047l-5.516.088c.938.904 1.479 2.112 1.479 3.39a4.765 4.765 0 0 1-4.757 4.766zm-2.287-7.942c-1.039.775-1.658 1.933-1.658 3.168a3.956 3.956 0 0 0 3.945 3.958 3.951 3.951 0 0 0 3.943-3.954c0-1.345-.736-2.599-1.953-3.369l-.428.007-.004-.25-.246-.123.074-.503.828-.993-1.154-.002v-9.391l-.889-.901-1.279 1.292v.643l.764 1.117-1.322 1.291v.326l1.322 1.361-1.074 1.238.684.652v2.186h-1.428l.758 1.168.084.514-.27.135a4.623 4.623 0 0 0-.633.382v.049l-.064-.001zm-6.461-.816h6.201a4.89 4.89 0 0 1 .24-.153l-.752-1.158c-.105-.168-.176-.425-.053-.648.059-.107.209-.288.553-.288h1.008v-1.021l-.996-.949 1.098-1.26-1.033-1.061v-1.002l1.08-1.052-.521-.757v-1.23l2.1-2.116 1.703 1.726v8.909h.639c.236.008.518.11.639.375.113.249.045.53-.205.836l-.535.646 5.564-.089V18.66l1.809 1.079.654-.678-10.246-7.598-10.375 7.646.307.466 1.127-1.15-.006 9.208z"/><path d="M181.416 35.524a1.48 1.48 0 0 1-1.479-1.477 1.48 1.48 0 0 1 2.956 0c0 .815-.662 1.477-1.477 1.477zm0-2.342a.865.865 0 1 0 0 1.73.865.865 0 0 0 0-1.73z"/></g><path d="M166.494 37.739h3.141v.609h-2.455v1.969h2.289v.61h-2.289v2.578h-.686v-5.766zm4.194.395c0-.126.043-.235.127-.326a.43.43 0 0 1 .326-.136c.131 0 .244.045.338.136s.141.199.141.326a.4.4 0 0 1-.141.313.493.493 0 0 1-.338.124.447.447 0 0 1-.326-.124.42.42 0 0 1-.127-.313zm.138 1.252h.66v4.119h-.66v-4.119zm4.711 4.119v-2.348c0-.428-.061-.751-.186-.968-.123-.217-.35-.326-.68-.326-.291 0-.531.079-.723.235-.188.157-.32.353-.396.589v2.817h-.66v-4.119h.463l.123.502h.033a1.49 1.49 0 0 1 .531-.433 1.74 1.74 0 0 1 .795-.168c.225 0 .422.026.592.078a.899.899 0 0 1 .426.276c.111.131.197.309.254.531.061.223.088.504.088.844v2.488h-.658v.002h-.002zm4.672-.272a1.784 1.784 0 0 1-.584.276 2.648 2.648 0 0 1-.709.095c-.318 0-.59-.051-.809-.152a1.386 1.386 0 0 1-.541-.437 1.897 1.897 0 0 1-.305-.684 3.854 3.854 0 0 1-.094-.886c0-.697.152-1.231.461-1.602.309-.371.75-.556 1.326-.556.264 0 .486.021.672.062.184.041.35.1.498.177l-.189.568a1.808 1.808 0 0 0-.42-.169 1.91 1.91 0 0 0-.494-.063c-.779 0-1.17.527-1.17 1.582 0 .209.021.408.063.598.041.189.107.357.205.502.098.146.223.262.381.35.154.088.35.132.58.132.195 0 .375-.03.529-.091.156-.061.283-.129.383-.206l.217.504zm.84-3.542c.209-.126.451-.22.729-.28.277-.061.566-.091.869-.091.285 0 .516.039.688.115a.955.955 0 0 1 .396.301c.09.124.15.259.18.408.031.149.049.296.049.445 0 .33-.012.651-.025.964-.016.313-.025.609-.025.89 0 .203.01.396.025.577.014.181.047.349.09.502h-.484l-.174-.577h-.041a1.345 1.345 0 0 1-.186.227c-.076.075-.164.14-.27.198a1.753 1.753 0 0 1-.361.144 1.77 1.77 0 0 1-.471.058c-.176 0-.34-.027-.488-.083a1.179 1.179 0 0 1-.393-.235 1.149 1.149 0 0 1-.26-.366 1.194 1.194 0 0 1-.096-.486c0-.241.051-.443.146-.605.102-.162.238-.291.416-.387.18-.096.395-.165.645-.206.25-.042.523-.062.828-.062h.227c.077 0 .148.006.229.017.016-.165.023-.313.023-.445 0-.302-.061-.513-.182-.634s-.342-.181-.66-.181a2.36 2.36 0 0 0-.301.021 3.457 3.457 0 0 0-.65.153c-.1.036-.188.078-.268.123l-.205-.505zm1.17 3.303a1.222 1.222 0 0 0 .725-.219.977.977 0 0 0 .219-.21.824.824 0 0 0 .129-.223v-.682a8.309 8.309 0 0 0-.468-.016c-.17 0-.336.01-.498.029-.162.02-.305.055-.428.107a.747.747 0 0 0-.297.214.524.524 0 0 0-.111.342c0 .192.068.35.205.474a.743.743 0 0 0 .524.184zm5.248-5.198c.209-.038.449-.068.721-.091.271-.021.521-.033.744-.033a3 3 0 0 1 .721.083c.23.055.432.146.604.271.174.126.313.292.416.495s.154.45.154.741c0 .45-.123.815-.367 1.096-.248.28-.563.467-.939.56l.396.305 1.434 2.282h-.799l-1.59-2.488-.811-.124v2.611h-.684v-5.708zm1.481.47h-.221c-.078 0-.152.002-.223.008l-.203.016a.886.886 0 0 0-.152.025v2.125h.645c.379 0 .691-.093.938-.28.248-.187.371-.478.371-.873a.965.965 0 0 0-.305-.733c-.204-.192-.487-.288-.85-.288zm3.205 1.425c.209-.126.451-.22.73-.28.273-.061.564-.091.867-.091.285 0 .516.039.688.115a.955.955 0 0 1 .396.301c.09.124.148.259.182.408.031.149.045.296.045.445 0 .33-.008.651-.025.964-.016.313-.021.609-.021.89 0 .203.008.396.021.577.018.181.049.349.094.502h-.488l-.174-.577h-.041a1.27 1.27 0 0 1-.188.227c-.072.075-.162.14-.268.198s-.227.105-.361.144c-.139.038-.295.058-.471.058s-.338-.027-.49-.083c-.148-.055-.281-.133-.391-.235s-.195-.224-.26-.366a1.194 1.194 0 0 1-.096-.486c0-.241.049-.443.148-.605.098-.162.234-.291.416-.387.178-.096.393-.165.643-.206.248-.042.525-.062.826-.062h.229c.074 0 .148.006.227.017.018-.165.025-.313.025-.445 0-.302-.063-.513-.184-.634s-.34-.181-.658-.181a2.36 2.36 0 0 0-.301.021 3.614 3.614 0 0 0-.33.06 2.951 2.951 0 0 0-.318.093 1.581 1.581 0 0 0-.27.123l-.202-.505zm1.17 3.303a1.222 1.222 0 0 0 .725-.219.977.977 0 0 0 .346-.433v-.682a8.309 8.309 0 0 0-.466-.016c-.17 0-.336.01-.498.029-.162.02-.305.055-.428.107a.754.754 0 0 0-.299.214.535.535 0 0 0-.109.342c0 .192.066.35.205.474a.743.743 0 0 0 .524.184zm3.121-3.608h.66v4.119h-.66v-4.119zm1.779 3.542l1.904-2.62.346-.346h-2.25v-.577h2.934v.577l-1.912 2.644-.338.321h2.25v.577h-2.934v-.576zm-90.23-.894l.198.874h.008l.214-.89 1.395-3.946h.684l-2.183 5.857h-.305l-2.227-5.857h.75l1.466 3.962zm5.643 1.475a1.852 1.852 0 0 1-.622.313c-.25.077-.515.115-.795.115a2.02 2.02 0 0 1-.815-.152 1.438 1.438 0 0 1-.566-.437 1.866 1.866 0 0 1-.329-.68 3.42 3.42 0 0 1-.107-.89c0-.703.157-1.238.47-1.606.313-.368.763-.552 1.345-.552.187 0 .373.021.561.062.188.041.354.12.502.235.148.115.271.279.362.49.094.211.141.49.141.836 0 .181-.017.382-.05.601h-2.645c0 .242.023.456.072.643.052.187.127.345.231.474a.997.997 0 0 0 .407.297c.167.068.372.103.611.103.188 0 .374-.033.563-.099a1.2 1.2 0 0 0 .42-.23l.244.477zm-1.417-3.312c-.323 0-.583.085-.778.255-.192.17-.312.461-.35.874h2.043c0-.417-.08-.71-.239-.877s-.385-.252-.676-.252zm5.24 3.641V41.49c0-.214-.015-.402-.037-.563a1.024 1.024 0 0 0-.138-.403.613.613 0 0 0-.268-.243 1.006 1.006 0 0 0-.44-.083c-.259 0-.49.084-.698.251a1.115 1.115 0 0 0-.404.646v2.743h-.659v-5.766h.659v2.109h.033c.143-.17.313-.306.515-.408s.449-.152.746-.152c.23 0 .431.026.601.078a.902.902 0 0 1 .427.276c.11.132.192.309.247.531.052.223.076.504.076.844v2.488h-.66zm2.002-4.118h.657v4.119h-.657V39.72zm4.876 3.846a1.8 1.8 0 0 1-.585.276 2.63 2.63 0 0 1-.708.095c-.319 0-.588-.051-.81-.152a1.39 1.39 0 0 1-.54-.437 1.864 1.864 0 0 1-.305-.684 3.852 3.852 0 0 1-.095-.886c0-.697.152-1.231.462-1.602.308-.371.749-.556 1.326-.556.264 0 .485.021.671.062.184.041.351.1.498.177l-.189.568a1.904 1.904 0 0 0-.914-.232c-.779 0-1.17.527-1.17 1.582 0 .209.021.408.063.598.041.189.107.357.206.502.096.146.222.262.379.35.154.088.35.132.58.132a1.516 1.516 0 0 0 .912-.297l.219.504zm1.499-3.846v2.348c0 .214.012.402.037.564.022.162.065.296.128.403.06.107.143.188.247.243a.833.833 0 0 0 .395.083c.148 0 .28-.023.396-.07.115-.046.221-.111.312-.193.09-.083.17-.177.238-.284.066-.107.125-.221.169-.342V39.72h.659v2.949c0 .198.007.402.021.614.014.212.037.397.07.556h-.453l-.165-.651h-.041a1.643 1.643 0 0 1-.511.536c-.215.143-.486.214-.815.214-.22 0-.413-.026-.581-.078-.167-.052-.308-.144-.42-.276s-.197-.309-.255-.531a3.424 3.424 0 0 1-.087-.844V39.72h.656zm4.579 3.105c0 .192.031.33.099.412.064.083.159.124.28.124a1.345 1.345 0 0 0 .509-.091l.074.519c-.088.044-.21.08-.366.107a2.46 2.46 0 0 1-.408.041.888.888 0 0 1-.609-.21c-.157-.14-.237-.377-.237-.712v-4.942h.659v4.752zm1.441-1.046c0-.697.155-1.231.466-1.602.313-.371.756-.556 1.339-.556.309 0 .575.051.805.152.228.101.416.247.563.437.148.19.258.417.329.684s.107.562.107.885c0 .698-.155 1.232-.466 1.603-.313.371-.758.556-1.34.556-.308 0-.574-.051-.804-.152a1.434 1.434 0 0 1-.563-.437 1.862 1.862 0 0 1-.329-.684 3.442 3.442 0 0 1-.107-.886zm.684 0c0 .209.021.409.063.602.041.192.105.36.193.502.088.142.203.258.346.346s.315.132.52.132c.746.005 1.12-.522 1.12-1.582 0-.214-.021-.417-.063-.609-.041-.192-.105-.359-.193-.502s-.203-.257-.346-.342a1.003 1.003 0 0 0-.521-.128c-.746-.006-1.119.521-1.119 1.581zm5.774.939a.511.511 0 0 0-.146-.387 1.323 1.323 0 0 0-.366-.235c-.146-.063-.307-.124-.479-.181s-.333-.132-.478-.223a1.19 1.19 0 0 1-.367-.35c-.099-.145-.148-.334-.148-.577 0-.395.113-.685.34-.869.226-.184.538-.276.938-.276.296 0 .545.026.745.078.2.052.375.114.523.187l-.157.544a2.388 2.388 0 0 0-.457-.161 2.236 2.236 0 0 0-.572-.07c-.241 0-.419.042-.531.124-.11.083-.169.226-.169.429 0 .143.05.254.148.333.098.079.221.151.366.214s.305.125.479.185c.173.061.332.14.479.239.146.099.268.224.364.375.1.151.148.35.148.597 0 .176-.029.341-.087.494a1 1 0 0 1-.27.396 1.31 1.31 0 0 1-.446.259 1.92 1.92 0 0 1-.633.095c-.313 0-.577-.03-.799-.09a2.62 2.62 0 0 1-.552-.214l.197-.561c.127.071.291.137.494.198s.407.091.616.091c.236 0 .434-.047.587-.14.154-.094.233-.262.233-.504z" fill="#FFF"/><g fill="#FFF"><path d="M69.214 92.811v-3.18H59.32v3.18H51.9v16.252h24.731V92.811h-7.417zm-9.118-2.405h8.41v2.404h-8.41v-2.404zm15.831 3.112v4.593h-8.834V97.09c0-.138-.396-.463-.547-.463H61.85c-.152 0-.409.325-.409.463v1.021h-8.833v-4.593h23.319zm-9.541 3.948v1.991c0 .1-.008.066-.12.066H62.55c-.111 0-.403.033-.403-.066v-1.991c0-.1.292-.063.403-.063h3.716c.113.001.12-.037.12.063zm-13.778 10.889v-9.539h8.833v1.016c0 .139.257.396.409.396h5.116c.151 0 .126-.258.126-.396v-1.016h8.834v9.539H52.608zm59.614 1.465h-2.042a1.428 1.428 0 0 1-1.358-.983.354.354 0 0 1 .397-.46c1.242.213 3.314.551 3.592.551h.001c.272 0 .408.188.408.362 0 .49-.988.53-.998.53zm21.22 0h-2.041c-.01 0-.99-.121-.99-.602 0-.195.195-.369.395-.369.298 0 2.369-.314 3.605-.515a.355.355 0 0 1 .393.461c-.198.603-.758 1.025-1.362 1.025z"/><path d="M114.236 109.739l-.021-.001c-2.326-.137-6.281-.518-6.628-1.559a.351.351 0 0 1 .003-.233l.336-.911c-.188-.663-1.022-3.921-.378-7.413.013-.099.403-2.877 3.502-4.547.017-.008.034-.017.052-.024h-1.137c-.248-.02-.688-.182-.765-.669a.353.353 0 0 1 .142-.341l.645-.475a.367.367 0 0 1 .211-.069h1.701c.125 0 .238.065.301.166l2.858-3.821a.354.354 0 0 1 .284-.142h12.137c.108 0 .21.049.277.133l3.271 4.12a.352.352 0 0 1 .294-.157h1.853c.047 0 .094.011.137.028.332.14.879.441.836.895-.038.413-.563.719-.787.83a.37.37 0 0 1-.156.038l-.768.005c.042.027.087.055.133.086.755.472 3.229 2.207 3.363 4.694.013.138.328 3.676-.197 6.737l.153 1.017a.356.356 0 0 1-.08.282c-.142.168-1.121 1.016-6.407 1.227a.32.32 0 0 1-.121-.017l-1.586-.495-11.443.055-1.914.549a.515.515 0 0 1-.101.012zm-5.917-1.718c.468.387 3.049.836 5.877 1.005l1.904-.548a.377.377 0 0 1 .096-.014l11.553-.054a.32.32 0 0 1 .105.017l1.579.492c3.981-.164 5.339-.701 5.721-.908l-.128-.855a.335.335 0 0 1 .001-.114c.522-2.979.2-6.583.197-6.62-.122-2.215-2.546-3.842-3.032-4.146-.869-.546-1.087-.743-1.133-.791a.354.354 0 0 1 .025-.517.332.332 0 0 1-.188-.101l-.202-.206-3.384-4.255h-11.79l-2.965 3.962a.359.359 0 0 1-.182.128l-.153.045c.03.063.04.134.03.205-.091.599-.811.929-.893.965-2.753 1.486-3.105 3.995-3.109 4.021-.679 3.672.379 7.176.391 7.211a.367.367 0 0 1-.006.227l-.314.851zm23.066-13.136l.344.002 1.382-.011c.107-.062.215-.136.28-.196a2.022 2.022 0 0 0-.293-.176h-1.529l-.09.242a.337.337 0 0 1-.094.139zm-21.07-.679l-.184.135 1.478-.001a.678.678 0 0 1-.008-.039l-.013-.095h-1.273z"/><path d="M130.052 95.735h-.004l-17.08-.202a.354.354 0 0 1-.282-.564l2.984-4.082a.348.348 0 0 1 .287-.146h10.885c.109 0 .217.053.283.142l3.17 4.232a.36.36 0 0 1 .12.267.353.353 0 0 1-.354.354l-.009-.001zm-16.387-.904l15.672.187-2.672-3.568h-10.527l-2.473 3.381zm.15 7.789a.34.34 0 0 1-.045-.003l-4.432-.583-.545.129a.369.369 0 0 1-.306-.067l-.537-.432a.356.356 0 0 1-.12-.361l.57-2.345a.353.353 0 0 1 .167-.223.348.348 0 0 1 .276-.034l4.764 1.379a.357.357 0 0 1 .252.283l.305 1.844a.35.35 0 0 1-.096.305.345.345 0 0 1-.253.108zm-4.495-1.3c.018 0 .031.001.046.003l4.021.528-.189-1.151-4.191-1.214-.434 1.766.228.182.438-.104a.327.327 0 0 1 .081-.01zm20.56 1.3a.356.356 0 0 1-.353-.413l.306-1.844a.35.35 0 0 1 .25-.283l4.653-1.378a.354.354 0 0 1 .446.256l.572 2.345a.363.363 0 0 1-.121.361l-.539.432a.358.358 0 0 1-.303.067l-.545-.129-4.322.583c-.014.003-.029.003-.044.003zm.618-1.922l-.19 1.151 3.912-.525a.34.34 0 0 1 .127.006l.44.104.228-.181-.432-1.764-4.085 1.209zm-16.431 8.191c-.014 0-.023 0-.039-.002-5.289-.576-5.545-1.051-5.629-1.207-.015-.026-.023-.056-.033-.084-.008-.035-.203-.869-.437-2.891a.35.35 0 0 1 .128-.314.352.352 0 0 1 .333-.063l5.122 1.647c.06.02.113.054.154.101l1.521 1.685a.352.352 0 0 1-.076.538l-.857.537a.365.365 0 0 1-.187.053zm-5.035-1.571c.483.24 2.86.617 4.95.849l.396-.248-1.176-1.298-4.506-1.449c.156 1.217.285 1.896.336 2.146zm20.525 1.571a.353.353 0 0 1-.189-.055l-.856-.538a.352.352 0 0 1-.075-.538l1.521-1.684a.364.364 0 0 1 .152-.1l5.123-1.648a.35.35 0 0 1 .333.063.348.348 0 0 1 .127.315c-.23 2.021-.43 2.854-.437 2.89a.669.669 0 0 1-.033.086c-.084.154-.34.629-5.628 1.205a.126.126 0 0 1-.038.004zm-.314-.969l.396.248c2.089-.232 4.467-.607 4.949-.849.052-.25.181-.931.333-2.146l-4.504 1.449-1.174 1.298z"/><path d="M127.175 108.745l-10.71-.036a.355.355 0 0 1-.216-.074l-.88-.682a.375.375 0 0 1-.132-.221l-1.201-7.057a.363.363 0 0 1 .162-.361l1.004-.625a.296.296 0 0 1 .189-.055l13.196.036a.36.36 0 0 1 .228.082l.858.718a.353.353 0 0 1 .122.338l-1.36 7.27a.354.354 0 0 1-.214.263l-.914.376a.31.31 0 0 1-.132.028zM116.589 108l10.517.035.67-.275 1.286-6.877-.601-.501-12.97-.034-.715.445 1.139 6.686.674.521zm124.419 4.271l-11.168-5.899V93.128l4.041-1.855.391.857-3.432 1.6v12.075l10.16 5.389 9.84-5.385V94.16l-2.543-1.427.504-.823 3.039 1.697v12.761zm2.549-23.145l1.232.712-.355.615-1.232-.712zm-4.456-.16l.317.637-1.306.649-.316-.637z"/><path d="M241.17 99.959l-10.726-6.223.357-.614 10.373 6.019 9.738-5.545.354.616z"/><path d="M240.84 99.1h1v13h-1zm-4.711-7.568c-1.309 0-2.293-.498-2.293-1.159s.984-1.159 2.293-1.159c1.307 0 2.295.498 2.295 1.159s-.988 1.159-2.295 1.159zm0-1.895c-1.059 0-1.848.39-1.848.736 0 .348.789.737 1.848.737 1.057 0 1.846-.39 1.846-.737s-.789-.736-1.846-.736zm2.276 3.758c0 .66-.994 1.158-2.289 1.158-1.297 0-2.271-.5-2.271-1.16h.441c0 .349.783.736 1.83.736s1.828-.389 1.828-.736l.461.002z"/><path d="M237.944 90.486h.469V93.4h-.469zm-4.102-.047h.436V93.4h-.436zm12.52 1.375c-1.307 0-2.295-.5-2.295-1.159 0-.66.988-1.159 2.295-1.159 1.309 0 2.295.499 2.295 1.159-.001.659-.987 1.159-2.295 1.159zm0-1.897c-1.057 0-1.846.39-1.846.737s.789.736 1.846.736 1.848-.389 1.848-.736c-.003-.347-.792-.737-1.848-.737zm2.275 3.759c0 .66-.992 1.157-2.289 1.157-1.295 0-2.271-.498-2.271-1.159h.443c0 .348.783.737 1.828.737 1.047 0 1.83-.39 1.83-.737l.459.002z"/><path d="M248.176 90.768h.469v2.914h-.469zm-4.102-.045h.438v2.959h-.438zm-2.757 4.063c-1.309 0-2.295-.499-2.295-1.159s.986-1.158 2.295-1.158 2.293.498 2.293 1.158-.987 1.159-2.293 1.159zm0-1.895c-1.057 0-1.848.389-1.848.736s.791.737 1.848.737 1.846-.39 1.846-.737-.792-.736-1.846-.736zm2.273 3.755c0 .66-.992 1.158-2.287 1.158-1.297 0-2.273-.498-2.273-1.158h.443c0 .348.783.736 1.83.736s1.828-.389 1.828-.736h.459z"/><path d="M243.129 93.74h.469v2.914h-.469zm-4.099-.047h.436v2.96h-.436zm2.287-4.638c-1.309 0-2.295-.498-2.295-1.16 0-.66.986-1.158 2.295-1.158s2.293.498 2.293 1.158c0 .662-.987 1.16-2.293 1.16zm0-1.897c-1.057 0-1.848.39-1.848.736 0 .349.791.737 1.848.737s1.846-.389 1.846-.737c-.003-.347-.792-.736-1.846-.736zm2.273 3.757c0 .661-.992 1.158-2.287 1.158-1.297 0-2.273-.498-2.273-1.159h.443c0 .348.783.737 1.83.737s1.828-.39 1.828-.737l.459.001z"/><path d="M243.129 88.008h.469v2.914h-.469zm-4.099-.047h.436v2.96h-.436zM51.16 114.504h3.141v.609h-2.455V117h2.249v.609h-2.249v2.051h2.495v.609H51.16v-5.765zm6.764 5.766v-2.33c0-.221-.012-.411-.029-.573s-.056-.298-.11-.408a.57.57 0 0 0-.233-.247.841.841 0 0 0-.399-.083.894.894 0 0 0-.63.231 1.229 1.229 0 0 0-.351.576v2.834h-.66v-4.119h.462l.123.502h.033c.146-.176.318-.32.515-.434.195-.111.449-.168.763-.168.265 0 .479.051.646.152s.298.279.391.531c.127-.215.301-.383.523-.502.223-.121.474-.182.754-.182.229 0 .425.026.585.078a.829.829 0 0 1 .395.276c.104.132.183.31.229.536.047.225.07.51.07.854v2.472h-.661v-2.479c0-.198-.012-.369-.028-.515a.952.952 0 0 0-.115-.363.538.538 0 0 0-.237-.214.961.961 0 0 0-.399-.07c-.274 0-.489.077-.643.231-.154.153-.266.374-.329.659v2.75h-.662v.002h-.003zm4.273-4.118h.453l.124.494h.033c.126-.192.289-.34.49-.44.2-.103.429-.151.688-.151.549 0 .958.161 1.229.485.269.324.401.854.401 1.59 0 .347-.045.658-.136.937a2.047 2.047 0 0 1-.383.703 1.678 1.678 0 0 1-.598.445 1.877 1.877 0 0 1-.778.156c-.203 0-.364-.012-.481-.037a1.939 1.939 0 0 1-.384-.128v1.713h-.659v-5.767zm1.664.477c-.277 0-.501.073-.663.219-.162.146-.273.366-.342.664v2.041c.102.077.212.137.338.178s.294.062.503.062c.379 0 .682-.142.901-.424.223-.283.334-.699.334-1.248 0-.226-.021-.431-.058-.614-.039-.184-.103-.34-.188-.469s-.195-.229-.329-.301a1.023 1.023 0 0 0-.496-.108zm3.526 2.628c0 .192.033.33.099.412a.336.336 0 0 0 .28.124c.071 0 .148-.006.229-.017.083-.011.178-.036.28-.074l.074.519c-.088.045-.21.08-.366.107a2.46 2.46 0 0 1-.408.041c-.247 0-.448-.07-.607-.21s-.239-.377-.239-.712v-4.942h.659v4.752zm4.679.684a1.852 1.852 0 0 1-.622.313c-.25.077-.515.115-.795.115-.313 0-.584-.051-.813-.152a1.443 1.443 0 0 1-.568-.437 1.895 1.895 0 0 1-.329-.681 3.421 3.421 0 0 1-.106-.89c0-.703.156-1.237.471-1.606.313-.367.761-.551 1.343-.551.188 0 .373.021.562.062.188.041.354.12.503.235.146.114.27.278.36.489.095.212.143.49.143.837 0 .18-.019.381-.052.601h-2.645c0 .241.025.456.074.643.05.187.127.345.229.474a1 1 0 0 0 .407.298c.167.067.372.103.613.103.188 0 .374-.033.561-.099.188-.066.327-.144.42-.23l.244.476zm-1.417-3.312c-.323 0-.583.085-.778.256-.192.17-.312.461-.35.873h2.043c0-.417-.08-.71-.239-.877-.158-.167-.385-.252-.676-.252zm2.275 1.582c0-.697.153-1.23.466-1.602.311-.371.756-.557 1.339-.557.307 0 .575.051.803.152.229.102.416.247.564.438.146.189.258.416.329.684.069.268.105.563.105.885 0 .698-.153 1.232-.466 1.604-.311.371-.756.556-1.338.556-.308 0-.576-.051-.804-.151a1.448 1.448 0 0 1-.564-.438 1.91 1.91 0 0 1-.329-.684 3.55 3.55 0 0 1-.105-.887zm.683 0c0 .209.021.409.063.602.041.192.104.36.191.502a.966.966 0 0 0 .868.479c.746.005 1.12-.521 1.12-1.582 0-.214-.021-.417-.063-.609a1.62 1.62 0 0 0-.191-.502 1.01 1.01 0 0 0-.346-.342 1.003 1.003 0 0 0-.521-.128c-.747-.007-1.121.52-1.121 1.58zm160.051.255l.199.874h.008l.213-.89 1.395-3.946h.684l-2.182 5.857h-.305l-2.227-5.857h.75l1.465 3.962zm2.637-2.01c.209-.126.449-.22.729-.28.277-.061.566-.091.869-.091.285 0 .516.039.688.115a.955.955 0 0 1 .396.301c.09.124.15.259.18.408.031.149.047.296.047.444 0 .33-.01.651-.023.965a15.45 15.45 0 0 0-.025.89c0 .203.008.396.025.577.016.181.047.35.09.502h-.486l-.172-.577h-.041a1.39 1.39 0 0 1-.186.228 1.19 1.19 0 0 1-.27.197 1.754 1.754 0 0 1-.361.145 1.77 1.77 0 0 1-.471.058c-.176 0-.34-.026-.488-.083a1.193 1.193 0 0 1-.393-.234 1.172 1.172 0 0 1-.26-.366 1.2 1.2 0 0 1-.096-.486c0-.241.051-.442.146-.604.102-.162.238-.291.416-.387.18-.097.395-.166.645-.207s.523-.062.828-.062h.227c.077 0 .148.006.227.017.018-.164.025-.313.025-.445 0-.301-.061-.513-.182-.633-.121-.121-.344-.182-.66-.182a3.073 3.073 0 0 0-.629.081 2.989 2.989 0 0 0-.322.093c-.1.036-.189.078-.268.123l-.205-.507zm1.17 3.304c.152 0 .291-.021.412-.062.121-.042.225-.095.313-.157s.162-.133.219-.21a.764.764 0 0 0 .127-.223v-.686a7.794 7.794 0 0 0-.466-.016c-.17 0-.336.01-.498.028a1.685 1.685 0 0 0-.428.107.757.757 0 0 0-.297.214.525.525 0 0 0-.111.343c0 .191.068.35.205.474a.732.732 0 0 0 .524.188zm4.926-2.974a1.447 1.447 0 0 0-.469-.083c-.236 0-.424.064-.563.193a.85.85 0 0 0-.256.49v2.883h-.658v-4.118h.461l.123.502h.033c.105-.188.23-.331.375-.433.146-.103.332-.152.557-.152.158 0 .34.027.535.083l-.138.635zm.857-1.886c0-.126.043-.235.127-.326.086-.09.191-.137.324-.137s.244.046.338.137c.096.091.143.199.143.326s-.047.229-.143.313c-.094.083-.205.124-.338.124s-.238-.041-.324-.124a.422.422 0 0 1-.127-.313zm.141 1.252h.658v4.119h-.658v-4.119zm1.836 2.059c0-.697.154-1.23.465-1.602.313-.371.756-.557 1.34-.557.309 0 .574.051.805.152.227.102.416.247.563.438.148.189.258.416.328.684.072.268.107.563.107.885 0 .698-.154 1.232-.467 1.604-.311.371-.756.556-1.338.556-.309 0-.576-.051-.805-.151a1.448 1.448 0 0 1-.564-.438 1.874 1.874 0 0 1-.326-.684 3.369 3.369 0 0 1-.108-.887zm.681 0c0 .209.021.409.064.602.041.192.104.36.191.502a.966.966 0 0 0 .868.479c.746.005 1.119-.521 1.119-1.582 0-.214-.02-.417-.063-.609a1.597 1.597 0 0 0-.193-.502 1.01 1.01 0 0 0-.346-.342 1 1 0 0 0-.52-.128c-.745-.007-1.12.52-1.12 1.58zm5.776.939a.503.503 0 0 0-.148-.387 1.236 1.236 0 0 0-.363-.235 5.79 5.79 0 0 0-.48-.181 2.246 2.246 0 0 1-.477-.224 1.19 1.19 0 0 1-.367-.35c-.102-.145-.148-.335-.148-.577 0-.395.113-.686.338-.869.227-.184.537-.275.939-.275.295 0 .545.025.744.077.201.052.375.114.521.185l-.154.545a2.438 2.438 0 0 0-1.029-.231c-.242 0-.42.042-.531.124-.113.083-.17.227-.17.43 0 .143.051.254.148.332.098.08.221.151.365.215.146.063.307.125.479.185.174.062.332.14.479.239.146.099.27.224.365.375.1.15.148.35.148.597 0 .177-.029.341-.086.494a1.018 1.018 0 0 1-.27.396c-.121.11-.271.196-.449.26a1.896 1.896 0 0 1-.631.095c-.313 0-.578-.03-.799-.09a2.642 2.642 0 0 1-.551-.214l.197-.561c.127.071.291.137.492.198.203.062.408.091.617.091.236 0 .434-.047.586-.14.157-.093.235-.261.235-.504zm-70.348-5.66a4.775 4.775 0 0 1-4.764-4.773c0-1.178.459-2.293 1.264-3.168h-6.063v-8.022l-.438.444-1.285-1.959 11.482-8.463 11.477 8.512-1.748 1.812-1.131-.674v8.047l-5.516.088c.938.904 1.479 2.112 1.479 3.39a4.765 4.765 0 0 1-4.757 4.766zm-2.287-7.942c-1.039.775-1.658 1.933-1.658 3.168a3.956 3.956 0 0 0 3.945 3.958 3.951 3.951 0 0 0 3.943-3.953c0-1.346-.736-2.6-1.953-3.369l-.428.007-.004-.25-.246-.123.074-.503.828-.993-1.154-.002v-9.392l-.889-.9-1.279 1.292v.643l.764 1.117-1.322 1.291v.326l1.322 1.36-1.074 1.238.684.652v2.186h-1.428l.758 1.168.084.515-.27.135a4.525 4.525 0 0 0-.633.382v.049l-.064-.002zm-6.461-.816h6.201a4.89 4.89 0 0 1 .24-.153l-.752-1.158c-.105-.168-.176-.425-.053-.647.059-.107.209-.288.553-.288h1.008v-1.021l-.996-.948 1.098-1.261-1.033-1.061v-1.002l1.08-1.052-.521-.758v-1.23l2.1-2.116 1.703 1.726v8.909h.639c.236.009.518.11.639.375.113.249.045.53-.205.836l-.535.646 5.564-.089v-8.682l1.809 1.079.654-.678-10.246-7.599-10.375 7.646.307.466 1.127-1.149-.006 9.209z"/><path d="M181.416 112.623a1.48 1.48 0 0 1-1.479-1.477 1.48 1.48 0 0 1 1.479-1.479 1.478 1.478 0 1 1 0 2.956zm0-2.342c-.479 0-.865.388-.865.865s.389.867.865.867c.479 0 .863-.39.863-.867s-.384-.865-.863-.865zm-14.922 4.557h3.141v.609h-2.455v1.969h2.289v.61h-2.289v2.577h-.686v-5.765zm4.194.395c0-.126.043-.235.127-.326a.43.43 0 0 1 .326-.136c.131 0 .244.045.338.136s.141.198.141.326a.4.4 0 0 1-.141.313.493.493 0 0 1-.338.124.447.447 0 0 1-.326-.124.42.42 0 0 1-.127-.313zm.138 1.252h.66v4.118h-.66v-4.118zm4.711 4.119v-2.348c0-.428-.061-.751-.186-.968-.123-.217-.35-.326-.68-.326-.291 0-.531.079-.723.235-.188.156-.32.354-.396.589v2.817h-.66v-4.119h.463l.123.502h.033c.131-.176.309-.32.531-.434.223-.111.484-.168.795-.168.225 0 .422.026.592.078a.906.906 0 0 1 .426.276c.111.131.197.309.254.53.061.224.088.505.088.845v2.487h-.658v.002h-.002zm4.672-.272a1.784 1.784 0 0 1-.584.276 2.648 2.648 0 0 1-.709.095c-.318 0-.59-.051-.809-.152a1.377 1.377 0 0 1-.541-.437 1.887 1.887 0 0 1-.305-.685 3.854 3.854 0 0 1-.094-.886c0-.696.152-1.231.461-1.602.309-.371.75-.556 1.326-.556.264 0 .486.021.672.062.184.041.35.1.498.177l-.189.568a1.766 1.766 0 0 0-.42-.169 1.91 1.91 0 0 0-.494-.063c-.779 0-1.17.527-1.17 1.582 0 .209.021.408.063.598s.107.357.205.502c.098.146.223.263.381.351.154.088.35.132.58.132.195 0 .375-.029.529-.091.156-.062.283-.129.383-.206l.217.504zm.84-3.542c.209-.126.451-.22.729-.28s.566-.091.869-.091c.285 0 .516.039.688.115a.955.955 0 0 1 .396.301c.09.124.15.259.18.408.031.149.049.296.049.444 0 .33-.012.651-.025.965-.016.313-.025.609-.025.89 0 .203.01.396.025.577.014.182.047.35.09.502h-.484l-.174-.577h-.041a1.39 1.39 0 0 1-.186.228 1.19 1.19 0 0 1-.27.197 1.754 1.754 0 0 1-.361.145 1.77 1.77 0 0 1-.471.058c-.176 0-.34-.026-.488-.083a1.193 1.193 0 0 1-.393-.234 1.172 1.172 0 0 1-.26-.366 1.2 1.2 0 0 1-.096-.486c0-.241.051-.442.146-.604.102-.162.238-.291.416-.387.18-.097.395-.166.645-.207s.523-.062.828-.062h.227c.077 0 .148.006.229.017.016-.164.023-.313.023-.445 0-.301-.061-.512-.182-.633s-.342-.182-.66-.182a2.36 2.36 0 0 0-.301.021 3.167 3.167 0 0 0-.65.153c-.1.036-.188.078-.268.123l-.205-.507zm1.17 3.304a1.251 1.251 0 0 0 .725-.22.977.977 0 0 0 .219-.21.809.809 0 0 0 .129-.223v-.682a5.69 5.69 0 0 0-.966.011 1.685 1.685 0 0 0-.428.107.749.749 0 0 0-.297.215.52.52 0 0 0-.111.342c0 .191.068.35.205.474a.74.74 0 0 0 .524.186zm5.248-5.199c.209-.037.449-.067.721-.09.271-.021.521-.033.744-.033a3 3 0 0 1 .721.082 1.7 1.7 0 0 1 .604.271c.174.126.313.292.416.495s.154.45.154.741c0 .449-.123.814-.367 1.096-.248.28-.563.467-.939.561l.396.305 1.434 2.281h-.799l-1.59-2.487-.811-.124v2.611h-.684v-5.709zm1.481.47h-.221c-.078 0-.152.002-.223.008l-.203.016a.997.997 0 0 0-.152.025v2.125h.645c.379 0 .691-.093.938-.279.248-.188.371-.479.371-.873 0-.298-.102-.541-.305-.733s-.487-.289-.85-.289zm3.205 1.425c.209-.126.451-.22.73-.28.273-.061.564-.091.867-.091.285 0 .516.039.688.115a.955.955 0 0 1 .396.301c.09.124.148.259.182.408.031.149.045.296.045.444 0 .33-.008.651-.025.965-.016.313-.021.609-.021.89 0 .203.008.396.021.577.018.182.049.35.094.502h-.488l-.174-.577h-.041a1.31 1.31 0 0 1-.456.425 1.777 1.777 0 0 1-.361.145c-.139.038-.295.058-.471.058s-.338-.026-.49-.083a1.184 1.184 0 0 1-.391-.234 1.172 1.172 0 0 1-.26-.366 1.2 1.2 0 0 1-.096-.486c0-.241.049-.442.148-.604.098-.162.234-.291.416-.387.178-.097.393-.166.643-.207.248-.041.525-.062.826-.062h.229c.074 0 .148.006.227.017.018-.164.025-.313.025-.445 0-.301-.063-.512-.184-.633s-.34-.182-.658-.182a2.36 2.36 0 0 0-.301.021 3.302 3.302 0 0 0-.648.153 1.581 1.581 0 0 0-.27.123l-.202-.507zm1.17 3.304a1.222 1.222 0 0 0 .725-.22.977.977 0 0 0 .346-.433v-.682a5.69 5.69 0 0 0-.466-.017c-.17 0-.336.01-.498.028a1.685 1.685 0 0 0-.428.107.756.756 0 0 0-.299.215.53.53 0 0 0-.109.342c0 .191.066.35.205.474a.74.74 0 0 0 .524.186zm3.121-3.609h.66v4.118h-.66v-4.118zm1.779 3.542l1.904-2.62.346-.347h-2.25v-.576h2.934v.576l-1.912 2.645-.338.321h2.25v.577h-2.934v-.576zm-90.23-.894l.198.874h.008l.214-.89 1.395-3.946h.684l-2.183 5.857h-.305l-2.227-5.857h.75l1.466 3.962zm5.643 1.475c-.164.132-.372.235-.622.313s-.515.115-.795.115c-.313 0-.584-.051-.815-.151a1.45 1.45 0 0 1-.566-.438 1.866 1.866 0 0 1-.329-.68 3.433 3.433 0 0 1-.107-.891c0-.703.157-1.238.47-1.605.313-.368.763-.553 1.345-.553.187 0 .373.021.561.063.188.041.354.12.502.234.148.115.271.279.362.49.094.211.141.49.141.836 0 .182-.017.383-.05.602h-2.645c0 .242.023.456.072.643.052.188.127.346.231.475a.997.997 0 0 0 .407.297c.167.068.372.103.611.103.188 0 .374-.032.563-.099a1.2 1.2 0 0 0 .42-.23l.244.476zm-1.417-3.312c-.323 0-.583.085-.778.255-.192.17-.312.461-.35.875h2.043c0-.418-.08-.711-.239-.878s-.385-.252-.676-.252zm5.24 3.642v-2.349a4.17 4.17 0 0 0-.037-.563 1.024 1.024 0 0 0-.138-.403.613.613 0 0 0-.268-.243 1.006 1.006 0 0 0-.44-.083c-.259 0-.49.084-.698.251a1.118 1.118 0 0 0-.404.646v2.743h-.659v-5.767h.659v2.109h.033c.143-.17.313-.306.515-.408s.449-.151.746-.151c.23 0 .431.025.601.077a.902.902 0 0 1 .427.276c.11.132.192.309.247.531.052.223.076.504.076.844v2.488h-.66v.002zm2.002-4.119h.657v4.118h-.657v-4.118zm4.876 3.846a1.8 1.8 0 0 1-.585.276 2.63 2.63 0 0 1-.708.095c-.319 0-.588-.051-.81-.151a1.401 1.401 0 0 1-.54-.438c-.14-.189-.241-.417-.305-.684s-.095-.563-.095-.887c0-.697.152-1.23.462-1.602.308-.371.749-.557 1.326-.557.264 0 .485.021.671.063.184.041.351.1.498.177l-.189.568a1.904 1.904 0 0 0-.914-.232c-.779 0-1.17.527-1.17 1.582 0 .209.021.408.063.599.041.188.107.356.206.502.096.146.222.262.379.35.154.088.35.132.58.132a1.516 1.516 0 0 0 .912-.297l.219.504zm1.499-3.846v2.348c0 .214.012.402.037.563.022.162.065.297.128.404a.6.6 0 0 0 .247.242.833.833 0 0 0 .395.083c.148 0 .28-.022.396-.069s.221-.111.312-.193c.09-.083.17-.178.238-.284.066-.106.125-.221.169-.342v-2.752h.659v2.948c0 .198.007.402.021.614s.037.397.07.556h-.453l-.165-.65h-.041a1.643 1.643 0 0 1-.511.536c-.215.143-.486.214-.815.214-.22 0-.413-.025-.581-.078a.899.899 0 0 1-.42-.275 1.343 1.343 0 0 1-.255-.531 3.424 3.424 0 0 1-.087-.844v-2.489h.656zm4.579 3.105c0 .192.031.33.099.412.064.083.159.124.28.124a1.411 1.411 0 0 0 .509-.091l.074.52a1.36 1.36 0 0 1-.366.106 2.573 2.573 0 0 1-.408.041.888.888 0 0 1-.609-.21c-.157-.141-.237-.377-.237-.712v-4.942h.659v4.752zm1.441-1.046c0-.696.155-1.231.466-1.602.313-.371.756-.556 1.339-.556.309 0 .575.051.805.151.228.101.416.247.563.437.148.19.258.418.329.685s.107.562.107.885c0 .698-.155 1.232-.466 1.603-.313.371-.758.557-1.34.557-.308 0-.574-.051-.804-.152a1.425 1.425 0 0 1-.563-.437 1.851 1.851 0 0 1-.329-.685 3.442 3.442 0 0 1-.107-.886zm.684 0c0 .209.021.409.063.603.041.191.105.359.193.502.088.142.203.258.346.346s.315.132.52.132c.746.005 1.12-.522 1.12-1.582 0-.214-.021-.417-.063-.608a1.578 1.578 0 0 0-.193-.502.985.985 0 0 0-.346-.342.994.994 0 0 0-.521-.129c-.746-.007-1.119.52-1.119 1.58zm5.774.939a.515.515 0 0 0-.146-.388 1.298 1.298 0 0 0-.366-.234 6.288 6.288 0 0 0-.479-.182 2.182 2.182 0 0 1-.478-.223 1.19 1.19 0 0 1-.367-.35c-.099-.145-.148-.334-.148-.577 0-.396.113-.685.34-.869.226-.185.538-.276.938-.276.296 0 .545.026.745.078.2.053.375.114.523.187l-.157.544a2.388 2.388 0 0 0-.457-.161 2.236 2.236 0 0 0-.572-.07c-.241 0-.419.042-.531.124-.11.083-.169.227-.169.43 0 .143.05.254.148.332a1.6 1.6 0 0 0 .366.215c.145.063.305.125.479.185.173.062.332.14.479.239.146.099.268.224.364.375.1.15.148.35.148.597 0 .177-.029.341-.087.494-.06.153-.146.286-.27.396-.12.11-.271.196-.446.26a1.92 1.92 0 0 1-.633.095c-.313 0-.577-.03-.799-.09a2.675 2.675 0 0 1-.552-.214l.197-.561c.127.071.291.137.494.198s.407.091.616.091c.236 0 .434-.047.587-.14.154-.095.233-.263.233-.505z"/></g><path fill="#FFF" d="M120.181 37.893h.694v.164l-.787.998h-.367l.46-1.162zm76.98-.125h.692v.164l-.787.998h-.366l.461-1.162z"/></svg>