<svg xmlns="http://www.w3.org/2000/svg" width="303.5" height="131" viewBox="0 0 303.5 131"><path fill="#B92025" d="M76.632 15.712v16.251H51.9V15.712h7.42v-3.18h9.894v3.18zm38.556-3.118l-2.986 3.97s-.097-.23-.806-.168l-1.292.021-.762.525s-.516.71.623 1.009h1.137s-1.894 1.049-2.373 2.132c0 0-1.458 1.458-1.417 5.354 0 0 .063 2.497.614 4.499 0 0-.447 1.001-.259 1.23 0 0 .313.438 1.167.708 0 0 .479 1.021 2.521.833 0 0 1.167.063 1.604-.188l1.275.119 2.017-.562 11.441-.054 1.586.495 1.306-.103s3.438 1.021 4.146-.563c0 0 1.255-.338 1.114-.932l-.109-.912s.703-6.338-.25-8.307c0 0-.722-1.717-3.048-3.21l.783-.056s1.094-.328.875-.969c0 0-.078-.563-1.047-.75s-.063-.016-.063-.016l-1.813.047-.146.104-3.418-4.198-.469-.047-11.951-.011zm74.459 6.51l.167 8.667-6.084.021s2.98 2.396 1.646 5.667c0 0-2.416 4.375-6.375 1.75 0 0-3.479-2.146-1.292-6.021l.771-1.208-6.291.042.125-8.75-1.042.958-.729-1.354 10.938-7.917 10.875 8.021-1.25 1.333-1.459-1.209zm51.791-9.354s-2.188.156-2.188 1.188l-.063 1.25-1.219.688s-1.5-1.156-3.531-.188c0 0-.563.313-.438 1.656l-.031.313-3.625 1.594V28.97l10.813 5.594 10.281-5.719-.313-11.875-.124-.032-2.703-1.303-.047-1.541.125-.531s-.438-1.125-2.471-.969l-1.404.469-1.125-.75-.063-1.656c.001-.001-.062-.657-1.874-.907z"/><path fill="#FFF" d="M69.214 15.712v-3.18H59.32v3.18H51.9v16.251h24.731V15.712h-7.417zm-9.118-2.405h8.41v2.405h-8.41v-2.405zm15.831 3.111v4.593h-8.834V19.99c0-.138-.396-.463-.547-.463H61.85c-.152 0-.409.325-.409.463v1.021h-8.833v-4.593h23.319zm-9.541 3.949v1.991c0 .1-.008.066-.12.066H62.55c-.111 0-.403.034-.403-.066v-1.991c0-.1.292-.063.403-.063h3.716c.113.001.12-.037.12.063zM52.608 31.256v-9.539h8.833v1.016c0 .139.257.397.409.397h5.116c.151 0 .126-.258.126-.397v-1.016h8.834v9.539H52.608zm59.614 1.465h-2.042a1.428 1.428 0 0 1-1.358-.983.36.36 0 0 1 .068-.342.357.357 0 0 1 .329-.118c1.242.213 3.314.55 3.592.55h.001c.272 0 .408.188.408.363 0 .49-.988.53-.998.53zm21.22 0h-2.041c-.01 0-.988-.121-.988-.602 0-.195.193-.368.395-.368.298 0 2.369-.315 3.605-.515a.352.352 0 0 1 .391.461c-.198.602-.758 1.024-1.362 1.024z"/><path fill="#FFF" d="M114.236 32.64l-.021-.001c-2.326-.136-6.281-.518-6.628-1.558a.354.354 0 0 1 .003-.234l.336-.911c-.188-.663-1.022-3.921-.378-7.413.013-.099.403-2.877 3.502-4.547l.052-.025h-1.137c-.248-.019-.688-.181-.765-.668a.35.35 0 0 1 .142-.341l.645-.475a.371.371 0 0 1 .211-.069h1.701a.36.36 0 0 1 .303.166l2.856-3.821a.354.354 0 0 1 .284-.142h12.137c.108 0 .21.049.277.133l3.271 4.12a.357.357 0 0 1 .294-.157h1.854c.047 0 .094.01.137.028.332.14.879.442.836.895-.038.413-.563.718-.787.83a.368.368 0 0 1-.154.038l-.77.005.133.085c.756.472 3.229 2.207 3.363 4.695.013.137.328 3.676-.197 6.737l.153 1.017a.356.356 0 0 1-.08.282c-.142.168-1.121 1.016-6.407 1.226a.301.301 0 0 1-.121-.016l-1.586-.495-11.441.054-1.914.55a.573.573 0 0 1-.104.012zm-5.917-1.718c.47.387 3.051.836 5.877 1.005l1.904-.547a.338.338 0 0 1 .096-.014l11.555-.054c.035 0 .068.005.104.016l1.579.493c3.981-.164 5.339-.702 5.721-.909l-.128-.855a.335.335 0 0 1 .001-.114c.522-2.979.2-6.583.197-6.62-.122-2.215-2.546-3.842-3.032-4.146-.869-.545-1.087-.743-1.133-.791a.354.354 0 0 1 .027-.516.326.326 0 0 1-.188-.101l-.202-.206-3.384-4.255h-11.79l-2.965 3.962a.353.353 0 0 1-.182.128l-.153.045c.03.063.04.134.03.205-.091.599-.813.929-.895.965-2.753 1.486-3.104 3.995-3.107 4.021-.681 3.672.379 7.176.391 7.211a.367.367 0 0 1-.006.227l-.317.85zm23.066-13.136l.344.001 1.382-.01a1.59 1.59 0 0 0 .28-.196 1.936 1.936 0 0 0-.293-.176h-1.529l-.09.242a.35.35 0 0 1-.094.139zm-21.07-.679l-.184.135 1.478-.001a.566.566 0 0 1-.008-.04l-.013-.094h-1.273z"/><path fill="#FFF" d="M130.052 18.636h-.004l-17.08-.202a.354.354 0 0 1-.282-.564l2.984-4.083a.35.35 0 0 1 .287-.146h10.885c.109 0 .217.053.283.142l3.17 4.232a.36.36 0 0 1 .12.267.353.353 0 0 1-.363.354zm-16.387-.904l15.672.186-2.672-3.568h-10.527l-2.473 3.382zm.15 7.789a.364.364 0 0 1-.045-.003l-4.432-.583-.545.129a.366.366 0 0 1-.308-.068l-.535-.431a.356.356 0 0 1-.12-.361l.568-2.345a.353.353 0 0 1 .167-.223.349.349 0 0 1 .276-.034l4.764 1.379a.357.357 0 0 1 .252.283l.307 1.844a.353.353 0 0 1-.098.305.338.338 0 0 1-.251.108zm-4.495-1.3c.02 0 .031.001.048.003l4.021.529-.188-1.152-4.19-1.214-.435 1.766.229.181.438-.104a.319.319 0 0 1 .077-.009zm20.56 1.3a.353.353 0 0 1-.256-.108.372.372 0 0 1-.099-.305l.308-1.844a.351.351 0 0 1 .25-.283l4.651-1.378a.35.35 0 0 1 .278.033.351.351 0 0 1 .168.223l.572 2.345a.368.368 0 0 1-.121.361l-.539.431c-.085.068-.197.093-.303.068l-.545-.129-4.322.583c-.012.003-.027.003-.042.003zm.618-1.922l-.19 1.152 3.912-.526a.34.34 0 0 1 .127.006l.44.104.228-.181-.432-1.764-4.085 1.209zm-16.431 8.19c-.014 0-.021 0-.039-.002-5.289-.576-5.545-1.05-5.629-1.206-.015-.027-.021-.056-.031-.085-.01-.035-.203-.868-.438-2.89a.353.353 0 0 1 .461-.378l5.122 1.648c.06.019.113.053.154.1l1.521 1.684a.355.355 0 0 1-.076.539l-.855.537a.374.374 0 0 1-.19.053zm-5.036-1.57c.483.241 2.86.617 4.95.849l.396-.248-1.176-1.298-4.508-1.449c.159 1.217.288 1.896.338 2.146zm20.526 1.57a.35.35 0 0 1-.188-.054l-.856-.538a.354.354 0 0 1-.075-.538l1.521-1.684a.37.37 0 0 1 .15-.1l5.123-1.648a.353.353 0 0 1 .333.063.338.338 0 0 1 .127.315c-.229 2.021-.43 2.855-.437 2.89a.653.653 0 0 1-.033.085c-.084.155-.34.63-5.628 1.206-.012.003-.025.003-.037.003zm-.314-.968l.396.248c2.089-.232 4.467-.608 4.949-.849.052-.25.181-.93.333-2.146l-4.504 1.449-1.174 1.298z"/><path fill="#FFF" d="M127.175 31.646l-10.71-.036a.35.35 0 0 1-.216-.075l-.88-.681a.388.388 0 0 1-.134-.221l-1.199-7.056a.365.365 0 0 1 .16-.361l1.006-.626a.29.29 0 0 1 .188-.054l13.196.036a.36.36 0 0 1 .228.082l.858.717a.354.354 0 0 1 .122.338l-1.36 7.27a.354.354 0 0 1-.214.263l-.914.376a.302.302 0 0 1-.131.028zm-10.586-.745l10.517.035.67-.276 1.286-6.876-.601-.501-12.97-.035-.717.446 1.141 6.685.674.522zm124.419 4.271l-11.168-5.899V16.029l4.041-1.855.391.857-3.432 1.6v12.075L241 34.095l9.84-5.385V17.061l-2.543-1.427.504-.823 3.039 1.697v12.761zm2.548-23.143l1.233.71-.356.617-1.232-.712zm-4.456-.161l.316.637-1.304.648-.316-.637z"/><path fill="#FFF" d="M241.17 22.86l-10.726-6.223.357-.614 10.373 6.019 9.738-5.545.354.616z"/><path fill="#FFF" d="M240.84 22h1v13h-1zm-4.711-7.567c-1.311 0-2.293-.498-2.293-1.159s.982-1.159 2.293-1.159c1.307 0 2.295.498 2.295 1.159s-.988 1.159-2.295 1.159zm0-1.896c-1.061 0-1.85.39-1.85.737s.789.737 1.85.737c1.057 0 1.846-.389 1.846-.737s-.789-.737-1.846-.737zm2.276 3.758c0 .66-.992 1.158-2.287 1.158-1.299 0-2.271-.499-2.271-1.159h.441c0 .348.781.736 1.83.736 1.047 0 1.826-.389 1.826-.736l.461.001z"/><path fill="#FFF" d="M237.944 13.387h.471v2.914h-.471zm-4.102-.046h.436v2.96h-.436zm12.52 1.374c-1.307 0-2.295-.499-2.295-1.159s.988-1.159 2.295-1.159c1.311 0 2.295.499 2.295 1.159-.001.66-.987 1.159-2.295 1.159zm0-1.897c-1.057 0-1.846.39-1.846.737 0 .348.789.737 1.846.737 1.059 0 1.85-.389 1.85-.737-.005-.347-.794-.737-1.85-.737zm2.275 3.758c0 .661-.992 1.158-2.289 1.158-1.295 0-2.271-.498-2.271-1.159h.441c0 .348.783.737 1.828.737 1.047 0 1.83-.389 1.83-.737l.461.001z"/><path fill="#FFF" d="M248.176 13.669h.469v2.914h-.469zm-4.102-.046h.438v2.96h-.438zm-2.757 4.064c-1.309 0-2.295-.499-2.295-1.159s.986-1.159 2.295-1.159c1.311 0 2.293.499 2.293 1.159s-.987 1.159-2.293 1.159zm0-1.896c-1.057 0-1.848.389-1.848.737s.791.737 1.848.737c1.059 0 1.848-.389 1.848-.737-.003-.348-.794-.737-1.848-.737zm2.273 3.757c0 .66-.992 1.158-2.287 1.158-1.297 0-2.273-.499-2.273-1.159h.443c0 .348.783.737 1.83.737s1.828-.389 1.828-.737l.459.001z"/><path fill="#FFF" d="M243.129 16.641h.469v2.914h-.469zm-4.099-.047h.438v2.96h-.438zm2.287-4.639c-1.309 0-2.295-.498-2.295-1.159s.986-1.159 2.295-1.159c1.311 0 2.293.498 2.293 1.159s-.987 1.159-2.293 1.159zm0-1.896c-1.057 0-1.848.39-1.848.737 0 .348.791.737 1.848.737 1.059 0 1.848-.389 1.848-.737-.005-.348-.794-.737-1.848-.737zm2.273 3.757c0 .661-.992 1.158-2.287 1.158-1.297 0-2.273-.498-2.273-1.159h.443c0 .348.783.737 1.83.737s1.828-.389 1.828-.737l.459.001z"/><path fill="#FFF" d="M243.129 10.909h.469v2.914h-.469zm-4.099-.047h.438v2.96h-.438zM51.16 37.405h3.141v.609h-2.455v1.887h2.249v.609h-2.249v2.051h2.495v.609H51.16v-5.765zm6.764 5.766V40.84c0-.22-.012-.411-.029-.573a1.262 1.262 0 0 0-.108-.408.593.593 0 0 0-.233-.247.841.841 0 0 0-.399-.083.894.894 0 0 0-.63.231 1.227 1.227 0 0 0-.351.577v2.833h-.66v-4.119h.462l.123.502h.033c.146-.176.316-.32.515-.433.195-.112.449-.168.765-.168.265 0 .479.051.646.152.167.102.298.279.391.531.128-.214.303-.382.523-.502.223-.121.474-.181.754-.181.229 0 .425.026.585.078a.823.823 0 0 1 .396.276c.104.132.183.31.229.536.047.225.07.51.07.854v2.471h-.666V40.69c0-.198-.012-.369-.028-.515a.952.952 0 0 0-.115-.363.55.55 0 0 0-.235-.214.964.964 0 0 0-.399-.07c-.272 0-.489.077-.643.231-.154.154-.268.374-.329.659v2.751h-.662v.002h-.005zm4.273-4.118h.453l.124.494h.033a1.25 1.25 0 0 1 .49-.44c.2-.102.429-.152.688-.152.551 0 .958.162 1.229.486.269.324.399.854.399 1.59 0 .346-.045.658-.136.938a2.06 2.06 0 0 1-.383.704 1.69 1.69 0 0 1-.598.445 1.877 1.877 0 0 1-.778.156c-.203 0-.364-.012-.481-.037a2.102 2.102 0 0 1-.384-.128v1.713h-.659l.003-5.769zm1.664.477c-.275 0-.501.073-.663.219-.16.146-.271.366-.342.663v2.042c.104.077.212.136.338.177s.294.062.503.062c.381 0 .684-.142.901-.424.223-.283.334-.699.334-1.248 0-.225-.021-.43-.058-.614-.039-.184-.104-.34-.188-.469s-.193-.229-.329-.301a1.035 1.035 0 0 0-.496-.107zm3.526 2.628c0 .192.033.33.099.412a.336.336 0 0 0 .28.124c.071 0 .148-.006.229-.017a1.27 1.27 0 0 0 .278-.074l.074.519c-.088.044-.21.08-.366.107a2.44 2.44 0 0 1-.406.041c-.247 0-.448-.07-.607-.21s-.239-.377-.239-.712v-4.942h.659l-.001 4.752zm4.679.684a1.852 1.852 0 0 1-.622.313c-.25.077-.515.115-.795.115-.313 0-.584-.051-.813-.152a1.452 1.452 0 0 1-.568-.437 1.915 1.915 0 0 1-.329-.68 3.513 3.513 0 0 1-.104-.89c0-.703.154-1.238.471-1.606.313-.368.761-.552 1.343-.552.188 0 .373.021.563.062.188.041.354.12.503.235.146.115.27.279.358.49.097.211.145.49.145.836 0 .181-.021.382-.052.601H69.52c0 .242.025.456.074.643.05.187.127.345.229.474a.997.997 0 0 0 .407.297c.167.068.372.103.613.103.188 0 .374-.033.561-.099a1.19 1.19 0 0 0 .42-.23l.242.477zm-1.417-3.312c-.321 0-.583.085-.776.255-.192.17-.313.461-.352.874h2.043c0-.417-.08-.71-.237-.877-.159-.167-.387-.252-.678-.252zm2.275 1.582c0-.697.153-1.231.466-1.602.313-.371.756-.556 1.339-.556.309 0 .575.051.805.152.229.101.414.247.563.437.146.19.258.417.329.684.069.267.104.562.104.885 0 .698-.151 1.232-.466 1.603-.311.371-.756.556-1.338.556-.308 0-.576-.051-.804-.152a1.437 1.437 0 0 1-.564-.437 1.91 1.91 0 0 1-.329-.684 3.535 3.535 0 0 1-.105-.886zm.683 0c0 .209.021.409.063.602.041.192.104.36.189.502.09.143.203.258.35.346a.966.966 0 0 0 .52.132c.746.005 1.12-.522 1.12-1.582 0-.214-.021-.417-.063-.609-.041-.192-.104-.359-.191-.502s-.203-.257-.346-.342a1.006 1.006 0 0 0-.521-.128c-.747-.006-1.121.521-1.121 1.581zm160.051.255l.197.874h.008l.215-.89 1.395-3.946h.686l-2.184 5.857h-.305l-2.229-5.857h.75l1.467 3.962zm2.637-2.01c.209-.126.449-.22.729-.28.277-.061.566-.091.869-.091.285 0 .518.039.688.115a.955.955 0 0 1 .396.301c.09.124.15.259.18.408.031.149.049.296.049.445 0 .33-.012.651-.023.964-.018.313-.024.609-.024.89 0 .203.009.396.024.577s.047.349.09.502h-.484l-.174-.577h-.041a1.254 1.254 0 0 1-.456.425 1.8 1.8 0 0 1-.361.144c-.139.038-.293.058-.471.058s-.342-.027-.488-.083a1.208 1.208 0 0 1-.395-.235 1.215 1.215 0 0 1-.26-.366 1.194 1.194 0 0 1-.096-.486c0-.241.051-.443.146-.605.104-.162.238-.291.416-.387.182-.096.396-.165.646-.206.25-.042.521-.062.828-.062h.227c.079 0 .148.006.229.017.018-.165.023-.313.023-.445 0-.302-.061-.513-.182-.634s-.344-.181-.66-.181a2.36 2.36 0 0 0-.301.021 3.345 3.345 0 0 0-.65.153c-.1.036-.188.078-.268.123l-.206-.505zm1.17 3.304a1.222 1.222 0 0 0 .725-.219c.088-.063.162-.133.221-.21a.764.764 0 0 0 .127-.223v-.686a7.794 7.794 0 0 0-.466-.016c-.17 0-.336.01-.498.029-.16.02-.305.055-.428.107a.747.747 0 0 0-.297.214.524.524 0 0 0-.111.342c0 .192.068.35.205.474.131.126.307.188.522.188zm4.926-2.974a1.475 1.475 0 0 0-.469-.083c-.236 0-.424.065-.563.194a.844.844 0 0 0-.256.49v2.883h-.658v-4.119h.461l.123.502h.033c.105-.188.23-.331.375-.433.146-.102.332-.152.559-.152.156 0 .34.028.533.083l-.138.635zm.857-1.886c0-.126.043-.235.127-.326a.423.423 0 0 1 .324-.136c.133 0 .242.045.338.136a.432.432 0 0 1 .143.326.395.395 0 0 1-.143.313.493.493 0 0 1-.338.124.44.44 0 0 1-.324-.124.422.422 0 0 1-.127-.313zm.141 1.252h.658v4.119h-.658v-4.119zm1.836 2.059c0-.697.154-1.231.465-1.602.313-.371.756-.556 1.34-.556.311 0 .574.051.807.152.227.101.416.247.563.437.148.19.258.417.328.684.072.267.107.562.107.885 0 .698-.154 1.232-.467 1.603-.313.371-.758.556-1.34.556-.309 0-.574-.051-.805-.152a1.427 1.427 0 0 1-.563-.437 1.827 1.827 0 0 1-.326-.684 3.313 3.313 0 0 1-.109-.886zm.681 0c0 .209.021.409.064.602.041.192.104.36.191.502a.966.966 0 0 0 .868.478c.746.005 1.119-.522 1.119-1.582 0-.214-.02-.417-.063-.609-.041-.192-.105-.359-.193-.502s-.203-.257-.346-.342a1.003 1.003 0 0 0-.521-.128c-.744-.006-1.119.521-1.119 1.581zm5.776.939a.511.511 0 0 0-.146-.387 1.336 1.336 0 0 0-.363-.235c-.146-.063-.309-.124-.48-.181s-.332-.132-.477-.223a1.19 1.19 0 0 1-.367-.35c-.102-.145-.146-.334-.146-.577 0-.395.111-.685.338-.869s.537-.276.938-.276c.295 0 .545.026.744.078.201.052.375.114.521.185l-.154.544a2.438 2.438 0 0 0-1.029-.231c-.242 0-.42.042-.531.124-.111.083-.17.226-.17.429 0 .143.052.254.148.333s.221.151.365.214c.146.063.307.125.479.185.174.061.332.14.479.239.146.099.27.224.363.375.102.151.148.35.148.597 0 .176-.029.341-.086.494a1.024 1.024 0 0 1-.271.396c-.121.11-.271.196-.447.259-.18.063-.391.095-.633.095-.313 0-.576-.03-.799-.09a2.63 2.63 0 0 1-.551-.214l.197-.56c.127.071.291.137.492.198s.406.091.615.091c.236 0 .436-.047.586-.14.159-.093.237-.261.237-.503z"/><g fill="#FFF"><path d="M181.334 36.391a4.777 4.777 0 0 1-4.766-4.773c0-1.178.459-2.293 1.266-3.168h-6.063v-8.022l-.438.445-1.285-1.96 11.48-8.462 11.479 8.511-1.748 1.812-1.131-.674v8.047l-5.518.088c.938.904 1.479 2.112 1.479 3.39a4.762 4.762 0 0 1-4.755 4.766zm-2.287-7.942c-1.039.775-1.658 1.933-1.658 3.168 0 2.182 1.771 3.958 3.945 3.958s3.941-1.771 3.941-3.954c0-1.345-.734-2.599-1.953-3.369l-.428.007-.004-.25-.246-.123.074-.503.828-.993-1.154-.002v-9.391l-.889-.901-1.279 1.292v.643l.764 1.117-1.32 1.291v.326l1.32 1.361-1.072 1.238.684.652v2.186h-1.428l.758 1.168.084.514-.27.135a4.528 4.528 0 0 0-.635.382v.049l-.062-.001zm-6.461-.816h6.201c.076-.053.156-.104.238-.153l-.752-1.158c-.104-.168-.176-.425-.053-.648.059-.107.209-.288.553-.288h1.01v-1.021l-.996-.949 1.098-1.26-1.033-1.061v-1.002l1.08-1.052-.521-.757v-1.23l2.1-2.116 1.703 1.726v8.909h.639c.236.008.52.11.641.375.111.249.045.53-.205.836l-.535.646 5.563-.089V18.66l1.811 1.079.652-.678-10.244-7.598-10.375 7.646.307.466 1.127-1.15-.009 9.208z"/><path d="M181.416 35.524a1.48 1.48 0 0 1-1.479-1.477 1.48 1.48 0 0 1 2.956 0c0 .815-.662 1.477-1.477 1.477zm0-2.342a.865.865 0 1 0 0 1.732.862.862 0 0 0 .861-.866.86.86 0 0 0-.861-.866z"/></g><path d="M166.494 37.739h3.141v.609h-2.455v1.969h2.289v.61h-2.289v2.578h-.686v-5.766zm4.194.395c0-.126.043-.235.127-.326a.43.43 0 0 1 .326-.136c.131 0 .244.045.338.136a.439.439 0 0 1 .143.326.401.401 0 0 1-.143.313.493.493 0 0 1-.338.124.447.447 0 0 1-.326-.124.42.42 0 0 1-.127-.313zm.138 1.252h.658v4.119h-.658v-4.119zm4.711 4.119v-2.348c0-.428-.063-.751-.188-.968-.123-.217-.35-.326-.68-.326-.291 0-.531.079-.725.235a1.266 1.266 0 0 0-.396.589v2.817h-.66v-4.119h.463l.123.502h.033a1.49 1.49 0 0 1 .531-.433c.223-.112.482-.168.795-.168.225 0 .422.026.592.078a.899.899 0 0 1 .426.276c.111.131.197.309.254.531.063.223.088.504.088.844v2.488h-.656v.002zm4.672-.272a1.784 1.784 0 0 1-.584.276 2.648 2.648 0 0 1-.709.095c-.318 0-.59-.051-.811-.152s-.396-.247-.541-.437a1.932 1.932 0 0 1-.305-.684 3.854 3.854 0 0 1-.094-.886c0-.697.15-1.231.461-1.602.309-.371.75-.556 1.326-.556.264 0 .484.021.672.062.184.041.35.1.498.177l-.189.568c-.127-.071-.266-.128-.42-.169s-.318-.063-.494-.063c-.777 0-1.17.527-1.17 1.582 0 .209.021.408.063.598.041.189.105.357.205.502.098.146.223.262.381.35.152.088.35.132.58.132.193 0 .375-.03.527-.091.156-.061.283-.129.385-.206l.219.504zm.84-3.542c.209-.126.451-.22.729-.28.277-.061.566-.091.869-.091.285 0 .518.039.688.115a.955.955 0 0 1 .396.301c.09.124.15.259.182.408.03.149.049.296.049.445 0 .33-.014.651-.025.964-.016.313-.023.609-.023.89 0 .203.01.396.023.577.015.181.047.349.09.502h-.482l-.174-.577h-.041a1.362 1.362 0 0 1-.188.227c-.076.075-.164.14-.27.198a1.8 1.8 0 0 1-.361.144c-.139.038-.293.058-.471.058s-.342-.027-.488-.083a1.194 1.194 0 0 1-.394-.235 1.2 1.2 0 0 1-.261-.366 1.194 1.194 0 0 1-.096-.486c0-.241.051-.443.146-.605.104-.162.238-.291.416-.387.182-.096.396-.165.646-.206.25-.042.521-.062.828-.062h.227c.079 0 .148.006.229.017.016-.165.021-.313.021-.445 0-.302-.061-.513-.182-.634s-.342-.181-.66-.181a2.36 2.36 0 0 0-.301.021 3.457 3.457 0 0 0-.65.153c-.1.036-.188.078-.268.123l-.204-.505zm1.17 3.303a1.222 1.222 0 0 0 .725-.219c.088-.063.162-.133.221-.21a.824.824 0 0 0 .129-.223v-.682a8.309 8.309 0 0 0-.466-.016c-.172 0-.338.01-.498.029a1.62 1.62 0 0 0-.43.107.747.747 0 0 0-.297.214.523.523 0 0 0-.109.342c0 .192.066.35.203.474.131.123.307.184.522.184zm5.248-5.198c.209-.038.449-.068.721-.091.271-.021.521-.033.744-.033a3 3 0 0 1 .721.083c.23.055.434.146.604.271.174.126.313.292.416.495.103.203.154.45.154.741 0 .45-.123.815-.367 1.096-.248.28-.563.467-.939.56l.396.305 1.434 2.282h-.799l-1.59-2.488-.813-.124v2.611h-.684l.002-5.708zm1.481.47h-.221c-.078 0-.15.002-.223.008l-.203.016a.886.886 0 0 0-.152.025v2.125h.646c.379 0 .689-.093.938-.28s.371-.478.371-.873a.965.965 0 0 0-.305-.733c-.205-.192-.488-.288-.851-.288zm3.205 1.425c.209-.126.451-.22.73-.28.271-.061.563-.091.867-.091.285 0 .516.039.688.115.174.077.307.177.396.301s.146.259.182.408c.031.149.045.296.045.445 0 .33-.008.651-.023.964-.018.313-.021.609-.021.89 0 .203.008.396.021.577.018.181.049.349.094.502h-.488l-.174-.577h-.041a1.27 1.27 0 0 1-.188.227c-.07.075-.16.14-.268.198s-.227.105-.361.144c-.139.038-.295.058-.471.058s-.338-.027-.49-.083a1.104 1.104 0 0 1-.651-.601 1.194 1.194 0 0 1-.098-.486c0-.241.051-.443.148-.605.098-.162.234-.291.416-.387.178-.096.393-.165.643-.206.248-.042.525-.062.826-.062h.229c.072 0 .146.006.227.017.02-.165.025-.313.025-.445 0-.302-.063-.513-.186-.634s-.34-.181-.656-.181a2.39 2.39 0 0 0-.303.021 3.677 3.677 0 0 0-.33.06 2.915 2.915 0 0 0-.316.093 1.63 1.63 0 0 0-.271.123l-.201-.505zm1.17 3.303c.152 0 .291-.021.412-.062a1.19 1.19 0 0 0 .313-.157.977.977 0 0 0 .346-.433v-.682a8.564 8.564 0 0 0-.464-.016c-.17 0-.336.01-.498.029-.162.02-.305.055-.428.107a.74.74 0 0 0-.299.214.535.535 0 0 0-.109.342c0 .192.066.35.205.474.131.123.307.184.522.184zm3.121-3.608h.66v4.119h-.66v-4.119zm1.779 3.542l1.904-2.62.346-.346h-2.25v-.577h2.936v.577l-1.912 2.644-.338.321h2.25v.577h-2.936v-.576zm-90.23-.894l.196.874h.01l.214-.89 1.395-3.946h.686l-2.185 5.857h-.305l-2.229-5.857h.75l1.468 3.962zm5.643 1.475a1.852 1.852 0 0 1-.622.313c-.25.077-.515.115-.795.115a2.02 2.02 0 0 1-.815-.152 1.418 1.418 0 0 1-.564-.437 1.866 1.866 0 0 1-.329-.68 3.42 3.42 0 0 1-.107-.89c0-.703.157-1.238.472-1.606.313-.368.763-.552 1.345-.552.187 0 .373.021.561.062.188.041.354.12.502.235.148.115.271.279.362.49.094.211.143.49.143.836 0 .181-.019.382-.052.601h-2.645c0 .242.021.456.072.643.052.187.127.345.229.474a.997.997 0 0 0 .407.297c.167.068.372.103.611.103.188 0 .374-.033.563-.099a1.19 1.19 0 0 0 .42-.23l.242.477zm-1.417-3.312c-.323 0-.583.085-.778.255-.19.17-.312.461-.35.874h2.043c0-.417-.08-.71-.239-.877-.159-.167-.385-.252-.676-.252zm5.24 3.641V41.49c0-.214-.017-.402-.037-.563a1.024 1.024 0 0 0-.138-.403.607.607 0 0 0-.27-.243 1.003 1.003 0 0 0-.438-.083c-.261 0-.49.084-.698.251a1.105 1.105 0 0 0-.404.646v2.743h-.659v-5.766h.659v2.109h.033c.143-.17.313-.306.515-.408s.449-.152.746-.152c.23 0 .433.026.603.078a.902.902 0 0 1 .427.276c.108.132.19.309.247.531.052.223.076.504.076.844v2.488h-.662zm2.002-4.118h.657v4.119h-.657V39.72zm4.876 3.846a1.8 1.8 0 0 1-.585.276 2.635 2.635 0 0 1-.708.095c-.319 0-.588-.051-.812-.152a1.397 1.397 0 0 1-.54-.437 1.897 1.897 0 0 1-.305-.684 3.852 3.852 0 0 1-.095-.886c0-.697.15-1.231.462-1.602.308-.371.749-.556 1.326-.556.264 0 .483.021.671.062.184.041.351.1.498.177l-.189.568a1.904 1.904 0 0 0-.914-.232c-.777 0-1.17.527-1.17 1.582 0 .209.021.408.063.598.041.189.105.357.206.502.096.146.222.262.379.35.152.088.35.132.58.132.194 0 .375-.03.527-.091.157-.061.284-.129.385-.206l.221.504zm1.499-3.846v2.348c0 .214.012.402.037.564.021.162.063.296.128.403.06.107.143.188.247.243a.827.827 0 0 0 .395.083c.148 0 .28-.023.396-.07.113-.046.221-.111.312-.193.09-.083.17-.177.238-.284.064-.107.125-.221.169-.342V39.72h.659v2.949c0 .198.007.402.021.614.016.212.037.397.07.556h-.453l-.165-.651h-.041a1.643 1.643 0 0 1-.511.536c-.215.143-.486.214-.815.214-.22 0-.413-.026-.581-.078a.886.886 0 0 1-.42-.276 1.384 1.384 0 0 1-.255-.531 3.424 3.424 0 0 1-.087-.844V39.72h.656zm4.579 3.105c0 .192.029.33.099.412.064.083.159.124.28.124a1.345 1.345 0 0 0 .509-.091l.074.519c-.088.044-.21.08-.366.107a2.46 2.46 0 0 1-.408.041c-.247 0-.45-.07-.607-.21s-.237-.377-.237-.712v-4.942h.659l-.003 4.752zm1.441-1.046c0-.697.155-1.231.466-1.602.313-.371.758-.556 1.341-.556.309 0 .573.051.805.152.228.101.416.247.563.437.148.19.26.417.329.684.071.267.107.562.107.885 0 .698-.155 1.232-.466 1.603-.313.371-.758.556-1.34.556-.31 0-.574-.051-.806-.152a1.434 1.434 0 0 1-.563-.437 1.83 1.83 0 0 1-.329-.684 3.442 3.442 0 0 1-.107-.886zm.684 0c0 .209.021.409.063.602.041.192.105.36.193.502.088.142.203.258.346.346a.976.976 0 0 0 .521.132c.746.005 1.118-.522 1.118-1.582 0-.214-.021-.417-.063-.609-.041-.192-.105-.359-.193-.502s-.203-.257-.346-.342a1.003 1.003 0 0 0-.521-.128c-.745-.006-1.118.521-1.118 1.581zm5.774.939a.511.511 0 0 0-.146-.387 1.385 1.385 0 0 0-.366-.235 5.9 5.9 0 0 0-.479-.181 2.204 2.204 0 0 1-.478-.223 1.19 1.19 0 0 1-.367-.35c-.099-.145-.146-.334-.146-.577 0-.395.111-.685.34-.869.226-.184.538-.276.938-.276.296 0 .545.026.745.078.2.052.375.114.523.188l-.157.544a2.388 2.388 0 0 0-.457-.161 2.236 2.236 0 0 0-.572-.07c-.24 0-.419.042-.529.124-.11.083-.171.226-.171.429 0 .143.052.254.148.333s.221.151.366.214.305.125.479.185c.173.061.332.14.479.239.146.099.268.224.364.375.1.151.146.35.146.597 0 .176-.029.341-.087.494a.993.993 0 0 1-.271.396 1.3 1.3 0 0 1-.444.259 1.937 1.937 0 0 1-.633.095c-.313 0-.577-.03-.801-.09a2.663 2.663 0 0 1-.552-.214l.197-.562c.127.071.291.137.494.198s.407.091.616.091c.234 0 .434-.047.587-.14.155-.094.234-.262.234-.504zm-87.512 71.11h3.141v.609h-2.455v1.887h2.249v.609h-2.249v2.051h2.495v.609h-3.181v-5.765zm6.764 5.768v-2.332c0-.22-.012-.41-.028-.572a1.265 1.265 0 0 0-.109-.407.59.59 0 0 0-.233-.248.826.826 0 0 0-.398-.082.892.892 0 0 0-.63.229 1.235 1.235 0 0 0-.352.578v2.832h-.66v-4.119h.463l.122.502h.033c.146-.176.317-.32.516-.433.194-.112.448-.168.764-.168.265 0 .479.052.646.151.167.103.299.279.392.531.127-.215.302-.383.522-.502.224-.121.475-.182.755-.182.229 0 .425.025.585.077.158.053.291.146.396.276s.183.31.229.535c.047.225.069.51.069.854v2.472h-.661v-2.479c0-.196-.012-.368-.027-.514a.982.982 0 0 0-.115-.363.55.55 0 0 0-.236-.215.96.96 0 0 0-.398-.069c-.273 0-.489.077-.644.231-.153.153-.267.373-.329.658v2.751h-.662v.003h-.007v.005zm4.272-4.119h.453l.124.494h.032c.127-.191.289-.339.49-.439.2-.102.43-.151.688-.151.55 0 .958.162 1.229.485.27.324.4.855.4 1.591 0 .347-.045.657-.136.938-.092.275-.22.512-.384.703-.165.19-.363.34-.598.444s-.493.155-.778.155c-.203 0-.363-.012-.48-.036a1.87 1.87 0 0 1-.384-.13v1.714h-.659l.003-5.768zm1.664.476c-.276 0-.501.074-.663.22-.161.146-.272.366-.342.663v2.042c.103.077.212.136.338.177s.294.063.503.063c.38 0 .683-.144.9-.425.224-.282.334-.698.334-1.248 0-.225-.021-.43-.058-.614a1.381 1.381 0 0 0-.188-.47.881.881 0 0 0-.329-.301 1.04 1.04 0 0 0-.495-.107zm3.527 2.629c0 .191.033.33.1.412a.337.337 0 0 0 .28.123c.07 0 .147-.006.229-.016.083-.013.178-.037.279-.074l.073.519c-.088.044-.21.08-.365.106a2.45 2.45 0 0 1-.407.041.882.882 0 0 1-.607-.209c-.158-.141-.238-.377-.238-.713v-4.941h.658l-.002 4.752zm4.678.684c-.164.133-.372.236-.622.313s-.516.114-.795.114c-.313 0-.584-.051-.813-.15a1.46 1.46 0 0 1-.567-.438 1.887 1.887 0 0 1-.329-.681 3.467 3.467 0 0 1-.105-.89c0-.703.155-1.238.471-1.605.313-.369.762-.553 1.344-.553.188 0 .373.021.563.063.188.041.354.119.503.234.146.115.271.279.359.49.096.211.144.49.144.836 0 .182-.02.382-.052.602H69.16c0 .242.024.455.073.644.051.187.127.345.229.474a.988.988 0 0 0 .407.297c.167.068.372.104.612.104.188 0 .374-.032.562-.098.188-.066.327-.145.42-.23l.244.474zm-1.417-3.313c-.322 0-.583.086-.777.256-.192.17-.313.461-.351.874h2.043c0-.417-.08-.71-.238-.878-.158-.166-.386-.252-.677-.252zm2.276 1.582c0-.696.153-1.23.467-1.602.312-.371.756-.557 1.339-.557.308 0 .574.051.804.15.229.103.415.248.563.438.146.188.259.417.329.685.069.268.104.563.104.885 0 .699-.152 1.232-.466 1.604-.312.371-.756.557-1.338.557-.309 0-.576-.051-.805-.151a1.438 1.438 0 0 1-.563-.438 1.894 1.894 0 0 1-.329-.684 3.55 3.55 0 0 1-.105-.887zm.682 0c0 .209.021.41.063.604.041.191.104.359.19.502.089.144.203.258.349.346a.96.96 0 0 0 .521.132c.746.006 1.119-.521 1.119-1.582 0-.214-.021-.416-.063-.608-.041-.191-.104-.357-.191-.502s-.202-.257-.346-.342a1.003 1.003 0 0 0-.521-.128c-.747-.008-1.121.52-1.121 1.578zm160.052.256l.198.874h.008l.214-.89 1.395-3.947h.686l-2.183 5.857h-.306l-2.228-5.857h.75l1.466 3.963zm2.637-2.01c.209-.127.449-.221.729-.28.276-.062.565-.091.869-.091.284 0 .517.039.688.115a.938.938 0 0 1 .576.709c.031.147.048.295.048.443 0 .33-.011.651-.022.965-.019.313-.025.608-.025.891 0 .203.009.396.025.576.016.182.047.35.09.502h-.485l-.173-.576h-.041a1.298 1.298 0 0 1-.457.425 1.726 1.726 0 0 1-.832.204 1.324 1.324 0 0 1-.882-.317 1.225 1.225 0 0 1-.26-.365 1.208 1.208 0 0 1-.097-.486c0-.241.051-.443.146-.605.103-.162.237-.291.416-.387.181-.096.396-.165.646-.206.25-.042.522-.062.828-.062h.228c.077 0 .147.006.228.017.018-.165.024-.313.024-.444 0-.303-.062-.514-.183-.635s-.344-.182-.66-.182a2.889 2.889 0 0 0-.629.082 2.76 2.76 0 0 0-.321.092 1.87 1.87 0 0 0-.269.123l-.205-.508zm1.17 3.304c.152 0 .291-.021.412-.062.121-.043.226-.096.313-.158s.162-.133.22-.209a.76.76 0 0 0 .127-.225v-.687l-.232-.013c-.079-.002-.157-.004-.233-.004-.17 0-.336.01-.498.029-.161.02-.305.055-.428.107a.738.738 0 0 0-.297.213.527.527 0 0 0-.111.343c0 .192.067.351.205.474.131.13.307.192.522.192zm4.924-2.974a1.414 1.414 0 0 0-.469-.084c-.235 0-.424.064-.563.193a.841.841 0 0 0-.256.49v2.883h-.658v-4.117h.461l.123.502h.033c.104-.188.229-.332.375-.435s.332-.151.558-.151c.157 0 .34.027.534.084l-.138.635zm.859-1.886c0-.125.043-.234.127-.326a.423.423 0 0 1 .324-.135.47.47 0 0 1 .338.135c.096.093.143.199.143.326s-.047.229-.143.313a.488.488 0 0 1-.338.125.438.438 0 0 1-.324-.125.42.42 0 0 1-.127-.313zm.141 1.252h.658v4.119h-.658v-4.119zm1.835 2.058c0-.696.153-1.23.465-1.602.313-.371.756-.557 1.34-.557.31 0 .574.051.806.15.228.103.416.248.563.438.147.188.258.417.328.685.071.268.106.563.106.885 0 .699-.154 1.232-.467 1.604s-.757.557-1.339.557c-.31 0-.575-.051-.806-.151a1.438 1.438 0 0 1-.563-.438 1.827 1.827 0 0 1-.326-.684 3.456 3.456 0 0 1-.107-.887zm.681 0c0 .209.021.41.063.604.041.191.104.359.191.502.09.144.202.258.348.346a.96.96 0 0 0 .521.132c.746.006 1.119-.521 1.119-1.582 0-.214-.021-.416-.063-.608a1.605 1.605 0 0 0-.192-.502.988.988 0 0 0-.347-.342 1 1 0 0 0-.521-.128c-.744-.008-1.119.52-1.119 1.578zm5.776.94a.514.514 0 0 0-.146-.387 1.26 1.26 0 0 0-.363-.234c-.146-.063-.308-.125-.479-.182s-.332-.133-.478-.223-.271-.207-.367-.352c-.102-.146-.146-.334-.146-.576 0-.396.112-.686.338-.869.227-.184.537-.275.938-.275.295 0 .545.025.743.078.201.052.375.113.521.186l-.154.543a2.441 2.441 0 0 0-1.029-.229c-.241 0-.42.041-.53.123-.112.084-.17.228-.17.43 0 .144.051.255.147.333.098.079.222.15.365.215.146.063.307.125.479.186a2.1 2.1 0 0 1 .479.238c.146.1.27.225.364.375.101.15.147.35.147.598 0 .176-.028.341-.086.494a1.035 1.035 0 0 1-.271.396 1.31 1.31 0 0 1-.448.259c-.179.063-.39.096-.632.096-.313 0-.577-.03-.799-.09a2.672 2.672 0 0 1-.552-.215l.197-.561c.127.072.291.139.492.199.202.061.407.09.616.09.235 0 .435-.047.586-.139.16-.097.238-.265.238-.507zm-85.187-4.313h3.141v.609h-2.455v1.969h2.289v.611h-2.289v2.576h-.686v-5.765zm4.193.397c0-.127.043-.236.127-.326a.429.429 0 0 1 .325-.137c.132 0 .244.045.339.137.094.09.142.199.142.326s-.048.229-.142.313a.5.5 0 0 1-.339.123.448.448 0 0 1-.325-.123.424.424 0 0 1-.127-.313zm.139 1.252h.659v4.119h-.659v-4.119zm4.711 4.119v-2.35c0-.428-.062-.75-.187-.967-.123-.217-.351-.326-.681-.326-.291 0-.531.078-.724.234a1.256 1.256 0 0 0-.396.59v2.816h-.659v-4.119h.463l.123.502h.032c.132-.177.31-.32.531-.434s.483-.168.795-.168c.226 0 .422.025.592.077a.91.91 0 0 1 .427.276c.11.131.196.31.254.531.062.223.088.504.088.844v2.487h-.657v.003h-.001v.004zm4.672-.274a1.796 1.796 0 0 1-.584.277 2.648 2.648 0 0 1-.709.094c-.318 0-.59-.051-.81-.151a1.386 1.386 0 0 1-.541-.437 1.918 1.918 0 0 1-.306-.686 3.872 3.872 0 0 1-.094-.886c0-.697.151-1.231.461-1.603s.75-.557 1.326-.557c.264 0 .485.021.672.063.185.041.351.101.498.176l-.188.568a1.86 1.86 0 0 0-.914-.231c-.778 0-1.17.526-1.17 1.582 0 .209.021.407.063.599.041.188.106.355.205.502.098.146.223.264.381.352.153.088.351.131.58.131.194 0 .375-.029.528-.09.155-.063.283-.129.384-.207l.218.504zm.84-3.541c.209-.127.451-.221.729-.28.276-.062.565-.091.869-.091.285 0 .517.039.688.115a.938.938 0 0 1 .577.709c.03.147.049.295.049.443 0 .33-.013.651-.024.965-.017.313-.024.608-.024.891 0 .203.01.396.024.576.015.182.047.35.09.502h-.483l-.174-.576h-.041a1.394 1.394 0 0 1-.187.227 1.149 1.149 0 0 1-.271.198 1.726 1.726 0 0 1-.832.204 1.324 1.324 0 0 1-.882-.317 1.225 1.225 0 0 1-.26-.365 1.208 1.208 0 0 1-.097-.486c0-.241.052-.443.146-.605.103-.162.238-.291.416-.387.181-.096.396-.165.646-.206.25-.042.522-.062.828-.062h.228c.079 0 .147.006.229.017.017-.165.022-.313.022-.444 0-.303-.062-.514-.183-.635s-.342-.182-.659-.182a2.973 2.973 0 0 0-.63.082 2.878 2.878 0 0 0-.321.092 1.87 1.87 0 0 0-.269.123l-.204-.508zm1.17 3.303a1.251 1.251 0 0 0 .725-.219.985.985 0 0 0 .22-.211.749.749 0 0 0 .129-.223v-.683a4.363 4.363 0 0 0-.233-.013c-.08-.004-.158-.004-.233-.004-.171 0-.337.011-.498.029a1.739 1.739 0 0 0-.429.105.751.751 0 0 0-.297.215.524.524 0 0 0-.11.342c0 .191.067.35.204.475.131.126.307.187.522.187zm5.248-5.197c.209-.039.449-.068.722-.092.271-.021.521-.033.743-.033.255 0 .494.027.722.084.229.055.433.146.604.271.174.127.313.293.416.495.104.203.154.449.154.74 0 .451-.123.815-.367 1.096a1.81 1.81 0 0 1-.938.563l.396.305 1.435 2.281h-.8l-1.59-2.486-.812-.125v2.611h-.685v-5.71zm1.48.468h-.221c-.078 0-.151.002-.224.008l-.203.017a1.34 1.34 0 0 0-.151.024v2.125h.646c.379 0 .69-.092.938-.279s.371-.479.371-.873a.962.962 0 0 0-.306-.732c-.203-.194-.487-.29-.85-.29zm3.205 1.426c.209-.127.451-.221.729-.28.272-.062.563-.091.867-.091.285 0 .517.039.688.115a.932.932 0 0 1 .396.301c.09.123.147.259.183.408.03.147.045.295.045.443 0 .33-.009.651-.024.965-.017.313-.021.608-.021.891 0 .203.008.396.021.576.018.182.049.35.094.502h-.487l-.175-.576h-.041c-.049.076-.11.152-.188.227a1.026 1.026 0 0 1-.269.198 1.744 1.744 0 0 1-.832.204c-.176 0-.338-.026-.489-.084a1.274 1.274 0 0 1-.392-.233 1.179 1.179 0 0 1-.26-.365 1.208 1.208 0 0 1-.097-.486c0-.241.05-.443.147-.605.099-.162.234-.291.416-.387.179-.096.394-.165.644-.206.248-.042.524-.062.826-.062h.229c.073 0 .147.006.228.017.019-.165.024-.313.024-.444 0-.303-.063-.514-.185-.635s-.34-.182-.657-.182c-.095 0-.191.008-.302.021a3.05 3.05 0 0 0-.33.061c-.108.025-.22.057-.317.092-.104.037-.19.078-.271.123l-.2-.508zm1.17 3.303a1.26 1.26 0 0 0 .725-.219.986.986 0 0 0 .347-.434v-.683a4.363 4.363 0 0 0-.233-.013c-.08-.004-.156-.004-.232-.004-.17 0-.336.011-.498.029a1.742 1.742 0 0 0-.428.105.759.759 0 0 0-.299.215.535.535 0 0 0-.109.342c0 .191.066.35.205.475.131.126.307.187.522.187zm3.121-3.607h.66v4.119h-.66v-4.119zm1.78 3.541l1.904-2.619.346-.346h-2.25v-.578h2.936v.578l-1.912 2.643-.338.322h2.25v.576h-2.936v-.576zm-90.23-.894l.197.874h.009l.214-.891 1.396-3.945h.685l-2.184 5.857h-.306l-2.228-5.857h.75l1.467 3.962zm5.643 1.476a1.89 1.89 0 0 1-.622.313 2.72 2.72 0 0 1-.795.115c-.313 0-.584-.051-.814-.152a1.421 1.421 0 0 1-.565-.438 1.871 1.871 0 0 1-.329-.681 3.484 3.484 0 0 1-.106-.891c0-.702.157-1.237.471-1.604s.763-.553 1.345-.553c.188 0 .373.021.562.063.188.041.354.121.502.234.147.114.271.278.362.489.094.212.142.489.142.837 0 .182-.018.382-.051.602h-2.646c0 .241.022.455.072.643.052.188.127.346.23.475s.238.229.406.297c.167.068.372.104.611.104.188 0 .374-.033.563-.101.188-.065.327-.143.421-.229l.241.477zm-1.417-3.313c-.322 0-.583.084-.777.255-.191.17-.313.461-.351.874h2.043c0-.417-.08-.71-.238-.877-.161-.168-.386-.252-.677-.252zm5.24 3.641v-2.348c0-.215-.016-.402-.037-.563a.998.998 0 0 0-.138-.404.605.605 0 0 0-.27-.242.999.999 0 0 0-.438-.084c-.26 0-.49.084-.698.252a1.104 1.104 0 0 0-.403.646v2.742h-.659v-5.767h.659v2.108h.032c.144-.17.313-.307.516-.408s.448-.151.746-.151c.229 0 .432.024.602.078a.913.913 0 0 1 .427.274c.109.133.191.311.247.531.052.223.076.504.076.844v2.488h-.661v.004zm2.002-4.117h.657v4.119h-.657v-4.119zm4.876 3.845a1.768 1.768 0 0 1-.585.275 2.636 2.636 0 0 1-.708.096c-.318 0-.588-.051-.811-.152a1.392 1.392 0 0 1-.54-.438 1.864 1.864 0 0 1-.306-.685 3.867 3.867 0 0 1-.095-.887c0-.696.151-1.229.462-1.603.309-.371.749-.556 1.326-.556.264 0 .484.021.671.062.185.041.352.101.498.178l-.188.568c-.126-.072-.267-.129-.42-.17s-.318-.063-.494-.063c-.778 0-1.17.527-1.17 1.582 0 .209.021.408.063.598.041.189.106.357.206.502.096.146.222.262.379.35.153.088.351.133.58.133.195 0 .375-.029.528-.092.156-.061.284-.129.384-.205l.22.507zm1.499-3.845v2.349c0 .213.012.401.037.563.021.162.064.295.128.402a.605.605 0 0 0 .247.242.82.82 0 0 0 .396.084c.147 0 .279-.023.396-.07.114-.046.221-.111.313-.193.09-.082.17-.176.237-.283.065-.106.125-.221.169-.342v-2.752h.659v2.949c0 .197.007.4.021.613.015.212.037.396.069.557h-.453l-.164-.652h-.041a1.63 1.63 0 0 1-.512.537c-.215.144-.485.213-.814.213-.221 0-.413-.024-.581-.077-.167-.052-.309-.144-.42-.275s-.196-.309-.255-.53a3.38 3.38 0 0 1-.088-.845v-2.487h.656v-.003zm4.579 3.104c0 .192.03.329.099.411.064.084.159.125.28.125.068 0 .146-.006.229-.018s.176-.035.279-.074l.074.52c-.088.044-.21.08-.366.107a2.685 2.685 0 0 1-.407.041.88.88 0 0 1-.608-.211c-.157-.141-.237-.377-.237-.711v-4.943h.659l-.002 4.753zm1.44-1.046c0-.697.154-1.23.466-1.602.313-.371.757-.558 1.34-.558.309 0 .574.052.805.151.229.102.416.246.563.438.147.189.259.417.329.686.07.267.106.562.106.885 0 .697-.154 1.232-.466 1.604-.313.371-.758.555-1.34.555-.309 0-.574-.051-.805-.15a1.429 1.429 0 0 1-.563-.438 1.859 1.859 0 0 1-.329-.685 3.488 3.488 0 0 1-.106-.886zm.685 0c0 .209.021.408.063.602.041.191.104.36.192.502a.972.972 0 0 0 .868.48c.746.005 1.119-.522 1.119-1.582 0-.216-.021-.418-.063-.608a1.586 1.586 0 0 0-.192-.502.991.991 0 0 0-.347-.343 1.001 1.001 0 0 0-.521-.129c-.746-.008-1.119.52-1.119 1.58zm5.773.94a.516.516 0 0 0-.146-.388 1.353 1.353 0 0 0-.366-.235c-.146-.063-.307-.123-.479-.181s-.333-.132-.479-.224a1.176 1.176 0 0 1-.366-.35c-.1-.146-.147-.334-.147-.576 0-.396.112-.687.34-.869.227-.186.538-.276.938-.276.296 0 .545.026.745.077.199.053.375.115.522.188l-.157.545a2.36 2.36 0 0 0-.457-.162 2.228 2.228 0 0 0-.571-.069c-.241 0-.419.043-.53.125-.11.082-.17.226-.17.429a.41.41 0 0 0 .147.334c.098.078.222.149.366.213.146.063.306.125.479.186.173.063.332.141.479.24.146.098.269.223.364.375.1.149.146.35.146.596 0 .177-.028.342-.087.494a.986.986 0 0 1-.271.396 1.393 1.393 0 0 1-.445.26 1.93 1.93 0 0 1-.633.094c-.313 0-.577-.029-.8-.09-.22-.062-.4-.133-.552-.215l.196-.562c.127.071.291.138.494.198.203.062.407.091.616.091.235 0 .434-.048.587-.14.158-.094.237-.262.237-.504zm-68.741-27.25v-3.181H59.32v3.181H51.9v16.252h24.731V91.893h-7.417zm-9.118-2.407h8.41v2.404h-8.41v-2.404zM75.927 92.6v4.594h-8.834v-1.021c0-.138-.396-.463-.547-.463H61.85c-.152 0-.409.325-.409.463v1.021h-8.833V92.6h23.319zm-9.541 3.947v1.991c0 .101-.008.065-.12.065H62.55c-.111 0-.403.033-.403-.065v-1.991c0-.1.292-.063.403-.063h3.716c.113 0 .12-.039.12.063zm-13.778 10.891v-9.539h8.833v1.016c0 .139.257.396.409.396h5.116c.151 0 .126-.258.126-.396v-1.016h8.834v9.539H52.608z" fill="#FFF"/><g fill="#FFF"><path d="M112.222 108.9h-2.042a1.428 1.428 0 0 1-1.358-.982.36.36 0 0 1 .068-.342.348.348 0 0 1 .329-.118c1.242.213 3.314.552 3.592.552h.001c.272 0 .408.188.408.361 0 .488-.988.529-.998.529zm21.22 0h-2.041c-.01 0-.988-.121-.988-.602 0-.195.193-.369.395-.369.298 0 2.369-.314 3.605-.516a.353.353 0 0 1 .391.461c-.198.605-.758 1.026-1.362 1.026z"/><path d="M114.236 108.818h-.021c-2.326-.137-6.281-.518-6.628-1.559a.354.354 0 0 1 .003-.234l.336-.91c-.188-.662-1.022-3.922-.378-7.412.013-.1.403-2.877 3.502-4.547a.27.27 0 0 1 .052-.024h-1.137c-.248-.021-.688-.182-.765-.669a.35.35 0 0 1 .142-.341l.645-.476a.37.37 0 0 1 .211-.068h1.701c.125 0 .238.064.303.166l2.856-3.821a.354.354 0 0 1 .284-.142h12.137c.108 0 .21.049.277.133l3.271 4.12a.352.352 0 0 1 .294-.157h1.854c.047 0 .094.012.137.027.332.141.879.441.836.896-.038.413-.563.72-.787.83a.401.401 0 0 1-.154.038l-.77.005.133.087c.756.473 3.229 2.206 3.363 4.693.013.138.328 3.676-.197 6.736l.153 1.018a.352.352 0 0 1-.08.281c-.142.168-1.121 1.017-6.407 1.228a.301.301 0 0 1-.121-.017l-1.586-.495-11.441.055-1.914.55a.798.798 0 0 1-.104.009zm-5.917-1.714c.47.387 3.051.836 5.877 1.004l1.904-.547a.378.378 0 0 1 .096-.016l11.555-.055c.035 0 .068.006.104.019l1.579.491c3.981-.164 5.339-.7 5.721-.906l-.128-.855a.335.335 0 0 1 .001-.114c.522-2.979.2-6.583.197-6.62-.122-2.215-2.546-3.842-3.032-4.146-.869-.545-1.087-.742-1.133-.791a.352.352 0 0 1 .027-.516.333.333 0 0 1-.188-.102l-.202-.206-3.384-4.255h-11.79l-2.965 3.962a.359.359 0 0 1-.182.128l-.153.045c.03.063.04.134.03.205-.091.6-.813.929-.895.965-2.753 1.486-3.104 3.995-3.107 4.021-.681 3.672.379 7.176.391 7.211a.368.368 0 0 1-.006.227l-.317.851zm23.066-13.138l.344.003 1.382-.012c.107-.063.217-.137.28-.195a2.02 2.02 0 0 0-.293-.177h-1.529l-.09.242a.33.33 0 0 1-.094.139zm-21.07-.679l-.184.135 1.478-.001-.008-.039-.013-.095h-1.273z"/><path d="M130.052 94.814h-.004l-17.08-.201a.355.355 0 0 1-.282-.563l2.984-4.081a.345.345 0 0 1 .287-.146h10.885c.109 0 .217.054.283.143l3.17 4.232c.072.064.12.16.12.267a.353.353 0 0 1-.354.354c-.002-.003-.006-.003-.009-.005zm-16.387-.902l15.672.188-2.672-3.568h-10.527l-2.473 3.38zm.15 7.789a.242.242 0 0 1-.045-.004l-4.432-.582-.545.129a.38.38 0 0 1-.308-.066l-.535-.433a.356.356 0 0 1-.12-.361l.568-2.345a.354.354 0 0 1 .443-.258l4.764 1.38a.356.356 0 0 1 .252.282l.307 1.845c.02.11-.02.226-.098.306a.34.34 0 0 1-.251.107zm-4.495-1.301c.02 0 .031 0 .048.002l4.021.529-.188-1.15-4.19-1.215-.435 1.767.229.183.438-.104a.198.198 0 0 1 .077-.012zm20.56 1.301a.356.356 0 0 1-.256-.107.371.371 0 0 1-.099-.306l.308-1.845a.349.349 0 0 1 .25-.282l4.651-1.378a.35.35 0 0 1 .446.256l.572 2.345a.367.367 0 0 1-.121.361l-.539.433c-.085.066-.197.092-.303.066l-.545-.129-4.322.582c-.012.004-.027.004-.042.004zm.618-1.924l-.19 1.152 3.912-.525a.32.32 0 0 1 .127.007l.44.104.228-.182-.432-1.766-4.085 1.21zm-16.431 8.194c-.014 0-.021 0-.039-.002-5.289-.576-5.545-1.052-5.629-1.207-.015-.025-.021-.057-.031-.084-.01-.035-.203-.869-.438-2.892a.348.348 0 0 1 .128-.313.35.35 0 0 1 .333-.063l5.122 1.646a.36.36 0 0 1 .154.102l1.521 1.688a.352.352 0 0 1-.076.536l-.855.537a.405.405 0 0 1-.19.052zm-5.036-1.573c.483.24 2.86.617 4.95.85l.396-.248-1.176-1.298-4.508-1.449a32.43 32.43 0 0 0 .338 2.145zm20.526 1.573a.353.353 0 0 1-.188-.056l-.856-.538a.352.352 0 0 1-.075-.538l1.521-1.685a.37.37 0 0 1 .15-.1l5.123-1.648a.35.35 0 0 1 .333.064.336.336 0 0 1 .127.314c-.229 2.021-.43 2.854-.437 2.89a.63.63 0 0 1-.033.087c-.084.153-.34.629-5.628 1.204-.012.006-.025.006-.037.006zm-.314-.97l.396.248c2.089-.231 4.467-.606 4.949-.851.052-.25.181-.93.333-2.146l-4.504 1.449-1.174 1.3z"/><path d="M127.175 107.826l-10.71-.036a.349.349 0 0 1-.216-.074l-.88-.682a.394.394 0 0 1-.134-.222l-1.199-7.058a.363.363 0 0 1 .16-.36l1.006-.625c.059-.037.115-.063.188-.055l13.196.035a.36.36 0 0 1 .228.082l.858.719a.353.353 0 0 1 .122.338l-1.36 7.271a.358.358 0 0 1-.214.263l-.914.376a.317.317 0 0 1-.131.028zm-10.586-.745l10.517.035.67-.275 1.286-6.877-.601-.501-12.97-.033-.717.444 1.141 6.687.674.52z"/></g><g fill="#FFF"><path d="M241.008 111.354l-11.168-5.901V92.209l4.041-1.855.391.857-3.432 1.602v12.074l10.16 5.386 9.84-5.382V93.24l-2.543-1.427.504-.823 3.039 1.698v12.761zm2.55-23.147l1.232.71-.356.617-1.232-.71zm-4.456-.159l.317.636-1.306.65-.316-.638z"/><path d="M241.17 99.04l-10.726-6.224.357-.613 10.373 6.02 9.738-5.545.354.615z"/><path d="M240.84 98.182h1v13h-1zm-4.711-7.571c-1.311 0-2.293-.496-2.293-1.157s.982-1.159 2.293-1.159c1.307 0 2.295.498 2.295 1.159s-.988 1.157-2.295 1.157zm0-1.892c-1.061 0-1.85.391-1.85.735 0 .349.789.735 1.85.735 1.057 0 1.846-.389 1.846-.735s-.789-.735-1.846-.735zm2.276 3.758c0 .66-.992 1.157-2.287 1.157-1.299 0-2.271-.5-2.271-1.159h.441c0 .35.781.735 1.83.735 1.047 0 1.826-.39 1.826-.735l.461.002z"/><path d="M237.944 89.566h.471v2.914h-.471zm-4.102-.045h.436v2.961h-.436zm12.52 1.375c-1.307 0-2.295-.5-2.295-1.16 0-.659.988-1.158 2.295-1.158 1.311 0 2.295.499 2.295 1.158-.001.66-.987 1.16-2.295 1.16zm0-1.898c-1.057 0-1.846.391-1.846.736 0 .348.789.736 1.846.736 1.059 0 1.85-.39 1.85-.736-.005-.345-.794-.736-1.85-.736zm2.275 3.759c0 .66-.992 1.157-2.289 1.157-1.295 0-2.271-.498-2.271-1.159h.441c0 .349.783.737 1.828.737 1.047 0 1.83-.391 1.83-.737l.461.002z"/><path d="M248.176 89.85h.469v2.914h-.469zm-4.102-.045h.438v2.959h-.438zm-2.757 4.062c-1.309 0-2.295-.499-2.295-1.159s.986-1.158 2.295-1.158c1.311 0 2.293.498 2.293 1.158s-.987 1.159-2.293 1.159zm0-1.894c-1.057 0-1.848.389-1.848.735s.791.735 1.848.735c1.059 0 1.848-.389 1.848-.735s-.794-.735-1.848-.735zm2.273 3.756c0 .66-.992 1.158-2.287 1.158-1.297 0-2.273-.498-2.273-1.158h.443c0 .348.783.734 1.83.734s1.828-.389 1.828-.734h.459z"/><path d="M243.129 92.82h.469v2.914h-.469zm-4.099-.047h.438v2.959h-.438zm2.287-4.636c-1.309 0-2.295-.498-2.295-1.16 0-.66.986-1.158 2.295-1.158 1.311 0 2.293.498 2.293 1.158 0 .662-.987 1.16-2.293 1.16zm0-1.899c-1.057 0-1.848.391-1.848.736 0 .35.791.736 1.848.736 1.059 0 1.848-.389 1.848-.736-.005-.346-.794-.736-1.848-.736zm2.273 3.758c0 .66-.992 1.156-2.287 1.156-1.297 0-2.273-.496-2.273-1.157h.443c0 .349.783.735 1.83.735s1.828-.389 1.828-.735l.459.001z"/><path d="M243.129 87.089h.469v2.914h-.469zm-4.099-.047h.438v2.96h-.438z"/></g><g fill="#FFF"><path d="M181.334 112.57a4.777 4.777 0 0 1-4.766-4.772c0-1.178.459-2.293 1.266-3.168h-6.063v-8.021l-.438.443-1.285-1.959 11.48-8.464 11.479 8.513-1.748 1.813-1.131-.674v8.047l-5.518.088c.938.904 1.479 2.111 1.479 3.391a4.76 4.76 0 0 1-4.755 4.763zm-2.287-7.941c-1.039.773-1.658 1.934-1.658 3.168 0 2.184 1.771 3.958 3.945 3.958s3.941-1.771 3.941-3.952c0-1.347-.734-2.601-1.953-3.369l-.428.008-.004-.25-.246-.123.074-.504.828-.992-1.154-.002v-9.393l-.889-.9-1.279 1.293v.643l.764 1.117-1.32 1.291v.326l1.32 1.359-1.072 1.237.684.651v2.187h-1.428l.758 1.168.084.517-.27.135c-.229.111-.438.24-.635.382v.049l-.062-.004zm-6.461-.816h6.201c.076-.053.156-.104.238-.152l-.752-1.158c-.104-.168-.176-.425-.053-.646.059-.106.209-.287.553-.287h1.01v-1.021l-.996-.947 1.098-1.262-1.033-1.061v-1.002l1.08-1.053-.521-.759v-1.229l2.1-2.115 1.703 1.727v8.908h.639c.236.01.52.109.641.375.111.249.045.53-.205.836l-.535.646 5.563-.09V94.84l1.811 1.079.652-.678-10.244-7.6-10.375 7.646.307.466 1.127-1.147-.009 9.207z"/><path d="M181.416 111.704c-.814 0-1.479-.663-1.479-1.478s.662-1.479 1.479-1.479a1.478 1.478 0 1 1 0 2.957zm0-2.343a.865.865 0 0 0 0 1.732.864.864 0 0 0 .861-.867.86.86 0 0 0-.861-.865z"/></g><path fill="#FFF" d="M120.181 37.893h.694v.164l-.787.998h-.367l.46-1.162zm-.463 76.612h.694v.164l-.787.998h-.367l.46-1.162zm77.443-76.737h.69v.164l-.787.998h-.364l.461-1.162zm-.458 76.543h.69v.164l-.787.998h-.364l.461-1.162z"/></svg>