<svg xmlns="http://www.w3.org/2000/svg" width="52.917" height="40.25" viewBox="0 0 52.917 40.25"><g fill="#FFF"><path d="M48.871 13.613c0-6.027-6.439-10.931-14.354-10.931-7.916 0-14.356 4.903-14.356 10.931s6.44 10.933 14.356 10.933c7.915 0 14.354-4.904 14.354-10.933zm-27.21 0c0-5.2 5.768-9.431 12.856-9.431 7.087 0 12.854 4.23 12.854 9.431 0 5.201-5.766 9.433-12.854 9.433-7.089 0-12.856-4.232-12.856-9.433z"/><path d="M51.196 10.09c-.053-.134-.114-.264-.172-.396l-.037-.075C49.87 7.144 47.821 5 45.152 3.424 42.167 1.559 38.484.44 34.486.44c-3.318 0-6.417.774-9.085 2.101-4.23 1.942-7.292 5.194-8.196 9.019a12.75 12.75 0 0 0-.645 3.943c0 1.899.414 3.661 1.213 5.373L2.132 32.085l-.004.004c-.098.045-.203.071-.296.128-.791.481-1.279 1.324-1.375 2.372-.088.966.172 2.004.733 2.925.848 1.39 2.209 2.253 3.555 2.253.527 0 1.014-.134 1.446-.396.198-.12.376-.268.537-.435l16.277-11.875c3.217 2.258 7.275 3.507 11.483 3.507 9.884 0 17.926-6.759 17.926-15.065-.001-1.91-.443-3.731-1.218-5.413zm-32.781 3.819c0-.677.095-1.336.245-1.982 1.144-3.446 3.889-6.344 7.541-8.115 2.408-1.068 5.217-1.694 8.228-1.694 3.673 0 7.051.925 9.756 2.462 2.509 1.522 4.473 3.613 5.613 6.047a8.905 8.905 0 0 1 .645 3.283c0 6.503-7.184 11.793-16.014 11.793-8.831-.001-16.014-5.291-16.014-11.794zM5.41 38.089c-.817.5-2.207-.154-2.939-1.356-.389-.638-.579-1.369-.52-2.006.052-.563.287-1 .662-1.229.193-.118.417-.178.665-.178.039 0 .079.008.119.011.122.01.244.027.369.066l.085.022c.53.191 1.083.642 1.609 1.303.03.045.063.087.091.133.389.638.578 1.369.52 2.006-.052.564-.287 1-.661 1.228zm1.325-4.183c-.034-.044-.067-.076-.1-.118-.535-.765-1.228-1.342-1.98-1.666l14.127-10.124.274-.146c.042-.004.077-.01.133-.01.468 0 1.195.197 2 1.137 1.314 1.532 1.269 2.411 1.221 2.658L7.669 36.392c-.014-.759-.265-1.614-.934-2.486zm27.752-4.839c-3.893 0-7.637-1.146-10.6-3.221.058-.348.054-.823-.125-1.418 2.958 1.731 6.65 2.773 10.665 2.773 6.732 0 12.58-2.901 15.51-7.14-2.275 5.242-8.333 9.006-15.45 9.006z"/></g></svg>