<svg xmlns="http://www.w3.org/2000/svg" width="102.419" height="67.21" viewBox="0 0 102.419 67.21"><g fill="#FFF"><path d="M101.294 64.679l-3.682 1.336-93.088-.065-3.23-1.271v-1.346h100zM89.903 1.333H12.746c-.888 0-1.452.955-1.452 1.607v56.738c0 .652.564 1.654 1.452 1.654h77.158c.889 0 1.391-1.002 1.391-1.654V2.94c-.001-.652-.503-1.607-1.392-1.607zm-.609 57h-76v-55h76v55zM9.349 16.673H6.264v1.441l-.841.783-.013 9.536.42.379-.042-9.522.476-.477v30.866l1.67 2.674 1.534-2.758z"/><path d="M44.981 18.453c-.195-.243.093-.782.638-1.308.829-.797 6.521-6.52 8.793-8.793.572-.571 2.503-1.731 4.398.896 2.295 3.189.228 4.756 0 4.846-3.03 1.194-12.559 4.321-12.559 4.321s-1.013.357-1.27.038zm6.394 2.073c-10.129 0-18.344 7.228-18.344 16.146s8.215 16.146 18.344 16.146c10.127 0 18.34-7.228 18.34-16.146s-8.212-16.146-18.34-16.146zm0 28.778c-4.61 0-8.349-5.656-8.349-12.632s3.738-12.632 8.349-12.632c4.606 0 8.344 5.656 8.344 12.632s-3.737 12.632-8.344 12.632z"/></g></svg>