<svg xmlns="http://www.w3.org/2000/svg" width="258.125" height="76.833" viewBox="0 0 258.125 76.833"><g fill="#FFF"><path d="M6.614 1.333H25.1s2.302 1.234 2.193 2.746c-.107 1.512.757 12.291 2.917 15.748 0 0 .756.961-.433 2.365-1.188 1.402-8.748 8.903-8.748 8.903s7.452 16.981 26.028 25.621l8.748-8.304s1.081-1.29 2.7-.317c1.62.973 8.856 2.919 15.12 2.703 0 0 2.375.65 2.375 2.595v18.688s-1.018 2.155-2.313 2.263c-1.297.108-27.58 3.246-50.682-20.844C.216 29.741 3.873 4.295 3.873 4.295s.421-2.962 2.741-2.962z"/><path d="M40.751 39.289c-.92-.96-1.7-2.015-2.34-3.165a19.59 19.59 0 0 1-1.545-3.54 22.553 22.553 0 0 1-.855-3.659c-.18-1.23-.27-2.405-.27-3.525 0-1.1.09-2.26.27-3.479.18-1.22.47-2.445.87-3.676.4-1.229.925-2.435 1.575-3.614a16.794 16.794 0 0 1 2.385-3.301l2.52 1.62c-.7.94-1.285 1.92-1.755 2.94a19.85 19.85 0 0 0-1.14 3.135 22.7 22.7 0 0 0-.63 3.225 26.37 26.37 0 0 0-.195 3.15c0 .96.07 1.98.21 3.06.14 1.08.36 2.156.66 3.226.3 1.069.69 2.115 1.17 3.135.48 1.021 1.06 1.95 1.74 2.79l-2.67 1.678zm9.601-9.63c1.32 0 2.33-.319 3.03-.96.7-.64 1.05-1.52 1.05-2.64 0-1.2-.41-2.08-1.23-2.64-.82-.561-1.991-.841-3.51-.841l-2.37.091v-10.98h10.32v3.66h-6.96v4.05l1.23-.12c.979.04 1.865.221 2.655.54.79.32 1.465.765 2.025 1.335s.99 1.26 1.29 2.07c.3.81.45 1.715.45 2.715 0 1.181-.2 2.22-.6 3.12a6.203 6.203 0 0 1-1.665 2.25c-.71.6-1.545 1.05-2.505 1.35s-2.01.45-3.15.45c-.9 0-1.755-.075-2.565-.225-.81-.15-1.496-.355-2.055-.615l1.05-3.24c.46.2.965.355 1.515.465.549.11 1.214.165 1.995.165zm13.529 3.03l6.87-16.17 1.32-1.47-1.8.3h-7.71v-3.66h13.53v1.14l-8.4 19.86h-3.81zm16.8-21.36c.96.96 1.76 2.016 2.4 3.165.64 1.15 1.155 2.33 1.545 3.54.39 1.211.675 2.431.855 3.66.18 1.23.28 2.426.3 3.585-.02 1.061-.12 2.2-.3 3.42a22.461 22.461 0 0 1-.87 3.675c-.4 1.23-.925 2.436-1.575 3.615a20.301 20.301 0 0 1-2.265 3.3l-2.67-1.68c.76-.98 1.38-1.985 1.86-3.015.48-1.03.86-2.07 1.14-3.12.28-1.05.475-2.101.585-3.15.11-1.05.175-2.024.195-2.925a26.78 26.78 0 0 0-.255-3.225 24.426 24.426 0 0 0-.675-3.21c-.3-1.07-.686-2.11-1.155-3.12a21.115 21.115 0 0 0-1.635-2.896l2.52-1.619zm13.709 27.96c-.92-.96-1.7-2.015-2.34-3.165a19.59 19.59 0 0 1-1.545-3.54 22.553 22.553 0 0 1-.855-3.659c-.18-1.23-.27-2.405-.27-3.525 0-1.1.09-2.26.27-3.479.18-1.22.47-2.445.87-3.676.4-1.229.925-2.435 1.575-3.614a16.794 16.794 0 0 1 2.385-3.301L97 12.95c-.7.94-1.285 1.92-1.755 2.94a19.85 19.85 0 0 0-1.14 3.135 22.7 22.7 0 0 0-.63 3.225 26.37 26.37 0 0 0-.195 3.15c0 .96.07 1.98.21 3.06.14 1.08.36 2.156.66 3.226.3 1.069.69 2.115 1.17 3.135.48 1.021 1.06 1.95 1.74 2.79l-2.67 1.678zm6.12-6.6l6.87-16.17 1.32-1.47-1.8.3h-7.71v-3.66h13.53v1.14l-8.4 19.86h-3.81zm16.8-21.36c.96.96 1.76 2.016 2.4 3.165.64 1.15 1.155 2.33 1.545 3.54.39 1.211.675 2.431.855 3.66.18 1.23.28 2.426.3 3.585-.02 1.061-.12 2.2-.3 3.42a22.461 22.461 0 0 1-.87 3.675c-.4 1.23-.925 2.436-1.575 3.615a20.301 20.301 0 0 1-2.265 3.3l-2.67-1.68c.76-.98 1.38-1.985 1.86-3.015.48-1.03.86-2.07 1.14-3.12.28-1.05.475-2.101.585-3.15.11-1.05.175-2.024.195-2.925a26.78 26.78 0 0 0-.255-3.225 24.426 24.426 0 0 0-.675-3.21c-.3-1.07-.686-2.11-1.155-3.12a21.115 21.115 0 0 0-1.635-2.896l2.52-1.619zm13.5 18.33c1.32 0 2.33-.319 3.03-.96.7-.64 1.05-1.52 1.05-2.64 0-1.2-.41-2.08-1.23-2.64-.82-.561-1.991-.841-3.51-.841l-2.37.091v-10.98h10.32v3.66h-6.96v4.05l1.23-.12c.979.04 1.865.221 2.655.54.79.32 1.465.765 2.025 1.335s.99 1.26 1.29 2.07c.3.81.45 1.715.45 2.715 0 1.181-.2 2.22-.6 3.12a6.203 6.203 0 0 1-1.665 2.25c-.71.6-1.545 1.05-2.505 1.35s-2.01.45-3.15.45c-.9 0-1.755-.075-2.565-.225-.81-.15-1.496-.355-2.055-.615l1.05-3.24c.46.2.965.355 1.515.465.549.11 1.214.165 1.995.165zm12.239-2.099c0-.7.09-1.325.27-1.875.18-.55.435-1.05.765-1.5.33-.45.72-.855 1.17-1.215.45-.36.935-.69 1.455-.99-.98-.62-1.75-1.335-2.31-2.146-.561-.81-.84-1.814-.84-3.015 0-.78.145-1.51.435-2.189a5.04 5.04 0 0 1 1.26-1.771c.55-.5 1.215-.89 1.995-1.17.78-.28 1.66-.42 2.64-.42.9 0 1.72.12 2.46.36a5.68 5.68 0 0 1 1.905 1.02c.529.44.939.975 1.23 1.605.29.63.435 1.325.435 2.085 0 1.18-.266 2.18-.795 3s-1.305 1.57-2.325 2.25c1.2.7 2.104 1.47 2.715 2.31.61.84.915 1.92.915 3.24 0 .899-.165 1.715-.495 2.444a5.388 5.388 0 0 1-1.395 1.875c-.6.521-1.32.926-2.16 1.216-.84.289-1.76.435-2.76.435s-1.905-.135-2.715-.405c-.81-.27-1.5-.645-2.07-1.125-.57-.479-1.01-1.06-1.32-1.739s-.465-1.441-.465-2.28zm9.66-.39c0-.46-.11-.88-.33-1.261a4.197 4.197 0 0 0-.855-1.035c-.35-.31-.74-.595-1.17-.854s-.865-.51-1.305-.75c-.94.54-1.585 1.125-1.935 1.755-.35.63-.525 1.255-.525 1.875 0 .8.274 1.485.825 2.055.55.57 1.315.855 2.295.855.9 0 1.625-.22 2.175-.66.55-.44.825-1.1.825-1.98zm-5.43-10.29c0 .479.09.899.27 1.26.18.359.425.675.735.944.31.271.66.521 1.05.75.39.23.795.445 1.215.646 1.2-1.021 1.8-2.14 1.8-3.36 0-.84-.245-1.475-.735-1.904-.49-.431-1.085-.646-1.785-.646-.88 0-1.525.23-1.935.69-.41.46-.615 1-.615 1.62zm25.2-.061a9.165 9.165 0 0 1-.555 3.09c-.37 1.04-.84 2.061-1.41 3.061s-1.2 1.965-1.89 2.895a50.805 50.805 0 0 1-2.025 2.565l-1.59 1.229v.15l2.16-.42h5.76v3.3h-12.63v-2.01c.48-.5 1.02-1.085 1.62-1.755s1.205-1.38 1.815-2.13c.61-.75 1.205-1.525 1.785-2.325.58-.8 1.1-1.605 1.56-2.415a14.92 14.92 0 0 0 1.095-2.355c.27-.76.405-1.479.405-2.16 0-.819-.235-1.494-.705-2.024s-1.215-.795-2.235-.795a5.25 5.25 0 0 0-1.965.404c-.67.271-1.235.615-1.695 1.035l-1.56-2.76a9.836 9.836 0 0 1 2.655-1.545c.99-.39 2.155-.585 3.495-.585.86 0 1.65.12 2.37.36.72.239 1.34.59 1.86 1.05s.93 1.035 1.23 1.725c.3.691.45 1.495.45 2.415zm4.019 13.89c0-.699.22-1.254.66-1.664s1.02-.615 1.74-.615c.76 0 1.36.205 1.8.615s.66.965.66 1.664c0 .701-.22 1.261-.66 1.681s-1.04.63-1.8.63c-.72 0-1.3-.21-1.74-.63s-.66-.98-.66-1.681zm7.47-12.449c0-1.021.155-1.96.465-2.82.31-.859.76-1.595 1.35-2.205a6.293 6.293 0 0 1 2.16-1.439c.85-.351 1.825-.525 2.925-.525 2.26 0 4.035.675 5.325 2.025 1.29 1.35 1.935 3.314 1.935 5.895 0 2.32-.295 4.325-.885 6.015-.59 1.69-1.38 3.101-2.37 4.23-.99 1.13-2.135 1.995-3.435 2.595-1.3.601-2.67.96-4.11 1.08l-.84-3.06c1.1-.14 2.08-.41 2.94-.811.86-.399 1.6-.895 2.22-1.484s1.125-1.261 1.515-2.011.665-1.555.825-2.415c-.48.521-.995.881-1.545 1.08-.55.2-1.286.3-2.205.3-.76 0-1.515-.129-2.265-.39a5.826 5.826 0 0 1-2.01-1.185c-.59-.53-1.07-1.2-1.44-2.011-.37-.81-.555-1.765-.555-2.864zm3.78-.21c0 1.14.32 2 .96 2.58s1.44.869 2.4.869c.82 0 1.489-.13 2.01-.39.52-.26.92-.58 1.2-.96.06-.42.09-.819.09-1.2 0-.56-.07-1.109-.21-1.649a4.486 4.486 0 0 0-.645-1.44c-.29-.42-.66-.755-1.11-1.005-.45-.25-.985-.375-1.605-.375-.98 0-1.74.315-2.28.945s-.81 1.505-.81 2.625zm13.23.21c0-1.021.155-1.96.465-2.82.31-.859.76-1.595 1.35-2.205a6.293 6.293 0 0 1 2.16-1.439c.85-.351 1.825-.525 2.925-.525 2.26 0 4.035.675 5.325 2.025 1.29 1.35 1.935 3.314 1.935 5.895 0 2.32-.295 4.325-.885 6.015-.59 1.69-1.38 3.101-2.37 4.23-.99 1.13-2.135 1.995-3.435 2.595-1.3.601-2.67.96-4.11 1.08l-.84-3.06c1.1-.14 2.08-.41 2.94-.811.86-.399 1.6-.895 2.22-1.484s1.125-1.261 1.515-2.011.665-1.555.825-2.415c-.48.521-.995.881-1.545 1.08-.55.2-1.286.3-2.205.3-.76 0-1.515-.129-2.265-.39a5.826 5.826 0 0 1-2.01-1.185c-.59-.53-1.07-1.2-1.44-2.011-.371-.81-.555-1.765-.555-2.864zm3.779-.21c0 1.14.32 2 .96 2.58s1.44.869 2.4.869c.82 0 1.489-.13 2.01-.39.52-.26.92-.58 1.2-.96.06-.42.09-.819.09-1.2 0-.56-.07-1.109-.21-1.649a4.486 4.486 0 0 0-.645-1.44c-.29-.42-.66-.755-1.11-1.005-.45-.25-.985-.375-1.605-.375-.98 0-1.74.315-2.28.945s-.81 1.505-.81 2.625zm13.14 12.659c0-.699.22-1.254.66-1.664s1.02-.615 1.74-.615c.76 0 1.36.205 1.8.615s.66.965.66 1.664c0 .701-.22 1.261-.66 1.681s-1.04.63-1.8.63c-.72 0-1.3-.21-1.74-.63s-.66-.98-.66-1.681zm7.47-12.449c0-1.021.155-1.96.465-2.82.31-.859.76-1.595 1.35-2.205a6.293 6.293 0 0 1 2.16-1.439c.85-.351 1.825-.525 2.925-.525 2.26 0 4.035.675 5.325 2.025 1.29 1.35 1.935 3.314 1.935 5.895 0 2.32-.295 4.325-.885 6.015-.59 1.69-1.38 3.101-2.37 4.23-.99 1.13-2.135 1.995-3.435 2.595-1.3.601-2.67.96-4.11 1.08l-.84-3.06c1.1-.14 2.08-.41 2.94-.811.86-.399 1.6-.895 2.22-1.484s1.125-1.261 1.515-2.011.665-1.555.825-2.415c-.48.521-.995.881-1.545 1.08-.55.2-1.286.3-2.205.3-.76 0-1.515-.129-2.265-.39a5.826 5.826 0 0 1-2.01-1.185c-.59-.53-1.07-1.2-1.44-2.011-.371-.81-.555-1.765-.555-2.864zm3.779-.21c0 1.14.32 2 .96 2.58s1.44.869 2.4.869c.82 0 1.489-.13 2.01-.39.52-.26.92-.58 1.2-.96.06-.42.09-.819.09-1.2 0-.56-.07-1.109-.21-1.649a4.486 4.486 0 0 0-.645-1.44c-.29-.42-.66-.755-1.11-1.005-.45-.25-.985-.375-1.605-.375-.98 0-1.74.315-2.28.945s-.81 1.505-.81 2.625zm13.23.21c0-1.021.155-1.96.465-2.82.31-.859.76-1.595 1.35-2.205a6.293 6.293 0 0 1 2.16-1.439c.85-.351 1.825-.525 2.925-.525 2.26 0 4.035.675 5.325 2.025 1.29 1.35 1.935 3.314 1.935 5.895 0 2.32-.295 4.325-.885 6.015-.59 1.69-1.38 3.101-2.37 4.23-.99 1.13-2.135 1.995-3.435 2.595-1.3.601-2.67.96-4.11 1.08l-.84-3.06c1.1-.14 2.08-.41 2.94-.811.86-.399 1.6-.895 2.22-1.484s1.125-1.261 1.515-2.011.665-1.555.825-2.415c-.48.521-.995.881-1.545 1.08-.55.2-1.286.3-2.205.3-.76 0-1.515-.129-2.265-.39a5.826 5.826 0 0 1-2.01-1.185c-.59-.53-1.07-1.2-1.44-2.011-.37-.81-.555-1.765-.555-2.864zm3.78-.21c0 1.14.32 2 .96 2.58s1.44.869 2.4.869c.82 0 1.489-.13 2.01-.39.52-.26.92-.58 1.2-.96.06-.42.09-.819.09-1.2 0-.56-.07-1.109-.21-1.649a4.486 4.486 0 0 0-.645-1.44c-.29-.42-.66-.755-1.11-1.005-.45-.25-.985-.375-1.605-.375-.98 0-1.74.315-2.28.945s-.81 1.505-.81 2.625zM120.464 44.076h9.525v1.85h-7.45v5.726h6.825v1.85h-6.825v6.226h7.575v1.85h-9.65V44.076zm16.475 11.1l-4.2-6.1h2.45l2.375 3.45.7 1.425.725-1.425 2.425-3.45h2.25l-4.225 6 4.475 6.5h-2.375l-2.65-3.8-.75-1.5-.775 1.5-2.7 3.8h-2.225l4.5-6.4zm7.95-6.1h1.95v-2.475l2-.575v3.05h3.4v1.75h-3.4v6.925c0 .867.108 1.479.325 1.838s.583.537 1.1.537c.433 0 .8-.046 1.1-.138.3-.091.633-.212 1-.362l.45 1.525c-.45.217-.942.392-1.475.524-.534.134-1.109.2-1.725.2-1.017 0-1.733-.287-2.15-.862-.417-.575-.625-1.537-.625-2.888v-7.3h-1.95v-1.749zm10.474 1.276c0-.45.129-.805.388-1.063.258-.259.604-.388 1.038-.388.45 0 .808.129 1.075.388.267.258.4.612.4 1.063 0 .434-.133.783-.4 1.05s-.625.399-1.075.399c-.434 0-.779-.133-1.038-.399-.259-.267-.388-.617-.388-1.05zm0 10.074c0-.449.129-.804.388-1.063.258-.258.604-.387 1.038-.387.45 0 .808.129 1.075.387.267.259.4.613.4 1.063 0 .434-.133.784-.4 1.051-.267.266-.625.399-1.075.399-.434 0-.779-.134-1.038-.399-.259-.267-.388-.618-.388-1.051zm12.575-.699h3.5V47.626l.25-1.475-1 1.175-2.75 1.975-.95-1.274 5.5-4.25h.9v15.95h3.425v1.85h-8.875v-1.85zm12-6.901c0-3 .487-5.258 1.462-6.775.975-1.516 2.396-2.274 4.262-2.274 2.017 0 3.479.746 4.388 2.237.908 1.492 1.362 3.763 1.362 6.813 0 3-.487 5.259-1.462 6.775s-2.404 2.274-4.288 2.274c-1.983 0-3.434-.791-4.35-2.375-.916-1.583-1.374-3.808-1.374-6.675zm2.075 0c0 1.084.071 2.071.212 2.963s.363 1.658.663 2.3c.3.642.679 1.142 1.138 1.5.458.358 1.004.537 1.637.537 1.267 0 2.196-.587 2.788-1.763.591-1.175.888-3.021.888-5.537 0-1.066-.063-2.05-.188-2.95-.125-.899-.333-1.675-.625-2.325-.292-.649-.671-1.149-1.138-1.5-.467-.35-1.042-.524-1.725-.524-1.25 0-2.171.592-2.762 1.774-.592 1.183-.888 3.025-.888 5.525zm12.175 4.575c0-1.05.275-1.963.825-2.737.55-.775 1.408-1.479 2.575-2.113-.417-.25-.804-.512-1.163-.787s-.675-.588-.95-.938a4.228 4.228 0 0 1-.65-1.175c-.159-.434-.237-.934-.237-1.5 0-.65.112-1.241.337-1.775.225-.533.55-.991.975-1.375a4.608 4.608 0 0 1 1.525-.899c.591-.217 1.263-.325 2.013-.325.7 0 1.333.1 1.9.3.566.2 1.045.475 1.438.825.391.35.696.767.913 1.25.216.483.325 1.017.325 1.6 0 .95-.217 1.788-.65 2.513-.434.725-1.15 1.438-2.15 2.138.433.25.846.524 1.237.825.392.3.733.633 1.025 1 .292.366.521.779.688 1.237s.25.979.25 1.563c0 .717-.117 1.371-.35 1.962a4.174 4.174 0 0 1-1.025 1.525c-.45.425-1 .759-1.65 1s-1.392.362-2.225.362c-.8 0-1.508-.116-2.125-.35s-1.137-.55-1.563-.95a3.907 3.907 0 0 1-.962-1.412 4.687 4.687 0 0 1-.326-1.764zm8.275-.25c0-.5-.1-.938-.3-1.313a4.003 4.003 0 0 0-.787-1.025c-.325-.308-.696-.587-1.113-.837s-.85-.492-1.3-.726c-1.017.567-1.742 1.2-2.175 1.9s-.65 1.366-.65 2c0 .399.066.783.2 1.149.133.367.333.684.6.95.266.267.596.479.987.638s.846.237 1.362.237c.417 0 .816-.063 1.2-.188a3.055 3.055 0 0 0 1.013-.55c.291-.241.525-.55.7-.925.176-.372.263-.81.263-1.31zm-5.925-9.049c0 .467.092.879.275 1.237.183.358.429.679.737.962.308.284.663.547 1.063.788s.816.471 1.25.688c.75-.583 1.304-1.158 1.663-1.726a3.438 3.438 0 0 0 .538-1.875c0-.85-.263-1.504-.788-1.962s-1.154-.688-1.888-.688a3.021 3.021 0 0 0-2.1.8c-.25.233-.438.504-.563.813s-.187.629-.187.963zm11.05 5.349h6.05v1.85h-6.05v-1.85zm10.225 6.276h3.5V47.626l.25-1.475-1 1.175-2.75 1.975-.95-1.274 5.5-4.25h.9v15.95h3.425v1.85h-8.875v-1.85zm12-6.901c0-3 .487-5.258 1.462-6.775.975-1.516 2.396-2.274 4.262-2.274 2.017 0 3.479.746 4.388 2.237.908 1.492 1.362 3.763 1.362 6.813 0 3-.487 5.259-1.462 6.775s-2.404 2.274-4.288 2.274c-1.983 0-3.434-.791-4.35-2.375-.916-1.583-1.374-3.808-1.374-6.675zm2.075 0c0 1.084.071 2.071.212 2.963s.363 1.658.663 2.3c.3.642.679 1.142 1.138 1.5.458.358 1.004.537 1.637.537 1.267 0 2.196-.587 2.788-1.763.591-1.175.888-3.021.888-5.537 0-1.066-.063-2.05-.188-2.95-.125-.899-.333-1.675-.625-2.325-.292-.649-.671-1.149-1.138-1.5-.467-.35-1.042-.524-1.725-.524-1.25 0-2.171.592-2.762 1.774-.592 1.183-.888 3.025-.888 5.525zm11.775-3.45c0-.8.117-1.541.35-2.225s.575-1.275 1.025-1.775c.45-.5 1.013-.892 1.688-1.175.675-.283 1.463-.425 2.363-.425 1.7 0 3.025.55 3.975 1.649.95 1.101 1.425 2.65 1.425 4.65 0 1.884-.212 3.529-.638 4.938-.425 1.408-1.012 2.596-1.762 3.563s-1.638 1.721-2.663 2.263-2.138.888-3.337 1.037l-.45-1.6a8.103 8.103 0 0 0 2.613-.851 7.156 7.156 0 0 0 2-1.574 8.138 8.138 0 0 0 1.362-2.163c.35-.808.591-1.688.725-2.638-.45.534-.946.904-1.488 1.113-.542.208-1.254.313-2.137.313a5.54 5.54 0 0 1-1.938-.338c-.609-.225-1.146-.554-1.613-.987s-.833-.967-1.1-1.601c-.267-.632-.4-1.357-.4-2.174zm2.075-.2c0 1.184.313 2.071.938 2.663s1.446.888 2.462.888c.816 0 1.517-.134 2.1-.4.583-.267 1-.616 1.25-1.05.033-.217.05-.408.05-.575v-.525c0-.6-.071-1.179-.212-1.737a5.085 5.085 0 0 0-.637-1.5c-.284-.441-.654-.787-1.113-1.037s-.996-.375-1.612-.375c-1.017 0-1.809.321-2.375.962-.568.641-.851 1.536-.851 2.686z"/></g></svg>