<svg xmlns="http://www.w3.org/2000/svg" width="35.557" height="34.957" viewBox="0 0 35.557 34.957"><circle fill="#232323" cx="17.704" cy="17.066" r="16.033"/><path fill="#FFF" d="M28.193 10.713a8.26 8.26 0 0 1-2.351.645 4.106 4.106 0 0 0 1.799-2.266 8.164 8.164 0 0 1-2.599.994 4.093 4.093 0 0 0-6.974 3.733 11.622 11.622 0 0 1-8.436-4.275 4.073 4.073 0 0 0-.553 2.056 4.09 4.09 0 0 0 1.821 3.406 4.069 4.069 0 0 1-1.854-.512v.052a4.094 4.094 0 0 0 3.283 4.013 4.077 4.077 0 0 1-1.848.071 4.096 4.096 0 0 0 3.823 2.843 8.21 8.21 0 0 1-6.059 1.694 11.577 11.577 0 0 0 6.274 1.84c7.528 0 11.645-6.237 11.645-11.646 0-.177-.004-.354-.012-.529a8.375 8.375 0 0 0 2.041-2.119z"/></svg>