<svg xmlns="http://www.w3.org/2000/svg" width="80.792" height="81.833" viewBox="0 0 80.792 81.833"><linearGradient id="a" gradientUnits="userSpaceOnUse" x1="-510.143" y1="291.678" x2="-475.281" y2="262.816" gradientTransform="matrix(1 0 0 -1 539.1 325.233)"><stop offset="0" stop-color="#99111c"/><stop offset="1" stop-color="#99111c" stop-opacity="0"/></linearGradient><path fill="url(#a)" d="M1.195 47.762l.143-31.07 9.063-3.906.797-4.078 4.094-1.344 4.781 1.297 2.75-1.437.922-4.719 4.359-.891 4.375 1.141.703 5.094 2.344 1.062 5.187-.828 3.874 1.219.392 4.125 7.172 4.172 28.936 26.79v35.694h-40.42z"/><path fill="#B92025" d="M1.646 46.792l.644-29.061 8.356-4.439.167-3.458s.708-1.958 4.75-1.958 4.792 1.25 4.792 1.25l2.667-1.375v-4s1.208-1.75 4.208-1.75 5.417.333 5.5 2.375l.167 3.25 2.5 1.75s2.166-.958 4.125-.958 5.042.375 5.167 2.417l.333 3.917 5.792 3.458.375 28.833L27.104 60.25 1.646 46.792z"/><path fill="#FFF" d="M27.062 61.598L1.167 47.681V16.448l9.277-4.364.851 1.811-8.128 3.823v28.767l23.879 12.833 23.121-12.823V18.733l-5.834-3.412 1.01-1.726 6.824 3.992v30.085zM35.448 9.95l-2.922-1.687.75-1.299 2.922 1.688zm-15.057-.446l-.664-1.344 3.094-1.53.664 1.343z"/><path fill="#FFF" d="M27.662 32.453L2.29 17.731l.753-1.296 24.626 14.288 23.125-13.166.745 1.302z"/><path fill="#FFF" d="M26.167 31.083h2v29h-2zM15.715 12.588c-3.099 0-5.437-1.181-5.437-2.746 0-1.566 2.338-2.747 5.437-2.747 3.098 0 5.436 1.181 5.436 2.747 0 1.565-2.338 2.746-5.436 2.746zm0-4.493c-2.503 0-4.375.923-4.375 1.747 0 .824 1.872 1.746 4.375 1.746 2.502 0 4.373-.922 4.373-1.746s-1.871-1.747-4.373-1.747zM21.106 17c0 1.565-2.353 2.744-5.424 2.744s-5.387-1.181-5.387-2.746h1.053c0 .824 1.854 1.746 4.334 1.746s4.334-.922 4.334-1.746l1.09.002z"/><path fill="#FFF" d="M20.012 10.109h1.11v6.906h-1.11zM10.297 10h1.028v7.016h-1.028zm29.668 3.255c-3.099 0-5.437-1.181-5.437-2.746 0-1.566 2.338-2.747 5.437-2.747 3.098 0 5.436 1.181 5.436 2.747 0 1.565-2.338 2.746-5.436 2.746zm0-4.493c-2.503 0-4.375.923-4.375 1.747 0 .824 1.872 1.746 4.375 1.746 2.501 0 4.373-.922 4.373-1.746-.001-.824-1.872-1.747-4.373-1.747zm5.391 8.905c0 1.565-2.353 2.744-5.424 2.744s-5.387-1.181-5.387-2.746h1.053c0 .824 1.854 1.746 4.334 1.746 2.479 0 4.334-.922 4.334-1.746l1.09.002z"/><path fill="#FFF" d="M44.262 10.776h1.11v6.906h-1.11zm-9.715-.109h1.028v7.016h-1.028zm-6.541 9.63c-3.099 0-5.437-1.181-5.437-2.746 0-1.566 2.338-2.747 5.437-2.747 3.098 0 5.436 1.181 5.436 2.747 0 1.565-2.338 2.746-5.436 2.746zm0-4.493c-2.503 0-4.375.923-4.375 1.747 0 .824 1.872 1.746 4.375 1.746 2.502 0 4.373-.922 4.373-1.746s-1.871-1.747-4.373-1.747zm5.391 8.905c0 1.565-2.353 2.744-5.424 2.744s-5.387-1.181-5.387-2.746h1.053c0 .824 1.854 1.746 4.334 1.746s4.334-.922 4.334-1.746l1.09.002z"/><path fill="#FFF" d="M32.303 17.818h1.11v6.906h-1.11zm-9.715-.109h1.028v7.016h-1.028zm5.418-10.995c-3.099 0-5.437-1.181-5.437-2.746 0-1.566 2.338-2.747 5.437-2.747 3.098 0 5.436 1.181 5.436 2.747 0 1.565-2.338 2.746-5.436 2.746zm0-4.493c-2.503 0-4.375.923-4.375 1.747 0 .824 1.872 1.746 4.375 1.746 2.502 0 4.373-.922 4.373-1.746s-1.871-1.747-4.373-1.747zm5.391 8.905c0 1.565-2.353 2.744-5.424 2.744s-5.387-1.181-5.387-2.746h1.053c0 .824 1.854 1.746 4.334 1.746s4.334-.922 4.334-1.746l1.09.002z"/><path fill="#FFF" d="M32.303 4.235h1.11v6.906h-1.11zm-9.715-.109h1.028v7.016h-1.028z"/></svg>