<svg xmlns="http://www.w3.org/2000/svg" width="80.792" height="81.833" viewBox="0 0 80.792 81.833"><linearGradient id="a" gradientUnits="userSpaceOnUse" x1="28.957" y1="33.554" x2="63.82" y2="62.416"><stop offset="0" stop-color="#99111c"/><stop offset="1" stop-color="#99111c" stop-opacity="0"/></linearGradient><path fill="url(#a)" d="M1.195 47.762l.143-31.07 9.063-3.906.797-4.078 4.094-1.344 4.781 1.297 2.75-1.437.922-4.719 4.359-.891 4.375 1.141.703 5.094 2.344 1.062 5.187-.828 3.875 1.219.391 4.125 7.172 4.172 28.937 26.79v35.694H40.667z"/><path fill="#FFF" d="M27.062 61.598L1.167 47.681V16.448l9.277-4.364.851 1.811-8.128 3.823v28.767l23.879 12.833 23.121-12.824V18.733l-5.834-3.412 1.01-1.726 6.824 3.992v30.085zm6.216-54.634L36.2 8.652l-.75 1.299-2.922-1.688zM22.82 6.629l.665 1.343-3.094 1.531-.665-1.343z"/><path fill="#FFF" d="M27.662 32.453L2.29 17.731l.753-1.296 24.626 14.288 23.126-13.166.743 1.302z"/><path fill="#FFF" d="M26.167 31.083h2v29h-2zM15.715 12.588c-3.099 0-5.437-1.181-5.437-2.746 0-1.566 2.338-2.747 5.437-2.747 3.098 0 5.436 1.181 5.436 2.747 0 1.565-2.338 2.746-5.436 2.746zm0-4.493c-2.503 0-4.375.923-4.375 1.747s1.872 1.746 4.375 1.746c2.502 0 4.373-.922 4.373-1.746s-1.871-1.747-4.373-1.747zM21.106 17c0 1.565-2.353 2.744-5.424 2.744s-5.387-1.181-5.387-2.746h1.053c0 .824 1.854 1.746 4.334 1.746s4.334-.922 4.334-1.746l1.09.002z"/><path fill="#FFF" d="M20.012 10.109h1.11v6.906h-1.11zM10.297 10h1.028v7.016h-1.028zm29.668 3.255c-3.099 0-5.437-1.181-5.437-2.746 0-1.566 2.338-2.747 5.437-2.747 3.098 0 5.436 1.181 5.436 2.747 0 1.565-2.338 2.746-5.436 2.746zm0-4.493c-2.503 0-4.375.923-4.375 1.747s1.872 1.746 4.375 1.746c2.502 0 4.373-.922 4.373-1.746s-1.871-1.747-4.373-1.747zm5.391 8.905c0 1.565-2.353 2.744-5.424 2.744s-5.387-1.181-5.387-2.746h1.053c0 .824 1.854 1.746 4.334 1.746s4.334-.922 4.334-1.746l1.09.002z"/><path fill="#FFF" d="M44.262 10.776h1.11v6.906h-1.11zm-9.715-.109h1.028v7.016h-1.028zm-6.541 9.63c-3.099 0-5.437-1.181-5.437-2.746 0-1.566 2.338-2.747 5.437-2.747 3.098 0 5.436 1.181 5.436 2.747 0 1.565-2.338 2.746-5.436 2.746zm0-4.493c-2.503 0-4.375.923-4.375 1.747s1.872 1.746 4.375 1.746c2.502 0 4.373-.922 4.373-1.746s-1.871-1.747-4.373-1.747zm5.391 8.905c0 1.565-2.353 2.744-5.424 2.744s-5.387-1.181-5.387-2.746h1.053c0 .824 1.854 1.746 4.334 1.746s4.334-.922 4.334-1.746l1.09.002z"/><path fill="#FFF" d="M32.303 17.818h1.11v6.906h-1.11zm-9.715-.109h1.028v7.016h-1.028zm5.418-10.995c-3.099 0-5.437-1.181-5.437-2.746 0-1.566 2.338-2.747 5.437-2.747 3.098 0 5.436 1.181 5.436 2.747 0 1.565-2.338 2.746-5.436 2.746zm0-4.493c-2.503 0-4.375.923-4.375 1.747s1.872 1.746 4.375 1.746c2.502 0 4.373-.922 4.373-1.746s-1.871-1.747-4.373-1.747zm5.391 8.905c0 1.565-2.353 2.744-5.424 2.744s-5.387-1.181-5.387-2.746h1.053c0 .824 1.854 1.746 4.334 1.746s4.334-.922 4.334-1.746l1.09.002z"/><path fill="#FFF" d="M32.303 4.235h1.11v6.906h-1.11zm-9.715-.109h1.028v7.016h-1.028z"/></svg>