<svg xmlns="http://www.w3.org/2000/svg" width="93.042" height="73.797" viewBox="0 0 93.042 73.797"><linearGradient id="a" gradientUnits="userSpaceOnUse" x1="-504.689" y1="286.883" x2="-468.753" y2="257.132" gradientTransform="matrix(1 0 0 -1 539.1 317.197)"><stop offset="0" stop-color="#99111c"/><stop offset="1" stop-color="#99111c" stop-opacity="0"/></linearGradient><path fill="url(#a)" d="M2.148 45.4l.532-3.296-.938-11.422.688-7.766 4.015-6.078 5.141-3.438-1.25-.765-3.734-.5 1.359-1.516 4.953.266 7.109-9.11h29.275l7.897 10.344 1.282-.687 5.5.328 28.707 24.472v36.565H33.748z"/><path fill="#B92025" d="M3.507 43.346S.355 32.565 1.855 25.899s7.13-10.664 9.731-12.499l-4.898-.168-.667-1.333 1.94-1.279 4.227.696 7.917-9.25h28.75l8 9.917 1.622-.55 4.294.05.75 1-1.166 1.667-3.917.167s9 4.833 9.25 11.333.75 11.166-.25 17.5l.5 1.834s-12.501 2.917-14.917 2.25l-3.916-1.417-27.5.666-4.75 1.25s-13.333-2-14-2.75c-.001-.002-.529-1.023.652-1.637z"/><path fill="#FFF" d="M12.554 48.547H7.716a3.288 3.288 0 0 1-3.132-2.266.753.753 0 0 1 .839-.975c2.948.504 7.869 1.305 8.527 1.305.066 0 .243.014.307.031a.783.783 0 0 1 .574.738c0 1.061-2.254 1.167-2.277 1.167zm50.285 0h-4.838c-.404 0-.928-.188-1.203-.3-.531-.218-1.051-.476-1.051-1.034 0-.414.424-.781.838-.781.713 0 5.625-.748 8.565-1.221a.739.739 0 0 1 .688.254.75.75 0 0 1 .143.721c-.455 1.39-1.748 2.361-3.142 2.361z"/><path fill="#FFF" d="M17.328 48.355c-.015 0-.029 0-.043-.002-4.42-.258-14.792-1.127-15.627-3.629a.747.747 0 0 1 .008-.496l.805-2.188c-.426-1.495-2.435-9.246-.903-17.552.03-.237.956-6.778 8.254-10.714.134-.061.281-.139.426-.229H7.207c-.557-.04-1.543-.405-1.717-1.505a.75.75 0 0 1 .296-.721l1.528-1.126a.744.744 0 0 1 .445-.146h4.031a.75.75 0 0 1 .697.473l6.861-9.172a.752.752 0 0 1 .601-.301H48.71c.229 0 .444.104.586.283l7.842 9.868a.75.75 0 0 1 .685-.444h4.382a.76.76 0 0 1 .293.06c.758.322 2.019 1.014 1.926 2.027-.086.934-1.301 1.636-1.819 1.895a.756.756 0 0 1-.33.079l-2.128.016c.176.113.368.235.578.366 1.777 1.114 7.604 5.204 7.926 11.055.03.328.779 8.715-.467 15.959l.363 2.423a.743.743 0 0 1-.17.597c-.332.394-2.627 2.377-15.119 2.873a.659.659 0 0 1-.252-.033l-3.772-1.176-27.153.125-4.547 1.309a.843.843 0 0 1-.206.026zM3.199 44.402c1.014.947 7.19 2.037 14.044 2.447l4.524-1.302a.67.67 0 0 1 .204-.028l27.372-.129c.053-.021.152.012.227.034l3.76 1.173c9.76-.397 12.873-1.723 13.668-2.182l-.315-2.104a.728.728 0 0 1 .003-.242c1.241-7.075.479-15.625.469-15.71-.291-5.29-6.07-9.169-7.226-9.893-2.103-1.318-2.593-1.78-2.671-1.859a.75.75 0 0 1 .539-1.272h.002l.983.004 3.298-.024c.313-.174.623-.399.775-.56-.166-.147-.492-.351-.813-.502h-3.703l-.238.634a.75.75 0 0 1-1.238.26l-.478-.489-8.037-10.111H20.324l-7.051 9.426a.754.754 0 0 1-.386.27l-.471.141c.102.153.144.34.116.524-.204 1.371-1.866 2.134-2.055 2.217-6.54 3.529-7.421 9.54-7.429 9.601-1.609 8.731.903 17.04.928 17.124a.749.749 0 0 1-.013.479l-.764 2.073zm4.806-32.855l-.682.502 3.905-.002a.8.8 0 0 1-.056-.198l-.04-.302H8.005z"/><path fill="#FFF" d="M54.807 15.172h-.009l-40.476-.479a.75.75 0 0 1-.597-1.192l7.073-9.677a.75.75 0 0 1 .605-.308h25.794c.236 0 .458.111.601.301l7.522 10.042a.75.75 0 0 1-.495 1.313h-.018zM15.796 13.21l37.499.444-6.471-8.639H21.786l-5.99 8.195zm.535 18.277a.655.655 0 0 1-.098-.007L5.717 30.099l-1.309.309a.756.756 0 0 1-.641-.146l-1.273-1.02a.749.749 0 0 1-.26-.763l1.358-5.559a.75.75 0 0 1 .937-.543l11.288 3.268a.75.75 0 0 1 .531.599l.722 4.371a.75.75 0 0 1-.739.872zm-10.652-2.9c.033 0 .065.002.098.007l9.649 1.269-.48-2.907-10.082-2.92-1.059 4.335.614.492 1.087-.257a.841.841 0 0 1 .173-.019zm48.717 2.9a.748.748 0 0 1-.74-.873l.721-4.371a.751.751 0 0 1 .527-.597l11.034-3.268a.744.744 0 0 1 .94.541l1.358 5.559a.752.752 0 0 1-.26.764l-1.272 1.02a.767.767 0 0 1-.642.145l-1.308-.309-10.26 1.382a.628.628 0 0 1-.098.007zm1.385-4.535l-.479 2.906 9.392-1.265a.712.712 0 0 1 .272.013l1.087.257.614-.492-1.058-4.33-9.828 2.911zM16.925 46.341a.55.55 0 0 1-.081-.005C4.357 44.979 3.769 43.887 3.576 43.525a.728.728 0 0 1-.069-.18c-.02-.082-.483-2.053-1.034-6.838a.749.749 0 0 1 .975-.8l12.137 3.905a.744.744 0 0 1 .327.211l3.607 3.988a.752.752 0 0 1-.158 1.138l-2.037 1.273a.711.711 0 0 1-.399.119zm-12.008-3.57c1.067.578 6.796 1.487 11.832 2.045l1.057-.66-2.872-3.176-10.833-3.485c.377 3.048.697 4.71.816 5.276zm48.715 3.57a.735.735 0 0 1-.396-.114l-2.037-1.272a.75.75 0 0 1-.158-1.137l3.607-3.989a.733.733 0 0 1 .327-.211l12.137-3.905a.752.752 0 0 1 .976.8c-.551 4.785-1.015 6.754-1.034 6.836a.785.785 0 0 1-.069.182c-.193.359-.781 1.451-13.268 2.81h-.085zm-.881-2.185l1.058.66c5.036-.559 10.764-1.467 11.831-2.045.117-.566.438-2.229.814-5.276l-10.83 3.485-2.873 3.176z"/><path fill="#FFF" d="M47.988 46.001h-.002l-25.377-.085a.764.764 0 0 1-.458-.157l-2.079-1.612a.752.752 0 0 1-.279-.467l-2.844-16.722a.75.75 0 0 1 .342-.762l2.377-1.484a.745.745 0 0 1 .397-.114h.002l31.276.085a.75.75 0 0 1 .479.174l2.037 1.698a.754.754 0 0 1 .258.714L50.89 44.497a.752.752 0 0 1-.452.556l-2.165.893a.816.816 0 0 1-.285.055zm-25.119-1.584l24.972.083 1.648-.68 3.069-16.396-1.491-1.243-30.79-.083-1.767 1.104 2.71 15.938 1.649 1.277z"/></svg>