<svg xmlns="http://www.w3.org/2000/svg" width="93.042" height="73.797" viewBox="0 0 93.042 73.797"><linearGradient id="a" gradientUnits="userSpaceOnUse" x1="34.411" y1="30.314" x2="70.347" y2="60.066"><stop offset="0" stop-color="#99111c"/><stop offset="1" stop-color="#99111c" stop-opacity="0"/></linearGradient><path fill="url(#a)" d="M2.148 45.4l.532-3.296-.938-11.422.688-7.766 4.015-6.078 5.141-3.438-1.25-.765-3.734-.5 1.359-1.516 4.953.266 7.109-9.11h29.276l7.896 10.344 1.282-.687 5.5.328 28.707 24.472v36.565H33.748z"/><path fill="#FFF" d="M12.554 48.547H7.716a3.288 3.288 0 0 1-3.132-2.266.75.75 0 0 1 .839-.974c2.948.504 7.869 1.304 8.527 1.304.066 0 .243.014.307.031a.784.784 0 0 1 .574.739c0 1.06-2.254 1.166-2.277 1.166zm50.286 0h-4.838c-.405 0-.928-.188-1.203-.3-.532-.217-1.051-.475-1.051-1.034 0-.414.423-.781.837-.781h.001c.712 0 5.624-.749 8.565-1.221a.751.751 0 0 1 .831.975c-.456 1.39-1.749 2.361-3.142 2.361z"/><path fill="#FFF" d="M17.328 48.355l-.043-.001c-4.42-.258-14.792-1.127-15.627-3.63a.747.747 0 0 1 .008-.496l.805-2.187c-.426-1.495-2.435-9.246-.903-17.552.03-.237.956-6.778 8.254-10.714.134-.061.281-.139.426-.229H7.207c-.557-.041-1.543-.406-1.717-1.506a.75.75 0 0 1 .296-.721l1.528-1.126a.744.744 0 0 1 .445-.146h4.031a.75.75 0 0 1 .697.473l6.861-9.172a.752.752 0 0 1 .601-.301H48.71c.229 0 .445.104.587.283l7.841 9.868a.75.75 0 0 1 .685-.444h4.381c.101 0 .2.021.293.06.759.322 2.019 1.014 1.926 2.027-.085.934-1.3 1.636-1.819 1.895a.756.756 0 0 1-.33.079l-2.128.016c.176.113.368.235.578.366 1.778 1.114 7.604 5.204 7.926 11.055.03.328.779 8.715-.467 15.959l.364 2.423a.752.752 0 0 1-.17.597c-.333.393-2.628 2.377-15.119 2.873a.684.684 0 0 1-.253-.033l-3.772-1.177-27.152.126-4.547 1.308a.798.798 0 0 1-.206.027zM3.199 44.403c1.014.947 7.19 2.037 14.044 2.446l4.524-1.301a.704.704 0 0 1 .204-.029l27.372-.128c.053-.022.153.012.227.034l3.759 1.173c9.76-.398 12.873-1.723 13.669-2.182l-.316-2.104a.75.75 0 0 1 .003-.241c1.241-7.076.478-15.625.469-15.711-.291-5.29-6.071-9.169-7.226-9.893-2.103-1.318-2.593-1.78-2.67-1.859a.75.75 0 0 1 .538-1.272h.003l.983.004 3.297-.024c.313-.174.624-.399.776-.56-.166-.147-.492-.351-.813-.502H58.34l-.239.634a.75.75 0 0 1-1.238.26l-.478-.489-8.037-10.112H20.324l-7.051 9.426a.754.754 0 0 1-.386.27l-.471.141c.102.153.144.34.116.524-.204 1.371-1.866 2.134-2.055 2.217-6.54 3.529-7.421 9.54-7.429 9.601-1.609 8.731.903 17.04.928 17.123a.748.748 0 0 1-.013.479l-.764 2.075zm4.806-32.856l-.682.502 3.905-.002a.8.8 0 0 1-.056-.198l-.04-.302H8.005z"/><path fill="#FFF" d="M54.807 15.172h-.009l-40.475-.479a.75.75 0 0 1-.597-1.192l7.073-9.677a.75.75 0 0 1 .605-.308h25.794c.236 0 .458.111.6.301l7.523 10.042a.75.75 0 0 1-.495 1.313h-.019zM15.796 13.21l37.499.444-6.471-8.639H21.786l-5.99 8.195zm.535 18.277a.655.655 0 0 1-.098-.007L5.717 30.099l-1.309.309a.756.756 0 0 1-.641-.146l-1.273-1.02a.749.749 0 0 1-.26-.763l1.358-5.559a.75.75 0 0 1 .937-.543l11.288 3.268a.75.75 0 0 1 .531.599l.722 4.371a.75.75 0 0 1-.739.872zm-10.652-2.9c.033 0 .065.002.098.007l9.649 1.269-.48-2.907-10.082-2.92-1.059 4.335.614.492 1.087-.257a.841.841 0 0 1 .173-.019zm48.717 2.9a.748.748 0 0 1-.74-.873l.721-4.371a.751.751 0 0 1 .527-.597l11.034-3.268a.742.742 0 0 1 .586.068.753.753 0 0 1 .355.473l1.358 5.559a.752.752 0 0 1-.26.764l-1.273 1.02a.764.764 0 0 1-.641.145l-1.308-.309-10.26 1.382a.641.641 0 0 1-.099.007zm1.385-4.535l-.479 2.906 9.392-1.265a.712.712 0 0 1 .272.013l1.087.257.615-.492-1.058-4.33-9.829 2.911zM16.925 46.341a.55.55 0 0 1-.081-.005c-12.487-1.358-13.075-2.45-13.268-2.81a.735.735 0 0 1-.069-.181c-.02-.082-.483-2.052-1.034-6.837a.749.749 0 0 1 .975-.8l12.137 3.905c.125.04.238.113.327.211l3.607 3.989a.751.751 0 0 1-.158 1.138l-2.037 1.273a.734.734 0 0 1-.399.117zm-12.008-3.57c1.067.578 6.796 1.488 11.832 2.045l1.057-.66-2.872-3.176-10.833-3.485c.377 3.048.697 4.71.816 5.276zm48.716 3.57a.745.745 0 0 1-.397-.114l-2.037-1.273a.748.748 0 0 1-.158-1.138l3.607-3.989a.741.741 0 0 1 .327-.211l12.137-3.905a.75.75 0 0 1 .975.8c-.551 4.785-1.014 6.755-1.034 6.836a.785.785 0 0 1-.069.182c-.193.359-.782 1.451-13.268 2.81l-.083.002zm-.881-2.185l1.057.66c5.036-.558 10.764-1.467 11.831-2.045.118-.566.438-2.229.815-5.276L55.624 40.98l-2.872 3.176z"/><path fill="#FFF" d="M47.988 46.001h-.002l-25.377-.085a.757.757 0 0 1-.458-.157l-2.079-1.613a.75.75 0 0 1-.279-.467l-2.844-16.721a.75.75 0 0 1 .342-.762l2.377-1.484a.745.745 0 0 1 .397-.114h.002l31.276.085a.75.75 0 0 1 .479.174l2.037 1.698a.751.751 0 0 1 .257.714L50.89 44.497a.752.752 0 0 1-.452.556l-2.165.892a.77.77 0 0 1-.285.056zm-25.119-1.584l24.972.083 1.649-.679 3.069-16.396-1.491-1.243-30.79-.083-1.767 1.104 2.71 15.938 1.648 1.276z"/></svg>