<svg xmlns="http://www.w3.org/2000/svg" width="34.57" height="33.692" viewBox="0 0 34.57 33.692"><circle fill="#232323" cx="17.49" cy="17.342" r="16.033"/><path fill="#232323" d="M17.914 7.743c-4.855 0-8.794 3.937-8.794 8.792 0 2.846 1.714 5.216 1.714 5.216L9.76 24.953l3.309-1.08s2.154 1.456 4.846 1.456a8.794 8.794 0 0 0-.001-17.586z"/><path fill="#FFF" d="M17.914 6.067c-5.781 0-10.467 4.687-10.467 10.468 0 2.87 1.518 5.436 1.518 5.436l-1.832 5.573 5.738-1.832s2.129 1.291 5.043 1.291c5.781 0 10.468-4.687 10.468-10.468S23.695 6.067 17.914 6.067zm0 19.262c-2.691 0-4.846-1.456-4.846-1.456l-3.309 1.08 1.074-3.202s-1.714-2.37-1.714-5.216c0-4.855 3.938-8.792 8.794-8.792a8.792 8.792 0 0 1 8.793 8.792 8.791 8.791 0 0 1-8.792 8.794z"/><path fill="#FFF" d="M13.927 11.979s.281-.179.431-.179h.823s.221.037.324.267c.1.231.797 1.865.848 1.991.052.126.188.438-.029.718-.215.279-.67.801-.67.801s-.178.16-.023.418.701 1.105 1.416 1.745 1.59 1.111 2.025 1.255c.436.143.533-.048.7-.263s.688-.872.688-.872.179-.265.532-.102c.352.161 2.066.99 2.066.99s.209.037.221.27c.014.233.157.931-.467 1.602-.619.672-1.941.981-2.567.807s-2.696-.715-4.046-1.975c-1.35-1.259-2.443-2.583-2.889-3.56-.447-.978-.424-1.559-.399-1.831.025-.273.169-1.54 1.016-2.082z"/></svg>