<?xml version="1.0" encoding="utf-8"?>
<!-- Generator: Adobe Illustrator 16.0.0, SVG Export Plug-In . SVG Version: 6.00 Build 0)  -->
<!DOCTYPE svg PUBLIC "-//W3C//DTD SVG 1.1//EN" "http://www.w3.org/Graphics/SVG/1.1/DTD/svg11.dtd">
<svg version="1.1" xmlns="http://www.w3.org/2000/svg" xmlns:xlink="http://www.w3.org/1999/xlink" x="0px" y="0px"
	 width="52.917px" height="40.25px" viewBox="0 0 52.917 40.25" enable-background="new 0 0 52.917 40.25" xml:space="preserve">
<g id="Soporte">
</g>
<g id="Publicidad">
</g>
<g id="Imagenes">
</g>
<g id="Cintillos">
</g>
<g id="Botones">
	<g>
		<path fill="#FFFFFF" d="M48.871,13.613c0-6.027-6.439-10.931-14.354-10.931c-7.916,0-14.356,4.903-14.356,10.931
			c0,6.028,6.44,10.933,14.356,10.933C42.432,24.546,48.871,19.642,48.871,13.613z M21.661,13.613c0-5.2,5.768-9.431,12.856-9.431
			c7.087,0,12.854,4.23,12.854,9.431c0,5.201-5.766,9.433-12.854,9.433C27.428,23.046,21.661,18.814,21.661,13.613z"/>
		<path fill="#FFFFFF" d="M51.196,10.09c-0.053-0.134-0.114-0.264-0.172-0.396C51.011,9.669,51,9.644,50.987,9.619
			C49.87,7.144,47.821,5,45.152,3.424c-2.985-1.865-6.668-2.984-10.666-2.984c-3.318,0-6.417,0.774-9.085,2.101
			c-4.23,1.942-7.292,5.194-8.196,9.019c-0.408,1.259-0.645,2.577-0.645,3.943c0,1.899,0.414,3.661,1.213,5.373L2.132,32.085
			c-0.001,0.001-0.002,0.003-0.004,0.004c-0.098,0.045-0.203,0.071-0.296,0.128c-0.791,0.481-1.279,1.324-1.375,2.372
			c-0.088,0.966,0.172,2.004,0.733,2.925c0.848,1.39,2.209,2.253,3.555,2.253c0.527,0,1.014-0.134,1.446-0.396
			c0.198-0.12,0.376-0.268,0.537-0.435l16.277-11.875c3.217,2.258,7.275,3.507,11.483,3.507c9.884,0,17.926-6.759,17.926-15.065
			C52.413,13.593,51.971,11.772,51.196,10.09z M18.415,13.909c0-0.677,0.095-1.336,0.245-1.982c1.144-3.446,3.889-6.344,7.541-8.115
			c2.408-1.068,5.217-1.694,8.228-1.694c3.673,0,7.051,0.925,9.756,2.462c2.509,1.522,4.473,3.613,5.613,6.047
			c0.412,1.044,0.645,2.143,0.645,3.283c0,6.503-7.184,11.793-16.014,11.793C25.598,25.702,18.415,20.412,18.415,13.909z
			 M5.41,38.089c-0.817,0.5-2.207-0.154-2.939-1.356c-0.389-0.638-0.579-1.369-0.52-2.006c0.052-0.563,0.287-1,0.662-1.229
			C2.806,33.38,3.03,33.32,3.278,33.32c0.039,0,0.079,0.008,0.119,0.011c0.122,0.01,0.244,0.027,0.369,0.066
			c0.028,0.008,0.057,0.014,0.085,0.022c0.53,0.191,1.083,0.642,1.609,1.303c0.03,0.045,0.063,0.087,0.091,0.133
			c0.389,0.638,0.578,1.369,0.52,2.006C6.019,37.425,5.784,37.861,5.41,38.089z M6.735,33.906c-0.034-0.044-0.067-0.076-0.1-0.118
			c-0.535-0.765-1.228-1.342-1.98-1.666l14.127-10.124l0.274-0.146c0.042-0.004,0.077-0.01,0.133-0.01c0.468,0,1.195,0.197,2,1.137
			c1.314,1.532,1.269,2.411,1.221,2.658L7.669,36.392C7.655,35.633,7.404,34.778,6.735,33.906z M34.487,29.067
			c-3.893,0-7.637-1.146-10.6-3.221c0.058-0.348,0.054-0.823-0.125-1.418c2.958,1.731,6.65,2.773,10.665,2.773
			c6.732,0,12.58-2.901,15.51-7.14C47.662,25.303,41.604,29.067,34.487,29.067z"/>
	</g>
</g>
<g id="Iconos">
</g>
<g id="TXT">
</g>
<g id="Guias" display="none">
</g>
</svg>
