<?xml version="1.0" encoding="utf-8"?>
<!-- Generator: Adobe Illustrator 16.0.0, SVG Export Plug-In . SVG Version: 6.00 Build 0)  -->
<!DOCTYPE svg PUBLIC "-//W3C//DTD SVG 1.1//EN" "http://www.w3.org/Graphics/SVG/1.1/DTD/svg11.dtd">
<svg version="1.1" xmlns="http://www.w3.org/2000/svg" xmlns:xlink="http://www.w3.org/1999/xlink" x="0px" y="0px"
	 width="102.419px" height="67.21px" viewBox="0 0 102.419 67.21" enable-background="new 0 0 102.419 67.21" xml:space="preserve">
<g id="Soporte">
</g>
<g id="Publicidad">
</g>
<g id="Imagenes">
</g>
<g id="Cintillos">
</g>
<g id="Botones">
</g>
<g id="Iconos">
</g>
<g id="TXT">
	<g>
		<g>
			<polygon fill="#FFFFFF" points="101.294,64.679 97.612,66.015 4.524,65.95 1.294,64.679 1.294,63.333 101.294,63.333 			"/>
			<path fill="#FFFFFF" d="M89.903,1.333H12.746c-0.888,0-1.452,0.955-1.452,1.607v56.738c0,0.652,0.564,1.654,1.452,1.654h77.158
				c0.889,0,1.391-1.002,1.391-1.654V2.94C91.294,2.288,90.792,1.333,89.903,1.333z M89.294,58.333h-76v-55h76V58.333z"/>
			<polygon fill="#FFFFFF" points="9.349,16.673 6.264,16.673 6.264,18.114 5.423,18.897 5.41,28.433 5.83,28.812 5.788,19.29 
				6.264,18.813 6.264,29.315 6.264,49.679 7.934,52.353 9.468,49.595 			"/>
		</g>
		<g>
			<path fill="#FFFFFF" d="M44.981,18.453c-0.195-0.243,0.093-0.782,0.638-1.308c0.829-0.797,6.521-6.52,8.793-8.793
				c0.572-0.571,2.503-1.731,4.398,0.896c2.295,3.189,0.228,4.756,0,4.846c-3.03,1.194-12.559,4.321-12.559,4.321
				S45.238,18.772,44.981,18.453z"/>
			<path fill="#FFFFFF" d="M51.375,20.526c-10.129,0-18.344,7.228-18.344,16.146s8.215,16.146,18.344,16.146
				c10.127,0,18.34-7.228,18.34-16.146S61.503,20.526,51.375,20.526z M51.375,49.304c-4.61,0-8.349-5.656-8.349-12.632
				s3.738-12.632,8.349-12.632c4.606,0,8.344,5.656,8.344,12.632S55.982,49.304,51.375,49.304z"/>
		</g>
	</g>
</g>
<g id="Guias" display="none">
</g>
</svg>
