<?xml version="1.0" encoding="utf-8"?>
<!-- Generator: Adobe Illustrator 16.0.0, SVG Export Plug-In . SVG Version: 6.00 Build 0)  -->
<!DOCTYPE svg PUBLIC "-//W3C//DTD SVG 1.1//EN" "http://www.w3.org/Graphics/SVG/1.1/DTD/svg11.dtd">
<svg version="1.1" xmlns="http://www.w3.org/2000/svg" xmlns:xlink="http://www.w3.org/1999/xlink" x="0px" y="0px"
	 width="258.125px" height="76.833px" viewBox="0 0 258.125 76.833" enable-background="new 0 0 258.125 76.833"
	 xml:space="preserve">
<g id="Soporte">
</g>
<g id="Publicidad">
</g>
<g id="Imagenes">
</g>
<g id="Cintillos">
</g>
<g id="Botones">
</g>
<g id="Iconos">
</g>
<g id="TXT">
	<g>
		<path fill="#FFFFFF" d="M6.614,1.333H25.1c0,0,2.302,1.234,2.193,2.746C27.186,5.591,28.05,16.37,30.21,19.827
			c0,0,0.756,0.961-0.433,2.365c-1.188,1.402-8.748,8.903-8.748,8.903s7.452,16.981,26.028,25.621l8.748-8.304
			c0,0,1.081-1.29,2.7-0.317c1.62,0.973,8.856,2.919,15.12,2.703c0,0,2.375,0.65,2.375,2.595c0,1.943,0,18.688,0,18.688
			s-1.018,2.155-2.313,2.263c-1.297,0.108-27.58,3.246-50.682-20.844C0.216,29.741,3.873,4.295,3.873,4.295S4.294,1.333,6.614,1.333
			z"/>
		<g>
			<path fill="#FFFFFF" d="M40.751,39.289c-0.92-0.96-1.7-2.015-2.34-3.165c-0.641-1.149-1.155-2.33-1.545-3.54
				c-0.39-1.209-0.675-2.43-0.855-3.659c-0.18-1.23-0.27-2.405-0.27-3.525c0-1.1,0.09-2.26,0.27-3.479
				c0.18-1.22,0.47-2.445,0.87-3.676c0.4-1.229,0.925-2.435,1.575-3.614c0.649-1.181,1.444-2.28,2.385-3.301l2.52,1.62
				c-0.7,0.94-1.285,1.92-1.755,2.94c-0.47,1.02-0.851,2.065-1.14,3.135c-0.29,1.07-0.5,2.146-0.63,3.225
				c-0.13,1.08-0.195,2.131-0.195,3.15c0,0.96,0.07,1.98,0.21,3.06c0.14,1.08,0.36,2.156,0.66,3.226
				c0.3,1.069,0.69,2.115,1.17,3.135c0.48,1.021,1.06,1.95,1.74,2.79L40.751,39.289z"/>
			<path fill="#FFFFFF" d="M50.352,29.659c1.32,0,2.33-0.319,3.03-0.96c0.7-0.64,1.05-1.52,1.05-2.64c0-1.2-0.41-2.08-1.23-2.64
				c-0.82-0.561-1.991-0.841-3.51-0.841l-2.37,0.091v-10.98h10.32v3.66h-6.96v4.05l1.23-0.12c0.979,0.04,1.865,0.221,2.655,0.54
				c0.79,0.32,1.465,0.765,2.025,1.335s0.99,1.26,1.29,2.07c0.3,0.81,0.45,1.715,0.45,2.715c0,1.181-0.2,2.22-0.6,3.12
				c-0.4,0.899-0.955,1.649-1.665,2.25c-0.71,0.6-1.545,1.05-2.505,1.35s-2.01,0.45-3.15,0.45c-0.9,0-1.755-0.075-2.565-0.225
				c-0.81-0.15-1.496-0.355-2.055-0.615l1.05-3.24c0.46,0.2,0.965,0.355,1.515,0.465C48.906,29.604,49.571,29.659,50.352,29.659z"/>
			<path fill="#FFFFFF" d="M63.881,32.689l6.87-16.17l1.32-1.47l-1.8,0.3h-7.71v-3.66h13.53v1.14l-8.4,19.86H63.881z"/>
			<path fill="#FFFFFF" d="M80.681,11.329c0.96,0.96,1.76,2.016,2.4,3.165c0.64,1.15,1.155,2.33,1.545,3.54
				c0.39,1.211,0.675,2.431,0.855,3.66c0.18,1.23,0.28,2.426,0.3,3.585c-0.02,1.061-0.12,2.2-0.3,3.42
				c-0.18,1.221-0.47,2.445-0.87,3.675c-0.4,1.23-0.925,2.436-1.575,3.615c-0.65,1.18-1.405,2.28-2.265,3.3l-2.67-1.68
				c0.76-0.98,1.38-1.985,1.86-3.015c0.48-1.03,0.86-2.07,1.14-3.12c0.28-1.05,0.475-2.101,0.585-3.15
				c0.11-1.05,0.175-2.024,0.195-2.925c-0.02-1.08-0.105-2.155-0.255-3.225c-0.15-1.07-0.375-2.141-0.675-3.21
				c-0.3-1.07-0.686-2.11-1.155-3.12c-0.47-1.01-1.015-1.976-1.635-2.896L80.681,11.329z"/>
			<path fill="#FFFFFF" d="M94.39,39.289c-0.92-0.96-1.7-2.015-2.34-3.165c-0.641-1.149-1.155-2.33-1.545-3.54
				c-0.39-1.209-0.675-2.43-0.855-3.659c-0.18-1.23-0.27-2.405-0.27-3.525c0-1.1,0.09-2.26,0.27-3.479
				c0.18-1.22,0.47-2.445,0.87-3.676c0.4-1.229,0.925-2.435,1.575-3.614c0.649-1.181,1.444-2.28,2.385-3.301l2.52,1.62
				c-0.7,0.94-1.285,1.92-1.755,2.94c-0.47,1.02-0.851,2.065-1.14,3.135c-0.29,1.07-0.5,2.146-0.63,3.225
				c-0.13,1.08-0.195,2.131-0.195,3.15c0,0.96,0.07,1.98,0.21,3.06c0.14,1.08,0.36,2.156,0.66,3.226
				c0.3,1.069,0.69,2.115,1.17,3.135c0.48,1.021,1.06,1.95,1.74,2.79L94.39,39.289z"/>
			<path fill="#FFFFFF" d="M100.51,32.689l6.87-16.17l1.32-1.47l-1.8,0.3h-7.71v-3.66h13.53v1.14l-8.4,19.86H100.51z"/>
			<path fill="#FFFFFF" d="M117.31,11.329c0.96,0.96,1.76,2.016,2.4,3.165c0.64,1.15,1.155,2.33,1.545,3.54
				c0.39,1.211,0.675,2.431,0.855,3.66c0.18,1.23,0.28,2.426,0.3,3.585c-0.02,1.061-0.12,2.2-0.3,3.42
				c-0.18,1.221-0.47,2.445-0.87,3.675c-0.4,1.23-0.925,2.436-1.575,3.615c-0.65,1.18-1.405,2.28-2.265,3.3l-2.67-1.68
				c0.76-0.98,1.38-1.985,1.86-3.015c0.48-1.03,0.86-2.07,1.14-3.12c0.28-1.05,0.475-2.101,0.585-3.15
				c0.11-1.05,0.175-2.024,0.195-2.925c-0.02-1.08-0.105-2.155-0.255-3.225c-0.15-1.07-0.375-2.141-0.675-3.21
				c-0.3-1.07-0.686-2.11-1.155-3.12c-0.47-1.01-1.015-1.976-1.635-2.896L117.31,11.329z"/>
			<path fill="#FFFFFF" d="M130.81,29.659c1.32,0,2.33-0.319,3.03-0.96c0.7-0.64,1.05-1.52,1.05-2.64c0-1.2-0.41-2.08-1.23-2.64
				c-0.82-0.561-1.991-0.841-3.51-0.841l-2.37,0.091v-10.98h10.32v3.66h-6.96v4.05l1.23-0.12c0.979,0.04,1.865,0.221,2.655,0.54
				c0.79,0.32,1.465,0.765,2.025,1.335s0.99,1.26,1.29,2.07c0.3,0.81,0.45,1.715,0.45,2.715c0,1.181-0.2,2.22-0.6,3.12
				c-0.4,0.899-0.955,1.649-1.665,2.25c-0.71,0.6-1.545,1.05-2.505,1.35s-2.01,0.45-3.15,0.45c-0.9,0-1.755-0.075-2.565-0.225
				c-0.81-0.15-1.496-0.355-2.055-0.615l1.05-3.24c0.46,0.2,0.965,0.355,1.515,0.465C129.364,29.604,130.029,29.659,130.81,29.659z"
				/>
			<path fill="#FFFFFF" d="M143.049,27.56c0-0.7,0.09-1.325,0.27-1.875c0.18-0.55,0.435-1.05,0.765-1.5
				c0.33-0.45,0.72-0.855,1.17-1.215c0.45-0.36,0.935-0.69,1.455-0.99c-0.98-0.62-1.75-1.335-2.31-2.146
				c-0.561-0.81-0.84-1.814-0.84-3.015c0-0.78,0.145-1.51,0.435-2.189c0.29-0.68,0.71-1.271,1.26-1.771
				c0.55-0.5,1.215-0.89,1.995-1.17c0.78-0.28,1.66-0.42,2.64-0.42c0.9,0,1.72,0.12,2.46,0.36c0.74,0.239,1.375,0.58,1.905,1.02
				c0.529,0.44,0.939,0.975,1.23,1.605c0.29,0.63,0.435,1.325,0.435,2.085c0,1.18-0.266,2.18-0.795,3s-1.305,1.57-2.325,2.25
				c1.2,0.7,2.104,1.47,2.715,2.31c0.61,0.84,0.915,1.92,0.915,3.24c0,0.899-0.165,1.715-0.495,2.444
				c-0.33,0.73-0.795,1.355-1.395,1.875c-0.6,0.521-1.32,0.926-2.16,1.216c-0.84,0.289-1.76,0.435-2.76,0.435
				s-1.905-0.135-2.715-0.405c-0.81-0.27-1.5-0.645-2.07-1.125c-0.57-0.479-1.01-1.06-1.32-1.739S143.049,28.399,143.049,27.56z
				 M152.709,27.17c0-0.46-0.11-0.88-0.33-1.261c-0.221-0.38-0.505-0.725-0.855-1.035c-0.35-0.31-0.74-0.595-1.17-0.854
				s-0.865-0.51-1.305-0.75c-0.94,0.54-1.585,1.125-1.935,1.755c-0.35,0.63-0.525,1.255-0.525,1.875c0,0.8,0.274,1.485,0.825,2.055
				c0.55,0.57,1.315,0.855,2.295,0.855c0.9,0,1.625-0.22,2.175-0.66C152.434,28.71,152.709,28.05,152.709,27.17z M147.279,16.88
				c0,0.479,0.09,0.899,0.27,1.26c0.18,0.359,0.425,0.675,0.735,0.944c0.31,0.271,0.66,0.521,1.05,0.75
				c0.39,0.23,0.795,0.445,1.215,0.646c1.2-1.021,1.8-2.14,1.8-3.36c0-0.84-0.245-1.475-0.735-1.904
				c-0.49-0.431-1.085-0.646-1.785-0.646c-0.88,0-1.525,0.23-1.935,0.69C147.484,15.72,147.279,16.26,147.279,16.88z"/>
			<path fill="#FFFFFF" d="M172.479,16.819c0,1.021-0.185,2.051-0.555,3.09c-0.37,1.04-0.84,2.061-1.41,3.061
				c-0.57,1-1.2,1.965-1.89,2.895c-0.69,0.931-1.365,1.785-2.025,2.565l-1.59,1.229v0.15l2.16-0.42h5.76v3.3h-12.63v-2.01
				c0.48-0.5,1.02-1.085,1.62-1.755s1.205-1.38,1.815-2.13c0.61-0.75,1.205-1.525,1.785-2.325c0.58-0.8,1.1-1.605,1.56-2.415
				c0.46-0.811,0.825-1.595,1.095-2.355c0.27-0.76,0.405-1.479,0.405-2.16c0-0.819-0.235-1.494-0.705-2.024
				c-0.47-0.53-1.215-0.795-2.235-0.795c-0.641,0-1.295,0.135-1.965,0.404c-0.67,0.271-1.235,0.615-1.695,1.035l-1.56-2.76
				c0.78-0.64,1.665-1.155,2.655-1.545c0.99-0.39,2.155-0.585,3.495-0.585c0.86,0,1.65,0.12,2.37,0.36
				c0.72,0.239,1.34,0.59,1.86,1.05s0.93,1.035,1.23,1.725C172.329,15.095,172.479,15.899,172.479,16.819z"/>
			<path fill="#FFFFFF" d="M176.498,30.709c0-0.699,0.22-1.254,0.66-1.664s1.02-0.615,1.74-0.615c0.76,0,1.36,0.205,1.8,0.615
				s0.66,0.965,0.66,1.664c0,0.701-0.22,1.261-0.66,1.681s-1.04,0.63-1.8,0.63c-0.72,0-1.3-0.21-1.74-0.63
				S176.498,31.41,176.498,30.709z"/>
			<path fill="#FFFFFF" d="M183.968,18.26c0-1.021,0.155-1.96,0.465-2.82c0.31-0.859,0.76-1.595,1.35-2.205
				c0.59-0.609,1.31-1.09,2.16-1.439c0.85-0.351,1.825-0.525,2.925-0.525c2.26,0,4.035,0.675,5.325,2.025
				c1.29,1.35,1.935,3.314,1.935,5.895c0,2.32-0.295,4.325-0.885,6.015c-0.59,1.69-1.38,3.101-2.37,4.23
				c-0.99,1.13-2.135,1.995-3.435,2.595c-1.3,0.601-2.67,0.96-4.11,1.08l-0.84-3.06c1.1-0.14,2.08-0.41,2.94-0.811
				c0.86-0.399,1.6-0.895,2.22-1.484s1.125-1.261,1.515-2.011s0.665-1.555,0.825-2.415c-0.48,0.521-0.995,0.881-1.545,1.08
				c-0.55,0.2-1.286,0.3-2.205,0.3c-0.76,0-1.515-0.129-2.265-0.39c-0.75-0.26-1.42-0.654-2.01-1.185
				c-0.59-0.53-1.07-1.2-1.44-2.011C184.153,20.314,183.968,19.359,183.968,18.26z M187.748,18.05c0,1.14,0.32,2,0.96,2.58
				s1.44,0.869,2.4,0.869c0.82,0,1.489-0.13,2.01-0.39c0.52-0.26,0.92-0.58,1.2-0.96c0.06-0.42,0.09-0.819,0.09-1.2
				c0-0.56-0.07-1.109-0.21-1.649c-0.14-0.54-0.355-1.021-0.645-1.44c-0.29-0.42-0.66-0.755-1.11-1.005
				c-0.45-0.25-0.985-0.375-1.605-0.375c-0.98,0-1.74,0.315-2.28,0.945S187.748,16.93,187.748,18.05z"/>
			<path fill="#FFFFFF" d="M200.978,18.26c0-1.021,0.155-1.96,0.465-2.82c0.31-0.859,0.76-1.595,1.35-2.205
				c0.59-0.609,1.31-1.09,2.16-1.439c0.85-0.351,1.825-0.525,2.925-0.525c2.26,0,4.035,0.675,5.325,2.025
				c1.29,1.35,1.935,3.314,1.935,5.895c0,2.32-0.295,4.325-0.885,6.015c-0.59,1.69-1.38,3.101-2.37,4.23
				c-0.99,1.13-2.135,1.995-3.435,2.595c-1.3,0.601-2.67,0.96-4.11,1.08l-0.84-3.06c1.1-0.14,2.08-0.41,2.94-0.811
				c0.86-0.399,1.6-0.895,2.22-1.484s1.125-1.261,1.515-2.011s0.665-1.555,0.825-2.415c-0.48,0.521-0.995,0.881-1.545,1.08
				c-0.55,0.2-1.286,0.3-2.205,0.3c-0.76,0-1.515-0.129-2.265-0.39c-0.75-0.26-1.42-0.654-2.01-1.185
				c-0.59-0.53-1.07-1.2-1.44-2.011C201.162,20.314,200.978,19.359,200.978,18.26z M204.757,18.05c0,1.14,0.32,2,0.96,2.58
				s1.44,0.869,2.4,0.869c0.82,0,1.489-0.13,2.01-0.39c0.52-0.26,0.92-0.58,1.2-0.96c0.06-0.42,0.09-0.819,0.09-1.2
				c0-0.56-0.07-1.109-0.21-1.649c-0.14-0.54-0.355-1.021-0.645-1.44c-0.29-0.42-0.66-0.755-1.11-1.005
				c-0.45-0.25-0.985-0.375-1.605-0.375c-0.98,0-1.74,0.315-2.28,0.945S204.757,16.93,204.757,18.05z"/>
			<path fill="#FFFFFF" d="M217.897,30.709c0-0.699,0.22-1.254,0.66-1.664s1.02-0.615,1.74-0.615c0.76,0,1.36,0.205,1.8,0.615
				s0.66,0.965,0.66,1.664c0,0.701-0.22,1.261-0.66,1.681s-1.04,0.63-1.8,0.63c-0.72,0-1.3-0.21-1.74-0.63
				S217.897,31.41,217.897,30.709z"/>
			<path fill="#FFFFFF" d="M225.367,18.26c0-1.021,0.155-1.96,0.465-2.82c0.31-0.859,0.76-1.595,1.35-2.205
				c0.59-0.609,1.31-1.09,2.16-1.439c0.85-0.351,1.825-0.525,2.925-0.525c2.26,0,4.035,0.675,5.325,2.025
				c1.29,1.35,1.935,3.314,1.935,5.895c0,2.32-0.295,4.325-0.885,6.015c-0.59,1.69-1.38,3.101-2.37,4.23
				c-0.99,1.13-2.135,1.995-3.435,2.595c-1.3,0.601-2.67,0.96-4.11,1.08l-0.84-3.06c1.1-0.14,2.08-0.41,2.94-0.811
				c0.86-0.399,1.6-0.895,2.22-1.484s1.125-1.261,1.515-2.011s0.665-1.555,0.825-2.415c-0.48,0.521-0.995,0.881-1.545,1.08
				c-0.55,0.2-1.286,0.3-2.205,0.3c-0.76,0-1.515-0.129-2.265-0.39c-0.75-0.26-1.42-0.654-2.01-1.185
				c-0.59-0.53-1.07-1.2-1.44-2.011C225.551,20.314,225.367,19.359,225.367,18.26z M229.146,18.05c0,1.14,0.32,2,0.96,2.58
				s1.44,0.869,2.4,0.869c0.82,0,1.489-0.13,2.01-0.39c0.52-0.26,0.92-0.58,1.2-0.96c0.06-0.42,0.09-0.819,0.09-1.2
				c0-0.56-0.07-1.109-0.21-1.649c-0.14-0.54-0.355-1.021-0.645-1.44c-0.29-0.42-0.66-0.755-1.11-1.005
				c-0.45-0.25-0.985-0.375-1.605-0.375c-0.98,0-1.74,0.315-2.28,0.945S229.146,16.93,229.146,18.05z"/>
			<path fill="#FFFFFF" d="M242.376,18.26c0-1.021,0.155-1.96,0.465-2.82c0.31-0.859,0.76-1.595,1.35-2.205
				c0.59-0.609,1.31-1.09,2.16-1.439c0.85-0.351,1.825-0.525,2.925-0.525c2.26,0,4.035,0.675,5.325,2.025
				c1.29,1.35,1.935,3.314,1.935,5.895c0,2.32-0.295,4.325-0.885,6.015c-0.59,1.69-1.38,3.101-2.37,4.23
				c-0.99,1.13-2.135,1.995-3.435,2.595c-1.3,0.601-2.67,0.96-4.11,1.08l-0.84-3.06c1.1-0.14,2.08-0.41,2.94-0.811
				c0.86-0.399,1.6-0.895,2.22-1.484s1.125-1.261,1.515-2.011s0.665-1.555,0.825-2.415c-0.48,0.521-0.995,0.881-1.545,1.08
				c-0.55,0.2-1.286,0.3-2.205,0.3c-0.76,0-1.515-0.129-2.265-0.39c-0.75-0.26-1.42-0.654-2.01-1.185
				c-0.59-0.53-1.07-1.2-1.44-2.011C242.561,20.314,242.376,19.359,242.376,18.26z M246.156,18.05c0,1.14,0.32,2,0.96,2.58
				s1.44,0.869,2.4,0.869c0.82,0,1.489-0.13,2.01-0.39c0.52-0.26,0.92-0.58,1.2-0.96c0.06-0.42,0.09-0.819,0.09-1.2
				c0-0.56-0.07-1.109-0.21-1.649c-0.14-0.54-0.355-1.021-0.645-1.44c-0.29-0.42-0.66-0.755-1.11-1.005
				c-0.45-0.25-0.985-0.375-1.605-0.375c-0.98,0-1.74,0.315-2.28,0.945S246.156,16.93,246.156,18.05z"/>
		</g>
		<g>
			<path fill="#FFFFFF" d="M120.464,44.076h9.525v1.85h-7.45v5.726h6.825v1.85h-6.825v6.226h7.575v1.85h-9.65V44.076z"/>
			<path fill="#FFFFFF" d="M136.939,55.176l-4.2-6.1h2.45l2.375,3.45l0.7,1.425l0.725-1.425l2.425-3.45h2.25l-4.225,6l4.475,6.5
				h-2.375l-2.65-3.8l-0.75-1.5l-0.775,1.5l-2.7,3.8h-2.225L136.939,55.176z"/>
			<path fill="#FFFFFF" d="M144.889,49.076h1.95v-2.475l2-0.575v3.05h3.4v1.75h-3.4v6.925c0,0.867,0.108,1.479,0.325,1.838
				s0.583,0.537,1.1,0.537c0.433,0,0.8-0.046,1.1-0.138c0.3-0.091,0.633-0.212,1-0.362l0.45,1.525
				c-0.45,0.217-0.942,0.392-1.475,0.524c-0.534,0.134-1.109,0.2-1.725,0.2c-1.017,0-1.733-0.287-2.15-0.862
				c-0.417-0.575-0.625-1.537-0.625-2.888v-7.3h-1.95V49.076z"/>
			<path fill="#FFFFFF" d="M155.363,50.352c0-0.45,0.129-0.805,0.388-1.063c0.258-0.259,0.604-0.388,1.038-0.388
				c0.45,0,0.808,0.129,1.075,0.388c0.267,0.258,0.4,0.612,0.4,1.063c0,0.434-0.133,0.783-0.4,1.05s-0.625,0.399-1.075,0.399
				c-0.434,0-0.779-0.133-1.038-0.399C155.492,51.135,155.363,50.785,155.363,50.352z M155.363,60.426
				c0-0.449,0.129-0.804,0.388-1.063c0.258-0.258,0.604-0.387,1.038-0.387c0.45,0,0.808,0.129,1.075,0.387
				c0.267,0.259,0.4,0.613,0.4,1.063c0,0.434-0.133,0.784-0.4,1.051c-0.267,0.266-0.625,0.399-1.075,0.399
				c-0.434,0-0.779-0.134-1.038-0.399C155.492,61.21,155.363,60.859,155.363,60.426z"/>
			<path fill="#FFFFFF" d="M167.938,59.727h3.5V47.626l0.25-1.475l-1,1.175l-2.75,1.975l-0.95-1.274l5.5-4.25h0.9v15.95h3.425v1.85
				h-8.875V59.727z"/>
			<path fill="#FFFFFF" d="M179.938,52.826c0-3,0.487-5.258,1.462-6.775c0.975-1.516,2.396-2.274,4.262-2.274
				c2.017,0,3.479,0.746,4.388,2.237c0.908,1.492,1.362,3.763,1.362,6.813c0,3-0.487,5.259-1.462,6.775s-2.404,2.274-4.288,2.274
				c-1.983,0-3.434-0.791-4.35-2.375C180.396,57.918,179.938,55.693,179.938,52.826z M182.013,52.826
				c0,1.084,0.071,2.071,0.212,2.963s0.363,1.658,0.663,2.3c0.3,0.642,0.679,1.142,1.138,1.5c0.458,0.358,1.004,0.537,1.637,0.537
				c1.267,0,2.196-0.587,2.788-1.763c0.591-1.175,0.888-3.021,0.888-5.537c0-1.066-0.063-2.05-0.188-2.95
				c-0.125-0.899-0.333-1.675-0.625-2.325c-0.292-0.649-0.671-1.149-1.138-1.5c-0.467-0.35-1.042-0.524-1.725-0.524
				c-1.25,0-2.171,0.592-2.762,1.774C182.309,48.484,182.013,50.326,182.013,52.826z"/>
			<path fill="#FFFFFF" d="M194.188,57.401c0-1.05,0.275-1.963,0.825-2.737c0.55-0.775,1.408-1.479,2.575-2.113
				c-0.417-0.25-0.804-0.512-1.163-0.787s-0.675-0.588-0.95-0.938c-0.275-0.35-0.492-0.741-0.65-1.175
				c-0.159-0.434-0.237-0.934-0.237-1.5c0-0.65,0.112-1.241,0.337-1.775c0.225-0.533,0.55-0.991,0.975-1.375
				c0.425-0.383,0.933-0.683,1.525-0.899c0.591-0.217,1.263-0.325,2.013-0.325c0.7,0,1.333,0.1,1.9,0.3
				c0.566,0.2,1.045,0.475,1.438,0.825c0.391,0.35,0.696,0.767,0.913,1.25c0.216,0.483,0.325,1.017,0.325,1.6
				c0,0.95-0.217,1.788-0.65,2.513c-0.434,0.725-1.15,1.438-2.15,2.138c0.433,0.25,0.846,0.524,1.237,0.825
				c0.392,0.3,0.733,0.633,1.025,1c0.292,0.366,0.521,0.779,0.688,1.237s0.25,0.979,0.25,1.563c0,0.717-0.117,1.371-0.35,1.962
				c-0.234,0.592-0.575,1.101-1.025,1.525c-0.45,0.425-1,0.759-1.65,1s-1.392,0.362-2.225,0.362c-0.8,0-1.508-0.116-2.125-0.35
				s-1.137-0.55-1.563-0.95c-0.425-0.4-0.746-0.871-0.962-1.412C194.296,58.622,194.188,58.035,194.188,57.401z M202.463,57.151
				c0-0.5-0.1-0.938-0.3-1.313c-0.2-0.375-0.462-0.717-0.787-1.025c-0.325-0.308-0.696-0.587-1.113-0.837s-0.85-0.492-1.3-0.726
				c-1.017,0.567-1.742,1.2-2.175,1.9s-0.65,1.366-0.65,2c0,0.399,0.066,0.783,0.2,1.149c0.133,0.367,0.333,0.684,0.6,0.95
				c0.266,0.267,0.596,0.479,0.987,0.638s0.846,0.237,1.362,0.237c0.417,0,0.816-0.063,1.2-0.188
				c0.383-0.125,0.721-0.308,1.013-0.55c0.291-0.241,0.525-0.55,0.7-0.925C202.376,58.089,202.463,57.651,202.463,57.151z
				 M196.538,48.102c0,0.467,0.092,0.879,0.275,1.237c0.183,0.358,0.429,0.679,0.737,0.962c0.308,0.284,0.663,0.547,1.063,0.788
				s0.816,0.471,1.25,0.688c0.75-0.583,1.304-1.158,1.663-1.726c0.358-0.566,0.538-1.191,0.538-1.875
				c0-0.85-0.263-1.504-0.788-1.962s-1.154-0.688-1.888-0.688c-0.45,0-0.85,0.075-1.2,0.225c-0.35,0.15-0.65,0.342-0.9,0.575
				s-0.438,0.504-0.563,0.813S196.538,47.768,196.538,48.102z"/>
			<path fill="#FFFFFF" d="M207.588,53.451h6.05v1.85h-6.05V53.451z"/>
			<path fill="#FFFFFF" d="M217.813,59.727h3.5V47.626l0.25-1.475l-1,1.175l-2.75,1.975l-0.95-1.274l5.5-4.25h0.9v15.95h3.425v1.85
				h-8.875V59.727z"/>
			<path fill="#FFFFFF" d="M229.813,52.826c0-3,0.487-5.258,1.462-6.775c0.975-1.516,2.396-2.274,4.262-2.274
				c2.017,0,3.479,0.746,4.388,2.237c0.908,1.492,1.362,3.763,1.362,6.813c0,3-0.487,5.259-1.462,6.775s-2.404,2.274-4.288,2.274
				c-1.983,0-3.434-0.791-4.35-2.375C230.271,57.918,229.813,55.693,229.813,52.826z M231.888,52.826
				c0,1.084,0.071,2.071,0.212,2.963s0.363,1.658,0.663,2.3c0.3,0.642,0.679,1.142,1.138,1.5c0.458,0.358,1.004,0.537,1.637,0.537
				c1.267,0,2.196-0.587,2.788-1.763c0.591-1.175,0.888-3.021,0.888-5.537c0-1.066-0.063-2.05-0.188-2.95
				c-0.125-0.899-0.333-1.675-0.625-2.325c-0.292-0.649-0.671-1.149-1.138-1.5c-0.467-0.35-1.042-0.524-1.725-0.524
				c-1.25,0-2.171,0.592-2.762,1.774C232.184,48.484,231.888,50.326,231.888,52.826z"/>
			<path fill="#FFFFFF" d="M243.663,49.376c0-0.8,0.117-1.541,0.35-2.225s0.575-1.275,1.025-1.775c0.45-0.5,1.013-0.892,1.688-1.175
				c0.675-0.283,1.463-0.425,2.363-0.425c1.7,0,3.025,0.55,3.975,1.649c0.95,1.101,1.425,2.65,1.425,4.65
				c0,1.884-0.212,3.529-0.638,4.938c-0.425,1.408-1.012,2.596-1.762,3.563s-1.638,1.721-2.663,2.263s-2.138,0.888-3.337,1.037
				l-0.45-1.6c0.966-0.15,1.837-0.434,2.613-0.851c0.775-0.416,1.441-0.941,2-1.574c0.558-0.634,1.012-1.354,1.362-2.163
				c0.35-0.808,0.591-1.688,0.725-2.638c-0.45,0.534-0.946,0.904-1.488,1.113c-0.542,0.208-1.254,0.313-2.137,0.313
				c-0.684,0-1.33-0.113-1.938-0.338c-0.609-0.225-1.146-0.554-1.613-0.987s-0.833-0.967-1.1-1.601
				C243.796,50.918,243.663,50.193,243.663,49.376z M245.738,49.176c0,1.184,0.313,2.071,0.938,2.663s1.446,0.888,2.462,0.888
				c0.816,0,1.517-0.134,2.1-0.4c0.583-0.267,1-0.616,1.25-1.05c0.033-0.217,0.05-0.408,0.05-0.575c0-0.166,0-0.342,0-0.525
				c0-0.6-0.071-1.179-0.212-1.737c-0.142-0.558-0.354-1.058-0.637-1.5c-0.284-0.441-0.654-0.787-1.113-1.037
				s-0.996-0.375-1.612-0.375c-1.017,0-1.809,0.321-2.375,0.962C246.021,47.131,245.738,48.026,245.738,49.176z"/>
		</g>
	</g>
</g>
<g id="Guias" display="none">
</g>
</svg>
