<?xml version="1.0" encoding="utf-8"?>
<!-- Generator: Adobe Illustrator 16.0.0, SVG Export Plug-In . SVG Version: 6.00 Build 0)  -->
<!DOCTYPE svg PUBLIC "-//W3C//DTD SVG 1.1//EN" "http://www.w3.org/Graphics/SVG/1.1/DTD/svg11.dtd">
<svg version="1.1" xmlns="http://www.w3.org/2000/svg" xmlns:xlink="http://www.w3.org/1999/xlink" x="0px" y="0px"
	 width="80.792px" height="81.833px" viewBox="0 0 80.792 81.833" enable-background="new 0 0 80.792 81.833" xml:space="preserve">
<g id="Soporte">
</g>
<g id="Publicidad">
</g>
<g id="Imagenes">
</g>
<g id="Cintillos">
</g>
<g id="Botones">
	<g>
		<linearGradient id="SVGID_2_" gradientUnits="userSpaceOnUse" x1="28.9575" y1="33.5537" x2="63.8203" y2="62.4164">
			<stop  offset="0" style="stop-color:#99111C"/>
			<stop  offset="1" style="stop-color:#99111C;stop-opacity:0"/>
		</linearGradient>
		<polygon fill="url(#SVGID_2_)" points="1.195,47.762 1.338,16.692 10.401,12.786 11.198,8.708 15.292,7.364 20.073,8.661 
			22.823,7.224 23.745,2.505 28.104,1.614 32.479,2.755 33.182,7.849 35.526,8.911 40.713,8.083 44.588,9.302 44.979,13.427 
			52.151,17.599 81.088,44.389 81.088,80.083 40.667,80.083 		"/>
		<g>
			<g>
				<polygon fill="#FFFFFF" points="27.062,61.598 1.167,47.681 1.167,16.448 10.444,12.084 11.295,13.895 3.167,17.718 
					3.167,46.485 27.046,59.318 50.167,46.494 50.167,18.733 44.333,15.321 45.343,13.595 52.167,17.587 52.167,47.672 				"/>
			</g>
			<g>
				
					<rect x="32.675" y="7.708" transform="matrix(0.866 0.5001 -0.5001 0.866 8.8361 -16.0514)" fill="#FFFFFF" width="3.374" height="1.5"/>
			</g>
			<g>
				
					<rect x="20.854" y="6.341" transform="matrix(0.4436 0.8962 -0.8962 0.4436 19.2516 -14.8735)" fill="#FFFFFF" width="1.499" height="3.452"/>
			</g>
			<g>
				<polygon fill="#FFFFFF" points="27.662,32.453 2.29,17.731 3.043,16.435 27.669,30.723 50.795,17.557 51.538,18.859 				"/>
			</g>
			<g>
				<rect x="26.167" y="31.083" fill="#FFFFFF" width="2" height="29"/>
			</g>
			<g>
				<g>
					<path fill="#FFFFFF" d="M15.715,12.588c-3.099,0-5.437-1.181-5.437-2.746c0-1.566,2.338-2.747,5.437-2.747
						c3.098,0,5.436,1.181,5.436,2.747C21.151,11.407,18.813,12.588,15.715,12.588z M15.715,8.095c-2.503,0-4.375,0.923-4.375,1.747
						s1.872,1.746,4.375,1.746c2.502,0,4.373-0.922,4.373-1.746S18.217,8.095,15.715,8.095z"/>
				</g>
			</g>
			<g>
				<g>
					<path fill="#FFFFFF" d="M21.106,17c0,1.565-2.353,2.744-5.424,2.744s-5.387-1.181-5.387-2.746h1.053
						c0,0.824,1.854,1.746,4.334,1.746s4.334-0.922,4.334-1.746L21.106,17z"/>
				</g>
			</g>
			<g>
				<g>
					<rect x="20.012" y="10.109" fill="#FFFFFF" width="1.11" height="6.906"/>
				</g>
			</g>
			<g>
				<g>
					<rect x="10.297" y="10" fill="#FFFFFF" width="1.028" height="7.016"/>
				</g>
			</g>
			<g>
				<g>
					<path fill="#FFFFFF" d="M39.965,13.255c-3.099,0-5.437-1.181-5.437-2.746c0-1.566,2.338-2.747,5.437-2.747
						c3.098,0,5.436,1.181,5.436,2.747C45.401,12.074,43.063,13.255,39.965,13.255z M39.965,8.762c-2.503,0-4.375,0.923-4.375,1.747
						s1.872,1.746,4.375,1.746c2.502,0,4.373-0.922,4.373-1.746S42.467,8.762,39.965,8.762z"/>
				</g>
			</g>
			<g>
				<g>
					<path fill="#FFFFFF" d="M45.356,17.667c0,1.565-2.353,2.744-5.424,2.744s-5.387-1.181-5.387-2.746h1.053
						c0,0.824,1.854,1.746,4.334,1.746s4.334-0.922,4.334-1.746L45.356,17.667z"/>
				</g>
			</g>
			<g>
				<g>
					<rect x="44.262" y="10.776" fill="#FFFFFF" width="1.11" height="6.906"/>
				</g>
			</g>
			<g>
				<g>
					<rect x="34.547" y="10.667" fill="#FFFFFF" width="1.028" height="7.016"/>
				</g>
			</g>
			<g>
				<g>
					<path fill="#FFFFFF" d="M28.006,20.297c-3.099,0-5.437-1.181-5.437-2.746c0-1.566,2.338-2.747,5.437-2.747
						c3.098,0,5.436,1.181,5.436,2.747C33.442,19.116,31.104,20.297,28.006,20.297z M28.006,15.804
						c-2.503,0-4.375,0.923-4.375,1.747s1.872,1.746,4.375,1.746c2.502,0,4.373-0.922,4.373-1.746S30.508,15.804,28.006,15.804z"/>
				</g>
			</g>
			<g>
				<g>
					<path fill="#FFFFFF" d="M33.397,24.709c0,1.565-2.353,2.744-5.424,2.744s-5.387-1.181-5.387-2.746h1.053
						c0,0.824,1.854,1.746,4.334,1.746s4.334-0.922,4.334-1.746L33.397,24.709z"/>
				</g>
			</g>
			<g>
				<g>
					<rect x="32.303" y="17.818" fill="#FFFFFF" width="1.11" height="6.906"/>
				</g>
			</g>
			<g>
				<g>
					<rect x="22.588" y="17.709" fill="#FFFFFF" width="1.028" height="7.016"/>
				</g>
			</g>
			<g>
				<g>
					<path fill="#FFFFFF" d="M28.006,6.714c-3.099,0-5.437-1.181-5.437-2.746c0-1.566,2.338-2.747,5.437-2.747
						c3.098,0,5.436,1.181,5.436,2.747C33.442,5.533,31.104,6.714,28.006,6.714z M28.006,2.221c-2.503,0-4.375,0.923-4.375,1.747
						s1.872,1.746,4.375,1.746c2.502,0,4.373-0.922,4.373-1.746S30.508,2.221,28.006,2.221z"/>
				</g>
			</g>
			<g>
				<g>
					<path fill="#FFFFFF" d="M33.397,11.126c0,1.565-2.353,2.744-5.424,2.744s-5.387-1.181-5.387-2.746h1.053
						c0,0.824,1.854,1.746,4.334,1.746s4.334-0.922,4.334-1.746L33.397,11.126z"/>
				</g>
			</g>
			<g>
				<g>
					<rect x="32.303" y="4.235" fill="#FFFFFF" width="1.11" height="6.906"/>
				</g>
			</g>
			<g>
				<g>
					<rect x="22.588" y="4.126" fill="#FFFFFF" width="1.028" height="7.016"/>
				</g>
			</g>
		</g>
	</g>
</g>
<g id="Iconos">
</g>
<g id="TXT">
</g>
<g id="Guias" display="none">
</g>
</svg>
