<?xml version="1.0" encoding="utf-8"?>
<!-- Generator: Adobe Illustrator 16.0.0, SVG Export Plug-In . SVG Version: 6.00 Build 0)  -->
<!DOCTYPE svg PUBLIC "-//W3C//DTD SVG 1.1//EN" "http://www.w3.org/Graphics/SVG/1.1/DTD/svg11.dtd">
<svg version="1.1" id="Capa_1" xmlns="http://www.w3.org/2000/svg" xmlns:xlink="http://www.w3.org/1999/xlink" x="0px" y="0px"
	 width="263px" height="54.5px" viewBox="0 0 263 54.5" enable-background="new 0 0 263 54.5" xml:space="preserve">
<g>
	<path fill="none" d="M191.407,32.703v1.708c0,0.742,0.077,1.276,0.23,1.597c0.157,0.32,0.407,0.482,0.759,0.482
		c0.351,0,0.638-0.118,0.86-0.355c0.222-0.237,0.36-0.502,0.417-0.802v-5.399c-0.888,0.398-1.489,0.772-1.8,1.127
		C191.563,31.411,191.407,31.958,191.407,32.703z"/>
	<path fill="none" d="M213.544,24.736c-0.441,0-0.74,0.193-0.902,0.581c-0.162,0.386-0.245,0.968-0.245,1.754v7.117
		c0,1.165,0.188,1.881,0.574,2.142c0.155,0.106,0.348,0.16,0.586,0.16c0.435,0,0.734-0.192,0.893-0.576
		c0.16-0.391,0.239-0.963,0.239-1.726v-7.117c0-0.777-0.08-1.36-0.244-1.749C214.281,24.932,213.981,24.736,213.544,24.736z"/>
	<path fill="none" d="M143.716,32.703v1.708c0,0.742,0.076,1.276,0.235,1.597c0.154,0.32,0.406,0.482,0.757,0.482
		c0.35,0,0.636-0.118,0.861-0.355c0.222-0.237,0.36-0.502,0.418-0.802v-5.399c-0.892,0.398-1.492,0.772-1.804,1.127
		C143.871,31.411,143.716,31.958,143.716,32.703z"/>
	<path fill="none" d="M202.988,24.75c-0.47,0-0.789,0.211-0.944,0.647c-0.153,0.426-0.232,1.073-0.232,1.929v6.542
		c0,0.879,0.083,1.532,0.25,1.97c0.165,0.433,0.477,0.651,0.934,0.651c0.456,0,0.772-0.218,0.943-0.651
		c0.173-0.438,0.261-1.165,0.261-2.182v-6.365c0-1.304-0.201-2.1-0.595-2.372C203.436,24.803,203.23,24.75,202.988,24.75z"/>
	<path fill="none" d="M242.055,26.42c-1.765,0-2.304,2.247-2.304,4.818c0,2.569,0.539,4.812,2.304,4.812
		c1.997,0,2.476-2.242,2.476-4.812C244.53,28.667,244.052,26.42,242.055,26.42z"/>
	<path fill="#C0001F" d="M213.544,22.466c-2.65,0-3.979,1.704-3.979,5.104v5.951c0,1.696,0.292,2.996,0.871,3.89
		c0.578,0.899,1.618,1.347,3.121,1.347c0.753,0,1.393-0.117,1.915-0.346c1.367-0.608,2.047-2.238,2.047-4.891v-5.951
		C217.52,24.17,216.196,22.466,213.544,22.466z M214.688,34.188c0,0.763-0.079,1.335-0.239,1.726
		c-0.158,0.384-0.458,0.576-0.893,0.576c-0.238,0-0.431-0.053-0.586-0.16c-0.386-0.261-0.574-0.978-0.574-2.142v-7.117
		c0-0.786,0.083-1.368,0.245-1.754c0.163-0.388,0.461-0.581,0.902-0.581c0.437,0,0.736,0.195,0.9,0.586
		c0.164,0.389,0.244,0.972,0.244,1.749V34.188z"/>
	<rect x="173.186" y="22.66" fill="#C0001F" width="2.808" height="15.91"/>
	<path fill="#C0001F" d="M192.588,22.466c-1.431,0-2.428,0.399-2.991,1.189c-0.56,0.793-0.841,1.94-0.841,3.447v0.479h2.778v-0.709
		c0-0.773,0.073-1.319,0.218-1.647c0.152-0.324,0.445-0.488,0.892-0.488c0.44,0,0.72,0.156,0.845,0.461
		c0.123,0.307,0.184,0.893,0.184,1.755v1.391c-0.146,0.055-0.401,0.156-0.766,0.288c-0.364,0.133-0.651,0.239-0.854,0.318
		c-1.131,0.429-1.934,0.876-2.405,1.336c-0.739,0.7-1.104,1.728-1.104,3.086v1.018c0.013,1.397,0.242,2.476,0.69,3.22
		c0.445,0.747,1.19,1.119,2.224,1.119c0.566,0,1.053-0.17,1.45-0.502c0.398-0.337,0.668-0.75,0.809-1.236v1.579h2.835V27.219
		c0-1.584-0.305-2.771-0.907-3.564C195.04,22.865,194.021,22.466,192.588,22.466z M193.673,35.332
		c-0.056,0.3-0.194,0.565-0.417,0.802c-0.222,0.238-0.509,0.355-0.86,0.355c-0.353,0-0.602-0.162-0.759-0.482
		c-0.154-0.321-0.23-0.855-0.23-1.597v-1.708c0-0.745,0.156-1.292,0.466-1.643c0.312-0.355,0.912-0.729,1.8-1.127V35.332z"/>
	<path fill="#C0001F" d="M239.339,38.649h-0.398l-0.232,0.324l-1.846,2.593l-1.843-2.593l-0.233-0.324h-0.399h-1.398
		c-0.572,0-1.034-0.463-1.034-1.032V19.653c0-0.571,0.462-1.031,1.034-1.031h18.82c0.569,0,1.036,0.46,1.036,1.031v16.708
		l0.771,0.473V19.653c0-0.999-0.809-1.806-1.807-1.806h-18.82c-0.999,0-1.808,0.807-1.808,1.806v17.964
		c0,0.997,0.809,1.804,1.808,1.804h1.398l2.475,3.479l2.476-3.479h8.113l-0.124-0.772H239.339z"/>
	<path fill="#C0001F" d="M182.698,22.466c-1.304,0-2.272,0.324-2.915,0.965c-0.808,0.809-1.21,2.365-1.21,4.68v5.155
		c0,1.78,0.28,3.143,0.845,4.081c0.559,0.942,1.637,1.411,3.229,1.411c1.337,0,2.291-0.416,2.873-1.256
		c0.582-0.836,0.87-2.033,0.87-3.59v-1.61h-2.717v1.887c0,0.077,0,0.154,0,0.222c0,0.276-0.009,0.516-0.03,0.722
		c-0.085,0.875-0.444,1.32-1.072,1.327c-0.46,0-0.77-0.187-0.929-0.551c-0.158-0.369-0.239-0.943-0.239-1.731V27.01
		c0-0.759,0.087-1.322,0.263-1.687c0.172-0.37,0.465-0.552,0.873-0.552c0.412,0,0.704,0.121,0.876,0.369
		c0.169,0.25,0.258,0.858,0.258,1.823v1.846h2.717V27.06c0-1.484-0.289-2.622-0.87-3.411
		C184.937,22.863,183.997,22.466,182.698,22.466z"/>
	<path fill="#C0001F" d="M204.186,23.646c-0.205-0.363-0.487-0.648-0.848-0.862c-0.368-0.212-0.768-0.318-1.208-0.318
		c-1.125,0-1.929,0.423-2.417,1.275c-0.489,0.849-0.732,1.935-0.732,3.269v6.478c0,1.056,0.061,1.951,0.183,2.691
		c0.126,0.739,0.398,1.348,0.823,1.832c0.425,0.476,1.066,0.718,1.918,0.718c1.099,0,1.858-0.544,2.281-1.635v1.477h2.812V19.74
		h-2.812V23.646z M204.199,33.657c0,1.017-0.087,1.744-0.261,2.182c-0.171,0.433-0.487,0.651-0.943,0.651
		c-0.457,0-0.769-0.218-0.934-0.651c-0.167-0.438-0.25-1.091-0.25-1.97v-6.542c0-0.856,0.079-1.503,0.232-1.929
		c0.155-0.436,0.475-0.647,0.944-0.647c0.242,0,0.447,0.053,0.616,0.17c0.395,0.272,0.595,1.068,0.595,2.372V33.657z"/>
	<path fill="#C0001F" d="M248.719,31.521c0-3.721-3.059-6.34-6.664-6.34c-3.358,0-6.491,2.547-6.491,6.058
		c0,3.604,3.065,5.885,6.491,5.885c1.755,0,3.51-0.536,4.778-1.579l-0.498-3.149l1.977,1.206
		C248.572,32.984,248.719,32.293,248.719,31.521z M242.055,36.05c-1.765,0-2.304-2.242-2.304-4.812c0-2.571,0.539-4.818,2.304-4.818
		c1.997,0,2.476,2.247,2.476,4.818C244.53,33.808,244.052,36.05,242.055,36.05z"/>
	<polygon fill="#C0001F" points="255.757,38.661 246.938,33.287 248.558,43.483 251.1,40.396 253.659,44.16 254.516,43.581 
		251.963,39.832 	"/>
	<path fill="#C0001F" d="M245.782,21.656c0.153-0.42,0.11-0.932-0.108-1.302c-0.196-0.332-0.577-0.564-1.02-0.619
		c-0.45-0.062-0.875,0.071-1.146,0.347l-3.48,3.474l0.326,0.407l4.771-1.632C245.426,22.227,245.66,21.99,245.782,21.656z"/>
	<path fill="#C0001F" d="M167.526,20.383c-0.465,0.492-0.699,1.182-0.699,2.072v0.827h-1.241v2.029h1.231v13.258h2.811V25.312h1.613
		v-2.029h-1.613v-0.741c0-0.608,0.292-0.913,0.87-0.913c0.284,0,0.532,0.014,0.743,0.043v-1.757
		c-0.472-0.18-1.095-0.267-1.866-0.267C168.605,19.647,167.986,19.893,167.526,20.383z"/>
	<path fill="#C0001F" d="M154.789,28.565c-0.749-0.722-1.122-1.499-1.122-2.345c0-0.528,0.091-0.902,0.268-1.122
		c0.18-0.22,0.462-0.327,0.843-0.327c0.375,0,0.645,0.172,0.808,0.521c0.164,0.353,0.243,0.886,0.243,1.61v1.051h2.515v-0.873
		c0-1.657-0.289-2.837-0.864-3.548c-0.574-0.708-1.486-1.066-2.73-1.066c-2.504,0-3.757,1.303-3.757,3.904
		c0,1.613,0.654,3.016,1.965,4.212c0.07,0.072,0.315,0.295,0.746,0.68c0.429,0.378,0.655,0.585,0.684,0.61
		c0.979,0.908,1.467,1.889,1.467,2.952c0,0.603-0.086,1.026-0.256,1.279c-0.172,0.25-0.447,0.376-0.829,0.376
		c-0.723,0-1.08-0.708-1.08-2.122v-1.285h-2.643v1.029c0,1.631,0.309,2.825,0.923,3.56c0.615,0.738,1.568,1.106,2.866,1.106
		c1.294,0,2.247-0.338,2.863-1.017c0.614-0.68,0.923-1.699,0.923-3.053c0-1.734-0.773-3.322-2.326-4.766L154.789,28.565z"/>
	<path fill="#C0001F" d="M144.9,22.466c-1.434,0-2.431,0.399-2.992,1.189c-0.563,0.793-0.843,1.94-0.843,3.447v0.479h2.778v-0.709
		c0-0.773,0.078-1.319,0.225-1.647c0.146-0.324,0.442-0.488,0.887-0.488c0.441,0,0.72,0.156,0.849,0.461
		c0.122,0.307,0.183,0.893,0.183,1.755v1.391c-0.148,0.055-0.404,0.156-0.77,0.288c-0.363,0.133-0.648,0.239-0.853,0.318
		c-1.132,0.429-1.935,0.876-2.409,1.336c-0.737,0.7-1.105,1.728-1.105,3.086v1.018c0.014,1.397,0.245,2.476,0.693,3.22
		c0.442,0.747,1.185,1.119,2.225,1.119c0.567,0,1.049-0.17,1.448-0.502c0.398-0.337,0.67-0.75,0.812-1.236v1.579h2.835V27.219
		c0-1.584-0.306-2.771-0.91-3.564C147.35,22.865,146.332,22.466,144.9,22.466z M145.986,35.332c-0.058,0.3-0.196,0.565-0.418,0.802
		c-0.225,0.238-0.511,0.355-0.861,0.355c-0.351,0-0.603-0.162-0.757-0.482c-0.159-0.321-0.235-0.855-0.235-1.597v-1.708
		c0-0.745,0.155-1.292,0.467-1.643c0.312-0.355,0.912-0.729,1.804-1.127V35.332z"/>
	<rect x="160.733" y="18.754" fill="#C0001F" width="2.828" height="2.441"/>
	<rect x="173.148" y="18.754" fill="#C0001F" width="2.836" height="2.441"/>
	<rect x="135.484" y="19.74" fill="#C0001F" width="2.802" height="18.829"/>
	<rect x="160.762" y="22.66" fill="#C0001F" width="2.81" height="15.91"/>
	<path fill="#C0001F" d="M130.349,33.51c0,1.011-0.088,1.737-0.262,2.175c-0.177,0.434-0.499,0.656-0.967,0.656
		c-0.467,0-0.788-0.215-0.965-0.645c-0.177-0.432-0.264-1.151-0.264-2.155V24.82c0-0.903,0.092-1.577,0.275-2.011
		c0.185-0.444,0.512-0.661,0.987-0.661c0.473,0,0.789,0.208,0.954,0.621c0.164,0.413,0.243,1.102,0.243,2.065v2.384h2.749v-2.568
		c0-3.307-1.313-4.961-3.935-4.961c-0.764,0-1.417,0.125-1.952,0.378c-1.458,0.697-2.184,2.431-2.184,5.208v8.137
		c0,1.732,0.338,3.063,1.021,3.986c0.684,0.92,1.713,1.381,3.094,1.381c1.379,0,2.389-0.431,3.034-1.301
		c0.644-0.863,0.963-2.199,0.963-4.002v-2.642h-2.79V33.51z"/>
	<path fill="#C0001F" d="M223.346,28.565c-0.749-0.722-1.122-1.499-1.122-2.345c0-0.528,0.088-0.902,0.27-1.122
		c0.181-0.22,0.462-0.327,0.838-0.327c0.378,0,0.648,0.172,0.813,0.523c0.164,0.35,0.242,0.884,0.242,1.607v1.051h2.512v-0.873
		c0-1.657-0.288-2.837-0.863-3.546c-0.575-0.71-1.487-1.069-2.73-1.069c-2.502,0-3.753,1.303-3.753,3.904
		c0,1.613,0.651,3.016,1.959,4.212c0.071,0.072,0.322,0.295,0.75,0.68c0.426,0.378,0.652,0.585,0.684,0.61
		c0.976,0.908,1.461,1.889,1.461,2.952c0,0.603-0.084,1.026-0.253,1.279c-0.173,0.25-0.444,0.376-0.826,0.376
		c-0.726,0-1.083-0.708-1.083-2.122v-1.285h-2.641v1.029c0,1.633,0.307,2.825,0.923,3.56c0.618,0.74,1.57,1.106,2.864,1.106
		c1.293,0,2.25-0.338,2.867-1.017c0.612-0.68,0.922-1.699,0.922-3.053c0-1.734-0.776-3.319-2.325-4.766L223.346,28.565z"/>
</g>
<g>
	<path fill="#C0001F" d="M31.045,40.166h-8.315c-3.184,0-5.787-2.603-5.787-5.782v-8.86c0-3.182,2.603-5.786,5.787-5.786h8.315
		c3.179,0,5.779,2.604,5.779,5.786v8.86C36.824,37.563,34.224,40.166,31.045,40.166 M31.045,38.638c1.129,0,2.193-0.444,3-1.249
		c0.81-0.807,1.252-1.875,1.252-3.005v-8.86c0-1.13-0.443-2.198-1.252-3.006c-0.808-0.806-1.872-1.25-3-1.25h-8.315
		c-1.13,0-2.199,0.444-3.006,1.25c-0.806,0.808-1.251,1.876-1.251,3.006v8.86c0,1.13,0.445,2.198,1.251,3.005
		c0.808,0.805,1.876,1.249,3.006,1.249H31.045z"/>
	<path fill="#C0001F" d="M32.393,29.874c0,3.023-2.453,5.475-5.477,5.475s-5.475-2.452-5.475-5.475c0-3.025,2.45-5.475,5.475-5.475
		S32.393,26.849,32.393,29.874 M26.891,26.293c-1.98,0-3.586,1.604-3.586,3.586c0,1.979,1.606,3.582,3.586,3.582
		c0.988,0,1.886-0.399,2.532-1.047c0.65-0.65,1.054-1.547,1.054-2.535C30.476,27.897,28.87,26.293,26.891,26.293"/>
	<path fill="#C0001F" d="M33.774,24.311c0,0.719-0.579,1.301-1.293,1.301c-0.719,0-1.298-0.582-1.298-1.301
		c0-0.714,0.579-1.295,1.298-1.295C33.195,23.016,33.774,23.597,33.774,24.311"/>
</g>
<g>
	<path fill="#C0001F" d="M81.352,35.213c0,1.911-1.55,3.459-3.46,3.459h-13.32c-1.907,0-3.457-1.548-3.457-3.459V21.896
		c0-1.913,1.549-3.458,3.457-3.458h13.32c1.91,0,3.46,1.545,3.46,3.458V35.213z"/>
	<path fill="#FFFFFF" d="M75,38.672v-7.77h2.607L78,27.875h-3V25.94c0-0.875,0.242-1.47,1.5-1.47l1.601-0.002V21.76
		c-0.276-0.039-1.227-0.119-2.333-0.119c-2.313,0-3.893,1.409-3.893,4.002v2.231H69.26v3.028h2.615v7.77H75L75,38.672z"/>
</g>
</svg>
