<?xml version="1.0" encoding="utf-8"?>
<!-- Generator: Adobe Illustrator 16.0.0, SVG Export Plug-In . SVG Version: 6.00 Build 0)  -->
<!DOCTYPE svg PUBLIC "-//W3C//DTD SVG 1.1//EN" "http://www.w3.org/Graphics/SVG/1.1/DTD/svg11.dtd">
<svg version="1.1" id="Capa_1" xmlns="http://www.w3.org/2000/svg" xmlns:xlink="http://www.w3.org/1999/xlink" x="0px" y="0px"
	 width="748.814px" height="242.118px" viewBox="0 0 748.814 242.118" enable-background="new 0 0 748.814 242.118"
	 xml:space="preserve">
<g>
	<g>
		<g>
			<g>
				<path fill="#C0001F" d="M124.946,176.501c-15.671,0-28.419-12.781-28.419-28.498c0-7.031,2.74-13.686,7.532-18.915h-36.2V81.184
					l-2.604,2.656l-7.673-11.7l68.554-50.522l68.509,50.811l-10.44,10.815l-6.746-4.024v48.04l-32.921,0.525
					c5.591,5.395,8.826,12.612,8.826,20.24C153.363,163.725,140.619,176.501,124.946,176.501z M111.302,129.088
					c-6.206,4.632-9.905,11.546-9.905,18.915c0,13.024,10.567,23.624,23.55,23.624c12.983,0,23.557-10.587,23.557-23.601
					c0-8.029-4.402-15.521-11.662-20.113l-2.546,0.039l-0.03-1.49l-1.466-0.729l0.443-3.009l4.94-5.924l-6.884-0.013V60.722
					l-5.314-5.381l-7.638,7.72v3.836l4.565,6.663l-7.903,7.701v1.947l7.903,8.129l-6.425,7.39l4.083,3.897v13.045h-8.524
					l4.525,6.973l0.5,3.067l-1.6,0.802c-1.352,0.676-2.604,1.439-3.773,2.285v0.29H111.302z M72.729,124.214h37.027
					c0.465-0.312,0.945-0.616,1.436-0.91l-4.486-6.913c-0.641-1.002-1.056-2.537-0.321-3.871c0.352-0.642,1.25-1.72,3.303-1.72
					h6.014v-6.092l-5.944-5.667l6.544-7.52l-6.166-6.333v-5.981l6.448-6.285l-3.107-4.515v-7.355l12.515-12.631l10.176,10.301
					v53.193h3.812c1.415,0.044,3.083,0.65,3.808,2.237c0.677,1.48,0.268,3.16-1.218,4.99l-3.207,3.854l33.227-0.53V70.64
					l10.79,6.443l3.91-4.042l-61.16-45.365L64.182,73.327l1.825,2.783l6.722-6.861V124.214z"/>
			</g>
		</g>
		<g>
			<g>
				<path fill="#C0001F" d="M125.438,171.328c-4.854,0-8.813-3.957-8.813-8.819c0-4.863,3.959-8.821,8.813-8.821
					c4.861,0,8.819,3.958,8.819,8.821C134.257,167.371,130.299,171.328,125.438,171.328z M125.438,157.342
					c-2.845,0-5.164,2.319-5.164,5.167c0,2.849,2.319,5.171,5.164,5.171c2.856,0,5.166-2.322,5.166-5.171
					C130.604,159.661,128.294,157.342,125.438,157.342z"/>
			</g>
		</g>
	</g>
	<g>
		<path fill="#C0001F" d="M36.363,184.55H55.1v3.639H40.445v11.754h13.67v3.639h-13.67v15.393h-4.082V184.55z"/>
		<path fill="#C0001F" d="M61.394,186.91c0-0.753,0.253-1.401,0.762-1.942c0.508-0.541,1.156-0.812,1.942-0.812
			s1.458,0.271,2.016,0.812c0.557,0.541,0.836,1.189,0.836,1.942c0,0.755-0.279,1.377-0.836,1.868
			c-0.558,0.492-1.229,0.738-2.016,0.738s-1.435-0.246-1.942-0.738C61.647,188.287,61.394,187.665,61.394,186.91z M62.23,194.386
			h3.934v24.588H62.23V194.386z"/>
		<path fill="#C0001F" d="M90.358,218.974v-14.016c0-2.557-0.369-4.482-1.106-5.778c-0.737-1.294-2.09-1.942-4.057-1.942
			c-1.738,0-3.172,0.467-4.303,1.401c-1.131,0.935-1.926,2.106-2.385,3.517v16.818h-3.934v-24.588h2.754l0.737,2.999h0.197
			c0.787-1.049,1.844-1.909,3.172-2.581s2.909-1.009,4.746-1.009c1.344,0,2.524,0.156,3.541,0.468
			c1.016,0.312,1.86,0.859,2.533,1.646c0.671,0.787,1.18,1.844,1.524,3.172s0.516,3.008,0.516,5.041v14.852H90.358z"/>
		<path fill="#C0001F" d="M118.24,217.351c-0.983,0.721-2.147,1.271-3.492,1.646c-1.344,0.377-2.753,0.566-4.229,0.566
			c-1.901,0-3.509-0.304-4.819-0.91c-1.312-0.605-2.385-1.475-3.221-2.605c-0.836-1.132-1.443-2.492-1.819-4.082
			c-0.378-1.59-0.566-3.352-0.566-5.287c0-4.162,0.918-7.352,2.754-9.564s4.476-3.319,7.918-3.319c1.573,0,2.909,0.123,4.008,0.368
			c1.098,0.246,2.09,0.6,2.975,1.059l-1.131,3.393c-0.755-0.426-1.591-0.762-2.508-1.008c-0.918-0.246-1.901-0.369-2.95-0.369
			c-4.656,0-6.983,3.147-6.983,9.441c0,1.246,0.123,2.435,0.369,3.565c0.245,1.132,0.655,2.132,1.229,3
			c0.572,0.869,1.327,1.565,2.262,2.09s2.09,0.787,3.467,0.787c1.181,0,2.237-0.181,3.172-0.541s1.696-0.771,2.286-1.229
			L118.24,217.351z"/>
		<path fill="#C0001F" d="M123.256,196.204c1.245-0.754,2.695-1.311,4.352-1.672c1.655-0.359,3.385-0.541,5.188-0.541
			c1.704,0,3.073,0.23,4.105,0.689c1.033,0.459,1.819,1.057,2.36,1.795c0.541,0.737,0.901,1.549,1.082,2.434
			c0.18,0.885,0.271,1.771,0.271,2.656c0,1.967-0.049,3.885-0.147,5.753s-0.147,3.64-0.147,5.312c0,1.213,0.049,2.359,0.147,3.441
			s0.278,2.083,0.541,3h-2.901l-1.032-3.441h-0.246c-0.295,0.459-0.664,0.909-1.106,1.352c-0.442,0.443-0.976,0.836-1.599,1.18
			c-0.623,0.345-1.345,0.633-2.163,0.861c-0.82,0.229-1.755,0.344-2.804,0.344c-1.05,0-2.024-0.164-2.926-0.491
			c-0.902-0.327-1.681-0.795-2.336-1.401c-0.656-0.606-1.172-1.336-1.549-2.188s-0.565-1.819-0.565-2.901
			c0-1.442,0.295-2.647,0.885-3.615c0.591-0.967,1.418-1.736,2.483-2.311c1.065-0.573,2.344-0.984,3.836-1.229
			c1.491-0.246,3.139-0.369,4.942-0.369c0.459,0,0.909,0,1.353,0c0.442,0,0.893,0.033,1.352,0.099
			c0.099-0.983,0.147-1.869,0.147-2.656c0-1.802-0.36-3.064-1.081-3.785c-0.722-0.722-2.033-1.082-3.935-1.082
			c-0.558,0-1.155,0.041-1.795,0.126c-0.639,0.085-1.295,0.202-1.967,0.354c-0.673,0.152-1.312,0.338-1.918,0.557
			c-0.607,0.219-1.14,0.463-1.599,0.732L123.256,196.204z M130.238,215.925c0.918,0,1.737-0.123,2.459-0.369
			c0.721-0.246,1.344-0.557,1.868-0.935c0.524-0.376,0.959-0.794,1.304-1.254c0.344-0.459,0.598-0.901,0.762-1.327v-4.082
			c-0.459-0.033-0.927-0.057-1.401-0.074c-0.476-0.016-0.942-0.024-1.401-0.024c-1.017,0-2.009,0.058-2.975,0.172
			c-0.968,0.115-1.82,0.328-2.558,0.64c-0.737,0.313-1.328,0.737-1.771,1.278s-0.664,1.222-0.664,2.041
			c0,1.147,0.41,2.09,1.229,2.827C127.91,215.556,128.96,215.925,130.238,215.925z"/>
		<path fill="#C0001F" d="M161.563,184.894c1.246-0.229,2.681-0.409,4.303-0.541c1.623-0.13,3.106-0.196,4.451-0.196
			c1.507,0,2.941,0.165,4.303,0.492c1.359,0.327,2.557,0.868,3.59,1.622c1.032,0.755,1.86,1.738,2.483,2.951
			c0.622,1.213,0.934,2.688,0.934,4.426c0,2.688-0.737,4.869-2.213,6.541c-1.475,1.672-3.344,2.786-5.605,3.344l2.36,1.819
			l8.557,13.622h-4.771l-9.49-14.852l-4.819-0.738v15.59h-4.082V184.894z M170.414,187.697c-0.426,0-0.869,0-1.327,0
			c-0.46,0-0.902,0.017-1.328,0.049c-0.427,0.033-0.828,0.066-1.205,0.099c-0.377,0.033-0.681,0.082-0.909,0.147v12.688h3.836
			c2.262,0,4.13-0.558,5.605-1.672s2.213-2.853,2.213-5.213c0-1.771-0.606-3.229-1.819-4.376
			C174.267,188.271,172.578,187.697,170.414,187.697z"/>
		<path fill="#C0001F" d="M189.544,196.204c1.245-0.754,2.695-1.311,4.352-1.672c1.655-0.359,3.385-0.541,5.188-0.541
			c1.704,0,3.073,0.23,4.105,0.689c1.033,0.459,1.819,1.057,2.36,1.795c0.541,0.737,0.901,1.549,1.082,2.434
			c0.18,0.885,0.271,1.771,0.271,2.656c0,1.967-0.049,3.885-0.147,5.753s-0.147,3.64-0.147,5.312c0,1.213,0.049,2.359,0.147,3.441
			s0.278,2.083,0.541,3h-2.901l-1.032-3.441h-0.246c-0.295,0.459-0.664,0.909-1.106,1.352c-0.442,0.443-0.976,0.836-1.599,1.18
			c-0.623,0.345-1.345,0.633-2.163,0.861c-0.82,0.229-1.755,0.344-2.804,0.344c-1.05,0-2.024-0.164-2.926-0.491
			c-0.902-0.327-1.681-0.795-2.336-1.401c-0.656-0.606-1.172-1.336-1.549-2.188s-0.565-1.819-0.565-2.901
			c0-1.442,0.295-2.647,0.885-3.615c0.591-0.967,1.418-1.736,2.483-2.311c1.065-0.573,2.344-0.984,3.836-1.229
			c1.491-0.246,3.139-0.369,4.942-0.369c0.459,0,0.909,0,1.353,0c0.442,0,0.893,0.033,1.352,0.099
			c0.099-0.983,0.147-1.869,0.147-2.656c0-1.802-0.36-3.064-1.081-3.785c-0.722-0.722-2.033-1.082-3.935-1.082
			c-0.558,0-1.155,0.041-1.795,0.126c-0.639,0.085-1.295,0.202-1.967,0.354c-0.673,0.152-1.312,0.338-1.918,0.557
			c-0.607,0.219-1.14,0.463-1.599,0.732L189.544,196.204z M196.526,215.925c0.918,0,1.737-0.123,2.459-0.369
			c0.721-0.246,1.344-0.557,1.868-0.935c0.524-0.376,0.959-0.794,1.304-1.254c0.344-0.459,0.598-0.901,0.762-1.327v-4.082
			c-0.459-0.033-0.927-0.057-1.401-0.074c-0.476-0.016-0.942-0.024-1.401-0.024c-1.017,0-2.009,0.058-2.975,0.172
			c-0.968,0.115-1.82,0.328-2.558,0.64c-0.737,0.313-1.328,0.737-1.771,1.278s-0.664,1.222-0.664,2.041
			c0,1.147,0.41,2.09,1.229,2.827C194.198,215.556,195.248,215.925,196.526,215.925z"/>
		<path fill="#C0001F" d="M215.163,194.386h3.935v24.588h-3.935V194.386z M218.114,183.566h4.376v1.032l-4.966,6.295h-2.312
			L218.114,183.566z"/>
		<path fill="#C0001F" d="M225.784,215.53l11.359-15.638l2.065-2.065h-13.425v-3.441h17.507v3.441l-11.417,15.785l-2.009,1.918
			h13.426v3.443h-17.507V215.53z"/>
	</g>
</g>
<g>
	<g>
		<g>
			<path fill="#C0001F" d="M322.597,154.588h-13.176c-3.994,0-7.52-2.552-8.771-6.343c-0.252-0.76-0.08-1.604,0.444-2.213
				c0.538-0.603,1.327-0.893,2.125-0.759c8.014,1.371,21.398,3.544,23.175,3.544h0.007c1.76,0,2.633,1.213,2.633,2.344
				C329.034,154.327,322.656,154.588,322.597,154.588z"/>
		</g>
		<g>
			<path fill="#C0001F" d="M459.52,154.588h-13.174c-0.06,0-6.389-0.782-6.389-3.884c0-1.26,1.26-2.375,2.532-2.375l0,0
				c1.925,0,15.29-2.033,23.274-3.32c0.808-0.122,1.598,0.172,2.116,0.777c0.524,0.604,0.68,1.441,0.427,2.198
				C467.029,151.872,463.412,154.588,459.52,154.588z"/>
		</g>
		<g>
			<path fill="#C0001F" d="M335.594,154.063c-0.049,0-0.094-0.003-0.138-0.005c-15.01-0.877-40.529-3.345-42.768-10.052
				c-0.171-0.496-0.156-1.027,0.019-1.516l2.168-5.871c-1.21-4.276-6.598-25.306-2.439-47.832
				c0.082-0.639,2.615-18.57,22.598-29.345c0.107-0.049,0.22-0.104,0.331-0.16h-7.33c-1.603-0.122-4.425-1.166-4.921-4.313
				c-0.132-0.844,0.219-1.688,0.901-2.199l4.155-3.069c0.398-0.282,0.88-0.438,1.362-0.438h10.979c0.809,0,1.536,0.42,1.939,1.068
				l18.444-24.658c0.437-0.581,1.114-0.918,1.834-0.918h78.31c0.705,0,1.354,0.318,1.792,0.861l21.125,26.58
				c0.421-0.623,1.125-1.016,1.892-1.016h11.94c0.308,0,0.605,0.066,0.885,0.188c2.144,0.904,5.674,2.854,5.392,5.77
				c-0.243,2.665-3.626,4.63-5.075,5.359c-0.316,0.153-0.656,0.235-1.01,0.24l-4.95,0.036c0.266,0.173,0.563,0.354,0.856,0.542
				c4.867,3.052,20.817,14.243,21.697,30.303c0.086,0.883,2.123,23.719-1.271,43.469l0.987,6.556
				c0.097,0.649-0.083,1.315-0.512,1.817c-0.916,1.088-7.233,6.56-41.343,7.913c-0.294,0.022-0.533-0.017-0.784-0.099l-10.232-3.193
				l-73.853,0.344l-12.351,3.551C336.016,154.031,335.803,154.063,335.594,154.063z M297.408,142.981
				c3.019,2.492,19.673,5.393,37.924,6.488l12.287-3.529c0.194-0.062,0.402-0.094,0.616-0.094l74.538-0.352l0,0
				c0.235,0,0.46,0.039,0.685,0.104l10.192,3.185c25.693-1.053,34.447-4.527,36.913-5.865l-0.825-5.516
				c-0.041-0.246-0.041-0.498,0.005-0.742c3.372-19.215,1.294-42.479,1.274-42.711c-0.793-14.295-16.427-24.791-19.568-26.75
				c-5.606-3.514-7.011-4.797-7.305-5.104c-0.642-0.657-0.819-1.644-0.461-2.488c0.133-0.329,0.346-0.614,0.604-0.839
				c-0.462-0.085-0.89-0.301-1.218-0.651l-1.305-1.324L419.93,29.33h-76.055l-19.131,25.565c-0.289,0.393-0.704,0.688-1.173,0.83
				l-0.989,0.291c0.194,0.406,0.26,0.86,0.194,1.321c-0.57,3.859-5.217,5.986-5.744,6.222
				c-17.765,9.589-20.051,25.777-20.076,25.934c-4.37,23.697,2.445,46.305,2.522,46.529c0.138,0.482,0.132,0.998-0.041,1.466
				L297.408,142.981z M446.247,58.22l2.215,0.006l8.917-0.065c0.693-0.395,1.389-0.875,1.81-1.261
				c-0.457-0.355-1.192-0.801-1.89-1.135h-9.865l-0.581,1.564C446.722,57.672,446.513,57.979,446.247,58.22z M310.291,53.841
				l-1.187,0.871l9.534-0.005c-0.02-0.085-0.039-0.177-0.051-0.258l-0.082-0.608H310.291z"/>
		</g>
		<g>
			<path fill="#C0001F" d="M437.638,63.702c-0.008,0-0.015,0-0.024,0l-110.21-1.299c-0.858-0.006-1.633-0.499-2.017-1.266
				c-0.38-0.763-0.305-1.684,0.203-2.375l19.253-26.346c0.433-0.592,1.112-0.943,1.855-0.943h70.234c0.72,0,1.397,0.339,1.827,0.918
				l20.456,27.307c0.475,0.419,0.776,1.033,0.776,1.721c0,1.264-1.021,2.283-2.29,2.283
				C437.688,63.708,437.663,63.714,437.638,63.702z M331.904,57.874l101.119,1.202l-17.237-23.02h-67.929L331.904,57.874z"/>
		</g>
		<g>
			<path fill="#C0001F" d="M332.872,108.135c-0.087,0-0.203-0.005-0.289-0.021l-28.593-3.761l-3.52,0.833
				c-0.68,0.165-1.409,0-1.956-0.438l-3.469-2.782c-0.699-0.556-1.001-1.461-0.787-2.327l3.689-15.13
				c0.148-0.61,0.546-1.13,1.081-1.442c0.54-0.313,1.178-0.396,1.781-0.219l30.74,8.899c0.842,0.238,1.472,0.957,1.626,1.823
				l1.951,11.902c0.126,0.717-0.099,1.443-0.603,1.967C334.081,107.882,333.491,108.135,332.872,108.135z M303.874,99.742
				c0.1,0,0.203,0.005,0.296,0.017l25.944,3.415l-1.226-7.435l-27.06-7.827l-2.784,11.394l1.457,1.166l2.844-0.67
				C303.519,99.764,303.696,99.742,303.874,99.742z"/>
		</g>
		<g>
			<path fill="#C0001F" d="M436.525,108.135c-0.609,0-1.206-0.253-1.646-0.696c-0.507-0.521-0.73-1.25-0.614-1.967l1.963-11.902
				c0.146-0.861,0.769-1.573,1.612-1.823l30.039-8.896c0.6-0.181,1.246-0.108,1.795,0.212c0.544,0.315,0.935,0.833,1.086,1.439
				l3.689,15.13c0.216,0.867-0.102,1.777-0.781,2.333l-3.477,2.782c-0.548,0.438-1.277,0.598-1.952,0.438l-3.518-0.833
				l-27.891,3.761C436.729,108.13,436.635,108.135,436.525,108.135z M440.523,95.724l-1.23,7.434l25.237-3.394
				c0.278-0.041,0.551-0.026,0.818,0.038l2.86,0.674l1.452-1.17l-2.782-11.383L440.523,95.724z"/>
		</g>
		<g>
			<path fill="#C0001F" d="M334.497,148.576c-0.086,0-0.164-0.005-0.252-0.017c-34.126-3.711-35.776-6.77-36.319-7.773
				c-0.093-0.176-0.166-0.367-0.213-0.549c-0.049-0.229-1.311-5.604-2.818-18.648c-0.087-0.773,0.221-1.535,0.826-2.037
				c0.597-0.492,1.411-0.647,2.146-0.403l33.052,10.63c0.384,0.121,0.731,0.345,0.997,0.641l9.829,10.872
				c0.444,0.496,0.661,1.175,0.566,1.847c-0.099,0.666-0.479,1.271-1.057,1.629l-5.545,3.465
				C335.345,148.455,334.922,148.576,334.497,148.576z M302.014,138.451c3.119,1.557,18.458,3.979,31.94,5.474l2.562-1.593
				l-7.576-8.382l-29.071-9.353C300.848,132.447,301.681,136.831,302.014,138.451z"/>
		</g>
		<g>
			<path fill="#C0001F" d="M434.449,148.576c-0.428,0-0.854-0.121-1.223-0.345l-5.533-3.471c-0.579-0.356-0.965-0.957-1.056-1.623
				c-0.099-0.672,0.108-1.351,0.564-1.847l9.821-10.872c0.27-0.293,0.606-0.52,0.989-0.641l33.06-10.63
				c0.735-0.246,1.543-0.089,2.152,0.403c0.598,0.502,0.913,1.264,0.817,2.037c-1.503,13.044-2.774,18.419-2.818,18.648
				c-0.054,0.188-0.123,0.373-0.214,0.549c-0.542,1.001-2.193,4.063-36.313,7.773C434.609,148.571,434.529,148.576,434.449,148.576z
				 M432.427,142.332l2.561,1.593c13.475-1.494,28.818-3.917,31.939-5.474c0.325-1.62,1.16-6.004,2.142-13.854l-29.062,9.353
				L432.427,142.332z"/>
		</g>
		<g>
			<path fill="#C0001F" d="M419.076,147.655h-0.006l-69.102-0.233c-0.511-0.005-1.002-0.17-1.394-0.479l-5.665-4.394
				c-0.452-0.351-0.754-0.857-0.853-1.429l-7.747-45.529c-0.153-0.914,0.264-1.835,1.046-2.324l6.476-4.043
				c0.369-0.227,0.757-0.391,1.223-0.344l85.151,0.227c0.535,0,1.049,0.194,1.473,0.532l5.533,4.626
				c0.639,0.529,0.938,1.365,0.784,2.183l-8.772,46.909c-0.146,0.763-0.663,1.404-1.38,1.694l-5.899,2.429
				C419.672,147.595,419.379,147.655,419.076,147.655z M350.768,142.848l67.861,0.226l4.322-1.779l8.297-44.375l-3.873-3.229
				l-83.68-0.227l-4.609,2.879l7.334,43.133L350.768,142.848z"/>
		</g>
	</g>
	<g>
		<path fill="#C0001F" d="M295.11,207.843l1.216,5.378h0.051l1.317-5.479l8.576-24.302h4.211l-13.446,36.07h-1.875l-13.699-36.07
			h4.617L295.11,207.843z"/>
		<path fill="#C0001F" d="M329.859,216.923c-1.015,0.814-2.292,1.455-3.83,1.928c-1.538,0.475-3.171,0.713-4.898,0.713
			c-1.926,0-3.6-0.314-5.021-0.939c-1.421-0.626-2.587-1.523-3.5-2.689c-0.913-1.168-1.592-2.562-2.03-4.186
			c-0.439-1.623-0.658-3.449-0.658-5.479c0-4.327,0.964-7.626,2.891-9.893c1.93-2.265,4.686-3.397,8.27-3.397
			c1.148,0,2.299,0.125,3.45,0.379c1.149,0.254,2.183,0.734,3.092,1.447c0.917,0.709,1.66,1.716,2.235,3.018
			c0.576,1.302,0.863,3.018,0.863,5.15c0,1.113-0.104,2.349-0.306,3.701h-16.286c0,1.488,0.153,2.811,0.457,3.959
			c0.306,1.148,0.777,2.121,1.421,2.917c0.645,0.795,1.481,1.401,2.512,1.826c1.031,0.424,2.292,0.634,3.777,0.634
			c1.152,0,2.304-0.201,3.451-0.607c1.148-0.408,2.013-0.879,2.588-1.421L329.859,216.923z M321.131,196.529
			c-1.993,0-3.591,0.526-4.791,1.572c-1.201,1.049-1.921,2.841-2.156,5.379h12.581c0-2.571-0.489-4.371-1.473-5.401
			C324.313,197.045,322.927,196.529,321.131,196.529z"/>
		<path fill="#C0001F" d="M353.398,218.954v-14.458c0-1.321-0.076-2.478-0.228-3.478c-0.151-0.996-0.432-1.826-0.837-2.485
			c-0.408-0.659-0.958-1.158-1.648-1.496c-0.695-0.339-1.599-0.508-2.717-0.508c-1.59,0-3.026,0.516-4.311,1.55
			c-1.288,1.03-2.114,2.355-2.485,3.98v16.895h-4.061V183.44h4.061v12.986h0.204c0.88-1.046,1.936-1.884,3.171-2.511
			c1.232-0.626,2.763-0.937,4.589-0.937c1.42,0,2.655,0.158,3.704,0.48c1.047,0.322,1.922,0.887,2.611,1.7
			c0.694,0.812,1.201,1.903,1.523,3.271c0.321,1.371,0.481,3.104,0.481,5.201v15.322H353.398z"/>
		<path fill="#C0001F" d="M365.726,193.587h4.059v25.367h-4.059V193.587z M368.77,182.425h4.516v1.066l-5.123,6.495h-2.386
			L368.77,182.425z"/>
		<path fill="#C0001F" d="M395.76,217.279c-1.016,0.745-2.215,1.312-3.602,1.7c-1.386,0.387-2.841,0.584-4.363,0.584
			c-1.962,0-3.621-0.314-4.971-0.939c-1.356-0.626-2.461-1.523-3.323-2.689c-0.862-1.168-1.491-2.569-1.878-4.21
			c-0.388-1.641-0.584-3.459-0.584-5.455c0-4.293,0.947-7.585,2.842-9.866c1.894-2.283,4.617-3.424,8.167-3.424
			c1.625,0,3.001,0.125,4.137,0.379c1.132,0.254,2.156,0.617,3.065,1.09l-1.166,3.502c-0.776-0.439-1.637-0.785-2.585-1.039
			c-0.946-0.254-1.961-0.382-3.046-0.382c-4.803,0-7.203,3.247-7.203,9.74c0,1.286,0.127,2.512,0.381,3.679s0.675,2.199,1.269,3.096
			c0.592,0.896,1.368,1.613,2.335,2.155c0.961,0.542,2.154,0.812,3.575,0.812c1.217,0,2.308-0.186,3.271-0.559
			c0.966-0.371,1.754-0.795,2.359-1.268L395.76,217.279z"/>
		<path fill="#C0001F" d="M404.992,193.587v14.459c0,1.319,0.074,2.478,0.228,3.475c0.151,1,0.413,1.826,0.788,2.485
			c0.371,0.659,0.878,1.159,1.521,1.497c0.641,0.34,1.452,0.508,2.436,0.508c0.91,0,1.725-0.145,2.434-0.433
			c0.711-0.284,1.345-0.683,1.904-1.19c0.557-0.508,1.047-1.091,1.471-1.75s0.768-1.359,1.04-2.106v-16.944h4.056v18.162
			c0,1.219,0.043,2.479,0.129,3.779c0.085,1.304,0.227,2.444,0.432,3.426h-2.789l-1.016-4.009h-0.256
			c-0.777,1.318-1.826,2.42-3.145,3.3c-1.318,0.878-2.993,1.318-5.023,1.318c-1.35,0-2.543-0.162-3.573-0.484
			c-1.033-0.318-1.896-0.887-2.591-1.698c-0.69-0.812-1.214-1.902-1.57-3.272c-0.355-1.369-0.533-3.104-0.533-5.199v-15.322H404.992
			z"/>
		<path fill="#C0001F" d="M433.197,212.714c0,1.185,0.205,2.03,0.609,2.535c0.406,0.507,0.981,0.762,1.726,0.762
			c0.439,0,0.915-0.032,1.423-0.1c0.504-0.068,1.08-0.221,1.721-0.459l0.458,3.197c-0.541,0.27-1.295,0.489-2.257,0.66
			c-0.964,0.168-1.802,0.254-2.513,0.254c-1.522,0-2.772-0.433-3.752-1.295c-0.983-0.861-1.472-2.324-1.472-4.389V183.44h4.057
			V212.714z"/>
		<path fill="#C0001F" d="M442.078,206.27c0-4.293,0.951-7.585,2.863-9.866c1.913-2.283,4.661-3.424,8.245-3.424
			c1.894,0,3.543,0.311,4.947,0.937c1.402,0.627,2.561,1.522,3.474,2.688c0.913,1.167,1.59,2.572,2.031,4.213
			c0.437,1.641,0.658,3.459,0.658,5.452c0,4.296-0.955,7.585-2.864,9.868c-1.913,2.281-4.661,3.426-8.246,3.426
			c-1.894,0-3.543-0.314-4.945-0.939c-1.404-0.626-2.564-1.523-3.474-2.689c-0.916-1.168-1.592-2.569-2.031-4.21
			C442.298,210.084,442.078,208.266,442.078,206.27z M446.287,206.27c0,1.286,0.128,2.52,0.379,3.705
			c0.258,1.183,0.654,2.216,1.193,3.095c0.542,0.88,1.25,1.588,2.131,2.13c0.879,0.542,1.945,0.812,3.196,0.812
			c4.599,0.033,6.902-3.214,6.902-9.741c0-1.318-0.13-2.569-0.382-3.754c-0.255-1.183-0.653-2.214-1.193-3.096
			c-0.539-0.879-1.251-1.58-2.131-2.104c-0.878-0.526-1.946-0.787-3.196-0.787C448.587,196.495,446.287,199.742,446.287,206.27z"/>
		<path fill="#C0001F" d="M481.851,212.054c0-1.015-0.304-1.811-0.913-2.385c-0.61-0.574-1.363-1.055-2.258-1.445
			c-0.896-0.39-1.88-0.762-2.941-1.116c-1.066-0.356-2.049-0.812-2.943-1.369c-0.896-0.56-1.65-1.276-2.257-2.159
			c-0.609-0.878-0.914-2.061-0.914-3.549c0-2.436,0.693-4.218,2.08-5.354c1.387-1.133,3.313-1.697,5.782-1.697
			c1.826,0,3.359,0.158,4.594,0.48c1.232,0.322,2.309,0.701,3.219,1.141l-0.963,3.35c-0.78-0.372-1.717-0.701-2.815-0.988
			c-1.099-0.289-2.276-0.433-3.526-0.433c-1.486,0-2.58,0.253-3.27,0.762c-0.697,0.507-1.043,1.386-1.043,2.636
			c0,0.883,0.305,1.566,0.914,2.058c0.609,0.489,1.363,0.929,2.258,1.319c0.895,0.389,1.878,0.768,2.943,1.141
			c1.063,0.373,2.045,0.862,2.943,1.469c0.895,0.61,1.648,1.38,2.254,2.311c0.609,0.93,0.917,2.156,0.917,3.679
			c0,1.083-0.179,2.097-0.534,3.043s-0.904,1.758-1.648,2.436c-0.746,0.678-1.67,1.21-2.765,1.599
			c-1.103,0.387-2.395,0.584-3.88,0.584c-1.932,0-3.569-0.189-4.924-0.56c-1.354-0.372-2.485-0.812-3.399-1.319l1.217-3.448
			c0.78,0.439,1.796,0.845,3.046,1.216c1.25,0.373,2.519,0.559,3.805,0.559c1.453,0,2.654-0.286,3.602-0.861
			C481.376,214.573,481.851,213.543,481.851,212.054z"/>
	</g>
</g>
<g>
	<g>
		<path fill="#C0001F" d="M647.956,46.019V24.871h-65.811v21.148h-49.361v108.112h164.528V46.019H647.956z M587.304,30.023h55.949
			v15.996h-55.949V30.023z M692.617,50.723v30.55h-58.771v-6.774c0-0.917-2.625-3.078-3.64-3.078h-31.234
			c-1.015,0-2.723,2.161-2.723,3.078v6.774H537.49v-30.55H692.617z M629.151,76.991v13.243c0,0.665-0.054,0.445-0.801,0.445h-24.719
			c-0.743,0-2.687,0.22-2.687-0.445V76.991c0-0.668,1.943-0.417,2.687-0.417h24.719C629.097,76.574,629.151,76.322,629.151,76.991z
			 M537.49,149.438V85.976h58.759v6.758c0,0.922,1.708,2.638,2.723,2.638h34.036c1.019,0,0.838-1.716,0.838-2.638v-6.758h58.771
			v63.462H537.49z"/>
	</g>
</g>
<g>
	<path fill="#C0001F" d="M542.532,184.53h18.736v3.639h-14.654v11.261h13.425v3.639h-13.425v12.245h14.9v3.639h-18.982V184.53z"/>
	<path fill="#C0001F" d="M582.905,218.954v-13.917c0-1.311-0.058-2.45-0.172-3.417c-0.115-0.967-0.336-1.778-0.664-2.435
		c-0.328-0.655-0.795-1.147-1.401-1.475c-0.607-0.327-1.401-0.492-2.385-0.492c-1.508,0-2.762,0.459-3.762,1.377
		c-1,0.918-1.697,2.065-2.09,3.442v16.917h-3.934v-24.588h2.754l0.737,3h0.197c0.885-1.049,1.91-1.909,3.074-2.582
		c1.163-0.672,2.68-1.008,4.548-1.008c1.574,0,2.86,0.304,3.86,0.91c1,0.607,1.778,1.665,2.336,3.172
		c0.754-1.278,1.795-2.278,3.123-3c1.328-0.721,2.828-1.082,4.5-1.082c1.377,0,2.541,0.156,3.492,0.467
		c0.951,0.312,1.737,0.86,2.36,1.647c0.623,0.787,1.074,1.853,1.353,3.196c0.278,1.345,0.418,3.049,0.418,5.114v14.753h-3.934
		v-14.802c0-1.18-0.058-2.204-0.172-3.073c-0.115-0.868-0.344-1.59-0.688-2.164c-0.344-0.573-0.82-1-1.426-1.279
		c-0.607-0.278-1.402-0.418-2.385-0.418c-1.64,0-2.918,0.459-3.835,1.377c-0.918,0.918-1.574,2.23-1.967,3.934v16.425H582.905z"/>
	<path fill="#C0001F" d="M608.426,194.366h2.705l0.737,2.95h0.197c0.754-1.147,1.729-2.024,2.926-2.631
		c1.196-0.606,2.564-0.91,4.106-0.91c3.277,0,5.72,0.967,7.327,2.901c1.605,1.935,2.409,5.098,2.409,9.491
		c0,2.065-0.271,3.926-0.812,5.582c-0.541,1.656-1.303,3.057-2.286,4.205c-0.983,1.148-2.173,2.033-3.565,2.655
		c-1.394,0.623-2.943,0.935-4.647,0.935c-1.213,0-2.172-0.074-2.877-0.222s-1.467-0.401-2.286-0.762v10.229h-3.935V194.366z
		 M618.36,197.218c-1.672,0-2.992,0.435-3.958,1.303c-0.968,0.869-1.647,2.188-2.041,3.958v12.196
		c0.59,0.459,1.262,0.812,2.016,1.057c0.754,0.246,1.754,0.369,3,0.369c2.263,0,4.058-0.844,5.385-2.533
		c1.328-1.688,1.992-4.171,1.992-7.45c0-1.344-0.115-2.565-0.345-3.664c-0.229-1.098-0.599-2.032-1.106-2.803
		c-0.509-0.77-1.164-1.368-1.967-1.795C620.532,197.431,619.541,197.218,618.36,197.218z"/>
	<path fill="#C0001F" d="M639.407,212.905c0,1.148,0.196,1.967,0.59,2.459s0.951,0.738,1.672,0.738c0.426,0,0.886-0.032,1.377-0.099
		c0.492-0.065,1.049-0.213,1.673-0.442l0.442,3.098c-0.525,0.263-1.254,0.475-2.188,0.639c-0.935,0.164-1.746,0.246-2.435,0.246
		c-1.475,0-2.688-0.418-3.639-1.254c-0.951-0.836-1.426-2.253-1.426-4.253V184.53h3.934V212.905z"/>
	<path fill="#C0001F" d="M667.338,216.986c-0.983,0.787-2.221,1.41-3.713,1.869c-1.492,0.458-3.073,0.688-4.745,0.688
		c-1.868,0-3.491-0.304-4.868-0.91c-1.377-0.606-2.508-1.475-3.394-2.606c-0.885-1.131-1.541-2.483-1.967-4.057
		c-0.427-1.574-0.64-3.344-0.64-5.311c0-4.196,0.935-7.393,2.804-9.589c1.868-2.196,4.54-3.295,8.016-3.295
		c1.114,0,2.229,0.123,3.344,0.369c1.114,0.246,2.114,0.713,3,1.402c0.885,0.688,1.605,1.664,2.163,2.926
		c0.558,1.263,0.836,2.926,0.836,4.991c0,1.082-0.098,2.279-0.295,3.59h-15.785c0,1.443,0.147,2.721,0.442,3.835
		c0.295,1.115,0.754,2.058,1.377,2.828c0.622,0.771,1.434,1.361,2.435,1.771c0.999,0.41,2.221,0.615,3.663,0.615
		c1.114,0,2.229-0.197,3.344-0.59s1.95-0.852,2.509-1.377L667.338,216.986z M658.88,197.218c-1.935,0-3.483,0.509-4.647,1.524
		c-1.164,1.017-1.86,2.754-2.09,5.213h12.196c0-2.491-0.476-4.237-1.427-5.237C661.961,197.718,660.618,197.218,658.88,197.218z"/>
	<path fill="#C0001F" d="M672.453,206.66c0-4.163,0.927-7.352,2.779-9.565c1.852-2.213,4.516-3.319,7.99-3.319
		c1.836,0,3.435,0.304,4.795,0.91c1.36,0.607,2.483,1.476,3.368,2.606c0.886,1.131,1.541,2.492,1.968,4.082
		c0.426,1.591,0.639,3.353,0.639,5.287c0,4.164-0.927,7.352-2.778,9.564c-1.853,2.213-4.517,3.32-7.991,3.32
		c-1.836,0-3.435-0.304-4.794-0.91c-1.361-0.606-2.483-1.475-3.369-2.606c-0.885-1.131-1.541-2.491-1.967-4.082
		C672.666,210.356,672.453,208.594,672.453,206.66z M676.535,206.66c0,1.246,0.123,2.442,0.369,3.59
		c0.245,1.148,0.631,2.147,1.155,3c0.524,0.853,1.213,1.542,2.065,2.065c0.853,0.525,1.885,0.787,3.098,0.787
		c4.458,0.033,6.688-3.114,6.688-9.442c0-1.279-0.123-2.491-0.369-3.639c-0.246-1.147-0.632-2.147-1.155-3
		c-0.525-0.853-1.214-1.532-2.065-2.041c-0.854-0.508-1.886-0.762-3.099-0.762C678.764,197.186,676.535,200.333,676.535,206.66z"/>
</g>
</svg>
