<?xml version="1.0" encoding="utf-8"?>
<!-- Generator: Adobe Illustrator 16.0.0, SVG Export Plug-In . SVG Version: 6.00 Build 0)  -->
<!DOCTYPE svg PUBLIC "-//W3C//DTD SVG 1.1//EN" "http://www.w3.org/Graphics/SVG/1.1/DTD/svg11.dtd">
<svg version="1.1" id="Capa_1" xmlns="http://www.w3.org/2000/svg" xmlns:xlink="http://www.w3.org/1999/xlink" x="0px" y="0px"
	 width="162.025px" height="257.684px" viewBox="0 0 162.025 257.684" enable-background="new 0 0 162.025 257.684"
	 xml:space="preserve">
<g>
	<g>
		<path id="XMLID_842_" fill="#0D0E0E" d="M126.724,25.403H37.669c-7.629,0-13.813,6.184-13.813,13.813v180.569
			c0,7.629,6.185,13.813,13.813,13.813h89.055c7.629,0,13.813-6.185,13.813-13.813V39.216
			C140.537,31.587,134.353,25.403,126.724,25.403z"/>
		<path id="XMLID_843_" fill="#FFFFFB" d="M35.281,205.334V41.811c0-0.133,0.107-0.24,0.24-0.24h93.35c0.133,0,0.24,0.107,0.24,0.24
			v163.524c0,0.132-0.107,0.239-0.24,0.239h-93.35C35.389,205.574,35.281,205.466,35.281,205.334z"/>
		<circle id="XMLID_844_" fill="#FFFFFB" cx="82.196" cy="220.089" r="9.777"/>
		<path id="XMLID_845_" fill="#FFFFFB" d="M96.028,32.112H68.364c-0.795,0-1.445,0.651-1.445,1.445v0.287
			c0,0.795,0.65,1.446,1.445,1.446h27.664c0.795,0,1.445-0.651,1.445-1.446v-0.287C97.474,32.763,96.823,32.112,96.028,32.112z"/>
	</g>
	<polygon fill="#E2001A" points="35.18,40.366 34.281,207.386 128.018,207.836 128.918,41.941 	"/>
	<g>
		<g>
			<g>
				<path fill="#FFFFFF" d="M82.194,152.265c-5.055,0-10.006-1.34-14.391-3.873l-11.246,3.873l2.314-11.908
					c-3.627-4.963-5.534-10.803-5.534-16.953c0-15.908,12.949-28.857,28.857-28.857c15.916,0,28.861,12.949,28.861,28.857
					C111.056,139.32,98.11,152.265,82.194,152.265z M68.32,143.677l0.868,0.537c3.926,2.459,8.423,3.756,13.007,3.756
					c13.549,0,24.566-11.016,24.566-24.566c0-13.544-11.018-24.562-24.566-24.562c-13.543,0-24.562,11.018-24.562,24.562
					c0,5.509,1.806,10.732,5.211,15.097l0.607,0.777l-1.264,6.506L68.32,143.677z"/>
			</g>
			<path fill="#FFFFFF" d="M67.633,112.319c0,0,1.691-2.959,3.067-3.132c1.381-0.166,3.157-0.166,3.637,0.735
				c0.479,0.902,2.62,6.142,2.62,6.142s0.372,0.905-0.198,1.777c-0.563,0.875-1.827,2.145-1.827,2.145s-0.707,0.905,0,1.86
				c0.703,0.954,1.793,2.715,4.059,4.98c2.256,2.259,6.595,3.868,6.595,3.868s0.615,0.086,1.012-0.311
				c0.396-0.393,2.539-3.071,2.539-3.071s0.691-0.883,1.832-0.363c1.135,0.526,6.088,2.985,6.088,2.985s0.582,0.214,0.582,1.086
				c0,0.881-0.361,3.014-1.08,3.741c-0.723,0.718-2.838,2.946-6.014,2.946c-3.182,0-10.737-2.582-14.771-6.617
				c-4.029-4.033-7.612-8.117-8.452-11.836C66.476,115.535,66.583,113.849,67.633,112.319z"/>
		</g>
	</g>
</g>
</svg>
