<?xml version="1.0" encoding="utf-8"?>
<!-- Generator: Adobe Illustrator 16.0.0, SVG Export Plug-In . SVG Version: 6.00 Build 0)  -->
<!DOCTYPE svg PUBLIC "-//W3C//DTD SVG 1.1//EN" "http://www.w3.org/Graphics/SVG/1.1/DTD/svg11.dtd">
<svg version="1.1" xmlns="http://www.w3.org/2000/svg" xmlns:xlink="http://www.w3.org/1999/xlink" x="0px" y="0px"
	 width="39.587px" height="28.663px" viewBox="0 0 39.587 28.663" enable-background="new 0 0 39.587 28.663" xml:space="preserve">
<g id="Soporte">
</g>
<g id="Publicidad">
</g>
<g id="Imagenes">
</g>
<g id="Cintillos">
</g>
<g id="Botones">
</g>
<g id="Logos">
</g>
<g id="Iconos">
	<g opacity="0.7">
		<path fill="#FFFFFF" d="M23.401,7.413c-4.187,0-7.579,3.394-7.579,7.579c0,4.187,3.393,7.58,7.579,7.58
			c4.186,0,7.579-3.394,7.579-7.58C30.98,10.807,27.586,7.413,23.401,7.413z M23.401,19.4c-2.397,0-4.34-1.943-4.34-4.34
			c0-2.397,1.942-4.341,4.34-4.341s4.34,1.943,4.34,4.341C27.741,17.457,25.798,19.4,23.401,19.4z"/>
		<g>
			<path fill="#FFFFFF" d="M31.064,3.969l-1.826-2H17.562l-1.824,2H9.732H1.455v6.751v15.249h8.277h27.723V10.72V3.969H31.064z
				 M23.401,25.072c-5.567,0-10.08-4.513-10.08-10.08s4.513-10.08,10.08-10.08s10.08,4.513,10.08,10.08S28.968,25.072,23.401,25.072
				z"/>
			<rect x="3.455" y="3.969" fill="#FFFFFF" width="7" height="0"/>
			<rect x="32.455" y="3.969" fill="#FFFFFF" width="3" height="0"/>
		</g>
	</g>
</g>
<g id="TXT_1_">
</g>
<g id="Guias">
</g>
</svg>
