<?xml version="1.0" encoding="utf-8"?>
<!-- Generator: Adobe Illustrator 16.0.0, SVG Export Plug-In . SVG Version: 6.00 Build 0)  -->
<!DOCTYPE svg PUBLIC "-//W3C//DTD SVG 1.1//EN" "http://www.w3.org/Graphics/SVG/1.1/DTD/svg11.dtd">
<svg version="1.1" xmlns="http://www.w3.org/2000/svg" xmlns:xlink="http://www.w3.org/1999/xlink" x="0px" y="0px" width="34.57px"
	 height="33.692px" viewBox="0 0 34.57 33.692" enable-background="new 0 0 34.57 33.692" xml:space="preserve">
<g id="Soporte">
</g>
<g id="Publicidad">
</g>
<g id="Imagenes">
</g>
<g id="Cintillos">
</g>
<g id="Botones">
</g>
<g id="Logos">
</g>
<g id="Iconos">
	<g>
		<circle fill="#232323" cx="17.761" cy="17.659" r="16.033"/>
		<path fill="#FFFFFF" d="M20.097,21.967c-0.719,0-1.383,0.223-1.935,0.598l-4.589-3.446c0.234-0.462,0.375-0.977,0.375-1.528
			c0-0.496-0.109-0.969-0.3-1.396l4.516-3.397c0.552,0.375,1.216,0.597,1.933,0.597c1.895,0,3.43-1.535,3.43-3.431
			c0-1.893-1.535-3.431-3.43-3.431c-1.896,0-3.43,1.538-3.43,3.431c0,0.373,0.074,0.727,0.186,1.063l-4.723,3.554
			c-0.486-0.26-1.025-0.419-1.612-0.419c-1.894,0-3.428,1.536-3.428,3.43c0,1.896,1.534,3.431,3.428,3.431
			c0.528,0,1.021-0.129,1.468-0.339l4.867,3.655c-0.111,0.335-0.186,0.687-0.186,1.06c0,1.893,1.533,3.43,3.43,3.43
			c1.895,0,3.43-1.537,3.43-3.43C23.526,23.502,21.991,21.967,20.097,21.967z"/>
	</g>
</g>
<g id="TXT_1_">
</g>
<g id="Guias">
</g>
</svg>
