<?xml version="1.0" encoding="utf-8"?>
<!-- Generator: Adobe Illustrator 16.0.0, SVG Export Plug-In . SVG Version: 6.00 Build 0)  -->
<!DOCTYPE svg PUBLIC "-//W3C//DTD SVG 1.1//EN" "http://www.w3.org/Graphics/SVG/1.1/DTD/svg11.dtd">
<svg version="1.1" xmlns="http://www.w3.org/2000/svg" xmlns:xlink="http://www.w3.org/1999/xlink" x="0px" y="0px" width="30.75px"
	 height="11.112px" viewBox="0 0 30.75 11.112" enable-background="new 0 0 30.75 11.112" xml:space="preserve">
<g id="Soporte">
</g>
<g id="Publicidad">
</g>
<g id="Imagenes">
</g>
<g id="Cintillos">
</g>
<g id="Botones">
</g>
<g id="Iconos">
	<g>
		<polygon fill="#B92025" points="13.509,3.715 15.244,0.158 17.012,3.697 20.931,4.248 18.111,7.025 18.798,10.922 15.287,9.096 
			11.792,10.955 12.443,7.051 9.596,4.303 		"/>
		<polygon fill="#A81822" points="2.229,5.02 3.173,3.086 4.134,5.01 6.265,5.311 4.731,6.82 5.105,8.939 3.196,7.945 1.296,8.957 
			1.649,6.834 0.101,5.34 		"/>
		<polygon fill="#A81822" points="26.705,5.02 27.648,3.086 28.61,5.01 30.741,5.311 29.207,6.82 29.581,8.939 27.671,7.945 
			25.771,8.957 26.125,6.834 24.577,5.34 		"/>
	</g>
</g>
<g id="TXT">
</g>
<g id="Guias" display="none">
</g>
</svg>
