<?xml version="1.0" encoding="utf-8"?>
<!-- Generator: Adobe Illustrator 16.0.0, SVG Export Plug-In . SVG Version: 6.00 Build 0)  -->
<!DOCTYPE svg PUBLIC "-//W3C//DTD SVG 1.1//EN" "http://www.w3.org/Graphics/SVG/1.1/DTD/svg11.dtd">
<svg version="1.1" xmlns="http://www.w3.org/2000/svg" xmlns:xlink="http://www.w3.org/1999/xlink" x="0px" y="0px"
	 width="32.389px" height="12.8px" viewBox="0 0 32.389 12.8" enable-background="new 0 0 32.389 12.8" xml:space="preserve">
<g id="Soporte">
</g>
<g id="Publicidad">
</g>
<g id="Imagenes">
</g>
<g id="Cintillos">
</g>
<g id="Botones">
</g>
<g id="Logos">
</g>
<g id="Iconos">
	<polygon fill="#FFFFFF" points="14.587,4.725 16.321,1.168 18.09,4.708 22.009,5.259 19.188,8.035 19.876,11.932 16.364,10.106 
		12.87,11.965 13.521,8.062 10.673,5.313 	"/>
	<polygon fill="#FFFFFF" points="3.308,6.03 4.251,4.096 5.212,6.021 7.343,6.32 5.81,7.83 6.183,9.949 4.273,8.956 2.374,9.967 
		2.728,7.845 1.179,6.35 	"/>
	<polygon fill="#FFFFFF" points="27.782,6.03 28.726,4.096 29.688,6.021 31.818,6.32 30.284,7.83 30.657,9.949 28.749,8.956 
		26.849,9.967 27.202,7.845 25.654,6.35 	"/>
</g>
<g id="TXT_1_">
</g>
<g id="Guias">
</g>
</svg>
