<?xml version="1.0" encoding="utf-8"?>
<!-- Generator: Adobe Illustrator 16.0.0, SVG Export Plug-In . SVG Version: 6.00 Build 0)  -->
<!DOCTYPE svg PUBLIC "-//W3C//DTD SVG 1.1//EN" "http://www.w3.org/Graphics/SVG/1.1/DTD/svg11.dtd">
<svg version="1.1" id="Capa_1" xmlns="http://www.w3.org/2000/svg" xmlns:xlink="http://www.w3.org/1999/xlink" x="0px" y="0px"
	 width="87.292px" height="80.083px" viewBox="0 0 87.292 80.083" enable-background="new 0 0 87.292 80.083" xml:space="preserve">
<linearGradient id="SVGID_1_" gradientUnits="userSpaceOnUse" x1="-505.8677" y1="284.8638" x2="-470.6035" y2="255.6686" gradientTransform="matrix(1 0 0 -1 539.1001 323.4834)">
	<stop  offset="0" style="stop-color:#99111C"/>
	<stop  offset="1" style="stop-color:#99111C;stop-opacity:0"/>
</linearGradient>
<polygon fill="url(#SVGID_1_)" points="23.222,68.643 19.839,63.364 5.558,49.958 5.83,27.146 5.027,27.688 2.777,24.604 
	32.777,1.813 63.583,24.416 91.482,50.396 91.482,79.021 34.527,79.021 "/>
<path fill="#B92025" d="M5.146,48.792l0.083-22.25l-1.833,0.583l-1-3l29.833-21.5l29.833,21.417l-3.5,3.583l-4.583-2l0.083,23.167
	l-17.167-0.417c0,0,6.917,3.918,7.083,10.334s-4.167,11.999-11.333,12.416s-12.25-6.333-12.833-10.583s3.083-10.75,5.333-11.5
	L5.146,48.792z"/>
<g>
	<path fill="#FFFFFF" d="M32.582,1.028L1.18,24.145l2.229,4.626l0.757-0.631v21.942h18.672c-2.426,2-3.828,5.613-3.828,9.006
		c0,7.168,5.815,12.982,12.963,12.982c7.147,0,12.961-5.834,12.961-12.994c0-3.615-2.276-7.023-5.008-9.515l15.239-0.169V27.24
		l3.633,1.878l4.844-4.85L32.582,1.028z M42.935,59.068c0,6.06-4.917,10.987-10.961,10.987c-6.045,0-10.963-4.934-10.963-10.998
		c0-4.145,2.508-7.975,6.545-9.999l0.66-0.33l-0.217-1.284l-2.186-3.361h2.354v-5.864l-1.092-1.836l2.826-3.407l-3.733-3.694v-0.997
		l3.335-3.512l-2.335-3.015v-1.854l3.536-3.672l2.464,2.598v25.738l4.226,0.012l-1.947,2.896l0.045,1.26l0.733,0.311l0.605,0.319
		l0.473,0.229C40.784,51.719,42.935,55.264,42.935,59.068z M58.468,26.536l-5.301-2.938v23.816L37.74,47.581l1.908-1.886
		c0.653-0.802,1.007-1.272,0.716-1.913c-0.398-0.873-1.241-0.699-1.473-0.699h-3.725V18.006l-4.462-4.619l-5.538,5.693v3.296
		l1.734,2.138l-2.734,2.926v2.653l3.434,2.958l-3.566,3.462l2.132,2.563v3.008h-1.222c-0.881,0-1.263,0.442-1.413,0.715
		c-0.311,0.565-0.132,1.217,0.144,1.649l2.134,3.317c-0.161,0.095-0.32-0.684-0.476,0.316H6.167V23.896l-2.149,2.182L3.5,24.67
		L32.409,3.515l28.162,21.031L58.468,26.536z"/>
	<path fill="#FFFFFF" d="M32.198,61.766c-2.188,0-3.969,1.781-3.969,3.971c0,2.188,1.78,3.971,3.969,3.971
		c2.189,0,3.969-1.781,3.969-3.971S34.387,61.766,32.198,61.766z M32.198,68.206c-1.361,0-2.469-1.107-2.469-2.47
		s1.107-2.471,2.469-2.471c1.362,0,2.469,1.108,2.469,2.471S33.56,68.206,32.198,68.206z"/>
</g>
</svg>
