<?xml version="1.0" encoding="utf-8"?>
<!-- Generator: Adobe Illustrator 16.0.0, SVG Export Plug-In . SVG Version: 6.00 Build 0)  -->
<!DOCTYPE svg PUBLIC "-//W3C//DTD SVG 1.1//EN" "http://www.w3.org/Graphics/SVG/1.1/DTD/svg11.dtd">
<svg version="1.1" id="Capa_1" xmlns="http://www.w3.org/2000/svg" xmlns:xlink="http://www.w3.org/1999/xlink" x="0px" y="0px"
	 width="300px" height="64.97px" viewBox="0 0 300 64.97" enable-background="new 0 0 300 64.97" xml:space="preserve">
<g>
	<g>
		<path fill="#FFFFFF" d="M52.604,37.26c0.651,0,1.147-0.174,1.488-0.52c0.341-0.347,0.512-0.767,0.512-1.261
			c0-0.598-0.179-1.039-0.536-1.322c-0.357-0.284-0.919-0.426-1.685-0.426H51.25v-1.087l1.906-2.598l0.898-0.709l-1.244,0.142
			h-2.646v-1.732h6.016v1.118l-2.221,2.977l-0.693,0.425v0.079l0.662-0.095c0.367,0.032,0.716,0.116,1.047,0.252
			c0.331,0.137,0.619,0.334,0.866,0.591c0.247,0.258,0.443,0.575,0.59,0.953s0.221,0.813,0.221,1.307
			c0,0.62-0.103,1.155-0.307,1.606c-0.205,0.452-0.488,0.83-0.851,1.135c-0.362,0.304-0.785,0.53-1.268,0.677
			c-0.483,0.146-1.003,0.221-1.56,0.221c-0.462,0-0.939-0.042-1.433-0.126s-0.893-0.205-1.197-0.362l0.551-1.701
			c0.273,0.137,0.575,0.247,0.905,0.331C51.825,37.218,52.195,37.26,52.604,37.26z"/>
		<path fill="#FFFFFF" d="M59.33,37.039h2.189v-6.221l0.236-1.071l-0.756,0.93l-1.402,0.96l-0.866-1.181l3.591-2.898h1.15v9.481
			h2.142v1.732H59.33V37.039z"/>
		<path fill="#FFFFFF" d="M74.858,35.354c0,0.515-0.086,0.992-0.26,1.434s-0.417,0.824-0.732,1.149
			c-0.315,0.326-0.695,0.583-1.142,0.771c-0.446,0.189-0.937,0.284-1.473,0.284c-0.546,0-1.047-0.087-1.504-0.26
			c-0.457-0.174-0.854-0.434-1.189-0.78c-0.336-0.346-0.599-0.781-0.788-1.307s-0.284-1.134-0.284-1.827
			c0-1.039,0.15-1.979,0.449-2.819c0.299-0.84,0.704-1.572,1.213-2.196c0.509-0.625,1.103-1.129,1.78-1.513
			c0.677-0.383,1.394-0.638,2.15-0.764l0.457,1.622c-0.525,0.084-1.008,0.247-1.449,0.488c-0.441,0.242-0.833,0.53-1.173,0.866
			c-0.341,0.336-0.63,0.712-0.866,1.126c-0.236,0.415-0.402,0.843-0.496,1.284c0.209-0.263,0.482-0.486,0.819-0.67
			c0.336-0.184,0.756-0.275,1.26-0.275c0.473,0,0.908,0.073,1.307,0.221c0.399,0.146,0.74,0.365,1.024,0.653
			c0.283,0.289,0.504,0.644,0.662,1.063C74.779,34.325,74.858,34.808,74.858,35.354z M72.874,35.464
			c0-1.176-0.578-1.764-1.732-1.764c-0.42,0-0.774,0.095-1.063,0.283c-0.289,0.189-0.491,0.41-0.606,0.662
			c-0.021,0.115-0.031,0.215-0.031,0.299s0,0.168,0,0.252c0,0.252,0.037,0.502,0.11,0.748c0.073,0.247,0.181,0.468,0.323,0.662
			s0.323,0.352,0.543,0.472c0.22,0.121,0.482,0.182,0.787,0.182c0.494,0,0.895-0.168,1.205-0.504
			C72.719,36.42,72.874,35.989,72.874,35.464z"/>
		<path fill="#FFFFFF" d="M76.449,33.338h3.953v1.812h-3.953V33.338z"/>
		<path fill="#FFFFFF" d="M89.457,35.354c0,0.515-0.086,0.992-0.26,1.434s-0.417,0.824-0.732,1.149
			c-0.315,0.326-0.695,0.583-1.142,0.771c-0.446,0.189-0.937,0.284-1.473,0.284c-0.546,0-1.047-0.087-1.504-0.26
			c-0.457-0.174-0.854-0.434-1.189-0.78c-0.336-0.346-0.599-0.781-0.788-1.307s-0.284-1.134-0.284-1.827
			c0-1.039,0.15-1.979,0.449-2.819c0.299-0.84,0.704-1.572,1.213-2.196c0.509-0.625,1.103-1.129,1.78-1.513
			c0.677-0.383,1.394-0.638,2.15-0.764l0.457,1.622c-0.525,0.084-1.008,0.247-1.449,0.488c-0.441,0.242-0.833,0.53-1.173,0.866
			c-0.341,0.336-0.63,0.712-0.866,1.126c-0.236,0.415-0.402,0.843-0.496,1.284c0.209-0.263,0.482-0.486,0.819-0.67
			c0.336-0.184,0.756-0.275,1.26-0.275c0.473,0,0.908,0.073,1.307,0.221c0.399,0.146,0.74,0.365,1.024,0.653
			c0.283,0.289,0.504,0.644,0.662,1.063C89.378,34.325,89.457,34.808,89.457,35.354z M87.473,35.464
			c0-1.176-0.578-1.764-1.732-1.764c-0.42,0-0.774,0.095-1.063,0.283c-0.289,0.189-0.491,0.41-0.606,0.662
			c-0.021,0.115-0.031,0.215-0.031,0.299s0,0.168,0,0.252c0,0.252,0.037,0.502,0.11,0.748c0.073,0.247,0.181,0.468,0.323,0.662
			s0.323,0.352,0.543,0.472c0.22,0.121,0.482,0.182,0.787,0.182c0.494,0,0.895-0.168,1.205-0.504
			C87.318,36.42,87.473,35.989,87.473,35.464z"/>
		<path fill="#FFFFFF" d="M90.906,31.196c0-0.536,0.082-1.029,0.244-1.48c0.163-0.451,0.399-0.837,0.709-1.158
			c0.31-0.319,0.688-0.571,1.134-0.756c0.446-0.184,0.958-0.275,1.536-0.275c1.187,0,2.118,0.354,2.795,1.063
			c0.677,0.708,1.016,1.74,1.016,3.095c0,1.218-0.155,2.271-0.465,3.157c-0.31,0.888-0.725,1.628-1.244,2.221
			c-0.52,0.594-1.121,1.048-1.803,1.362c-0.683,0.315-1.402,0.504-2.158,0.567l-0.441-1.606c0.577-0.073,1.092-0.215,1.543-0.426
			c0.451-0.21,0.84-0.47,1.166-0.779c0.325-0.31,0.59-0.661,0.795-1.055c0.205-0.395,0.349-0.816,0.433-1.269
			c-0.252,0.273-0.522,0.463-0.811,0.567c-0.289,0.104-0.675,0.157-1.157,0.157c-0.399,0-0.795-0.068-1.189-0.205
			c-0.394-0.136-0.746-0.344-1.055-0.622c-0.31-0.277-0.562-0.63-0.756-1.055S90.906,31.773,90.906,31.196z M92.891,31.086
			c0,0.599,0.167,1.05,0.504,1.354c0.336,0.305,0.756,0.457,1.26,0.457c0.43,0,0.782-0.068,1.055-0.205s0.483-0.305,0.63-0.504
			c0.032-0.221,0.047-0.431,0.047-0.63c0-0.294-0.037-0.583-0.11-0.866c-0.073-0.284-0.187-0.536-0.338-0.756
			c-0.152-0.221-0.347-0.396-0.583-0.528c-0.236-0.131-0.517-0.196-0.842-0.196c-0.515,0-0.914,0.165-1.197,0.496
			C93.032,30.038,92.891,30.498,92.891,31.086z"/>
		<path fill="#FFFFFF" d="M107.836,35.7h-1.732v3.071h-1.906V35.7h-4.772v-1.165l4.993-6.867h1.685v6.395h1.732V35.7z
			 M104.198,31.652l0.142-1.322h-0.063l-0.535,1.134l-1.638,2.126l-0.788,0.599l1.008-0.126h1.874V31.652z"/>
		<path fill="#FFFFFF" d="M109.647,37.039h2.189v-6.221l0.236-1.071l-0.756,0.93l-1.402,0.96l-0.866-1.181l3.591-2.898h1.15v9.481
			h2.142v1.732h-6.284V37.039z"/>
		<path fill="#FFFFFF" d="M117.694,31.196c0-0.536,0.082-1.029,0.244-1.48c0.163-0.451,0.399-0.837,0.709-1.158
			c0.31-0.319,0.688-0.571,1.134-0.756c0.446-0.184,0.958-0.275,1.536-0.275c1.187,0,2.118,0.354,2.795,1.063
			c0.677,0.708,1.016,1.74,1.016,3.095c0,1.218-0.155,2.271-0.465,3.157c-0.31,0.888-0.725,1.628-1.244,2.221
			c-0.52,0.594-1.121,1.048-1.803,1.362c-0.683,0.315-1.402,0.504-2.158,0.567l-0.441-1.606c0.577-0.073,1.092-0.215,1.543-0.426
			c0.451-0.21,0.84-0.47,1.166-0.779c0.325-0.31,0.59-0.661,0.795-1.055c0.205-0.395,0.349-0.816,0.433-1.269
			c-0.252,0.273-0.522,0.463-0.811,0.567c-0.289,0.104-0.675,0.157-1.157,0.157c-0.399,0-0.795-0.068-1.189-0.205
			c-0.394-0.136-0.746-0.344-1.055-0.622c-0.31-0.277-0.562-0.63-0.756-1.055S117.694,31.773,117.694,31.196z M119.679,31.086
			c0,0.599,0.167,1.05,0.504,1.354c0.336,0.305,0.756,0.457,1.26,0.457c0.43,0,0.782-0.068,1.055-0.205s0.483-0.305,0.63-0.504
			c0.032-0.221,0.047-0.431,0.047-0.63c0-0.294-0.037-0.583-0.11-0.866c-0.073-0.284-0.187-0.536-0.338-0.756
			c-0.152-0.221-0.347-0.396-0.583-0.528c-0.236-0.131-0.517-0.196-0.842-0.196c-0.515,0-0.914,0.165-1.197,0.496
			C119.821,30.038,119.679,30.498,119.679,31.086z"/>
		<path fill="#FFFFFF" d="M129.711,37.26c0.651,0,1.147-0.174,1.488-0.52c0.341-0.347,0.512-0.767,0.512-1.261
			c0-0.598-0.179-1.039-0.536-1.322c-0.357-0.284-0.919-0.426-1.685-0.426h-1.134v-1.087l1.906-2.598l0.898-0.709l-1.244,0.142
			h-2.646v-1.732h6.016v1.118l-2.221,2.977l-0.693,0.425v0.079l0.662-0.095c0.367,0.032,0.716,0.116,1.047,0.252
			c0.331,0.137,0.619,0.334,0.866,0.591c0.247,0.258,0.443,0.575,0.59,0.953s0.221,0.813,0.221,1.307
			c0,0.62-0.103,1.155-0.307,1.606c-0.205,0.452-0.488,0.83-0.851,1.135c-0.362,0.304-0.785,0.53-1.268,0.677
			c-0.483,0.146-1.003,0.221-1.56,0.221c-0.462,0-0.939-0.042-1.433-0.126s-0.893-0.205-1.197-0.362l0.551-1.701
			c0.273,0.137,0.575,0.247,0.905,0.331C128.932,37.218,129.302,37.26,129.711,37.26z"/>
		<path fill="#FFFFFF" d="M135.806,36.078c0-0.367,0.047-0.695,0.142-0.984c0.094-0.288,0.229-0.551,0.401-0.787
			c0.173-0.236,0.378-0.449,0.614-0.638c0.236-0.189,0.491-0.362,0.764-0.52c-0.515-0.326-0.919-0.701-1.213-1.127
			c-0.294-0.425-0.441-0.952-0.441-1.582c0-0.41,0.076-0.793,0.229-1.15c0.152-0.356,0.373-0.666,0.661-0.929
			s0.638-0.467,1.047-0.614c0.41-0.147,0.872-0.221,1.386-0.221c0.472,0,0.903,0.063,1.291,0.189c0.389,0.126,0.722,0.305,1,0.535
			c0.278,0.231,0.493,0.512,0.646,0.843c0.152,0.33,0.229,0.695,0.229,1.095c0,0.619-0.14,1.145-0.417,1.574
			c-0.278,0.431-0.685,0.825-1.221,1.182c0.63,0.367,1.105,0.771,1.425,1.213c0.32,0.44,0.48,1.008,0.48,1.7
			c0,0.473-0.086,0.9-0.26,1.284c-0.173,0.383-0.417,0.711-0.732,0.984c-0.315,0.272-0.693,0.485-1.134,0.638
			s-0.924,0.229-1.449,0.229s-1-0.071-1.425-0.213s-0.787-0.339-1.086-0.591s-0.53-0.556-0.693-0.913
			C135.887,36.919,135.806,36.52,135.806,36.078z M140.877,35.874c0-0.242-0.058-0.462-0.173-0.662
			c-0.116-0.199-0.266-0.38-0.449-0.543s-0.388-0.313-0.614-0.449c-0.226-0.136-0.454-0.268-0.685-0.394
			c-0.494,0.283-0.832,0.591-1.016,0.921c-0.184,0.331-0.275,0.659-0.275,0.984c0,0.421,0.144,0.78,0.433,1.079
			c0.289,0.3,0.69,0.449,1.205,0.449c0.473,0,0.853-0.115,1.142-0.347C140.733,36.683,140.877,36.336,140.877,35.874z
			 M138.026,30.472c0,0.252,0.047,0.473,0.142,0.661c0.094,0.189,0.223,0.354,0.386,0.496c0.163,0.142,0.347,0.273,0.551,0.394
			c0.205,0.121,0.417,0.234,0.638,0.339c0.63-0.535,0.945-1.123,0.945-1.764c0-0.441-0.128-0.774-0.386-1s-0.57-0.339-0.937-0.339
			c-0.462,0-0.801,0.121-1.016,0.362C138.134,29.863,138.026,30.146,138.026,30.472z"/>
	</g>
	<g>
		<path fill="#FFFFFF" d="M226.818,35.694c0-1.991,0.421-3.518,1.263-4.582c0.842-1.063,2.042-1.595,3.601-1.595
			c0.842,0,1.57,0.147,2.185,0.443s1.123,0.714,1.526,1.254c0.404,0.541,0.702,1.188,0.896,1.945c0.193,0.757,0.29,1.602,0.29,2.534
			c0,1.99-0.424,3.518-1.271,4.581s-2.056,1.596-3.626,1.596c-0.83,0-1.55-0.148-2.158-0.444c-0.608-0.295-1.115-0.713-1.519-1.254
			c-0.404-0.54-0.703-1.188-0.896-1.945C226.915,37.472,226.818,36.627,226.818,35.694z M228.32,35.694
			c0,0.659,0.065,1.285,0.196,1.877c0.131,0.591,0.333,1.111,0.605,1.561c0.273,0.45,0.623,0.809,1.05,1.075
			c0.427,0.268,0.93,0.401,1.51,0.401c1.058,0,1.889-0.401,2.491-1.203s0.904-2.039,0.904-3.711c0-0.648-0.065-1.271-0.196-1.869
			c-0.131-0.597-0.336-1.12-0.614-1.569s-0.631-0.808-1.058-1.075c-0.427-0.267-0.936-0.4-1.527-0.4c-1.047,0-1.868,0.4-2.466,1.202
			C228.619,32.785,228.32,34.021,228.32,35.694z"/>
		<path fill="#FFFFFF" d="M245.417,33.135v8.531h-1.365v-7.337h-3.446v7.337h-1.365v-7.337h-1.331v-1.194h1.331v-0.478
			c0-1.069,0.265-1.846,0.794-2.329c0.528-0.483,1.305-0.726,2.329-0.726c0.671,0,1.268,0.065,1.791,0.196s0.933,0.287,1.229,0.469
			l-0.46,1.093c-0.308-0.193-0.672-0.336-1.093-0.427s-0.87-0.137-1.348-0.137c-0.421,0-0.754,0.049-0.998,0.146
			c-0.245,0.097-0.433,0.244-0.563,0.443s-0.216,0.446-0.256,0.742s-0.06,0.631-0.06,1.007H245.417z"/>
		<path fill="#FFFFFF" d="M253.88,41.103c-0.341,0.251-0.745,0.441-1.211,0.572c-0.467,0.131-0.956,0.196-1.468,0.196
			c-0.659,0-1.217-0.105-1.672-0.316c-0.455-0.21-0.827-0.512-1.117-0.904c-0.29-0.392-0.501-0.864-0.632-1.416
			s-0.196-1.163-0.196-1.834c0-1.444,0.318-2.551,0.956-3.318c0.637-0.769,1.553-1.152,2.747-1.152c0.546,0,1.009,0.043,1.391,0.128
			c0.381,0.086,0.725,0.208,1.032,0.367l-0.393,1.177c-0.262-0.147-0.552-0.264-0.87-0.35c-0.318-0.085-0.66-0.128-1.024-0.128
			c-1.615,0-2.423,1.092-2.423,3.276c0,0.433,0.043,0.845,0.128,1.237c0.086,0.393,0.228,0.739,0.427,1.04
			c0.199,0.302,0.461,0.544,0.785,0.726c0.324,0.183,0.726,0.273,1.203,0.273c0.409,0,0.776-0.063,1.101-0.188
			c0.324-0.125,0.589-0.267,0.793-0.426L253.88,41.103z"/>
		<path fill="#FFFFFF" d="M255.757,30.541c0-0.262,0.088-0.486,0.265-0.674s0.401-0.281,0.674-0.281c0.273,0,0.507,0.094,0.7,0.281
			s0.29,0.412,0.29,0.674s-0.097,0.478-0.29,0.648s-0.427,0.256-0.7,0.256c-0.272,0-0.497-0.085-0.674-0.256
			S255.757,30.803,255.757,30.541z M256.047,33.135h1.365v8.531h-1.365V33.135z"/>
		<path fill="#FFFFFF" d="M265.807,41.666v-4.863c0-0.887-0.128-1.555-0.384-2.005c-0.256-0.449-0.726-0.674-1.408-0.674
			c-0.603,0-1.101,0.162-1.492,0.486c-0.393,0.324-0.669,0.731-0.828,1.22v5.836h-1.365v-8.531h0.956l0.256,1.041h0.068
			c0.272-0.364,0.64-0.663,1.101-0.896c0.461-0.232,1.009-0.35,1.646-0.35c0.466,0,0.876,0.055,1.229,0.162
			c0.353,0.108,0.646,0.299,0.879,0.571c0.232,0.273,0.409,0.641,0.528,1.101c0.12,0.461,0.18,1.044,0.18,1.749v5.153H265.807z"/>
		<path fill="#FFFFFF" d="M269.527,33.766c0.432-0.262,0.936-0.454,1.51-0.58c0.574-0.125,1.175-0.188,1.8-0.188
			c0.592,0,1.066,0.08,1.425,0.239s0.632,0.366,0.819,0.622s0.313,0.538,0.375,0.845c0.063,0.308,0.094,0.614,0.094,0.922
			c0,0.683-0.017,1.348-0.051,1.996s-0.051,1.263-0.051,1.843c0,0.421,0.017,0.819,0.051,1.194c0.034,0.376,0.097,0.723,0.188,1.041
			h-1.007l-0.358-1.194h-0.085c-0.103,0.159-0.23,0.315-0.384,0.469c-0.153,0.154-0.339,0.29-0.555,0.41
			c-0.216,0.119-0.467,0.219-0.751,0.298c-0.284,0.08-0.608,0.12-0.973,0.12s-0.702-0.058-1.015-0.171
			c-0.313-0.113-0.583-0.275-0.811-0.486c-0.228-0.21-0.407-0.463-0.538-0.759s-0.196-0.632-0.196-1.007
			c0-0.501,0.103-0.919,0.308-1.255c0.205-0.335,0.492-0.603,0.861-0.802c0.37-0.198,0.813-0.341,1.331-0.427
			c0.518-0.085,1.089-0.128,1.715-0.128c0.159,0,0.315,0,0.47,0c0.153,0,0.31,0.012,0.469,0.034
			c0.034-0.341,0.052-0.648,0.052-0.921c0-0.626-0.126-1.063-0.376-1.314c-0.25-0.25-0.705-0.375-1.365-0.375
			c-0.193,0-0.4,0.015-0.622,0.044c-0.223,0.029-0.45,0.07-0.683,0.123c-0.233,0.053-0.455,0.117-0.666,0.193
			c-0.21,0.075-0.396,0.16-0.555,0.254L269.527,33.766z M271.95,40.608c0.318,0,0.603-0.043,0.853-0.128
			c0.25-0.086,0.467-0.193,0.648-0.324s0.333-0.276,0.452-0.436c0.12-0.159,0.208-0.313,0.265-0.461v-1.416
			c-0.159-0.011-0.321-0.02-0.486-0.025s-0.327-0.009-0.486-0.009c-0.353,0-0.696,0.021-1.032,0.06
			c-0.336,0.04-0.631,0.114-0.887,0.223c-0.257,0.107-0.461,0.256-0.614,0.443c-0.154,0.188-0.23,0.424-0.23,0.708
			c0,0.398,0.142,0.725,0.426,0.981C271.142,40.48,271.506,40.608,271.95,40.608z"/>
		<path fill="#FFFFFF" d="M281.88,39.346c0-0.342-0.103-0.608-0.307-0.802c-0.205-0.193-0.458-0.355-0.76-0.486
			c-0.301-0.131-0.631-0.257-0.989-0.376s-0.688-0.272-0.99-0.461c-0.301-0.188-0.554-0.429-0.759-0.725s-0.308-0.694-0.308-1.194
			c0-0.819,0.233-1.419,0.7-1.801c0.466-0.381,1.114-0.571,1.945-0.571c0.614,0,1.129,0.055,1.544,0.162
			c0.415,0.108,0.776,0.236,1.083,0.384l-0.324,1.126c-0.262-0.125-0.577-0.235-0.946-0.332c-0.37-0.097-0.766-0.146-1.187-0.146
			c-0.5,0-0.867,0.086-1.101,0.256c-0.232,0.171-0.35,0.467-0.35,0.888c0,0.296,0.103,0.526,0.308,0.69
			c0.204,0.165,0.458,0.313,0.759,0.444c0.302,0.131,0.632,0.259,0.99,0.384s0.688,0.29,0.989,0.495
			c0.302,0.204,0.555,0.463,0.76,0.776c0.204,0.313,0.307,0.725,0.307,1.236c0,0.364-0.06,0.706-0.179,1.024
			c-0.12,0.318-0.305,0.591-0.555,0.818c-0.251,0.229-0.561,0.407-0.93,0.538c-0.37,0.131-0.806,0.196-1.306,0.196
			c-0.648,0-1.2-0.063-1.655-0.188c-0.455-0.125-0.836-0.272-1.144-0.443l0.41-1.16c0.262,0.148,0.603,0.284,1.023,0.409
			c0.421,0.126,0.848,0.188,1.28,0.188c0.488,0,0.893-0.097,1.211-0.29S281.88,39.846,281.88,39.346z"/>
	</g>
	<g>
		<g>
			<g>
				<polygon fill="#FFFFFF" points="232,50.609 228.844,51.521 165.256,51.477 163,50.609 163,49 232,49 				"/>
			</g>
			<g>
				<path fill="#FFFFFF" d="M222.939,9h-52.663C169.672,9,169,8.027,169,8.472v38.725c0,0.446,0.672,1.804,1.276,1.804h52.663
					c0.605,0-0.939-1.357-0.939-1.804V8.472C222,8.027,223.545,9,222.939,9z M221,48h-52V10h52V48z"/>
			</g>
			<g>
				<polygon fill="#FFFFFF" points="167.958,17.845 165.854,17.845 165.854,18.828 165.278,19.361 165.27,25.87 165.557,26.13 
					165.528,19.63 165.854,19.306 165.854,26.473 165.854,40.371 166.994,42.195 168.04,40.313 				"/>
			</g>
		</g>
		<g>
			<g>
				<path fill="#FFFFFF" d="M192.279,19.059c-0.134-0.165,0.063-0.533,0.435-0.891c0.565-0.546,4.451-4.451,6.002-6.002
					c0.391-0.391,1.708-1.184,3.002,0.609c1.567,2.178,0.155,3.247,0,3.308c-2.069,0.815-8.571,2.95-8.571,2.95
					S192.453,19.278,192.279,19.059z"/>
			</g>
			<g>
				<path fill="#FFFFFF" d="M196.643,20.474c-6.914,0-12.519,4.935-12.519,11.021s5.604,11.021,12.519,11.021
					s12.518-4.935,12.518-11.021S203.557,20.474,196.643,20.474z M196.643,40.115c-3.147,0-5.698-3.861-5.698-8.621
					c0-4.761,2.551-8.622,5.698-8.622c3.145,0,5.696,3.861,5.696,8.622C202.339,36.254,199.787,40.115,196.643,40.115z"/>
			</g>
		</g>
	</g>
	<g>
		<g>
			<path fill="#FFFFFF" d="M32.361,20.492c-6.549,0.312-11.719,5.768-11.698,12.324c0.006,1.998,0.487,3.882,1.339,5.55
				l-1.307,6.337c-0.07,0.344,0.238,0.644,0.58,0.565l6.211-1.475c1.596,0.796,3.388,1.256,5.285,1.283
				c6.695,0.104,12.277-5.213,12.486-11.903C45.48,25.998,39.561,20.151,32.361,20.492z M39.772,39.589
				c-1.818,1.819-4.237,2.82-6.81,2.82c-1.506,0-2.948-0.337-4.287-1.003l-0.863-0.431l-3.81,0.902l0.802-3.893l-0.426-0.832
				c-0.695-1.362-1.047-2.833-1.047-4.376c0-2.572,1.002-4.99,2.82-6.807c1.803-1.803,4.262-2.824,6.811-2.824
				c2.572,0,4.991,1.002,6.81,2.824c1.819,1.816,2.821,4.234,2.821,6.807C42.594,35.328,41.575,37.788,39.772,39.589z"/>
		</g>
		<g>
			<path fill="#FFFFFF" d="M38.933,35.445l-2.382-0.684c-0.314-0.089-0.651,0-0.88,0.232l-0.583,0.595
				c-0.245,0.249-0.617,0.329-0.943,0.198c-1.127-0.457-3.498-2.565-4.104-3.619c-0.174-0.306-0.146-0.685,0.07-0.963l0.508-0.657
				c0.199-0.26,0.241-0.604,0.109-0.902l-1.002-2.267c-0.24-0.542-0.934-0.701-1.388-0.317c-0.665,0.561-1.454,1.416-1.55,2.361
				c-0.169,1.67,0.547,3.775,3.254,6.302c3.127,2.92,5.633,3.305,7.264,2.909c0.924-0.222,1.663-1.12,2.129-1.855
				C39.754,36.277,39.503,35.611,38.933,35.445z"/>
		</g>
	</g>
</g>
</svg>
