<?xml version="1.0" encoding="utf-8"?>
<!-- Generator: Adobe Illustrator 16.0.0, SVG Export Plug-In . SVG Version: 6.00 Build 0)  -->
<!DOCTYPE svg PUBLIC "-//W3C//DTD SVG 1.1//EN" "http://www.w3.org/Graphics/SVG/1.1/DTD/svg11.dtd">
<svg version="1.1" id="Capa_1" xmlns="http://www.w3.org/2000/svg" xmlns:xlink="http://www.w3.org/1999/xlink" x="0px" y="0px"
	 width="300px" height="64.971px" viewBox="0 0 300 64.971" enable-background="new 0 0 300 64.971" xml:space="preserve">
<g>
	<g>
		<g>
			<path fill="#FFFFFF" d="M224.24,37.8c0-1.99,0.42-3.518,1.263-4.582c0.842-1.063,2.042-1.594,3.601-1.594
				c0.842,0,1.57,0.146,2.186,0.441c0.615,0.297,1.123,0.715,1.525,1.254c0.404,0.541,0.703,1.189,0.896,1.945
				c0.193,0.758,0.29,1.604,0.29,2.535c0,1.99-0.425,3.518-1.271,4.58c-0.848,1.063-2.057,1.596-3.627,1.596
				c-0.83,0-1.55-0.146-2.158-0.443c-0.607-0.295-1.114-0.713-1.519-1.254c-0.403-0.541-0.703-1.188-0.896-1.945
				C224.337,39.579,224.24,38.733,224.24,37.8z M225.742,37.8c0,0.66,0.064,1.285,0.195,1.877s0.334,1.111,0.605,1.561
				c0.273,0.451,0.623,0.811,1.05,1.076c0.427,0.268,0.931,0.4,1.511,0.4c1.057,0,1.889-0.4,2.49-1.203
				c0.602-0.801,0.904-2.039,0.904-3.711c0-0.648-0.064-1.271-0.196-1.869c-0.131-0.596-0.336-1.119-0.614-1.568
				c-0.277-0.449-0.631-0.809-1.058-1.074c-0.427-0.268-0.937-0.4-1.526-0.4c-1.047,0-1.869,0.4-2.467,1.201
				C226.041,34.891,225.742,36.128,225.742,37.8z"/>
			<path fill="#FFFFFF" d="M242.839,35.241v8.531h-1.364v-7.338h-3.447v7.338h-1.364v-7.338h-1.331v-1.193h1.331v-0.479
				c0-1.068,0.265-1.846,0.794-2.328c0.527-0.482,1.305-0.727,2.328-0.727c0.672,0,1.269,0.064,1.791,0.195
				c0.523,0.133,0.934,0.287,1.229,0.471l-0.46,1.092c-0.308-0.193-0.672-0.336-1.093-0.426c-0.421-0.092-0.87-0.139-1.349-0.139
				c-0.42,0-0.754,0.051-0.998,0.146c-0.244,0.098-0.432,0.244-0.563,0.443c-0.13,0.199-0.216,0.445-0.256,0.742
				c-0.04,0.295-0.061,0.631-0.061,1.006h4.812V35.241z"/>
			<path fill="#FFFFFF" d="M251.302,43.21c-0.341,0.25-0.745,0.439-1.211,0.57c-0.467,0.133-0.956,0.197-1.468,0.197
				c-0.659,0-1.217-0.105-1.672-0.316c-0.455-0.209-0.827-0.512-1.117-0.904s-0.501-0.863-0.633-1.416
				c-0.131-0.551-0.195-1.162-0.195-1.834c0-1.443,0.318-2.551,0.956-3.318s1.553-1.15,2.747-1.15c0.546,0,1.009,0.043,1.391,0.127
				c0.381,0.086,0.725,0.209,1.032,0.367l-0.394,1.178c-0.262-0.148-0.551-0.266-0.869-0.352c-0.318-0.084-0.66-0.127-1.024-0.127
				c-1.614,0-2.423,1.092-2.423,3.275c0,0.434,0.043,0.846,0.128,1.238c0.086,0.393,0.228,0.738,0.427,1.039
				c0.199,0.303,0.461,0.545,0.785,0.727s0.727,0.273,1.203,0.273c0.409,0,0.775-0.064,1.102-0.189
				c0.324-0.125,0.588-0.266,0.793-0.426L251.302,43.21z"/>
			<path fill="#FFFFFF" d="M253.179,32.647c0-0.262,0.089-0.486,0.265-0.674c0.178-0.188,0.401-0.281,0.674-0.281
				c0.273,0,0.508,0.094,0.701,0.281c0.192,0.188,0.289,0.412,0.289,0.674s-0.097,0.479-0.289,0.648
				c-0.193,0.17-0.428,0.256-0.701,0.256c-0.271,0-0.496-0.086-0.674-0.256C253.268,33.124,253.179,32.909,253.179,32.647z
				 M253.469,35.241h1.365v8.531h-1.365V35.241z"/>
			<path fill="#FFFFFF" d="M263.229,43.772v-4.863c0-0.887-0.127-1.555-0.384-2.006c-0.256-0.447-0.726-0.674-1.407-0.674
				c-0.604,0-1.102,0.162-1.492,0.486c-0.394,0.324-0.67,0.73-0.828,1.221v5.836h-1.365v-8.531h0.956l0.256,1.041h0.067
				c0.272-0.363,0.641-0.662,1.102-0.896c0.461-0.232,1.01-0.35,1.646-0.35c0.466,0,0.875,0.055,1.229,0.162s0.646,0.299,0.879,0.57
				c0.232,0.273,0.409,0.643,0.528,1.102c0.12,0.461,0.18,1.045,0.18,1.75v5.152H263.229z"/>
			<path fill="#FFFFFF" d="M266.949,35.872c0.432-0.262,0.936-0.453,1.51-0.58c0.574-0.125,1.175-0.188,1.8-0.188
				c0.593,0,1.065,0.08,1.425,0.238c0.359,0.16,0.633,0.367,0.819,0.623s0.313,0.537,0.375,0.844
				c0.063,0.309,0.094,0.615,0.094,0.922c0,0.684-0.017,1.35-0.051,1.996c-0.034,0.648-0.052,1.264-0.052,1.844
				c0,0.422,0.018,0.818,0.052,1.193c0.034,0.377,0.097,0.723,0.188,1.041h-1.008l-0.357-1.193h-0.086
				c-0.103,0.158-0.229,0.314-0.383,0.469s-0.34,0.291-0.556,0.41s-0.467,0.219-0.751,0.299c-0.283,0.08-0.607,0.119-0.973,0.119
				s-0.702-0.059-1.016-0.172c-0.313-0.111-0.582-0.273-0.811-0.484s-0.407-0.463-0.538-0.76s-0.196-0.633-0.196-1.008
				c0-0.5,0.104-0.918,0.309-1.254s0.492-0.604,0.861-0.803c0.369-0.197,0.813-0.34,1.33-0.426s1.09-0.129,1.715-0.129
				c0.16,0,0.315,0,0.471,0c0.152,0,0.31,0.012,0.469,0.035c0.034-0.342,0.053-0.648,0.053-0.922c0-0.627-0.127-1.063-0.377-1.314
				c-0.25-0.25-0.705-0.375-1.365-0.375c-0.192,0-0.399,0.016-0.621,0.045c-0.224,0.029-0.451,0.07-0.684,0.123
				s-0.455,0.117-0.666,0.193c-0.21,0.074-0.396,0.158-0.555,0.254L266.949,35.872z M269.372,42.714
				c0.317,0,0.603-0.043,0.853-0.127c0.25-0.086,0.467-0.193,0.648-0.324c0.181-0.131,0.333-0.277,0.451-0.436
				c0.121-0.16,0.209-0.314,0.266-0.463V39.95c-0.158-0.012-0.32-0.021-0.486-0.025c-0.164-0.006-0.326-0.01-0.486-0.01
				c-0.352,0-0.695,0.021-1.031,0.061s-0.631,0.113-0.887,0.223c-0.258,0.107-0.461,0.256-0.614,0.443s-0.229,0.424-0.229,0.707
				c0,0.398,0.142,0.727,0.426,0.982C268.564,42.587,268.928,42.714,269.372,42.714z"/>
			<path fill="#FFFFFF" d="M279.302,41.452c0-0.342-0.103-0.607-0.308-0.803c-0.204-0.191-0.457-0.354-0.76-0.484
				c-0.301-0.131-0.631-0.258-0.988-0.377c-0.358-0.119-0.688-0.271-0.99-0.461c-0.301-0.188-0.555-0.43-0.759-0.725
				c-0.205-0.297-0.308-0.693-0.308-1.193c0-0.82,0.232-1.42,0.699-1.803c0.467-0.381,1.114-0.57,1.945-0.57
				c0.613,0,1.129,0.055,1.544,0.162s0.776,0.236,1.083,0.385l-0.324,1.125c-0.262-0.125-0.576-0.234-0.945-0.332
				c-0.371-0.098-0.767-0.146-1.188-0.146c-0.5,0-0.867,0.086-1.102,0.256c-0.231,0.172-0.35,0.469-0.35,0.889
				c0,0.297,0.104,0.525,0.309,0.689c0.203,0.166,0.457,0.314,0.758,0.445c0.303,0.131,0.633,0.258,0.99,0.383
				c0.358,0.125,0.688,0.291,0.989,0.496c0.302,0.203,0.556,0.463,0.761,0.775c0.203,0.313,0.307,0.725,0.307,1.236
				c0,0.363-0.061,0.705-0.18,1.023s-0.305,0.592-0.555,0.818c-0.251,0.229-0.561,0.406-0.93,0.537
				c-0.37,0.133-0.807,0.197-1.307,0.197c-0.647,0-1.199-0.063-1.654-0.188s-0.836-0.273-1.145-0.443l0.41-1.16
				c0.262,0.148,0.604,0.283,1.023,0.408c0.421,0.127,0.848,0.188,1.279,0.188c0.488,0,0.894-0.096,1.211-0.289
				C279.139,42.298,279.302,41.952,279.302,41.452z"/>
		</g>
		<g>
			<g>
				<g>
					<polygon fill="#FFFFFF" points="229.422,52.716 226.266,53.628 162.678,53.583 160.422,52.716 160.422,51.106 229.422,51.106 
											"/>
				</g>
				<g>
					<path fill="#FFFFFF" d="M220.361,11.106h-52.664c-0.604,0-1.275-0.973-1.275-0.527v38.725c0,0.445,0.672,1.803,1.275,1.803
						h52.664c0.604,0-0.939-1.355-0.939-1.803V10.578C219.422,10.133,220.967,11.106,220.361,11.106z M218.422,50.106h-52v-38h52
						V50.106z"/>
				</g>
				<g>
					<polygon fill="#FFFFFF" points="165.38,19.951 163.275,19.951 163.275,20.934 162.699,21.467 162.691,27.976 162.979,28.235 
						162.949,21.736 163.275,21.412 163.275,28.579 163.275,42.477 164.416,44.302 165.462,42.419 					"/>
				</g>
			</g>
			<g>
				<g>
					<path fill="#FFFFFF" d="M189.701,21.165c-0.135-0.165,0.063-0.533,0.435-0.892c0.565-0.546,4.451-4.451,6.002-6.002
						c0.392-0.391,1.708-1.184,3.003,0.609c1.566,2.178,0.154,3.247,0,3.308c-2.07,0.815-8.572,2.95-8.572,2.95
						S189.875,21.384,189.701,21.165z"/>
				</g>
				<g>
					<path fill="#FFFFFF" d="M194.064,22.58c-6.914,0-12.519,4.935-12.519,11.02c0,6.086,5.604,11.021,12.519,11.021
						c6.916,0,12.519-4.936,12.519-11.021C206.583,27.515,200.979,22.58,194.064,22.58z M194.064,42.221
						c-3.146,0-5.697-3.861-5.697-8.621c0-4.762,2.551-8.623,5.697-8.623c3.146,0,5.696,3.861,5.696,8.623
						C199.761,38.36,197.209,42.221,194.064,42.221z"/>
				</g>
			</g>
		</g>
		<g>
			<g>
				<path fill="#FFFFFF" d="M29.783,22.598c-6.549,0.313-11.719,5.768-11.698,12.325c0.006,1.998,0.487,3.881,1.339,5.549
					l-1.307,6.338c-0.07,0.344,0.238,0.645,0.58,0.564l6.211-1.475c1.596,0.795,3.388,1.256,5.285,1.283
					c6.695,0.104,12.277-5.213,12.486-11.904C42.902,28.104,36.983,22.257,29.783,22.598z M37.194,41.694
					c-1.818,1.82-4.237,2.82-6.81,2.82c-1.506,0-2.948-0.336-4.287-1.002l-0.863-0.432l-3.81,0.902l0.802-3.893L21.8,39.259
					c-0.695-1.363-1.047-2.834-1.047-4.377c0-2.572,1.002-4.99,2.82-6.807c1.803-1.803,4.262-2.824,6.811-2.824
					c2.572,0,4.991,1.002,6.81,2.824c1.819,1.816,2.821,4.234,2.821,6.807C40.016,37.434,38.997,39.893,37.194,41.694z"/>
			</g>
			<g>
				<path fill="#FFFFFF" d="M36.355,37.552l-2.382-0.684c-0.314-0.09-0.651,0-0.88,0.23l-0.583,0.596
					c-0.245,0.248-0.617,0.328-0.943,0.197c-1.127-0.457-3.498-2.564-4.104-3.619c-0.174-0.305-0.146-0.684,0.07-0.963l0.508-0.656
					c0.199-0.26,0.241-0.604,0.109-0.902l-1.002-2.268c-0.24-0.541-0.934-0.699-1.388-0.316c-0.665,0.561-1.454,1.416-1.55,2.361
					c-0.169,1.67,0.547,3.775,3.254,6.303c3.127,2.92,5.633,3.305,7.264,2.908c0.924-0.223,1.663-1.119,2.129-1.855
					C37.176,38.384,36.925,37.718,36.355,37.552z"/>
			</g>
		</g>
	</g>
	<g>
		<path fill="#FFFFFF" d="M48.548,39.516c0.426,0.221,1.405,0.631,2.385,0.631c1.248,0,1.879-0.6,1.879-1.373
			c0-1.012-1.011-1.469-2.069-1.469h-0.979v-1.723h0.932c0.806-0.016,1.832-0.315,1.832-1.184c0-0.616-0.505-1.074-1.516-1.074
			c-0.837,0-1.721,0.363-2.147,0.615l-0.49-1.736c0.616-0.395,1.848-0.773,3.174-0.773c2.195,0,3.411,1.152,3.411,2.558
			c0,1.09-0.616,1.942-1.879,2.385v0.032c1.232,0.221,2.227,1.152,2.227,2.494c0,1.816-1.595,3.144-4.201,3.144
			c-1.326,0-2.448-0.348-3.048-0.727L48.548,39.516z"/>
		<path fill="#FFFFFF" d="M59.952,33.735H59.92l-1.958,0.932l-0.395-1.8l2.716-1.263h1.99v10.265h-2.322V33.735z"/>
		<path fill="#FFFFFF" d="M72.51,33.578h-3.98l-0.221,1.579c0.221-0.031,0.411-0.031,0.664-0.031c0.979,0,1.974,0.221,2.7,0.742
			c0.774,0.521,1.248,1.373,1.248,2.574c0,1.91-1.643,3.601-4.406,3.601c-1.248,0-2.29-0.284-2.859-0.585l0.427-1.8
			c0.458,0.222,1.39,0.505,2.321,0.505c0.995,0,2.053-0.473,2.053-1.563c0-1.059-0.837-1.706-2.89-1.706
			c-0.568,0-0.963,0.031-1.39,0.095l0.679-5.385h5.654V33.578z"/>
		<path fill="#FFFFFF" d="M78.371,36.926v1.595h-4.138v-1.595H78.371z"/>
		<path fill="#FFFFFF" d="M79.936,39.516c0.426,0.221,1.405,0.631,2.385,0.631c1.248,0,1.879-0.6,1.879-1.373
			c0-1.012-1.011-1.469-2.069-1.469h-0.979v-1.723h0.932c0.806-0.016,1.832-0.315,1.832-1.184c0-0.616-0.505-1.074-1.516-1.074
			c-0.837,0-1.721,0.363-2.147,0.615l-0.49-1.736c0.616-0.395,1.848-0.773,3.174-0.773c2.195,0,3.411,1.152,3.411,2.558
			c0,1.09-0.616,1.942-1.879,2.385v0.032c1.232,0.221,2.227,1.152,2.227,2.494c0,1.816-1.595,3.144-4.201,3.144
			c-1.326,0-2.448-0.348-3.048-0.727L79.936,39.516z"/>
		<path fill="#FFFFFF" d="M89.034,40.132c0.3,0.031,0.568,0.031,1.042,0c0.726-0.047,1.469-0.252,2.021-0.632
			c0.663-0.458,1.105-1.121,1.295-1.896l-0.047-0.016c-0.458,0.475-1.122,0.742-2.053,0.742c-1.737,0-3.206-1.215-3.206-3.205
			c0-2.006,1.611-3.695,3.87-3.695c2.637,0,3.885,2.021,3.885,4.422c0,2.131-0.679,3.695-1.8,4.722
			c-0.979,0.884-2.322,1.374-3.917,1.437c-0.411,0.032-0.821,0.016-1.09,0V40.132z M90.487,34.983c0,0.885,0.474,1.643,1.453,1.643
			c0.647,0,1.105-0.316,1.327-0.68c0.079-0.142,0.126-0.299,0.126-0.6c0-1.09-0.411-2.164-1.5-2.164
			C91.071,33.182,90.471,33.909,90.487,34.983z"/>
		<path fill="#FFFFFF" d="M97.469,39.516c0.426,0.221,1.405,0.631,2.385,0.631c1.248,0,1.879-0.6,1.879-1.373
			c0-1.012-1.011-1.469-2.069-1.469h-0.979v-1.723h0.932c0.806-0.016,1.832-0.315,1.832-1.184c0-0.616-0.505-1.074-1.516-1.074
			c-0.837,0-1.721,0.363-2.147,0.615l-0.49-1.736c0.616-0.395,1.848-0.773,3.174-0.773c2.195,0,3.411,1.152,3.411,2.558
			c0,1.09-0.616,1.942-1.879,2.385v0.032c1.232,0.221,2.227,1.152,2.227,2.494c0,1.816-1.595,3.144-4.201,3.144
			c-1.326,0-2.448-0.348-3.048-0.727L97.469,39.516z"/>
		<path fill="#FFFFFF" d="M110.058,41.869v-2.448h-4.548v-1.563l3.885-6.254h2.938v6.017h1.232v1.8h-1.232v2.448H110.058z
			 M110.058,37.621v-2.274c0-0.615,0.032-1.248,0.079-1.911h-0.063c-0.332,0.663-0.6,1.264-0.947,1.911l-1.374,2.242v0.032H110.058z
			"/>
		<path fill="#FFFFFF" d="M122.157,36.688c0,3.175-1.279,5.354-3.9,5.354c-2.653,0-3.822-2.385-3.838-5.29
			c0-2.97,1.264-5.322,3.917-5.322C121.083,31.43,122.157,33.878,122.157,36.688z M116.835,36.753
			c-0.016,2.353,0.553,3.474,1.484,3.474s1.437-1.169,1.437-3.506c0-2.274-0.489-3.475-1.453-3.475
			C117.419,33.246,116.819,34.368,116.835,36.753z"/>
		<path fill="#FFFFFF" d="M130.924,36.688c0,3.175-1.279,5.354-3.9,5.354c-2.653,0-3.822-2.385-3.838-5.29
			c0-2.97,1.263-5.322,3.917-5.322C129.851,31.43,130.924,33.878,130.924,36.688z M125.603,36.753
			c-0.016,2.353,0.553,3.474,1.484,3.474s1.437-1.169,1.437-3.506c0-2.274-0.489-3.475-1.453-3.475
			C126.187,33.246,125.586,34.368,125.603,36.753z"/>
		<path fill="#FFFFFF" d="M139.691,36.688c0,3.175-1.279,5.354-3.9,5.354c-2.653,0-3.822-2.385-3.838-5.29
			c0-2.97,1.264-5.322,3.917-5.322C138.618,31.43,139.691,33.878,139.691,36.688z M134.37,36.753
			c-0.016,2.353,0.553,3.474,1.484,3.474s1.437-1.169,1.437-3.506c0-2.274-0.489-3.475-1.453-3.475
			C134.954,33.246,134.354,34.368,134.37,36.753z"/>
	</g>
</g>
</svg>
