<?xml version="1.0" encoding="utf-8"?>
<!-- Generator: Adobe Illustrator 16.0.0, SVG Export Plug-In . SVG Version: 6.00 Build 0)  -->
<!DOCTYPE svg PUBLIC "-//W3C//DTD SVG 1.1//EN" "http://www.w3.org/Graphics/SVG/1.1/DTD/svg11.dtd">
<svg version="1.1" xmlns="http://www.w3.org/2000/svg" xmlns:xlink="http://www.w3.org/1999/xlink" x="0px" y="0px"
	 width="27.416px" height="28.663px" viewBox="0 0 27.416 28.663" enable-background="new 0 0 27.416 28.663" xml:space="preserve">
<g id="Soporte">
</g>
<g id="Publicidad">
</g>
<g id="Imagenes">
</g>
<g id="Cintillos">
</g>
<g id="Botones">
</g>
<g id="Logos">
</g>
<g id="Iconos">
	<g opacity="0.7">
		<path fill="#FFFFFF" d="M23.213,22.612L18.23,17.63l-1.621,1.622l4.982,4.982H17.72v2.304h7.797V18.74h-2.304V22.612z
			 M23.213,22.612"/>
		<path fill="#FFFFFF" d="M18.23,11.664l4.983-4.987v3.872h2.304V2.751H17.72v2.304h3.871l-4.982,4.982L18.23,11.664z M18.23,11.664
			"/>
		<path fill="#FFFFFF" d="M9.016,17.63l-4.982,4.982V18.74H1.73v7.798h7.798v-2.304H5.656l4.987-4.982L9.016,17.63z M9.016,17.63"/>
		<path fill="#FFFFFF" d="M9.528,5.055V2.751H1.73v7.798h2.304V6.677l4.982,4.987l1.627-1.627L5.656,5.055H9.528z M9.528,5.055"/>
	</g>
</g>
<g id="TXT_1_">
</g>
<g id="Guias">
</g>
</svg>
