<?xml version="1.0" encoding="utf-8"?>
<!-- Generator: Adobe Illustrator 16.0.0, SVG Export Plug-In . SVG Version: 6.00 Build 0)  -->
<!DOCTYPE svg PUBLIC "-//W3C//DTD SVG 1.1//EN" "http://www.w3.org/Graphics/SVG/1.1/DTD/svg11.dtd">
<svg version="1.1" xmlns="http://www.w3.org/2000/svg" xmlns:xlink="http://www.w3.org/1999/xlink" x="0px" y="0px" width="34.57px"
	 height="33.692px" viewBox="0 0 34.57 33.692" enable-background="new 0 0 34.57 33.692" xml:space="preserve">
<g id="Soporte">
</g>
<g id="Publicidad">
</g>
<g id="Imagenes">
</g>
<g id="Cintillos">
</g>
<g id="Botones">
</g>
<g id="Logos">
</g>
<g id="Iconos">
	<g>
		<circle fill="#232323" cx="17.718" cy="17.342" r="16.033"/>
		<g>
			<path fill-rule="evenodd" clip-rule="evenodd" fill="#FFFFFF" d="M17.197,15.562c1.201,0,2.402,0.001,3.604,0
				c0.135,0,0.256-0.02,0.275,0.187c0.252,2.868-0.274,5.495-2.431,7.58c-1.136,1.099-2.56,1.613-4.105,1.799
				c-2.174,0.261-4.178-0.188-5.964-1.487c-2.6-1.889-3.822-5.201-3.078-8.326c0.753-3.167,3.309-5.578,6.486-6.092
				c2.438-0.395,4.611,0.219,6.527,1.771c0.191,0.154,0.205,0.244,0.016,0.417c-0.662,0.597-1.275,1.243-1.86,1.916
				c-0.146,0.166-0.248,0.21-0.444,0.047c-1.588-1.306-3.809-1.241-5.299-0.346c-1.676,1.009-2.546,2.934-2.229,4.957
				c0.291,1.863,1.71,3.396,3.579,3.819c1.01,0.229,2.021,0.166,3-0.175c1.1-0.382,1.734-1.226,2.166-2.257
				c0.265-0.634,0.264-0.635-0.408-0.635c-1.139,0.001-2.278-0.004-3.417,0.01c-0.236,0.002-0.296-0.067-0.292-0.297
				c0.013-0.859,0.016-1.719-0.002-2.578c-0.006-0.272,0.09-0.318,0.336-0.315C14.836,15.568,16.017,15.562,17.197,15.562z"/>
			<path fill-rule="evenodd" clip-rule="evenodd" fill="#FFFFFF" d="M25.837,19.126c0-0.373-0.014-0.746,0.004-1.117
				c0.012-0.236-0.049-0.322-0.303-0.316c-0.755,0.017-1.51-0.005-2.266,0.012c-0.254,0.006-0.313-0.078-0.303-0.315
				c0.018-0.454,0.02-0.911-0.001-1.365c-0.013-0.267,0.082-0.325,0.333-0.319c0.754,0.016,1.51-0.002,2.266,0.01
				c0.22,0.005,0.277-0.064,0.273-0.279c-0.012-0.755,0.002-1.51-0.008-2.266c-0.003-0.188,0.049-0.253,0.242-0.248
				c0.485,0.012,0.973,0.014,1.458-0.001c0.222-0.007,0.304,0.046,0.298,0.289c-0.018,0.724,0.01,1.448-0.014,2.172
				c-0.01,0.288,0.088,0.341,0.348,0.335c0.725-0.018,1.448,0,2.172-0.011c0.21-0.003,0.293,0.048,0.285,0.273
				c-0.016,0.486-0.014,0.974-0.002,1.459c0.007,0.201-0.053,0.268-0.259,0.265c-0.755-0.011-1.511,0.004-2.267-0.009
				c-0.219-0.004-0.277,0.066-0.275,0.28c0.013,0.766-0.002,1.531,0.01,2.297c0.004,0.22-0.037,0.313-0.283,0.303
				c-0.485-0.02-0.973-0.015-1.458-0.001c-0.209,0.006-0.263-0.069-0.255-0.268C25.847,19.912,25.837,19.519,25.837,19.126z"/>
		</g>
	</g>
</g>
<g id="TXT_1_">
</g>
<g id="Guias">
</g>
</svg>
