<?xml version="1.0" encoding="utf-8"?>
<!-- Generator: Adobe Illustrator 16.0.0, SVG Export Plug-In . SVG Version: 6.00 Build 0)  -->
<!DOCTYPE svg PUBLIC "-//W3C//DTD SVG 1.1//EN" "http://www.w3.org/Graphics/SVG/1.1/DTD/svg11.dtd">
<svg version="1.1" id="Capa_1" xmlns="http://www.w3.org/2000/svg" xmlns:xlink="http://www.w3.org/1999/xlink" x="0px" y="0px"
	 width="303.5px" height="131px" viewBox="0 0 303.5 131" enable-background="new 0 0 303.5 131" xml:space="preserve">
<polygon fill="#B92025" points="76.632,15.712 76.632,31.963 51.9,31.963 51.9,15.712 59.32,15.712 59.32,12.532 69.214,12.532 
	69.214,15.712 "/>
<path fill="#B92025" d="M115.188,12.594l-2.986,3.97c0,0-0.097-0.23-0.806-0.168l-1.292,0.021l-0.762,0.525
	c0,0-0.516,0.71,0.623,1.009h1.137c0,0-1.894,1.049-2.373,2.132c0,0-1.458,1.458-1.417,5.354c0,0,0.063,2.497,0.614,4.499
	c0,0-0.447,1.001-0.259,1.23c0,0,0.313,0.438,1.167,0.708c0,0,0.479,1.021,2.521,0.833c0,0,1.167,0.063,1.604-0.188l1.275,0.119
	l2.017-0.562l11.441-0.054l1.586,0.495l1.306-0.103c0,0,3.438,1.021,4.146-0.563c0,0,1.255-0.338,1.114-0.932l-0.109-0.912
	c0,0,0.703-6.338-0.25-8.307c0,0-0.722-1.717-3.048-3.21l0.783-0.056c0,0,1.094-0.328,0.875-0.969c0,0-0.078-0.563-1.047-0.75
	s-0.063-0.016-0.063-0.016l-1.813,0.047l-0.146,0.104l-3.418-4.198l-0.469-0.047L115.188,12.594z"/>
<path fill="#B92025" d="M189.647,19.104l0.167,8.667l-6.084,0.021c0,0,2.98,2.396,1.646,5.667c0,0-2.416,4.375-6.375,1.75
	c0,0-3.479-2.146-1.292-6.021l0.771-1.208l-6.291,0.042l0.125-8.75l-1.042,0.958l-0.729-1.354l10.938-7.917l10.875,8.021
	l-1.25,1.333L189.647,19.104z"/>
<path fill="#B92025" d="M241.438,9.75c0,0-2.188,0.156-2.188,1.188l-0.063,1.25l-1.219,0.688c0,0-1.5-1.156-3.531-0.188
	c0,0-0.563,0.313-0.438,1.656l-0.031,0.313l-3.625,1.594V28.97l10.813,5.594l10.281-5.719l-0.313-11.875L251,16.938l-2.703-1.303
	l-0.047-1.541l0.125-0.531c0,0-0.438-1.125-2.471-0.969l-1.404,0.469l-1.125-0.75l-0.063-1.656
	C243.313,10.656,243.25,10,241.438,9.75z"/>
<g>
	<path fill="#FFFFFF" d="M69.214,15.712v-3.18H59.32v3.18H51.9v16.251h24.731V15.712H69.214z M60.096,13.307h8.41v2.405h-8.41
		V13.307z M75.927,16.418v4.593h-8.834V19.99c0-0.138-0.396-0.463-0.547-0.463H61.85c-0.152,0-0.409,0.325-0.409,0.463v1.021h-8.833
		v-4.593H75.927z M66.386,20.367v1.991c0,0.1-0.008,0.066-0.12,0.066H62.55c-0.111,0-0.403,0.034-0.403-0.066v-1.991
		c0-0.1,0.292-0.063,0.403-0.063h3.716C66.379,20.305,66.386,20.267,66.386,20.367z M52.608,31.256v-9.539h8.833v1.016
		c0,0.139,0.257,0.397,0.409,0.397h5.116c0.151,0,0.126-0.258,0.126-0.397v-1.016h8.834v9.539H52.608z"/>
</g>
<g>
	<g>
		<g>
			<path fill="#FFFFFF" d="M112.222,32.721h-2.042c-0.619,0-1.165-0.396-1.358-0.983c-0.037-0.118-0.013-0.248,0.068-0.342
				c0.083-0.094,0.206-0.139,0.329-0.118c1.242,0.213,3.314,0.55,3.592,0.55h0.001c0.272,0,0.408,0.188,0.408,0.363
				C113.22,32.681,112.232,32.721,112.222,32.721z"/>
		</g>
	</g>
	<g>
		<g>
			<path fill="#FFFFFF" d="M133.442,32.721h-2.041c-0.01,0-0.988-0.121-0.988-0.602c0-0.195,0.193-0.368,0.395-0.368l0,0
				c0.298,0,2.369-0.315,3.605-0.515c0.125-0.019,0.247,0.026,0.325,0.12c0.081,0.094,0.105,0.224,0.066,0.341
				C134.606,32.299,134.046,32.721,133.442,32.721z"/>
		</g>
	</g>
	<g>
		<g>
			<path fill="#FFFFFF" d="M114.236,32.64c-0.008,0-0.015,0-0.021-0.001c-2.326-0.136-6.281-0.518-6.628-1.558
				c-0.026-0.076-0.024-0.159,0.003-0.234l0.336-0.911c-0.188-0.663-1.022-3.921-0.378-7.413c0.013-0.099,0.403-2.877,3.502-4.547
				c0.017-0.008,0.034-0.016,0.052-0.025h-1.137c-0.248-0.019-0.688-0.181-0.765-0.668c-0.021-0.131,0.032-0.262,0.142-0.341
				l0.645-0.475c0.063-0.045,0.14-0.069,0.211-0.069h1.701c0.125,0,0.238,0.065,0.303,0.166l2.856-3.821
				c0.067-0.09,0.173-0.142,0.284-0.142h12.137c0.108,0,0.21,0.049,0.277,0.133l3.271,4.12c0.065-0.097,0.177-0.157,0.294-0.157
				h1.854c0.047,0,0.094,0.01,0.137,0.028c0.332,0.14,0.879,0.442,0.836,0.895c-0.038,0.413-0.563,0.718-0.787,0.83
				c-0.049,0.024-0.102,0.037-0.154,0.038l-0.77,0.005c0.042,0.027,0.087,0.055,0.133,0.085c0.756,0.472,3.229,2.207,3.363,4.695
				c0.013,0.137,0.328,3.676-0.197,6.737l0.153,1.017c0.015,0.101-0.014,0.204-0.08,0.282c-0.142,0.168-1.121,1.016-6.407,1.226
				c-0.045,0.003-0.082-0.003-0.121-0.016l-1.586-0.495l-11.441,0.054l-1.914,0.55C114.302,32.635,114.269,32.64,114.236,32.64z
				 M108.319,30.922c0.47,0.387,3.051,0.836,5.877,1.005l1.904-0.547c0.03-0.009,0.063-0.014,0.096-0.014l11.555-0.054l0,0
				c0.035,0,0.068,0.005,0.104,0.016l1.579,0.493c3.981-0.164,5.339-0.702,5.721-0.909l-0.128-0.855
				c-0.006-0.038-0.006-0.077,0.001-0.114c0.522-2.979,0.2-6.583,0.197-6.62c-0.122-2.215-2.546-3.842-3.032-4.146
				c-0.869-0.545-1.087-0.743-1.133-0.791c-0.1-0.104-0.127-0.255-0.071-0.386c0.021-0.051,0.058-0.095,0.098-0.13
				c-0.071-0.013-0.142-0.047-0.188-0.101l-0.202-0.206l-3.384-4.255h-11.79l-2.965,3.962c-0.045,0.061-0.109,0.106-0.182,0.128
				l-0.153,0.045c0.03,0.063,0.04,0.134,0.03,0.205c-0.091,0.599-0.813,0.929-0.895,0.965c-2.753,1.486-3.104,3.995-3.107,4.021
				c-0.681,3.672,0.379,7.176,0.391,7.211c0.021,0.074,0.021,0.154-0.006,0.227L108.319,30.922z M131.385,17.786l0.344,0.001
				l1.382-0.01c0.107-0.061,0.217-0.136,0.28-0.196c-0.071-0.055-0.188-0.124-0.293-0.176h-1.529l-0.09,0.242
				C131.459,17.701,131.427,17.748,131.385,17.786z M110.315,17.107l-0.184,0.135l1.478-0.001c-0.003-0.013-0.006-0.027-0.008-0.04
				l-0.013-0.094H110.315z"/>
		</g>
	</g>
	<g>
		<g>
			<path fill="#FFFFFF" d="M130.052,18.636c-0.001,0-0.002,0-0.004,0l-17.08-0.202c-0.133-0.001-0.253-0.077-0.313-0.196
				c-0.059-0.118-0.047-0.261,0.031-0.368l2.984-4.083c0.063-0.091,0.172-0.146,0.287-0.146h10.885c0.109,0,0.217,0.053,0.283,0.142
				l3.17,4.232c0.072,0.065,0.12,0.16,0.12,0.267c0,0.196-0.157,0.354-0.354,0.354C130.059,18.637,130.055,18.637,130.052,18.636z
				 M113.665,17.732l15.672,0.186l-2.672-3.568h-10.527L113.665,17.732z"/>
		</g>
	</g>
	<g>
		<g>
			<path fill="#FFFFFF" d="M113.815,25.521c-0.014,0-0.029-0.001-0.045-0.003l-4.432-0.583l-0.545,0.129
				c-0.105,0.025-0.223,0-0.308-0.068l-0.535-0.431c-0.106-0.086-0.153-0.227-0.12-0.361l0.568-2.345
				c0.022-0.094,0.084-0.175,0.167-0.223c0.084-0.048,0.187-0.063,0.276-0.034l4.764,1.379c0.131,0.038,0.229,0.148,0.252,0.283
				l0.307,1.844c0.02,0.111-0.02,0.224-0.098,0.305C114.003,25.483,113.91,25.521,113.815,25.521z M109.32,24.221
				c0.02,0,0.031,0.001,0.048,0.003l4.021,0.529l-0.188-1.152l-4.19-1.214l-0.435,1.766l0.229,0.181l0.438-0.104
				C109.266,24.224,109.294,24.221,109.32,24.221z"/>
		</g>
	</g>
	<g>
		<g>
			<path fill="#FFFFFF" d="M129.88,25.521c-0.1,0-0.188-0.039-0.256-0.108c-0.078-0.081-0.113-0.194-0.099-0.305l0.308-1.844
				c0.021-0.134,0.117-0.244,0.25-0.283l4.651-1.378c0.097-0.028,0.193-0.016,0.278,0.033c0.084,0.048,0.146,0.129,0.168,0.223
				l0.572,2.345c0.032,0.134-0.02,0.275-0.121,0.361l-0.539,0.431c-0.085,0.068-0.197,0.093-0.303,0.068l-0.545-0.129l-4.322,0.583
				C129.91,25.521,129.895,25.521,129.88,25.521z M130.498,23.599l-0.19,1.152l3.912-0.526c0.043-0.006,0.085-0.004,0.127,0.006
				l0.44,0.104l0.228-0.181l-0.432-1.764L130.498,23.599z"/>
		</g>
	</g>
	<g>
		<g>
			<path fill="#FFFFFF" d="M114.067,31.789c-0.014,0-0.021,0-0.039-0.002c-5.289-0.576-5.545-1.05-5.629-1.206
				c-0.015-0.027-0.021-0.056-0.031-0.085c-0.01-0.035-0.203-0.868-0.438-2.89c-0.014-0.12,0.034-0.238,0.128-0.315
				c0.093-0.076,0.219-0.1,0.333-0.063l5.122,1.648c0.06,0.019,0.113,0.053,0.154,0.1l1.521,1.684
				c0.069,0.078,0.104,0.183,0.088,0.287c-0.016,0.104-0.072,0.196-0.164,0.252l-0.855,0.537
				C114.197,31.771,114.133,31.789,114.067,31.789z M109.031,30.219c0.483,0.241,2.86,0.617,4.95,0.849l0.396-0.248l-1.176-1.298
				l-4.508-1.449C108.852,29.29,108.981,29.969,109.031,30.219z"/>
		</g>
	</g>
	<g>
		<g>
			<path fill="#FFFFFF" d="M129.557,31.789c-0.064,0-0.133-0.018-0.188-0.054l-0.856-0.538c-0.089-0.056-0.149-0.148-0.163-0.251
				c-0.015-0.104,0.02-0.209,0.088-0.287l1.521-1.684c0.042-0.046,0.095-0.081,0.15-0.1l5.123-1.648
				c0.113-0.038,0.239-0.013,0.333,0.063c0.095,0.077,0.146,0.195,0.127,0.315c-0.229,2.021-0.43,2.855-0.437,2.89
				c-0.009,0.03-0.021,0.059-0.033,0.085c-0.084,0.155-0.34,0.63-5.628,1.206C129.582,31.789,129.569,31.789,129.557,31.789z
				 M129.243,30.821l0.396,0.248c2.089-0.232,4.467-0.608,4.949-0.849c0.052-0.25,0.181-0.93,0.333-2.146l-4.504,1.449
				L129.243,30.821z"/>
		</g>
	</g>
	<g>
		<g>
			<path fill="#FFFFFF" d="M127.175,31.646L127.175,31.646l-10.71-0.036c-0.079,0-0.155-0.027-0.216-0.075l-0.88-0.681
				c-0.068-0.055-0.115-0.133-0.134-0.221l-1.199-7.056c-0.021-0.142,0.041-0.285,0.16-0.361l1.006-0.626
				c0.059-0.036,0.115-0.061,0.188-0.054l13.196,0.036c0.083,0,0.163,0.029,0.228,0.082l0.858,0.717
				c0.099,0.083,0.146,0.211,0.122,0.338l-1.36,7.27c-0.021,0.118-0.103,0.217-0.214,0.263l-0.914,0.376
				C127.267,31.637,127.221,31.646,127.175,31.646z M116.589,30.901l10.517,0.035l0.67-0.276l1.286-6.876l-0.601-0.501l-12.97-0.035
				l-0.717,0.446l1.141,6.685L116.589,30.901z"/>
		</g>
	</g>
</g>
<g>
	<g>
		<g>
			<polygon fill="#FFFFFF" points="241.008,35.172 229.84,29.273 229.84,16.029 233.881,14.174 234.272,15.031 230.84,16.631 
				230.84,28.706 241,34.095 250.84,28.71 250.84,17.061 248.297,15.634 248.801,14.811 251.84,16.508 251.84,29.269 			"/>
		</g>
	</g>
	<g>
		<g>
			
				<rect x="243.273" y="12.346" transform="matrix(0.8661 0.4999 -0.4999 0.8661 39.0291 -120.2765)" fill="#FFFFFF" width="1.423" height="0.711"/>
		</g>
	</g>
	<g>
		<g>
			
				<rect x="238.254" y="11.788" transform="matrix(0.445 0.8955 -0.8955 0.445 143.633 -206.7338)" fill="#FFFFFF" width="0.711" height="1.456"/>
		</g>
	</g>
	<g>
		<g>
			<polygon fill="#FFFFFF" points="241.17,22.86 230.444,16.637 230.801,16.023 241.174,22.042 250.912,16.497 251.266,17.113 			
				"/>
		</g>
	</g>
	<g>
		<g>
			<rect x="240.84" y="22" fill="#FFFFFF" width="1" height="13"/>
		</g>
	</g>
	<g>
		<g>
			<g>
				<path fill="#FFFFFF" d="M236.129,14.433c-1.311,0-2.293-0.498-2.293-1.159s0.982-1.159,2.293-1.159
					c1.307,0,2.295,0.498,2.295,1.159S237.436,14.433,236.129,14.433z M236.129,12.537c-1.061,0-1.85,0.39-1.85,0.737
					c0,0.347,0.789,0.737,1.85,0.737c1.057,0,1.846-0.389,1.846-0.737C237.975,12.926,237.186,12.537,236.129,12.537z"/>
			</g>
		</g>
	</g>
	<g>
		<g>
			<g>
				<path fill="#FFFFFF" d="M238.405,16.295c0,0.66-0.992,1.158-2.287,1.158c-1.299,0-2.271-0.499-2.271-1.159h0.441
					c0,0.348,0.781,0.736,1.83,0.736c1.047,0,1.826-0.389,1.826-0.736L238.405,16.295z"/>
			</g>
		</g>
	</g>
	<g>
		<g>
			<g>
				<rect x="237.944" y="13.387" fill="#FFFFFF" width="0.471" height="2.914"/>
			</g>
		</g>
	</g>
	<g>
		<g>
			<g>
				<rect x="233.842" y="13.341" fill="#FFFFFF" width="0.436" height="2.96"/>
			</g>
		</g>
	</g>
	<g>
		<g>
			<g>
				<path fill="#FFFFFF" d="M246.362,14.715c-1.307,0-2.295-0.499-2.295-1.159c0-0.66,0.988-1.159,2.295-1.159
					c1.311,0,2.295,0.499,2.295,1.159C248.656,14.216,247.67,14.715,246.362,14.715z M246.362,12.818
					c-1.057,0-1.846,0.39-1.846,0.737c0,0.348,0.789,0.737,1.846,0.737c1.059,0,1.85-0.389,1.85-0.737
					C248.207,13.208,247.418,12.818,246.362,12.818z"/>
			</g>
		</g>
	</g>
	<g>
		<g>
			<g>
				<path fill="#FFFFFF" d="M248.637,16.576c0,0.661-0.992,1.158-2.289,1.158c-1.295,0-2.271-0.498-2.271-1.159h0.441
					c0,0.348,0.783,0.737,1.828,0.737c1.047,0,1.83-0.389,1.83-0.737L248.637,16.576z"/>
			</g>
		</g>
	</g>
	<g>
		<g>
			<g>
				<rect x="248.176" y="13.669" fill="#FFFFFF" width="0.469" height="2.914"/>
			</g>
		</g>
	</g>
	<g>
		<g>
			<g>
				<rect x="244.074" y="13.623" fill="#FFFFFF" width="0.438" height="2.96"/>
			</g>
		</g>
	</g>
	<g>
		<g>
			<g>
				<path fill="#FFFFFF" d="M241.317,17.687c-1.309,0-2.295-0.499-2.295-1.159c0-0.66,0.986-1.159,2.295-1.159
					c1.311,0,2.293,0.499,2.293,1.159C243.61,17.188,242.623,17.687,241.317,17.687z M241.317,15.791
					c-1.057,0-1.848,0.389-1.848,0.737c0,0.348,0.791,0.737,1.848,0.737c1.059,0,1.848-0.389,1.848-0.737
					C243.162,16.18,242.371,15.791,241.317,15.791z"/>
			</g>
		</g>
	</g>
	<g>
		<g>
			<g>
				<path fill="#FFFFFF" d="M243.59,19.548c0,0.66-0.992,1.158-2.287,1.158c-1.297,0-2.273-0.499-2.273-1.159h0.443
					c0,0.348,0.783,0.737,1.83,0.737s1.828-0.389,1.828-0.737L243.59,19.548z"/>
			</g>
		</g>
	</g>
	<g>
		<g>
			<g>
				<rect x="243.129" y="16.641" fill="#FFFFFF" width="0.469" height="2.914"/>
			</g>
		</g>
	</g>
	<g>
		<g>
			<g>
				<rect x="239.03" y="16.594" fill="#FFFFFF" width="0.438" height="2.96"/>
			</g>
		</g>
	</g>
	<g>
		<g>
			<g>
				<path fill="#FFFFFF" d="M241.317,11.955c-1.309,0-2.295-0.498-2.295-1.159c0-0.661,0.986-1.159,2.295-1.159
					c1.311,0,2.293,0.498,2.293,1.159C243.61,11.457,242.623,11.955,241.317,11.955z M241.317,10.059
					c-1.057,0-1.848,0.39-1.848,0.737c0,0.348,0.791,0.737,1.848,0.737c1.059,0,1.848-0.389,1.848-0.737
					C243.16,10.448,242.371,10.059,241.317,10.059z"/>
			</g>
		</g>
	</g>
	<g>
		<g>
			<g>
				<path fill="#FFFFFF" d="M243.59,13.816c0,0.661-0.992,1.158-2.287,1.158c-1.297,0-2.273-0.498-2.273-1.159h0.443
					c0,0.348,0.783,0.737,1.83,0.737s1.828-0.389,1.828-0.737L243.59,13.816z"/>
			</g>
		</g>
	</g>
	<g>
		<g>
			<g>
				<rect x="243.129" y="10.909" fill="#FFFFFF" width="0.469" height="2.914"/>
			</g>
		</g>
	</g>
	<g>
		<g>
			<g>
				<rect x="239.03" y="10.862" fill="#FFFFFF" width="0.438" height="2.96"/>
			</g>
		</g>
	</g>
</g>
<g>
	<path fill="#FFFFFF" d="M51.16,37.405h3.141v0.609h-2.455v1.887h2.249v0.609h-2.249v2.051h2.495v0.609H51.16V37.405z"/>
	<path fill="#FFFFFF" d="M57.924,43.171V40.84c0-0.22-0.012-0.411-0.029-0.573c-0.017-0.162-0.056-0.298-0.108-0.408
		c-0.058-0.11-0.136-0.192-0.233-0.247c-0.104-0.055-0.234-0.083-0.399-0.083c-0.253,0-0.463,0.077-0.63,0.231
		c-0.168,0.154-0.284,0.346-0.351,0.577v2.833h-0.66v-4.119h0.462l0.123,0.502h0.033c0.146-0.176,0.316-0.32,0.515-0.433
		c0.195-0.112,0.449-0.168,0.765-0.168c0.265,0,0.479,0.051,0.646,0.152c0.167,0.102,0.298,0.279,0.391,0.531
		c0.128-0.214,0.303-0.382,0.523-0.502c0.223-0.121,0.474-0.181,0.754-0.181c0.229,0,0.425,0.026,0.585,0.078
		c0.159,0.052,0.291,0.144,0.396,0.276c0.104,0.132,0.183,0.31,0.229,0.536c0.047,0.225,0.07,0.51,0.07,0.854v2.471H60.34V40.69
		c0-0.198-0.012-0.369-0.028-0.515c-0.02-0.146-0.058-0.269-0.115-0.363c-0.058-0.096-0.138-0.167-0.235-0.214
		c-0.104-0.047-0.234-0.07-0.399-0.07c-0.272,0-0.489,0.077-0.643,0.231c-0.154,0.154-0.268,0.374-0.329,0.659v2.751h-0.662v0.002
		H57.924z"/>
	<path fill="#FFFFFF" d="M62.197,39.053h0.453l0.124,0.494h0.033c0.126-0.192,0.289-0.339,0.49-0.44
		c0.2-0.102,0.429-0.152,0.688-0.152c0.551,0,0.958,0.162,1.229,0.486c0.269,0.324,0.399,0.854,0.399,1.59
		c0,0.346-0.045,0.658-0.136,0.938c-0.091,0.277-0.219,0.512-0.383,0.704c-0.165,0.192-0.364,0.34-0.598,0.445
		c-0.234,0.105-0.493,0.156-0.778,0.156c-0.203,0-0.364-0.012-0.481-0.037c-0.114-0.025-0.244-0.067-0.384-0.128v1.713h-0.659
		L62.197,39.053L62.197,39.053z M63.861,39.53c-0.275,0-0.501,0.073-0.663,0.219c-0.16,0.146-0.271,0.366-0.342,0.663v2.042
		c0.104,0.077,0.212,0.136,0.338,0.177s0.294,0.062,0.503,0.062c0.381,0,0.684-0.142,0.901-0.424
		c0.223-0.283,0.334-0.699,0.334-1.248c0-0.225-0.021-0.43-0.058-0.614c-0.039-0.184-0.104-0.34-0.188-0.469
		s-0.193-0.229-0.329-0.301C64.226,39.566,64.06,39.53,63.861,39.53z"/>
	<path fill="#FFFFFF" d="M67.387,42.158c0,0.192,0.033,0.33,0.099,0.412c0.066,0.083,0.159,0.124,0.28,0.124
		c0.071,0,0.148-0.006,0.229-0.017c0.083-0.011,0.178-0.036,0.278-0.074l0.074,0.519c-0.088,0.044-0.21,0.08-0.366,0.107
		c-0.155,0.027-0.293,0.041-0.406,0.041c-0.247,0-0.448-0.07-0.607-0.21s-0.239-0.377-0.239-0.712v-4.942h0.659L67.387,42.158
		L67.387,42.158z"/>
	<path fill="#FFFFFF" d="M72.066,42.842c-0.164,0.132-0.372,0.236-0.622,0.313c-0.25,0.077-0.515,0.115-0.795,0.115
		c-0.313,0-0.584-0.051-0.813-0.152c-0.23-0.102-0.42-0.247-0.568-0.437c-0.146-0.189-0.258-0.416-0.329-0.68
		c-0.069-0.263-0.104-0.56-0.104-0.89c0-0.703,0.154-1.238,0.471-1.606c0.313-0.368,0.761-0.552,1.343-0.552
		c0.188,0,0.373,0.021,0.563,0.062c0.188,0.041,0.354,0.12,0.503,0.235c0.146,0.115,0.27,0.279,0.358,0.49
		c0.097,0.211,0.145,0.49,0.145,0.836c0,0.181-0.021,0.382-0.052,0.601h-2.646c0,0.242,0.025,0.456,0.074,0.643
		c0.05,0.187,0.127,0.345,0.229,0.474c0.104,0.129,0.239,0.228,0.407,0.297c0.167,0.068,0.372,0.103,0.613,0.103
		c0.188,0,0.374-0.033,0.561-0.099c0.188-0.066,0.327-0.143,0.42-0.23L72.066,42.842z M70.649,39.53
		c-0.321,0-0.583,0.085-0.776,0.255c-0.192,0.17-0.313,0.461-0.352,0.874h2.043c0-0.417-0.08-0.71-0.237-0.877
		C71.168,39.615,70.94,39.53,70.649,39.53z"/>
	<path fill="#FFFFFF" d="M72.924,41.112c0-0.697,0.153-1.231,0.466-1.602c0.313-0.371,0.756-0.556,1.339-0.556
		c0.309,0,0.575,0.051,0.805,0.152c0.229,0.101,0.414,0.247,0.563,0.437c0.146,0.19,0.258,0.417,0.329,0.684
		c0.069,0.267,0.104,0.562,0.104,0.885c0,0.698-0.151,1.232-0.466,1.603c-0.311,0.371-0.756,0.556-1.338,0.556
		c-0.308,0-0.576-0.051-0.804-0.152c-0.229-0.101-0.416-0.247-0.564-0.437c-0.146-0.189-0.258-0.417-0.329-0.684
		C72.96,41.731,72.924,41.436,72.924,41.112z M73.607,41.112c0,0.209,0.021,0.409,0.063,0.602c0.041,0.192,0.104,0.36,0.189,0.502
		c0.09,0.143,0.203,0.258,0.35,0.346c0.143,0.088,0.313,0.132,0.52,0.132c0.746,0.005,1.12-0.522,1.12-1.582
		c0-0.214-0.021-0.417-0.063-0.609c-0.041-0.192-0.104-0.359-0.191-0.502s-0.203-0.257-0.346-0.342
		c-0.146-0.085-0.315-0.128-0.521-0.128C73.981,39.525,73.607,40.052,73.607,41.112z"/>
</g>
<g>
	<path fill="#FFFFFF" d="M233.658,41.367l0.197,0.874h0.008l0.215-0.89l1.395-3.946h0.686l-2.184,5.857h-0.305l-2.229-5.857h0.75
		L233.658,41.367z"/>
	<path fill="#FFFFFF" d="M236.295,39.357c0.209-0.126,0.449-0.22,0.729-0.28c0.277-0.061,0.566-0.091,0.869-0.091
		c0.285,0,0.518,0.039,0.688,0.115c0.174,0.077,0.305,0.177,0.396,0.301c0.09,0.124,0.15,0.259,0.18,0.408
		c0.031,0.149,0.049,0.296,0.049,0.445c0,0.33-0.012,0.651-0.023,0.964c-0.018,0.313-0.024,0.609-0.024,0.89
		c0,0.203,0.009,0.396,0.024,0.577s0.047,0.349,0.09,0.502h-0.484l-0.174-0.577h-0.041c-0.051,0.077-0.107,0.152-0.186,0.227
		c-0.076,0.075-0.164,0.14-0.27,0.198c-0.104,0.058-0.229,0.105-0.361,0.144c-0.139,0.038-0.293,0.058-0.471,0.058
		s-0.342-0.027-0.488-0.083c-0.15-0.055-0.281-0.133-0.395-0.235c-0.107-0.102-0.193-0.224-0.26-0.366
		c-0.063-0.143-0.096-0.305-0.096-0.486c0-0.241,0.051-0.443,0.146-0.605c0.104-0.162,0.238-0.291,0.416-0.387
		c0.182-0.096,0.396-0.165,0.646-0.206c0.25-0.042,0.521-0.062,0.828-0.062c0.072,0,0.148,0,0.227,0s0.148,0.006,0.229,0.017
		c0.018-0.165,0.023-0.313,0.023-0.445c0-0.302-0.061-0.513-0.182-0.634s-0.344-0.181-0.66-0.181c-0.092,0-0.193,0.007-0.301,0.021
		c-0.105,0.014-0.219,0.034-0.328,0.06c-0.113,0.026-0.223,0.057-0.322,0.093c-0.1,0.036-0.188,0.078-0.268,0.123L236.295,39.357z
		 M237.465,42.661c0.152,0,0.291-0.021,0.412-0.062c0.121-0.042,0.225-0.094,0.313-0.157s0.162-0.133,0.221-0.21
		c0.061-0.077,0.102-0.151,0.127-0.223v-0.686c-0.074-0.005-0.152-0.009-0.232-0.012s-0.158-0.004-0.234-0.004
		c-0.17,0-0.336,0.01-0.498,0.029c-0.16,0.02-0.305,0.055-0.428,0.107c-0.125,0.052-0.223,0.124-0.297,0.214
		c-0.074,0.091-0.111,0.205-0.111,0.342c0,0.192,0.068,0.35,0.205,0.474C237.074,42.599,237.25,42.661,237.465,42.661z"/>
	<path fill="#FFFFFF" d="M242.391,39.687c-0.164-0.055-0.32-0.083-0.469-0.083c-0.236,0-0.424,0.065-0.563,0.194
		c-0.137,0.129-0.223,0.292-0.256,0.49v2.883h-0.658v-4.119h0.461l0.123,0.502h0.033c0.105-0.188,0.23-0.331,0.375-0.433
		c0.146-0.102,0.332-0.152,0.559-0.152c0.156,0,0.34,0.028,0.533,0.083L242.391,39.687z"/>
	<path fill="#FFFFFF" d="M243.248,37.801c0-0.126,0.043-0.235,0.127-0.326c0.086-0.09,0.189-0.136,0.324-0.136
		c0.133,0,0.242,0.045,0.338,0.136c0.096,0.091,0.143,0.199,0.143,0.326c0,0.127-0.047,0.229-0.143,0.313
		c-0.096,0.083-0.205,0.124-0.338,0.124c-0.135,0-0.238-0.041-0.324-0.124C243.291,38.031,243.248,37.927,243.248,37.801z
		 M243.389,39.053h0.658v4.119h-0.658V39.053z"/>
	<path fill="#FFFFFF" d="M245.225,41.112c0-0.697,0.154-1.231,0.465-1.602c0.313-0.371,0.756-0.556,1.34-0.556
		c0.311,0,0.574,0.051,0.807,0.152c0.227,0.101,0.416,0.247,0.563,0.437c0.148,0.19,0.258,0.417,0.328,0.684
		c0.072,0.267,0.107,0.562,0.107,0.885c0,0.698-0.154,1.232-0.467,1.603c-0.313,0.371-0.758,0.556-1.34,0.556
		c-0.309,0-0.574-0.051-0.805-0.152c-0.229-0.101-0.416-0.247-0.563-0.437c-0.146-0.189-0.26-0.417-0.326-0.684
		C245.26,41.731,245.225,41.436,245.225,41.112z M245.906,41.112c0,0.209,0.021,0.409,0.064,0.602
		c0.041,0.192,0.104,0.36,0.191,0.502c0.09,0.143,0.201,0.258,0.348,0.346c0.143,0.088,0.313,0.132,0.52,0.132
		c0.746,0.005,1.119-0.522,1.119-1.582c0-0.214-0.02-0.417-0.063-0.609c-0.041-0.192-0.105-0.359-0.193-0.502
		s-0.203-0.257-0.346-0.342c-0.146-0.085-0.314-0.128-0.521-0.128C246.281,39.525,245.906,40.052,245.906,41.112z"/>
	<path fill="#FFFFFF" d="M251.682,42.051c0-0.165-0.049-0.294-0.146-0.387c-0.1-0.093-0.223-0.172-0.363-0.235
		c-0.146-0.063-0.309-0.124-0.48-0.181s-0.332-0.132-0.477-0.223c-0.146-0.09-0.271-0.207-0.367-0.35
		c-0.102-0.145-0.146-0.334-0.146-0.577c0-0.395,0.111-0.685,0.338-0.869s0.537-0.276,0.938-0.276c0.295,0,0.545,0.026,0.744,0.078
		c0.201,0.052,0.375,0.114,0.521,0.185l-0.154,0.544c-0.127-0.063-0.279-0.114-0.457-0.161c-0.18-0.047-0.369-0.07-0.572-0.07
		c-0.242,0-0.42,0.042-0.531,0.124c-0.111,0.083-0.17,0.226-0.17,0.429c0,0.143,0.052,0.254,0.148,0.333s0.221,0.151,0.365,0.214
		c0.146,0.063,0.307,0.125,0.479,0.185c0.174,0.061,0.332,0.14,0.479,0.239c0.146,0.099,0.27,0.224,0.363,0.375
		c0.102,0.151,0.148,0.35,0.148,0.597c0,0.176-0.029,0.341-0.086,0.494c-0.063,0.154-0.146,0.286-0.271,0.396
		c-0.121,0.11-0.271,0.196-0.447,0.259c-0.18,0.063-0.391,0.095-0.633,0.095c-0.313,0-0.576-0.03-0.799-0.09
		c-0.219-0.061-0.4-0.132-0.551-0.214l0.197-0.56c0.127,0.071,0.291,0.137,0.492,0.198s0.406,0.091,0.615,0.091
		c0.236,0,0.436-0.047,0.586-0.14C251.604,42.461,251.682,42.293,251.682,42.051z"/>
</g>
<g>
	<g>
		<g>
			<path fill="#FFFFFF" d="M181.334,36.391c-2.625,0-4.766-2.141-4.766-4.773c0-1.178,0.459-2.293,1.266-3.168h-6.063v-8.022
				l-0.438,0.445l-1.285-1.96l11.48-8.462l11.479,8.511l-1.748,1.812l-1.131-0.674v8.047l-5.518,0.088
				c0.938,0.904,1.479,2.112,1.479,3.39C186.094,34.251,183.959,36.391,181.334,36.391z M179.047,28.449
				c-1.039,0.775-1.658,1.933-1.658,3.168c0,2.182,1.771,3.958,3.945,3.958s3.941-1.771,3.941-3.954
				c0-1.345-0.734-2.599-1.953-3.369l-0.428,0.007l-0.004-0.25l-0.246-0.123l0.074-0.503l0.828-0.993l-1.154-0.002v-9.391
				l-0.889-0.901l-1.279,1.292v0.643l0.764,1.117l-1.32,1.291v0.326l1.32,1.361l-1.072,1.238l0.684,0.652v2.186h-1.428l0.758,1.168
				l0.084,0.514l-0.27,0.135c-0.229,0.113-0.438,0.241-0.635,0.382v0.049L179.047,28.449L179.047,28.449z M172.586,27.633h6.201
				c0.076-0.053,0.156-0.104,0.238-0.153l-0.752-1.158c-0.104-0.168-0.176-0.425-0.053-0.648c0.059-0.107,0.209-0.288,0.553-0.288
				h1.01v-1.021l-0.996-0.949l1.098-1.26l-1.033-1.061v-1.002l1.08-1.052l-0.521-0.757v-1.23l2.1-2.116l1.703,1.726v8.909h0.639
				c0.236,0.008,0.52,0.11,0.641,0.375c0.111,0.249,0.045,0.53-0.205,0.836l-0.535,0.646l5.563-0.089V18.66l1.811,1.079l0.652-0.678
				l-10.244-7.598l-10.375,7.646l0.307,0.466l1.127-1.15L172.586,27.633L172.586,27.633z"/>
		</g>
	</g>
	<g>
		<g>
			<path fill="#FFFFFF" d="M181.416,35.524c-0.814,0-1.479-0.663-1.479-1.477c0-0.815,0.662-1.478,1.479-1.478
				c0.813,0,1.477,0.663,1.477,1.478S182.231,35.524,181.416,35.524z M181.416,33.182c-0.479,0-0.865,0.388-0.865,0.866
				c0,0.477,0.389,0.866,0.865,0.866c0.479,0,0.861-0.389,0.861-0.866C182.28,33.57,181.895,33.182,181.416,33.182z"/>
		</g>
	</g>
</g>
<g>
	<path fill="#FFFFFF" d="M166.494,37.739h3.141v0.609h-2.455v1.969h2.289v0.61h-2.289v2.578h-0.686V37.739L166.494,37.739z"/>
	<path fill="#FFFFFF" d="M170.688,38.134c0-0.126,0.043-0.235,0.127-0.326c0.086-0.09,0.193-0.136,0.326-0.136
		c0.131,0,0.244,0.045,0.338,0.136c0.094,0.091,0.143,0.199,0.143,0.326c0,0.127-0.049,0.229-0.143,0.313
		c-0.094,0.083-0.207,0.124-0.338,0.124c-0.133,0-0.24-0.041-0.326-0.124C170.731,38.364,170.688,38.261,170.688,38.134z
		 M170.826,39.386h0.658v4.119h-0.658V39.386z"/>
	<path fill="#FFFFFF" d="M175.537,43.505v-2.348c0-0.428-0.063-0.751-0.188-0.968c-0.123-0.217-0.35-0.326-0.68-0.326
		c-0.291,0-0.531,0.079-0.725,0.235c-0.188,0.157-0.318,0.353-0.396,0.589v2.817h-0.66v-4.119h0.463l0.123,0.502h0.033
		c0.131-0.176,0.309-0.32,0.531-0.433c0.223-0.112,0.482-0.168,0.795-0.168c0.225,0,0.422,0.026,0.592,0.078
		c0.172,0.052,0.313,0.146,0.426,0.276c0.111,0.131,0.197,0.309,0.254,0.531c0.063,0.223,0.088,0.504,0.088,0.844v2.488h-0.656
		L175.537,43.505L175.537,43.505z"/>
	<path fill="#FFFFFF" d="M180.209,43.233c-0.164,0.121-0.359,0.213-0.584,0.276c-0.229,0.063-0.463,0.095-0.709,0.095
		c-0.318,0-0.59-0.051-0.811-0.152s-0.396-0.247-0.541-0.437c-0.139-0.189-0.238-0.417-0.305-0.684
		c-0.063-0.266-0.094-0.562-0.094-0.886c0-0.697,0.15-1.231,0.461-1.602c0.309-0.371,0.75-0.556,1.326-0.556
		c0.264,0,0.484,0.021,0.672,0.062c0.184,0.041,0.35,0.1,0.498,0.177l-0.189,0.568c-0.127-0.071-0.266-0.128-0.42-0.169
		s-0.318-0.063-0.494-0.063c-0.777,0-1.17,0.527-1.17,1.582c0,0.209,0.021,0.408,0.063,0.598c0.041,0.189,0.105,0.357,0.205,0.502
		c0.098,0.146,0.223,0.262,0.381,0.35c0.152,0.088,0.35,0.132,0.58,0.132c0.193,0,0.375-0.03,0.527-0.091
		c0.156-0.061,0.283-0.129,0.385-0.206L180.209,43.233z"/>
	<path fill="#FFFFFF" d="M181.049,39.691c0.209-0.126,0.451-0.22,0.729-0.28c0.277-0.061,0.566-0.091,0.869-0.091
		c0.285,0,0.518,0.039,0.688,0.115c0.174,0.077,0.305,0.177,0.396,0.301c0.09,0.124,0.15,0.259,0.182,0.408
		c0.03,0.149,0.049,0.296,0.049,0.445c0,0.33-0.014,0.651-0.025,0.964c-0.016,0.313-0.023,0.609-0.023,0.89
		c0,0.203,0.01,0.396,0.023,0.577c0.015,0.181,0.047,0.349,0.09,0.502h-0.482l-0.174-0.577h-0.041
		c-0.053,0.077-0.109,0.152-0.188,0.227c-0.076,0.075-0.164,0.14-0.27,0.198c-0.104,0.058-0.229,0.105-0.361,0.144
		c-0.139,0.038-0.293,0.058-0.471,0.058s-0.342-0.027-0.488-0.083c-0.15-0.055-0.281-0.133-0.394-0.235
		c-0.108-0.102-0.194-0.224-0.261-0.366c-0.063-0.143-0.096-0.305-0.096-0.486c0-0.241,0.051-0.443,0.146-0.605
		c0.104-0.162,0.238-0.291,0.416-0.387c0.182-0.096,0.396-0.165,0.646-0.206c0.25-0.042,0.521-0.062,0.828-0.062
		c0.074,0,0.148,0,0.227,0s0.148,0.006,0.229,0.017c0.016-0.165,0.021-0.313,0.021-0.445c0-0.302-0.061-0.513-0.182-0.634
		s-0.342-0.181-0.66-0.181c-0.092,0-0.193,0.007-0.301,0.021c-0.105,0.014-0.217,0.034-0.328,0.06
		c-0.113,0.026-0.221,0.057-0.322,0.093c-0.1,0.036-0.188,0.078-0.268,0.123L181.049,39.691z M182.219,42.994
		c0.154,0,0.291-0.021,0.412-0.062c0.121-0.042,0.225-0.094,0.313-0.157s0.162-0.133,0.221-0.21
		c0.061-0.077,0.102-0.151,0.129-0.223V41.66c-0.076-0.005-0.154-0.009-0.234-0.012s-0.158-0.004-0.232-0.004
		c-0.172,0-0.338,0.01-0.498,0.029c-0.162,0.02-0.307,0.055-0.43,0.107c-0.125,0.052-0.223,0.124-0.297,0.214
		c-0.074,0.091-0.109,0.205-0.109,0.342c0,0.192,0.066,0.35,0.203,0.474C181.828,42.933,182.004,42.994,182.219,42.994z"/>
	<path fill="#FFFFFF" d="M187.467,37.796c0.209-0.038,0.449-0.068,0.721-0.091c0.271-0.021,0.521-0.033,0.744-0.033
		c0.254,0,0.494,0.027,0.721,0.083c0.23,0.055,0.434,0.146,0.604,0.271c0.174,0.126,0.313,0.292,0.416,0.495
		c0.103,0.203,0.154,0.45,0.154,0.741c0,0.45-0.123,0.815-0.367,1.096c-0.248,0.28-0.563,0.467-0.939,0.56l0.396,0.305l1.434,2.282
		h-0.799l-1.59-2.488l-0.813-0.124v2.611h-0.684L187.467,37.796L187.467,37.796z M188.948,38.266c-0.066,0-0.145,0-0.221,0
		c-0.078,0-0.15,0.002-0.223,0.008c-0.072,0.005-0.143,0.011-0.203,0.016c-0.063,0.006-0.113,0.014-0.152,0.025v2.125h0.646
		c0.379,0,0.689-0.093,0.938-0.28s0.371-0.478,0.371-0.873c0-0.297-0.102-0.541-0.305-0.733
		C189.594,38.362,189.311,38.266,188.948,38.266z"/>
	<path fill="#FFFFFF" d="M192.153,39.691c0.209-0.126,0.451-0.22,0.73-0.28c0.271-0.061,0.563-0.091,0.867-0.091
		c0.285,0,0.516,0.039,0.688,0.115c0.174,0.077,0.307,0.177,0.396,0.301s0.146,0.259,0.182,0.408
		c0.031,0.149,0.045,0.296,0.045,0.445c0,0.33-0.008,0.651-0.023,0.964c-0.018,0.313-0.021,0.609-0.021,0.89
		c0,0.203,0.008,0.396,0.021,0.577c0.018,0.181,0.049,0.349,0.094,0.502h-0.488l-0.174-0.577h-0.041
		c-0.049,0.077-0.111,0.152-0.188,0.227c-0.07,0.075-0.16,0.14-0.268,0.198s-0.227,0.105-0.361,0.144
		c-0.139,0.038-0.295,0.058-0.471,0.058s-0.338-0.027-0.49-0.083c-0.146-0.055-0.279-0.133-0.391-0.235s-0.195-0.224-0.26-0.366
		c-0.063-0.143-0.098-0.305-0.098-0.486c0-0.241,0.051-0.443,0.148-0.605c0.098-0.162,0.234-0.291,0.416-0.387
		c0.178-0.096,0.393-0.165,0.643-0.206c0.248-0.042,0.525-0.062,0.826-0.062c0.078,0,0.152,0,0.229,0
		c0.072,0,0.146,0.006,0.227,0.017c0.02-0.165,0.025-0.313,0.025-0.445c0-0.302-0.063-0.513-0.186-0.634s-0.34-0.181-0.656-0.181
		c-0.096,0-0.191,0.007-0.303,0.021c-0.104,0.014-0.217,0.034-0.33,0.06c-0.107,0.026-0.219,0.057-0.316,0.093
		c-0.104,0.036-0.191,0.078-0.271,0.123L192.153,39.691z M193.323,42.994c0.152,0,0.291-0.021,0.412-0.062
		c0.119-0.042,0.229-0.094,0.313-0.157c0.088-0.063,0.162-0.133,0.219-0.21c0.061-0.077,0.102-0.151,0.127-0.223V41.66
		c-0.076-0.005-0.154-0.009-0.232-0.012c-0.08-0.003-0.156-0.004-0.232-0.004c-0.17,0-0.336,0.01-0.498,0.029
		c-0.162,0.02-0.305,0.055-0.428,0.107c-0.125,0.052-0.227,0.124-0.299,0.214c-0.072,0.091-0.109,0.205-0.109,0.342
		c0,0.192,0.066,0.35,0.205,0.474C192.932,42.933,193.108,42.994,193.323,42.994z"/>
	<path fill="#FFFFFF" d="M196.444,39.386h0.66v4.119h-0.66V39.386z"/>
	<path fill="#FFFFFF" d="M198.223,42.928l1.904-2.62l0.346-0.346h-2.25v-0.577h2.936v0.577l-1.912,2.644l-0.338,0.321h2.25v0.577
		h-2.936V42.928L198.223,42.928z"/>
</g>
<g>
	<path fill="#FFFFFF" d="M107.993,42.034l0.196,0.874h0.01l0.214-0.89l1.395-3.946h0.686l-2.185,5.857h-0.305l-2.229-5.857h0.75
		L107.993,42.034z"/>
	<path fill="#FFFFFF" d="M113.636,43.509c-0.164,0.132-0.372,0.236-0.622,0.313c-0.25,0.077-0.515,0.115-0.795,0.115
		c-0.313,0-0.584-0.051-0.815-0.152c-0.229-0.102-0.42-0.247-0.564-0.437c-0.147-0.189-0.26-0.416-0.329-0.68
		c-0.071-0.263-0.107-0.56-0.107-0.89c0-0.703,0.157-1.238,0.472-1.606c0.313-0.368,0.763-0.552,1.345-0.552
		c0.187,0,0.373,0.021,0.561,0.062c0.188,0.041,0.354,0.12,0.502,0.235c0.148,0.115,0.271,0.279,0.362,0.49
		c0.094,0.211,0.143,0.49,0.143,0.836c0,0.181-0.019,0.382-0.052,0.601h-2.645c0,0.242,0.021,0.456,0.072,0.643
		c0.052,0.187,0.127,0.345,0.229,0.474c0.104,0.129,0.239,0.228,0.407,0.297c0.167,0.068,0.372,0.103,0.611,0.103
		c0.188,0,0.374-0.033,0.563-0.099c0.188-0.066,0.327-0.143,0.42-0.23L113.636,43.509z M112.219,40.197
		c-0.323,0-0.583,0.085-0.778,0.255c-0.19,0.17-0.312,0.461-0.35,0.874h2.043c0-0.417-0.08-0.71-0.239-0.877
		C112.736,40.282,112.51,40.197,112.219,40.197z"/>
	<path fill="#FFFFFF" d="M117.459,43.838V41.49c0-0.214-0.017-0.402-0.037-0.563c-0.024-0.162-0.07-0.296-0.138-0.403
		c-0.064-0.107-0.153-0.188-0.27-0.243c-0.112-0.055-0.26-0.083-0.438-0.083c-0.261,0-0.49,0.084-0.698,0.251
		c-0.209,0.167-0.348,0.383-0.404,0.646v2.743h-0.659v-5.766h0.659v2.109h0.033c0.143-0.17,0.313-0.306,0.515-0.408
		s0.449-0.152,0.746-0.152c0.23,0,0.433,0.026,0.603,0.078c0.173,0.052,0.313,0.146,0.427,0.276c0.108,0.132,0.19,0.309,0.247,0.531
		c0.052,0.223,0.076,0.504,0.076,0.844v2.488H117.459L117.459,43.838z"/>
	<path fill="#FFFFFF" d="M119.461,39.72h0.657v4.119h-0.657V39.72z"/>
	<path fill="#FFFFFF" d="M124.337,43.566c-0.165,0.121-0.36,0.213-0.585,0.276c-0.229,0.063-0.461,0.095-0.708,0.095
		c-0.319,0-0.588-0.051-0.812-0.152c-0.22-0.101-0.396-0.247-0.54-0.437c-0.14-0.189-0.239-0.417-0.305-0.684
		c-0.063-0.266-0.095-0.562-0.095-0.886c0-0.697,0.15-1.231,0.462-1.602c0.308-0.371,0.749-0.556,1.326-0.556
		c0.264,0,0.483,0.021,0.671,0.062c0.184,0.041,0.351,0.1,0.498,0.177l-0.189,0.568c-0.126-0.071-0.266-0.128-0.42-0.169
		c-0.153-0.041-0.318-0.063-0.494-0.063c-0.777,0-1.17,0.527-1.17,1.582c0,0.209,0.021,0.408,0.063,0.598
		c0.041,0.189,0.105,0.357,0.206,0.502c0.096,0.146,0.222,0.262,0.379,0.35c0.152,0.088,0.35,0.132,0.58,0.132
		c0.194,0,0.375-0.03,0.527-0.091c0.157-0.061,0.284-0.129,0.385-0.206L124.337,43.566z"/>
	<path fill="#FFFFFF" d="M125.836,39.72v2.348c0,0.214,0.012,0.402,0.037,0.564c0.021,0.162,0.063,0.296,0.128,0.403
		c0.06,0.107,0.143,0.188,0.247,0.243c0.104,0.055,0.231,0.083,0.395,0.083c0.148,0,0.28-0.023,0.396-0.07
		c0.113-0.046,0.221-0.111,0.312-0.193c0.09-0.083,0.17-0.177,0.238-0.284c0.064-0.107,0.125-0.221,0.169-0.342V39.72h0.659v2.949
		c0,0.198,0.007,0.402,0.021,0.614c0.016,0.212,0.037,0.397,0.07,0.556h-0.453l-0.165-0.651h-0.041
		c-0.126,0.214-0.297,0.393-0.511,0.536c-0.215,0.143-0.486,0.214-0.815,0.214c-0.22,0-0.413-0.026-0.581-0.078
		c-0.167-0.052-0.308-0.144-0.42-0.276c-0.11-0.132-0.195-0.309-0.255-0.531c-0.058-0.223-0.087-0.504-0.087-0.844V39.72H125.836z"
		/>
	<path fill="#FFFFFF" d="M130.415,42.825c0,0.192,0.029,0.33,0.099,0.412c0.064,0.083,0.159,0.124,0.28,0.124
		c0.067,0,0.146-0.006,0.229-0.017c0.083-0.011,0.176-0.036,0.28-0.074l0.074,0.519c-0.088,0.044-0.21,0.08-0.366,0.107
		c-0.157,0.027-0.293,0.041-0.408,0.041c-0.247,0-0.45-0.07-0.607-0.21s-0.237-0.377-0.237-0.712v-4.942h0.659L130.415,42.825
		L130.415,42.825z"/>
	<path fill="#FFFFFF" d="M131.856,41.779c0-0.697,0.155-1.231,0.466-1.602c0.313-0.371,0.758-0.556,1.341-0.556
		c0.309,0,0.573,0.051,0.805,0.152c0.228,0.101,0.416,0.247,0.563,0.437c0.148,0.19,0.26,0.417,0.329,0.684
		c0.071,0.267,0.107,0.562,0.107,0.885c0,0.698-0.155,1.232-0.466,1.603c-0.313,0.371-0.758,0.556-1.34,0.556
		c-0.31,0-0.574-0.051-0.806-0.152c-0.228-0.101-0.416-0.247-0.563-0.437c-0.147-0.189-0.262-0.417-0.329-0.684
		C131.892,42.398,131.856,42.103,131.856,41.779z M132.54,41.779c0,0.209,0.021,0.409,0.063,0.602
		c0.041,0.192,0.105,0.36,0.193,0.502c0.088,0.142,0.203,0.258,0.346,0.346c0.145,0.088,0.315,0.132,0.521,0.132
		c0.746,0.005,1.118-0.522,1.118-1.582c0-0.214-0.021-0.417-0.063-0.609c-0.041-0.192-0.105-0.359-0.193-0.502
		s-0.203-0.257-0.346-0.342c-0.145-0.085-0.315-0.128-0.521-0.128C132.913,40.192,132.54,40.719,132.54,41.779z"/>
	<path fill="#FFFFFF" d="M138.314,42.718c0-0.165-0.049-0.294-0.146-0.387c-0.103-0.093-0.225-0.172-0.366-0.235
		c-0.146-0.063-0.307-0.124-0.479-0.181c-0.172-0.057-0.333-0.132-0.478-0.223c-0.146-0.09-0.271-0.207-0.367-0.35
		c-0.099-0.145-0.146-0.334-0.146-0.577c0-0.395,0.111-0.685,0.34-0.869c0.226-0.184,0.538-0.276,0.938-0.276
		c0.296,0,0.545,0.026,0.745,0.078c0.2,0.052,0.375,0.114,0.523,0.188l-0.157,0.544c-0.126-0.063-0.278-0.114-0.457-0.161
		c-0.178-0.047-0.369-0.07-0.572-0.07c-0.24,0-0.419,0.042-0.529,0.124c-0.11,0.083-0.171,0.226-0.171,0.429
		c0,0.143,0.052,0.254,0.148,0.333s0.221,0.151,0.366,0.214c0.145,0.063,0.305,0.125,0.479,0.185
		c0.173,0.061,0.332,0.14,0.479,0.239c0.146,0.099,0.268,0.224,0.364,0.375c0.1,0.151,0.146,0.35,0.146,0.597
		c0,0.176-0.029,0.341-0.087,0.494c-0.06,0.154-0.146,0.286-0.271,0.396c-0.118,0.11-0.271,0.196-0.444,0.259
		c-0.183,0.063-0.393,0.095-0.633,0.095c-0.313,0-0.577-0.03-0.801-0.09c-0.22-0.061-0.399-0.132-0.552-0.214l0.197-0.562
		c0.127,0.071,0.291,0.137,0.494,0.198s0.407,0.091,0.616,0.091c0.234,0,0.434-0.047,0.587-0.14
		C138.235,43.128,138.314,42.96,138.314,42.718z"/>
</g>
<g>
	<path fill="#FFFFFF" d="M50.802,113.828h3.141v0.609h-2.455v1.887h2.249v0.609h-2.249v2.051h2.495v0.609h-3.181V113.828z"/>
	<path fill="#FFFFFF" d="M57.566,119.596v-2.332c0-0.22-0.012-0.41-0.028-0.572c-0.018-0.162-0.057-0.299-0.109-0.407
		c-0.057-0.11-0.135-0.192-0.233-0.248c-0.104-0.056-0.233-0.082-0.398-0.082c-0.253,0-0.463,0.075-0.63,0.229
		c-0.168,0.154-0.284,0.346-0.352,0.578v2.832h-0.66v-4.119h0.463l0.122,0.502h0.033c0.146-0.176,0.317-0.32,0.516-0.433
		c0.194-0.112,0.448-0.168,0.764-0.168c0.265,0,0.479,0.052,0.646,0.151c0.167,0.103,0.299,0.279,0.392,0.531
		c0.127-0.215,0.302-0.383,0.522-0.502c0.224-0.121,0.475-0.182,0.755-0.182c0.229,0,0.425,0.025,0.585,0.077
		c0.158,0.053,0.291,0.146,0.396,0.276s0.183,0.31,0.229,0.535c0.047,0.225,0.069,0.51,0.069,0.854v2.472h-0.661v-2.479
		c0-0.196-0.012-0.368-0.027-0.514c-0.021-0.146-0.059-0.27-0.115-0.363c-0.058-0.096-0.138-0.168-0.236-0.215
		c-0.104-0.047-0.233-0.069-0.398-0.069c-0.273,0-0.489,0.077-0.644,0.231c-0.153,0.153-0.267,0.373-0.329,0.658v2.751h-0.662v0.003
		h-0.007V119.596z"/>
	<path fill="#FFFFFF" d="M61.838,115.477h0.453l0.124,0.494h0.032c0.127-0.191,0.289-0.339,0.49-0.439
		c0.2-0.102,0.43-0.151,0.688-0.151c0.55,0,0.958,0.162,1.229,0.485c0.27,0.324,0.4,0.855,0.4,1.591
		c0,0.347-0.045,0.657-0.136,0.938c-0.092,0.275-0.22,0.512-0.384,0.703c-0.165,0.19-0.363,0.34-0.598,0.444
		s-0.493,0.155-0.778,0.155c-0.203,0-0.363-0.012-0.48-0.036c-0.115-0.024-0.245-0.067-0.384-0.13v1.714h-0.659L61.838,115.477
		L61.838,115.477z M63.502,115.953c-0.276,0-0.501,0.074-0.663,0.22c-0.161,0.146-0.272,0.366-0.342,0.663v2.042
		c0.103,0.077,0.212,0.136,0.338,0.177s0.294,0.063,0.503,0.063c0.38,0,0.683-0.144,0.9-0.425c0.224-0.282,0.334-0.698,0.334-1.248
		c0-0.225-0.021-0.43-0.058-0.614c-0.039-0.185-0.104-0.34-0.188-0.47c-0.084-0.129-0.194-0.229-0.329-0.301
		C63.867,115.99,63.701,115.953,63.502,115.953z"/>
	<path fill="#FFFFFF" d="M67.029,118.582c0,0.191,0.033,0.33,0.1,0.412c0.065,0.082,0.159,0.123,0.28,0.123
		c0.07,0,0.147-0.006,0.229-0.016c0.083-0.013,0.178-0.037,0.279-0.074l0.073,0.519c-0.088,0.044-0.21,0.08-0.365,0.106
		c-0.156,0.027-0.293,0.041-0.407,0.041c-0.247,0-0.448-0.069-0.607-0.209c-0.158-0.141-0.238-0.377-0.238-0.713v-4.941h0.658
		L67.029,118.582L67.029,118.582z"/>
	<path fill="#FFFFFF" d="M71.707,119.266c-0.164,0.133-0.372,0.236-0.622,0.313s-0.516,0.114-0.795,0.114
		c-0.313,0-0.584-0.051-0.813-0.15c-0.229-0.104-0.42-0.247-0.567-0.438c-0.146-0.188-0.259-0.416-0.329-0.681
		c-0.07-0.263-0.105-0.56-0.105-0.89c0-0.703,0.155-1.238,0.471-1.605c0.313-0.369,0.762-0.553,1.344-0.553
		c0.188,0,0.373,0.021,0.563,0.063c0.188,0.041,0.354,0.119,0.503,0.234c0.146,0.115,0.271,0.279,0.359,0.49
		c0.096,0.211,0.144,0.49,0.144,0.836c0,0.182-0.02,0.382-0.052,0.602H69.16c0,0.242,0.024,0.455,0.073,0.644
		c0.051,0.187,0.127,0.345,0.229,0.474c0.104,0.129,0.239,0.229,0.407,0.297c0.167,0.068,0.372,0.104,0.612,0.104
		c0.188,0,0.374-0.032,0.562-0.098c0.188-0.066,0.327-0.145,0.42-0.23L71.707,119.266z M70.29,115.953
		c-0.322,0-0.583,0.086-0.777,0.256c-0.192,0.17-0.313,0.461-0.351,0.874h2.043c0-0.417-0.08-0.71-0.238-0.878
		C70.809,116.039,70.581,115.953,70.29,115.953z"/>
	<path fill="#FFFFFF" d="M72.566,117.535c0-0.696,0.153-1.23,0.467-1.602c0.312-0.371,0.756-0.557,1.339-0.557
		c0.308,0,0.574,0.051,0.804,0.15c0.229,0.103,0.415,0.248,0.563,0.438c0.146,0.188,0.259,0.417,0.329,0.685
		c0.069,0.268,0.104,0.563,0.104,0.885c0,0.699-0.152,1.232-0.466,1.604c-0.312,0.371-0.756,0.557-1.338,0.557
		c-0.309,0-0.576-0.051-0.805-0.151c-0.229-0.103-0.416-0.247-0.563-0.438c-0.146-0.188-0.258-0.416-0.329-0.684
		C72.602,118.154,72.566,117.859,72.566,117.535z M73.248,117.535c0,0.209,0.021,0.41,0.063,0.604
		c0.041,0.191,0.104,0.359,0.19,0.502c0.089,0.144,0.203,0.258,0.349,0.346c0.144,0.089,0.313,0.132,0.521,0.132
		c0.746,0.006,1.119-0.521,1.119-1.582c0-0.214-0.021-0.416-0.063-0.608c-0.041-0.191-0.104-0.357-0.191-0.502
		s-0.202-0.257-0.346-0.342c-0.146-0.085-0.314-0.128-0.521-0.128C73.622,115.949,73.248,116.477,73.248,117.535z"/>
</g>
<g>
	<path fill="#FFFFFF" d="M233.3,117.791l0.198,0.874h0.008l0.214-0.89l1.395-3.947h0.686l-2.183,5.857h-0.306l-2.228-5.857h0.75
		L233.3,117.791z"/>
	<path fill="#FFFFFF" d="M235.937,115.781c0.209-0.127,0.449-0.221,0.729-0.28c0.276-0.062,0.565-0.091,0.869-0.091
		c0.284,0,0.517,0.039,0.688,0.115c0.174,0.076,0.305,0.176,0.396,0.301c0.09,0.123,0.149,0.259,0.18,0.408
		c0.031,0.147,0.048,0.295,0.048,0.443c0,0.33-0.011,0.651-0.022,0.965c-0.019,0.313-0.025,0.608-0.025,0.891
		c0,0.203,0.009,0.396,0.025,0.576c0.016,0.182,0.047,0.35,0.09,0.502h-0.485l-0.173-0.576h-0.041
		c-0.051,0.076-0.108,0.152-0.187,0.227c-0.075,0.075-0.164,0.141-0.27,0.198c-0.104,0.058-0.229,0.104-0.361,0.144
		c-0.139,0.039-0.293,0.06-0.471,0.06c-0.177,0-0.341-0.026-0.488-0.084c-0.149-0.056-0.28-0.134-0.394-0.233
		c-0.108-0.103-0.194-0.226-0.26-0.365c-0.063-0.145-0.097-0.307-0.097-0.486c0-0.241,0.051-0.443,0.146-0.605
		c0.103-0.162,0.237-0.291,0.416-0.387c0.181-0.096,0.396-0.165,0.646-0.206c0.25-0.042,0.522-0.062,0.828-0.062
		c0.073,0,0.149,0,0.228,0c0.077,0,0.147,0.006,0.228,0.017c0.018-0.165,0.024-0.313,0.024-0.444c0-0.303-0.062-0.514-0.183-0.635
		s-0.344-0.182-0.66-0.182c-0.092,0-0.192,0.008-0.301,0.021c-0.104,0.014-0.219,0.033-0.328,0.061
		c-0.112,0.025-0.223,0.057-0.321,0.092c-0.101,0.037-0.188,0.078-0.269,0.123L235.937,115.781z M237.107,119.085
		c0.152,0,0.291-0.021,0.412-0.062c0.121-0.043,0.226-0.096,0.313-0.158s0.162-0.133,0.22-0.209
		c0.061-0.078,0.102-0.151,0.127-0.225v-0.687c-0.074-0.004-0.152-0.009-0.232-0.013c-0.079-0.002-0.157-0.004-0.233-0.004
		c-0.17,0-0.336,0.01-0.498,0.029c-0.161,0.02-0.305,0.055-0.428,0.107c-0.125,0.052-0.224,0.123-0.297,0.213
		c-0.074,0.092-0.111,0.205-0.111,0.343c0,0.192,0.067,0.351,0.205,0.474C236.716,119.023,236.892,119.085,237.107,119.085z"/>
	<path fill="#FFFFFF" d="M242.031,116.111c-0.163-0.057-0.319-0.084-0.469-0.084c-0.235,0-0.424,0.064-0.563,0.193
		c-0.138,0.131-0.224,0.293-0.256,0.49v2.883h-0.658v-4.117h0.461l0.123,0.502h0.033c0.104-0.188,0.229-0.332,0.375-0.435
		s0.332-0.151,0.558-0.151c0.157,0,0.34,0.027,0.534,0.084L242.031,116.111z"/>
	<path fill="#FFFFFF" d="M242.89,114.225c0-0.125,0.043-0.234,0.127-0.326c0.086-0.09,0.19-0.135,0.324-0.135
		c0.133,0,0.243,0.045,0.338,0.135c0.096,0.093,0.143,0.199,0.143,0.326s-0.047,0.229-0.143,0.313
		c-0.095,0.084-0.205,0.125-0.338,0.125c-0.134,0-0.238-0.041-0.324-0.125C242.933,114.455,242.89,114.352,242.89,114.225z
		 M243.031,115.477h0.658v4.119h-0.658V115.477z"/>
	<path fill="#FFFFFF" d="M244.866,117.535c0-0.696,0.153-1.23,0.465-1.602c0.313-0.371,0.756-0.557,1.34-0.557
		c0.31,0,0.574,0.051,0.806,0.15c0.228,0.103,0.416,0.248,0.563,0.438c0.147,0.188,0.258,0.417,0.328,0.685
		c0.071,0.268,0.106,0.563,0.106,0.885c0,0.699-0.154,1.232-0.467,1.604s-0.757,0.557-1.339,0.557c-0.31,0-0.575-0.051-0.806-0.151
		c-0.229-0.103-0.416-0.247-0.563-0.438c-0.146-0.188-0.259-0.416-0.326-0.684C244.902,118.154,244.866,117.859,244.866,117.535z
		 M245.547,117.535c0,0.209,0.021,0.41,0.063,0.604c0.041,0.191,0.104,0.359,0.191,0.502c0.09,0.144,0.202,0.258,0.348,0.346
		c0.144,0.089,0.313,0.132,0.521,0.132c0.746,0.006,1.119-0.521,1.119-1.582c0-0.214-0.021-0.416-0.063-0.608
		c-0.041-0.191-0.104-0.357-0.192-0.502c-0.089-0.145-0.203-0.257-0.347-0.342c-0.146-0.085-0.313-0.128-0.521-0.128
		C245.922,115.949,245.547,116.477,245.547,117.535z"/>
	<path fill="#FFFFFF" d="M251.323,118.475c0-0.164-0.049-0.293-0.146-0.387c-0.099-0.094-0.222-0.172-0.363-0.234
		c-0.146-0.063-0.308-0.125-0.479-0.182s-0.332-0.133-0.478-0.223s-0.271-0.207-0.367-0.352c-0.102-0.146-0.146-0.334-0.146-0.576
		c0-0.396,0.112-0.686,0.338-0.869c0.227-0.184,0.537-0.275,0.938-0.275c0.295,0,0.545,0.025,0.743,0.078
		c0.201,0.052,0.375,0.113,0.521,0.186l-0.154,0.543c-0.127-0.063-0.279-0.113-0.457-0.16c-0.18-0.047-0.369-0.069-0.572-0.069
		c-0.241,0-0.42,0.041-0.53,0.123c-0.112,0.084-0.17,0.228-0.17,0.43c0,0.144,0.051,0.255,0.147,0.333
		c0.098,0.079,0.222,0.15,0.365,0.215c0.146,0.063,0.307,0.125,0.479,0.186c0.175,0.061,0.332,0.14,0.479,0.238
		c0.146,0.1,0.27,0.225,0.364,0.375c0.101,0.15,0.147,0.35,0.147,0.598c0,0.176-0.028,0.341-0.086,0.494
		c-0.062,0.152-0.146,0.285-0.271,0.396c-0.121,0.11-0.271,0.196-0.448,0.259c-0.179,0.063-0.39,0.096-0.632,0.096
		c-0.313,0-0.577-0.03-0.799-0.09c-0.22-0.062-0.401-0.133-0.552-0.215l0.197-0.561c0.127,0.072,0.291,0.139,0.492,0.199
		c0.202,0.061,0.407,0.09,0.616,0.09c0.235,0,0.435-0.047,0.586-0.139C251.245,118.885,251.323,118.717,251.323,118.475z"/>
</g>
<g>
	<path fill="#FFFFFF" d="M166.136,114.162h3.141v0.609h-2.455v1.969h2.289v0.611h-2.289v2.576h-0.686V114.162L166.136,114.162z"/>
	<path fill="#FFFFFF" d="M170.329,114.559c0-0.127,0.043-0.236,0.127-0.326c0.086-0.09,0.192-0.137,0.325-0.137
		c0.132,0,0.244,0.045,0.339,0.137c0.094,0.09,0.142,0.199,0.142,0.326s-0.048,0.229-0.142,0.313
		c-0.095,0.082-0.207,0.123-0.339,0.123c-0.133,0-0.239-0.041-0.325-0.123C170.372,114.787,170.329,114.686,170.329,114.559z
		 M170.468,115.811h0.659v4.119h-0.659V115.811z"/>
	<path fill="#FFFFFF" d="M175.179,119.93v-2.35c0-0.428-0.062-0.75-0.187-0.967c-0.123-0.217-0.351-0.326-0.681-0.326
		c-0.291,0-0.531,0.078-0.724,0.234c-0.188,0.156-0.319,0.354-0.396,0.59v2.816h-0.659v-4.119h0.463l0.123,0.502h0.032
		c0.132-0.177,0.31-0.32,0.531-0.434s0.483-0.168,0.795-0.168c0.226,0,0.422,0.025,0.592,0.077c0.173,0.053,0.313,0.146,0.427,0.276
		c0.11,0.131,0.196,0.31,0.254,0.531c0.062,0.223,0.088,0.504,0.088,0.844v2.487h-0.657v0.003h-0.001V119.93z"/>
	<path fill="#FFFFFF" d="M179.851,119.656c-0.164,0.121-0.358,0.213-0.584,0.277c-0.229,0.063-0.463,0.094-0.709,0.094
		c-0.318,0-0.59-0.051-0.81-0.151c-0.222-0.101-0.397-0.247-0.541-0.437c-0.14-0.189-0.239-0.418-0.306-0.686
		c-0.063-0.268-0.094-0.563-0.094-0.886c0-0.697,0.151-1.231,0.461-1.603s0.75-0.557,1.326-0.557c0.264,0,0.485,0.021,0.672,0.063
		c0.185,0.041,0.351,0.101,0.498,0.176l-0.188,0.568c-0.127-0.07-0.267-0.127-0.421-0.168c-0.153-0.041-0.317-0.063-0.493-0.063
		c-0.778,0-1.17,0.526-1.17,1.582c0,0.209,0.021,0.407,0.063,0.599c0.041,0.188,0.106,0.355,0.205,0.502
		c0.098,0.146,0.223,0.264,0.381,0.352c0.153,0.088,0.351,0.131,0.58,0.131c0.194,0,0.375-0.029,0.528-0.09
		c0.155-0.063,0.283-0.129,0.384-0.207L179.851,119.656z"/>
	<path fill="#FFFFFF" d="M180.691,116.115c0.209-0.127,0.451-0.221,0.729-0.28c0.276-0.062,0.565-0.091,0.869-0.091
		c0.285,0,0.517,0.039,0.688,0.115c0.174,0.076,0.305,0.176,0.396,0.301c0.09,0.123,0.149,0.259,0.181,0.408
		c0.03,0.147,0.049,0.295,0.049,0.443c0,0.33-0.013,0.651-0.024,0.965c-0.017,0.313-0.024,0.608-0.024,0.891
		c0,0.203,0.01,0.396,0.024,0.576c0.015,0.182,0.047,0.35,0.09,0.502h-0.483l-0.174-0.576h-0.041
		c-0.052,0.076-0.109,0.152-0.187,0.227c-0.076,0.075-0.164,0.141-0.271,0.198c-0.104,0.058-0.228,0.104-0.361,0.144
		c-0.139,0.039-0.293,0.06-0.471,0.06c-0.177,0-0.341-0.026-0.488-0.084c-0.149-0.056-0.28-0.134-0.394-0.233
		c-0.108-0.103-0.194-0.226-0.26-0.365c-0.063-0.145-0.097-0.307-0.097-0.486c0-0.241,0.052-0.443,0.146-0.605
		c0.103-0.162,0.238-0.291,0.416-0.387c0.181-0.096,0.396-0.165,0.646-0.206c0.25-0.042,0.522-0.062,0.828-0.062
		c0.074,0,0.149,0,0.228,0s0.147,0.006,0.229,0.017c0.017-0.165,0.022-0.313,0.022-0.444c0-0.303-0.062-0.514-0.183-0.635
		s-0.342-0.182-0.659-0.182c-0.093,0-0.193,0.008-0.302,0.021c-0.104,0.014-0.217,0.033-0.328,0.061
		c-0.112,0.025-0.221,0.057-0.321,0.092c-0.101,0.037-0.188,0.078-0.269,0.123L180.691,116.115z M181.861,119.418
		c0.154,0,0.291-0.021,0.412-0.063c0.121-0.043,0.226-0.094,0.313-0.156s0.162-0.133,0.22-0.211c0.062-0.076,0.103-0.15,0.129-0.223
		v-0.683c-0.076-0.006-0.154-0.011-0.233-0.013c-0.08-0.004-0.158-0.004-0.233-0.004c-0.171,0-0.337,0.011-0.498,0.029
		c-0.162,0.021-0.306,0.055-0.429,0.105c-0.125,0.053-0.224,0.125-0.297,0.215c-0.074,0.091-0.11,0.205-0.11,0.342
		c0,0.191,0.067,0.35,0.204,0.475C181.47,119.357,181.646,119.418,181.861,119.418z"/>
	<path fill="#FFFFFF" d="M187.109,114.221c0.209-0.039,0.449-0.068,0.722-0.092c0.271-0.021,0.521-0.033,0.743-0.033
		c0.255,0,0.494,0.027,0.722,0.084c0.229,0.055,0.433,0.146,0.604,0.271c0.174,0.127,0.313,0.293,0.416,0.495
		c0.104,0.203,0.154,0.449,0.154,0.74c0,0.451-0.123,0.815-0.367,1.096c-0.248,0.281-0.563,0.469-0.938,0.563l0.396,0.305
		l1.435,2.281h-0.8l-1.59-2.486l-0.812-0.125v2.611h-0.685L187.109,114.221L187.109,114.221z M188.589,114.689
		c-0.067,0-0.146,0-0.221,0c-0.078,0-0.151,0.002-0.224,0.008s-0.142,0.012-0.203,0.017c-0.063,0.007-0.112,0.015-0.151,0.024v2.125
		h0.646c0.379,0,0.69-0.092,0.938-0.279s0.371-0.479,0.371-0.873c0-0.297-0.103-0.541-0.306-0.732
		C189.236,114.785,188.952,114.689,188.589,114.689z"/>
	<path fill="#FFFFFF" d="M191.794,116.115c0.209-0.127,0.451-0.221,0.729-0.28c0.272-0.062,0.563-0.091,0.867-0.091
		c0.285,0,0.517,0.039,0.688,0.115c0.174,0.076,0.306,0.176,0.396,0.301c0.09,0.123,0.147,0.259,0.183,0.408
		c0.03,0.147,0.045,0.295,0.045,0.443c0,0.33-0.009,0.651-0.024,0.965c-0.017,0.313-0.021,0.608-0.021,0.891
		c0,0.203,0.008,0.396,0.021,0.576c0.018,0.182,0.049,0.35,0.094,0.502h-0.487l-0.175-0.576h-0.041
		c-0.049,0.076-0.11,0.152-0.188,0.227c-0.071,0.075-0.161,0.141-0.269,0.198c-0.106,0.058-0.227,0.104-0.36,0.144
		c-0.14,0.039-0.295,0.06-0.472,0.06c-0.176,0-0.338-0.026-0.489-0.084c-0.147-0.056-0.28-0.134-0.392-0.233
		c-0.11-0.102-0.194-0.226-0.26-0.365c-0.063-0.145-0.097-0.307-0.097-0.486c0-0.241,0.05-0.443,0.147-0.605
		c0.099-0.162,0.234-0.291,0.416-0.387c0.179-0.096,0.394-0.165,0.644-0.206c0.248-0.042,0.524-0.062,0.826-0.062
		c0.077,0,0.151,0,0.229,0c0.073,0,0.147,0.006,0.228,0.017c0.019-0.165,0.024-0.313,0.024-0.444c0-0.303-0.063-0.514-0.185-0.635
		s-0.34-0.182-0.657-0.182c-0.095,0-0.191,0.008-0.302,0.021c-0.104,0.014-0.218,0.033-0.33,0.061
		c-0.108,0.025-0.22,0.057-0.317,0.092c-0.104,0.037-0.19,0.078-0.271,0.123L191.794,116.115z M192.964,119.418
		c0.152,0,0.291-0.021,0.412-0.063c0.119-0.041,0.228-0.094,0.313-0.156c0.088-0.063,0.162-0.133,0.22-0.211
		c0.06-0.076,0.101-0.15,0.127-0.223v-0.683c-0.076-0.006-0.154-0.011-0.233-0.013c-0.08-0.004-0.156-0.004-0.232-0.004
		c-0.17,0-0.336,0.011-0.498,0.029c-0.161,0.021-0.305,0.055-0.428,0.105c-0.125,0.053-0.226,0.125-0.299,0.215
		c-0.072,0.091-0.109,0.205-0.109,0.342c0,0.191,0.066,0.35,0.205,0.475C192.573,119.357,192.749,119.418,192.964,119.418z"/>
	<path fill="#FFFFFF" d="M196.085,115.811h0.66v4.119h-0.66V115.811z"/>
	<path fill="#FFFFFF" d="M197.865,119.352l1.904-2.619l0.346-0.346h-2.25v-0.578h2.936v0.578l-1.912,2.643l-0.338,0.322h2.25v0.576
		h-2.936V119.352L197.865,119.352z"/>
</g>
<g>
	<path fill="#FFFFFF" d="M107.635,118.458l0.197,0.874h0.009l0.214-0.891l1.396-3.945h0.685l-2.184,5.857h-0.306l-2.228-5.857h0.75
		L107.635,118.458z"/>
	<path fill="#FFFFFF" d="M113.278,119.934c-0.164,0.131-0.372,0.235-0.622,0.313c-0.25,0.076-0.515,0.115-0.795,0.115
		c-0.313,0-0.584-0.051-0.814-0.152c-0.229-0.102-0.42-0.247-0.565-0.438c-0.146-0.188-0.26-0.416-0.329-0.681
		c-0.07-0.264-0.106-0.562-0.106-0.891c0-0.702,0.157-1.237,0.471-1.604s0.763-0.553,1.345-0.553c0.188,0,0.373,0.021,0.562,0.063
		c0.188,0.041,0.354,0.121,0.502,0.234c0.147,0.114,0.271,0.278,0.362,0.489c0.094,0.212,0.142,0.489,0.142,0.837
		c0,0.182-0.018,0.382-0.051,0.602h-2.646c0,0.241,0.022,0.455,0.072,0.643c0.052,0.188,0.127,0.346,0.23,0.475
		s0.238,0.229,0.406,0.297c0.167,0.068,0.372,0.104,0.611,0.104c0.188,0,0.374-0.033,0.563-0.101
		c0.188-0.065,0.327-0.143,0.421-0.229L113.278,119.934z M111.861,116.621c-0.322,0-0.583,0.084-0.777,0.255
		c-0.191,0.17-0.313,0.461-0.351,0.874h2.043c0-0.417-0.08-0.71-0.238-0.877C112.377,116.705,112.152,116.621,111.861,116.621z"/>
	<path fill="#FFFFFF" d="M117.101,120.262v-2.348c0-0.215-0.016-0.402-0.037-0.563c-0.023-0.162-0.069-0.297-0.138-0.404
		c-0.064-0.106-0.153-0.188-0.27-0.242c-0.111-0.055-0.26-0.084-0.438-0.084c-0.26,0-0.49,0.084-0.698,0.252
		c-0.209,0.167-0.347,0.383-0.403,0.646v2.742h-0.659v-5.767h0.659v2.108h0.032c0.144-0.17,0.313-0.307,0.516-0.408
		s0.448-0.151,0.746-0.151c0.229,0,0.432,0.024,0.602,0.078c0.173,0.052,0.313,0.146,0.427,0.274
		c0.109,0.133,0.191,0.311,0.247,0.531c0.052,0.223,0.076,0.504,0.076,0.844v2.488h-0.661V120.262z"/>
	<path fill="#FFFFFF" d="M119.103,116.145h0.657v4.119h-0.657V116.145z"/>
	<path fill="#FFFFFF" d="M123.979,119.99c-0.165,0.121-0.359,0.213-0.585,0.275c-0.229,0.063-0.461,0.096-0.708,0.096
		c-0.318,0-0.588-0.051-0.811-0.152c-0.221-0.102-0.396-0.247-0.54-0.438c-0.141-0.188-0.24-0.416-0.306-0.685
		c-0.063-0.267-0.095-0.563-0.095-0.887c0-0.696,0.151-1.229,0.462-1.603c0.309-0.371,0.749-0.556,1.326-0.556
		c0.264,0,0.484,0.021,0.671,0.062c0.185,0.041,0.352,0.101,0.498,0.178l-0.188,0.568c-0.126-0.072-0.267-0.129-0.42-0.17
		s-0.318-0.063-0.494-0.063c-0.778,0-1.17,0.527-1.17,1.582c0,0.209,0.021,0.408,0.063,0.598c0.041,0.189,0.106,0.357,0.206,0.502
		c0.096,0.146,0.222,0.262,0.379,0.35c0.153,0.088,0.351,0.133,0.58,0.133c0.195,0,0.375-0.029,0.528-0.092
		c0.156-0.061,0.284-0.129,0.384-0.205L123.979,119.99z"/>
	<path fill="#FFFFFF" d="M125.478,116.145v2.349c0,0.213,0.012,0.401,0.037,0.563c0.021,0.162,0.064,0.295,0.128,0.402
		c0.061,0.107,0.144,0.188,0.247,0.242c0.104,0.056,0.232,0.084,0.396,0.084c0.147,0,0.279-0.023,0.396-0.07
		c0.114-0.046,0.221-0.111,0.313-0.193c0.09-0.082,0.17-0.176,0.237-0.283c0.065-0.106,0.125-0.221,0.169-0.342v-2.752h0.659v2.949
		c0,0.197,0.007,0.4,0.021,0.613c0.015,0.212,0.037,0.396,0.069,0.557h-0.453l-0.164-0.652h-0.041
		c-0.127,0.216-0.298,0.395-0.512,0.537c-0.215,0.144-0.485,0.213-0.814,0.213c-0.221,0-0.413-0.024-0.581-0.077
		c-0.167-0.052-0.309-0.144-0.42-0.275s-0.196-0.309-0.255-0.53c-0.059-0.224-0.088-0.504-0.088-0.845v-2.487h0.656V116.145z"/>
	<path fill="#FFFFFF" d="M130.057,119.249c0,0.192,0.03,0.329,0.099,0.411c0.064,0.084,0.159,0.125,0.28,0.125
		c0.068,0,0.146-0.006,0.229-0.018s0.176-0.035,0.279-0.074l0.074,0.52c-0.088,0.044-0.21,0.08-0.366,0.107
		c-0.156,0.025-0.293,0.041-0.407,0.041c-0.247,0-0.45-0.07-0.608-0.211c-0.157-0.141-0.237-0.377-0.237-0.711v-4.943h0.659
		L130.057,119.249L130.057,119.249z"/>
	<path fill="#FFFFFF" d="M131.497,118.203c0-0.697,0.154-1.23,0.466-1.602c0.313-0.371,0.757-0.558,1.34-0.558
		c0.309,0,0.574,0.052,0.805,0.151c0.229,0.102,0.416,0.246,0.563,0.438c0.147,0.189,0.259,0.417,0.329,0.686
		c0.07,0.267,0.106,0.562,0.106,0.885c0,0.697-0.154,1.232-0.466,1.604c-0.313,0.371-0.758,0.555-1.34,0.555
		c-0.309,0-0.574-0.051-0.805-0.15c-0.229-0.102-0.416-0.247-0.563-0.438c-0.146-0.188-0.261-0.418-0.329-0.685
		C131.533,118.822,131.497,118.527,131.497,118.203z M132.182,118.203c0,0.209,0.021,0.408,0.063,0.602
		c0.041,0.191,0.104,0.36,0.192,0.502c0.088,0.144,0.203,0.258,0.347,0.346s0.314,0.134,0.521,0.134
		c0.746,0.005,1.119-0.522,1.119-1.582c0-0.216-0.021-0.418-0.063-0.608c-0.041-0.191-0.104-0.359-0.192-0.502
		c-0.088-0.144-0.203-0.258-0.347-0.343c-0.145-0.085-0.314-0.129-0.521-0.129C132.555,116.615,132.182,117.143,132.182,118.203z"/>
	<path fill="#FFFFFF" d="M137.955,119.143c0-0.166-0.05-0.295-0.146-0.388c-0.102-0.093-0.224-0.172-0.366-0.235
		c-0.146-0.063-0.307-0.123-0.479-0.181s-0.333-0.132-0.479-0.224c-0.146-0.09-0.271-0.207-0.366-0.35
		c-0.1-0.146-0.147-0.334-0.147-0.576c0-0.396,0.112-0.687,0.34-0.869c0.227-0.186,0.538-0.276,0.938-0.276
		c0.296,0,0.545,0.026,0.745,0.077c0.199,0.053,0.375,0.115,0.522,0.188l-0.157,0.545c-0.126-0.063-0.277-0.115-0.457-0.162
		c-0.178-0.047-0.368-0.069-0.571-0.069c-0.241,0-0.419,0.043-0.53,0.125c-0.11,0.082-0.17,0.226-0.17,0.429
		c0,0.145,0.051,0.254,0.147,0.334c0.098,0.078,0.222,0.149,0.366,0.213c0.146,0.063,0.306,0.125,0.479,0.186
		c0.173,0.063,0.332,0.141,0.479,0.24c0.146,0.098,0.269,0.223,0.364,0.375c0.1,0.149,0.146,0.35,0.146,0.596
		c0,0.177-0.028,0.342-0.087,0.494c-0.06,0.154-0.146,0.287-0.271,0.396c-0.119,0.108-0.271,0.194-0.445,0.26
		c-0.182,0.063-0.392,0.094-0.633,0.094c-0.313,0-0.577-0.029-0.8-0.09c-0.22-0.062-0.4-0.133-0.552-0.215l0.196-0.562
		c0.127,0.071,0.291,0.138,0.494,0.198c0.203,0.062,0.407,0.091,0.616,0.091c0.235,0,0.434-0.048,0.587-0.14
		C137.876,119.553,137.955,119.385,137.955,119.143z"/>
</g>
<g>
	<path fill="#FFFFFF" d="M69.214,91.893v-3.181H59.32v3.181H51.9v16.252h24.731V91.893H69.214z M60.096,89.486h8.41v2.404h-8.41
		V89.486z M75.927,92.6v4.594h-8.834v-1.021c0-0.138-0.396-0.463-0.547-0.463H61.85c-0.152,0-0.409,0.325-0.409,0.463v1.021h-8.833
		V92.6H75.927z M66.386,96.547v1.991c0,0.101-0.008,0.065-0.12,0.065H62.55c-0.111,0-0.403,0.033-0.403-0.065v-1.991
		c0-0.1,0.292-0.063,0.403-0.063h3.716C66.379,96.484,66.386,96.445,66.386,96.547z M52.608,107.438v-9.539h8.833v1.016
		c0,0.139,0.257,0.396,0.409,0.396h5.116c0.151,0,0.126-0.258,0.126-0.396v-1.016h8.834v9.539H52.608z"/>
</g>
<g>
	<g>
		<g>
			<path fill="#FFFFFF" d="M112.222,108.9h-2.042c-0.619,0-1.165-0.396-1.358-0.982c-0.037-0.118-0.013-0.248,0.068-0.342
				c0.083-0.096,0.206-0.141,0.329-0.118c1.242,0.213,3.314,0.552,3.592,0.552h0.001c0.272,0,0.408,0.188,0.408,0.361
				C113.22,108.859,112.232,108.9,112.222,108.9z"/>
		</g>
	</g>
	<g>
		<g>
			<path fill="#FFFFFF" d="M133.442,108.9h-2.041c-0.01,0-0.988-0.121-0.988-0.602c0-0.195,0.193-0.369,0.395-0.369l0,0
				c0.298,0,2.369-0.314,3.605-0.516c0.125-0.02,0.247,0.025,0.325,0.12c0.081,0.094,0.105,0.226,0.066,0.341
				C134.606,108.479,134.046,108.9,133.442,108.9z"/>
		</g>
	</g>
	<g>
		<g>
			<path fill="#FFFFFF" d="M114.236,108.818c-0.008,0-0.015,0-0.021,0c-2.326-0.137-6.281-0.518-6.628-1.559
				c-0.026-0.076-0.024-0.158,0.003-0.234l0.336-0.91c-0.188-0.662-1.022-3.922-0.378-7.412c0.013-0.1,0.403-2.877,3.502-4.547
				c0.017-0.01,0.034-0.018,0.052-0.024h-1.137c-0.248-0.021-0.688-0.182-0.765-0.669c-0.021-0.131,0.032-0.262,0.142-0.341
				l0.645-0.476c0.063-0.045,0.14-0.068,0.211-0.068h1.701c0.125,0,0.238,0.064,0.303,0.166l2.856-3.821
				c0.067-0.09,0.173-0.142,0.284-0.142h12.137c0.108,0,0.21,0.049,0.277,0.133l3.271,4.12c0.065-0.099,0.177-0.157,0.294-0.157
				h1.854c0.047,0,0.094,0.012,0.137,0.027c0.332,0.141,0.879,0.441,0.836,0.896c-0.038,0.413-0.563,0.72-0.787,0.83
				c-0.049,0.022-0.102,0.037-0.154,0.038l-0.77,0.005c0.042,0.027,0.087,0.056,0.133,0.087c0.756,0.473,3.229,2.206,3.363,4.693
				c0.013,0.138,0.328,3.676-0.197,6.736l0.153,1.018c0.015,0.102-0.014,0.204-0.08,0.281c-0.142,0.168-1.121,1.017-6.407,1.228
				c-0.045,0.003-0.082-0.004-0.121-0.017l-1.586-0.495l-11.441,0.055l-1.914,0.55C114.302,108.814,114.269,108.818,114.236,108.818
				z M108.319,107.104c0.47,0.387,3.051,0.836,5.877,1.004l1.904-0.547c0.03-0.008,0.063-0.016,0.096-0.016l11.555-0.055l0,0
				c0.035,0,0.068,0.006,0.104,0.019l1.579,0.491c3.981-0.164,5.339-0.7,5.721-0.906l-0.128-0.855
				c-0.006-0.038-0.006-0.077,0.001-0.114c0.522-2.979,0.2-6.583,0.197-6.62c-0.122-2.215-2.546-3.842-3.032-4.146
				c-0.869-0.545-1.087-0.742-1.133-0.791c-0.1-0.104-0.127-0.254-0.071-0.385c0.021-0.053,0.058-0.097,0.098-0.131
				c-0.071-0.014-0.142-0.048-0.188-0.102l-0.202-0.206l-3.384-4.255h-11.79l-2.965,3.962c-0.045,0.062-0.109,0.104-0.182,0.128
				l-0.153,0.045c0.03,0.063,0.04,0.134,0.03,0.205c-0.091,0.6-0.813,0.929-0.895,0.965c-2.753,1.486-3.104,3.995-3.107,4.021
				c-0.681,3.672,0.379,7.176,0.391,7.211c0.021,0.072,0.021,0.152-0.006,0.227L108.319,107.104z M131.385,93.966l0.344,0.003
				l1.382-0.012c0.107-0.063,0.217-0.137,0.28-0.195c-0.071-0.056-0.188-0.123-0.293-0.177h-1.529l-0.09,0.242
				C131.459,93.882,131.427,93.93,131.385,93.966z M110.315,93.287l-0.184,0.135l1.478-0.001c-0.003-0.013-0.006-0.026-0.008-0.039
				l-0.013-0.095H110.315z"/>
		</g>
	</g>
	<g>
		<g>
			<path fill="#FFFFFF" d="M130.052,94.814c-0.001,0-0.002,0-0.004,0l-17.08-0.201c-0.133-0.002-0.253-0.076-0.313-0.195
				c-0.059-0.118-0.047-0.262,0.031-0.368l2.984-4.081c0.063-0.093,0.172-0.146,0.287-0.146h10.885c0.109,0,0.217,0.054,0.283,0.143
				l3.17,4.232c0.072,0.064,0.12,0.16,0.12,0.267c0,0.196-0.157,0.354-0.354,0.354C130.059,94.816,130.055,94.816,130.052,94.814z
				 M113.665,93.912l15.672,0.188l-2.672-3.568h-10.527L113.665,93.912z"/>
		</g>
	</g>
	<g>
		<g>
			<path fill="#FFFFFF" d="M113.815,101.701c-0.014,0-0.029-0.001-0.045-0.004l-4.432-0.582l-0.545,0.129
				c-0.105,0.023-0.223,0-0.308-0.066l-0.535-0.433c-0.106-0.086-0.153-0.228-0.12-0.361l0.568-2.345
				c0.022-0.096,0.084-0.176,0.167-0.225c0.084-0.047,0.187-0.063,0.276-0.033l4.764,1.38c0.131,0.038,0.229,0.147,0.252,0.282
				l0.307,1.845c0.02,0.11-0.02,0.226-0.098,0.306C114.003,101.663,113.91,101.701,113.815,101.701z M109.32,100.4
				c0.02,0,0.031,0,0.048,0.002l4.021,0.529l-0.188-1.15l-4.19-1.215l-0.435,1.767l0.229,0.183l0.438-0.104
				C109.266,100.402,109.294,100.4,109.32,100.4z"/>
		</g>
	</g>
	<g>
		<g>
			<path fill="#FFFFFF" d="M129.88,101.701c-0.1,0-0.188-0.039-0.256-0.107c-0.078-0.08-0.113-0.193-0.099-0.306l0.308-1.845
				c0.021-0.135,0.117-0.243,0.25-0.282l4.651-1.378c0.097-0.028,0.193-0.018,0.278,0.031c0.084,0.049,0.146,0.129,0.168,0.225
				l0.572,2.345c0.032,0.136-0.02,0.275-0.121,0.361l-0.539,0.433c-0.085,0.066-0.197,0.092-0.303,0.066l-0.545-0.129l-4.322,0.582
				C129.91,101.701,129.895,101.701,129.88,101.701z M130.498,99.777l-0.19,1.152l3.912-0.525c0.043-0.006,0.085-0.004,0.127,0.007
				l0.44,0.104l0.228-0.182l-0.432-1.766L130.498,99.777z"/>
		</g>
	</g>
	<g>
		<g>
			<path fill="#FFFFFF" d="M114.067,107.971c-0.014,0-0.021,0-0.039-0.002c-5.289-0.576-5.545-1.052-5.629-1.207
				c-0.015-0.025-0.021-0.057-0.031-0.084c-0.01-0.035-0.203-0.869-0.438-2.892c-0.014-0.12,0.034-0.238,0.128-0.313
				c0.093-0.076,0.219-0.102,0.333-0.063l5.122,1.646c0.06,0.021,0.113,0.055,0.154,0.102l1.521,1.688
				c0.069,0.075,0.104,0.182,0.088,0.284c-0.016,0.104-0.072,0.196-0.164,0.252l-0.855,0.537
				C114.197,107.951,114.133,107.971,114.067,107.971z M109.031,106.398c0.483,0.24,2.86,0.617,4.95,0.85l0.396-0.248l-1.176-1.298
				l-4.508-1.449C108.852,105.471,108.981,106.148,109.031,106.398z"/>
		</g>
	</g>
	<g>
		<g>
			<path fill="#FFFFFF" d="M129.557,107.971c-0.064,0-0.133-0.02-0.188-0.056l-0.856-0.538c-0.089-0.057-0.149-0.146-0.163-0.251
				c-0.015-0.104,0.02-0.209,0.088-0.287l1.521-1.685c0.042-0.047,0.095-0.08,0.15-0.1l5.123-1.648
				c0.113-0.037,0.239-0.014,0.333,0.064c0.095,0.076,0.146,0.194,0.127,0.314c-0.229,2.021-0.43,2.854-0.437,2.89
				c-0.009,0.03-0.021,0.062-0.033,0.087c-0.084,0.153-0.34,0.629-5.628,1.204C129.582,107.971,129.569,107.971,129.557,107.971z
				 M129.243,107.001l0.396,0.248c2.089-0.231,4.467-0.606,4.949-0.851c0.052-0.25,0.181-0.93,0.333-2.146l-4.504,1.449
				L129.243,107.001z"/>
		</g>
	</g>
	<g>
		<g>
			<path fill="#FFFFFF" d="M127.175,107.826L127.175,107.826l-10.71-0.036c-0.079,0-0.155-0.026-0.216-0.074l-0.88-0.682
				c-0.068-0.056-0.115-0.134-0.134-0.222l-1.199-7.058c-0.021-0.142,0.041-0.284,0.16-0.36l1.006-0.625
				c0.059-0.037,0.115-0.063,0.188-0.055l13.196,0.035c0.083,0,0.163,0.029,0.228,0.082l0.858,0.719
				c0.099,0.082,0.146,0.211,0.122,0.338l-1.36,7.271c-0.021,0.116-0.103,0.217-0.214,0.263l-0.914,0.376
				C127.267,107.816,127.221,107.826,127.175,107.826z M116.589,107.081l10.517,0.035l0.67-0.275l1.286-6.877l-0.601-0.501
				l-12.97-0.033l-0.717,0.444l1.141,6.687L116.589,107.081z"/>
		</g>
	</g>
</g>
<g>
	<g>
		<g>
			<polygon fill="#FFFFFF" points="241.008,111.354 229.84,105.453 229.84,92.209 233.881,90.354 234.272,91.211 230.84,92.813 
				230.84,104.887 241,110.273 250.84,104.891 250.84,93.24 248.297,91.813 248.801,90.99 251.84,92.688 251.84,105.449 			"/>
		</g>
	</g>
	<g>
		<g>
			
				<rect x="243.288" y="88.511" transform="matrix(0.8662 0.4997 -0.4997 0.8662 77.0505 -110.0326)" fill="#FFFFFF" width="1.423" height="0.712"/>
		</g>
	</g>
	<g>
		<g>
			
				<rect x="238.254" y="87.968" transform="matrix(0.445 0.8955 -0.8955 0.445 211.8546 -164.4546)" fill="#FFFFFF" width="0.711" height="1.458"/>
		</g>
	</g>
	<g>
		<g>
			<polygon fill="#FFFFFF" points="241.17,99.04 230.444,92.816 230.801,92.203 241.174,98.223 250.912,92.678 251.266,93.293 			
				"/>
		</g>
	</g>
	<g>
		<g>
			<rect x="240.84" y="98.182" fill="#FFFFFF" width="1" height="13"/>
		</g>
	</g>
	<g>
		<g>
			<g>
				<path fill="#FFFFFF" d="M236.129,90.611c-1.311,0-2.293-0.496-2.293-1.157s0.982-1.159,2.293-1.159
					c1.307,0,2.295,0.498,2.295,1.159S237.436,90.611,236.129,90.611z M236.129,88.719c-1.061,0-1.85,0.391-1.85,0.735
					c0,0.349,0.789,0.735,1.85,0.735c1.057,0,1.846-0.389,1.846-0.735S237.186,88.719,236.129,88.719z"/>
			</g>
		</g>
	</g>
	<g>
		<g>
			<g>
				<path fill="#FFFFFF" d="M238.405,92.477c0,0.66-0.992,1.157-2.287,1.157c-1.299,0-2.271-0.5-2.271-1.159h0.441
					c0,0.35,0.781,0.735,1.83,0.735c1.047,0,1.826-0.39,1.826-0.735L238.405,92.477z"/>
			</g>
		</g>
	</g>
	<g>
		<g>
			<g>
				<rect x="237.944" y="89.566" fill="#FFFFFF" width="0.471" height="2.914"/>
			</g>
		</g>
	</g>
	<g>
		<g>
			<g>
				<rect x="233.842" y="89.521" fill="#FFFFFF" width="0.436" height="2.961"/>
			</g>
		</g>
	</g>
	<g>
		<g>
			<g>
				<path fill="#FFFFFF" d="M246.362,90.896c-1.307,0-2.295-0.5-2.295-1.16c0-0.659,0.988-1.158,2.295-1.158
					c1.311,0,2.295,0.499,2.295,1.158C248.656,90.396,247.67,90.896,246.362,90.896z M246.362,88.998
					c-1.057,0-1.846,0.391-1.846,0.736c0,0.348,0.789,0.736,1.846,0.736c1.059,0,1.85-0.39,1.85-0.736
					C248.207,89.389,247.418,88.998,246.362,88.998z"/>
			</g>
		</g>
	</g>
	<g>
		<g>
			<g>
				<path fill="#FFFFFF" d="M248.637,92.757c0,0.66-0.992,1.157-2.289,1.157c-1.295,0-2.271-0.498-2.271-1.159h0.441
					c0,0.349,0.783,0.737,1.828,0.737c1.047,0,1.83-0.391,1.83-0.737L248.637,92.757z"/>
			</g>
		</g>
	</g>
	<g>
		<g>
			<g>
				<rect x="248.176" y="89.85" fill="#FFFFFF" width="0.469" height="2.914"/>
			</g>
		</g>
	</g>
	<g>
		<g>
			<g>
				<rect x="244.074" y="89.805" fill="#FFFFFF" width="0.438" height="2.959"/>
			</g>
		</g>
	</g>
	<g>
		<g>
			<g>
				<path fill="#FFFFFF" d="M241.317,93.867c-1.309,0-2.295-0.499-2.295-1.159s0.986-1.158,2.295-1.158
					c1.311,0,2.293,0.498,2.293,1.158S242.623,93.867,241.317,93.867z M241.317,91.973c-1.057,0-1.848,0.389-1.848,0.735
					s0.791,0.735,1.848,0.735c1.059,0,1.848-0.389,1.848-0.735S242.371,91.973,241.317,91.973z"/>
			</g>
		</g>
	</g>
	<g>
		<g>
			<g>
				<path fill="#FFFFFF" d="M243.59,95.729c0,0.66-0.992,1.158-2.287,1.158c-1.297,0-2.273-0.498-2.273-1.158h0.443
					c0,0.348,0.783,0.734,1.83,0.734s1.828-0.389,1.828-0.734H243.59z"/>
			</g>
		</g>
	</g>
	<g>
		<g>
			<g>
				<rect x="243.129" y="92.82" fill="#FFFFFF" width="0.469" height="2.914"/>
			</g>
		</g>
	</g>
	<g>
		<g>
			<g>
				<rect x="239.03" y="92.773" fill="#FFFFFF" width="0.438" height="2.959"/>
			</g>
		</g>
	</g>
	<g>
		<g>
			<g>
				<path fill="#FFFFFF" d="M241.317,88.137c-1.309,0-2.295-0.498-2.295-1.16c0-0.66,0.986-1.158,2.295-1.158
					c1.311,0,2.293,0.498,2.293,1.158C243.61,87.639,242.623,88.137,241.317,88.137z M241.317,86.238
					c-1.057,0-1.848,0.391-1.848,0.736c0,0.35,0.791,0.736,1.848,0.736c1.059,0,1.848-0.389,1.848-0.736
					C243.16,86.628,242.371,86.238,241.317,86.238z"/>
			</g>
		</g>
	</g>
	<g>
		<g>
			<g>
				<path fill="#FFFFFF" d="M243.59,89.996c0,0.66-0.992,1.156-2.287,1.156c-1.297,0-2.273-0.496-2.273-1.157h0.443
					c0,0.349,0.783,0.735,1.83,0.735s1.828-0.389,1.828-0.735L243.59,89.996z"/>
			</g>
		</g>
	</g>
	<g>
		<g>
			<g>
				<rect x="243.129" y="87.089" fill="#FFFFFF" width="0.469" height="2.914"/>
			</g>
		</g>
	</g>
	<g>
		<g>
			<g>
				<rect x="239.03" y="87.042" fill="#FFFFFF" width="0.438" height="2.96"/>
			</g>
		</g>
	</g>
</g>
<g>
	<g>
		<g>
			<path fill="#FFFFFF" d="M181.334,112.57c-2.625,0-4.766-2.141-4.766-4.772c0-1.178,0.459-2.293,1.266-3.168h-6.063v-8.021
				l-0.438,0.443l-1.285-1.959l11.48-8.464l11.479,8.513l-1.748,1.813l-1.131-0.674v8.047l-5.518,0.088
				c0.938,0.904,1.479,2.111,1.479,3.391C186.094,110.432,183.959,112.57,181.334,112.57z M179.047,104.629
				c-1.039,0.773-1.658,1.934-1.658,3.168c0,2.184,1.771,3.958,3.945,3.958s3.941-1.771,3.941-3.952
				c0-1.347-0.734-2.601-1.953-3.369l-0.428,0.008l-0.004-0.25l-0.246-0.123l0.074-0.504l0.828-0.992l-1.154-0.002v-9.393
				l-0.889-0.9l-1.279,1.293v0.643l0.764,1.117l-1.32,1.291v0.326l1.32,1.359l-1.072,1.237l0.684,0.651v2.187h-1.428l0.758,1.168
				l0.084,0.517l-0.27,0.135c-0.229,0.111-0.438,0.24-0.635,0.382v0.049L179.047,104.629L179.047,104.629z M172.586,103.813h6.201
				c0.076-0.053,0.156-0.104,0.238-0.152l-0.752-1.158c-0.104-0.168-0.176-0.425-0.053-0.646c0.059-0.106,0.209-0.287,0.553-0.287
				h1.01v-1.021l-0.996-0.947l1.098-1.262l-1.033-1.061v-1.002l1.08-1.053l-0.521-0.759v-1.229l2.1-2.115l1.703,1.727v8.908h0.639
				c0.236,0.01,0.52,0.109,0.641,0.375c0.111,0.249,0.045,0.53-0.205,0.836l-0.535,0.646l5.563-0.09v-8.683l1.811,1.079l0.652-0.678
				l-10.244-7.6l-10.375,7.646l0.307,0.466l1.127-1.147L172.586,103.813L172.586,103.813z"/>
		</g>
	</g>
	<g>
		<g>
			<path fill="#FFFFFF" d="M181.416,111.704c-0.814,0-1.479-0.663-1.479-1.478s0.662-1.479,1.479-1.479
				c0.813,0,1.477,0.663,1.477,1.479S182.231,111.704,181.416,111.704z M181.416,109.361c-0.479,0-0.865,0.389-0.865,0.865
				c0,0.478,0.389,0.867,0.865,0.867c0.479,0,0.861-0.391,0.861-0.867C182.279,109.75,181.895,109.361,181.416,109.361z"/>
		</g>
	</g>
</g>
<path fill="#FFFFFF" d="M120.181,37.893h0.694v0.164l-0.787,0.998h-0.367L120.181,37.893z"/>
<path fill="#FFFFFF" d="M119.718,114.505h0.694v0.164l-0.787,0.998h-0.367L119.718,114.505z"/>
<path fill="#FFFFFF" d="M197.161,37.768h0.69v0.164l-0.787,0.998H196.7L197.161,37.768z"/>
<path fill="#FFFFFF" d="M196.703,114.311h0.69v0.164l-0.787,0.998h-0.364L196.703,114.311z"/>
</svg>
