<?xml version="1.0" encoding="utf-8"?>
<!-- Generator: Adobe Illustrator 16.0.0, SVG Export Plug-In . SVG Version: 6.00 Build 0)  -->
<!DOCTYPE svg PUBLIC "-//W3C//DTD SVG 1.1//EN" "http://www.w3.org/Graphics/SVG/1.1/DTD/svg11.dtd">
<svg version="1.1" id="Capa_1" xmlns="http://www.w3.org/2000/svg" xmlns:xlink="http://www.w3.org/1999/xlink" x="0px" y="0px"
	 width="303.5px" height="131px" viewBox="0 0 303.5 131" enable-background="new 0 0 303.5 131" xml:space="preserve">
<rect x="-144.75" y="-55" display="none" stroke="#000000" stroke-miterlimit="10" width="646" height="302"/>
<g>
	<polygon fill="#B92025" points="76.632,15.712 76.632,31.963 51.9,31.963 51.9,15.712 59.32,15.712 59.32,12.532 69.214,12.532 
		69.214,15.712 	"/>
	<path fill="#B92025" d="M115.188,12.594l-2.984,3.97c0,0-0.099-0.23-0.808-0.168l-1.292,0.021l-0.762,0.525
		c0,0-0.516,0.71,0.623,1.009h1.137c0,0-1.894,1.049-2.373,2.132c0,0-1.458,1.458-1.417,5.354c0,0,0.063,2.497,0.614,4.499
		c0,0-0.447,1.001-0.259,1.23c0,0,0.313,0.438,1.167,0.708c0,0,0.479,1.021,2.521,0.833c0,0,1.167,0.063,1.604-0.188l1.273,0.119
		l2.019-0.562l11.439-0.054l1.586,0.495l1.308-0.103c0,0,3.438,1.021,4.146-0.563c0,0,1.255-0.338,1.114-0.932l-0.109-0.912
		c0,0,0.703-6.338-0.25-8.307c0,0-0.722-1.717-3.048-3.21l0.783-0.056c0,0,1.094-0.328,0.875-0.969c0,0-0.078-0.563-1.047-0.75
		s-0.063-0.016-0.063-0.016l-1.813,0.047l-0.146,0.104l-3.418-4.198l-0.469-0.047L115.188,12.594z"/>
	<path fill="#B92025" d="M189.647,19.104l0.167,8.667l-6.084,0.021c0,0,2.98,2.396,1.646,5.667c0,0-2.416,4.375-6.375,1.75
		c0,0-3.479-2.146-1.292-6.021l0.771-1.208l-6.291,0.042l0.125-8.75l-1.042,0.958l-0.729-1.354l10.938-7.917l10.875,8.021
		l-1.25,1.333L189.647,19.104z"/>
	<path fill="#B92025" d="M241.438,9.75c0,0-2.188,0.156-2.188,1.188l-0.063,1.25l-1.219,0.688c0,0-1.5-1.156-3.531-0.188
		c0,0-0.563,0.313-0.438,1.656l-0.031,0.313l-3.625,1.594V28.97l10.813,5.594l10.281-5.719l-0.313-11.875L251,16.938l-2.703-1.303
		l-0.047-1.541l0.125-0.531c0,0-0.438-1.125-2.473-0.969l-1.402,0.469l-1.125-0.75l-0.063-1.656
		C243.313,10.656,243.25,10,241.438,9.75z"/>
	<g>
		<path fill="#FFFFFF" d="M69.214,15.712v-3.18H59.32v3.18H51.9v16.251h24.731V15.712H69.214z M60.096,13.307h8.41v2.405h-8.41
			V13.307L60.096,13.307z M75.927,16.418v4.593h-8.834V19.99c0-0.138-0.396-0.463-0.547-0.463H61.85
			c-0.152,0-0.409,0.325-0.409,0.463v1.021h-8.833v-4.593H75.927z M66.386,20.367v1.991c0,0.1-0.008,0.066-0.12,0.066H62.55
			c-0.111,0-0.403,0.034-0.403-0.066v-1.991c0-0.1,0.292-0.063,0.403-0.063h3.716C66.379,20.305,66.386,20.267,66.386,20.367z
			 M52.608,31.256v-9.539h8.833v1.016c0,0.139,0.257,0.397,0.409,0.397h5.116c0.151,0,0.126-0.258,0.126-0.397v-1.016h8.834v9.539
			H52.608z"/>
	</g>
	<g>
		<g>
			<g>
				<path fill="#FFFFFF" d="M112.222,32.721h-2.042c-0.619,0-1.165-0.396-1.358-0.983c-0.035-0.118-0.013-0.248,0.068-0.342
					c0.083-0.094,0.206-0.139,0.329-0.118c1.242,0.213,3.314,0.55,3.592,0.55h0.001c0.272,0,0.408,0.188,0.408,0.363
					C113.22,32.681,112.232,32.721,112.222,32.721z"/>
			</g>
		</g>
		<g>
			<g>
				<path fill="#FFFFFF" d="M133.442,32.721h-2.041c-0.01,0-0.986-0.121-0.986-0.602c0-0.195,0.191-0.368,0.395-0.368l0,0
					c0.298,0,2.369-0.315,3.605-0.515c0.125-0.019,0.247,0.026,0.323,0.12c0.081,0.094,0.105,0.224,0.066,0.341
					C134.606,32.299,134.046,32.721,133.442,32.721z"/>
			</g>
		</g>
		<g>
			<g>
				<path fill="#FFFFFF" d="M114.236,32.64c-0.008,0-0.015,0-0.021-0.001c-2.326-0.136-6.281-0.518-6.628-1.558
					c-0.026-0.076-0.024-0.159,0.003-0.234l0.336-0.911c-0.188-0.663-1.022-3.921-0.378-7.413c0.013-0.099,0.403-2.877,3.502-4.547
					c0.017-0.008,0.034-0.016,0.052-0.025h-1.137c-0.248-0.019-0.688-0.181-0.765-0.668c-0.021-0.131,0.03-0.262,0.142-0.341
					l0.645-0.475c0.063-0.045,0.142-0.069,0.211-0.069h1.701c0.125,0,0.238,0.065,0.305,0.166l2.854-3.821
					c0.067-0.09,0.173-0.142,0.284-0.142h12.137c0.108,0,0.21,0.049,0.277,0.133l3.271,4.12c0.065-0.097,0.179-0.157,0.294-0.157
					h1.854c0.047,0,0.094,0.01,0.137,0.028c0.332,0.14,0.879,0.442,0.836,0.895c-0.038,0.413-0.563,0.718-0.787,0.83
					c-0.049,0.024-0.102,0.037-0.152,0.038l-0.771,0.005c0.042,0.027,0.087,0.055,0.133,0.085c0.758,0.472,3.229,2.207,3.363,4.695
					c0.013,0.137,0.328,3.676-0.197,6.737l0.153,1.017c0.015,0.101-0.014,0.204-0.08,0.282c-0.142,0.168-1.121,1.016-6.407,1.226
					c-0.045,0.003-0.082-0.003-0.121-0.016l-1.586-0.495l-11.439,0.054l-1.914,0.55C114.302,32.635,114.269,32.64,114.236,32.64z
					 M108.319,30.922c0.472,0.387,3.053,0.836,5.877,1.005l1.904-0.547c0.03-0.009,0.063-0.014,0.096-0.014l11.557-0.054l0,0
					c0.035,0,0.066,0.005,0.104,0.016l1.579,0.493c3.981-0.164,5.339-0.702,5.721-0.909l-0.128-0.855
					c-0.006-0.038-0.006-0.077,0.001-0.114c0.522-2.979,0.2-6.583,0.197-6.62c-0.122-2.215-2.546-3.842-3.032-4.146
					c-0.867-0.545-1.087-0.743-1.133-0.791c-0.1-0.104-0.127-0.255-0.07-0.386c0.021-0.051,0.059-0.095,0.099-0.13
					c-0.071-0.013-0.144-0.047-0.188-0.101l-0.201-0.206l-3.385-4.255h-11.79l-2.965,3.962c-0.045,0.061-0.107,0.106-0.182,0.128
					l-0.153,0.045c0.03,0.063,0.04,0.134,0.03,0.205c-0.091,0.599-0.813,0.929-0.896,0.965c-2.753,1.486-3.104,3.995-3.105,4.021
					c-0.683,3.672,0.379,7.176,0.391,7.211c0.021,0.074,0.021,0.154-0.006,0.229L108.319,30.922z M131.385,17.786l0.344,0.001
					l1.382-0.01c0.107-0.061,0.219-0.136,0.28-0.196c-0.071-0.055-0.188-0.124-0.293-0.176h-1.529l-0.09,0.242
					C131.459,17.701,131.427,17.748,131.385,17.786z M110.315,17.107l-0.184,0.135l1.478-0.001c-0.003-0.013-0.006-0.027-0.008-0.04
					l-0.013-0.094H110.315z"/>
			</g>
		</g>
		<g>
			<g>
				<path fill="#FFFFFF" d="M130.052,18.636c-0.001,0-0.002,0-0.004,0l-17.08-0.202c-0.133-0.001-0.253-0.077-0.313-0.196
					c-0.059-0.118-0.047-0.261,0.031-0.368l2.984-4.083c0.063-0.091,0.172-0.146,0.287-0.146h10.885
					c0.109,0,0.217,0.053,0.283,0.142l3.17,4.232c0.072,0.065,0.12,0.16,0.12,0.267c0,0.196-0.157,0.354-0.354,0.354
					C130.059,18.637,130.055,18.637,130.052,18.636z M113.665,17.732l15.672,0.186l-2.672-3.568h-10.527L113.665,17.732z"/>
			</g>
		</g>
		<g>
			<g>
				<path fill="#FFFFFF" d="M113.815,25.521c-0.014,0-0.027-0.001-0.045-0.003l-4.432-0.583l-0.545,0.129
					c-0.105,0.025-0.225,0-0.31-0.068l-0.533-0.431c-0.106-0.086-0.153-0.227-0.12-0.361l0.566-2.345
					c0.022-0.094,0.084-0.175,0.167-0.223c0.084-0.048,0.188-0.063,0.276-0.034l4.764,1.379c0.131,0.038,0.229,0.148,0.252,0.283
					l0.309,1.844c0.02,0.111-0.021,0.224-0.1,0.305C114.003,25.483,113.91,25.521,113.815,25.521z M109.32,24.221
					c0.021,0,0.031,0.001,0.05,0.003l4.021,0.529l-0.188-1.152l-4.19-1.214l-0.435,1.766l0.229,0.181l0.438-0.104
					C109.266,24.224,109.294,24.221,109.32,24.221z"/>
			</g>
		</g>
		<g>
			<g>
				<path fill="#FFFFFF" d="M129.88,25.521c-0.102,0-0.188-0.039-0.256-0.108c-0.078-0.081-0.113-0.194-0.101-0.305l0.31-1.844
					c0.021-0.134,0.117-0.244,0.25-0.283l4.649-1.378c0.099-0.028,0.193-0.016,0.278,0.033c0.084,0.048,0.146,0.129,0.168,0.223
					l0.572,2.345c0.032,0.134-0.021,0.275-0.121,0.361l-0.539,0.431c-0.085,0.068-0.197,0.093-0.303,0.068l-0.545-0.129
					l-4.322,0.583C129.91,25.521,129.895,25.521,129.88,25.521z M130.498,23.599l-0.19,1.152l3.912-0.526
					c0.043-0.006,0.085-0.004,0.127,0.006l0.44,0.104l0.228-0.181l-0.432-1.764L130.498,23.599z"/>
			</g>
		</g>
		<g>
			<g>
				<path fill="#FFFFFF" d="M114.067,31.789c-0.014,0-0.021,0-0.039-0.002c-5.289-0.576-5.545-1.05-5.629-1.206
					c-0.015-0.027-0.021-0.056-0.029-0.085c-0.012-0.035-0.203-0.868-0.438-2.89c-0.014-0.12,0.034-0.238,0.128-0.315
					c0.093-0.076,0.219-0.1,0.333-0.063l5.122,1.648c0.061,0.019,0.113,0.053,0.154,0.1l1.521,1.684
					c0.069,0.078,0.104,0.183,0.088,0.287c-0.016,0.104-0.07,0.196-0.164,0.252l-0.854,0.537
					C114.197,31.771,114.133,31.789,114.067,31.789z M109.031,30.219c0.483,0.241,2.86,0.617,4.95,0.849l0.396-0.248l-1.176-1.298
					l-4.51-1.449C108.852,29.29,108.981,29.969,109.031,30.219z"/>
			</g>
		</g>
		<g>
			<g>
				<path fill="#FFFFFF" d="M129.557,31.789c-0.063,0-0.133-0.018-0.188-0.054l-0.856-0.538c-0.089-0.056-0.149-0.148-0.163-0.251
					c-0.015-0.104,0.021-0.209,0.088-0.287l1.521-1.684c0.042-0.046,0.095-0.081,0.148-0.1l5.123-1.648
					c0.113-0.038,0.239-0.013,0.333,0.063c0.097,0.077,0.146,0.195,0.127,0.315c-0.229,2.021-0.43,2.855-0.437,2.89
					c-0.009,0.03-0.021,0.059-0.033,0.085c-0.084,0.155-0.34,0.63-5.628,1.206C129.582,31.789,129.569,31.789,129.557,31.789z
					 M129.243,30.821l0.396,0.248c2.089-0.232,4.467-0.608,4.949-0.849c0.052-0.25,0.181-0.93,0.333-2.146l-4.504,1.449
					L129.243,30.821z"/>
			</g>
		</g>
		<g>
			<g>
				<path fill="#FFFFFF" d="M127.175,31.646L127.175,31.646l-10.71-0.036c-0.079,0-0.155-0.027-0.216-0.075l-0.88-0.681
					c-0.068-0.055-0.115-0.133-0.136-0.221l-1.197-7.056c-0.021-0.142,0.041-0.285,0.158-0.361l1.008-0.626
					c0.059-0.036,0.113-0.061,0.188-0.054l13.196,0.036c0.083,0,0.163,0.029,0.228,0.082l0.858,0.717
					c0.099,0.083,0.146,0.211,0.122,0.338l-1.36,7.27c-0.021,0.118-0.103,0.217-0.214,0.263l-0.914,0.376
					C127.267,31.637,127.221,31.646,127.175,31.646z M116.589,30.901l10.517,0.035l0.67-0.276l1.286-6.876l-0.601-0.501
					l-12.97-0.035l-0.719,0.446l1.143,6.685L116.589,30.901z"/>
			</g>
		</g>
	</g>
	<g>
		<g>
			<g>
				<polygon fill="#FFFFFF" points="241.008,35.172 229.84,29.273 229.84,16.029 233.881,14.174 234.272,15.031 230.84,16.631 
					230.84,28.706 241,34.095 250.84,28.71 250.84,17.061 248.297,15.634 248.801,14.811 251.84,16.508 251.84,29.269 				"/>
			</g>
		</g>
		<g>
			<g>
				
					<rect x="243.272" y="12.346" transform="matrix(0.8661 0.4999 -0.4999 0.8661 39.0293 -120.276)" fill="#FFFFFF" width="1.423" height="0.711"/>
			</g>
		</g>
		<g>
			<g>
				
					<rect x="238.255" y="11.788" transform="matrix(0.445 0.8955 -0.8955 0.445 143.6334 -206.7348)" fill="#FFFFFF" width="0.711" height="1.456"/>
			</g>
		</g>
		<g>
			<g>
				<polygon fill="#FFFFFF" points="241.17,22.86 230.444,16.637 230.801,16.023 241.174,22.042 250.912,16.497 251.266,17.113 				
					"/>
			</g>
		</g>
		<g>
			<g>
				<rect x="240.84" y="22" fill="#FFFFFF" width="1" height="13"/>
			</g>
		</g>
		<g>
			<g>
				<g>
					<path fill="#FFFFFF" d="M236.129,14.433c-1.313,0-2.293-0.498-2.293-1.159s0.98-1.159,2.293-1.159
						c1.307,0,2.295,0.498,2.295,1.159S237.436,14.433,236.129,14.433z M236.129,12.537c-1.063,0-1.852,0.39-1.852,0.737
						s0.789,0.737,1.852,0.737c1.057,0,1.846-0.389,1.846-0.737S237.186,12.537,236.129,12.537z"/>
				</g>
			</g>
		</g>
		<g>
			<g>
				<g>
					<path fill="#FFFFFF" d="M238.405,16.295c0,0.66-0.99,1.158-2.285,1.158c-1.301,0-2.271-0.499-2.271-1.159h0.441
						c0,0.348,0.779,0.736,1.83,0.736c1.047,0,1.824-0.389,1.824-0.736L238.405,16.295z"/>
				</g>
			</g>
		</g>
		<g>
			<g>
				<g>
					<rect x="237.944" y="13.387" fill="#FFFFFF" width="0.473" height="2.914"/>
				</g>
			</g>
		</g>
		<g>
			<g>
				<g>
					<rect x="233.842" y="13.341" fill="#FFFFFF" width="0.436" height="2.96"/>
				</g>
			</g>
		</g>
		<g>
			<g>
				<g>
					<path fill="#FFFFFF" d="M246.362,14.715c-1.307,0-2.295-0.499-2.295-1.159c0-0.66,0.988-1.159,2.295-1.159
						c1.313,0,2.297,0.499,2.297,1.159C248.656,14.216,247.67,14.715,246.362,14.715z M246.362,12.818
						c-1.057,0-1.846,0.39-1.846,0.737c0,0.348,0.789,0.737,1.846,0.737c1.061,0,1.852-0.389,1.852-0.737
						C248.207,13.208,247.418,12.818,246.362,12.818z"/>
				</g>
			</g>
		</g>
		<g>
			<g>
				<g>
					<path fill="#FFFFFF" d="M248.637,16.576c0,0.661-0.992,1.158-2.289,1.158c-1.295,0-2.271-0.498-2.271-1.159h0.439
						c0,0.348,0.783,0.737,1.828,0.737c1.047,0,1.83-0.389,1.83-0.737L248.637,16.576z"/>
				</g>
			</g>
		</g>
		<g>
			<g>
				<g>
					<rect x="248.176" y="13.669" fill="#FFFFFF" width="0.469" height="2.914"/>
				</g>
			</g>
		</g>
		<g>
			<g>
				<g>
					<rect x="244.074" y="13.623" fill="#FFFFFF" width="0.438" height="2.96"/>
				</g>
			</g>
		</g>
		<g>
			<g>
				<g>
					<path fill="#FFFFFF" d="M241.317,17.687c-1.309,0-2.295-0.499-2.295-1.159c0-0.66,0.986-1.159,2.295-1.159
						c1.313,0,2.293,0.499,2.293,1.159C243.61,17.188,242.623,17.687,241.317,17.687z M241.317,15.791
						c-1.057,0-1.848,0.389-1.848,0.737c0,0.348,0.791,0.737,1.848,0.737c1.061,0,1.85-0.389,1.85-0.737
						C243.162,16.18,242.371,15.791,241.317,15.791z"/>
				</g>
			</g>
		</g>
		<g>
			<g>
				<g>
					<path fill="#FFFFFF" d="M243.59,19.548c0,0.66-0.992,1.158-2.287,1.158c-1.297,0-2.273-0.499-2.273-1.159h0.443
						c0,0.348,0.783,0.737,1.83,0.737s1.828-0.389,1.828-0.737L243.59,19.548z"/>
				</g>
			</g>
		</g>
		<g>
			<g>
				<g>
					<rect x="243.129" y="16.641" fill="#FFFFFF" width="0.469" height="2.914"/>
				</g>
			</g>
		</g>
		<g>
			<g>
				<g>
					<rect x="239.03" y="16.594" fill="#FFFFFF" width="0.438" height="2.96"/>
				</g>
			</g>
		</g>
		<g>
			<g>
				<g>
					<path fill="#FFFFFF" d="M241.317,11.955c-1.309,0-2.295-0.498-2.295-1.159s0.986-1.159,2.295-1.159
						c1.313,0,2.293,0.498,2.293,1.159S242.623,11.955,241.317,11.955z M241.317,10.059c-1.057,0-1.848,0.39-1.848,0.737
						c0,0.348,0.791,0.737,1.848,0.737c1.061,0,1.85-0.389,1.85-0.737C243.16,10.448,242.371,10.059,241.317,10.059z"/>
				</g>
			</g>
		</g>
		<g>
			<g>
				<g>
					<path fill="#FFFFFF" d="M243.59,13.816c0,0.661-0.992,1.158-2.287,1.158c-1.297,0-2.273-0.498-2.273-1.159h0.443
						c0,0.348,0.783,0.737,1.83,0.737s1.828-0.389,1.828-0.737L243.59,13.816z"/>
				</g>
			</g>
		</g>
		<g>
			<g>
				<g>
					<rect x="243.129" y="10.909" fill="#FFFFFF" width="0.469" height="2.914"/>
				</g>
			</g>
		</g>
		<g>
			<g>
				<g>
					<rect x="239.03" y="10.862" fill="#FFFFFF" width="0.438" height="2.96"/>
				</g>
			</g>
		</g>
	</g>
	<g>
		<path fill="#FFFFFF" d="M51.16,37.405h3.141v0.609h-2.455v1.887h2.249v0.609h-2.249v2.051h2.495v0.609H51.16V37.405z"/>
		<path fill="#FFFFFF" d="M57.924,43.171V40.84c0-0.22-0.012-0.411-0.029-0.573c-0.017-0.162-0.056-0.298-0.106-0.408
			c-0.06-0.11-0.138-0.192-0.233-0.247c-0.104-0.055-0.234-0.083-0.399-0.083c-0.253,0-0.463,0.077-0.63,0.231
			c-0.168,0.154-0.282,0.346-0.351,0.577v2.833h-0.66v-4.119h0.462l0.123,0.502h0.033c0.146-0.176,0.314-0.32,0.515-0.433
			c0.195-0.112,0.449-0.168,0.767-0.168c0.265,0,0.479,0.051,0.646,0.152c0.167,0.102,0.298,0.279,0.393,0.531
			c0.128-0.214,0.303-0.382,0.521-0.502c0.223-0.121,0.474-0.181,0.754-0.181c0.229,0,0.425,0.026,0.585,0.078
			c0.159,0.052,0.291,0.144,0.396,0.276c0.104,0.132,0.183,0.31,0.229,0.536c0.047,0.225,0.07,0.51,0.07,0.854v2.471H60.34V40.69
			c0-0.198-0.012-0.369-0.028-0.515c-0.02-0.146-0.058-0.269-0.115-0.363c-0.058-0.096-0.138-0.167-0.233-0.214
			c-0.104-0.047-0.234-0.07-0.399-0.07c-0.271,0-0.487,0.077-0.643,0.231c-0.154,0.154-0.27,0.374-0.329,0.659v2.751H57.93v0.002
			H57.924z"/>
		<path fill="#FFFFFF" d="M62.197,39.053h0.453l0.124,0.494h0.033c0.126-0.192,0.289-0.339,0.49-0.44
			c0.2-0.102,0.429-0.152,0.688-0.152c0.553,0,0.958,0.162,1.229,0.486c0.269,0.324,0.397,0.854,0.397,1.59
			c0,0.346-0.045,0.658-0.136,0.938c-0.091,0.277-0.219,0.512-0.383,0.704c-0.165,0.192-0.364,0.34-0.598,0.445
			c-0.234,0.105-0.493,0.156-0.778,0.156c-0.203,0-0.364-0.012-0.481-0.037c-0.112-0.025-0.242-0.067-0.384-0.128v1.713h-0.659
			L62.197,39.053L62.197,39.053z M63.861,39.53c-0.273,0-0.501,0.073-0.663,0.219c-0.158,0.146-0.271,0.366-0.342,0.663v2.042
			c0.104,0.077,0.212,0.136,0.338,0.177s0.294,0.062,0.503,0.062c0.383,0,0.686-0.142,0.901-0.424
			c0.223-0.283,0.334-0.699,0.334-1.248c0-0.225-0.021-0.43-0.058-0.614c-0.039-0.184-0.104-0.34-0.188-0.469
			s-0.191-0.229-0.329-0.301C64.226,39.566,64.06,39.53,63.861,39.53z"/>
		<path fill="#FFFFFF" d="M67.387,42.158c0,0.192,0.033,0.33,0.099,0.412c0.066,0.083,0.159,0.124,0.28,0.124
			c0.071,0,0.148-0.006,0.229-0.017c0.083-0.011,0.178-0.036,0.276-0.074l0.074,0.519c-0.088,0.044-0.21,0.08-0.366,0.107
			c-0.153,0.027-0.293,0.041-0.404,0.041c-0.247,0-0.448-0.07-0.607-0.21s-0.239-0.377-0.239-0.712v-4.942h0.659L67.387,42.158
			L67.387,42.158z"/>
		<path fill="#FFFFFF" d="M72.066,42.842c-0.164,0.132-0.372,0.236-0.622,0.313c-0.25,0.077-0.515,0.115-0.795,0.115
			c-0.313,0-0.584-0.051-0.813-0.152c-0.23-0.102-0.42-0.247-0.568-0.437c-0.146-0.189-0.258-0.416-0.329-0.68
			c-0.067-0.263-0.104-0.56-0.104-0.89c0-0.703,0.152-1.238,0.471-1.606c0.313-0.368,0.761-0.552,1.343-0.552
			c0.188,0,0.373,0.021,0.563,0.062c0.188,0.041,0.354,0.12,0.503,0.235c0.146,0.115,0.27,0.279,0.358,0.49
			c0.097,0.211,0.145,0.49,0.145,0.836c0,0.181-0.021,0.382-0.052,0.601H69.52c0,0.242,0.025,0.456,0.074,0.643
			c0.05,0.187,0.127,0.345,0.229,0.474c0.104,0.129,0.239,0.228,0.407,0.297c0.167,0.068,0.372,0.103,0.613,0.103
			c0.188,0,0.374-0.033,0.561-0.099c0.188-0.066,0.327-0.143,0.422-0.23L72.066,42.842z M70.649,39.53
			c-0.319,0-0.583,0.085-0.774,0.255c-0.192,0.17-0.313,0.461-0.354,0.874h2.043c0-0.417-0.08-0.71-0.235-0.877
			C71.168,39.615,70.94,39.53,70.649,39.53z"/>
		<path fill="#FFFFFF" d="M72.924,41.112c0-0.697,0.153-1.231,0.466-1.602c0.313-0.371,0.756-0.556,1.339-0.556
			c0.311,0,0.575,0.051,0.807,0.152c0.229,0.101,0.414,0.247,0.563,0.437c0.146,0.19,0.258,0.417,0.329,0.684
			c0.069,0.267,0.104,0.562,0.104,0.885c0,0.698-0.149,1.232-0.466,1.603c-0.311,0.371-0.756,0.556-1.338,0.556
			c-0.308,0-0.576-0.051-0.804-0.152c-0.229-0.101-0.416-0.247-0.564-0.437c-0.146-0.189-0.258-0.417-0.329-0.684
			C72.96,41.731,72.924,41.436,72.924,41.112z M73.607,41.112c0,0.209,0.021,0.409,0.063,0.602c0.041,0.192,0.104,0.36,0.188,0.502
			c0.092,0.143,0.203,0.258,0.352,0.346c0.143,0.088,0.313,0.132,0.52,0.132c0.746,0.005,1.12-0.522,1.12-1.582
			c0-0.214-0.021-0.417-0.063-0.609c-0.041-0.192-0.104-0.359-0.191-0.502s-0.203-0.257-0.346-0.342
			c-0.146-0.085-0.315-0.128-0.521-0.128C73.981,39.525,73.607,40.052,73.607,41.112z"/>
	</g>
	<g>
		<path fill="#FFFFFF" d="M233.658,41.367l0.195,0.874h0.008l0.217-0.89l1.395-3.946h0.688l-2.186,5.857h-0.305l-2.229-5.857h0.75
			L233.658,41.367z"/>
		<path fill="#FFFFFF" d="M236.295,39.357c0.209-0.126,0.449-0.22,0.729-0.28c0.277-0.061,0.566-0.091,0.869-0.091
			c0.285,0,0.52,0.039,0.688,0.115c0.174,0.077,0.305,0.177,0.396,0.301c0.09,0.124,0.15,0.259,0.182,0.408
			c0.03,0.149,0.049,0.296,0.049,0.445c0,0.33-0.014,0.651-0.023,0.964c-0.018,0.313-0.022,0.609-0.022,0.89
			c0,0.203,0.009,0.396,0.022,0.577s0.047,0.349,0.09,0.502h-0.482l-0.174-0.577h-0.041c-0.053,0.077-0.107,0.152-0.188,0.227
			c-0.076,0.075-0.164,0.14-0.27,0.198c-0.104,0.058-0.229,0.105-0.361,0.144c-0.139,0.038-0.293,0.058-0.471,0.058
			c-0.18,0-0.344-0.027-0.488-0.083c-0.15-0.055-0.281-0.133-0.396-0.235c-0.105-0.102-0.191-0.224-0.26-0.366
			c-0.063-0.143-0.096-0.305-0.096-0.486c0-0.241,0.051-0.443,0.146-0.605c0.104-0.162,0.238-0.291,0.416-0.387
			c0.184-0.096,0.396-0.165,0.646-0.206c0.25-0.042,0.521-0.062,0.828-0.062c0.07,0,0.146,0,0.227,0s0.148,0.006,0.229,0.017
			c0.018-0.165,0.021-0.313,0.021-0.445c0-0.302-0.061-0.513-0.182-0.634s-0.344-0.181-0.66-0.181c-0.092,0-0.193,0.007-0.301,0.021
			c-0.105,0.014-0.219,0.034-0.328,0.06c-0.113,0.026-0.223,0.057-0.322,0.093c-0.1,0.036-0.188,0.078-0.268,0.123L236.295,39.357z
			 M237.465,42.661c0.152,0,0.291-0.021,0.412-0.062c0.121-0.042,0.225-0.094,0.313-0.157s0.162-0.133,0.223-0.21
			c0.061-0.077,0.102-0.151,0.127-0.223v-0.686c-0.074-0.005-0.152-0.009-0.232-0.012s-0.158-0.004-0.233-0.004
			c-0.171,0-0.337,0.01-0.497,0.029c-0.16,0.02-0.307,0.055-0.43,0.107c-0.125,0.052-0.223,0.124-0.297,0.214
			c-0.074,0.091-0.11,0.205-0.11,0.342c0,0.192,0.067,0.35,0.204,0.474C237.074,42.599,237.25,42.661,237.465,42.661z"/>
		<path fill="#FFFFFF" d="M242.391,39.687c-0.164-0.055-0.32-0.083-0.469-0.083c-0.236,0-0.424,0.065-0.563,0.194
			c-0.137,0.129-0.223,0.292-0.256,0.49v2.883h-0.658v-4.119h0.461l0.123,0.502h0.033c0.105-0.188,0.23-0.331,0.375-0.433
			c0.146-0.102,0.332-0.152,0.561-0.152c0.154,0,0.34,0.028,0.531,0.083L242.391,39.687z"/>
		<path fill="#FFFFFF" d="M243.248,37.801c0-0.126,0.043-0.235,0.127-0.326c0.086-0.09,0.188-0.136,0.324-0.136
			c0.133,0,0.24,0.045,0.338,0.136c0.096,0.091,0.143,0.199,0.143,0.326s-0.047,0.229-0.143,0.313
			c-0.098,0.083-0.205,0.124-0.338,0.124c-0.137,0-0.238-0.041-0.324-0.124C243.291,38.031,243.248,37.927,243.248,37.801z
			 M243.389,39.053h0.658v4.119h-0.658V39.053z"/>
		<path fill="#FFFFFF" d="M245.225,41.112c0-0.697,0.154-1.231,0.465-1.602c0.313-0.371,0.756-0.556,1.34-0.556
			c0.313,0,0.574,0.051,0.809,0.152c0.227,0.101,0.416,0.247,0.563,0.437c0.148,0.19,0.26,0.417,0.328,0.684
			c0.072,0.267,0.107,0.562,0.107,0.885c0,0.698-0.154,1.232-0.467,1.603c-0.313,0.371-0.76,0.556-1.342,0.556
			c-0.309,0-0.572-0.051-0.805-0.152c-0.229-0.101-0.416-0.247-0.563-0.437c-0.146-0.189-0.262-0.417-0.326-0.684
			C245.26,41.731,245.225,41.436,245.225,41.112z M245.906,41.112c0,0.209,0.021,0.409,0.064,0.602
			c0.041,0.192,0.104,0.36,0.191,0.502c0.09,0.143,0.199,0.258,0.348,0.346c0.143,0.088,0.313,0.132,0.52,0.132
			c0.746,0.005,1.119-0.522,1.119-1.582c0-0.214-0.02-0.417-0.063-0.609c-0.041-0.192-0.105-0.359-0.193-0.502
			s-0.203-0.257-0.346-0.342c-0.146-0.085-0.314-0.128-0.521-0.128C246.281,39.525,245.906,40.052,245.906,41.112z"/>
		<path fill="#FFFFFF" d="M251.682,42.051c0-0.165-0.049-0.294-0.146-0.387c-0.102-0.093-0.225-0.172-0.363-0.235
			c-0.146-0.063-0.311-0.124-0.48-0.181s-0.332-0.132-0.477-0.223c-0.146-0.09-0.271-0.207-0.367-0.35
			c-0.102-0.145-0.146-0.334-0.146-0.577c0-0.395,0.109-0.685,0.338-0.869c0.227-0.184,0.537-0.276,0.938-0.276
			c0.295,0,0.545,0.026,0.744,0.078c0.201,0.052,0.375,0.114,0.521,0.185l-0.154,0.544c-0.127-0.063-0.279-0.114-0.457-0.161
			c-0.18-0.047-0.369-0.07-0.572-0.07c-0.242,0-0.42,0.042-0.531,0.124c-0.109,0.083-0.17,0.226-0.17,0.429
			c0,0.143,0.054,0.254,0.148,0.333s0.221,0.151,0.365,0.214c0.146,0.063,0.307,0.125,0.479,0.185
			c0.174,0.061,0.332,0.14,0.479,0.239c0.146,0.099,0.27,0.224,0.361,0.375c0.104,0.151,0.148,0.35,0.148,0.597
			c0,0.176-0.029,0.341-0.086,0.494c-0.063,0.154-0.146,0.286-0.271,0.396c-0.121,0.11-0.271,0.196-0.445,0.259
			c-0.182,0.063-0.393,0.095-0.635,0.095c-0.313,0-0.574-0.03-0.799-0.09c-0.219-0.061-0.398-0.132-0.551-0.214l0.197-0.56
			c0.127,0.071,0.291,0.137,0.492,0.198c0.199,0.061,0.404,0.091,0.613,0.091c0.236,0,0.438-0.047,0.586-0.14
			C251.604,42.461,251.682,42.293,251.682,42.051z"/>
	</g>
	<g>
		<g>
			<g>
				<path fill="#FFFFFF" d="M181.334,36.391c-2.625,0-4.768-2.141-4.768-4.773c0-1.178,0.459-2.293,1.268-3.168h-6.063v-8.022
					l-0.438,0.445l-1.285-1.96l11.479-8.462l11.479,8.511l-1.748,1.812l-1.131-0.674v8.047l-5.52,0.088
					c0.938,0.904,1.479,2.112,1.479,3.39C186.094,34.251,183.959,36.391,181.334,36.391z M179.047,28.449
					c-1.039,0.775-1.658,1.933-1.658,3.168c0,2.182,1.771,3.958,3.945,3.958s3.939-1.771,3.939-3.954
					c0-1.345-0.732-2.599-1.953-3.369l-0.428,0.007l-0.004-0.25l-0.246-0.123l0.074-0.503l0.828-0.993l-1.154-0.002v-9.391
					l-0.889-0.901l-1.279,1.292v0.643l0.764,1.117l-1.318,1.291v0.326l1.318,1.361l-1.07,1.238l0.684,0.652v2.186h-1.428
					l0.758,1.168l0.084,0.514l-0.27,0.135c-0.229,0.113-0.438,0.241-0.637,0.382v0.049L179.047,28.449L179.047,28.449z
					 M172.586,27.633h6.201c0.074-0.053,0.154-0.104,0.236-0.153l-0.752-1.158c-0.104-0.168-0.176-0.425-0.053-0.648
					c0.059-0.107,0.209-0.288,0.553-0.288h1.012v-1.021l-0.996-0.949l1.098-1.26l-1.033-1.063v-1.002l1.08-1.052l-0.521-0.757v-1.23
					l2.1-2.116l1.703,1.726v8.909h0.639c0.236,0.008,0.521,0.11,0.643,0.375c0.109,0.249,0.045,0.53-0.205,0.836l-0.535,0.646
					l5.563-0.089v-8.68l1.813,1.079l0.651-0.678l-10.243-7.598l-10.375,7.646l0.307,0.466l1.127-1.15L172.586,27.633L172.586,27.633
					z"/>
			</g>
		</g>
		<g>
			<g>
				<path fill="#FFFFFF" d="M181.416,35.524c-0.814,0-1.479-0.663-1.479-1.477c0-0.815,0.662-1.478,1.479-1.478
					c0.813,0,1.477,0.663,1.477,1.478S182.231,35.524,181.416,35.524z M181.416,33.182c-0.479,0-0.865,0.388-0.865,0.866
					c0,0.477,0.389,0.866,0.865,0.866c0.479,0,0.859-0.389,0.859-0.866C182.28,33.57,181.895,33.182,181.416,33.182z"/>
			</g>
		</g>
	</g>
	<g>
		<path fill="#FFFFFF" d="M166.494,37.739h3.141v0.609h-2.455v1.969h2.289v0.61h-2.289v2.578h-0.686V37.739L166.494,37.739z"/>
		<path fill="#FFFFFF" d="M170.688,38.134c0-0.126,0.043-0.235,0.127-0.326c0.086-0.09,0.193-0.136,0.326-0.136
			c0.131,0,0.244,0.045,0.338,0.136c0.094,0.091,0.145,0.199,0.145,0.326s-0.049,0.229-0.145,0.313
			c-0.094,0.083-0.207,0.124-0.338,0.124c-0.133,0-0.24-0.041-0.326-0.124C170.731,38.364,170.688,38.261,170.688,38.134z
			 M170.826,39.386h0.656v4.119h-0.656V39.386z"/>
		<path fill="#FFFFFF" d="M175.537,43.505v-2.348c0-0.428-0.063-0.751-0.188-0.968c-0.123-0.217-0.35-0.326-0.68-0.326
			c-0.291,0-0.531,0.079-0.727,0.235c-0.188,0.157-0.316,0.353-0.396,0.589v2.817h-0.66v-4.119h0.463l0.123,0.502h0.033
			c0.131-0.176,0.309-0.32,0.531-0.433c0.223-0.112,0.48-0.168,0.795-0.168c0.225,0,0.422,0.026,0.592,0.078
			c0.172,0.052,0.313,0.146,0.426,0.276c0.111,0.131,0.197,0.309,0.254,0.531c0.063,0.223,0.088,0.504,0.088,0.844v2.488h-0.654
			V43.505L175.537,43.505z"/>
		<path fill="#FFFFFF" d="M180.209,43.233c-0.164,0.121-0.359,0.213-0.584,0.276c-0.229,0.063-0.463,0.095-0.709,0.095
			c-0.318,0-0.59-0.051-0.813-0.152c-0.221-0.101-0.396-0.247-0.541-0.437c-0.139-0.189-0.236-0.417-0.305-0.684
			c-0.063-0.266-0.094-0.562-0.094-0.886c0-0.697,0.148-1.231,0.461-1.602c0.309-0.371,0.75-0.556,1.326-0.556
			c0.264,0,0.482,0.021,0.672,0.062c0.184,0.041,0.35,0.1,0.498,0.177l-0.189,0.568c-0.127-0.071-0.266-0.128-0.42-0.169
			s-0.318-0.063-0.494-0.063c-0.775,0-1.17,0.527-1.17,1.582c0,0.209,0.021,0.408,0.063,0.598c0.041,0.189,0.104,0.357,0.205,0.502
			c0.098,0.146,0.223,0.262,0.381,0.35c0.15,0.088,0.35,0.132,0.58,0.132c0.191,0,0.375-0.03,0.525-0.091
			c0.156-0.061,0.283-0.129,0.387-0.206L180.209,43.233z"/>
		<path fill="#FFFFFF" d="M181.049,39.691c0.209-0.126,0.451-0.22,0.729-0.28c0.277-0.061,0.566-0.091,0.869-0.091
			c0.285,0,0.52,0.039,0.688,0.115c0.174,0.077,0.305,0.177,0.396,0.301c0.09,0.124,0.15,0.259,0.184,0.408
			c0.028,0.149,0.049,0.296,0.049,0.445c0,0.33-0.016,0.651-0.025,0.964c-0.016,0.313-0.021,0.609-0.021,0.89
			c0,0.203,0.01,0.396,0.021,0.577c0.017,0.181,0.047,0.349,0.09,0.502h-0.48l-0.174-0.577h-0.041
			c-0.055,0.077-0.109,0.152-0.188,0.227c-0.076,0.075-0.164,0.14-0.27,0.198c-0.104,0.058-0.229,0.105-0.361,0.144
			c-0.139,0.038-0.293,0.058-0.471,0.058c-0.18,0-0.342-0.027-0.488-0.083c-0.15-0.055-0.281-0.133-0.394-0.235
			c-0.108-0.102-0.194-0.224-0.263-0.366c-0.063-0.143-0.096-0.305-0.096-0.486c0-0.241,0.051-0.443,0.146-0.605
			c0.104-0.162,0.237-0.291,0.415-0.387c0.184-0.096,0.396-0.165,0.646-0.206c0.25-0.042,0.521-0.062,0.828-0.062
			c0.074,0,0.146,0,0.227,0s0.148,0.006,0.229,0.017c0.016-0.165,0.021-0.313,0.021-0.445c0-0.302-0.061-0.513-0.182-0.634
			s-0.342-0.181-0.66-0.181c-0.092,0-0.193,0.007-0.301,0.021c-0.105,0.014-0.217,0.034-0.328,0.06
			c-0.113,0.026-0.221,0.057-0.322,0.093c-0.1,0.036-0.188,0.078-0.268,0.123L181.049,39.691z M182.219,42.994
			c0.154,0,0.291-0.021,0.412-0.062c0.121-0.042,0.225-0.094,0.313-0.157c0.09-0.063,0.162-0.133,0.223-0.21
			s0.102-0.151,0.129-0.223V41.66c-0.076-0.005-0.154-0.009-0.234-0.012s-0.158-0.004-0.23-0.004c-0.173,0-0.338,0.01-0.498,0.029
			c-0.162,0.02-0.309,0.055-0.432,0.107c-0.125,0.052-0.223,0.124-0.297,0.214c-0.074,0.091-0.107,0.205-0.107,0.342
			c0,0.192,0.064,0.35,0.201,0.474C181.828,42.933,182.004,42.994,182.219,42.994z"/>
		<path fill="#FFFFFF" d="M187.467,37.796c0.209-0.038,0.449-0.068,0.721-0.091c0.271-0.021,0.521-0.033,0.744-0.033
			c0.254,0,0.494,0.027,0.721,0.083c0.23,0.055,0.436,0.146,0.604,0.271c0.174,0.126,0.313,0.292,0.416,0.495
			c0.103,0.203,0.154,0.45,0.154,0.741c0,0.45-0.123,0.815-0.367,1.096c-0.248,0.28-0.563,0.467-0.939,0.56l0.396,0.305l1.434,2.282
			h-0.799l-1.59-2.488l-0.813-0.124v2.611h-0.684L187.467,37.796L187.467,37.796z M188.948,38.266c-0.064,0-0.145,0-0.221,0
			c-0.078,0-0.148,0.002-0.223,0.008c-0.072,0.005-0.145,0.011-0.203,0.016c-0.063,0.006-0.113,0.014-0.152,0.025v2.125h0.646
			c0.379,0,0.688-0.093,0.938-0.28s0.371-0.478,0.371-0.873c0-0.297-0.102-0.541-0.305-0.733
			C189.594,38.362,189.311,38.266,188.948,38.266z"/>
		<path fill="#FFFFFF" d="M192.153,39.691c0.209-0.126,0.451-0.22,0.73-0.28c0.271-0.061,0.563-0.091,0.867-0.091
			c0.285,0,0.516,0.039,0.688,0.115c0.174,0.077,0.309,0.177,0.396,0.301s0.146,0.259,0.182,0.408
			c0.031,0.149,0.045,0.296,0.045,0.445c0,0.33-0.008,0.651-0.021,0.964c-0.02,0.313-0.021,0.609-0.021,0.89
			c0,0.203,0.008,0.396,0.021,0.577c0.018,0.181,0.049,0.349,0.094,0.502h-0.488l-0.174-0.577h-0.041
			c-0.049,0.077-0.111,0.152-0.188,0.227c-0.07,0.075-0.16,0.14-0.27,0.198c-0.108,0.058-0.227,0.105-0.361,0.144
			c-0.139,0.038-0.295,0.058-0.471,0.058s-0.338-0.027-0.49-0.083c-0.146-0.055-0.277-0.133-0.391-0.235s-0.195-0.224-0.26-0.366
			c-0.063-0.143-0.1-0.305-0.1-0.486c0-0.241,0.053-0.443,0.148-0.605c0.098-0.162,0.234-0.291,0.416-0.387
			c0.178-0.096,0.393-0.165,0.643-0.206c0.248-0.042,0.525-0.062,0.826-0.062c0.078,0,0.152,0,0.229,0
			c0.07,0,0.146,0.006,0.227,0.017c0.021-0.165,0.025-0.313,0.025-0.445c0-0.302-0.063-0.513-0.188-0.634s-0.34-0.181-0.654-0.181
			c-0.098,0-0.191,0.007-0.305,0.021c-0.104,0.014-0.217,0.034-0.33,0.06c-0.105,0.026-0.219,0.057-0.314,0.093
			c-0.104,0.036-0.191,0.078-0.271,0.123L192.153,39.691z M193.323,42.994c0.152,0,0.291-0.021,0.412-0.062
			c0.119-0.042,0.229-0.094,0.313-0.157c0.088-0.063,0.162-0.133,0.219-0.21c0.063-0.077,0.104-0.151,0.127-0.223V41.66
			c-0.076-0.005-0.154-0.009-0.23-0.012c-0.08-0.003-0.156-0.004-0.232-0.004c-0.17,0-0.336,0.01-0.498,0.029
			c-0.162,0.02-0.305,0.055-0.428,0.107c-0.125,0.052-0.229,0.124-0.299,0.214c-0.072,0.091-0.109,0.205-0.109,0.342
			c0,0.192,0.066,0.35,0.205,0.474C192.932,42.933,193.108,42.994,193.323,42.994z"/>
		<path fill="#FFFFFF" d="M196.444,39.386h0.66v4.119h-0.66V39.386z"/>
		<path fill="#FFFFFF" d="M198.223,42.928l1.904-2.62l0.346-0.346h-2.25v-0.577h2.938v0.577l-1.912,2.644l-0.338,0.321h2.25v0.577
			h-2.938V42.928L198.223,42.928z"/>
	</g>
	<g>
		<path fill="#FFFFFF" d="M107.993,42.034l0.194,0.874h0.012l0.214-0.89l1.395-3.946h0.688l-2.187,5.857h-0.305l-2.229-5.857h0.75
			L107.993,42.034z"/>
		<path fill="#FFFFFF" d="M113.636,43.509c-0.164,0.132-0.372,0.236-0.622,0.313c-0.25,0.077-0.515,0.115-0.795,0.115
			c-0.313,0-0.584-0.051-0.815-0.152c-0.229-0.102-0.42-0.247-0.563-0.437c-0.147-0.189-0.26-0.416-0.329-0.68
			c-0.071-0.263-0.107-0.56-0.107-0.89c0-0.703,0.157-1.238,0.474-1.606c0.313-0.368,0.763-0.552,1.345-0.552
			c0.188,0,0.373,0.021,0.563,0.062c0.188,0.041,0.354,0.12,0.502,0.235c0.146,0.115,0.271,0.279,0.36,0.49
			c0.095,0.211,0.145,0.49,0.145,0.836c0,0.181-0.021,0.382-0.054,0.601h-2.645c0,0.242,0.021,0.456,0.072,0.643
			c0.051,0.187,0.127,0.345,0.229,0.474c0.104,0.129,0.239,0.228,0.407,0.297c0.167,0.068,0.372,0.103,0.611,0.103
			c0.188,0,0.374-0.033,0.563-0.099c0.188-0.066,0.327-0.143,0.42-0.23L113.636,43.509z M112.219,40.197
			c-0.323,0-0.583,0.085-0.778,0.255c-0.188,0.17-0.312,0.461-0.35,0.874h2.043c0-0.417-0.08-0.71-0.239-0.877
			S112.51,40.197,112.219,40.197z"/>
		<path fill="#FFFFFF" d="M117.459,43.838V41.49c0-0.214-0.019-0.402-0.037-0.563c-0.024-0.162-0.07-0.296-0.138-0.403
			c-0.064-0.107-0.153-0.188-0.271-0.243c-0.112-0.055-0.26-0.083-0.438-0.083c-0.263,0-0.49,0.084-0.698,0.251
			c-0.209,0.167-0.35,0.383-0.404,0.646v2.743h-0.659v-5.766h0.659v2.109h0.033c0.143-0.17,0.313-0.306,0.515-0.408
			s0.449-0.152,0.746-0.152c0.23,0,0.435,0.026,0.604,0.078c0.173,0.052,0.313,0.146,0.427,0.276
			c0.106,0.132,0.188,0.309,0.247,0.531c0.052,0.223,0.076,0.504,0.076,0.844v2.488H117.459L117.459,43.838z"/>
		<path fill="#FFFFFF" d="M119.461,39.72h0.657v4.119h-0.657V39.72z"/>
		<path fill="#FFFFFF" d="M124.337,43.566c-0.165,0.121-0.36,0.213-0.585,0.276c-0.229,0.063-0.461,0.095-0.708,0.095
			c-0.319,0-0.588-0.051-0.813-0.152c-0.22-0.101-0.396-0.247-0.54-0.437c-0.14-0.189-0.237-0.417-0.305-0.684
			c-0.063-0.266-0.095-0.562-0.095-0.886c0-0.697,0.148-1.231,0.462-1.602c0.308-0.371,0.749-0.556,1.326-0.556
			c0.264,0,0.481,0.021,0.671,0.062c0.184,0.041,0.351,0.1,0.498,0.177l-0.189,0.568c-0.126-0.071-0.266-0.128-0.42-0.169
			c-0.153-0.041-0.318-0.063-0.494-0.063c-0.775,0-1.17,0.527-1.17,1.582c0,0.209,0.021,0.408,0.063,0.598
			c0.041,0.189,0.104,0.357,0.206,0.502c0.096,0.146,0.222,0.262,0.379,0.35c0.15,0.088,0.35,0.132,0.58,0.132
			c0.192,0,0.375-0.03,0.525-0.091c0.157-0.061,0.284-0.129,0.386-0.206L124.337,43.566z"/>
		<path fill="#FFFFFF" d="M125.836,39.72v2.348c0,0.214,0.012,0.402,0.037,0.564c0.021,0.162,0.063,0.296,0.128,0.403
			c0.06,0.107,0.143,0.188,0.247,0.243c0.104,0.055,0.229,0.083,0.395,0.083c0.148,0,0.28-0.023,0.396-0.07
			c0.111-0.046,0.221-0.111,0.312-0.193c0.09-0.083,0.17-0.177,0.238-0.284c0.063-0.107,0.125-0.221,0.169-0.342V39.72h0.659v2.949
			c0,0.198,0.007,0.402,0.021,0.614c0.018,0.212,0.037,0.397,0.07,0.556h-0.453l-0.165-0.651h-0.041
			c-0.126,0.214-0.297,0.393-0.511,0.536c-0.215,0.143-0.486,0.214-0.815,0.214c-0.22,0-0.413-0.026-0.581-0.078
			c-0.167-0.052-0.308-0.144-0.42-0.276c-0.108-0.132-0.193-0.309-0.255-0.531c-0.058-0.223-0.087-0.504-0.087-0.844V39.72H125.836z
			"/>
		<path fill="#FFFFFF" d="M130.415,42.825c0,0.192,0.027,0.33,0.099,0.412c0.064,0.083,0.159,0.124,0.28,0.124
			c0.065,0,0.146-0.006,0.229-0.017c0.083-0.011,0.178-0.036,0.28-0.074l0.074,0.519c-0.088,0.044-0.21,0.08-0.366,0.107
			c-0.157,0.027-0.293,0.041-0.408,0.041c-0.247,0-0.45-0.07-0.605-0.21c-0.157-0.14-0.237-0.377-0.237-0.712v-4.942h0.659
			L130.415,42.825L130.415,42.825z"/>
		<path fill="#FFFFFF" d="M131.856,41.779c0-0.697,0.155-1.231,0.466-1.602c0.313-0.371,0.76-0.556,1.343-0.556
			c0.309,0,0.571,0.051,0.805,0.152c0.228,0.101,0.416,0.247,0.563,0.437s0.261,0.417,0.328,0.684
			c0.071,0.267,0.107,0.562,0.107,0.885c0,0.698-0.155,1.232-0.466,1.603c-0.313,0.371-0.758,0.556-1.34,0.556
			c-0.312,0-0.574-0.051-0.808-0.152c-0.228-0.101-0.416-0.247-0.563-0.437c-0.147-0.189-0.264-0.417-0.329-0.684
			C131.892,42.398,131.856,42.103,131.856,41.779z M132.54,41.779c0,0.209,0.021,0.409,0.063,0.602
			c0.041,0.192,0.105,0.36,0.193,0.502c0.088,0.142,0.203,0.258,0.346,0.346c0.146,0.088,0.315,0.132,0.521,0.132
			c0.746,0.005,1.116-0.522,1.116-1.582c0-0.214-0.021-0.417-0.063-0.609c-0.041-0.192-0.105-0.359-0.193-0.502
			s-0.203-0.257-0.346-0.342c-0.145-0.085-0.315-0.128-0.521-0.128C132.913,40.192,132.54,40.719,132.54,41.779z"/>
		<path fill="#FFFFFF" d="M138.314,42.718c0-0.165-0.049-0.294-0.146-0.387c-0.104-0.093-0.227-0.172-0.366-0.235
			c-0.146-0.063-0.307-0.124-0.479-0.181c-0.172-0.057-0.331-0.132-0.478-0.223c-0.146-0.09-0.271-0.207-0.367-0.35
			c-0.099-0.145-0.146-0.334-0.146-0.577c0-0.395,0.109-0.685,0.34-0.869c0.226-0.184,0.538-0.276,0.938-0.276
			c0.296,0,0.545,0.026,0.745,0.078c0.2,0.052,0.375,0.114,0.523,0.188l-0.157,0.544c-0.126-0.063-0.278-0.114-0.457-0.161
			c-0.178-0.047-0.369-0.07-0.572-0.07c-0.238,0-0.419,0.042-0.527,0.124c-0.11,0.083-0.171,0.226-0.171,0.429
			c0,0.143,0.052,0.254,0.146,0.333s0.221,0.151,0.366,0.214c0.145,0.063,0.305,0.125,0.479,0.185
			c0.175,0.061,0.332,0.14,0.479,0.239c0.146,0.099,0.268,0.224,0.364,0.375c0.1,0.151,0.146,0.35,0.146,0.597
			c0,0.176-0.029,0.341-0.087,0.494c-0.06,0.154-0.146,0.286-0.271,0.396c-0.117,0.11-0.271,0.196-0.443,0.259
			c-0.185,0.063-0.395,0.095-0.633,0.095c-0.313,0-0.577-0.03-0.803-0.09c-0.22-0.061-0.397-0.132-0.552-0.214l0.197-0.562
			c0.127,0.071,0.291,0.137,0.494,0.198s0.407,0.091,0.616,0.091c0.232,0,0.434-0.047,0.587-0.14
			C138.235,43.128,138.314,42.96,138.314,42.718z"/>
	</g>
	<path fill="#FFFFFF" d="M120.181,37.893h0.694v0.164l-0.787,0.998h-0.367L120.181,37.893z"/>
	<path fill="#FFFFFF" d="M197.161,37.768h0.688v0.164l-0.787,0.998H196.7L197.161,37.768z"/>
</g>
<g>
	<g>
		<path fill="#FFFFFF" d="M69.277,92.274v-3.18h-9.895v3.18h-7.42v16.251h24.731V92.274H69.277z M60.158,89.869h8.41v2.405h-8.41
			V89.869L60.158,89.869z M75.99,92.98v4.593h-8.834v-1.021c0-0.139-0.396-0.463-0.547-0.463h-4.696
			c-0.152,0-0.409,0.324-0.409,0.463v1.021H52.67V92.98H75.99z M66.448,96.93v1.99c0,0.101-0.008,0.066-0.12,0.066h-3.716
			c-0.111,0-0.403,0.034-0.403-0.066v-1.99c0-0.1,0.292-0.063,0.403-0.063h3.716C66.442,96.867,66.448,96.83,66.448,96.93z
			 M52.67,107.818v-9.539h8.833v1.016c0,0.14,0.257,0.397,0.409,0.397h5.116c0.151,0,0.126-0.258,0.126-0.397v-1.016h8.834v9.539
			H52.67z"/>
	</g>
	<g>
		<g>
			<g>
				<path fill="#FFFFFF" d="M112.284,109.283h-2.042c-0.619,0-1.165-0.396-1.358-0.982c-0.035-0.118-0.013-0.248,0.068-0.342
					c0.083-0.095,0.206-0.14,0.329-0.119c1.242,0.214,3.314,0.551,3.592,0.551h0.001c0.272,0,0.408,0.188,0.408,0.363
					C113.282,109.244,112.294,109.283,112.284,109.283z"/>
			</g>
		</g>
		<g>
			<g>
				<path fill="#FFFFFF" d="M133.504,109.283h-2.041c-0.01,0-0.986-0.121-0.986-0.602c0-0.195,0.191-0.368,0.395-0.368l0,0
					c0.298,0,2.369-0.315,3.605-0.515c0.125-0.02,0.247,0.025,0.323,0.119c0.081,0.095,0.105,0.225,0.066,0.342
					C134.668,108.861,134.109,109.283,133.504,109.283z"/>
			</g>
		</g>
		<g>
			<g>
				<path fill="#FFFFFF" d="M114.298,109.203c-0.008,0-0.015,0-0.021-0.002c-2.326-0.136-6.281-0.518-6.628-1.558
					c-0.026-0.076-0.024-0.159,0.003-0.233l0.336-0.912c-0.188-0.662-1.022-3.92-0.378-7.412c0.013-0.1,0.403-2.877,3.502-4.547
					c0.017-0.009,0.034-0.017,0.052-0.025h-1.137c-0.248-0.02-0.688-0.182-0.765-0.668c-0.021-0.131,0.03-0.262,0.142-0.342
					l0.645-0.475c0.063-0.045,0.142-0.068,0.211-0.068h1.701c0.125,0,0.238,0.064,0.305,0.166l2.854-3.821
					c0.067-0.091,0.173-0.142,0.284-0.142h12.137c0.108,0,0.21,0.049,0.277,0.133l3.271,4.119c0.065-0.097,0.179-0.156,0.294-0.156
					h1.854c0.047,0,0.094,0.01,0.137,0.027c0.332,0.141,0.879,0.442,0.836,0.896c-0.038,0.413-0.563,0.718-0.787,0.83
					c-0.049,0.024-0.102,0.036-0.152,0.038l-0.771,0.005c0.042,0.026,0.087,0.055,0.133,0.085c0.758,0.472,3.229,2.207,3.363,4.695
					c0.013,0.137,0.328,3.676-0.197,6.736l0.153,1.018c0.015,0.101-0.014,0.203-0.08,0.281c-0.142,0.168-1.121,1.017-6.407,1.227
					c-0.045,0.003-0.082-0.003-0.121-0.016l-1.586-0.496l-11.439,0.055l-1.914,0.55
					C114.365,109.197,114.331,109.203,114.298,109.203z M108.381,107.484c0.472,0.387,3.053,0.836,5.877,1.005l1.904-0.547
					c0.03-0.009,0.063-0.014,0.096-0.014l11.557-0.054l0,0c0.035,0,0.066,0.004,0.104,0.016l1.579,0.492
					c3.981-0.163,5.339-0.701,5.721-0.908l-0.128-0.855c-0.006-0.037-0.006-0.076,0.001-0.113c0.522-2.979,0.2-6.584,0.197-6.62
					c-0.122-2.216-2.546-3.843-3.032-4.146c-0.867-0.545-1.087-0.743-1.133-0.791c-0.1-0.104-0.127-0.255-0.07-0.386
					c0.021-0.051,0.059-0.095,0.099-0.13c-0.071-0.013-0.144-0.047-0.188-0.101l-0.201-0.207l-3.385-4.254h-11.79l-2.965,3.961
					c-0.045,0.062-0.107,0.106-0.182,0.129l-0.153,0.045c0.03,0.063,0.04,0.134,0.03,0.205c-0.091,0.599-0.813,0.929-0.896,0.965
					c-2.753,1.486-3.104,3.994-3.105,4.021c-0.683,3.673,0.379,7.177,0.391,7.211c0.021,0.074,0.021,0.154-0.006,0.229
					L108.381,107.484z M131.448,94.349l0.344,0.001l1.382-0.01c0.107-0.062,0.219-0.137,0.28-0.196
					c-0.071-0.056-0.188-0.124-0.293-0.176h-1.529l-0.09,0.241C131.522,94.264,131.49,94.311,131.448,94.349z M110.377,93.67
					l-0.184,0.135l1.478-0.001c-0.003-0.013-0.006-0.027-0.008-0.04l-0.013-0.094H110.377z"/>
			</g>
		</g>
		<g>
			<g>
				<path fill="#FFFFFF" d="M130.115,95.198c-0.001,0-0.002,0-0.004,0l-17.08-0.202c-0.133,0-0.253-0.076-0.313-0.195
					c-0.059-0.118-0.047-0.262,0.031-0.368l2.984-4.083c0.063-0.092,0.172-0.146,0.287-0.146h10.885
					c0.109,0,0.217,0.053,0.283,0.143l3.17,4.232c0.072,0.064,0.12,0.159,0.12,0.267c0,0.196-0.157,0.354-0.354,0.354
					C130.121,95.199,130.117,95.199,130.115,95.198z M113.728,94.295L129.4,94.48l-2.672-3.568H116.2L113.728,94.295z"/>
			</g>
		</g>
		<g>
			<g>
				<path fill="#FFFFFF" d="M113.877,102.084c-0.014,0-0.027-0.002-0.045-0.004l-4.432-0.582l-0.545,0.129
					c-0.105,0.024-0.225,0-0.31-0.068l-0.533-0.432c-0.106-0.086-0.153-0.227-0.12-0.36l0.566-2.345
					c0.022-0.094,0.084-0.176,0.167-0.224c0.084-0.048,0.188-0.063,0.276-0.034l4.764,1.379c0.131,0.039,0.229,0.148,0.252,0.283
					l0.309,1.844c0.02,0.111-0.021,0.225-0.1,0.306C114.066,102.045,113.973,102.084,113.877,102.084z M109.382,100.783
					c0.021,0,0.031,0.002,0.05,0.004l4.021,0.528l-0.188-1.151l-4.19-1.215l-0.435,1.766l0.229,0.182l0.438-0.104
					C109.328,100.787,109.357,100.783,109.382,100.783z"/>
			</g>
		</g>
		<g>
			<g>
				<path fill="#FFFFFF" d="M129.943,102.084c-0.102,0-0.188-0.039-0.256-0.108c-0.078-0.081-0.113-0.194-0.101-0.306l0.31-1.844
					c0.021-0.134,0.117-0.244,0.25-0.283l4.649-1.377c0.099-0.028,0.193-0.017,0.278,0.032c0.084,0.048,0.146,0.13,0.168,0.224
					l0.572,2.345c0.032,0.134-0.021,0.274-0.121,0.36l-0.539,0.432c-0.085,0.068-0.197,0.093-0.303,0.068l-0.545-0.129l-4.322,0.582
					C129.973,102.084,129.957,102.084,129.943,102.084z M130.561,100.162l-0.19,1.151l3.912-0.526
					c0.043-0.006,0.085-0.004,0.127,0.006l0.44,0.104l0.228-0.181l-0.432-1.764L130.561,100.162z"/>
			</g>
		</g>
		<g>
			<g>
				<path fill="#FFFFFF" d="M114.129,108.352c-0.014,0-0.021,0-0.039-0.002c-5.289-0.576-5.545-1.051-5.629-1.206
					c-0.015-0.026-0.021-0.056-0.029-0.085c-0.012-0.035-0.203-0.868-0.438-2.891c-0.014-0.119,0.034-0.237,0.128-0.314
					c0.093-0.076,0.219-0.1,0.333-0.063l5.122,1.647c0.061,0.019,0.113,0.054,0.154,0.101l1.521,1.684
					c0.069,0.078,0.104,0.183,0.088,0.287c-0.016,0.104-0.07,0.195-0.164,0.252l-0.854,0.537
					C114.259,108.334,114.196,108.352,114.129,108.352z M109.093,106.781c0.483,0.241,2.86,0.617,4.95,0.85l0.396-0.248
					l-1.176-1.299l-4.51-1.448C108.914,105.853,109.043,106.531,109.093,106.781z"/>
			</g>
		</g>
		<g>
			<g>
				<path fill="#FFFFFF" d="M129.619,108.352c-0.063,0-0.133-0.018-0.188-0.055l-0.856-0.537c-0.089-0.057-0.149-0.148-0.163-0.252
					c-0.015-0.104,0.021-0.209,0.088-0.286l1.521-1.685c0.042-0.045,0.095-0.08,0.148-0.1l5.123-1.648
					c0.113-0.037,0.239-0.013,0.333,0.063c0.097,0.077,0.146,0.194,0.127,0.315c-0.229,2.021-0.43,2.854-0.437,2.89
					c-0.009,0.03-0.021,0.06-0.033,0.085c-0.084,0.154-0.34,0.63-5.628,1.206C129.645,108.352,129.631,108.352,129.619,108.352z
					 M129.306,107.383l0.396,0.248c2.089-0.231,4.467-0.607,4.949-0.849c0.052-0.25,0.181-0.93,0.333-2.146l-4.504,1.449
					L129.306,107.383z"/>
			</g>
		</g>
		<g>
			<g>
				<path fill="#FFFFFF" d="M127.238,108.209L127.238,108.209l-10.71-0.037c-0.079,0-0.155-0.026-0.216-0.074l-0.88-0.682
					c-0.068-0.055-0.115-0.133-0.136-0.221l-1.197-7.056c-0.021-0.142,0.041-0.285,0.158-0.361l1.008-0.626
					c0.059-0.035,0.113-0.061,0.188-0.054l13.196,0.036c0.083,0,0.163,0.029,0.228,0.082l0.858,0.717
					c0.099,0.083,0.146,0.211,0.122,0.338l-1.36,7.27c-0.021,0.119-0.103,0.217-0.214,0.264l-0.914,0.376
					C127.329,108.199,127.283,108.209,127.238,108.209z M116.652,107.463l10.517,0.035l0.67-0.275l1.286-6.876l-0.601-0.501
					l-12.97-0.035l-0.719,0.445l1.143,6.686L116.652,107.463z"/>
			</g>
		</g>
	</g>
	<g>
		<g>
			<g>
				<polygon fill="#FFFFFF" points="241.071,111.734 229.903,105.836 229.903,92.592 233.944,90.736 234.334,91.594 230.903,93.193 
					230.903,105.269 241.063,110.657 250.903,105.272 250.903,93.623 248.36,92.196 248.864,91.373 251.903,93.07 251.903,105.832 
									"/>
			</g>
		</g>
		<g>
			<g>
				
					<rect x="243.335" y="88.908" transform="matrix(0.8662 0.4997 -0.4997 0.8662 77.2551 -110.0029)" fill="#FFFFFF" width="1.423" height="0.711"/>
			</g>
		</g>
		<g>
			<g>
				
					<rect x="238.317" y="88.35" transform="matrix(0.445 0.8955 -0.8955 0.445 212.2313 -164.2998)" fill="#FFFFFF" width="0.711" height="1.456"/>
			</g>
		</g>
		<g>
			<g>
				<polygon fill="#FFFFFF" points="241.233,99.422 230.506,93.199 230.864,92.586 241.237,98.604 250.975,93.06 251.328,93.676 
									"/>
			</g>
		</g>
		<g>
			<g>
				<rect x="240.903" y="98.563" fill="#FFFFFF" width="1" height="13"/>
			</g>
		</g>
		<g>
			<g>
				<g>
					<path fill="#FFFFFF" d="M236.192,90.996c-1.313,0-2.293-0.498-2.293-1.16c0-0.66,0.98-1.158,2.293-1.158
						c1.307,0,2.295,0.498,2.295,1.158C238.487,90.498,237.498,90.996,236.192,90.996z M236.192,89.1
						c-1.063,0-1.852,0.39-1.852,0.736c0,0.348,0.789,0.737,1.852,0.737c1.057,0,1.846-0.389,1.846-0.737
						C238.037,89.488,237.248,89.1,236.192,89.1z"/>
				</g>
			</g>
		</g>
		<g>
			<g>
				<g>
					<path fill="#FFFFFF" d="M238.467,92.857c0,0.66-0.99,1.158-2.285,1.158c-1.301,0-2.271-0.499-2.271-1.159h0.441
						c0,0.349,0.779,0.736,1.83,0.736c1.047,0,1.824-0.39,1.824-0.736L238.467,92.857z"/>
				</g>
			</g>
		</g>
		<g>
			<g>
				<g>
					<rect x="238.006" y="89.949" fill="#FFFFFF" width="0.473" height="2.914"/>
				</g>
			</g>
		</g>
		<g>
			<g>
				<g>
					<rect x="233.905" y="89.903" fill="#FFFFFF" width="0.436" height="2.96"/>
				</g>
			</g>
		</g>
		<g>
			<g>
				<g>
					<path fill="#FFFFFF" d="M246.424,91.277c-1.307,0-2.295-0.499-2.295-1.158c0-0.66,0.988-1.16,2.295-1.16
						c1.313,0,2.297,0.5,2.297,1.16C248.718,90.778,247.733,91.277,246.424,91.277z M246.424,89.381
						c-1.057,0-1.846,0.39-1.846,0.736c0,0.348,0.789,0.737,1.846,0.737c1.061,0,1.852-0.39,1.852-0.737
						C248.27,89.771,247.481,89.381,246.424,89.381z"/>
				</g>
			</g>
		</g>
		<g>
			<g>
				<g>
					<path fill="#FFFFFF" d="M248.699,93.139c0,0.66-0.992,1.158-2.289,1.158c-1.295,0-2.271-0.498-2.271-1.159h0.439
						c0,0.348,0.783,0.737,1.828,0.737c1.047,0,1.83-0.39,1.83-0.737L248.699,93.139z"/>
				</g>
			</g>
		</g>
		<g>
			<g>
				<g>
					<rect x="248.239" y="90.231" fill="#FFFFFF" width="0.469" height="2.914"/>
				</g>
			</g>
		</g>
		<g>
			<g>
				<g>
					<rect x="244.137" y="90.186" fill="#FFFFFF" width="0.438" height="2.96"/>
				</g>
			</g>
		</g>
		<g>
			<g>
				<g>
					<path fill="#FFFFFF" d="M241.379,94.25c-1.309,0-2.295-0.5-2.295-1.16c0-0.659,0.986-1.158,2.295-1.158
						c1.313,0,2.293,0.499,2.293,1.158C243.672,93.75,242.686,94.25,241.379,94.25z M241.379,92.354
						c-1.057,0-1.848,0.389-1.848,0.736c0,0.349,0.791,0.738,1.848,0.738c1.061,0,1.85-0.39,1.85-0.738
						C243.225,92.742,242.434,92.354,241.379,92.354z"/>
				</g>
			</g>
		</g>
		<g>
			<g>
				<g>
					<path fill="#FFFFFF" d="M243.653,96.11c0,0.66-0.992,1.158-2.287,1.158c-1.297,0-2.273-0.499-2.273-1.159h0.443
						c0,0.348,0.783,0.737,1.83,0.737s1.828-0.39,1.828-0.737L243.653,96.11z"/>
				</g>
			</g>
		</g>
		<g>
			<g>
				<g>
					<rect x="243.192" y="93.203" fill="#FFFFFF" width="0.469" height="2.914"/>
				</g>
			</g>
		</g>
		<g>
			<g>
				<g>
					<rect x="239.092" y="93.156" fill="#FFFFFF" width="0.438" height="2.961"/>
				</g>
			</g>
		</g>
		<g>
			<g>
				<g>
					<path fill="#FFFFFF" d="M241.379,88.518c-1.309,0-2.295-0.498-2.295-1.159s0.986-1.159,2.295-1.159
						c1.313,0,2.293,0.498,2.293,1.159S242.686,88.518,241.379,88.518z M241.379,86.621c-1.057,0-1.848,0.391-1.848,0.737
						c0,0.349,0.791,0.737,1.848,0.737c1.061,0,1.85-0.389,1.85-0.737C243.223,87.011,242.434,86.621,241.379,86.621z"/>
				</g>
			</g>
		</g>
		<g>
			<g>
				<g>
					<path fill="#FFFFFF" d="M243.653,90.379c0,0.66-0.992,1.158-2.287,1.158c-1.297,0-2.273-0.498-2.273-1.16h0.443
						c0,0.349,0.783,0.737,1.83,0.737s1.828-0.389,1.828-0.737L243.653,90.379z"/>
				</g>
			</g>
		</g>
		<g>
			<g>
				<g>
					<rect x="243.192" y="87.472" fill="#FFFFFF" width="0.469" height="2.914"/>
				</g>
			</g>
		</g>
		<g>
			<g>
				<g>
					<rect x="239.092" y="87.424" fill="#FFFFFF" width="0.438" height="2.961"/>
				</g>
			</g>
		</g>
	</g>
	<g>
		<path fill="#FFFFFF" d="M51.223,113.968h3.141v0.608h-2.455v1.887h2.249v0.609h-2.249v2.051h2.495v0.609h-3.181V113.968z"/>
		<path fill="#FFFFFF" d="M57.987,119.733v-2.331c0-0.22-0.012-0.41-0.029-0.572c-0.017-0.162-0.056-0.299-0.106-0.408
			c-0.06-0.11-0.138-0.192-0.233-0.248c-0.104-0.055-0.234-0.082-0.399-0.082c-0.253,0-0.463,0.076-0.63,0.23
			c-0.168,0.154-0.282,0.346-0.351,0.577v2.833h-0.66v-4.119h0.462l0.123,0.502h0.033c0.146-0.176,0.314-0.32,0.515-0.433
			c0.195-0.112,0.449-0.168,0.767-0.168c0.265,0,0.479,0.051,0.646,0.151c0.167,0.103,0.298,0.279,0.393,0.531
			c0.128-0.214,0.303-0.382,0.521-0.502c0.223-0.121,0.474-0.181,0.754-0.181c0.229,0,0.425,0.026,0.585,0.077
			c0.159,0.053,0.291,0.145,0.396,0.277c0.104,0.131,0.183,0.31,0.229,0.535c0.047,0.225,0.07,0.51,0.07,0.854v2.472h-0.668v-2.478
			c0-0.197-0.012-0.369-0.028-0.515c-0.02-0.146-0.058-0.269-0.115-0.362c-0.058-0.097-0.138-0.168-0.233-0.215
			c-0.104-0.047-0.234-0.07-0.399-0.07c-0.271,0-0.487,0.078-0.643,0.231c-0.154,0.154-0.27,0.374-0.329,0.659v2.751h-0.662v0.002
			H57.987z"/>
		<path fill="#FFFFFF" d="M62.259,115.615h0.453l0.124,0.494h0.033c0.126-0.191,0.289-0.339,0.49-0.439
			c0.2-0.103,0.429-0.152,0.688-0.152c0.553,0,0.958,0.162,1.229,0.486c0.269,0.324,0.397,0.854,0.397,1.59
			c0,0.346-0.045,0.658-0.136,0.938c-0.091,0.277-0.219,0.512-0.383,0.704c-0.165,0.192-0.364,0.341-0.598,0.445
			c-0.234,0.104-0.493,0.155-0.778,0.155c-0.203,0-0.364-0.012-0.481-0.037c-0.112-0.024-0.242-0.066-0.384-0.127v1.713h-0.659
			L62.259,115.615L62.259,115.615z M63.923,116.093c-0.273,0-0.501,0.073-0.663,0.219c-0.158,0.146-0.271,0.366-0.342,0.663v2.042
			c0.104,0.077,0.212,0.136,0.338,0.177s0.294,0.063,0.503,0.063c0.383,0,0.686-0.143,0.901-0.424
			c0.223-0.283,0.334-0.699,0.334-1.248c0-0.226-0.021-0.431-0.058-0.614c-0.039-0.185-0.104-0.341-0.188-0.47
			s-0.191-0.229-0.329-0.301C64.288,116.129,64.122,116.093,63.923,116.093z"/>
		<path fill="#FFFFFF" d="M67.449,118.721c0,0.191,0.033,0.33,0.099,0.412c0.066,0.082,0.159,0.123,0.28,0.123
			c0.071,0,0.148-0.006,0.229-0.017c0.083-0.011,0.178-0.036,0.276-0.073l0.074,0.519c-0.088,0.044-0.21,0.08-0.366,0.106
			c-0.153,0.027-0.293,0.041-0.404,0.041c-0.247,0-0.448-0.069-0.607-0.209c-0.159-0.141-0.239-0.377-0.239-0.713v-4.941h0.659
			L67.449,118.721L67.449,118.721z"/>
		<path fill="#FFFFFF" d="M72.128,119.404c-0.164,0.133-0.372,0.236-0.622,0.313s-0.515,0.114-0.795,0.114
			c-0.313,0-0.584-0.051-0.813-0.151c-0.23-0.103-0.42-0.247-0.568-0.437c-0.146-0.189-0.258-0.416-0.329-0.681
			c-0.067-0.263-0.104-0.56-0.104-0.89c0-0.703,0.152-1.238,0.471-1.606c0.313-0.368,0.761-0.552,1.343-0.552
			c0.188,0,0.373,0.021,0.563,0.063c0.188,0.041,0.354,0.119,0.503,0.234c0.146,0.115,0.27,0.279,0.358,0.49
			c0.097,0.211,0.145,0.49,0.145,0.836c0,0.181-0.021,0.382-0.052,0.601h-2.646c0,0.242,0.025,0.456,0.074,0.644
			c0.05,0.187,0.127,0.345,0.229,0.474c0.104,0.129,0.239,0.228,0.407,0.297c0.167,0.068,0.372,0.103,0.613,0.103
			c0.188,0,0.374-0.032,0.561-0.098c0.188-0.066,0.327-0.144,0.422-0.23L72.128,119.404z M70.711,116.093
			c-0.319,0-0.583,0.085-0.774,0.255c-0.192,0.17-0.313,0.461-0.354,0.874h2.043c0-0.417-0.08-0.71-0.235-0.877
			C71.231,116.178,71.002,116.093,70.711,116.093z"/>
		<path fill="#FFFFFF" d="M72.987,117.674c0-0.696,0.153-1.23,0.466-1.602c0.313-0.371,0.756-0.556,1.339-0.556
			c0.311,0,0.575,0.051,0.807,0.151c0.229,0.102,0.414,0.248,0.563,0.438c0.146,0.189,0.258,0.417,0.329,0.684
			c0.069,0.268,0.104,0.563,0.104,0.885c0,0.699-0.149,1.232-0.466,1.604c-0.311,0.371-0.756,0.557-1.338,0.557
			c-0.308,0-0.576-0.052-0.804-0.152c-0.229-0.102-0.416-0.247-0.564-0.438c-0.146-0.188-0.258-0.416-0.329-0.684
			C73.023,118.293,72.987,117.998,72.987,117.674z M73.669,117.674c0,0.209,0.021,0.41,0.063,0.603
			c0.041,0.192,0.104,0.36,0.188,0.502c0.092,0.144,0.203,0.259,0.352,0.347c0.143,0.088,0.313,0.131,0.52,0.131
			c0.746,0.006,1.12-0.521,1.12-1.582c0-0.213-0.021-0.416-0.063-0.608c-0.041-0.192-0.104-0.358-0.191-0.502
			s-0.203-0.257-0.346-0.342c-0.146-0.085-0.315-0.128-0.521-0.128C74.043,116.088,73.669,116.614,73.669,117.674z"/>
	</g>
	<g>
		<path fill="#FFFFFF" d="M233.721,117.93l0.195,0.874h0.008l0.217-0.89l1.395-3.946h0.688l-2.186,5.856h-0.305l-2.229-5.856h0.75
			L233.721,117.93z"/>
		<path fill="#FFFFFF" d="M236.358,115.92c0.209-0.127,0.449-0.221,0.729-0.28c0.277-0.062,0.566-0.091,0.869-0.091
			c0.285,0,0.52,0.039,0.688,0.115c0.174,0.076,0.305,0.176,0.396,0.301c0.09,0.123,0.15,0.259,0.182,0.408
			c0.03,0.148,0.049,0.295,0.049,0.444c0,0.33-0.014,0.651-0.023,0.964c-0.018,0.313-0.022,0.609-0.022,0.891
			c0,0.203,0.009,0.396,0.022,0.576c0.014,0.182,0.047,0.35,0.09,0.502h-0.482l-0.174-0.576h-0.041
			c-0.053,0.076-0.107,0.152-0.188,0.227c-0.076,0.075-0.164,0.141-0.27,0.198c-0.104,0.058-0.229,0.104-0.361,0.144
			c-0.139,0.038-0.293,0.059-0.471,0.059c-0.18,0-0.344-0.027-0.488-0.083c-0.15-0.056-0.281-0.134-0.396-0.235
			c-0.105-0.102-0.191-0.225-0.26-0.365c-0.063-0.144-0.096-0.306-0.096-0.486c0-0.241,0.051-0.443,0.146-0.605
			c0.104-0.162,0.238-0.291,0.416-0.387c0.184-0.096,0.396-0.165,0.646-0.206c0.25-0.042,0.521-0.062,0.828-0.062
			c0.07,0,0.146,0,0.227,0s0.148,0.006,0.229,0.017c0.018-0.165,0.021-0.313,0.021-0.445c0-0.302-0.061-0.513-0.182-0.634
			s-0.344-0.182-0.66-0.182c-0.092,0-0.193,0.008-0.301,0.021c-0.105,0.014-0.219,0.034-0.328,0.061
			c-0.113,0.025-0.223,0.057-0.322,0.093s-0.188,0.077-0.268,0.122L236.358,115.92z M237.528,119.224
			c0.152,0,0.291-0.021,0.412-0.062c0.121-0.043,0.225-0.095,0.313-0.158c0.088-0.063,0.162-0.133,0.223-0.209
			c0.061-0.077,0.102-0.151,0.127-0.224v-0.686c-0.074-0.005-0.152-0.009-0.232-0.013c-0.08-0.002-0.158-0.004-0.233-0.004
			c-0.171,0-0.337,0.01-0.497,0.029s-0.307,0.055-0.43,0.107c-0.125,0.052-0.223,0.123-0.297,0.214s-0.11,0.204-0.11,0.342
			c0,0.192,0.067,0.351,0.204,0.474C237.137,119.162,237.313,119.224,237.528,119.224z"/>
		<path fill="#FFFFFF" d="M242.453,116.25c-0.164-0.056-0.32-0.084-0.469-0.084c-0.236,0-0.424,0.065-0.563,0.194
			c-0.137,0.129-0.223,0.292-0.256,0.49v2.883h-0.658v-4.119h0.461l0.123,0.503h0.033c0.105-0.188,0.23-0.332,0.375-0.434
			c0.146-0.102,0.332-0.152,0.561-0.152c0.154,0,0.34,0.028,0.531,0.083L242.453,116.25z"/>
		<path fill="#FFFFFF" d="M243.311,114.363c0-0.126,0.043-0.234,0.127-0.326c0.086-0.09,0.188-0.136,0.324-0.136
			c0.133,0,0.24,0.045,0.338,0.136c0.096,0.092,0.143,0.199,0.143,0.326s-0.047,0.229-0.143,0.313
			c-0.098,0.083-0.205,0.124-0.338,0.124c-0.137,0-0.238-0.041-0.324-0.124C243.354,114.594,243.311,114.489,243.311,114.363z
			 M243.451,115.615h0.658v4.119h-0.658V115.615z"/>
		<path fill="#FFFFFF" d="M245.287,117.674c0-0.696,0.154-1.23,0.465-1.602c0.313-0.371,0.756-0.556,1.34-0.556
			c0.313,0,0.574,0.051,0.809,0.151c0.227,0.102,0.416,0.248,0.563,0.438c0.148,0.189,0.26,0.417,0.328,0.684
			c0.072,0.268,0.107,0.563,0.107,0.885c0,0.699-0.154,1.232-0.467,1.604c-0.313,0.371-0.76,0.557-1.342,0.557
			c-0.309,0-0.572-0.052-0.805-0.152c-0.229-0.102-0.416-0.247-0.563-0.438c-0.146-0.188-0.262-0.416-0.326-0.684
			C245.323,118.293,245.287,117.998,245.287,117.674z M245.968,117.674c0,0.209,0.021,0.41,0.064,0.603
			c0.041,0.192,0.104,0.36,0.191,0.502c0.09,0.144,0.199,0.259,0.348,0.347c0.143,0.088,0.313,0.131,0.52,0.131
			c0.746,0.006,1.119-0.521,1.119-1.582c0-0.213-0.02-0.416-0.063-0.608c-0.041-0.192-0.105-0.358-0.193-0.502
			s-0.203-0.257-0.346-0.342c-0.146-0.085-0.314-0.128-0.521-0.128C246.343,116.088,245.968,116.614,245.968,117.674z"/>
		<path fill="#FFFFFF" d="M251.744,118.613c0-0.165-0.049-0.294-0.146-0.387c-0.102-0.094-0.225-0.172-0.363-0.234
			c-0.146-0.063-0.311-0.125-0.48-0.182s-0.332-0.132-0.477-0.223c-0.146-0.09-0.271-0.207-0.367-0.351
			c-0.102-0.145-0.146-0.334-0.146-0.577c0-0.395,0.109-0.685,0.338-0.869c0.227-0.184,0.537-0.275,0.938-0.275
			c0.295,0,0.545,0.025,0.744,0.078c0.201,0.052,0.375,0.113,0.521,0.185l-0.154,0.544c-0.127-0.063-0.279-0.113-0.457-0.16
			c-0.18-0.048-0.369-0.07-0.572-0.07c-0.242,0-0.42,0.041-0.531,0.123c-0.109,0.084-0.17,0.227-0.17,0.43
			c0,0.143,0.054,0.254,0.148,0.333s0.221,0.151,0.365,0.214c0.146,0.063,0.307,0.125,0.479,0.186
			c0.174,0.061,0.332,0.14,0.479,0.238c0.146,0.1,0.27,0.225,0.361,0.375c0.104,0.151,0.148,0.35,0.148,0.598
			c0,0.176-0.029,0.341-0.086,0.494c-0.063,0.153-0.146,0.285-0.271,0.396c-0.121,0.11-0.271,0.196-0.445,0.259
			c-0.182,0.063-0.393,0.096-0.635,0.096c-0.313,0-0.574-0.03-0.799-0.09c-0.219-0.062-0.398-0.133-0.551-0.215l0.197-0.56
			c0.127,0.071,0.291,0.137,0.492,0.198c0.199,0.061,0.404,0.09,0.613,0.09c0.236,0,0.438-0.047,0.586-0.139
			C251.666,119.023,251.744,118.855,251.744,118.613z"/>
	</g>
	<g>
		<g>
			<g>
				<path fill="#FFFFFF" d="M181.397,112.953c-2.625,0-4.768-2.141-4.768-4.772c0-1.179,0.459-2.293,1.268-3.168h-6.063V96.99
					l-0.438,0.445l-1.285-1.96l11.479-8.462l11.479,8.511l-1.748,1.812l-1.131-0.674v8.047l-5.52,0.088
					c0.938,0.904,1.479,2.113,1.479,3.391C186.156,110.813,184.022,112.953,181.397,112.953z M179.11,105.012
					c-1.039,0.775-1.658,1.933-1.658,3.168c0,2.182,1.771,3.958,3.945,3.958s3.939-1.771,3.939-3.954c0-1.346-0.732-2.6-1.953-3.369
					l-0.428,0.007l-0.004-0.25l-0.246-0.123l0.074-0.503l0.828-0.992l-1.154-0.002V93.56l-0.889-0.901l-1.279,1.293v0.643
					l0.764,1.117l-1.318,1.291v0.326l1.318,1.36l-1.07,1.238l0.684,0.651v2.187h-1.428l0.758,1.168l0.084,0.514l-0.27,0.136
					c-0.229,0.112-0.438,0.24-0.637,0.381v0.05L179.11,105.012L179.11,105.012z M172.649,104.195h6.201
					c0.074-0.053,0.154-0.104,0.236-0.152l-0.752-1.158c-0.104-0.168-0.176-0.426-0.053-0.648c0.059-0.107,0.209-0.288,0.553-0.288
					h1.012v-1.021l-0.996-0.949l1.098-1.26l-1.033-1.063v-1.002l1.08-1.052l-0.521-0.757v-1.23l2.1-2.115l1.703,1.726v8.909h0.639
					c0.236,0.008,0.521,0.109,0.643,0.375c0.109,0.248,0.045,0.529-0.205,0.836l-0.535,0.646l5.563-0.09v-8.68l1.813,1.079
					l0.651-0.679l-10.243-7.598l-10.375,7.646l0.307,0.466l1.127-1.15L172.649,104.195L172.649,104.195z"/>
			</g>
		</g>
		<g>
			<g>
				<path fill="#FFFFFF" d="M181.479,112.086c-0.814,0-1.479-0.662-1.479-1.477s0.662-1.479,1.479-1.479
					c0.813,0,1.477,0.664,1.477,1.479S182.293,112.086,181.479,112.086z M181.479,109.744c-0.479,0-0.865,0.389-0.865,0.866
					s0.389,0.866,0.865,0.866c0.479,0,0.859-0.389,0.859-0.866C182.342,110.133,181.957,109.744,181.479,109.744z"/>
			</g>
		</g>
	</g>
	<g>
		<path fill="#FFFFFF" d="M166.557,114.302h3.141v0.608h-2.455v1.969h2.289v0.61h-2.289v2.578h-0.686V114.302L166.557,114.302z"/>
		<path fill="#FFFFFF" d="M170.75,114.696c0-0.126,0.043-0.235,0.127-0.325c0.086-0.091,0.193-0.137,0.326-0.137
			c0.131,0,0.244,0.045,0.338,0.137c0.094,0.09,0.145,0.198,0.145,0.325s-0.049,0.229-0.145,0.313
			c-0.094,0.083-0.207,0.123-0.338,0.123c-0.133,0-0.24-0.04-0.326-0.123C170.793,114.927,170.75,114.823,170.75,114.696z
			 M170.889,115.948h0.656v4.119h-0.656V115.948z"/>
		<path fill="#FFFFFF" d="M175.6,120.067v-2.348c0-0.429-0.063-0.751-0.188-0.968c-0.123-0.217-0.35-0.326-0.68-0.326
			c-0.291,0-0.531,0.078-0.727,0.234c-0.188,0.157-0.316,0.354-0.396,0.59v2.816h-0.66v-4.119h0.463l0.123,0.502h0.033
			c0.131-0.176,0.309-0.32,0.531-0.433s0.48-0.168,0.795-0.168c0.225,0,0.422,0.026,0.592,0.078
			c0.172,0.052,0.313,0.146,0.426,0.276c0.111,0.131,0.197,0.309,0.254,0.53c0.063,0.224,0.088,0.504,0.088,0.845v2.487H175.6
			V120.067L175.6,120.067z"/>
		<path fill="#FFFFFF" d="M180.272,119.795c-0.164,0.121-0.359,0.213-0.584,0.276c-0.229,0.063-0.463,0.095-0.709,0.095
			c-0.318,0-0.59-0.051-0.813-0.151c-0.221-0.101-0.396-0.247-0.541-0.437c-0.139-0.189-0.236-0.418-0.305-0.685
			c-0.063-0.267-0.094-0.562-0.094-0.886c0-0.697,0.148-1.231,0.461-1.603c0.309-0.37,0.75-0.556,1.326-0.556
			c0.264,0,0.482,0.021,0.672,0.063c0.184,0.041,0.35,0.1,0.498,0.176l-0.189,0.568c-0.127-0.07-0.266-0.128-0.42-0.169
			s-0.318-0.063-0.494-0.063c-0.775,0-1.17,0.527-1.17,1.582c0,0.209,0.021,0.408,0.063,0.599c0.041,0.188,0.104,0.356,0.205,0.502
			c0.098,0.146,0.223,0.263,0.381,0.351c0.15,0.088,0.35,0.131,0.58,0.131c0.191,0,0.375-0.029,0.525-0.09
			c0.156-0.062,0.283-0.129,0.387-0.207L180.272,119.795z"/>
		<path fill="#FFFFFF" d="M181.112,116.254c0.209-0.127,0.451-0.221,0.729-0.28c0.277-0.062,0.566-0.091,0.869-0.091
			c0.285,0,0.52,0.039,0.688,0.115c0.174,0.076,0.305,0.176,0.396,0.301c0.09,0.123,0.15,0.259,0.184,0.408
			c0.028,0.148,0.049,0.295,0.049,0.444c0,0.33-0.016,0.651-0.025,0.964c-0.016,0.313-0.021,0.609-0.021,0.891
			c0,0.203,0.01,0.396,0.021,0.576c0.017,0.182,0.047,0.35,0.09,0.502h-0.48l-0.174-0.576h-0.041
			c-0.055,0.076-0.109,0.152-0.188,0.227c-0.076,0.075-0.164,0.141-0.27,0.198c-0.104,0.058-0.229,0.104-0.361,0.144
			c-0.139,0.038-0.293,0.059-0.471,0.059c-0.18,0-0.342-0.027-0.488-0.083c-0.15-0.056-0.281-0.134-0.394-0.235
			c-0.108-0.102-0.194-0.224-0.263-0.365c-0.063-0.144-0.096-0.306-0.096-0.486c0-0.241,0.051-0.443,0.146-0.605
			c0.104-0.162,0.237-0.291,0.415-0.387c0.184-0.096,0.396-0.165,0.646-0.206c0.25-0.042,0.521-0.062,0.828-0.062
			c0.074,0,0.146,0,0.227,0s0.148,0.006,0.229,0.017c0.016-0.165,0.021-0.313,0.021-0.445c0-0.302-0.061-0.513-0.182-0.634
			s-0.342-0.182-0.66-0.182c-0.092,0-0.193,0.008-0.301,0.021c-0.105,0.014-0.217,0.034-0.328,0.061
			c-0.113,0.025-0.221,0.057-0.322,0.093c-0.1,0.036-0.188,0.077-0.268,0.122L181.112,116.254z M182.281,119.557
			c0.154,0,0.291-0.021,0.412-0.063s0.225-0.094,0.313-0.156c0.09-0.063,0.162-0.133,0.223-0.211
			c0.061-0.076,0.102-0.15,0.129-0.223v-0.682c-0.076-0.005-0.154-0.01-0.234-0.012c-0.08-0.004-0.158-0.004-0.23-0.004
			c-0.173,0-0.338,0.01-0.498,0.028c-0.162,0.021-0.309,0.056-0.432,0.106c-0.125,0.053-0.223,0.125-0.297,0.215
			c-0.074,0.091-0.107,0.205-0.107,0.342c0,0.191,0.064,0.35,0.201,0.475C181.891,119.496,182.067,119.557,182.281,119.557z"/>
		<path fill="#FFFFFF" d="M187.53,114.358c0.209-0.038,0.449-0.067,0.721-0.091c0.271-0.021,0.521-0.033,0.744-0.033
			c0.254,0,0.494,0.027,0.721,0.083c0.23,0.056,0.436,0.146,0.604,0.271c0.174,0.127,0.313,0.293,0.416,0.496
			c0.103,0.203,0.154,0.449,0.154,0.74c0,0.45-0.123,0.815-0.367,1.096c-0.248,0.281-0.563,0.468-0.939,0.561l0.396,0.305
			l1.434,2.282h-0.799l-1.59-2.487l-0.813-0.125v2.611h-0.684L187.53,114.358L187.53,114.358z M189.01,114.828
			c-0.064,0-0.145,0-0.221,0c-0.078,0-0.148,0.002-0.223,0.008c-0.072,0.006-0.145,0.012-0.203,0.017
			c-0.063,0.006-0.113,0.015-0.152,0.024v2.125h0.646c0.379,0,0.688-0.092,0.938-0.279s0.371-0.479,0.371-0.873
			c0-0.297-0.102-0.541-0.305-0.732C189.656,114.924,189.373,114.828,189.01,114.828z"/>
		<path fill="#FFFFFF" d="M192.215,116.254c0.209-0.127,0.451-0.221,0.73-0.28c0.271-0.062,0.563-0.091,0.867-0.091
			c0.285,0,0.516,0.039,0.688,0.115c0.174,0.076,0.309,0.176,0.396,0.301c0.088,0.123,0.146,0.259,0.182,0.408
			c0.031,0.148,0.045,0.295,0.045,0.444c0,0.33-0.008,0.651-0.021,0.964c-0.02,0.313-0.021,0.609-0.021,0.891
			c0,0.203,0.008,0.396,0.021,0.576c0.018,0.182,0.049,0.35,0.094,0.502h-0.488l-0.174-0.576h-0.041
			c-0.049,0.076-0.111,0.152-0.188,0.227c-0.07,0.075-0.16,0.141-0.27,0.198c-0.108,0.058-0.227,0.104-0.361,0.144
			c-0.139,0.038-0.295,0.059-0.471,0.059s-0.338-0.027-0.49-0.083c-0.146-0.056-0.277-0.134-0.391-0.235s-0.195-0.224-0.26-0.365
			c-0.063-0.144-0.1-0.306-0.1-0.486c0-0.241,0.053-0.443,0.148-0.605c0.098-0.162,0.234-0.291,0.416-0.387
			c0.178-0.096,0.393-0.165,0.643-0.206c0.248-0.042,0.525-0.062,0.826-0.062c0.078,0,0.152,0,0.229,0
			c0.07,0,0.146,0.006,0.227,0.017c0.021-0.165,0.025-0.313,0.025-0.445c0-0.302-0.063-0.513-0.188-0.634s-0.34-0.182-0.654-0.182
			c-0.098,0-0.191,0.008-0.305,0.021c-0.104,0.014-0.217,0.034-0.33,0.061c-0.105,0.025-0.219,0.057-0.314,0.093
			c-0.104,0.036-0.191,0.077-0.271,0.122L192.215,116.254z M193.385,119.557c0.152,0,0.291-0.021,0.412-0.063
			c0.119-0.041,0.229-0.094,0.313-0.156c0.088-0.063,0.162-0.133,0.219-0.211c0.063-0.076,0.104-0.15,0.127-0.223v-0.682
			c-0.076-0.005-0.154-0.01-0.23-0.012c-0.08-0.004-0.156-0.004-0.232-0.004c-0.17,0-0.336,0.01-0.498,0.028
			c-0.162,0.021-0.305,0.056-0.428,0.106c-0.125,0.053-0.229,0.125-0.299,0.215c-0.072,0.091-0.109,0.205-0.109,0.342
			c0,0.191,0.066,0.35,0.205,0.475C192.994,119.496,193.17,119.557,193.385,119.557z"/>
		<path fill="#FFFFFF" d="M196.506,115.948h0.66v4.119h-0.66V115.948z"/>
		<path fill="#FFFFFF" d="M198.285,119.49l1.904-2.619l0.346-0.347h-2.25v-0.577h2.938v0.577l-1.912,2.644l-0.338,0.321h2.25v0.577
			h-2.938V119.49L198.285,119.49z"/>
	</g>
	<g>
		<path fill="#FFFFFF" d="M108.056,118.597l0.194,0.874h0.012l0.214-0.891l1.395-3.945h0.688l-2.187,5.857h-0.305l-2.229-5.857h0.75
			L108.056,118.597z"/>
		<path fill="#FFFFFF" d="M113.698,120.071c-0.164,0.132-0.372,0.236-0.622,0.313c-0.25,0.076-0.515,0.115-0.795,0.115
			c-0.313,0-0.584-0.052-0.815-0.152c-0.229-0.102-0.42-0.247-0.563-0.438c-0.147-0.188-0.26-0.416-0.329-0.68
			c-0.071-0.263-0.107-0.561-0.107-0.891c0-0.702,0.157-1.237,0.474-1.605c0.313-0.367,0.763-0.552,1.345-0.552
			c0.188,0,0.373,0.021,0.563,0.062c0.188,0.041,0.354,0.12,0.502,0.235c0.146,0.115,0.271,0.278,0.36,0.49
			c0.095,0.211,0.145,0.489,0.145,0.836c0,0.181-0.021,0.382-0.054,0.601h-2.645c0,0.242,0.021,0.456,0.072,0.643
			c0.051,0.188,0.127,0.346,0.229,0.475c0.104,0.129,0.239,0.229,0.407,0.297c0.167,0.068,0.372,0.104,0.611,0.104
			c0.188,0,0.374-0.033,0.563-0.1s0.327-0.143,0.42-0.229L113.698,120.071z M112.281,116.76c-0.323,0-0.583,0.085-0.778,0.255
			c-0.188,0.17-0.312,0.461-0.35,0.874h2.043c0-0.417-0.08-0.71-0.239-0.877S112.573,116.76,112.281,116.76z"/>
		<path fill="#FFFFFF" d="M117.522,120.4v-2.348c0-0.215-0.019-0.402-0.037-0.563c-0.024-0.161-0.07-0.296-0.138-0.403
			c-0.064-0.106-0.153-0.188-0.271-0.242c-0.112-0.055-0.26-0.083-0.438-0.083c-0.263,0-0.49,0.084-0.698,0.251
			c-0.209,0.167-0.35,0.383-0.404,0.646v2.743h-0.659v-5.766h0.659v2.109h0.033c0.143-0.171,0.313-0.307,0.515-0.408
			c0.202-0.103,0.449-0.152,0.746-0.152c0.23,0,0.435,0.025,0.604,0.078c0.173,0.052,0.313,0.146,0.427,0.275
			c0.106,0.133,0.188,0.31,0.247,0.531c0.052,0.223,0.076,0.504,0.076,0.844v2.488H117.522L117.522,120.4z"/>
		<path fill="#FFFFFF" d="M119.524,116.282h0.657v4.119h-0.657V116.282z"/>
		<path fill="#FFFFFF" d="M124.4,120.129c-0.165,0.121-0.36,0.213-0.585,0.275c-0.229,0.063-0.461,0.096-0.708,0.096
			c-0.319,0-0.588-0.052-0.813-0.152c-0.22-0.102-0.396-0.247-0.54-0.438c-0.14-0.188-0.237-0.416-0.305-0.684
			c-0.063-0.266-0.095-0.563-0.095-0.887c0-0.696,0.148-1.23,0.462-1.602c0.308-0.371,0.749-0.556,1.326-0.556
			c0.264,0,0.481,0.021,0.671,0.062c0.184,0.041,0.351,0.101,0.498,0.178l-0.189,0.567c-0.126-0.071-0.266-0.128-0.42-0.169
			c-0.153-0.041-0.318-0.063-0.494-0.063c-0.775,0-1.17,0.527-1.17,1.582c0,0.209,0.021,0.408,0.063,0.598
			c0.041,0.189,0.104,0.357,0.206,0.502c0.096,0.146,0.222,0.262,0.379,0.35c0.15,0.088,0.35,0.133,0.58,0.133
			c0.192,0,0.375-0.03,0.525-0.092c0.157-0.061,0.284-0.129,0.386-0.205L124.4,120.129z"/>
		<path fill="#FFFFFF" d="M125.899,116.282v2.349c0,0.214,0.012,0.401,0.037,0.563c0.021,0.162,0.063,0.296,0.128,0.403
			c0.06,0.107,0.143,0.188,0.247,0.242c0.104,0.056,0.229,0.084,0.395,0.084c0.148,0,0.28-0.023,0.396-0.07
			c0.111-0.046,0.221-0.111,0.312-0.193c0.09-0.082,0.17-0.177,0.238-0.283c0.063-0.107,0.125-0.222,0.169-0.342v-2.753h0.659v2.949
			c0,0.198,0.007,0.401,0.021,0.614c0.018,0.212,0.037,0.396,0.07,0.556h-0.453l-0.165-0.651h-0.041
			c-0.126,0.215-0.297,0.394-0.511,0.537c-0.215,0.143-0.486,0.213-0.815,0.213c-0.22,0-0.413-0.025-0.581-0.078
			c-0.167-0.051-0.308-0.144-0.42-0.275c-0.108-0.132-0.193-0.309-0.255-0.531c-0.058-0.223-0.087-0.504-0.087-0.844v-2.489H125.899
			z"/>
		<path fill="#FFFFFF" d="M130.478,119.388c0,0.192,0.027,0.33,0.099,0.411c0.064,0.084,0.159,0.125,0.28,0.125
			c0.065,0,0.146-0.006,0.229-0.018c0.083-0.011,0.178-0.035,0.28-0.074l0.074,0.52c-0.088,0.044-0.21,0.08-0.366,0.107
			c-0.157,0.026-0.293,0.041-0.408,0.041c-0.247,0-0.45-0.07-0.605-0.211c-0.157-0.14-0.237-0.377-0.237-0.711v-4.942h0.659
			L130.478,119.388L130.478,119.388z"/>
		<path fill="#FFFFFF" d="M131.918,118.342c0-0.697,0.155-1.231,0.466-1.603c0.313-0.37,0.76-0.556,1.343-0.556
			c0.309,0,0.571,0.051,0.805,0.152c0.228,0.101,0.416,0.246,0.563,0.437s0.261,0.417,0.328,0.685
			c0.071,0.267,0.107,0.562,0.107,0.885c0,0.697-0.155,1.231-0.466,1.603c-0.313,0.371-0.758,0.556-1.34,0.556
			c-0.312,0-0.574-0.051-0.808-0.151c-0.228-0.101-0.416-0.247-0.563-0.437c-0.147-0.189-0.264-0.418-0.329-0.685
			C131.954,118.961,131.918,118.666,131.918,118.342z M132.603,118.342c0,0.209,0.021,0.408,0.063,0.602
			c0.041,0.192,0.105,0.36,0.193,0.502c0.088,0.143,0.203,0.258,0.346,0.346c0.146,0.088,0.315,0.133,0.521,0.133
			c0.746,0.005,1.116-0.522,1.116-1.582c0-0.215-0.021-0.418-0.063-0.609c-0.041-0.191-0.105-0.359-0.193-0.502
			s-0.203-0.257-0.346-0.342c-0.145-0.085-0.315-0.128-0.521-0.128C132.976,116.754,132.603,117.281,132.603,118.342z"/>
		<path fill="#FFFFFF" d="M138.376,119.28c0-0.165-0.049-0.294-0.146-0.387c-0.104-0.093-0.227-0.172-0.366-0.235
			c-0.146-0.063-0.307-0.123-0.479-0.181c-0.172-0.058-0.331-0.132-0.478-0.224c-0.146-0.09-0.271-0.207-0.367-0.35
			c-0.099-0.145-0.146-0.334-0.146-0.576c0-0.396,0.109-0.686,0.34-0.869c0.226-0.185,0.538-0.276,0.938-0.276
			c0.296,0,0.545,0.026,0.745,0.078s0.375,0.114,0.523,0.188l-0.157,0.544c-0.126-0.063-0.278-0.113-0.457-0.16
			c-0.178-0.047-0.369-0.07-0.572-0.07c-0.238,0-0.419,0.042-0.527,0.124c-0.11,0.083-0.171,0.226-0.171,0.429
			c0,0.143,0.052,0.254,0.146,0.333s0.221,0.151,0.366,0.214c0.145,0.063,0.305,0.125,0.479,0.186
			c0.175,0.061,0.332,0.14,0.479,0.238c0.146,0.1,0.268,0.225,0.364,0.375c0.1,0.151,0.146,0.351,0.146,0.598
			c0,0.176-0.029,0.341-0.087,0.494c-0.06,0.153-0.146,0.285-0.271,0.396c-0.117,0.11-0.271,0.196-0.443,0.259
			c-0.185,0.063-0.395,0.096-0.633,0.096c-0.313,0-0.577-0.03-0.803-0.09c-0.22-0.062-0.397-0.133-0.552-0.215l0.197-0.562
			c0.127,0.071,0.291,0.137,0.494,0.198c0.203,0.061,0.407,0.09,0.616,0.09c0.232,0,0.434-0.047,0.587-0.139
			C138.297,119.69,138.376,119.522,138.376,119.28z"/>
	</g>
	<path fill="#FFFFFF" d="M120.243,114.455h0.694v0.164l-0.787,0.998h-0.367L120.243,114.455z"/>
	<path fill="#FFFFFF" d="M197.224,114.33h0.688v0.164l-0.787,0.998h-0.362L197.224,114.33z"/>
</g>
</svg>
