<?xml version="1.0" encoding="utf-8"?>
<!-- Generator: Adobe Illustrator 16.0.0, SVG Export Plug-In . SVG Version: 6.00 Build 0)  -->
<!DOCTYPE svg PUBLIC "-//W3C//DTD SVG 1.1//EN" "http://www.w3.org/Graphics/SVG/1.1/DTD/svg11.dtd">
<svg version="1.1" xmlns="http://www.w3.org/2000/svg" xmlns:xlink="http://www.w3.org/1999/xlink" x="0px" y="0px"
	 width="23.525px" height="23.631px" viewBox="0 0 23.525 23.631" enable-background="new 0 0 23.525 23.631" xml:space="preserve">
<g id="Soporte">
</g>
<g id="Publicidad">
</g>
<g id="Imagenes">
</g>
<g id="Cintillos">
</g>
<g id="Botones">
</g>
<g id="Logos">
</g>
<g id="Iconos">
	<path fill="#232323" d="M1.764,0.727h5.505c0,0,0.687,0.368,0.653,0.818C7.891,1.994,8.147,5.204,8.79,6.234
		c0,0,0.227,0.286-0.127,0.705C8.309,7.356,6.057,9.591,6.057,9.591s2.219,5.056,7.75,7.628l2.605-2.473
		c0,0,0.321-0.385,0.805-0.094c0.48,0.29,2.636,0.869,4.502,0.805c0,0,0.707,0.193,0.707,0.772s0,5.565,0,5.565
		s-0.303,0.642-0.689,0.674c-0.387,0.031-8.211,0.966-15.092-6.207C-0.14,9.187,0.948,1.609,0.948,1.609S1.074,0.727,1.764,0.727z"
		/>
</g>
<g id="TXT_1_">
</g>
<g id="Guias">
</g>
</svg>
