<?xml version="1.0" encoding="utf-8"?>
<!-- Generator: Adobe Illustrator 16.0.0, SVG Export Plug-In . SVG Version: 6.00 Build 0)  -->
<!DOCTYPE svg PUBLIC "-//W3C//DTD SVG 1.1//EN" "http://www.w3.org/Graphics/SVG/1.1/DTD/svg11.dtd">
<svg version="1.1" xmlns="http://www.w3.org/2000/svg" xmlns:xlink="http://www.w3.org/1999/xlink" x="0px" y="0px"
	 width="35.557px" height="34.957px" viewBox="0 0 35.557 34.957" enable-background="new 0 0 35.557 34.957" xml:space="preserve">
<g id="Soporte">
</g>
<g id="Publicidad">
</g>
<g id="Imagenes">
</g>
<g id="Cintillos">
</g>
<g id="Botones">
</g>
<g id="Logos">
</g>
<g id="Iconos">
	<g>
		<circle fill="#232323" cx="17.704" cy="17.066" r="16.033"/>
		<path fill="#FFFFFF" d="M28.193,10.713c-0.734,0.324-1.522,0.545-2.351,0.645c0.845-0.508,1.494-1.309,1.799-2.266
			c-0.791,0.47-1.667,0.811-2.599,0.994c-0.747-0.796-1.811-1.293-2.987-1.293c-2.26,0-4.093,1.832-4.093,4.093
			c0,0.321,0.036,0.634,0.106,0.933c-3.401-0.17-6.417-1.8-8.436-4.275C9.281,10.146,9.079,10.85,9.079,11.6
			c0,1.42,0.723,2.673,1.821,3.406c-0.671-0.021-1.302-0.205-1.854-0.512c0,0.018,0,0.035,0,0.052c0,1.983,1.411,3.638,3.283,4.013
			c-0.343,0.094-0.705,0.145-1.078,0.145c-0.264,0-0.52-0.025-0.77-0.074c0.521,1.627,2.032,2.81,3.823,2.843
			c-1.4,1.098-3.166,1.752-5.083,1.752c-0.33,0-0.656-0.02-0.976-0.058c1.811,1.162,3.962,1.84,6.274,1.84
			c7.528,0,11.645-6.237,11.645-11.646c0-0.177-0.004-0.354-0.012-0.529C26.95,12.254,27.644,11.533,28.193,10.713z"/>
	</g>
</g>
<g id="TXT_1_">
</g>
<g id="Guias">
</g>
</svg>
