<?xml version="1.0" encoding="utf-8"?>
<!-- Generator: Adobe Illustrator 16.0.0, SVG Export Plug-In . SVG Version: 6.00 Build 0)  -->
<!DOCTYPE svg PUBLIC "-//W3C//DTD SVG 1.1//EN" "http://www.w3.org/Graphics/SVG/1.1/DTD/svg11.dtd">
<svg version="1.1" xmlns="http://www.w3.org/2000/svg" xmlns:xlink="http://www.w3.org/1999/xlink" x="0px" y="0px" width="7.563px"
	 height="11.5px" viewBox="0 0 7.563 11.5" enable-background="new 0 0 7.563 11.5" xml:space="preserve">
<g id="Soporte">
</g>
<g id="Publicidad">
</g>
<g id="Imagenes">
</g>
<g id="Cintillos">
</g>
<g id="Botones">
</g>
<g id="Logos">
</g>
<g id="Iconos">
	<path fill="#848484" d="M7.06,4.167c0-1.811-1.468-3.279-3.278-3.279c-1.812,0-3.279,1.469-3.279,3.279
		c0,0.697,0.22,1.342,0.59,1.873l1.318,2.244l1.371,2.328l1.369-2.35l1.316-2.217C6.84,5.513,7.06,4.865,7.06,4.167z M3.782,2.859
		c0.722,0,1.308,0.585,1.308,1.308c0,0.724-0.586,1.308-1.308,1.308c-0.723,0-1.309-0.584-1.309-1.308
		C2.473,3.444,3.059,2.859,3.782,2.859z"/>
</g>
<g id="TXT_1_">
</g>
<g id="Guias">
</g>
</svg>
