<?xml version="1.0" encoding="utf-8"?>
<!-- Generator: Adobe Illustrator 16.0.0, SVG Export Plug-In . SVG Version: 6.00 Build 0)  -->
<!DOCTYPE svg PUBLIC "-//W3C//DTD SVG 1.1//EN" "http://www.w3.org/Graphics/SVG/1.1/DTD/svg11.dtd">
<svg version="1.1" id="Capa_1" xmlns="http://www.w3.org/2000/svg" xmlns:xlink="http://www.w3.org/1999/xlink" x="0px" y="0px"
	 width="80.792px" height="81.833px" viewBox="0 0 80.792 81.833" enable-background="new 0 0 80.792 81.833" xml:space="preserve">
<linearGradient id="SVGID_1_" gradientUnits="userSpaceOnUse" x1="-510.1426" y1="291.6782" x2="-475.2805" y2="262.8161" gradientTransform="matrix(1 0 0 -1 539.1001 325.2334)">
	<stop  offset="0" style="stop-color:#99111C"/>
	<stop  offset="1" style="stop-color:#99111C;stop-opacity:0"/>
</linearGradient>
<polygon fill="url(#SVGID_1_)" points="1.195,47.762 1.338,16.692 10.401,12.786 11.198,8.708 15.292,7.364 20.073,8.661 
	22.823,7.224 23.745,2.505 28.104,1.614 32.479,2.755 33.182,7.849 35.526,8.911 40.713,8.083 44.587,9.302 44.979,13.427 
	52.151,17.599 81.087,44.389 81.087,80.083 40.667,80.083 "/>
<path fill="#B92025" d="M1.646,46.792L2.29,17.731l8.356-4.439l0.167-3.458c0,0,0.708-1.958,4.75-1.958s4.792,1.25,4.792,1.25
	l2.667-1.375v-4c0,0,1.208-1.75,4.208-1.75s5.417,0.333,5.5,2.375l0.167,3.25l2.5,1.75c0,0,2.166-0.958,4.125-0.958
	s5.042,0.375,5.167,2.417l0.333,3.917l5.792,3.458l0.375,28.833L27.104,60.25L1.646,46.792z"/>
<g>
	<g>
		<polygon fill="#FFFFFF" points="27.062,61.598 1.167,47.681 1.167,16.448 10.444,12.084 11.295,13.895 3.167,17.718 3.167,46.485 
			27.046,59.318 50.167,46.495 50.167,18.733 44.333,15.321 45.343,13.595 52.167,17.587 52.167,47.672 		"/>
	</g>
	<g>
		
			<rect x="32.677" y="7.708" transform="matrix(-0.866 -0.5001 0.5001 -0.866 59.8914 32.9675)" fill="#FFFFFF" width="3.374" height="1.5"/>
	</g>
	<g>
		
			<rect x="20.856" y="6.34" transform="matrix(-0.4434 -0.8963 0.8963 -0.4434 23.9562 31.0081)" fill="#FFFFFF" width="1.499" height="3.452"/>
	</g>
	<g>
		<polygon fill="#FFFFFF" points="27.662,32.453 2.29,17.731 3.043,16.435 27.669,30.723 50.794,17.557 51.539,18.859 		"/>
	</g>
	<g>
		<rect x="26.167" y="31.083" fill="#FFFFFF" width="2" height="29"/>
	</g>
	<g>
		<g>
			<path fill="#FFFFFF" d="M15.715,12.588c-3.099,0-5.437-1.181-5.437-2.746c0-1.566,2.338-2.747,5.437-2.747
				c3.098,0,5.436,1.181,5.436,2.747C21.151,11.407,18.813,12.588,15.715,12.588z M15.715,8.095c-2.503,0-4.375,0.923-4.375,1.747
				c0,0.824,1.872,1.746,4.375,1.746c2.502,0,4.373-0.922,4.373-1.746C20.088,9.018,18.217,8.095,15.715,8.095z"/>
		</g>
	</g>
	<g>
		<g>
			<path fill="#FFFFFF" d="M21.106,17c0,1.565-2.353,2.744-5.424,2.744c-3.071,0-5.387-1.181-5.387-2.746h1.053
				c0,0.824,1.854,1.746,4.334,1.746s4.334-0.922,4.334-1.746L21.106,17z"/>
		</g>
	</g>
	<g>
		<g>
			<rect x="20.012" y="10.109" fill="#FFFFFF" width="1.11" height="6.906"/>
		</g>
	</g>
	<g>
		<g>
			<rect x="10.297" y="10" fill="#FFFFFF" width="1.028" height="7.016"/>
		</g>
	</g>
	<g>
		<g>
			<path fill="#FFFFFF" d="M39.965,13.255c-3.099,0-5.437-1.181-5.437-2.746c0-1.566,2.338-2.747,5.437-2.747
				c3.098,0,5.436,1.181,5.436,2.747C45.401,12.074,43.063,13.255,39.965,13.255z M39.965,8.762c-2.503,0-4.375,0.923-4.375,1.747
				c0,0.824,1.872,1.746,4.375,1.746c2.501,0,4.373-0.922,4.373-1.746C44.337,9.685,42.466,8.762,39.965,8.762z"/>
		</g>
	</g>
	<g>
		<g>
			<path fill="#FFFFFF" d="M45.356,17.667c0,1.565-2.353,2.744-5.424,2.744s-5.387-1.181-5.387-2.746h1.053
				c0,0.824,1.854,1.746,4.334,1.746c2.479,0,4.334-0.922,4.334-1.746L45.356,17.667z"/>
		</g>
	</g>
	<g>
		<g>
			<rect x="44.262" y="10.776" fill="#FFFFFF" width="1.11" height="6.906"/>
		</g>
	</g>
	<g>
		<g>
			<rect x="34.547" y="10.667" fill="#FFFFFF" width="1.028" height="7.016"/>
		</g>
	</g>
	<g>
		<g>
			<path fill="#FFFFFF" d="M28.006,20.297c-3.099,0-5.437-1.181-5.437-2.746c0-1.566,2.338-2.747,5.437-2.747
				c3.098,0,5.436,1.181,5.436,2.747C33.442,19.116,31.104,20.297,28.006,20.297z M28.006,15.804c-2.503,0-4.375,0.923-4.375,1.747
				c0,0.824,1.872,1.746,4.375,1.746c2.502,0,4.373-0.922,4.373-1.746C32.379,16.727,30.508,15.804,28.006,15.804z"/>
		</g>
	</g>
	<g>
		<g>
			<path fill="#FFFFFF" d="M33.397,24.709c0,1.565-2.353,2.744-5.424,2.744c-3.071,0-5.387-1.181-5.387-2.746h1.053
				c0,0.824,1.854,1.746,4.334,1.746s4.334-0.922,4.334-1.746L33.397,24.709z"/>
		</g>
	</g>
	<g>
		<g>
			<rect x="32.303" y="17.818" fill="#FFFFFF" width="1.11" height="6.906"/>
		</g>
	</g>
	<g>
		<g>
			<rect x="22.588" y="17.709" fill="#FFFFFF" width="1.028" height="7.016"/>
		</g>
	</g>
	<g>
		<g>
			<path fill="#FFFFFF" d="M28.006,6.714c-3.099,0-5.437-1.181-5.437-2.746c0-1.566,2.338-2.747,5.437-2.747
				c3.098,0,5.436,1.181,5.436,2.747C33.442,5.533,31.104,6.714,28.006,6.714z M28.006,2.221c-2.503,0-4.375,0.923-4.375,1.747
				c0,0.824,1.872,1.746,4.375,1.746c2.502,0,4.373-0.922,4.373-1.746C32.379,3.144,30.508,2.221,28.006,2.221z"/>
		</g>
	</g>
	<g>
		<g>
			<path fill="#FFFFFF" d="M33.397,11.126c0,1.565-2.353,2.744-5.424,2.744c-3.071,0-5.387-1.181-5.387-2.746h1.053
				c0,0.824,1.854,1.746,4.334,1.746s4.334-0.922,4.334-1.746L33.397,11.126z"/>
		</g>
	</g>
	<g>
		<g>
			<rect x="32.303" y="4.235" fill="#FFFFFF" width="1.11" height="6.906"/>
		</g>
	</g>
	<g>
		<g>
			<rect x="22.588" y="4.126" fill="#FFFFFF" width="1.028" height="7.016"/>
		</g>
	</g>
</g>
</svg>
