<?xml version="1.0" encoding="utf-8"?>
<!-- Generator: Adobe Illustrator 16.0.0, SVG Export Plug-In . SVG Version: 6.00 Build 0)  -->
<!DOCTYPE svg PUBLIC "-//W3C//DTD SVG 1.1//EN" "http://www.w3.org/Graphics/SVG/1.1/DTD/svg11.dtd">
<svg version="1.1" id="Capa_1" xmlns="http://www.w3.org/2000/svg" xmlns:xlink="http://www.w3.org/1999/xlink" x="0px" y="0px"
	 width="93.042px" height="73.797px" viewBox="0 0 93.042 73.797" enable-background="new 0 0 93.042 73.797" xml:space="preserve">
<linearGradient id="SVGID_1_" gradientUnits="userSpaceOnUse" x1="-504.689" y1="286.8828" x2="-468.7529" y2="257.1316" gradientTransform="matrix(1 0 0 -1 539.1001 317.1973)">
	<stop  offset="0" style="stop-color:#99111C"/>
	<stop  offset="1" style="stop-color:#99111C;stop-opacity:0"/>
</linearGradient>
<polygon fill="url(#SVGID_1_)" points="2.148,45.4 2.68,42.104 1.742,30.682 2.43,22.916 6.445,16.838 11.586,13.4 10.336,12.635 
	6.602,12.135 7.961,10.619 12.914,10.885 20.023,1.775 49.298,1.775 57.195,12.119 58.477,11.432 63.977,11.76 92.684,36.232 
	92.684,72.797 33.748,72.797 "/>
<path fill="#B92025" d="M3.507,43.346c0,0-3.152-10.781-1.652-17.447s7.13-10.664,9.731-12.499l-4.898-0.168l-0.667-1.333
	l1.94-1.279l4.227,0.696l7.917-9.25h28.75l8,9.917l1.622-0.55l4.294,0.05l0.75,1l-1.166,1.667l-3.917,0.167c0,0,9,4.833,9.25,11.333
	s0.75,11.166-0.25,17.5l0.5,1.834c0,0-12.501,2.917-14.917,2.25l-3.916-1.417l-27.5,0.666l-4.75,1.25c0,0-13.333-2-14-2.75
	C2.854,44.981,2.326,43.96,3.507,43.346z"/>
<g>
	<g>
		<path fill="#FFFFFF" d="M12.554,48.547H7.716c-1.428,0-2.687-0.91-3.132-2.266c-0.082-0.25-0.027-0.524,0.145-0.725
			c0.171-0.199,0.436-0.291,0.694-0.25c2.948,0.504,7.869,1.305,8.527,1.305c0.066,0,0.243,0.014,0.307,0.031
			c0.327,0.088,0.574,0.398,0.574,0.738C14.831,48.441,12.577,48.547,12.554,48.547z"/>
	</g>
	<g>
		<path fill="#FFFFFF" d="M62.839,48.547h-4.838c-0.404,0-0.928-0.188-1.203-0.3c-0.531-0.218-1.051-0.476-1.051-1.034
			c0-0.414,0.424-0.781,0.838-0.781l0,0c0.713,0,5.625-0.748,8.565-1.221c0.256-0.045,0.521,0.055,0.688,0.254
			c0.17,0.199,0.225,0.473,0.143,0.721C65.526,47.576,64.233,48.547,62.839,48.547z"/>
	</g>
	<g>
		<path fill="#FFFFFF" d="M17.328,48.355c-0.015,0-0.029,0-0.043-0.002c-4.42-0.258-14.792-1.127-15.627-3.629
			c-0.054-0.162-0.051-0.338,0.008-0.496l0.805-2.188c-0.426-1.495-2.435-9.246-0.903-17.552c0.03-0.237,0.956-6.778,8.254-10.714
			c0.134-0.061,0.281-0.139,0.426-0.229H7.207C6.65,13.505,5.664,13.14,5.49,12.04c-0.044-0.276,0.07-0.555,0.296-0.721l1.528-1.126
			c0.129-0.096,0.285-0.146,0.445-0.146h4.031c0.313,0,0.586,0.193,0.697,0.473l6.861-9.172c0.142-0.189,0.364-0.301,0.601-0.301
			H48.71c0.229,0,0.444,0.104,0.586,0.283l7.842,9.868c0.119-0.269,0.388-0.444,0.685-0.444h4.382c0.101,0,0.199,0.021,0.293,0.06
			c0.758,0.322,2.019,1.014,1.926,2.027c-0.086,0.934-1.301,1.636-1.819,1.895c-0.103,0.051-0.215,0.078-0.33,0.079l-2.128,0.016
			c0.176,0.113,0.368,0.235,0.578,0.366c1.777,1.114,7.604,5.204,7.926,11.055c0.03,0.328,0.779,8.715-0.467,15.959l0.363,2.423
			c0.033,0.214-0.029,0.433-0.17,0.597c-0.332,0.394-2.627,2.377-15.119,2.873c-0.084,0.008-0.17-0.008-0.252-0.033l-3.772-1.176
			L22.081,47.02l-4.547,1.309C17.467,48.346,17.397,48.355,17.328,48.355z M3.199,44.402c1.014,0.947,7.19,2.037,14.044,2.447
			l4.524-1.302c0.066-0.021,0.135-0.028,0.204-0.028l27.372-0.129c0.053-0.021,0.152,0.012,0.227,0.034l3.76,1.173
			c9.76-0.397,12.873-1.723,13.668-2.182l-0.315-2.104c-0.013-0.08-0.011-0.162,0.003-0.242c1.241-7.075,0.479-15.625,0.469-15.71
			c-0.291-5.29-6.07-9.169-7.226-9.893c-2.103-1.318-2.593-1.78-2.671-1.859c-0.209-0.217-0.27-0.538-0.151-0.815
			s0.39-0.457,0.69-0.457h0.002l0.983,0.004l3.298-0.024c0.313-0.174,0.623-0.399,0.775-0.56c-0.166-0.147-0.492-0.351-0.813-0.502
			h-3.703l-0.238,0.634c-0.09,0.239-0.297,0.417-0.548,0.47c-0.252,0.052-0.513-0.027-0.69-0.21l-0.478-0.489L48.348,2.547H20.324
			l-7.051,9.426c-0.097,0.129-0.232,0.224-0.386,0.27l-0.471,0.141c0.102,0.153,0.144,0.34,0.116,0.524
			c-0.204,1.371-1.866,2.134-2.055,2.217c-6.54,3.529-7.421,9.54-7.429,9.601c-1.609,8.731,0.903,17.04,0.928,17.124
			c0.048,0.156,0.044,0.324-0.013,0.479L3.199,44.402z M8.005,11.547l-0.682,0.502l3.905-0.002c-0.027-0.063-0.046-0.13-0.056-0.198
			l-0.04-0.302H8.005z"/>
	</g>
	<g>
		<path fill="#FFFFFF" d="M54.807,15.172c-0.003,0-0.006,0-0.009,0l-40.476-0.479c-0.281-0.003-0.536-0.163-0.662-0.414
			c-0.125-0.252-0.1-0.552,0.065-0.778l7.073-9.677c0.141-0.193,0.366-0.308,0.605-0.308h25.794c0.236,0,0.458,0.111,0.601,0.301
			l7.522,10.042c0.156,0.138,0.255,0.339,0.255,0.563c0,0.414-0.336,0.75-0.75,0.75C54.819,15.172,54.813,15.172,54.807,15.172z
			 M15.796,13.21l37.499,0.444l-6.471-8.639H21.786L15.796,13.21z"/>
	</g>
	<g>
		<path fill="#FFFFFF" d="M16.331,31.487c-0.032,0-0.065-0.002-0.098-0.007L5.717,30.099l-1.309,0.309
			c-0.223,0.051-0.461-0.001-0.641-0.146l-1.273-1.02c-0.228-0.182-0.329-0.479-0.26-0.763l1.358-5.559
			c0.048-0.199,0.176-0.369,0.353-0.472c0.177-0.102,0.387-0.129,0.584-0.071l11.288,3.268c0.278,0.081,0.484,0.313,0.531,0.599
			l0.722,4.371c0.039,0.234-0.036,0.473-0.201,0.644C16.728,31.406,16.532,31.487,16.331,31.487z M5.679,28.587
			c0.033,0,0.065,0.002,0.098,0.007l9.649,1.269l-0.48-2.907l-10.082-2.92l-1.059,4.335l0.614,0.492l1.087-0.257
			C5.563,28.594,5.621,28.587,5.679,28.587z"/>
	</g>
	<g>
		<path fill="#FFFFFF" d="M54.396,31.487c-0.201,0-0.396-0.081-0.538-0.228c-0.166-0.171-0.241-0.41-0.202-0.645l0.721-4.371
			c0.047-0.283,0.252-0.516,0.527-0.597l11.034-3.268c0.196-0.061,0.409-0.033,0.586,0.068c0.179,0.103,0.306,0.273,0.354,0.473
			l1.358,5.559c0.069,0.283-0.032,0.581-0.26,0.764l-1.272,1.02c-0.181,0.144-0.418,0.194-0.642,0.145l-1.308-0.309l-10.26,1.382
			C54.462,31.485,54.43,31.487,54.396,31.487z M55.781,26.952l-0.479,2.906l9.392-1.265c0.091-0.014,0.183-0.008,0.272,0.013
			l1.087,0.257l0.614-0.492l-1.058-4.33L55.781,26.952z"/>
	</g>
	<g>
		<path fill="#FFFFFF" d="M16.925,46.341c-0.027,0-0.054-0.001-0.081-0.005C4.357,44.979,3.769,43.887,3.576,43.525
			c-0.031-0.057-0.054-0.117-0.069-0.18c-0.02-0.082-0.483-2.053-1.034-6.838c-0.029-0.254,0.072-0.504,0.27-0.666
			c0.198-0.161,0.464-0.212,0.705-0.134l12.137,3.905c0.125,0.039,0.238,0.113,0.327,0.211l3.607,3.988
			c0.149,0.164,0.217,0.388,0.187,0.606c-0.03,0.22-0.157,0.415-0.345,0.532l-2.037,1.273
			C17.203,46.303,17.065,46.341,16.925,46.341z M4.917,42.771c1.067,0.578,6.796,1.487,11.832,2.045l1.057-0.66l-2.872-3.176
			L4.101,37.495C4.478,40.543,4.798,42.205,4.917,42.771z"/>
	</g>
	<g>
		<path fill="#FFFFFF" d="M53.632,46.341c-0.139,0-0.277-0.038-0.396-0.114l-2.037-1.272c-0.188-0.117-0.314-0.313-0.345-0.532
			c-0.031-0.22,0.038-0.441,0.187-0.605l3.607-3.989c0.088-0.099,0.201-0.171,0.327-0.211l12.137-3.905
			c0.241-0.079,0.509-0.027,0.705,0.134c0.197,0.162,0.3,0.412,0.271,0.666c-0.551,4.785-1.015,6.754-1.034,6.836
			c-0.015,0.063-0.039,0.125-0.069,0.182c-0.193,0.359-0.781,1.451-13.268,2.81C53.687,46.34,53.66,46.341,53.632,46.341z
			 M52.751,44.156l1.058,0.66c5.036-0.559,10.764-1.467,11.831-2.045c0.117-0.566,0.438-2.229,0.814-5.276l-10.83,3.485
			L52.751,44.156z"/>
	</g>
	<g>
		<path fill="#FFFFFF" d="M47.988,46.001c-0.001,0-0.001,0-0.002,0l-25.377-0.085c-0.166-0.001-0.327-0.057-0.458-0.157
			l-2.079-1.612c-0.148-0.115-0.248-0.283-0.279-0.467l-2.844-16.722c-0.051-0.3,0.084-0.601,0.342-0.762l2.377-1.484
			c0.119-0.075,0.257-0.114,0.397-0.114c0,0,0.001,0,0.002,0l31.276,0.085c0.175,0,0.344,0.062,0.479,0.174l2.037,1.698
			c0.208,0.174,0.307,0.447,0.258,0.714L50.89,44.497c-0.047,0.25-0.217,0.459-0.452,0.556l-2.165,0.893
			C48.183,45.98,48.085,46.001,47.988,46.001z M22.869,44.417L47.841,44.5l1.648-0.68l3.069-16.396l-1.491-1.243l-30.79-0.083
			l-1.767,1.104l2.71,15.938L22.869,44.417z"/>
	</g>
</g>
</svg>
