<?xml version="1.0" encoding="utf-8"?>
<!-- Generator: Adobe Illustrator 16.0.0, SVG Export Plug-In . SVG Version: 6.00 Build 0)  -->
<!DOCTYPE svg PUBLIC "-//W3C//DTD SVG 1.1//EN" "http://www.w3.org/Graphics/SVG/1.1/DTD/svg11.dtd">
<svg version="1.1" xmlns="http://www.w3.org/2000/svg" xmlns:xlink="http://www.w3.org/1999/xlink" x="0px" y="0px" width="34.57px"
	 height="33.692px" viewBox="0 0 34.57 33.692" enable-background="new 0 0 34.57 33.692" xml:space="preserve">
<g id="Soporte">
</g>
<g id="Publicidad">
</g>
<g id="Imagenes">
</g>
<g id="Cintillos">
</g>
<g id="Botones">
</g>
<g id="Logos">
</g>
<g id="Iconos">
	<g>
		<circle fill="#232323" cx="17.49" cy="17.342" r="16.033"/>
		<g>
			<path fill="#232323" d="M17.914,7.743c-4.855,0-8.794,3.937-8.794,8.792c0,2.846,1.714,5.216,1.714,5.216l-1.074,3.202
				l3.309-1.08c0,0,2.154,1.456,4.846,1.456c4.857,0,8.793-3.938,8.793-8.794C26.707,11.68,22.771,7.743,17.914,7.743z"/>
			<path fill="#FFFFFF" d="M17.914,6.067c-5.781,0-10.467,4.687-10.467,10.468c0,2.87,1.518,5.436,1.518,5.436l-1.832,5.573
				l5.738-1.832c0,0,2.129,1.291,5.043,1.291c5.781,0,10.468-4.687,10.468-10.468S23.695,6.067,17.914,6.067z M17.914,25.329
				c-2.691,0-4.846-1.456-4.846-1.456l-3.309,1.08l1.074-3.202c0,0-1.714-2.37-1.714-5.216c0-4.855,3.938-8.792,8.794-8.792
				c4.857,0,8.793,3.937,8.793,8.792C26.707,21.392,22.771,25.329,17.914,25.329z"/>
			<path fill="#FFFFFF" d="M13.927,11.979c0,0,0.281-0.179,0.431-0.179c0.146,0,0.823,0,0.823,0s0.221,0.037,0.324,0.267
				c0.1,0.231,0.797,1.865,0.848,1.991c0.052,0.126,0.188,0.438-0.029,0.718c-0.215,0.279-0.67,0.801-0.67,0.801
				s-0.178,0.16-0.023,0.418s0.701,1.105,1.416,1.745s1.59,1.111,2.025,1.255c0.436,0.143,0.533-0.048,0.7-0.263
				s0.688-0.872,0.688-0.872s0.179-0.265,0.532-0.102c0.352,0.161,2.066,0.99,2.066,0.99s0.209,0.037,0.221,0.27
				c0.014,0.233,0.157,0.931-0.467,1.602c-0.619,0.672-1.941,0.981-2.567,0.807s-2.696-0.715-4.046-1.975
				c-1.35-1.259-2.443-2.583-2.889-3.56c-0.447-0.978-0.424-1.559-0.399-1.831C12.936,13.788,13.08,12.521,13.927,11.979z"/>
		</g>
	</g>
</g>
<g id="TXT_1_">
</g>
<g id="Guias">
</g>
</svg>
